<?xml version="1.0" encoding="utf-8"?>
<!-- Generator: Adobe Illustrator 16.0.0, SVG Export Plug-In . SVG Version: 6.00 Build 0)  -->
<!DOCTYPE svg PUBLIC "-//W3C//DTD SVG 1.1//EN" "http://www.w3.org/Graphics/SVG/1.1/DTD/svg11.dtd">
<svg version="1.1" id="Layer_1" xmlns="http://www.w3.org/2000/svg" xmlns:xlink="http://www.w3.org/1999/xlink" x="0px" y="0px"
	 width="125.919px" height="111.489px" viewBox="0 0 125.919 111.489" enable-background="new 0 0 125.919 111.489"
	 xml:space="preserve">
<g>
	<path fill="#373737" d="M105.19,28.763c-0.075,0.455,0,0.834,0.152,1.138c0.189,0.304,0.417,0.532,0.759,0.646s0.721,0.114,1.176,0
		c0.456-0.114,0.834-0.343,1.215-0.646c0.379-0.304,0.683-0.683,0.911-1.101c0.265-0.418,0.416-0.836,0.493-1.328
		c0.038-0.455-0.038-0.837-0.189-1.141c-0.191-0.303-0.456-0.492-0.799-0.606c-0.341-0.114-0.72-0.114-1.175,0
		c-0.419,0.114-0.835,0.304-1.215,0.646c-0.342,0.304-0.646,0.646-0.911,1.063C105.38,27.85,105.229,28.307,105.19,28.763
		L105.19,28.763z M125.757,39.393c-0.567,1.023-1.252,1.974-2.01,2.848c-0.722,0.873-1.518,1.632-2.392,2.316
		c-0.834,0.683-1.669,1.29-2.542,1.746c-0.873,0.493-1.708,0.835-2.542,1.063c-0.798,0.227-1.518,0.304-2.202,0.227
		c-0.683-0.037-1.289-0.266-1.82-0.607c-0.493-0.341-0.874-0.797-1.178-1.404c-0.492,0.683-1.061,1.329-1.631,1.937
		c-0.684,0.683-1.365,1.29-2.087,1.784c-0.721,0.493-1.48,0.835-2.238,1.063c-0.418,0.114-0.836,0.151-1.253,0.151
		c-0.417-0.037-0.797-0.151-1.101-0.38c-0.342-0.228-0.531-0.568-0.683-1.062c0-0.114-0.037-0.229-0.037-0.381
		c-0.344,0.381-0.685,0.721-1.025,1.101c-0.722,0.685-1.442,1.291-2.239,1.784c-0.759,0.532-1.556,0.874-2.277,1.102
		c-0.721,0.189-1.29,0.189-1.782,0c-0.493-0.19-0.797-0.646-0.988-1.328c-0.037-0.114-0.037-0.305-0.075-0.455
		c-0.304,0.378-0.645,0.759-0.986,1.138c-0.684,0.684-1.366,1.253-2.088,1.746c-0.72,0.494-1.479,0.874-2.238,1.063
		c-0.418,0.114-0.834,0.19-1.215,0.151c-0.418-0.037-0.759-0.189-1.023-0.455c-0.304-0.266-0.495-0.684-0.57-1.29
		c-0.076-0.607,0-1.443,0.189-2.469l1.404-7.062c0.114-0.493,0.114-0.911,0.077-1.177c-0.077-0.267-0.191-0.456-0.343-0.531
		c-0.189-0.114-0.379-0.114-0.646-0.039c-0.303,0.077-0.645,0.267-0.986,0.532c-0.378,0.265-0.759,0.568-1.1,0.911
		c-0.342,0.343-0.646,0.722-0.911,1.101L81.17,54.655c-0.114,0.531-0.304,1.024-0.607,1.405c-0.267,0.378-0.607,0.682-1.024,0.948
		c-0.38,0.229-0.759,0.418-1.177,0.532c-0.304,0.075-0.607,0.112-0.873,0.112c-0.265,0-0.493-0.075-0.721-0.151l0.683-3.378
		c-0.151,0.227-0.341,0.455-0.53,0.646c-0.722,0.873-1.519,1.669-2.353,2.354c-0.874,0.683-1.708,1.291-2.581,1.747
		c-0.872,0.492-1.708,0.834-2.542,1.062c-0.797,0.189-1.519,0.266-2.201,0.227c-0.683-0.075-1.29-0.265-1.822-0.607
		c-0.493-0.341-0.872-0.796-1.176-1.441c-0.493,0.683-1.062,1.366-1.632,1.974c-0.683,0.685-1.366,1.253-2.087,1.747
		c-0.721,0.531-1.48,0.873-2.239,1.062c-0.417,0.151-0.834,0.189-1.215,0.151c-0.417-0.037-0.758-0.188-1.023-0.455
		c-0.304-0.266-0.494-0.684-0.569-1.291c-0.076-0.607,0-1.443,0.189-2.468l1.403-7.062c0.114-0.379,0.153-0.722,0.153-1.025
		s-0.039-0.531-0.19-0.683c-0.152-0.152-0.38-0.152-0.759-0.076c-0.607,0.19-1.177,0.494-1.67,0.949
		c-0.531,0.456-0.986,1.024-1.441,1.67L51.04,62.741c-0.114,0.533-0.342,1.026-0.608,1.405c-0.303,0.38-0.645,0.683-1.023,0.95
		c-0.38,0.227-0.797,0.417-1.215,0.53c-0.266,0.076-0.531,0.114-0.759,0.114c-0.229,0.037-0.455,0-0.646-0.075l0.417-1.976
		c-0.227,0.229-0.454,0.456-0.682,0.684c-0.722,0.723-1.443,1.329-2.239,1.822c-0.76,0.494-1.557,0.874-2.277,1.102
		c-0.721,0.19-1.291,0.19-1.783,0c-0.494-0.19-0.797-0.646-0.986-1.329c-0.039-0.151-0.039-0.303-0.076-0.455
		c-0.304,0.379-0.646,0.76-1.024,1.138c-0.684,0.684-1.367,1.255-2.05,1.747c-0.683,0.494-1.365,0.798-1.973,0.987
		c-0.417,0.115-0.797,0.152-1.177,0.152c-0.418,0-0.76-0.114-1.063-0.342c-0.302-0.19-0.53-0.532-0.683-0.986
		c-0.189-0.419-0.227-1.025-0.189-1.785c-0.456,0.873-0.949,1.632-1.441,2.354c-0.532,0.723-1.063,1.291-1.632,1.784
		c-0.607,0.456-1.216,0.797-1.821,0.988c-0.76,0.189-1.366,0.189-1.822,0.037c-0.493-0.151-0.834-0.418-1.101-0.797
		c-0.189-0.342-0.342-0.722-0.417-1.179c-0.456,0.57-0.949,1.103-1.442,1.596c-0.683,0.684-1.328,1.254-2.011,1.709
		c-0.646,0.455-1.253,0.759-1.822,0.948c-0.493,0.114-0.986,0.191-1.441,0.191c-0.455-0.039-0.873-0.152-1.253-0.343
		c-0.341-0.228-0.607-0.57-0.759-1.025c-0.152-0.493-0.152-1.101,0-1.937l1.177-5.732l-3.795,0.987
		c-0.722,1.936-1.479,3.605-2.162,5.012c-0.722,1.404-1.442,2.543-2.126,3.493c-0.721,0.911-1.404,1.633-2.087,2.163
		c-0.721,0.532-1.442,0.911-2.163,1.103c-0.569,0.151-1.062,0.075-1.479-0.152c-0.418-0.229-0.798-0.646-1.025-1.291
		C0.113,75.727,0,74.929,0,73.942c0-0.646,0.151-1.215,0.417-1.633c0.266-0.455,0.607-0.798,1.024-1.062
		c0.456-0.267,0.911-0.456,1.404-0.609c0.341-0.075,0.607-0.112,0.911-0.075c0.305,0,0.53,0.075,0.797,0.189
		c-0.19,0.495-0.342,0.988-0.456,1.443c-0.075,0.456-0.151,0.873-0.189,1.252c-0.037,0.381-0.075,0.722-0.075,0.95v0.304
		c0.454-0.266,0.91-0.645,1.403-1.177c0.493-0.493,0.986-1.177,1.518-1.974c0.532-0.836,1.14-1.861,1.708-3.075
		c0.607-1.216,1.253-2.697,1.897-4.404c0.683-1.709,1.367-3.721,2.087-6c0.76-2.277,1.518-4.896,2.353-7.858l-0.683,0.191
		c-0.76,0.226-1.404,0.493-1.936,0.797c-0.531,0.341-0.949,0.721-1.29,1.138c-0.341,0.38-0.569,0.797-0.721,1.253
		c-0.152,0.418-0.228,0.837-0.228,1.215c0,0.38,0.075,0.722,0.189,1.025s0.304,0.569,0.493,0.76
		c-0.266,0.189-0.493,0.342-0.722,0.455c-0.265,0.113-0.492,0.19-0.721,0.266c-0.568,0.151-1.062,0.114-1.479-0.075
		c-0.38-0.19-0.721-0.495-0.91-0.912c-0.228-0.417-0.343-0.911-0.343-1.48c0-0.53,0.115-1.102,0.304-1.67
		c0.229-0.608,0.569-1.178,1.024-1.747c0.418-0.569,1.025-1.062,1.708-1.519c0.722-0.455,1.556-0.834,2.542-1.102
		c0.874-0.227,1.746-0.418,2.619-0.53c0.835-0.152,1.669-0.267,2.467-0.342c0.798-0.114,1.555-0.189,2.277-0.304
		c0.721-0.114,1.404-0.229,2.049-0.418c0.646-0.189,1.214-0.418,1.708-0.722c0.189,0.075,0.304,0.152,0.379,0.304
		c0.076,0.114,0.114,0.265,0.114,0.456c0,0.227-0.038,0.418-0.152,0.645c-0.075,0.229-0.189,0.418-0.38,0.607
		c-0.188,0.152-0.38,0.304-0.645,0.38l-0.152,0.038L18.48,67.906c-0.114,0.683-0.152,1.176-0.076,1.518
		c0.076,0.341,0.189,0.57,0.417,0.646c0.228,0.113,0.456,0.113,0.798,0c0.341-0.075,0.759-0.305,1.177-0.568
		c0.416-0.305,0.834-0.647,1.252-1.025c0.228-0.191,0.417-0.419,0.606-0.608c0-0.076,0.039-0.151,0.039-0.229
		c0.036-0.606,0.113-1.177,0.228-1.707l1.593-7.328c0.076-0.266,0.076-0.493,0-0.607c-0.075-0.114-0.189-0.19-0.342-0.114
		c-0.075,0-0.189,0.077-0.265,0.152c-0.114,0.114-0.266,0.229-0.418,0.418c-0.151-0.076-0.266-0.189-0.341-0.381
		c-0.076-0.227-0.076-0.455-0.039-0.722c0.039-0.265,0.19-0.493,0.38-0.758c0.379-0.419,0.797-0.76,1.176-1.139
		c0.418-0.343,0.836-0.646,1.253-0.912s0.873-0.417,1.367-0.569c0.379-0.114,0.72-0.152,1.023-0.076
		c0.266,0.037,0.456,0.19,0.569,0.455c0.114,0.229,0.114,0.608,0,1.025l-2.049,10.099c-0.152,0.761-0.115,1.254,0.075,1.52
		s0.57,0.304,1.063,0.19c0.606-0.19,1.139-0.494,1.67-0.911c0.493-0.456,0.986-1.025,1.441-1.67l2.011-10.062
		c0.114-0.569,0.304-1.025,0.608-1.405c0.303-0.38,0.645-0.721,1.024-0.949c0.379-0.228,0.759-0.417,1.176-0.53
		c0.303-0.077,0.607-0.114,0.872-0.114c0.266,0,0.532,0.037,0.722,0.114l-2.353,11.77c-0.152,0.683-0.19,1.178-0.114,1.519
		c0.038,0.342,0.189,0.569,0.38,0.683c0.189,0.114,0.455,0.114,0.721,0.039c0.418-0.114,0.873-0.343,1.29-0.607
		c0.455-0.266,0.873-0.608,1.253-0.95c0.227-0.227,0.417-0.418,0.606-0.645c0.039-0.152,0.076-0.304,0.076-0.456l2.163-10.745
		l-1.67,0.456c-0.076-0.342-0.037-0.684,0.038-0.987c0.114-0.341,0.266-0.607,0.493-0.834c0.228-0.229,0.531-0.418,0.873-0.493
		l0.683-0.191l0.607-2.924c0.114-0.532,0.304-1.025,0.607-1.403c0.265-0.381,0.606-0.685,1.024-0.95
		c0.379-0.228,0.759-0.418,1.177-0.532c0.304-0.075,0.607-0.113,0.873-0.113c0.265,0.038,0.492,0.077,0.721,0.152l-0.949,4.669
		l2.467-0.645c0.038,0.341,0.038,0.684-0.075,0.987c-0.114,0.341-0.267,0.607-0.494,0.835s-0.493,0.419-0.873,0.493l-1.479,0.419
		l-1.974,9.983c-0.113,0.646-0.152,1.14-0.113,1.48c0.075,0.38,0.189,0.609,0.379,0.685c0.19,0.114,0.456,0.114,0.76,0.037
		c0.417-0.112,0.835-0.304,1.289-0.569c0.418-0.304,0.835-0.607,1.214-0.986c0.229-0.19,0.418-0.38,0.608-0.569l3.377-16.782
		c0.039-0.341,0.039-0.569-0.037-0.684c-0.114-0.113-0.228-0.113-0.418-0.036c-0.152,0.075-0.342,0.227-0.531,0.493
		c-0.228-0.153-0.379-0.304-0.418-0.457c-0.075-0.15-0.075-0.304-0.075-0.454c0-0.191,0.151-0.456,0.417-0.798
		c0.228-0.342,0.569-0.685,1.025-1.063c0.417-0.379,0.872-0.721,1.365-1.025c0.493-0.266,0.949-0.493,1.404-0.646
		c0.645-0.15,1.101-0.113,1.366,0.076c0.304,0.228,0.379,0.685,0.266,1.367l-1.745,8.694c0.417-0.722,0.872-1.366,1.328-1.974
		c0.493-0.57,0.986-1.063,1.518-1.443c0.493-0.417,1.062-0.684,1.632-0.834c0.341-0.115,0.683-0.153,1.024-0.153
		c0.38,0,0.721,0.076,1.024,0.188c0.341,0.115,0.607,0.343,0.835,0.686c0.228,0.304,0.342,0.758,0.417,1.29
		c0.076,0.57,0,1.254-0.151,2.088l-1.632,8.164c-0.113,0.53-0.076,0.872,0.114,1.023c0.151,0.19,0.417,0.229,0.758,0.114
		c0.418-0.114,0.874-0.304,1.291-0.569c0.455-0.304,0.873-0.607,1.252-0.986c0.266-0.229,0.531-0.494,0.759-0.76
		c-0.075-0.417-0.113-0.873-0.113-1.367c0-0.722,0.075-1.519,0.228-2.392c0.151-0.911,0.418-1.821,0.722-2.733
		c0.304-0.95,0.72-1.86,1.176-2.771c0.455-0.873,1.024-1.709,1.67-2.506c0.607-0.759,1.29-1.443,2.087-1.974
		c0.759-0.571,1.632-0.987,2.542-1.254c0.759-0.189,1.403-0.266,1.898-0.189c0.493,0.038,0.872,0.189,1.176,0.418
		c0.266,0.265,0.493,0.531,0.606,0.873c0.115,0.379,0.152,0.721,0.152,1.101c0,0.722-0.114,1.442-0.341,2.163
		c-0.229,0.722-0.646,1.521-1.215,2.354c-0.607,0.875-1.404,1.785-2.467,2.849c-1.024,1.024-2.353,2.201-3.984,3.53
		c0.114,0.57,0.342,1.025,0.607,1.29c0.304,0.305,0.683,0.457,1.101,0.494c0.416,0.075,0.911,0.038,1.441-0.114
		c0.607-0.188,1.215-0.455,1.897-0.835c0.645-0.342,1.29-0.797,1.935-1.289c0.646-0.533,1.215-1.064,1.747-1.633
		c0.53-0.57,0.986-1.178,1.365-1.748l1.442-7.176c0.075-0.304,0.075-0.493,0-0.645c-0.076-0.114-0.19-0.153-0.342-0.114
		c-0.076,0.037-0.189,0.075-0.266,0.189c-0.113,0.076-0.266,0.229-0.417,0.38c-0.152-0.037-0.228-0.19-0.342-0.38
		c-0.076-0.189-0.076-0.417-0.037-0.683c0.037-0.266,0.189-0.532,0.379-0.761c0.417-0.418,0.796-0.797,1.177-1.138
		c0.416-0.381,0.834-0.646,1.252-0.912c0.417-0.265,0.872-0.454,1.365-0.568c0.38-0.114,0.722-0.153,1.025-0.114
		c0.266,0.075,0.455,0.229,0.568,0.456c0.114,0.266,0.114,0.606,0,1.062L83.56,42.24c0.493-0.799,1.025-1.519,1.633-2.203
		c0.607-0.645,1.252-1.214,1.897-1.67c0.683-0.454,1.327-0.797,2.011-0.948c0.417-0.152,0.835-0.152,1.215-0.076
		c0.342,0.112,0.646,0.304,0.872,0.646c0.229,0.342,0.38,0.796,0.418,1.404c0.038,0.645-0.038,1.405-0.229,2.354l-1.669,8.163
		c-0.076,0.495-0.039,0.835,0.152,1.025c0.151,0.151,0.416,0.228,0.758,0.113c0.418-0.113,0.873-0.304,1.291-0.607
		c0.455-0.265,0.834-0.568,1.252-0.949c0.228-0.189,0.417-0.416,0.607-0.607c0.038-0.151,0.075-0.341,0.075-0.494l2.163-10.743
		l-1.67,0.455c-0.075-0.343-0.037-0.683,0.039-0.986c0.113-0.303,0.265-0.608,0.493-0.835c0.227-0.229,0.53-0.381,0.872-0.494
		l0.684-0.19l0.606-2.924c0.114-0.531,0.304-0.985,0.606-1.403c0.267-0.381,0.607-0.685,1.025-0.95
		c0.379-0.228,0.76-0.418,1.176-0.493c0.304-0.114,0.607-0.152,0.873-0.114c0.267,0,0.493,0.039,0.722,0.114l-0.948,4.708
		l2.466-0.684c0.039,0.341,0,0.684-0.075,0.987c-0.114,0.342-0.267,0.607-0.493,0.836c-0.229,0.265-0.493,0.417-0.874,0.53
		l-1.479,0.38l-1.975,9.984c-0.113,0.646-0.151,1.179-0.113,1.519c0.076,0.343,0.19,0.57,0.38,0.686
		c0.189,0.075,0.455,0.112,0.759,0c0.417-0.115,0.835-0.305,1.29-0.571c0.418-0.304,0.834-0.607,1.215-0.948
		c0.227-0.228,0.456-0.456,0.645-0.685l1.859-9.301c0.038-0.266,0.038-0.454-0.038-0.608c-0.038-0.113-0.151-0.151-0.304-0.113
		c-0.075,0-0.189,0.076-0.303,0.152c-0.076,0.115-0.229,0.228-0.38,0.418c-0.151-0.076-0.266-0.19-0.342-0.38
		c-0.076-0.19-0.114-0.455-0.037-0.722c0.037-0.266,0.151-0.494,0.379-0.76c0.38-0.379,0.759-0.761,1.177-1.139
		c0.379-0.343,0.797-0.646,1.252-0.873c0.417-0.267,0.872-0.456,1.328-0.607c0.645-0.151,1.1-0.114,1.366,0.076
		c0.304,0.228,0.379,0.683,0.266,1.367l-2.05,10.25c-0.152,0.646-0.189,1.177-0.113,1.519c0.038,0.342,0.189,0.57,0.379,0.684
		c0.189,0.076,0.456,0.114,0.722,0c0.416-0.113,0.873-0.304,1.29-0.57c0.455-0.264,0.873-0.606,1.253-0.948
		c0.266-0.266,0.53-0.532,0.758-0.759c-0.075-0.418-0.113-0.874-0.113-1.367c0-0.873,0.076-1.784,0.266-2.734
		c0.189-0.949,0.455-1.859,0.834-2.809c0.342-0.948,0.76-1.859,1.291-2.734c0.493-0.872,1.062-1.67,1.707-2.392
		c0.646-0.759,1.329-1.366,2.088-1.898c0.72-0.493,1.518-0.872,2.391-1.101c1.328-0.379,2.353-0.379,3.035,0
		c0.684,0.342,1.024,1.062,1.024,2.165c0,0.645-0.113,1.175-0.341,1.632c-0.228,0.493-0.493,0.872-0.873,1.14
		c-0.342,0.304-0.721,0.493-1.139,0.606c-0.228,0.076-0.455,0.114-0.722,0.076c-0.226,0-0.454-0.076-0.645-0.189
		c0.152-0.304,0.229-0.607,0.305-0.875c0.114-0.304,0.15-0.568,0.189-0.834c0.038-0.228,0.075-0.455,0.075-0.607
		c0-0.304-0.114-0.53-0.341-0.645c-0.19-0.114-0.493-0.114-0.911,0c-0.493,0.15-0.948,0.492-1.441,1.024
		c-0.456,0.531-0.911,1.253-1.291,2.126c-0.417,0.873-0.721,1.821-0.986,2.922c-0.228,1.102-0.341,2.241-0.341,3.456
		c0,0.873,0.151,1.556,0.417,2.013c0.266,0.455,0.646,0.759,1.139,0.836c0.493,0.112,1.024,0.112,1.669-0.077
		c0.607-0.151,1.214-0.418,1.897-0.798c0.646-0.379,1.29-0.834,1.936-1.329c0.646-0.493,1.214-1.062,1.745-1.632
		c0.532-0.568,0.987-1.14,1.366-1.746c0.304-0.114,0.531-0.151,0.684-0.076c0.188,0.039,0.265,0.189,0.303,0.343
		C125.947,38.938,125.871,39.165,125.757,39.393L125.757,39.393L125.757,39.393z M72.404,44.367
		c-0.531,0.15-1.025,0.418-1.481,0.797c-0.416,0.417-0.797,0.873-1.138,1.442c-0.341,0.531-0.607,1.14-0.834,1.747
		c-0.229,0.645-0.418,1.252-0.57,1.897c-0.151,0.646-0.265,1.216-0.341,1.784c-0.075,0.569-0.114,1.025-0.114,1.442
		c1.062-0.987,2.049-1.973,2.847-2.923c0.835-0.949,1.479-1.86,1.936-2.733c0.455-0.873,0.682-1.672,0.682-2.393
		c0-0.417-0.112-0.721-0.265-0.872C72.935,44.367,72.708,44.29,72.404,44.367L72.404,44.367L72.404,44.367z M18.291,49.605
		c-0.304,0.038-0.607,0.077-0.911,0.113c-0.303,0.076-0.606,0.114-0.948,0.153c-0.76,2.847-1.48,5.429-2.164,7.744
		c-0.683,2.316-1.365,4.404-2.011,6.227l3.34-0.874L18.291,49.605L18.291,49.605z"/>
	<path fill="#545454" d="M24.103,11.378l1.807,2.796l0.607-0.384l-0.493-0.781l0.376-0.238c0.415-0.259,0.672-0.524,0.78-0.811
		c0.103-0.293,0.056-0.611-0.157-0.971c-0.208-0.351-0.469-0.552-0.772-0.598c-0.302-0.047-0.683,0.062-1.132,0.343L24.103,11.378
		L24.103,11.378z M25.678,12.461L25.678,12.461l-0.599-0.949l0.367-0.23c0.206-0.134,0.394-0.19,0.528-0.183
		c0.145,0.001,0.266,0.095,0.363,0.254c0.103,0.169,0.14,0.314,0.115,0.444c-0.018,0.14-0.137,0.261-0.349,0.395L25.678,12.461
		L25.678,12.461z M32.008,8.189L32.008,8.189c-0.174-0.356-0.395-0.555-0.674-0.614s-0.658,0.038-1.131,0.276l-1.145,0.602
		l1.576,2.934l0.644-0.343l-0.49-0.935l0.455-0.235l1.122,0.613l0.799-0.393l-1.263-0.702C32.203,9.067,32.239,8.665,32.008,8.189
		L32.008,8.189z M30.488,9.535L30.488,9.535L30.03,8.658l0.504-0.26c0.209-0.107,0.383-0.157,0.492-0.139
		c0.118,0.012,0.213,0.101,0.297,0.268c0.077,0.157,0.099,0.295,0.06,0.414c-0.055,0.113-0.19,0.232-0.417,0.347L30.488,9.535
		L30.488,9.535z M34.461,5.838L34.461,5.838l1.323,3.056c0.735-0.316,1.475-0.624,2.22-0.913l-0.24-0.614
		c-0.524,0.203-1.046,0.415-1.564,0.635l-0.269-0.639l1.378-0.561l-0.23-0.583l-1.39,0.566l-0.269-0.64l1.559-0.632l-0.24-0.614
		C35.973,5.196,35.215,5.514,34.461,5.838L34.461,5.838z M43.579,6.072L43.579,6.072l0.7-0.202l-0.905-3.204l-0.982,0.283
		l-0.304,2.014l-1.381-1.485l-0.982,0.325l1.077,3.15l0.69-0.229l-0.657-1.993l1.411,1.459l0.411-0.126l0.33-2.006L43.579,6.072
		L43.579,6.072z M47.32,5.088L47.32,5.088l0.71-0.161l-0.72-3.25l-0.746,0.168L47.32,5.088L47.32,5.088z M51.82,3.329L51.82,3.329
		c-0.142-0.132-0.239-0.328-0.284-0.6l-0.297-1.811l-0.742,0.124l0.32,1.84c0.081,0.466,0.274,0.812,0.574,1.03
		c0.309,0.217,0.654,0.276,1.058,0.218c0.402-0.06,0.713-0.227,0.933-0.524c0.23-0.302,0.312-0.674,0.249-1.154l-0.245-1.852
		l-0.758,0.104l0.262,1.817c0.039,0.272,0.004,0.488-0.092,0.658c-0.097,0.17-0.245,0.268-0.448,0.298
		C52.146,3.507,51.974,3.46,51.82,3.329L51.82,3.329z M59.803,3.372L59.803,3.372l0.729-0.03l-0.115-3.328l-1.021,0.044
		l-0.775,1.879l-0.985-1.771l-1.031,0.082l0.29,3.317l0.726-0.062L57.459,1.41l1.02,1.759l0.431-0.029l0.799-1.864L59.803,3.372
		L59.803,3.372z M65,0L65,0l-0.094,3.328l0.729,0.021l0.035-0.921l0.435,0.019c0.488,0.025,0.852-0.06,1.102-0.229
		c0.252-0.181,0.392-0.468,0.419-0.886c0.026-0.405-0.075-0.721-0.299-0.935c-0.223-0.214-0.599-0.327-1.126-0.354L65,0L65,0z
		 M65.696,1.778L65.696,1.778l0.043-1.12l0.422,0.021c0.245,0.011,0.433,0.064,0.54,0.146c0.117,0.083,0.166,0.229,0.155,0.413
		c-0.011,0.199-0.062,0.34-0.155,0.435c-0.094,0.104-0.261,0.142-0.513,0.128L65.696,1.778L65.696,1.778z M73.32,1.833L73.32,1.833
		c0.058-0.392-0.012-0.679-0.209-0.886c-0.197-0.209-0.563-0.346-1.089-0.411l-1.284-0.148l-0.355,3.311l0.725,0.078l0.124-1.047
		l0.507,0.063L72.32,3.93l0.891,0.131l-0.655-1.295C72.986,2.673,73.243,2.354,73.32,1.833L73.32,1.833z M71.307,2.085L71.307,2.085
		l0.117-0.981l0.563,0.071c0.231,0.028,0.404,0.084,0.483,0.161c0.092,0.078,0.119,0.202,0.094,0.388
		c-0.024,0.174-0.085,0.3-0.183,0.375c-0.109,0.065-0.278,0.088-0.54,0.055L71.307,2.085L71.307,2.085z M78.864,3.425L78.864,3.425
		c-0.066,0.29-0.22,0.514-0.446,0.677c-0.237,0.161-0.479,0.207-0.754,0.146c-0.265-0.055-0.467-0.198-0.615-0.441
		c-0.14-0.243-0.187-0.511-0.128-0.801c0.059-0.291,0.206-0.519,0.433-0.686c0.241-0.174,0.491-0.225,0.765-0.167
		c0.281,0.063,0.489,0.212,0.635,0.471C78.892,2.868,78.931,3.137,78.864,3.425L78.864,3.425z M78.831,4.668L78.831,4.668
		c0.388-0.235,0.655-0.597,0.771-1.067c0.116-0.48,0.042-0.92-0.209-1.317c-0.262-0.397-0.645-0.652-1.138-0.765
		c-0.497-0.103-0.938-0.025-1.343,0.228c-0.403,0.257-0.643,0.628-0.735,1.113c-0.089,0.477-0.006,0.914,0.26,1.291
		c0.264,0.392,0.618,0.632,1.091,0.729C77.997,4.986,78.43,4.916,78.831,4.668L78.831,4.668z M82.978,2.795L82.978,2.795
		l-0.925,3.197l1.067,0.319c0.595,0.179,1.076,0.188,1.459-0.01c0.389-0.183,0.668-0.53,0.834-1.02
		c0.165-0.489,0.138-0.927-0.08-1.3c-0.215-0.385-0.61-0.665-1.191-0.841L82.978,2.795L82.978,2.795z M82.942,5.564L82.942,5.564
		l0.582-1.934l0.405,0.124c0.362,0.113,0.613,0.279,0.738,0.506c0.114,0.223,0.12,0.49,0.019,0.805
		c-0.103,0.314-0.261,0.517-0.479,0.629c-0.229,0.108-0.501,0.108-0.821,0.009L82.942,5.564L82.942,5.564z M88.783,7.405
		L88.783,7.405c-0.053-0.188-0.037-0.404,0.064-0.66l0.68-1.705l-0.712-0.281l-0.673,1.743c-0.17,0.441-0.173,0.842-0.028,1.183
		c0.144,0.342,0.419,0.573,0.794,0.731c0.376,0.157,0.728,0.172,1.07,0.03c0.34-0.14,0.605-0.42,0.799-0.863l0.743-1.713
		l-0.693-0.297l-0.713,1.69c-0.105,0.253-0.248,0.421-0.418,0.517s-0.348,0.105-0.538,0.025C88.959,7.722,88.838,7.591,88.783,7.405
		L88.783,7.405z M94.65,10.309L94.65,10.309c-0.242-0.121-0.395-0.298-0.484-0.554c-0.081-0.25-0.045-0.516,0.092-0.79
		c0.137-0.276,0.338-0.457,0.596-0.522c0.263-0.077,0.521-0.044,0.77,0.082c0.316,0.164,0.517,0.434,0.581,0.805l0.662-0.245
		c-0.126-0.54-0.445-0.95-0.943-1.209c-0.442-0.225-0.898-0.272-1.354-0.133c-0.458,0.144-0.79,0.448-1.006,0.894
		s-0.246,0.883-0.102,1.318c0.159,0.435,0.445,0.768,0.895,0.995c0.445,0.232,0.925,0.241,1.459,0.052l-0.188-0.66
		C95.29,10.487,94.967,10.473,94.65,10.309L94.65,10.309z M101.472,11.919L101.472,11.919l0.345-0.535
		c-0.756-0.486-1.521-0.96-2.293-1.422l-0.325,0.548l0.819,0.496l-1.407,2.296l0.62,0.384l1.431-2.279L101.472,11.919z"/>
	<path fill="#545454" d="M27.437,100.18c-0.151,0.256-0.366,0.426-0.645,0.501c-0.268,0.081-0.519,0.045-0.767-0.105
		c-0.238-0.145-0.389-0.349-0.446-0.634c-0.049-0.278,0.002-0.545,0.16-0.796c0.157-0.252,0.375-0.412,0.643-0.492
		c0.279-0.08,0.527-0.049,0.758,0.093c0.24,0.145,0.384,0.348,0.43,0.632C27.629,99.659,27.588,99.924,27.437,100.18L27.437,100.18z
		 M27.04,101.359L27.04,101.359c0.455-0.116,0.811-0.381,1.052-0.799c0.246-0.429,0.298-0.868,0.185-1.316
		c-0.125-0.45-0.388-0.802-0.799-1.053c-0.415-0.248-0.834-0.321-1.294-0.22c-0.459,0.1-0.817,0.353-1.085,0.77
		c-0.262,0.405-0.343,0.837-0.226,1.3c0.115,0.464,0.379,0.829,0.815,1.088C26.121,101.394,26.572,101.473,27.04,101.359
		L27.04,101.359z M33.749,102.883L33.749,102.883c0.166-0.359,0.184-0.653,0.062-0.903c-0.122-0.246-0.411-0.487-0.865-0.707
		l-1.102-0.552l-1.516,2.965L31,104.027l0.47-0.944l0.469,0.228l0.225,1.282l0.848,0.394l-0.277-1.437
		C33.19,103.594,33.528,103.362,33.749,102.883L33.749,102.883z M31.76,102.503L31.76,102.503l0.441-0.885l0.495,0.24
		c0.215,0.104,0.346,0.206,0.406,0.307c0.049,0.098,0.046,0.23-0.034,0.4c-0.076,0.158-0.173,0.258-0.299,0.294
		c-0.112,0.031-0.289-0.007-0.517-0.116L31.76,102.503L31.76,102.503z M36.15,106.34L36.15,106.34l0.711,0.281l1.211-3.103
		l-0.679-0.268L36.15,106.34L36.15,106.34z M42.669,107.789L42.669,107.789c-0.188,0.048-0.417,0.034-0.662-0.041
		c-0.256-0.079-0.44-0.24-0.563-0.474c-0.124-0.233-0.13-0.504-0.032-0.806c0.099-0.306,0.258-0.516,0.502-0.636
		c0.246-0.131,0.492-0.159,0.761-0.076c0.135,0.042,0.26,0.114,0.36,0.192c0.108,0.092,0.209,0.211,0.318,0.379l0.521-0.434
		c-0.244-0.4-0.591-0.659-1.041-0.802c-0.439-0.135-0.867-0.094-1.286,0.112c-0.42,0.208-0.708,0.554-0.864,1.021
		c-0.158,0.471-0.129,0.906,0.087,1.325c0.219,0.41,0.578,0.694,1.052,0.84c0.58,0.184,1.079,0.125,1.503-0.14l0.323-1.13
		l-0.718-0.207L42.669,107.789L42.669,107.789z M46.601,109.635L46.601,109.635l0.746,0.169l0.719-3.251l-0.711-0.162
		L46.601,109.635L46.601,109.635z M53.494,109.687L53.494,109.687c-0.451-0.778-0.883-1.568-1.299-2.353l-0.678-0.112l-0.55,3.283
		l0.755,0.126l0.323-2.062c0.414,0.763,0.844,1.535,1.29,2.296l0.759,0.096l0.406-3.306l-0.725-0.091L53.494,109.687L53.494,109.687
		z M60.999,111.473L60.999,111.473c-0.461-1.123-0.899-2.245-1.315-3.38l-0.708-0.034c-0.531,1.079-1.084,2.151-1.658,3.226
		l0.807,0.055l0.37-0.69l1.411,0.073l0.285,0.727L60.999,111.473L60.999,111.473z M59.647,110.048L59.647,110.048l-0.838-0.04
		l0.479-0.944L59.647,110.048L59.647,110.048z M66.46,111.415L66.46,111.415l-0.031-0.659l-1.436,0.055l-0.075-2.67l-0.729,0.02
		l0.059,3.329C64.985,111.47,65.724,111.455,66.46,111.415L66.46,111.415z M70.77,107.731L70.77,107.731l0.375,3.308l1.161-0.142
		c0.647-0.078,1.106-0.3,1.369-0.646c0.267-0.339,0.354-0.773,0.273-1.284c-0.079-0.509-0.294-0.89-0.647-1.138
		c-0.354-0.24-0.815-0.306-1.392-0.238L70.77,107.731L70.77,107.731z M71.822,110.294L71.822,110.294l-0.248-2.006l0.408-0.053
		c0.365-0.043,0.655,0.003,0.853,0.15c0.207,0.148,0.33,0.385,0.378,0.712c0.049,0.325-0.004,0.577-0.167,0.78
		c-0.15,0.199-0.405,0.314-0.748,0.356L71.822,110.294L71.822,110.294z M76.995,106.733L76.995,106.733l0.678,3.26
		c0.818-0.167,1.635-0.354,2.445-0.553l-0.156-0.64l-1.693,0.393l-0.147-0.677l1.462-0.337l-0.147-0.608l-1.449,0.335l-0.147-0.677
		l1.603-0.372l-0.156-0.641C78.524,106.402,77.762,106.577,76.995,106.733L76.995,106.733z M83.753,105.562L83.753,105.562
		c0.29-0.086,0.599-0.078,0.946,0.04l0.18-0.625c-0.199-0.086-0.417-0.129-0.646-0.136c-0.227-0.006-0.45,0.035-0.655,0.097
		c-0.317,0.098-0.558,0.265-0.715,0.485c-0.165,0.235-0.2,0.497-0.108,0.802c0.09,0.306,0.239,0.504,0.448,0.588
		c0.223,0.092,0.521,0.127,0.927,0.094c0.252-0.008,0.427-0.007,0.516,0.021c0.105,0.035,0.172,0.095,0.201,0.189
		c0.03,0.094,0.016,0.19-0.042,0.267c-0.057,0.078-0.152,0.145-0.28,0.184c-0.299,0.092-0.664,0.045-1.106-0.153l-0.272,0.643
		c0.52,0.264,1.04,0.304,1.556,0.146c0.366-0.114,0.624-0.308,0.778-0.553c0.154-0.248,0.193-0.516,0.099-0.797
		c-0.095-0.282-0.253-0.472-0.468-0.563c-0.216-0.091-0.492-0.127-0.808-0.104c-0.324,0.022-0.543,0.019-0.643-0.008
		c-0.093-0.04-0.156-0.101-0.183-0.185c-0.028-0.094-0.021-0.178,0.021-0.259C83.557,105.659,83.639,105.599,83.753,105.562
		L83.753,105.562z M89.173,106.57L89.173,106.57l0.711-0.28l-1.248-3.085l-0.678,0.267L89.173,106.57L89.173,106.57z
		 M94.909,103.153L94.909,103.153c-0.105,0.162-0.278,0.316-0.51,0.427c-0.24,0.116-0.484,0.125-0.735,0.038
		c-0.252-0.085-0.439-0.275-0.576-0.562c-0.138-0.287-0.167-0.554-0.072-0.807c0.091-0.265,0.251-0.452,0.504-0.575
		c0.137-0.065,0.267-0.097,0.393-0.11c0.14-0.011,0.296,0.01,0.492,0.059l0.082-0.671c-0.454-0.128-0.885-0.078-1.298,0.127
		c-0.424,0.204-0.707,0.527-0.869,0.97c-0.161,0.437-0.136,0.884,0.072,1.333c0.207,0.449,0.528,0.749,0.974,0.906
		c0.438,0.145,0.896,0.105,1.341-0.11c0.546-0.271,0.871-0.65,0.998-1.133l-0.541-1.043l-0.666,0.337L94.909,103.153L94.909,103.153
		z M100.452,99.552L100.452,99.552c-0.842-0.306-1.683-0.643-2.502-0.977l-0.592,0.346l1.677,2.877l0.659-0.388l-1.07-1.792
		c0.808,0.322,1.632,0.643,2.461,0.938l0.646-0.407l-1.803-2.802l-0.616,0.39L100.452,99.552z"/>
	<path fill-rule="evenodd" clip-rule="evenodd" fill="#373737" d="M51.798,21.813v0.494v3.949c0,0.229,0.229,0.455,0.456,0.455
		h21.402c0.266,0,0.455-0.227,0.455-0.455v-3.949v-0.494c0.493-0.265,0.872-0.797,0.872-1.404c0-0.872-0.72-1.557-1.594-1.557
		c-0.871,0-1.556,0.685-1.556,1.557c0,0.607,0.342,1.14,0.874,1.404v0.494c0,1.062-0.874,1.936-1.936,1.936
		c-1.025,0-1.898-0.873-1.898-1.936v-0.494c0.532-0.265,0.873-0.797,0.873-1.404c0-0.872-0.721-1.557-1.556-1.557
		c-0.873,0-1.593,0.685-1.593,1.557c0,0.607,0.378,1.14,0.871,1.404v0.494c0,1.062-0.834,1.936-1.896,1.936
		c-1.063,0-1.897-0.873-1.897-1.936v-0.494c0.493-0.265,0.834-0.797,0.834-1.404c0-0.872-0.683-1.557-1.556-1.557
		c-0.872,0-1.555,0.685-1.555,1.557c0,0.607,0.341,1.14,0.835,1.404v0.494c0,1.062-0.835,1.936-1.897,1.936
		c-1.025,0-1.897-0.873-1.897-1.936v-0.494c0.531-0.265,0.872-0.797,0.872-1.404c0-0.872-0.721-1.557-1.594-1.557
		c-0.835,0-1.556,0.685-1.556,1.557c0,0.607,0.342,1.14,0.873,1.404v0.494c0,1.062-0.873,1.936-1.897,1.936
		c-1.062,0-1.936-0.873-1.936-1.936v-0.494c0.531-0.265,0.873-0.797,0.873-1.404c0-0.872-0.683-1.557-1.556-1.557
		s-1.556,0.685-1.556,1.557C50.964,21.017,51.306,21.549,51.798,21.813L51.798,21.813z M52.254,29.711L52.254,29.711h21.402
		c0.266,0,0.455-0.229,0.455-0.456v-1.062c0-0.266-0.189-0.455-0.455-0.455H52.254c-0.228,0-0.456,0.189-0.456,0.455v1.062
		C51.798,29.482,52.026,29.711,52.254,29.711z"/>
	<path fill="#373737" d="M41.201,84.427l-0.369-0.823h-1.604l-0.37,0.823h-0.904l1.645-3.826h0.822l1.687,3.826H41.201
		L41.201,84.427z M40.008,81.753L40.008,81.753l-0.451,1.11h0.945L40.008,81.753L40.008,81.753z M48.727,82.041L48.727,82.041
		l-1.069,2.099h-0.492l-1.029-2.099v2.386h-0.862v-3.826h1.15l0.987,2.099l0.986-2.099h1.151v3.826h-0.822V82.041L48.727,82.041z
		 M56.006,80.601L56.006,80.601v0.781h-1.892v0.781h1.727v0.74h-1.727v0.783h1.974v0.74H53.25v-3.826H56.006L56.006,80.601z
		 M62.708,81.876L62.708,81.876c0,0.616-0.246,1.027-0.74,1.192l0.945,1.358h-1.027l-0.864-1.193h-0.575v1.193h-0.863v-3.826h1.438
		c0.617,0,1.028,0.082,1.275,0.287C62.544,81.096,62.708,81.423,62.708,81.876L62.708,81.876z M61.063,82.451L61.063,82.451
		c0.287,0,0.493-0.04,0.575-0.124c0.123-0.081,0.164-0.246,0.164-0.451s-0.041-0.328-0.164-0.412
		c-0.082-0.082-0.288-0.124-0.575-0.124h-0.617v1.111H61.063L61.063,82.451z M66.285,80.601L66.285,80.601h0.864v3.826h-0.864
		V80.601L66.285,80.601z M72.619,83.687L72.619,83.687c0.41,0,0.74-0.164,1.027-0.494l0.534,0.534
		c-0.412,0.494-0.946,0.741-1.521,0.741c-0.618,0-1.111-0.163-1.481-0.536c-0.37-0.37-0.575-0.863-0.575-1.439
		c0-0.534,0.205-1.028,0.575-1.396c0.411-0.413,0.863-0.578,1.44-0.578c0.656,0,1.149,0.247,1.603,0.699l-0.534,0.618
		c-0.288-0.33-0.617-0.495-1.027-0.495c-0.33,0-0.577,0.083-0.823,0.288c-0.247,0.248-0.329,0.495-0.329,0.864
		c0,0.371,0.082,0.659,0.329,0.865C72.042,83.562,72.29,83.687,72.619,83.687L72.619,83.687z M80.349,84.427L80.349,84.427
		l-0.369-0.823h-1.604l-0.372,0.823h-0.903l1.645-3.826h0.823l1.687,3.826H80.349L80.349,84.427z M79.157,81.753L79.157,81.753
		l-0.454,1.11h0.946L79.157,81.753L79.157,81.753z M87.093,80.601L87.093,80.601h0.863v3.826h-0.863l-1.81-2.386v2.386H84.42v-3.826
		h0.822l1.851,2.468V80.601L87.093,80.601z M49.59,91.132L49.59,91.132h-1.686v-3.825h1.521c0.247,0,0.452,0.042,0.658,0.082
		c0.204,0.083,0.329,0.165,0.411,0.248c0.205,0.204,0.287,0.41,0.287,0.698s-0.123,0.494-0.287,0.657
		c-0.082,0.042-0.124,0.084-0.164,0.084c0,0-0.043,0.041-0.124,0.081c0.246,0.042,0.41,0.165,0.575,0.33
		c0.124,0.123,0.207,0.328,0.207,0.576c0,0.288-0.083,0.534-0.289,0.739C50.495,91.01,50.125,91.132,49.59,91.132L49.59,91.132z
		 M48.769,88.869L48.769,88.869h0.41c0.247,0,0.411-0.04,0.535-0.081c0.124-0.084,0.164-0.165,0.164-0.329s-0.04-0.288-0.164-0.37
		c-0.082-0.042-0.288-0.083-0.535-0.083h-0.41V88.869L48.769,88.869z M48.769,90.434L48.769,90.434h0.575
		c0.246,0,0.452-0.041,0.575-0.124c0.124-0.041,0.165-0.165,0.165-0.33c0-0.204-0.041-0.328-0.165-0.369
		c-0.164-0.04-0.37-0.083-0.658-0.083h-0.492V90.434L48.769,90.434z M57.567,88.581L57.567,88.581c0,0.618-0.246,0.989-0.739,1.194
		l0.986,1.356h-1.068l-0.863-1.233h-0.576v1.233h-0.864v-3.825h1.44c0.616,0,1.027,0.082,1.274,0.286
		C57.445,87.802,57.567,88.13,57.567,88.581L57.567,88.581z M55.924,89.157L55.924,89.157c0.287,0,0.492-0.04,0.616-0.123
		c0.082-0.082,0.124-0.246,0.124-0.453c0-0.205-0.042-0.369-0.165-0.41c-0.083-0.082-0.288-0.124-0.575-0.124h-0.617v1.11H55.924
		L55.924,89.157z M63.9,91.132L63.9,91.132l-0.369-0.822h-1.604l-0.329,0.822h-0.945l1.686-3.825h0.823l1.644,3.825H63.9
		L63.9,91.132z M62.749,88.459L62.749,88.459l-0.493,1.111h0.945L62.749,88.459L62.749,88.459z M70.687,87.307L70.687,87.307h0.862
		v3.825h-0.862l-1.853-2.385v2.385h-0.821v-3.825h0.781l1.893,2.469V87.307L70.687,87.307z M76.566,87.307L76.566,87.307
		c0.698,0,1.233,0.165,1.603,0.495c0.329,0.328,0.534,0.821,0.534,1.397c0,0.616-0.162,1.069-0.534,1.398
		c-0.369,0.37-0.904,0.534-1.644,0.534h-1.316v-3.825H76.566L76.566,87.307z M76.606,90.393L76.606,90.393
		c0.412,0,0.699-0.124,0.905-0.288c0.206-0.206,0.328-0.494,0.328-0.864c0-0.411-0.122-0.7-0.328-0.905s-0.535-0.288-0.945-0.288
		h-0.494v2.346H76.606z"/>
	<path fill-rule="evenodd" clip-rule="evenodd" fill="#545454" d="M91.698,81.958h6.58v0.534h-6.58V81.958L91.698,81.958z
		 M27.632,81.958L27.632,81.958h6.579v0.534h-6.579V81.958z"/>
</g>
</svg>
