<?xml version="1.0" encoding="utf-8"?>
<!-- Generator: Adobe Illustrator 16.0.0, SVG Export Plug-In . SVG Version: 6.00 Build 0)  -->
<!DOCTYPE svg PUBLIC "-//W3C//DTD SVG 1.1//EN" "http://www.w3.org/Graphics/SVG/1.1/DTD/svg11.dtd">
<svg version="1.1" id="Layer_1" xmlns="http://www.w3.org/2000/svg" xmlns:xlink="http://www.w3.org/1999/xlink" x="0px" y="0px"
	 width="127.253px" height="45.315px" viewBox="0 0 127.253 45.315" enable-background="new 0 0 127.253 45.315"
	 xml:space="preserve">
<g>
	<path fill="#363837" d="M13.17,19.464v-2.072h5.294c0.004,0.067,0.009,0.143,0.011,0.224c0.003,0.08,0.003,0.2,0.003,0.356
		c0,1.704-0.449,3.024-1.345,3.963c-0.899,0.937-2.163,1.407-3.792,1.407c-0.802,0-1.515-0.12-2.137-0.361
		c-0.624-0.24-1.183-0.609-1.671-1.104c-0.471-0.472-0.832-1.033-1.092-1.678c-0.258-0.646-0.388-1.322-0.388-2.03
		c0-0.737,0.127-1.416,0.377-2.035c0.252-0.619,0.627-1.176,1.128-1.672c0.496-0.48,1.064-0.844,1.705-1.094
		c0.641-0.247,1.332-0.371,2.077-0.371c0.968,0,1.823,0.191,2.567,0.574c0.744,0.383,1.371,0.952,1.88,1.708l-2.337,1.12
		c-0.278-0.382-0.593-0.666-0.939-0.853c-0.351-0.187-0.74-0.281-1.171-0.281c-0.807,0-1.44,0.27-1.903,0.807
		c-0.464,0.539-0.697,1.275-0.697,2.206c0,0.94,0.233,1.683,0.697,2.222c0.463,0.542,1.097,0.812,1.903,0.812
		c0.682,0,1.254-0.168,1.71-0.504c0.456-0.334,0.724-0.782,0.8-1.341H13.17L13.17,19.464z M23.149,23.106V13.22h6.057v2.167h-3.43
		v1.714h3.233v2.12h-3.233v1.669h3.43v2.215H23.149L23.149,23.106z M34.008,23.106V13.22h2.601l3.732,5.085
		c0.071,0.104,0.189,0.311,0.354,0.625c0.164,0.313,0.345,0.685,0.543,1.118c-0.054-0.411-0.093-0.775-0.117-1.095
		c-0.025-0.318-0.038-0.602-0.038-0.85V13.22h2.586v9.886h-2.586L37.35,18c-0.076-0.104-0.196-0.312-0.361-0.624
		c-0.164-0.313-0.342-0.68-0.535-1.104c0.053,0.415,0.093,0.781,0.117,1.101c0.026,0.318,0.038,0.602,0.038,0.851v4.882H34.008
		L34.008,23.106z M50.234,23.106v-7.548h-2.214V13.22h7.123v2.338h-2.215v7.548H50.234L50.234,23.106z M59.48,23.106V13.22h2.695
		v7.576h3.348v2.31H59.48L59.48,23.106z M69.86,23.106V13.22h6.057v2.167h-3.429v1.714h3.233v2.12h-3.233v1.669h3.429v2.215H69.86
		L69.86,23.106z M92.057,23.106h-2.52l-0.58-4.273c-0.039-0.303-0.077-0.639-0.11-1.008c-0.035-0.368-0.064-0.772-0.093-1.207
		c-0.062,0.417-0.187,0.94-0.37,1.565c-0.04,0.131-0.069,0.228-0.089,0.29l-1.344,4.633h-1.795l-1.344-4.633
		c-0.019-0.062-0.046-0.159-0.081-0.29c-0.188-0.625-0.312-1.146-0.37-1.558c-0.028,0.373-0.06,0.742-0.096,1.108
		c-0.036,0.37-0.08,0.733-0.128,1.1l-0.581,4.273h-2.505l1.525-9.886h2.666l1.493,5.099c0.011,0.034,0.028,0.095,0.053,0.175
		c0.143,0.454,0.229,0.843,0.266,1.168c0.017-0.175,0.051-0.371,0.1-0.585c0.051-0.212,0.118-0.471,0.203-0.772l1.507-5.085h2.674
		L92.057,23.106L92.057,23.106z M99.144,19.411h2.68l-1.006-3.261c-0.031-0.1-0.075-0.259-0.128-0.479
		c-0.056-0.219-0.124-0.503-0.21-0.851c-0.058,0.244-0.114,0.475-0.173,0.696c-0.055,0.221-0.112,0.431-0.17,0.634L99.144,19.411
		L99.144,19.411z M95.368,23.106l3.411-9.886h3.376l3.415,9.886h-2.68l-0.5-1.771h-3.828l-0.514,1.771H95.368L95.368,23.106z
		 M109.537,23.106V13.22h2.599l3.733,5.085c0.072,0.104,0.189,0.311,0.356,0.625c0.163,0.313,0.343,0.685,0.541,1.118
		c-0.053-0.411-0.092-0.775-0.118-1.095c-0.024-0.318-0.036-0.602-0.036-0.85V13.22h2.586v9.886h-2.586L112.879,18
		c-0.076-0.104-0.196-0.312-0.362-0.624c-0.163-0.313-0.341-0.68-0.534-1.104c0.053,0.415,0.091,0.781,0.117,1.101
		c0.025,0.318,0.036,0.602,0.036,0.851v4.882H109.537z"/>
	<path fill="#363837" d="M42.712,28.058h41.829h2.463h0.423l-0.17,0.388l-1.126,2.573h38.071c0.064-0.656,0.36-1.248,0.805-1.691v0
		h0.001c0.444-0.444,1.035-0.74,1.69-0.805V7.819c-0.655-0.065-1.247-0.363-1.691-0.806v0c-0.444-0.444-0.74-1.036-0.805-1.693
		H79.553V4.768h44.911h0.277v0.276c0,0.615,0.251,1.173,0.656,1.578v0.001c0.404,0.405,0.963,0.656,1.579,0.656h0.276v0.276v21.228
		v0.276h-0.276c-0.616,0-1.175,0.251-1.579,0.657h-0.001c-0.404,0.404-0.655,0.963-0.655,1.578v0.277h-0.277H86.131l1.126,2.573
		l0.17,0.387h-0.423h-2.463H42.712h-2.465h-0.422l0.169-0.387l1.127-2.573H2.788H2.512v-0.277c0-0.615-0.251-1.174-0.657-1.578l0,0
		c-0.405-0.405-0.964-0.657-1.578-0.657H0v-0.276V7.556V7.28h0.276c0.614,0,1.173-0.251,1.578-0.656V6.622
		C2.26,6.217,2.512,5.659,2.512,5.044V4.768h0.276h44.91v0.553H3.051C2.985,5.978,2.689,6.569,2.245,7.014l-0.001,0
		c-0.443,0.443-1.035,0.74-1.691,0.806v20.703c0.655,0.065,1.248,0.361,1.69,0.805h0.001l0.001,0
		c0.444,0.443,0.74,1.036,0.806,1.691h38.07l-1.127-2.573l-0.169-0.388h0.422H42.712L42.712,28.058z M84.541,28.612H42.712H40.67
		l1.126,2.573l0.049,0.11l-0.049,0.111l-1.126,2.573h2.042h41.829h2.041l-1.127-2.573l-0.049-0.111l0.049-0.11l1.127-2.573H84.541z"
		/>
	<path fill="#363837" d="M47.899,30.44c0.001,0.115,0.017,0.218,0.049,0.308c0.03,0.09,0.072,0.17,0.124,0.242
		s0.107,0.138,0.17,0.197c0.062,0.061,0.123,0.119,0.185,0.174c0.062,0.055,0.118,0.111,0.17,0.169
		c0.052,0.058,0.093,0.12,0.125,0.187c0.03,0.067,0.047,0.141,0.048,0.224c0,0.068-0.01,0.121-0.028,0.162
		c-0.019,0.04-0.046,0.069-0.079,0.087c-0.035,0.019-0.075,0.027-0.123,0.026c-0.048,0.001-0.088-0.007-0.123-0.026
		c-0.034-0.018-0.061-0.047-0.079-0.087c-0.019-0.041-0.029-0.094-0.029-0.162v-0.202h-0.42v0.174c0,0.152,0.024,0.28,0.074,0.386
		c0.051,0.105,0.124,0.187,0.224,0.242c0.098,0.056,0.22,0.083,0.365,0.083c0.146,0,0.268-0.028,0.367-0.083
		c0.097-0.056,0.172-0.137,0.222-0.242c0.05-0.106,0.075-0.234,0.075-0.386c0-0.116-0.018-0.218-0.048-0.308
		c-0.032-0.09-0.073-0.17-0.125-0.241c-0.052-0.072-0.108-0.137-0.17-0.197s-0.124-0.119-0.186-0.174
		c-0.062-0.055-0.118-0.112-0.169-0.169c-0.052-0.058-0.094-0.12-0.125-0.187c-0.031-0.067-0.047-0.142-0.048-0.225
		c0.001-0.1,0.02-0.171,0.059-0.215c0.038-0.043,0.092-0.064,0.165-0.063c0.071-0.001,0.124,0.02,0.163,0.063
		s0.058,0.115,0.059,0.215v0.118h0.42V30.44c0-0.151-0.024-0.281-0.073-0.386c-0.049-0.106-0.122-0.187-0.219-0.243
		c-0.098-0.056-0.218-0.083-0.363-0.083c-0.145,0.001-0.265,0.028-0.361,0.083c-0.098,0.056-0.171,0.136-0.221,0.243
		C47.924,30.16,47.899,30.289,47.899,30.44L47.899,30.44z M51.7,32.593h0.445v-2.832H51.7V32.593L51.7,32.593z M55.65,32.593h0.459
		v-2.832h-0.397v1.695l-0.457-1.695h-0.558v2.832h0.4v-2.052L55.65,32.593L55.65,32.593z M59.53,31.536v0.405
		c0,0.068-0.01,0.121-0.029,0.162c-0.019,0.04-0.045,0.069-0.079,0.087c-0.035,0.019-0.075,0.027-0.123,0.026
		c-0.047,0.001-0.088-0.007-0.123-0.026c-0.034-0.018-0.06-0.047-0.079-0.087c-0.019-0.041-0.027-0.094-0.027-0.162v-1.53
		c0-0.1,0.021-0.171,0.061-0.215c0.042-0.043,0.098-0.064,0.169-0.063c0.071-0.001,0.128,0.02,0.169,0.063
		c0.04,0.043,0.062,0.115,0.062,0.215v0.304h0.419V30.44c0-0.151-0.023-0.281-0.073-0.386c-0.051-0.106-0.124-0.187-0.223-0.243
		c-0.099-0.056-0.221-0.083-0.366-0.083c-0.146,0.001-0.268,0.028-0.367,0.083c-0.098,0.056-0.172,0.136-0.222,0.243
		c-0.05,0.105-0.074,0.234-0.074,0.386v1.473c0,0.152,0.024,0.28,0.074,0.386c0.05,0.105,0.124,0.187,0.222,0.242
		c0.1,0.056,0.222,0.083,0.367,0.083s0.268-0.028,0.366-0.083s0.172-0.137,0.223-0.242c0.05-0.106,0.073-0.234,0.073-0.386v-0.377
		H59.53L59.53,31.536z M62.898,30.166h0.769v-0.405h-1.214v2.832h1.214v-0.405h-0.769v-0.829h0.61v-0.404h-0.61V30.166
		L62.898,30.166z M67.075,30.433h0.344v2.16h0.444v-2.832h-0.299c-0.017,0.049-0.035,0.094-0.057,0.136
		c-0.022,0.043-0.05,0.081-0.085,0.114c-0.034,0.032-0.08,0.059-0.136,0.077c-0.057,0.019-0.127,0.028-0.212,0.029V30.433
		L67.075,30.433z M71.94,30.44c0-0.151-0.026-0.281-0.078-0.386c-0.053-0.106-0.128-0.187-0.228-0.243
		c-0.101-0.056-0.225-0.083-0.37-0.083c-0.146,0.001-0.27,0.028-0.369,0.083c-0.101,0.056-0.177,0.136-0.228,0.243
		c-0.053,0.105-0.079,0.234-0.079,0.386v0.518c0,0.209,0.041,0.37,0.124,0.48c0.083,0.111,0.205,0.167,0.37,0.167
		c0.099,0,0.184-0.022,0.252-0.065c0.068-0.042,0.122-0.105,0.16-0.186v0.518c0,0.09-0.009,0.16-0.029,0.21
		c-0.018,0.051-0.047,0.088-0.083,0.108c-0.037,0.021-0.082,0.031-0.135,0.029c-0.07,0.001-0.127-0.02-0.168-0.063
		s-0.062-0.115-0.062-0.216V31.84h-0.421v0.073c0,0.152,0.025,0.28,0.076,0.386c0.049,0.105,0.123,0.187,0.222,0.242
		s0.221,0.083,0.367,0.083c0.229,0,0.4-0.064,0.513-0.189c0.11-0.125,0.166-0.308,0.166-0.547V30.44L71.94,30.44z M71.265,31.202
		c-0.071,0-0.128-0.021-0.169-0.064c-0.04-0.044-0.062-0.116-0.062-0.215v-0.511c0-0.067,0.009-0.121,0.028-0.161
		c0.019-0.04,0.045-0.069,0.08-0.088c0.033-0.018,0.074-0.026,0.122-0.026c0.048,0,0.089,0.008,0.123,0.026
		c0.034,0.019,0.061,0.048,0.08,0.088c0.019,0.04,0.027,0.094,0.027,0.161v0.511c-0.001,0.1-0.021,0.171-0.062,0.215
		C71.393,31.181,71.337,31.202,71.265,31.202L71.265,31.202z M75.774,30.44c0-0.151-0.027-0.281-0.078-0.386
		c-0.053-0.106-0.128-0.187-0.229-0.243c-0.1-0.056-0.224-0.083-0.37-0.083c-0.146,0.001-0.269,0.028-0.368,0.083
		c-0.102,0.056-0.177,0.136-0.229,0.243c-0.052,0.105-0.078,0.234-0.078,0.386v0.518c0,0.209,0.04,0.37,0.124,0.48
		c0.082,0.111,0.205,0.167,0.369,0.167c0.1,0,0.183-0.022,0.252-0.065c0.068-0.042,0.122-0.105,0.161-0.186v0.518
		c0,0.09-0.01,0.16-0.03,0.21c-0.019,0.051-0.046,0.088-0.083,0.108c-0.036,0.021-0.081,0.031-0.134,0.029
		c-0.071,0.001-0.128-0.02-0.168-0.063c-0.041-0.043-0.062-0.115-0.062-0.216V31.84h-0.422v0.073c0,0.152,0.024,0.28,0.074,0.386
		c0.051,0.105,0.125,0.187,0.223,0.242c0.099,0.056,0.221,0.083,0.366,0.083c0.23,0,0.402-0.064,0.514-0.189
		s0.167-0.308,0.167-0.547V30.44L75.774,30.44z M75.098,31.202c-0.071,0-0.127-0.021-0.168-0.064
		c-0.041-0.044-0.061-0.116-0.062-0.215v-0.511c0-0.067,0.009-0.121,0.027-0.161s0.046-0.069,0.079-0.088
		c0.035-0.018,0.077-0.026,0.123-0.026c0.048,0,0.089,0.008,0.123,0.026c0.035,0.019,0.061,0.048,0.08,0.088
		c0.019,0.04,0.028,0.094,0.028,0.161v0.511c-0.001,0.1-0.021,0.171-0.062,0.215C75.226,31.181,75.169,31.202,75.098,31.202
		L75.098,31.202z M78.575,30.433h0.345v2.16h0.444v-2.832h-0.299c-0.016,0.049-0.036,0.094-0.058,0.136
		c-0.021,0.043-0.05,0.081-0.084,0.114c-0.035,0.032-0.08,0.059-0.137,0.077c-0.056,0.019-0.125,0.028-0.212,0.029V30.433z"/>
	<path fill="#2A2A28" d="M29.097,36.212l-1.438-0.538l-0.144,0.377l0.113,0.045c0.052,0.02,0.089,0.04,0.111,0.063
		c0.024,0.022,0.038,0.045,0.045,0.073c0.006,0.026,0.005,0.053-0.002,0.082l-0.032,0.093l-0.586,1.551l-0.054,0.124
		c-0.015,0.031-0.034,0.051-0.054,0.064c-0.021,0.013-0.049,0.015-0.081,0.009c-0.033-0.006-0.077-0.019-0.131-0.04l-0.104-0.04
		l-0.148,0.378l0.172,0.062l0.172,0.066l0.188,0.068l0.206,0.078l0.186,0.069l0.16,0.061l0.147,0.054l0.146,0.056l0.141-0.38
		L28,38.549l-0.109-0.047c-0.028-0.016-0.047-0.032-0.057-0.051c-0.012-0.021-0.015-0.044-0.012-0.075
		c0.004-0.028,0.015-0.065,0.03-0.112l0.211-0.567l0.426,0.156c0.224,0.082,0.416,0.129,0.579,0.146
		c0.165,0.014,0.306,0,0.422-0.041c0.115-0.04,0.211-0.104,0.285-0.189c0.074-0.089,0.132-0.191,0.174-0.314
		c0.044-0.124,0.062-0.243,0.056-0.361c-0.007-0.117-0.042-0.229-0.107-0.333c-0.066-0.105-0.166-0.204-0.296-0.295
		C29.471,36.373,29.302,36.289,29.097,36.212L29.097,36.212z M75.175,42.507L75.175,42.507l-0.093-0.826l-0.123,0.013l-0.129,0.014
		l-0.106,0.011l-0.06,0.006l0.007,0.061l0.007,0.058l0.008,0.064c-0.125-0.08-0.253-0.128-0.386-0.147
		c-0.134-0.02-0.267-0.021-0.4-0.011c-0.157,0.015-0.292,0.05-0.409,0.105c-0.115,0.054-0.212,0.124-0.29,0.207
		c-0.077,0.084-0.134,0.179-0.168,0.285c-0.033,0.108-0.046,0.221-0.036,0.34c0.018,0.189,0.09,0.345,0.216,0.467
		c0.13,0.121,0.317,0.221,0.564,0.295l0.34,0.092c0.111,0.029,0.213,0.059,0.302,0.092c0.092,0.035,0.165,0.079,0.223,0.13
		c0.059,0.053,0.094,0.122,0.103,0.208c0.006,0.063,0,0.121-0.019,0.174c-0.02,0.052-0.05,0.099-0.093,0.137
		c-0.043,0.041-0.094,0.073-0.154,0.097c-0.062,0.024-0.132,0.042-0.21,0.049c-0.102,0.01-0.189,0.007-0.267-0.006
		c-0.074-0.015-0.14-0.04-0.193-0.075c-0.056-0.037-0.1-0.083-0.136-0.139c-0.035-0.057-0.064-0.123-0.086-0.199l-0.038-0.105
		l-0.439,0.039l0.085,0.921l0.504-0.048l-0.022-0.22c0.05,0.038,0.108,0.073,0.171,0.102c0.064,0.029,0.132,0.051,0.204,0.069
		c0.071,0.018,0.147,0.029,0.225,0.036c0.076,0.006,0.152,0.005,0.23-0.005c0.159-0.016,0.3-0.054,0.423-0.117
		c0.122-0.06,0.221-0.135,0.3-0.225s0.138-0.191,0.172-0.303c0.036-0.112,0.045-0.226,0.033-0.346
		c-0.015-0.111-0.041-0.208-0.087-0.292c-0.042-0.084-0.097-0.154-0.163-0.213c-0.065-0.059-0.142-0.109-0.226-0.149
		c-0.081-0.04-0.169-0.074-0.26-0.101l-0.394-0.107c-0.122-0.029-0.232-0.062-0.326-0.098c-0.095-0.035-0.17-0.079-0.229-0.13
		c-0.06-0.051-0.091-0.118-0.1-0.206c-0.006-0.056,0-0.106,0.018-0.154c0.02-0.048,0.047-0.091,0.085-0.127
		c0.037-0.037,0.084-0.067,0.143-0.092c0.056-0.023,0.12-0.038,0.194-0.044c0.177-0.02,0.314,0,0.411,0.062
		c0.097,0.063,0.164,0.16,0.202,0.291l0.019,0.054l0.022,0.054L75.175,42.507L75.175,42.507z M78.856,41.187L78.856,41.187
		l-2.53,0.347l0.05,0.398l0.157-0.021c0.041-0.004,0.074,0,0.097,0.014c0.024,0.013,0.043,0.032,0.058,0.055
		c0.012,0.025,0.021,0.053,0.027,0.086l0.016,0.099l0.209,1.625l0.008,0.098c0.001,0.029-0.002,0.058-0.01,0.083
		c-0.008,0.026-0.021,0.047-0.043,0.063c-0.021,0.016-0.05,0.028-0.09,0.032l-0.17,0.021l0.05,0.402l2.623-0.36l-0.13-0.869
		l-0.436,0.067l0.01,0.071c0.011,0.08,0.016,0.145,0.011,0.194c-0.004,0.049-0.015,0.087-0.033,0.117
		c-0.021,0.028-0.049,0.05-0.086,0.062c-0.036,0.013-0.083,0.023-0.14,0.031l-0.795,0.11l-0.117-0.878l0.443-0.062l0.085-0.006
		c0.022,0.001,0.043,0.007,0.062,0.02c0.019,0.012,0.035,0.032,0.049,0.059c0.016,0.025,0.03,0.064,0.047,0.109l0.194-0.025
		l-0.114-0.798l-0.191,0.026c0,0.051-0.005,0.091-0.011,0.122c-0.008,0.029-0.019,0.052-0.033,0.067
		c-0.014,0.016-0.033,0.027-0.056,0.036l-0.084,0.017L77.54,42.66l-0.11-0.819l0.746-0.103l0.131-0.015
		c0.041-0.001,0.074,0.003,0.103,0.016c0.028,0.015,0.054,0.04,0.075,0.077c0.02,0.037,0.035,0.09,0.046,0.163l0.015,0.092
		l0.435-0.067L78.856,41.187L78.856,41.187z M82.922,42.681L82.922,42.681c-0.034-0.1-0.072-0.183-0.111-0.25
		c-0.04-0.067-0.081-0.121-0.125-0.166c-0.044-0.042-0.089-0.075-0.135-0.099c-0.049-0.024-0.095-0.042-0.144-0.054
		c0.09-0.04,0.167-0.086,0.233-0.14c0.065-0.054,0.119-0.117,0.158-0.185c0.043-0.068,0.068-0.139,0.083-0.216
		c0.011-0.077,0.011-0.156-0.005-0.237c-0.021-0.116-0.059-0.212-0.108-0.291c-0.05-0.077-0.11-0.141-0.181-0.191
		c-0.072-0.048-0.151-0.083-0.24-0.106c-0.087-0.023-0.182-0.035-0.281-0.041c-0.098-0.004-0.203,0-0.309,0.011l-0.319,0.047
		l-1.413,0.241l0.065,0.398l0.06-0.01c0.063-0.011,0.114-0.015,0.15-0.011c0.038,0.001,0.065,0.011,0.085,0.025
		c0.021,0.016,0.036,0.039,0.044,0.067l0.023,0.105l0.278,1.678l0.013,0.099c0.002,0.029-0.003,0.054-0.016,0.077
		c-0.013,0.021-0.036,0.04-0.069,0.056c-0.034,0.017-0.085,0.029-0.149,0.042l-0.072,0.011l0.064,0.4l0.152-0.028l0.153-0.025
		l0.17-0.031l0.197-0.034l0.209-0.035l0.184-0.028l0.17-0.028l0.168-0.03l-0.071-0.398l-0.101,0.019l-0.111,0.014
		c-0.029,0-0.052-0.005-0.07-0.012c-0.021-0.008-0.034-0.022-0.044-0.043c-0.011-0.021-0.019-0.048-0.026-0.082l-0.129-0.757
		l0.196-0.032c0.084-0.016,0.155-0.023,0.215-0.022c0.058,0.001,0.111,0.015,0.157,0.04c0.047,0.045,0.093,0.105,0.138,0.179
		c0.046,0.073,0.089,0.168,0.133,0.283c0.051,0.13,0.104,0.241,0.163,0.333c0.059,0.091,0.125,0.164,0.199,0.219
		c0.073,0.054,0.158,0.091,0.249,0.107c0.093,0.018,0.198,0.015,0.313-0.006c0.098-0.019,0.182-0.044,0.254-0.083
		c0.072-0.037,0.131-0.085,0.175-0.145c0.045-0.057,0.076-0.128,0.09-0.208c0.017-0.08,0.015-0.172-0.003-0.277l-0.001-0.013
		l-0.005-0.022l-0.003-0.022l-0.002-0.013l-0.256,0.083c0.015,0.07,0.01,0.124-0.011,0.159c-0.021,0.035-0.058,0.057-0.111,0.069
		c-0.036,0.006-0.069,0.005-0.097-0.007c-0.027-0.013-0.055-0.035-0.078-0.067c-0.022-0.035-0.049-0.076-0.071-0.129L82.922,42.681
		L82.922,42.681z M81.296,42.12L81.296,42.12l-0.152-0.881l0.276-0.047c0.107-0.019,0.201-0.031,0.282-0.033
		c0.083-0.001,0.155,0.009,0.215,0.033s0.11,0.062,0.147,0.113c0.04,0.053,0.067,0.122,0.083,0.211
		c0.015,0.083,0.016,0.156,0.002,0.215c-0.013,0.06-0.041,0.111-0.083,0.153c-0.041,0.043-0.096,0.078-0.168,0.105
		c-0.071,0.029-0.156,0.051-0.257,0.069L81.296,42.12L81.296,42.12z M84.929,40.698L84.929,40.698
		c-0.011-0.017-0.019-0.031-0.024-0.045l-0.011-0.037c-0.005-0.026-0.004-0.048,0.01-0.066c0.013-0.016,0.032-0.032,0.058-0.045
		c0.026-0.011,0.057-0.023,0.093-0.032l0.118-0.029l-0.086-0.396l-0.356,0.082l-0.141,0.031l-0.135,0.031l-0.113,0.023l-0.078,0.016
		l-0.118,0.022l-0.135,0.026l-0.122,0.02l-0.072,0.015l0.08,0.397c0.057-0.011,0.105-0.014,0.142-0.007
		c0.039,0.005,0.072,0.019,0.102,0.041c0.03,0.022,0.058,0.05,0.082,0.086l0.083,0.122l1.374,2.047l0.68-0.146l0.304-2.162
		l0.036-0.283c0.012-0.076,0.028-0.141,0.047-0.188c0.021-0.052,0.05-0.089,0.082-0.117c0.036-0.028,0.083-0.048,0.146-0.062
		l-0.094-0.393l-0.281,0.068l-0.253,0.057l-0.055,0.012l-0.077,0.019l-0.093,0.019l-0.093,0.021l-0.24,0.051l0.09,0.396l0.044-0.009
		l0.045-0.01c0.076-0.015,0.13-0.02,0.168-0.015c0.034,0,0.058,0.022,0.065,0.059c0.004,0.011,0.005,0.026,0.004,0.045l-0.004,0.066
		l-0.233,1.877l-0.062-0.091l-0.119-0.186l-0.161-0.247l-0.181-0.276l-0.18-0.276l-0.156-0.248l-0.119-0.185L84.929,40.698
		L84.929,40.698z M87.816,39.419L87.816,39.419l0.097,0.393L88,39.791c0.055-0.014,0.101-0.019,0.134-0.016
		c0.032,0.003,0.059,0.015,0.08,0.032c0.019,0.016,0.036,0.04,0.045,0.071l0.033,0.111l0.396,1.601l0.023,0.109
		c0.007,0.032,0.004,0.06-0.006,0.083c-0.011,0.025-0.03,0.045-0.059,0.063c-0.028,0.02-0.072,0.035-0.13,0.049l-0.089,0.022
		l0.097,0.394l0.316-0.081l0.363-0.094l0.203-0.051l0.174-0.043l0.16-0.04l0.162-0.041l-0.102-0.391l-0.095,0.023
		c-0.057,0.016-0.1,0.024-0.131,0.026c-0.033,0.001-0.059-0.003-0.078-0.015c-0.018-0.011-0.033-0.03-0.042-0.056l-0.029-0.096
		l-0.432-1.689l-0.018-0.088c-0.003-0.025,0.002-0.051,0.011-0.074c0.012-0.021,0.03-0.042,0.058-0.057
		c0.027-0.018,0.066-0.034,0.12-0.047l0.091-0.024l-0.101-0.392l-0.166,0.046l-0.163,0.043L88.64,39.22l-0.231,0.059l-0.127,0.032
		l-0.134,0.034l-0.15,0.033L87.816,39.419L87.816,39.419z M92.598,40.828L92.598,40.828c-0.127,0.037-0.248,0.045-0.36,0.024
		c-0.112-0.02-0.217-0.062-0.311-0.136c-0.098-0.071-0.181-0.168-0.255-0.291c-0.074-0.122-0.135-0.268-0.184-0.439
		c-0.048-0.171-0.072-0.329-0.072-0.472c-0.001-0.141,0.019-0.267,0.062-0.375c0.041-0.107,0.104-0.199,0.19-0.271
		c0.083-0.075,0.186-0.128,0.308-0.163c0.2-0.058,0.369-0.057,0.505,0.007c0.133,0.063,0.231,0.175,0.293,0.337l0.444-0.133
		l-0.271-0.894l-0.476,0.145l0.046,0.191c-0.05-0.025-0.108-0.048-0.173-0.061c-0.064-0.017-0.131-0.024-0.202-0.027
		c-0.07-0.003-0.143,0-0.218,0.008c-0.073,0.008-0.145,0.022-0.21,0.042c-0.22,0.064-0.408,0.157-0.563,0.281
		c-0.155,0.123-0.277,0.263-0.361,0.431c-0.087,0.164-0.141,0.347-0.156,0.548c-0.016,0.202,0.005,0.411,0.064,0.628
		c0.056,0.208,0.14,0.396,0.247,0.562c0.109,0.165,0.242,0.297,0.405,0.397c0.161,0.102,0.351,0.164,0.566,0.187
		c0.215,0.022,0.459-0.006,0.727-0.083c0.229-0.066,0.437-0.154,0.617-0.262c0.181-0.111,0.342-0.25,0.479-0.418l-0.167-0.671
		l-0.475,0.04c0.029,0.125,0.043,0.232,0.036,0.328c-0.007,0.092-0.03,0.173-0.072,0.244c-0.041,0.069-0.101,0.127-0.181,0.175
		C92.803,40.755,92.71,40.795,92.598,40.828L92.598,40.828z M96.524,36.868L96.524,36.868l-2.427,0.797l0.121,0.381L94.369,38
		c0.039-0.014,0.072-0.015,0.098-0.009c0.024,0.01,0.048,0.024,0.065,0.045c0.018,0.022,0.032,0.048,0.043,0.08l0.034,0.095
		l0.496,1.561l0.025,0.095c0.008,0.029,0.01,0.058,0.005,0.085c-0.003,0.025-0.013,0.05-0.03,0.069
		c-0.017,0.019-0.045,0.035-0.081,0.048l-0.163,0.052l0.121,0.386l2.517-0.825l-0.284-0.833l-0.42,0.142l0.024,0.069
		c0.025,0.076,0.039,0.138,0.044,0.188c0.007,0.048,0.002,0.088-0.013,0.12c-0.015,0.033-0.038,0.058-0.072,0.077
		c-0.034,0.02-0.076,0.038-0.132,0.057l-0.76,0.253l-0.274-0.842l0.425-0.14l0.083-0.023c0.021-0.003,0.043,0,0.064,0.006
		c0.021,0.01,0.039,0.026,0.06,0.05c0.019,0.024,0.041,0.058,0.065,0.1l0.185-0.062l-0.256-0.762l-0.183,0.062
		c0.01,0.049,0.014,0.089,0.011,0.12c-0.001,0.031-0.008,0.055-0.019,0.074c-0.014,0.02-0.029,0.035-0.051,0.046l-0.078,0.033
		l-0.425,0.139l-0.255-0.784l0.715-0.24l0.126-0.036c0.036-0.01,0.072-0.011,0.103-0.004c0.031,0.009,0.059,0.029,0.086,0.062
		c0.027,0.034,0.054,0.083,0.075,0.152l0.032,0.088l0.417-0.14L96.524,36.868L96.524,36.868z M100.027,36.483L100.027,36.483
		l-0.295-0.779l-0.114,0.045l-0.123,0.045l-0.1,0.037l-0.056,0.021l0.021,0.058l0.022,0.055l0.024,0.061
		c-0.142-0.047-0.279-0.062-0.414-0.048c-0.135,0.013-0.265,0.043-0.391,0.09c-0.146,0.052-0.268,0.12-0.367,0.203
		c-0.1,0.083-0.176,0.175-0.23,0.275c-0.052,0.102-0.083,0.207-0.091,0.317c-0.008,0.113,0.01,0.226,0.049,0.338
		c0.065,0.178,0.174,0.312,0.328,0.398c0.154,0.085,0.36,0.134,0.619,0.145l0.353,0.001c0.111-0.001,0.218,0.003,0.314,0.015
		c0.096,0.013,0.178,0.036,0.249,0.072c0.068,0.038,0.119,0.095,0.149,0.177c0.022,0.059,0.03,0.117,0.025,0.173
		c-0.004,0.057-0.022,0.108-0.054,0.157c-0.031,0.048-0.073,0.09-0.128,0.13c-0.053,0.039-0.117,0.072-0.189,0.099
		c-0.097,0.036-0.183,0.055-0.259,0.061c-0.077,0.005-0.146-0.004-0.208-0.023c-0.062-0.021-0.116-0.055-0.165-0.102
		c-0.048-0.045-0.092-0.101-0.133-0.168l-0.062-0.095l-0.415,0.149l0.312,0.871l0.473-0.172l-0.075-0.211
		c0.059,0.026,0.122,0.045,0.191,0.057s0.14,0.018,0.214,0.015c0.074-0.001,0.15-0.009,0.228-0.022
		c0.075-0.015,0.148-0.035,0.221-0.062c0.151-0.056,0.278-0.126,0.381-0.216c0.104-0.091,0.181-0.189,0.234-0.295
		c0.054-0.108,0.084-0.221,0.09-0.338c0.007-0.115-0.013-0.23-0.055-0.341c-0.04-0.106-0.093-0.192-0.155-0.261
		c-0.062-0.07-0.133-0.125-0.212-0.166c-0.079-0.04-0.164-0.069-0.254-0.087c-0.092-0.019-0.184-0.029-0.278-0.031l-0.408-0.008
		c-0.127,0.001-0.241-0.003-0.341-0.014c-0.1-0.01-0.185-0.032-0.253-0.068c-0.069-0.035-0.119-0.09-0.148-0.173
		c-0.02-0.053-0.026-0.104-0.021-0.154c0.006-0.051,0.021-0.099,0.05-0.145c0.026-0.045,0.065-0.086,0.114-0.124
		c0.047-0.037,0.107-0.069,0.176-0.094c0.169-0.061,0.307-0.075,0.417-0.038c0.109,0.038,0.197,0.113,0.27,0.229l0.031,0.047
		l0.033,0.048L100.027,36.483L100.027,36.483z M28.203,37.322L28.203,37.322l0.324-0.88l0.306,0.113
		c0.104,0.037,0.187,0.079,0.251,0.124c0.066,0.045,0.114,0.094,0.146,0.146c0.032,0.053,0.05,0.111,0.05,0.173
		c0.001,0.063-0.01,0.13-0.038,0.204c-0.052,0.15-0.14,0.245-0.253,0.285c-0.116,0.038-0.265,0.026-0.44-0.039L28.203,37.322
		L28.203,37.322z M33.026,39.815L33.026,39.815c0.017-0.103,0.024-0.196,0.021-0.271c-0.006-0.079-0.017-0.147-0.034-0.206
		c-0.017-0.058-0.042-0.109-0.072-0.152c-0.031-0.042-0.063-0.082-0.102-0.117c0.099,0.01,0.188,0.005,0.272-0.013
		c0.085-0.018,0.16-0.047,0.229-0.088c0.066-0.041,0.125-0.094,0.173-0.155c0.046-0.063,0.083-0.133,0.107-0.212
		c0.034-0.111,0.048-0.213,0.04-0.305c-0.006-0.093-0.03-0.176-0.07-0.252c-0.04-0.077-0.093-0.146-0.163-0.207
		c-0.067-0.062-0.143-0.119-0.228-0.168c-0.084-0.051-0.179-0.097-0.278-0.135l-0.306-0.109l-1.358-0.452l-0.13,0.383l0.058,0.019
		c0.062,0.021,0.107,0.043,0.14,0.062c0.03,0.019,0.052,0.04,0.062,0.064c0.011,0.023,0.012,0.05,0.008,0.079l-0.031,0.104
		l-0.54,1.612l-0.035,0.094c-0.012,0.028-0.028,0.046-0.05,0.062c-0.021,0.012-0.052,0.019-0.088,0.015
		c-0.036-0.001-0.087-0.012-0.15-0.034l-0.069-0.024l-0.131,0.384l0.146,0.047l0.147,0.049l0.165,0.053l0.191,0.063l0.2,0.067
		l0.176,0.063l0.163,0.056l0.161,0.051l0.126-0.386l-0.097-0.031l-0.106-0.041c-0.025-0.012-0.044-0.025-0.058-0.041
		c-0.012-0.018-0.02-0.035-0.02-0.06c0.001-0.023,0.008-0.051,0.019-0.083l0.239-0.729l0.19,0.061
		c0.081,0.025,0.146,0.053,0.197,0.082c0.052,0.029,0.093,0.064,0.121,0.108c0.021,0.062,0.034,0.139,0.039,0.224
		c0.005,0.086,0,0.191-0.015,0.313c-0.019,0.138-0.022,0.262-0.013,0.37c0.008,0.109,0.032,0.204,0.074,0.288
		c0.038,0.082,0.094,0.154,0.168,0.212c0.073,0.058,0.168,0.106,0.28,0.142c0.095,0.029,0.184,0.043,0.264,0.043
		c0.079,0.001,0.155-0.014,0.223-0.045s0.127-0.079,0.177-0.141c0.052-0.065,0.093-0.147,0.127-0.248l0.003-0.012l0.008-0.02
		l0.008-0.022l0.003-0.014l-0.263-0.046c-0.021,0.07-0.051,0.116-0.084,0.136c-0.036,0.022-0.079,0.025-0.131,0.009
		c-0.036-0.012-0.063-0.029-0.082-0.052c-0.018-0.023-0.031-0.057-0.037-0.096c-0.005-0.04-0.008-0.089-0.003-0.145L33.026,39.815
		L33.026,39.815z M31.854,38.557L31.854,38.557l0.278-0.849l0.27,0.086c0.103,0.032,0.19,0.067,0.265,0.105
		c0.074,0.037,0.132,0.08,0.173,0.13c0.042,0.048,0.067,0.104,0.078,0.169c0.008,0.065,0,0.139-0.027,0.225
		c-0.026,0.08-0.059,0.145-0.098,0.191c-0.041,0.046-0.089,0.079-0.146,0.096c-0.059,0.019-0.123,0.024-0.199,0.015
		c-0.076-0.01-0.16-0.029-0.26-0.06L31.854,38.557L31.854,38.557z M36.656,38.582L36.656,38.582
		c-0.241-0.064-0.464-0.091-0.67-0.066c-0.206,0.024-0.393,0.083-0.558,0.181c-0.164,0.096-0.306,0.225-0.425,0.386
		c-0.117,0.161-0.207,0.346-0.268,0.555c-0.063,0.21-0.088,0.416-0.072,0.616c0.015,0.202,0.065,0.386,0.156,0.557
		c0.09,0.172,0.221,0.321,0.391,0.453c0.169,0.13,0.376,0.233,0.624,0.298c0.242,0.066,0.471,0.087,0.679,0.062
		c0.21-0.027,0.397-0.089,0.562-0.19c0.164-0.102,0.306-0.234,0.42-0.398c0.115-0.165,0.2-0.353,0.255-0.562
		c0.055-0.209,0.073-0.415,0.053-0.612c-0.018-0.199-0.073-0.383-0.165-0.549c-0.09-0.169-0.219-0.317-0.381-0.444
		C37.092,38.742,36.894,38.646,36.656,38.582L36.656,38.582z M36.536,39.005L36.536,39.005c0.238,0.064,0.39,0.204,0.457,0.419
		c0.065,0.213,0.054,0.492-0.04,0.834c-0.045,0.167-0.1,0.312-0.163,0.437c-0.064,0.125-0.14,0.227-0.221,0.302
		c-0.085,0.075-0.179,0.127-0.283,0.151s-0.219,0.019-0.345-0.015c-0.121-0.034-0.221-0.085-0.296-0.159
		c-0.077-0.073-0.132-0.164-0.165-0.273c-0.033-0.107-0.044-0.233-0.036-0.375c0.008-0.139,0.036-0.295,0.085-0.467
		c0.047-0.164,0.104-0.306,0.168-0.429c0.064-0.122,0.137-0.222,0.221-0.295c0.082-0.076,0.174-0.125,0.276-0.147
		S36.411,38.97,36.536,39.005L36.536,39.005z M41.719,39.905L41.719,39.905l-2.488-0.587l-0.099,0.391l0.142,0.036
		c0.049,0.011,0.086,0.024,0.111,0.038c0.023,0.015,0.04,0.034,0.05,0.057c0.008,0.023,0.009,0.051,0.005,0.085l-0.027,0.122
		l-0.392,1.595c-0.014,0.058-0.027,0.103-0.041,0.135c-0.017,0.032-0.032,0.057-0.051,0.069c-0.021,0.015-0.047,0.02-0.072,0.02
		c-0.03-0.002-0.062-0.006-0.104-0.017l-0.149-0.036l-0.099,0.392l0.15,0.035l0.144,0.036l0.164,0.037l0.196,0.046l0.229,0.059
		l0.201,0.049l0.185,0.048l0.188,0.043l0.092-0.395l-0.136-0.031l-0.107-0.034c-0.027-0.011-0.05-0.026-0.064-0.043
		c-0.015-0.016-0.024-0.039-0.024-0.064c-0.003-0.025,0.002-0.059,0.011-0.098l0.17-0.712l0.396,0.095l0.092,0.026
		c0.024,0.009,0.043,0.023,0.056,0.04c0.015,0.016,0.024,0.036,0.029,0.062c0.005,0.025,0.005,0.061,0,0.103l0.165,0.039
		l0.169-0.735l-0.165-0.037c-0.015,0.042-0.03,0.077-0.046,0.1c-0.017,0.024-0.034,0.039-0.056,0.045
		c-0.021,0.008-0.043,0.009-0.07,0.006l-0.094-0.02l-0.391-0.091l0.193-0.807l0.744,0.174l0.103,0.029
		c0.033,0.011,0.059,0.029,0.079,0.053c0.021,0.025,0.033,0.057,0.04,0.1c0.006,0.042,0.001,0.097-0.016,0.169l-0.024,0.107
		l0.427,0.097L41.719,39.905L41.719,39.905z M45.192,40.613L45.192,40.613l-2.505-0.499l-0.083,0.392l0.154,0.032
		c0.042,0.01,0.071,0.024,0.089,0.043c0.018,0.021,0.028,0.043,0.035,0.07c0.005,0.028,0.005,0.058-0.002,0.092l-0.018,0.098
		l-0.334,1.603l-0.024,0.095c-0.008,0.029-0.021,0.056-0.037,0.077c-0.015,0.021-0.037,0.036-0.061,0.045
		c-0.026,0.008-0.057,0.008-0.096,0l-0.166-0.036l-0.083,0.397l2.596,0.515l0.159-0.863l-0.434-0.079l-0.013,0.071
		c-0.016,0.079-0.032,0.142-0.053,0.187c-0.02,0.044-0.042,0.077-0.072,0.098c-0.027,0.02-0.061,0.032-0.099,0.031
		c-0.041,0-0.086-0.006-0.143-0.017l-0.788-0.156l0.175-0.867l0.441,0.087l0.081,0.022c0.023,0.009,0.039,0.021,0.054,0.039
		c0.013,0.018,0.021,0.042,0.026,0.071c0.006,0.031,0.009,0.07,0.009,0.121l0.191,0.037l0.152-0.789l-0.189-0.039
		c-0.016,0.048-0.034,0.085-0.051,0.11c-0.015,0.026-0.033,0.044-0.053,0.055c-0.019,0.01-0.039,0.014-0.064,0.014l-0.084-0.011
		l-0.438-0.086l0.163-0.811l0.739,0.146l0.128,0.029c0.038,0.012,0.067,0.028,0.091,0.05c0.023,0.022,0.038,0.053,0.046,0.095
		c0.008,0.043,0.005,0.099-0.01,0.171l-0.017,0.091l0.434,0.079L45.192,40.613L45.192,40.613z M48.433,42L48.433,42l0.124-0.822
		l-0.12-0.019l-0.129-0.021l-0.106-0.016l-0.059-0.009l-0.01,0.062l-0.008,0.057l-0.008,0.064c-0.1-0.108-0.214-0.191-0.337-0.242
		c-0.124-0.053-0.252-0.09-0.384-0.113c-0.153-0.026-0.294-0.027-0.42-0.007c-0.128,0.025-0.239,0.067-0.335,0.126
		c-0.097,0.062-0.175,0.139-0.236,0.233c-0.06,0.095-0.101,0.201-0.123,0.32c-0.03,0.186,0,0.355,0.089,0.506
		c0.094,0.149,0.25,0.293,0.47,0.431l0.304,0.177c0.102,0.054,0.189,0.111,0.269,0.167s0.139,0.117,0.181,0.183
		c0.043,0.066,0.058,0.141,0.044,0.227c-0.009,0.062-0.03,0.117-0.062,0.164c-0.03,0.046-0.072,0.083-0.124,0.111
		c-0.052,0.025-0.109,0.042-0.175,0.051c-0.066,0.01-0.137,0.006-0.214-0.007c-0.101-0.018-0.188-0.042-0.256-0.075
		c-0.07-0.034-0.127-0.074-0.17-0.122c-0.042-0.049-0.074-0.106-0.094-0.17c-0.019-0.065-0.029-0.135-0.031-0.214l-0.011-0.112
		l-0.433-0.072l-0.158,0.909l0.498,0.083l0.038-0.219c0.038,0.051,0.085,0.1,0.139,0.145c0.054,0.042,0.114,0.083,0.179,0.119
		c0.066,0.037,0.136,0.066,0.208,0.092c0.073,0.025,0.146,0.045,0.223,0.055c0.16,0.025,0.306,0.025,0.438-0.004
		c0.134-0.026,0.249-0.074,0.35-0.14c0.101-0.067,0.181-0.149,0.243-0.249c0.062-0.098,0.104-0.206,0.121-0.325
		c0.018-0.111,0.015-0.212-0.007-0.304c-0.021-0.092-0.055-0.175-0.104-0.249c-0.048-0.074-0.107-0.142-0.176-0.201
		c-0.071-0.062-0.146-0.117-0.228-0.165l-0.352-0.207c-0.11-0.057-0.208-0.121-0.291-0.178c-0.082-0.059-0.145-0.121-0.187-0.184
		c-0.043-0.065-0.058-0.139-0.043-0.225c0.01-0.056,0.028-0.104,0.058-0.146c0.029-0.041,0.066-0.073,0.114-0.101
		c0.045-0.026,0.101-0.041,0.161-0.051c0.062-0.008,0.127-0.007,0.199,0.006c0.179,0.029,0.305,0.083,0.381,0.169
		c0.077,0.084,0.117,0.195,0.122,0.333l0.003,0.056l0.006,0.06L48.433,42L48.433,42z M51.91,42.465L51.91,42.465l0.095-0.826
		l-0.122-0.015l-0.128-0.017l-0.106-0.014l-0.06-0.008l-0.006,0.062l-0.007,0.06l-0.007,0.063c-0.104-0.107-0.218-0.185-0.343-0.234
		c-0.126-0.049-0.256-0.082-0.389-0.098c-0.154-0.019-0.295-0.013-0.422,0.013c-0.125,0.025-0.234,0.07-0.329,0.133
		c-0.093,0.064-0.169,0.145-0.228,0.241c-0.057,0.097-0.094,0.203-0.111,0.322c-0.026,0.188,0.009,0.356,0.105,0.504
		c0.098,0.146,0.26,0.288,0.483,0.418l0.311,0.162c0.103,0.05,0.194,0.102,0.273,0.156c0.08,0.056,0.143,0.114,0.188,0.179
		c0.045,0.064,0.062,0.139,0.053,0.227c-0.008,0.062-0.028,0.116-0.058,0.165c-0.031,0.046-0.071,0.085-0.121,0.114
		c-0.05,0.028-0.108,0.047-0.173,0.057c-0.065,0.012-0.138,0.012-0.214,0.001c-0.103-0.013-0.19-0.034-0.26-0.064
		c-0.069-0.031-0.128-0.069-0.173-0.115c-0.044-0.048-0.077-0.104-0.1-0.167c-0.022-0.065-0.035-0.135-0.04-0.213l-0.013-0.113
		l-0.437-0.06l-0.125,0.915l0.501,0.07l0.029-0.221c0.04,0.05,0.087,0.097,0.144,0.137c0.057,0.044,0.118,0.081,0.183,0.113
		c0.066,0.035,0.138,0.06,0.211,0.083c0.074,0.022,0.149,0.039,0.227,0.048c0.159,0.02,0.304,0.014,0.437-0.018
		c0.133-0.031,0.247-0.08,0.344-0.151c0.099-0.069,0.176-0.157,0.235-0.257c0.06-0.1,0.097-0.211,0.109-0.329
		c0.013-0.113,0.008-0.214-0.016-0.304c-0.025-0.091-0.062-0.171-0.112-0.243c-0.052-0.073-0.115-0.141-0.186-0.198
		c-0.072-0.058-0.149-0.111-0.231-0.157l-0.358-0.195c-0.113-0.057-0.214-0.113-0.297-0.169c-0.083-0.054-0.149-0.114-0.193-0.175
		c-0.047-0.063-0.062-0.136-0.052-0.224c0.007-0.054,0.025-0.103,0.054-0.146c0.027-0.042,0.064-0.078,0.11-0.104
		c0.044-0.029,0.096-0.048,0.157-0.06c0.062-0.011,0.127-0.011,0.201-0.002c0.179,0.022,0.307,0.074,0.386,0.156
		c0.081,0.082,0.123,0.191,0.133,0.329l0.006,0.054l0.008,0.06L51.91,42.465L51.91,42.465z M53.259,41.776L53.259,41.776
		l-0.041,0.402l0.09,0.011c0.059,0.006,0.1,0.014,0.13,0.028c0.031,0.013,0.051,0.032,0.065,0.055
		c0.013,0.024,0.018,0.052,0.018,0.085l-0.006,0.114l-0.163,1.643l-0.016,0.109c-0.005,0.032-0.018,0.057-0.034,0.076
		c-0.017,0.022-0.043,0.035-0.076,0.043c-0.032,0.006-0.079,0.008-0.138,0.001l-0.093-0.009l-0.041,0.402l0.326,0.029l0.372,0.034
		l0.21,0.021l0.178,0.018l0.164,0.016l0.166,0.018l0.036-0.403l-0.096-0.008c-0.059-0.006-0.104-0.013-0.134-0.022
		c-0.03-0.01-0.053-0.022-0.066-0.041c-0.016-0.015-0.022-0.04-0.022-0.066l0.005-0.101l0.161-1.735l0.013-0.088
		c0.007-0.028,0.02-0.048,0.034-0.065c0.02-0.018,0.045-0.029,0.076-0.038c0.03-0.007,0.073-0.008,0.128-0.004l0.094,0.011
		l0.036-0.404l-0.171-0.012l-0.17-0.015l-0.192-0.018l-0.238-0.022l-0.131-0.013l-0.136-0.013l-0.154-0.017L53.259,41.776
		L53.259,41.776z M57.345,42.055L57.345,42.055c-0.248-0.016-0.473,0.01-0.67,0.077c-0.196,0.066-0.365,0.165-0.508,0.292
		c-0.141,0.128-0.252,0.284-0.334,0.465s-0.132,0.381-0.148,0.596c-0.017,0.218,0.003,0.425,0.058,0.619
		c0.056,0.194,0.146,0.366,0.27,0.515c0.124,0.15,0.283,0.269,0.475,0.36c0.193,0.092,0.417,0.147,0.673,0.163
		c0.25,0.016,0.477-0.009,0.678-0.08c0.2-0.07,0.37-0.171,0.51-0.304c0.139-0.134,0.249-0.292,0.327-0.477
		c0.08-0.184,0.123-0.384,0.134-0.601c0.01-0.217-0.015-0.421-0.074-0.612c-0.06-0.192-0.152-0.36-0.276-0.504
		c-0.124-0.146-0.279-0.263-0.465-0.353C57.807,42.126,57.592,42.071,57.345,42.055L57.345,42.055z M57.314,42.496L57.314,42.496
		c0.248,0.017,0.425,0.124,0.536,0.318c0.107,0.194,0.153,0.469,0.133,0.823c-0.008,0.174-0.032,0.329-0.068,0.463
		c-0.038,0.134-0.09,0.25-0.155,0.342c-0.065,0.094-0.147,0.161-0.244,0.206c-0.096,0.045-0.21,0.063-0.339,0.054
		c-0.127-0.007-0.235-0.04-0.324-0.096c-0.091-0.055-0.164-0.132-0.218-0.23c-0.054-0.1-0.093-0.22-0.113-0.358
		c-0.021-0.14-0.023-0.298-0.013-0.476c0.013-0.168,0.036-0.319,0.073-0.455c0.037-0.133,0.088-0.244,0.155-0.336
		c0.066-0.091,0.146-0.157,0.242-0.2C57.074,42.505,57.187,42.487,57.314,42.496L57.314,42.496z M60.607,42.265L60.607,42.265
		l-0.594-0.022L60,42.648l0.116,0.005c0.05,0,0.089,0.006,0.117,0.014c0.027,0.009,0.049,0.021,0.062,0.039
		c0.015,0.017,0.022,0.042,0.024,0.071v0.114l-0.055,1.676l-0.007,0.114c-0.004,0.032-0.011,0.06-0.025,0.081
		c-0.015,0.021-0.037,0.035-0.065,0.045c-0.031,0.009-0.076,0.014-0.132,0.01l-0.12-0.003l-0.015,0.403l0.145,0.006l0.141,0.003
		l0.154,0.004l0.178,0.005l0.314,0.011l0.266,0.008l0.011-0.402l-0.113-0.004l-0.121-0.006c-0.031-0.004-0.054-0.013-0.071-0.028
		c-0.019-0.014-0.029-0.034-0.033-0.061c-0.005-0.025-0.007-0.063-0.005-0.11L60.811,43h0.005l1.322,2.309l0.761,0.006l0.007-1.173
		l0.005-0.432l0.002-0.379l0.003-0.272v-0.108l0.005-0.097c0.003-0.03,0.012-0.055,0.024-0.076c0.013-0.02,0.032-0.037,0.06-0.048
		c0.027-0.009,0.066-0.017,0.116-0.017l0.115,0.001l0.002-0.404h-0.267h-0.1l-0.098,0.001l-0.08-0.001h-0.05l-0.244-0.004
		L62.098,42.3l-0.008,0.405l0.105,0.001l0.114,0.009c0.028,0.003,0.052,0.014,0.067,0.026c0.018,0.012,0.026,0.034,0.032,0.057
		c0.006,0.025,0.01,0.06,0.01,0.103l-0.02,1.595h-0.005l-1.251-2.218h-0.056l-0.097-0.003l-0.116-0.001l-0.117-0.003l-0.096-0.003
		L60.607,42.265L60.607,42.265z M66.141,42.284L66.141,42.284l-0.869,0.019l-0.097,0.407l-0.056,0.145l-0.086,0.233l-0.111,0.291
		l-0.121,0.32l-0.12,0.319l-0.111,0.288l-0.089,0.231l-0.056,0.141c-0.021,0.046-0.038,0.083-0.054,0.106
		c-0.016,0.026-0.035,0.045-0.06,0.058c-0.021,0.013-0.052,0.021-0.086,0.025l-0.134,0.019l0.002,0.405l0.147-0.004l0.135-0.003
		l0.139-0.001l0.15-0.001l0.311,0.001h0.283l-0.005-0.373H65.22h-0.052l-0.052-0.001h-0.028c-0.05-0.001-0.084-0.006-0.104-0.019
		c-0.022-0.012-0.032-0.032-0.032-0.066l0.005-0.043l0.016-0.055L65,44.631l0.05-0.153l0.05-0.154l0.032-0.096l1.054-0.02
		l0.156,0.426l0.033,0.091c0.007,0.026,0.011,0.048,0.011,0.067c0.002,0.03-0.011,0.051-0.037,0.064
		c-0.028,0.012-0.08,0.021-0.154,0.024l-0.021,0.003l-0.034,0.001l-0.035,0.001h-0.027l0.008,0.375l0.413-0.013l0.388-0.011
		l0.297-0.008l0.264-0.007l-0.013-0.402c-0.079,0-0.139,0-0.18-0.011c-0.042-0.008-0.078-0.027-0.105-0.059
		c-0.029-0.029-0.053-0.076-0.076-0.136l-0.097-0.244l-0.06-0.145l-0.107-0.263l-0.136-0.338l-0.149-0.371L66.141,42.284
		L66.141,42.284z M65.232,43.931L65.232,43.931l0.406-1.208l0.006,0.003l0.428,1.187L65.232,43.931L65.232,43.931z M68.291,42.618
		L68.291,42.618l0.104-0.004c0.051-0.003,0.093,0.001,0.123,0.012c0.03,0.014,0.056,0.028,0.071,0.049
		c0.016,0.021,0.026,0.043,0.031,0.071l0.011,0.087l0.004,0.09l0.075,1.584v0.102c-0.001,0.033-0.008,0.062-0.021,0.084
		c-0.013,0.021-0.036,0.043-0.065,0.058c-0.031,0.016-0.075,0.024-0.13,0.027l-0.107,0.005l0.018,0.405l2.507-0.143l-0.069-1.008
		l-0.416,0.028l0.009,0.241c0,0.07-0.007,0.128-0.02,0.178c-0.014,0.048-0.036,0.086-0.065,0.113
		c-0.032,0.025-0.078,0.041-0.135,0.045l-0.741,0.042l-0.054-0.919l-0.052-0.94v-0.095c0-0.031,0.009-0.06,0.021-0.083
		c0.013-0.026,0.031-0.047,0.06-0.063c0.029-0.016,0.067-0.027,0.119-0.029l0.146-0.008l-0.025-0.404l-0.249,0.017l-0.225,0.012
		l-0.21,0.013l-0.211,0.012L68.659,42.2l-0.163,0.007l-0.145,0.004l-0.079,0.003L68.291,42.618z"/>
	<path fill-rule="evenodd" clip-rule="evenodd" fill="#363837" d="M75.736,1.708c0.298,1.542-0.699,2.241-1.843,2.156
		c-0.695-0.053-1.354-0.449-2.046-0.975c-0.611-0.464-1.195-1.002-1.772-1.482c-1.521-1.269-3.255-1.956-5.139-0.859
		c-0.502,0.292-0.967,0.739-1.311,1.413c-0.344-0.674-0.808-1.121-1.311-1.413c-1.884-1.096-3.618-0.409-5.14,0.859
		c-0.576,0.48-1.161,1.018-1.771,1.482c-0.692,0.526-1.352,0.922-2.047,0.975c-1.145,0.085-2.141-0.613-1.843-2.156
		c0.007-0.039-0.009-0.076-0.042-0.098c-0.035-0.022-0.075-0.021-0.107,0.003c-0.699,0.506-0.876,1.379-0.799,2.25
		c0.16,1.816,1.281,3.028,2.752,3.732c2.481,1.186,5.902,1.162,8.31-0.24c0.967-0.562,1.632-1.337,1.997-2.259
		c0.366,0.922,1.03,1.697,1.996,2.259c2.408,1.402,5.83,1.426,8.31,0.24c1.472-0.704,2.594-1.916,2.753-3.732
		c0.077-0.871-0.101-1.744-0.799-2.25c-0.032-0.023-0.073-0.025-0.106-0.003C75.745,1.631,75.729,1.669,75.736,1.708z"/>
	<path fill-rule="evenodd" clip-rule="evenodd" fill="#363837" d="M82.367,30.815c-0.199,0-0.361,0.162-0.361,0.361
		c0,0.2,0.162,0.362,0.361,0.362s0.362-0.162,0.362-0.362C82.729,30.978,82.566,30.815,82.367,30.815L82.367,30.815z M44.885,30.815
		c-0.199,0-0.361,0.162-0.361,0.361c0,0.2,0.162,0.362,0.361,0.362s0.362-0.162,0.362-0.362
		C45.247,30.978,45.084,30.815,44.885,30.815z"/>
</g>
</svg>
