<?xml version="1.0" encoding="utf-8"?>
<!-- Generator: Adobe Illustrator 16.0.0, SVG Export Plug-In . SVG Version: 6.00 Build 0)  -->
<!DOCTYPE svg PUBLIC "-//W3C//DTD SVG 1.1//EN" "http://www.w3.org/Graphics/SVG/1.1/DTD/svg11.dtd">
<svg version="1.1" id="Layer_1" xmlns="http://www.w3.org/2000/svg" xmlns:xlink="http://www.w3.org/1999/xlink" x="0px" y="0px"
	 width="127.253px" height="80.86px" viewBox="0 0 127.253 80.86" enable-background="new 0 0 127.253 80.86" xml:space="preserve">
<g>
	<path fill-rule="evenodd" clip-rule="evenodd" fill="#363837" d="M31.56,72.485c9.578,5.49,20.633,8.389,31.655,8.375
		c11.021,0.019,22.081-2.872,31.66-8.371l-4.152-7.275c-8.324,4.776-17.902,7.283-27.506,7.271
		c-9.604,0.008-19.18-2.503-27.508-7.274L31.56,72.485z"/>
	<path fill-rule="evenodd" clip-rule="evenodd" fill="#363837" d="M91.914,65.995l-0.982-1.678
		c-1.607,0.333-3.206,0.589-4.797,0.767c2.682-1.279,5.253-2.786,7.685-4.491c0.231,1.542,0.411,3.107,0.533,4.689
		c1.392,0.764,2.817,1.485,4.283,2.164c-1.384,0.969-2.806,1.885-4.263,2.74L91.914,65.995L91.914,65.995z M34.515,65.988
		L34.515,65.988l0.982-1.675c1.606,0.33,3.206,0.584,4.793,0.758c-2.68-1.278-5.252-2.779-7.686-4.483
		c-0.228,1.542-0.406,3.11-0.526,4.689c-1.392,0.766-2.816,1.489-4.28,2.17c1.383,0.967,2.807,1.881,4.265,2.734L34.515,65.988z"/>
	<path fill-rule="evenodd" clip-rule="evenodd" fill="#FFFFFF" d="M35.24,69.844c2.481,1.311,5.052,2.448,7.692,3.399l0.07-0.197
		c-2.631-0.948-5.192-2.081-7.664-3.386L35.24,69.844L35.24,69.844z M83.501,73.25L83.501,73.25c2.636-0.95,5.207-2.084,7.684-3.397
		l-0.097-0.185c-2.469,1.308-5.029,2.44-7.656,3.386L83.501,73.25z"/>
	<path fill="#FFFFFF" d="M45.085,75.813l-0.052,0.17l-0.304-0.096l-0.312-0.097l-0.296-0.096l0.056-0.165l0.29-0.065l0.522-1.635
		l0.526-1.644l-0.167-0.212l0.053-0.159l0.18,0.06l0.148,0.046l0.151,0.044l0.171,0.056c0.079,0.025,0.132,0.048,0.177,0.071
		c0.038,0.019,0.062,0.054,0.076,0.094c0.014,0.041,0.02,0.104,0.017,0.172l0.032,1.915l-0.062,1.169l0.008,0.002l0.09-0.305
		l0.079-0.335l0.082-0.316l0.521-1.812l-0.163-0.204l0.051-0.178l0.808,0.233l-0.049,0.175l-0.248,0.089l-0.506,1.805l-0.51,1.808
		l-0.509-0.149c-0.067-0.019-0.121-0.053-0.155-0.098c-0.022-0.048-0.044-0.1-0.044-0.161c-0.011-1.135-0.002-2.276,0.023-3.408
		l-0.016-0.004l-0.109,0.582l-0.38,1.214l-0.38,1.216L45.085,75.813L45.085,75.813z M49.821,77.248l0.197-0.893l-0.255-0.057
		l-0.329,0.501l-0.504-0.117l-0.503-0.123l0.008-0.032c0.054,0.004,0.094-0.013,0.117-0.041c0.023-0.021,0.043-0.059,0.054-0.1
		l0.151-0.626l0.154-0.627l0.548,0.134l0.082,0.334l0.175,0.041l0.072-0.31l0.077-0.334l0.071-0.319l-0.172-0.042l-0.224,0.285
		l-0.546-0.131l0.183-0.749l0.185-0.746l0.757,0.177l0.033,0.603l0.278,0.061l0.2-0.897l-0.667-0.153l-0.648-0.16l-0.663-0.166
		l-0.039,0.147l0.172,0.197l-0.429,1.671l-0.426,1.665l-0.308,0.102l-0.042,0.164l1.122,0.279L49.821,77.248L49.821,77.248
		L49.821,77.248z M52.027,76.781L52.027,76.781l1.133-2.927l0.375,0.064l0.057,3.101l0.011,0.001l0.467-1.378l0.458-1.387
		l-0.197-0.131l0.027-0.183l0.791,0.116l-0.025,0.183l-0.22,0.079c-0.398,1.228-0.812,2.452-1.24,3.676l-0.647-0.105L52.94,75.5
		l-0.916,2.216l-0.607-0.112c0.021-1.285,0.055-2.572,0.104-3.858l-0.194-0.17l0.038-0.18l1.052,0.209l-0.034,0.183l-0.258,0.069
		l-0.106,2.921L52.027,76.781L52.027,76.781z M57.206,76.616L57.206,76.616l-0.628-2.132l-0.149-0.073l0.021-0.177l0.516,0.056
		c0.065,0.009,0.114,0.021,0.152,0.043c0.04,0.02,0.063,0.05,0.082,0.083c0.021,0.036,0.043,0.089,0.054,0.148l0.418,1.497
		l0.682-1.362l-0.205-0.127l0.015-0.165l0.823,0.065l-0.013,0.165l-0.223,0.097l-0.914,1.864l-0.134,1.492l0.255,0.201l-0.016,0.19
		l-0.386-0.034l-0.413-0.038l-0.378-0.039l0.02-0.191l0.279-0.148L57.206,76.616L57.206,76.616z M61.91,77.664L61.91,77.664
		c-0.004,0.225-0.062,0.415-0.17,0.573c-0.1,0.156-0.244,0.278-0.433,0.364c-0.187,0.085-0.4,0.124-0.655,0.113
		c-0.248-0.012-0.467-0.066-0.646-0.165c-0.181-0.102-0.314-0.234-0.4-0.399c-0.088-0.171-0.128-0.368-0.113-0.584l0.121-2.024
		c0.015-0.217,0.076-0.404,0.176-0.56c0.102-0.161,0.241-0.281,0.418-0.364c0.179-0.077,0.387-0.115,0.617-0.105
		c0.237,0.011,0.436,0.064,0.604,0.155c0.172,0.096,0.299,0.228,0.387,0.397c0.098,0.161,0.144,0.355,0.137,0.572L61.91,77.664
		L61.91,77.664z M60.116,77.598L60.116,77.598c-0.013,0.233,0.022,0.403,0.112,0.524c0.091,0.129,0.237,0.197,0.438,0.205
		c0.106,0.006,0.192-0.017,0.265-0.049c0.081-0.029,0.146-0.079,0.197-0.144c0.048-0.066,0.086-0.14,0.113-0.222
		c0.029-0.083,0.04-0.168,0.045-0.268l0.063-2.025c0.004-0.127-0.011-0.244-0.049-0.354c-0.038-0.101-0.102-0.186-0.184-0.256
		c-0.08-0.062-0.187-0.096-0.312-0.104c-0.188-0.009-0.333,0.042-0.43,0.156c-0.098,0.112-0.146,0.285-0.159,0.511L60.116,77.598
		L60.116,77.598z M63.785,74.976L63.785,74.976l0.005,0.452l0.004,0.401l0.004,0.412l0.002,0.452l0.387-0.004
		c0.127,0,0.237-0.025,0.313-0.078c0.084-0.045,0.142-0.115,0.174-0.208c0.04-0.085,0.055-0.194,0.051-0.321l-0.014-0.526
		c-0.001-0.124-0.021-0.235-0.057-0.317c-0.035-0.092-0.095-0.156-0.171-0.196c-0.083-0.046-0.186-0.071-0.316-0.07L63.785,74.976
		L63.785,74.976z M64.404,77.416L64.404,77.416c-0.044-0.1-0.089-0.185-0.134-0.242c-0.044-0.049-0.105-0.092-0.173-0.117
		c-0.08-0.023-0.164-0.03-0.285-0.03l0.002,0.31l0.004,0.352l0.004,0.358l0.003,0.312l0.274,0.173l0.004,0.168l-0.391,0.001
		l-0.397,0.004l-0.376-0.002v-0.167l0.263-0.174l0.002-1.708v-1.717l-0.215-0.153v-0.167l1.172-0.007
		c0.156,0,0.296,0.013,0.438,0.041c0.131,0.032,0.256,0.076,0.358,0.151c0.101,0.072,0.187,0.161,0.251,0.286
		c0.061,0.123,0.099,0.266,0.104,0.447l0.021,0.529c0.006,0.167-0.024,0.309-0.07,0.428c-0.055,0.127-0.13,0.222-0.229,0.292
		c-0.102,0.079-0.212,0.132-0.348,0.161c0.062,0.024,0.112,0.056,0.156,0.096c0.037,0.034,0.072,0.074,0.099,0.124
		c0.035,0.04,0.056,0.09,0.082,0.156l0.311,0.736c0.011,0.042,0.029,0.083,0.057,0.125c0.02,0.049,0.046,0.081,0.083,0.123
		c0.026,0.032,0.063,0.055,0.099,0.081c0.045,0.014,0.09,0.023,0.133,0.004l0.011,0.235c-0.037,0.017-0.089,0.034-0.142,0.044
		l-0.156,0.032l-0.142,0.01c-0.099-0.004-0.179-0.01-0.24-0.042c-0.053-0.023-0.104-0.062-0.145-0.121
		c-0.036-0.049-0.063-0.108-0.093-0.173l-0.083-0.224L64.404,77.416L64.404,77.416z M68.818,74.588L68.818,74.588
		c-0.068,0.006-0.115,0.017-0.156,0.046c-0.037,0.019-0.069,0.058-0.091,0.102c-0.019,0.042-0.04,0.095-0.059,0.154l-0.05,0.207
		l-0.052,0.264l-0.065,0.301l-0.08,0.276c-0.026,0.087-0.062,0.165-0.092,0.218c-0.037,0.064-0.077,0.101-0.126,0.121v0.018
		c0.079,0.001,0.148,0.021,0.218,0.057c0.063,0.036,0.119,0.089,0.169,0.161c0.048,0.062,0.099,0.142,0.14,0.223l0.103,0.268
		l0.259,0.827c0.022,0.066,0.055,0.12,0.086,0.176c0.041,0.057,0.089,0.095,0.134,0.126c0.058,0.027,0.11,0.031,0.17,0.008
		l0.023,0.233c-0.034,0.022-0.077,0.042-0.128,0.054c-0.051,0.023-0.095,0.025-0.148,0.04l-0.121,0.019
		c-0.133,0.002-0.241-0.013-0.324-0.048c-0.082-0.042-0.149-0.104-0.201-0.191c-0.051-0.08-0.094-0.175-0.121-0.283l-0.246-0.786
		c-0.027-0.124-0.07-0.232-0.129-0.327c-0.05-0.089-0.117-0.169-0.197-0.223c-0.08-0.044-0.186-0.069-0.306-0.061l-0.179,0.011
		l0.056,0.828l0.055,0.819l0.285,0.157l0.01,0.167l-0.377,0.026L66.871,78.6l-0.38,0.019l-0.008-0.167l0.254-0.189l-0.098-1.705
		l-0.095-1.705l-0.223-0.14l-0.012-0.167l1.015-0.062l0.011,0.166l-0.204,0.166l0.096,1.438c0.102-0.007,0.192-0.039,0.256-0.093
		c0.074-0.047,0.13-0.119,0.166-0.204c0.044-0.081,0.078-0.174,0.097-0.276c0.026-0.104,0.052-0.214,0.068-0.324l0.065-0.325
		c0.026-0.103,0.06-0.2,0.103-0.286c0.042-0.096,0.104-0.17,0.174-0.225c0.053-0.047,0.116-0.087,0.189-0.102
		c0.072-0.024,0.146-0.036,0.229-0.045c0.074,0.001,0.146-0.004,0.221-0.013L68.818,74.588L68.818,74.588z M73.301,74.897
		L73.301,74.897L72.697,75l-0.017-0.108c-0.014-0.125-0.05-0.237-0.099-0.331c-0.04-0.096-0.109-0.159-0.193-0.214
		c-0.084-0.046-0.194-0.063-0.334-0.042c-0.089,0.013-0.171,0.042-0.244,0.104c-0.068,0.051-0.124,0.136-0.159,0.244
		c-0.026,0.112-0.03,0.25-0.006,0.416l0.024,0.173l0.041,0.291l0.051,0.347l0.055,0.383l0.049,0.347l0.043,0.291l0.025,0.173
		c0.032,0.232,0.103,0.408,0.211,0.501c0.113,0.102,0.26,0.131,0.441,0.104c0.149-0.021,0.259-0.062,0.339-0.125
		c0.067-0.072,0.115-0.148,0.136-0.255c0.019-0.104,0.017-0.222-0.005-0.354l-0.034-0.217l0.613-0.102l0.037,0.215
		c0.033,0.18,0.024,0.334-0.006,0.478c-0.038,0.139-0.108,0.254-0.197,0.355c-0.097,0.108-0.21,0.187-0.352,0.253
		c-0.134,0.068-0.289,0.106-0.463,0.131c-0.173,0.025-0.337,0.025-0.481,0.004c-0.154-0.019-0.295-0.065-0.411-0.133
		c-0.125-0.077-0.221-0.183-0.299-0.308c-0.078-0.125-0.134-0.278-0.156-0.46l-0.024-0.176l-0.04-0.291l-0.044-0.347l-0.052-0.382
		l-0.047-0.35l-0.037-0.289l-0.024-0.176c-0.029-0.225-0.007-0.428,0.054-0.597c0.069-0.169,0.176-0.31,0.328-0.418
		c0.151-0.107,0.34-0.179,0.561-0.211c0.08-0.01,0.164-0.014,0.248-0.01c0.083-0.004,0.16,0.009,0.24,0.038
		c0.078,0.019,0.151,0.06,0.221,0.115l0.016-0.002l0.011-0.231l0.39-0.065L73.301,74.897L73.301,74.897z M74.873,73.768
		L74.873,73.768l0.343,1.684l0.343,1.673l0.301,0.117l0.034,0.164l-0.372,0.079l-0.397,0.078l-0.374,0.07l-0.029-0.165l0.233-0.223
		l-0.325-1.677l-0.324-1.686l-0.24-0.108l-0.031-0.165c0.333-0.061,0.663-0.126,0.994-0.197l0.035,0.164L74.873,73.768
		L74.873,73.768z M77.342,73.259l0.402-0.1l0.363,0.599l0.268-0.073l-0.282-0.998c-0.753,0.201-1.509,0.383-2.268,0.553l0.202,1.021
		l0.269-0.062l0.03-0.695l0.428-0.097l0.776,3.25l-0.222,0.24l0.042,0.188l0.371-0.087l0.402-0.102l0.376-0.093l-0.047-0.188
		l-0.301-0.115L77.342,73.259L77.342,73.259L77.342,73.259z M80.209,74.476L80.209,74.476c-0.471-0.577-0.931-1.152-1.383-1.737
		l-0.167-0.015l-0.047-0.169l0.499-0.141c0.063-0.019,0.113-0.025,0.156-0.019c0.044,0.004,0.076,0.019,0.11,0.046
		c0.031,0.024,0.069,0.066,0.102,0.117l0.952,1.232l0.121-1.521l-0.237-0.04l-0.051-0.159l0.787-0.249l0.051,0.161l-0.17,0.168
		l-0.146,2.072l0.438,1.434l0.312,0.086l0.057,0.186l-0.371,0.114l-0.396,0.119l-0.364,0.108l-0.056-0.187l0.204-0.242
		L80.209,74.476z"/>
	<path fill-rule="evenodd" clip-rule="evenodd" fill="#8C8C8C" d="M17.932,26.404c-0.106,0.059-0.222,0.108-0.337,0.142
		c-0.503,0.144-1.071,0.066-1.523-0.193c-0.514-0.29-0.88-0.811-0.91-1.408c-0.034-0.649,0.249-1.288,0.724-1.725
		c0.514-0.471,1.238-0.779,1.934-0.827c1.536-0.112,3.396,0.585,4.883,0.983c1.256,0.337,2.522,0.637,3.821,0.732
		c1.316,0.098,2.663-0.011,3.912-0.454l0.212-0.074l0.083,0.104c0.733,0.933,1.719,1.621,2.777,2.135
		c1.19,0.58,2.469,0.948,3.784,1.095c2.638,0.296,5.37-0.475,7.457-2.119c1.041-0.818,1.911-1.894,2.462-3.1
		c0.554-1.211,0.868-2.521,0.897-3.852c0.021-0.929-0.11-1.867-0.433-2.741c-0.315-0.863-0.844-1.661-1.537-2.267
		c-1.324-1.162-3.18-1.697-4.918-1.392c-1.63,0.288-3.065,1.48-3.634,3.037c-0.266,0.722-0.355,1.506-0.257,2.27
		c0.095,0.726,0.404,1.425,0.881,1.984c0.86,1.007,2.272,1.522,3.577,1.247c1.101-0.231,2.029-1.126,2.274-2.229
		c0.048-0.222,0.069-0.46,0.06-0.697c-0.008,0.233-0.043,0.464-0.107,0.687c-0.297,1.031-1.206,1.847-2.268,2.02
		c-1.206,0.193-2.48-0.323-3.247-1.267c-0.857-1.061-0.935-2.595-0.449-3.832c0.539-1.368,1.819-2.404,3.273-2.635
		c1.556-0.248,3.207,0.25,4.385,1.294c1.261,1.116,1.774,2.87,1.729,4.509c-0.066,2.46-1.142,4.916-3.107,6.443
		c-1.944,1.515-4.511,2.255-6.965,1.977c-1.23-0.14-2.449-0.49-3.565-1.031c-0.876-0.426-1.722-0.994-2.366-1.732l-0.155-0.176
		l0.207-0.109c0.862-0.451,1.628-1.062,2.188-1.861c0.412-0.585,0.681-1.251,0.679-1.977c-0.004-2.591-3.41-3.063-4.454-0.043
		c-0.229,0.662-0.265,1.353-0.176,2.045c0.065,0.503,0.22,0.995,0.45,1.449l0.097,0.193l-0.205,0.068
		c-1.122,0.359-2.321,0.452-3.491,0.367c-1.254-0.093-2.486-0.381-3.694-0.71c-0.849-0.23-1.691-0.485-2.548-0.681
		c-0.846-0.193-1.703-0.348-2.573-0.248c-0.846,0.096-1.626,0.462-2.227,1.065c-0.543,0.545-0.839,1.355-0.742,2.12
		c0.084,0.677,0.559,1.292,1.179,1.566c0.516,0.225,1.127,0.261,1.648,0.036C17.729,26.539,17.834,26.478,17.932,26.404
		L17.932,26.404z M108.502,26.404c0.106,0.059,0.22,0.108,0.339,0.142c0.501,0.144,1.071,0.066,1.523-0.193
		c0.511-0.29,0.877-0.811,0.907-1.408c0.034-0.649-0.248-1.288-0.723-1.725c-0.513-0.471-1.239-0.779-1.935-0.827
		c-1.535-0.112-3.396,0.585-4.882,0.983c-1.256,0.337-2.521,0.637-3.822,0.732c-1.314,0.098-2.662-0.011-3.91-0.454l-0.212-0.074
		l-0.084,0.104c-0.731,0.933-1.72,1.621-2.778,2.135c-1.189,0.58-2.469,0.948-3.784,1.095c-2.638,0.296-5.369-0.475-7.456-2.119
		c-1.042-0.818-1.911-1.894-2.463-3.1c-0.553-1.211-0.867-2.521-0.897-3.852c-0.019-0.929,0.111-1.867,0.434-2.741
		c0.316-0.863,0.844-1.661,1.537-2.267c1.326-1.162,3.179-1.697,4.919-1.392c1.629,0.288,3.064,1.48,3.633,3.037
		c0.266,0.722,0.356,1.506,0.257,2.27c-0.096,0.726-0.405,1.425-0.88,1.984c-0.861,1.007-2.273,1.522-3.578,1.247
		c-1.102-0.231-2.03-1.126-2.274-2.229c-0.048-0.222-0.07-0.46-0.062-0.697c0.009,0.233,0.045,0.464,0.108,0.687
		c0.297,1.031,1.208,1.847,2.27,2.02c1.207,0.193,2.479-0.323,3.245-1.267c0.859-1.061,0.936-2.595,0.45-3.832
		c-0.54-1.368-1.82-2.404-3.271-2.635c-1.558-0.248-3.208,0.25-4.387,1.294c-1.261,1.116-1.774,2.87-1.729,4.509
		c0.065,2.46,1.144,4.916,3.106,6.443c1.947,1.515,4.514,2.255,6.966,1.977c1.229-0.14,2.451-0.49,3.565-1.031
		c0.875-0.426,1.722-0.994,2.366-1.732l0.155-0.176l-0.209-0.109c-0.86-0.451-1.626-1.062-2.186-1.861
		c-0.412-0.585-0.681-1.251-0.679-1.977c0.004-2.591,3.41-3.063,4.453-0.043c0.23,0.662,0.266,1.353,0.177,2.045
		c-0.065,0.503-0.222,0.995-0.449,1.449l-0.099,0.193l0.207,0.068c1.121,0.359,2.319,0.452,3.49,0.367
		c1.253-0.093,2.485-0.381,3.694-0.71c0.849-0.23,1.69-0.485,2.548-0.681c0.846-0.193,1.702-0.348,2.572-0.248
		c0.847,0.096,1.627,0.462,2.227,1.065c0.544,0.545,0.84,1.355,0.743,2.12c-0.086,0.677-0.559,1.292-1.18,1.566
		c-0.516,0.225-1.126,0.261-1.648,0.036C108.706,26.539,108.6,26.478,108.502,26.404L108.502,26.404z M92.752,19.373
		c-0.004,0.56,0.24,1.135,0.558,1.587c0.52,0.74,1.269,1.312,2.07,1.713l0.162,0.082l0.084-0.16c0.501-0.935,0.62-2.066,0.269-3.073
		C95.132,17.33,92.765,17.47,92.752,19.373L92.752,19.373z M33.683,19.373c0.002,0.56-0.241,1.135-0.559,1.587
		c-0.52,0.74-1.267,1.312-2.07,1.713l-0.162,0.082l-0.084-0.16c-0.501-0.935-0.619-2.066-0.269-3.073
		C31.302,17.33,33.668,17.47,33.683,19.373z"/>
	<path fill-rule="evenodd" clip-rule="evenodd" fill="#8C8C8C" d="M3.279,55.894h119.873v0.436H3.279V55.894L3.279,55.894z
		 M3.279,29.014h119.873v0.435H3.279V29.014z"/>
	<path fill-rule="evenodd" clip-rule="evenodd" fill="#8C8C8C" d="M107.55,60.104c-1.082,0.465-2.018,1.117-2.968,1.719
		c-0.944,0.606-1.893,1.198-2.913,1.58c-0.51,0.188-1.035,0.32-1.56,0.341c-0.52,0.023-1.054-0.079-1.488-0.31
		c-0.429-0.234-0.743-0.653-0.848-1.128c-0.111-0.474-0.005-1,0.256-1.403c0.366-0.564,1.1-0.781,1.675-0.593
		c0.568,0.153,0.915,0.772,0.87,1.254c-0.03,0.494-0.534,0.78-0.918,0.782c-0.195,0.003-0.374-0.059-0.494-0.162
		c-0.062-0.051-0.111-0.105-0.152-0.165c-0.01-0.013-0.026-0.018-0.039-0.01c-0.015,0.008-0.021,0.025-0.017,0.04
		c0.027,0.07,0.065,0.145,0.123,0.218c0.113,0.151,0.318,0.272,0.563,0.303c0.243,0.034,0.521-0.015,0.78-0.159
		c0.264-0.144,0.496-0.438,0.554-0.791c0.062-0.348-0.017-0.721-0.201-1.049c-0.179-0.327-0.509-0.63-0.906-0.755
		c-0.383-0.138-0.831-0.15-1.249-0.019c-0.417,0.132-0.803,0.409-1.058,0.793c-0.35,0.542-0.479,1.208-0.335,1.838
		c0.138,0.627,0.555,1.192,1.121,1.5c0.562,0.296,1.18,0.4,1.784,0.378c0.604-0.024,1.186-0.175,1.733-0.376
		c2.192-0.83,3.903-2.428,5.901-3.307c0.689-0.281,1.428-0.451,2.047-0.347c0.31,0.052,0.581,0.178,0.773,0.373
		c0.195,0.196,0.308,0.444,0.311,0.683c0.004,0.237-0.104,0.473-0.253,0.635c-0.149,0.165-0.352,0.267-0.544,0.31
		c-0.298,0.068-0.561,0-0.754-0.105c-0.015-0.006-0.031-0.001-0.041,0.012c-0.008,0.012-0.008,0.029,0.005,0.04
		c0.172,0.159,0.451,0.304,0.818,0.278c0.24-0.015,0.51-0.104,0.739-0.301c0.224-0.194,0.404-0.49,0.432-0.851
		c0.03-0.358-0.111-0.736-0.365-1.022c-0.256-0.29-0.633-0.483-1.02-0.562C109.122,59.608,108.313,59.797,107.55,60.104
		L107.55,60.104z M18.885,60.104c1.08,0.465,2.014,1.117,2.966,1.719c0.943,0.606,1.894,1.198,2.915,1.58
		c0.508,0.188,1.034,0.32,1.558,0.341c0.52,0.023,1.056-0.079,1.489-0.31c0.429-0.234,0.743-0.653,0.846-1.128
		c0.113-0.474,0.008-1-0.254-1.403c-0.367-0.564-1.102-0.781-1.676-0.593c-0.567,0.153-0.914,0.772-0.869,1.254
		c0.029,0.494,0.534,0.78,0.918,0.782c0.195,0.003,0.373-0.059,0.495-0.162c0.062-0.051,0.109-0.105,0.151-0.165
		c0.009-0.013,0.026-0.018,0.039-0.01c0.015,0.008,0.021,0.025,0.017,0.04c-0.027,0.07-0.065,0.145-0.123,0.218
		c-0.117,0.151-0.318,0.272-0.564,0.303c-0.243,0.034-0.521-0.015-0.78-0.159c-0.263-0.144-0.496-0.438-0.553-0.791
		c-0.062-0.348,0.017-0.721,0.201-1.049c0.178-0.327,0.509-0.63,0.905-0.755c0.384-0.138,0.832-0.15,1.249-0.019
		c0.418,0.132,0.805,0.409,1.059,0.793c0.35,0.542,0.479,1.208,0.335,1.838c-0.138,0.627-0.556,1.192-1.121,1.5
		c-0.562,0.296-1.181,0.4-1.784,0.378c-0.604-0.024-1.187-0.175-1.732-0.376c-2.193-0.83-3.905-2.428-5.903-3.307
		c-0.688-0.281-1.427-0.451-2.046-0.347c-0.311,0.052-0.581,0.178-0.773,0.373c-0.195,0.196-0.309,0.444-0.311,0.683
		c-0.004,0.237,0.104,0.473,0.252,0.635c0.15,0.165,0.352,0.267,0.545,0.31c0.298,0.068,0.561,0,0.754-0.105
		c0.014-0.006,0.03-0.001,0.039,0.012c0.01,0.012,0.01,0.029-0.004,0.04c-0.171,0.159-0.452,0.304-0.817,0.278
		c-0.24-0.015-0.51-0.104-0.739-0.301c-0.225-0.194-0.405-0.49-0.433-0.851c-0.029-0.358,0.112-0.736,0.367-1.022
		c0.254-0.29,0.632-0.483,1.018-0.562C17.312,59.608,18.12,59.797,18.885,60.104z"/>
	<path fill="#363837" d="M5.191,35.209c0.564,0,1.014,0.097,1.347,0.296c0.335,0.198,0.573,0.482,0.717,0.853
		c0.145,0.371,0.214,0.823,0.21,1.355v2.258c0.004,0.531-0.072,0.981-0.225,1.355c-0.156,0.372-0.4,0.656-0.743,0.853
		c-0.337,0.197-0.777,0.296-1.331,0.296H3.584c0-0.672,0-1.302,0-1.896c0-0.591,0-1.172,0-1.739c0-0.568,0-1.145,0-1.737
		c0-0.594,0-1.224,0-1.896H5.191L5.191,35.209z M7.22,48.758c0.117,0.329,0.23,0.638,0.332,0.932
		c0.104,0.292,0.227,0.546,0.367,0.77c0.145,0.223,0.335,0.401,0.567,0.528c0.236,0.127,0.55,0.188,0.933,0.193
		c0.187,0,0.383-0.006,0.602-0.028c0.214-0.021,0.429-0.052,0.634-0.099c0.21-0.049,0.401-0.11,0.569-0.193v-0.965
		c-0.197,0.042-0.374,0.021-0.53-0.062c-0.158-0.078-0.293-0.197-0.412-0.354c-0.125-0.152-0.227-0.326-0.313-0.511
		c-0.091-0.18-0.166-0.362-0.227-0.532l-1.163-3.188c-0.087-0.256-0.188-0.479-0.301-0.677c-0.115-0.196-0.25-0.371-0.42-0.528
		c-0.166-0.155-0.367-0.297-0.613-0.429c0.539-0.105,1.021-0.311,1.438-0.612c0.42-0.301,0.748-0.704,0.988-1.207
		c0.239-0.506,0.361-1.114,0.366-1.823v-2.258c-0.005-0.753-0.132-1.389-0.384-1.906c-0.245-0.52-0.594-0.934-1.037-1.245
		c-0.441-0.314-0.957-0.541-1.542-0.681c-0.581-0.14-1.21-0.21-1.883-0.206H0.173v0.716l0.914,0.643c0,2.412,0,4.838,0,7.273
		c0,2.441,0,4.863,0,7.266L0,50.314v0.716c0.48,0,0.996,0,1.536,0s1.085,0,1.624,0c0.544,0,1.055,0,1.537,0v-0.716l-1.088-0.741
		c0-0.4,0-0.846,0-1.335c0-0.485,0-0.988,0-1.504c0-0.52,0-1.019,0-1.504c0-0.485,0-0.922,0-1.319
		c0.478-0.004,0.865,0.042,1.162,0.141c0.293,0.095,0.53,0.269,0.717,0.511c0.188,0.248,0.362,0.589,0.52,1.03L7.22,48.758
		L7.22,48.758z M22.003,51.031v-3.88h-1.088l-0.84,2.373c-0.706,0-1.406,0-2.102,0s-1.397,0-2.102,0V49.4
		c0.205-0.069,0.346-0.169,0.416-0.288c0.074-0.123,0.108-0.281,0.104-0.478c0-0.916,0-1.826,0-2.731c0-0.907,0-1.818,0-2.734h2.374
		l0.642,1.311h0.742c0-0.411,0-0.861,0-1.35c0-0.495,0-0.985,0-1.477c0-0.494,0-0.941,0-1.355h-0.742l-0.642,1.364h-2.374
		c0-1.092,0-2.182,0-3.27c0-1.093,0-2.177,0-3.256h3.362l0.693,2.431h1.233v-3.89c-1,0-1.985,0-2.95,0c-0.967,0-1.932,0-2.899,0
		c-0.965,0-1.948,0-2.952,0v0.643l0.94,0.642c0,2.432,0,4.867,0,7.302c0,2.439,0,4.875,0,7.311l-1.111,0.741v0.716
		c1.557,0,3.111,0,4.654,0C18.913,51.031,20.457,51.031,22.003,51.031L22.003,51.031z M31.793,35.232l0.842,2.844h1.187l-0.098-4.4
		H23.66l-0.1,4.4h1.188l0.791-2.844h1.854c0,4.732,0,9.458,0,14.189l-1.088,0.77v0.839c0.479,0,0.994,0,1.546,0s1.109,0,1.666,0
		c0.555,0,1.074,0,1.561,0v-0.839l-1.089-0.77c0-4.731,0-9.458,0-14.189H31.793L31.793,35.232z M40.646,35.209
		c0.563,0,1.013,0.097,1.346,0.296c0.334,0.198,0.573,0.482,0.718,0.853s0.214,0.823,0.21,1.355v2.258
		c0.004,0.531-0.074,0.981-0.228,1.355c-0.156,0.372-0.398,0.656-0.741,0.853c-0.337,0.197-0.778,0.296-1.331,0.296h-1.581
		c0-0.672,0-1.302,0-1.896c0-0.591,0-1.172,0-1.739c0-0.568,0-1.145,0-1.737c0-0.594,0-1.224,0-1.896H40.646L40.646,35.209z
		 M42.672,48.758c0.12,0.329,0.231,0.638,0.334,0.932c0.103,0.292,0.228,0.546,0.368,0.77c0.144,0.223,0.332,0.401,0.567,0.528
		c0.235,0.127,0.548,0.188,0.932,0.193c0.185,0,0.384-0.006,0.602-0.028c0.215-0.021,0.43-0.052,0.635-0.099
		c0.21-0.049,0.399-0.11,0.568-0.193v-0.965c-0.197,0.042-0.376,0.021-0.532-0.062c-0.157-0.078-0.293-0.197-0.411-0.354
		c-0.123-0.152-0.227-0.326-0.313-0.511c-0.09-0.18-0.164-0.362-0.228-0.532l-1.16-3.188c-0.087-0.256-0.191-0.479-0.302-0.677
		c-0.115-0.196-0.251-0.371-0.42-0.528c-0.165-0.155-0.367-0.297-0.614-0.429c0.541-0.105,1.021-0.311,1.438-0.612
		c0.419-0.301,0.75-0.704,0.987-1.207c0.24-0.506,0.363-1.114,0.368-1.823v-2.258c-0.005-0.753-0.132-1.389-0.383-1.906
		c-0.248-0.52-0.594-0.934-1.039-1.245c-0.441-0.314-0.956-0.541-1.542-0.681c-0.581-0.14-1.211-0.21-1.881-0.206h-5.021v0.716
		l0.914,0.643c0,2.412,0,4.838,0,7.273c0,2.441,0,4.863,0,7.266l-1.086,0.741v0.716c0.481,0,0.996,0,1.536,0s1.084,0,1.624,0
		c0.543,0,1.054,0,1.536,0v-0.716l-1.088-0.741c0-0.4,0-0.846,0-1.335c0-0.485,0-0.988,0-1.504c0-0.52,0-1.019,0-1.504
		c0-0.485,0-0.922,0-1.319c0.479-0.004,0.866,0.042,1.161,0.141c0.294,0.095,0.533,0.269,0.717,0.511
		c0.191,0.248,0.363,0.589,0.52,1.03L42.672,48.758L42.672,48.758z M58.447,38.051c-0.005-0.936-0.21-1.75-0.616-2.439
		c-0.402-0.691-0.971-1.228-1.713-1.607c-0.742-0.377-1.622-0.573-2.641-0.577c-1.01,0.004-1.884,0.204-2.622,0.582
		c-0.737,0.383-1.31,0.925-1.709,1.612c-0.405,0.693-0.61,1.5-0.615,2.43v8.604c0.005,0.927,0.21,1.739,0.615,2.431
		c0.399,0.689,0.972,1.224,1.709,1.607c0.738,0.384,1.612,0.581,2.622,0.585c1.019-0.004,1.898-0.197,2.641-0.577
		c0.742-0.379,1.311-0.914,1.713-1.608c0.406-0.687,0.611-1.503,0.616-2.438V38.051L58.447,38.051z M51.104,38.051
		c-0.004-0.979,0.188-1.718,0.573-2.216c0.386-0.499,0.987-0.75,1.8-0.75c0.552,0.003,1.005,0.141,1.364,0.404
		c0.357,0.267,0.626,0.621,0.799,1.066c0.172,0.446,0.259,0.944,0.259,1.495v8.604c0,0.405-0.048,0.788-0.145,1.141
		c-0.099,0.358-0.246,0.672-0.445,0.944c-0.197,0.276-0.451,0.49-0.753,0.643c-0.305,0.156-0.668,0.235-1.079,0.24
		c-0.812-0.004-1.414-0.255-1.8-0.758c-0.385-0.506-0.577-1.24-0.573-2.21V38.051L51.104,38.051z M61.215,33.676v0.716l0.938,0.743
		v14.438l-1.087,0.741v0.716h5.34c0.726,0,1.394-0.093,2-0.279c0.601-0.185,1.128-0.47,1.57-0.845c0.444-0.38,0.786-0.852,1.03-1.42
		c0.241-0.573,0.367-1.241,0.372-2.007v-8.325c-0.01-1.075-0.216-1.945-0.633-2.604c-0.412-0.659-0.989-1.137-1.73-1.434
		c-0.741-0.301-1.61-0.445-2.609-0.441H61.215L61.215,33.676z M66.406,35.184c0.607,0.013,1.084,0.153,1.437,0.416
		c0.354,0.27,0.6,0.619,0.748,1.064c0.149,0.446,0.219,0.94,0.215,1.491v8.325c0.004,0.555-0.065,1.058-0.215,1.508
		c-0.148,0.445-0.395,0.804-0.748,1.067c-0.353,0.267-0.829,0.406-1.437,0.419h-2.174l-0.025-0.148
		c0.205-0.061,0.351-0.153,0.429-0.271c0.082-0.124,0.118-0.29,0.115-0.495V35.184H66.406L66.406,35.184z M83.294,51.031v-3.88
		h-1.089l-0.84,2.373c-0.704,0-1.404,0-2.102,0c-0.696,0-1.396,0-2.103,0V49.4c0.209-0.069,0.349-0.169,0.418-0.288
		c0.074-0.123,0.106-0.281,0.102-0.478c0-0.916,0-1.826,0-2.731c0-0.907,0-1.818,0-2.734h2.373l0.644,1.311h0.742
		c0-0.411,0-0.861,0-1.35c0-0.495,0-0.985,0-1.477c0-0.494,0-0.941,0-1.355h-0.742l-0.644,1.364h-2.373c0-1.092,0-2.182,0-3.27
		c0-1.093,0-2.177,0-3.256h3.364l0.69,2.431h1.237v-3.89c-1.001,0-1.986,0-2.95,0c-0.969,0-1.932,0-2.901,0c-0.965,0-1.949,0-2.95,0
		v0.643l0.939,0.642c0,2.432,0,4.867,0,7.302c0,2.439,0,4.875,0,7.311l-1.114,0.741v0.716c1.56,0,3.113,0,4.659,0
		C80.203,51.031,81.75,51.031,83.294,51.031L83.294,51.031z M88.214,47.521v-1.384h-2.793v1.359
		c0.004,0.659,0.122,1.231,0.357,1.711c0.236,0.482,0.556,0.878,0.966,1.186c0.406,0.31,0.875,0.541,1.408,0.689
		c0.531,0.149,1.097,0.223,1.693,0.223c0.592,0,1.165-0.065,1.715-0.205c0.546-0.138,1.041-0.359,1.479-0.656
		c0.437-0.301,0.782-0.692,1.039-1.175c0.254-0.477,0.388-1.062,0.39-1.747v-2.125c-0.002-0.647-0.123-1.191-0.35-1.629
		c-0.227-0.437-0.526-0.8-0.897-1.083c-0.375-0.284-0.787-0.526-1.231-0.721c-0.45-0.193-0.896-0.371-1.345-0.531
		c-0.443-0.161-0.857-0.335-1.23-0.523c-0.371-0.191-0.673-0.419-0.899-0.697c-0.227-0.276-0.346-0.626-0.351-1.047v-2.101
		c0-0.599,0.15-1.062,0.441-1.398c0.297-0.333,0.733-0.502,1.315-0.505c0.584,0,1.032,0.164,1.351,0.485
		c0.312,0.325,0.474,0.796,0.478,1.417v1.262h2.547c0-0.781,0-1.558,0-2.333c0-0.779,0-1.551,0-2.316h-1.682l-0.197,0.939h-0.099
		c-0.273-0.301-0.564-0.537-0.875-0.696c-0.308-0.161-0.626-0.273-0.954-0.331c-0.331-0.061-0.659-0.088-0.99-0.087
		c-0.508,0-0.988,0.063-1.453,0.191c-0.467,0.131-0.882,0.333-1.249,0.617c-0.367,0.281-0.66,0.647-0.874,1.101
		c-0.214,0.455-0.327,1.005-0.331,1.653v2.101c0.009,0.613,0.125,1.124,0.348,1.538c0.228,0.417,0.522,0.757,0.895,1.029
		c0.37,0.27,0.78,0.502,1.223,0.694c0.44,0.188,0.887,0.367,1.331,0.534c0.442,0.17,0.849,0.354,1.22,0.562
		c0.372,0.206,0.668,0.456,0.896,0.757c0.226,0.305,0.341,0.686,0.345,1.141v2.103c0,0.416-0.061,0.778-0.194,1.097
		c-0.132,0.313-0.337,0.56-0.613,0.733c-0.28,0.176-0.634,0.268-1.071,0.272c-0.559,0.004-0.991-0.162-1.293-0.495
		C88.37,48.793,88.218,48.259,88.214,47.521L88.214,47.521L88.214,47.521z M100.379,35.035l0.939-0.643v-0.716H96.94v0.716
		l0.94,0.643c0,2.429,0,4.851,0,7.269c0,2.42,0,4.842,0,7.267l-1.112,0.744v0.716c0.481,0,0.997,0,1.541,0s1.088,0,1.633,0
		c0.538,0,1.05,0,1.522,0v-0.716l-1.086-0.744c0-2.424,0-4.847,0-7.267C100.379,39.886,100.379,37.464,100.379,35.035
		L100.379,35.035z M106.683,38.151c0.004-0.721,0.107-1.302,0.309-1.735c0.202-0.437,0.47-0.753,0.809-0.948
		c0.337-0.193,0.717-0.289,1.133-0.284c0.411-0.004,0.791,0.061,1.149,0.193c0.354,0.134,0.638,0.348,0.861,0.644
		c0.218,0.293,0.333,0.68,0.337,1.165v1.311h2.573v-4.82h-1.708l-0.197,0.915h-0.074c-0.25-0.271-0.534-0.482-0.86-0.631
		c-0.325-0.152-0.67-0.259-1.031-0.32c-0.358-0.063-0.717-0.091-1.076-0.086c-0.468,0-0.931,0.057-1.391,0.167
		c-0.462,0.116-0.898,0.289-1.307,0.523c-0.413,0.236-0.776,0.537-1.097,0.899c-0.318,0.362-0.562,0.796-0.746,1.294
		c-0.185,0.499-0.276,1.072-0.28,1.713c0,1.408,0,2.823,0,4.24c0,1.418,0,2.831,0,4.24c0.004,0.771,0.127,1.447,0.371,2.023
		c0.244,0.576,0.59,1.055,1.035,1.435c0.445,0.382,0.967,0.667,1.578,0.857c0.608,0.189,1.277,0.285,2.011,0.285
		c0.384,0,0.762-0.051,1.137-0.153c0.375-0.104,0.721-0.265,1.04-0.479c0.315-0.213,0.58-0.489,0.79-0.827l0.271,1.26h1.607
		c0-2.521,0-5.043,0-7.564h-4.055v0.742l1.459,0.84v1.879c0.005,0.516-0.07,0.973-0.219,1.373c-0.144,0.4-0.388,0.717-0.725,0.948
		c-0.34,0.227-0.791,0.345-1.355,0.349c-0.746,0.004-1.323-0.232-1.731-0.711c-0.408-0.482-0.614-1.232-0.618-2.255
		c0-1.409,0-2.821,0-4.24C106.683,40.974,106.683,39.559,106.683,38.151L106.683,38.151L106.683,38.151z M119.316,49.619
		c0-1.792,0-3.593,0-5.394c0-1.805,0-3.601,0-5.398l-0.298-2.477l0.074-0.025l4.03,13.867c0.074,0.251,0.195,0.453,0.367,0.606
		c0.17,0.152,0.405,0.231,0.695,0.232h2.127c0-2.661,0-5.319,0-7.972c0-2.653,0-5.311,0-7.973l0.94-0.645v-0.765
		c-1.212,0-2.423,0-3.635,0v0.765l0.938,0.645v8.022c0,0.428,0.013,0.882,0.026,1.367c0.017,0.484,0.033,0.97,0.048,1.451
		c0.018,0.485,0.026,0.939,0.026,1.368h-0.049l-1.113-4.852l-2.423-7.727c-0.087-0.31-0.179-0.536-0.284-0.688
		c-0.104-0.148-0.252-0.242-0.444-0.289c-0.197-0.044-0.473-0.066-0.83-0.062c-0.289,0-0.548,0-0.778,0c-0.231,0-0.458,0-0.673,0
		c-0.214,0-0.437,0-0.67,0c-0.24,0-0.503,0-0.795,0v0.716l0.939,0.643c0,2.429,0,4.859,0,7.294c0,2.436,0,4.863,0,7.29l-1.04,0.647
		v0.765c0.407,0,0.83,0,1.271,0c0.439,0,0.875,0,1.316,0s0.861,0,1.271,0v-0.765L119.316,49.619z"/>
	<path fill="#363837" d="M44.899,62.953v-2.229h0.608v0.868h0.809v-0.868h0.607v2.229h-0.607v-0.909h-0.809v0.909H44.899
		L44.899,62.953z M49.331,62.12h0.605l-0.228-0.734c-0.007-0.023-0.017-0.06-0.027-0.108c-0.013-0.051-0.03-0.115-0.05-0.193
		c-0.012,0.054-0.024,0.108-0.038,0.156c-0.013,0.051-0.025,0.099-0.037,0.145L49.331,62.12L49.331,62.12z M48.48,62.953
		l0.768-2.229h0.762l0.771,2.229h-0.603l-0.114-0.399h-0.864l-0.113,0.399H48.48L48.48,62.953z M52.336,62.953v-2.229h0.588
		l0.842,1.147c0.015,0.023,0.043,0.07,0.078,0.14c0.038,0.07,0.08,0.155,0.124,0.253c-0.014-0.094-0.021-0.174-0.027-0.246
		c-0.005-0.073-0.007-0.136-0.007-0.194v-1.101h0.581v2.229h-0.581l-0.842-1.151c-0.018-0.024-0.045-0.07-0.083-0.14
		c-0.036-0.07-0.076-0.153-0.12-0.249c0.013,0.094,0.021,0.175,0.027,0.249c0.004,0.072,0.008,0.134,0.008,0.189v1.102H52.336
		L52.336,62.953z M56.337,62.953v-2.229h0.464c0.347,0,0.592,0.018,0.734,0.048c0.144,0.032,0.271,0.088,0.379,0.164
		c0.141,0.098,0.248,0.225,0.321,0.378c0.073,0.155,0.109,0.331,0.109,0.526c0,0.197-0.036,0.374-0.109,0.526
		c-0.073,0.155-0.181,0.28-0.321,0.379c-0.108,0.075-0.23,0.127-0.369,0.162c-0.137,0.03-0.353,0.047-0.642,0.047h-0.103H56.337
		L56.337,62.953z M56.938,62.455h0.103c0.237,0,0.413-0.049,0.521-0.148c0.11-0.098,0.166-0.253,0.166-0.467
		c0-0.212-0.056-0.369-0.166-0.468c-0.108-0.101-0.284-0.149-0.521-0.149h-0.103V62.455L56.938,62.455z M61.684,60.811v0.665
		c-0.083-0.094-0.165-0.159-0.249-0.204c-0.082-0.042-0.171-0.063-0.265-0.063c-0.174,0-0.316,0.06-0.424,0.178
		c-0.108,0.119-0.161,0.273-0.161,0.466c0,0.179,0.055,0.327,0.163,0.446c0.109,0.117,0.252,0.176,0.422,0.176
		c0.094,0,0.183-0.021,0.265-0.066c0.084-0.042,0.166-0.11,0.249-0.203v0.667c-0.096,0.043-0.191,0.081-0.286,0.104
		c-0.096,0.023-0.192,0.037-0.289,0.037c-0.124,0-0.234-0.015-0.337-0.045c-0.104-0.029-0.2-0.071-0.287-0.131
		c-0.165-0.113-0.292-0.252-0.379-0.422c-0.087-0.169-0.131-0.36-0.131-0.572c0-0.17,0.027-0.324,0.084-0.464
		c0.056-0.14,0.138-0.266,0.25-0.38c0.104-0.108,0.225-0.191,0.356-0.244c0.131-0.052,0.28-0.08,0.443-0.08
		c0.097,0,0.193,0.01,0.289,0.034C61.492,60.729,61.588,60.764,61.684,60.811L61.684,60.811z M63.371,62.953v-2.229h0.635
		c0.248,0,0.423,0.013,0.52,0.034c0.098,0.023,0.183,0.062,0.254,0.117c0.079,0.06,0.14,0.138,0.185,0.231
		c0.043,0.097,0.064,0.2,0.064,0.314c0,0.172-0.043,0.312-0.128,0.42c-0.084,0.108-0.208,0.181-0.369,0.214l0.607,0.899h-0.688
		l-0.512-0.872v0.872H63.371L63.371,62.953z M63.939,61.777h0.113c0.131,0,0.226-0.023,0.288-0.067
		c0.06-0.044,0.089-0.113,0.089-0.21c0-0.11-0.027-0.19-0.085-0.237c-0.055-0.049-0.15-0.072-0.284-0.072h-0.121V61.777
		L63.939,61.777z M67.302,62.12h0.604l-0.228-0.734c-0.006-0.023-0.017-0.06-0.026-0.108c-0.014-0.051-0.028-0.115-0.048-0.193
		c-0.015,0.054-0.027,0.108-0.04,0.156c-0.013,0.051-0.025,0.099-0.038,0.145L67.302,62.12L67.302,62.12z M66.451,62.953l0.77-2.229
		h0.762l0.77,2.229h-0.604l-0.112-0.399h-0.863l-0.117,0.399H66.451L66.451,62.953z M70.31,62.953v-2.229h1.365v0.488H70.9V61.6
		h0.73v0.477H70.9v0.876H70.31L70.31,62.953z M73.668,62.953v-1.701h-0.499v-0.528h1.606v0.528h-0.498v1.701H73.668L73.668,62.953z
		 M76.416,62.953v-2.229h1.365v0.488h-0.772V61.6h0.728v0.477h-0.728v0.378h0.772v0.499H76.416L76.416,62.953z M79.526,62.953
		v-2.229h0.464c0.347,0,0.592,0.018,0.735,0.048c0.144,0.032,0.271,0.088,0.379,0.164c0.14,0.098,0.247,0.225,0.32,0.378
		c0.074,0.155,0.109,0.331,0.109,0.526c0,0.197-0.035,0.374-0.109,0.526c-0.073,0.155-0.181,0.28-0.32,0.379
		c-0.108,0.075-0.231,0.127-0.369,0.162c-0.138,0.03-0.353,0.047-0.643,0.047H79.99H79.526L79.526,62.953z M80.128,62.455h0.103
		c0.237,0,0.411-0.049,0.522-0.148c0.109-0.098,0.165-0.253,0.165-0.467c0-0.212-0.056-0.369-0.165-0.468
		c-0.111-0.101-0.285-0.149-0.522-0.149h-0.103V62.455L80.128,62.455z M53.863,67.288V65.06h0.465c0.346,0,0.592,0.016,0.733,0.048
		c0.146,0.034,0.271,0.087,0.38,0.164c0.14,0.1,0.246,0.225,0.32,0.377c0.072,0.155,0.11,0.331,0.11,0.526
		c0,0.197-0.038,0.373-0.11,0.527c-0.074,0.153-0.181,0.278-0.32,0.378c-0.107,0.074-0.231,0.127-0.369,0.161
		c-0.138,0.032-0.352,0.047-0.643,0.047h-0.102H53.863L53.863,67.288z M54.464,66.79h0.102c0.239,0,0.414-0.049,0.524-0.149
		c0.109-0.097,0.162-0.251,0.162-0.466c0-0.212-0.053-0.369-0.162-0.469c-0.11-0.097-0.285-0.148-0.524-0.148h-0.102V66.79
		L54.464,66.79z M57.597,67.288V65.06h1.365v0.489h-0.773v0.386h0.729v0.478h-0.729v0.377h0.773v0.498H57.597L57.597,67.288z
		 M60.805,66.569c0.092,0.102,0.18,0.178,0.269,0.229c0.086,0.051,0.175,0.076,0.263,0.076c0.08,0,0.148-0.021,0.199-0.066
		c0.053-0.044,0.078-0.099,0.078-0.165c0-0.074-0.021-0.131-0.067-0.172c-0.045-0.039-0.146-0.081-0.306-0.125
		c-0.219-0.058-0.374-0.135-0.465-0.229c-0.089-0.094-0.136-0.224-0.136-0.389c0-0.212,0.072-0.386,0.214-0.521
		c0.145-0.134,0.328-0.202,0.557-0.202c0.122,0,0.239,0.018,0.35,0.05c0.11,0.034,0.214,0.085,0.312,0.151l-0.189,0.437
		c-0.069-0.057-0.139-0.104-0.214-0.134c-0.072-0.029-0.144-0.044-0.213-0.044c-0.076,0-0.135,0.019-0.179,0.053
		c-0.047,0.033-0.068,0.081-0.068,0.133c0,0.058,0.019,0.102,0.061,0.136c0.039,0.035,0.115,0.064,0.229,0.096l0.028,0.009
		c0.247,0.065,0.411,0.139,0.489,0.218c0.052,0.055,0.092,0.121,0.119,0.199c0.028,0.077,0.043,0.162,0.043,0.255
		c0,0.236-0.079,0.426-0.234,0.569c-0.153,0.144-0.361,0.217-0.621,0.217c-0.154,0-0.296-0.026-0.423-0.079
		c-0.128-0.053-0.251-0.136-0.368-0.249L60.805,66.569L60.805,66.569z M63.876,67.288V65.06h0.613v2.229H63.876L63.876,67.288z
		 M67.383,66.467V66h1.193c0,0.015,0.002,0.032,0.002,0.051c0,0.017,0,0.044,0,0.08c0,0.385-0.099,0.681-0.304,0.893
		c-0.201,0.211-0.487,0.316-0.854,0.316c-0.181,0-0.341-0.025-0.481-0.081c-0.139-0.055-0.267-0.137-0.377-0.248
		c-0.104-0.108-0.187-0.233-0.246-0.379c-0.058-0.144-0.087-0.297-0.087-0.458c0-0.165,0.029-0.319,0.085-0.458
		c0.057-0.14,0.142-0.265,0.254-0.377c0.113-0.108,0.24-0.19,0.387-0.246c0.144-0.056,0.299-0.083,0.466-0.083
		c0.219,0,0.412,0.042,0.579,0.13c0.168,0.084,0.311,0.213,0.425,0.383l-0.526,0.252c-0.063-0.086-0.134-0.15-0.212-0.19
		c-0.081-0.043-0.167-0.064-0.266-0.064c-0.181,0-0.324,0.06-0.428,0.181c-0.104,0.123-0.157,0.289-0.157,0.498
		c0,0.213,0.054,0.38,0.157,0.501c0.104,0.123,0.247,0.183,0.428,0.183c0.155,0,0.285-0.038,0.387-0.113
		c0.104-0.076,0.163-0.176,0.18-0.304H67.383L67.383,66.467z M70.294,67.288V65.06h0.588l0.842,1.147
		c0.015,0.023,0.043,0.069,0.078,0.139c0.038,0.072,0.079,0.155,0.123,0.252c-0.013-0.094-0.021-0.174-0.026-0.246
		c-0.005-0.071-0.009-0.136-0.009-0.193v-1.1h0.583v2.229H71.89l-0.843-1.152c-0.017-0.023-0.042-0.07-0.081-0.14
		c-0.035-0.07-0.076-0.153-0.121-0.249c0.014,0.094,0.022,0.177,0.028,0.249c0.004,0.072,0.009,0.136,0.009,0.191v1.101H70.294z"/>
	<path fill-rule="evenodd" clip-rule="evenodd" fill="#FFFFFF" d="M58.87,19.511h8.692c0.398,0,0.726-0.325,0.726-0.724
		c0-0.396-0.329-0.726-0.726-0.726H58.87c-0.398,0-0.725,0.328-0.725,0.726C58.146,19.184,58.475,19.511,58.87,19.511L58.87,19.511z
		 M67.562,17.097h-4.346H58.87c-0.196,0-0.367-0.119-0.441-0.291l-2.877-5.274c-0.045-0.077-0.062-0.148-0.062-0.229
		c0-0.189,0.091-0.34,0.253-0.422c0.129-0.07,0.273-0.076,0.4-0.028l3.92,1.307l2.716-5.888c0.08-0.175,0.255-0.28,0.438-0.28
		s0.355,0.104,0.438,0.28l2.716,5.888l3.92-1.307c0.128-0.048,0.271-0.042,0.4,0.028c0.161,0.082,0.252,0.233,0.252,0.422
		c0,0.081-0.017,0.153-0.061,0.229l-2.877,5.274C67.932,16.979,67.76,17.097,67.562,17.097z"/>
	<path fill-rule="evenodd" clip-rule="evenodd" fill="#363837" d="M63.217,27.416c-7.57,0-13.708-6.136-13.708-13.707
		C49.509,6.139,55.646,0,63.217,0c7.569,0,13.707,6.139,13.707,13.708C76.924,21.28,70.786,27.416,63.217,27.416L63.217,27.416z
		 M58.87,19.511h8.692c0.398,0,0.726-0.325,0.726-0.724c0-0.396-0.329-0.726-0.726-0.726H58.87c-0.398,0-0.725,0.328-0.725,0.726
		C58.146,19.184,58.475,19.511,58.87,19.511L58.87,19.511z M67.562,17.097c0.197,0,0.369-0.119,0.442-0.291l2.877-5.274
		c0.044-0.077,0.061-0.148,0.061-0.229c0-0.189-0.091-0.34-0.252-0.422c-0.129-0.07-0.272-0.076-0.4-0.028l-3.92,1.307l-2.716-5.888
		c-0.082-0.175-0.255-0.28-0.438-0.282c-0.183,0.002-0.357,0.106-0.438,0.282l-2.716,5.888l-3.92-1.307
		c-0.127-0.048-0.271-0.042-0.4,0.028c-0.162,0.082-0.253,0.233-0.253,0.422c0,0.081,0.017,0.153,0.062,0.229l2.877,5.274
		c0.074,0.172,0.245,0.291,0.441,0.291h4.347H67.562L67.562,17.097z M63.217,26.062c3.411,0,6.498-1.383,8.734-3.618
		c2.234-2.236,3.617-5.324,3.617-8.736c0-3.411-1.383-6.499-3.617-8.734c-2.236-2.235-5.323-3.619-8.734-3.619
		c-3.41,0-6.499,1.383-8.734,3.619c-2.234,2.236-3.618,5.324-3.618,8.734c0,3.412,1.384,6.5,3.618,8.736
		C56.718,24.679,59.807,26.062,63.217,26.062L63.217,26.062z M54.743,22.183c2.168,2.168,5.165,3.51,8.474,3.51
		c3.308,0,6.306-1.342,8.475-3.51c2.168-2.169,3.508-5.165,3.508-8.474c0-3.309-1.34-6.306-3.508-8.474
		c-2.169-2.169-5.167-3.51-8.475-3.51c-3.309,0-6.306,1.341-8.474,3.51c-2.169,2.168-3.51,5.165-3.51,8.474
		C51.233,17.018,52.574,20.013,54.743,22.183z"/>
</g>
</svg>
