<?xml version="1.0" encoding="utf-8"?>
<!-- Generator: Adobe Illustrator 16.0.0, SVG Export Plug-In . SVG Version: 6.00 Build 0)  -->
<!DOCTYPE svg PUBLIC "-//W3C//DTD SVG 1.1//EN" "http://www.w3.org/Graphics/SVG/1.1/DTD/svg11.dtd">
<svg version="1.1" id="Layer_1" xmlns="http://www.w3.org/2000/svg" xmlns:xlink="http://www.w3.org/1999/xlink" x="0px" y="0px"
	 width="127.253px" height="21.434px" viewBox="0 0 127.253 21.434" enable-background="new 0 0 127.253 21.434"
	 xml:space="preserve">
<g>
	<path fill="#363837" d="M14.747,7.105l0.905,3.426c0.042,0.154,0.083,0.315,0.118,0.482c0.037,0.168,0.074,0.359,0.114,0.576
		c0.048-0.255,0.091-0.466,0.125-0.633c0.035-0.165,0.068-0.308,0.101-0.425l0.846-3.426h1.984l-2.037,7.205h-1.821l-0.89-3.076
		c-0.035-0.107-0.088-0.319-0.163-0.635c-0.032-0.141-0.059-0.25-0.079-0.329c-0.015,0.069-0.04,0.164-0.069,0.29
		c-0.075,0.317-0.132,0.542-0.171,0.673l-0.877,3.076h-1.825L8.974,7.105h1.983l0.827,3.446c0.041,0.176,0.079,0.354,0.116,0.531
		c0.039,0.178,0.074,0.359,0.106,0.546c0.03-0.139,0.062-0.282,0.096-0.432c0.035-0.15,0.085-0.366,0.156-0.645l0.906-3.446H14.747
		L14.747,7.105z M29.189,10.722c0,0.519-0.096,1.004-0.285,1.457c-0.189,0.453-0.467,0.858-0.831,1.216
		c-0.368,0.354-0.788,0.625-1.26,0.819c-0.472,0.191-0.963,0.287-1.472,0.287c-0.516,0-1.009-0.096-1.478-0.287
		c-0.472-0.194-0.886-0.465-1.243-0.819c-0.371-0.358-0.652-0.765-0.845-1.222c-0.191-0.455-0.287-0.939-0.287-1.451
		c0-0.516,0.096-1,0.287-1.455c0.193-0.455,0.474-0.86,0.845-1.218c0.357-0.354,0.771-0.627,1.243-0.819
		c0.469-0.192,0.962-0.287,1.478-0.287c0.512,0,1.004,0.095,1.478,0.287c0.476,0.192,0.892,0.466,1.253,0.819
		c0.361,0.355,0.636,0.76,0.83,1.215C29.094,9.721,29.189,10.206,29.189,10.722L29.189,10.722z M25.342,12.838
		c0.544,0,0.995-0.2,1.35-0.599c0.356-0.402,0.534-0.908,0.534-1.517c0-0.604-0.18-1.107-0.541-1.512
		c-0.361-0.404-0.81-0.604-1.344-0.604c-0.544,0-0.995,0.201-1.351,0.603c-0.356,0.401-0.534,0.907-0.534,1.513
		c0,0.617,0.176,1.123,0.526,1.52C24.333,12.641,24.787,12.838,25.342,12.838L25.342,12.838z M39.993,10.722
		c0,0.519-0.096,1.004-0.285,1.457c-0.19,0.453-0.468,0.858-0.832,1.216c-0.368,0.354-0.788,0.625-1.26,0.819
		c-0.472,0.191-0.962,0.287-1.472,0.287c-0.515,0-1.007-0.096-1.478-0.287c-0.472-0.194-0.885-0.465-1.243-0.819
		c-0.372-0.358-0.652-0.765-0.845-1.222c-0.191-0.455-0.287-0.939-0.287-1.451c0-0.516,0.096-1,0.287-1.455
		c0.192-0.455,0.473-0.86,0.845-1.218c0.358-0.354,0.771-0.627,1.243-0.819c0.471-0.192,0.963-0.287,1.478-0.287
		c0.512,0,1.004,0.095,1.478,0.287c0.476,0.192,0.893,0.466,1.253,0.819c0.361,0.355,0.636,0.76,0.83,1.215
		C39.897,9.721,39.993,10.206,39.993,10.722L39.993,10.722z M36.145,12.838c0.544,0,0.995-0.2,1.35-0.599
		c0.357-0.402,0.535-0.908,0.535-1.517c0-0.604-0.18-1.107-0.542-1.512c-0.361-0.404-0.81-0.604-1.344-0.604
		c-0.544,0-0.994,0.201-1.35,0.603c-0.356,0.401-0.534,0.907-0.534,1.513c0,0.617,0.174,1.123,0.526,1.52
		C35.137,12.641,35.59,12.838,36.145,12.838L36.145,12.838z M43.4,14.31V7.105h1.5c1.119,0,1.912,0.053,2.375,0.158
		c0.463,0.104,0.872,0.282,1.223,0.526c0.454,0.319,0.801,0.726,1.037,1.223c0.237,0.497,0.354,1.066,0.354,1.7
		c0,0.637-0.117,1.205-0.354,1.701c-0.236,0.499-0.583,0.904-1.037,1.223c-0.348,0.243-0.745,0.415-1.191,0.52
		c-0.447,0.102-1.139,0.154-2.077,0.154H44.9H43.4L43.4,14.31z M45.344,12.696h0.33c0.771,0,1.336-0.159,1.689-0.476
		c0.355-0.316,0.531-0.818,0.531-1.509c0-0.688-0.176-1.194-0.531-1.515c-0.353-0.32-0.918-0.481-1.689-0.481h-0.33V12.696
		L45.344,12.696z M58.029,7.105l0.905,3.426c0.042,0.154,0.082,0.315,0.118,0.482c0.037,0.168,0.074,0.359,0.114,0.576
		c0.049-0.255,0.091-0.466,0.125-0.633c0.035-0.165,0.069-0.308,0.1-0.425l0.847-3.426h1.984l-2.037,7.205h-1.821l-0.89-3.076
		c-0.034-0.107-0.087-0.319-0.163-0.635c-0.032-0.141-0.059-0.25-0.079-0.329c-0.016,0.069-0.04,0.164-0.069,0.29
		c-0.076,0.317-0.133,0.542-0.171,0.673l-0.876,3.076h-1.826l-2.033-7.205h1.985l0.826,3.446c0.041,0.176,0.079,0.354,0.115,0.531
		c0.039,0.178,0.075,0.359,0.107,0.546c0.029-0.139,0.062-0.282,0.096-0.432c0.035-0.15,0.085-0.366,0.156-0.645l0.905-3.446H58.029
		L58.029,7.105z M72.472,10.722c0,0.519-0.096,1.004-0.286,1.457c-0.19,0.453-0.467,0.858-0.832,1.216
		c-0.368,0.354-0.788,0.625-1.26,0.819c-0.472,0.191-0.962,0.287-1.471,0.287c-0.516,0-1.008-0.096-1.478-0.287
		c-0.472-0.194-0.885-0.465-1.243-0.819c-0.371-0.358-0.651-0.765-0.845-1.222c-0.191-0.455-0.287-0.939-0.287-1.451
		c0-0.516,0.096-1,0.287-1.455c0.194-0.455,0.474-0.86,0.845-1.218c0.358-0.354,0.771-0.627,1.243-0.819
		c0.47-0.192,0.962-0.287,1.478-0.287c0.512,0,1.005,0.095,1.479,0.287c0.475,0.192,0.891,0.466,1.252,0.819
		c0.361,0.355,0.637,0.76,0.83,1.215C72.375,9.721,72.472,10.206,72.472,10.722L72.472,10.722z M68.624,12.838
		c0.544,0,0.994-0.2,1.351-0.599c0.355-0.402,0.534-0.908,0.534-1.517c0-0.604-0.18-1.107-0.541-1.512
		c-0.361-0.404-0.809-0.604-1.343-0.604c-0.544,0-0.994,0.201-1.351,0.603c-0.355,0.401-0.533,0.907-0.533,1.513
		c0,0.617,0.175,1.123,0.525,1.52C67.616,12.641,68.069,12.838,68.624,12.838L68.624,12.838z M75.88,14.31V7.105h2.052
		c0.803,0,1.364,0.037,1.68,0.111c0.316,0.074,0.589,0.199,0.82,0.371c0.258,0.197,0.458,0.448,0.598,0.752
		c0.14,0.305,0.208,0.642,0.208,1.01c0,0.558-0.136,1.011-0.409,1.36c-0.274,0.35-0.674,0.582-1.199,0.696l1.962,2.904h-2.219
		l-1.653-2.821v2.821H75.88L75.88,14.31z M77.72,10.51h0.364c0.423,0,0.732-0.071,0.927-0.216c0.195-0.145,0.293-0.371,0.293-0.679
		c0-0.361-0.091-0.618-0.274-0.771c-0.182-0.152-0.487-0.228-0.917-0.228H77.72V10.51L77.72,10.51z M84.518,14.31V7.105h1.943v3.272
		l2.28-3.272h2.288l-2.662,3.514l2.894,3.69h-2.451l-2.348-3.233v3.233H84.518L84.518,14.31z M94.321,11.981
		c0.292,0.331,0.582,0.58,0.865,0.743c0.284,0.165,0.566,0.247,0.849,0.247c0.262,0,0.478-0.07,0.646-0.211
		c0.169-0.141,0.253-0.319,0.253-0.536c0-0.24-0.072-0.424-0.218-0.554c-0.146-0.129-0.477-0.263-0.991-0.4
		c-0.706-0.19-1.204-0.439-1.497-0.744c-0.293-0.305-0.438-0.723-0.438-1.254c0-0.688,0.23-1.251,0.692-1.686
		c0.46-0.436,1.058-0.652,1.792-0.652c0.397,0,0.773,0.054,1.129,0.159c0.356,0.108,0.693,0.269,1.012,0.485L97.801,8.99
		c-0.223-0.19-0.451-0.335-0.687-0.431c-0.235-0.097-0.467-0.146-0.695-0.146c-0.237,0-0.429,0.058-0.576,0.17
		c-0.148,0.113-0.222,0.258-0.222,0.434c0,0.182,0.065,0.327,0.195,0.434c0.129,0.11,0.38,0.212,0.749,0.311l0.089,0.025
		c0.801,0.215,1.327,0.453,1.579,0.712c0.172,0.178,0.3,0.39,0.39,0.639c0.089,0.247,0.133,0.522,0.133,0.822
		c0,0.765-0.25,1.38-0.752,1.843c-0.503,0.466-1.171,0.697-2.007,0.697c-0.502,0-0.959-0.086-1.371-0.255
		c-0.412-0.172-0.807-0.439-1.189-0.803L94.321,11.981z"/>
	<path fill="#363837" d="M106.774,0h0.955h18.57h0.954v0.954v19.524v0.955h-0.954h-18.57v0.001h-0.955H0.955H0v-0.954V0.954V0h0.955
		h104.867H106.774L106.774,0z M105.821,19.525V1.909H1.908v17.616H105.821L105.821,19.525z M125.346,1.909h-17.617v17.616h17.617
		V1.909z"/>
	<path fill-rule="evenodd" clip-rule="evenodd" fill="#363837" d="M116.537,16.627h5.285c0.266,0,0.481-0.215,0.481-0.48
		c0-0.135-0.056-0.257-0.146-0.345l-2.431-2.778h-6.377l-2.43,2.778c-0.091,0.088-0.146,0.21-0.146,0.345
		c0,0.266,0.215,0.48,0.48,0.48H116.537L116.537,16.627z M116.537,12.542h4.325c0.266,0,0.48-0.215,0.48-0.479
		c0-0.136-0.055-0.259-0.146-0.345l-2.01-2.299h-5.296l-2.01,2.299c-0.09,0.086-0.146,0.208-0.146,0.345
		c0,0.264,0.215,0.479,0.48,0.479H116.537L116.537,12.542z M112.813,8.143l3.337-3.811c0.021-0.028,0.044-0.053,0.07-0.078
		c0.092-0.079,0.205-0.118,0.316-0.118c0.113,0,0.226,0.039,0.317,0.118c0.026,0.024,0.05,0.05,0.07,0.078l3.338,3.811
		c0.174,0.2,0.154,0.505-0.044,0.678c-0.092,0.08-0.205,0.12-0.317,0.12h-3.364h-3.363c-0.112,0-0.225-0.04-0.316-0.12
		C112.659,8.647,112.639,8.342,112.813,8.143z"/>
</g>
</svg>
