<?xml version="1.0" encoding="utf-8"?>
<!-- Generator: Adobe Illustrator 16.0.0, SVG Export Plug-In . SVG Version: 6.00 Build 0)  -->
<!DOCTYPE svg PUBLIC "-//W3C//DTD SVG 1.1//EN" "http://www.w3.org/Graphics/SVG/1.1/DTD/svg11.dtd">
<svg version="1.1" id="Layer_1" xmlns="http://www.w3.org/2000/svg" xmlns:xlink="http://www.w3.org/1999/xlink" x="0px" y="0px"
	 width="125.918px" height="55.353px" viewBox="0 0 125.918 55.353" enable-background="new 0 0 125.918 55.353"
	 xml:space="preserve">
<g>
	<path fill="#373737" d="M113.763,49.914c-1.206,1.454-3.233,1.808-4.52,0.837c-6.613-5-14.026-8.92-21.869-11.546
		c-7.842-2.633-16.107-3.962-24.415-3.961c-8.307-0.001-16.572,1.328-24.414,3.961c-7.843,2.626-15.257,6.546-21.869,11.546
		c-1.298,0.979-3.312,0.617-4.52-0.837L0.709,35.916c-1.216-1.466-0.838-3.785,0.903-5.1c8.744-6.613,18.573-11.814,28.992-15.301
		c10.414-3.498,21.408-5.263,32.354-5.258c10.947-0.005,21.941,1.76,32.355,5.258c10.417,3.486,20.247,8.688,28.993,15.301
		c1.74,1.314,2.117,3.634,0.901,5.1L113.763,49.914z"/>
	<path fill="#FFFFFF" d="M19.606,33.771c0.221,0.398,0.325,0.788,0.336,1.135c-0.013,0.342-0.11,0.658-0.314,0.944
		c0.864,0.894,1.719,1.794,2.562,2.704c0.054,0.063,0.085,0.12,0.074,0.164c-0.004,0.057-0.049,0.102-0.115,0.138l-1.167,0.665
		c-0.054,0.031-0.102,0.04-0.144,0.027c-0.057-0.005-0.094-0.04-0.141-0.088c-0.838-0.861-1.688-1.716-2.545-2.562l-0.792,0.479
		l1.81,2.957c0.043,0.069,0.042,0.128,0.033,0.172c-0.001,0.057-0.044,0.103-0.096,0.134l-1.139,0.713
		c-0.053,0.033-0.1,0.045-0.164,0.028c-0.044-0.011-0.084-0.044-0.127-0.111l-5.709-8.908c-0.034-0.056-0.046-0.106-0.044-0.166
		c0.026-0.055,0.061-0.097,0.12-0.135c1.033-0.659,2.08-1.298,3.139-1.916c0.596-0.351,1.13-0.461,1.61-0.343
		c0.46,0.116,0.854,0.477,1.185,1.037L19.606,33.771L19.606,33.771z M17.581,35.117L17.581,35.117
		c0.154-0.09,0.243-0.197,0.285-0.317c0.022-0.125-0.011-0.276-0.1-0.432l-1.304-2.236c-0.091-0.153-0.199-0.24-0.322-0.282
		c-0.138-0.033-0.279-0.007-0.439,0.087l-1.219,0.734l1.928,3.152L17.581,35.117L17.581,35.117z M27.173,25.958l-0.532-1.277
		c-0.025-0.06-0.06-0.099-0.11-0.131c-0.044-0.018-0.098-0.012-0.178,0.021c-1.656,0.696-3.296,1.435-4.909,2.226
		c-0.062,0.03-0.102,0.068-0.118,0.111c-0.01,0.06-0.02,0.119,0.009,0.177l4.662,9.499c0.035,0.072,0.085,0.103,0.127,0.118
		c0.048,0.03,0.097,0.025,0.152-0.001c1.425-0.699,2.872-1.352,4.336-1.966c0.069-0.029,0.105-0.062,0.115-0.12
		c0.016-0.04,0.011-0.091-0.021-0.167l-0.526-1.262c-0.03-0.075-0.063-0.114-0.11-0.148c-0.042-0.018-0.09-0.015-0.163,0.018
		c-1.017,0.423-2.023,0.87-3.023,1.336l-1.175-2.523c0.788-0.369,1.584-0.72,2.382-1.067c0.059-0.025,0.098-0.059,0.107-0.115
		c0.032-0.05,0.021-0.116-0.005-0.176l-0.537-1.258c-0.031-0.074-0.066-0.114-0.131-0.139c-0.043-0.018-0.095-0.013-0.154,0.014
		c-0.815,0.353-1.627,0.712-2.431,1.088l-1.168-2.51c1.086-0.505,2.182-0.99,3.285-1.452c0.078-0.033,0.118-0.067,0.132-0.126
		C27.207,26.085,27.197,26.019,27.173,25.958L27.173,25.958L27.173,25.958z M36.083,21.108L36.083,21.108
		c0.083-0.024,0.137-0.023,0.179-0.001c0.047,0.037,0.095,0.074,0.113,0.136l0.388,1.328c0.019,0.062-0.001,0.119-0.02,0.176
		c-0.023,0.04-0.068,0.07-0.148,0.094l-1.589,0.486l2.698,8.57c0.025,0.077,0.025,0.128,0.011,0.185
		c-0.034,0.043-0.072,0.072-0.146,0.096l-1.276,0.418c-0.059,0.02-0.106,0.019-0.16,0.003c-0.044-0.037-0.075-0.078-0.1-0.155
		l-2.88-8.512l-1.585,0.552c-0.063,0.023-0.117,0.024-0.16,0.006c-0.064-0.029-0.098-0.068-0.119-0.13l-0.471-1.302
		c-0.021-0.061-0.021-0.113,0.011-0.177c0.021-0.042,0.064-0.075,0.129-0.098C32.648,22.174,34.359,21.62,36.083,21.108
		L36.083,21.108z M47.445,23.922L47.445,23.922c0.078,0.449,0.065,0.849-0.038,1.181c-0.124,0.317-0.319,0.587-0.606,0.789
		c0.524,1.128,1.036,2.258,1.535,3.394c0.03,0.078,0.042,0.143,0.017,0.18c-0.036,0.056-0.078,0.079-0.153,0.093l-1.321,0.245
		c-0.06,0.012-0.107,0.005-0.158-0.018c-0.036-0.026-0.076-0.068-0.089-0.133c-0.511-1.09-1.032-2.173-1.566-3.253l-0.92,0.196
		l0.742,3.387c0.019,0.08,0.013,0.131-0.01,0.169c-0.02,0.055-0.075,0.083-0.135,0.096l-1.309,0.303
		c-0.06,0.014-0.122,0.012-0.163-0.028c-0.037-0.024-0.078-0.064-0.098-0.144l-2.484-10.284c-0.015-0.064,0.007-0.12,0.028-0.176
		c0.026-0.039,0.09-0.071,0.157-0.088c1.188-0.283,2.381-0.544,3.579-0.781c0.678-0.136,1.235-0.069,1.635,0.204
		c0.413,0.256,0.668,0.726,0.779,1.366L47.445,23.922L47.445,23.922z M45.092,24.532L45.092,24.532
		c0.175-0.036,0.309-0.111,0.39-0.211c0.061-0.11,0.08-0.265,0.045-0.439l-0.499-2.54c-0.035-0.176-0.108-0.293-0.211-0.373
		c-0.119-0.076-0.279-0.096-0.461-0.058l-1.393,0.295l0.791,3.61L45.092,24.532L45.092,24.532z M51.215,19.965L51.215,19.965
		c-0.081-0.646,0.042-1.173,0.344-1.534c0.316-0.383,0.813-0.606,1.501-0.677l1.633-0.156c0.688-0.061,1.219,0.065,1.602,0.382
		c0.365,0.298,0.585,0.793,0.627,1.441l0.452,7.034c0.041,0.65-0.099,1.146-0.38,1.51c-0.3,0.348-0.743,0.559-1.351,0.612
		l-1.444,0.138c-0.607,0.062-1.082-0.062-1.44-0.348c-0.346-0.304-0.577-0.764-0.659-1.41L51.215,19.965L51.215,19.965z
		 M55.163,26.838L55.163,26.838c0.171-0.018,0.291-0.074,0.376-0.18c0.087-0.09,0.121-0.238,0.106-0.417l-0.534-6.343
		c-0.015-0.178-0.077-0.32-0.188-0.408c-0.108-0.074-0.247-0.111-0.434-0.094l-0.826,0.078c-0.186,0.018-0.332,0.084-0.425,0.175
		c-0.073,0.105-0.108,0.257-0.089,0.436l0.668,6.329c0.019,0.179,0.08,0.319,0.167,0.392c0.103,0.088,0.246,0.12,0.418,0.104
		L55.163,26.838L55.163,26.838z M61.573,17.463L61.573,17.463c-0.001-0.063,0.016-0.113,0.049-0.162
		c0.035-0.033,0.085-0.052,0.173-0.053c1.167-0.013,2.335-0.006,3.502,0.021c0.69,0.017,1.203,0.199,1.55,0.557
		c0.346,0.354,0.494,0.852,0.463,1.502l-0.325,7.041c-0.029,0.649-0.208,1.129-0.544,1.459c-0.336,0.312-0.799,0.474-1.411,0.458
		c-1.033-0.023-2.067-0.03-3.103-0.019c-0.076,0.001-0.121-0.015-0.152-0.046c-0.031-0.049-0.048-0.098-0.05-0.179L61.573,17.463
		L61.573,17.463z M64.715,26.456L64.715,26.456c0.172,0.003,0.298-0.043,0.395-0.121c0.08-0.096,0.13-0.224,0.135-0.42l0.163-6.265
		c0.005-0.179-0.041-0.326-0.123-0.427c-0.1-0.101-0.234-0.154-0.421-0.155l-1.319-0.018l-0.046,7.39L64.715,26.456L64.715,26.456z
		 M77.711,19.999L77.711,19.999c-0.01,0.063-0.036,0.126-0.075,0.152c-0.042,0.043-0.111,0.048-0.195,0.034
		c-1.177-0.183-2.357-0.344-3.541-0.482l-0.322,2.748c0.875,0.101,1.75,0.22,2.623,0.346c0.064,0.011,0.128,0.036,0.155,0.073
		c0.026,0.053,0.052,0.106,0.038,0.187l-0.201,1.353c-0.011,0.064-0.053,0.123-0.089,0.152c-0.039,0.043-0.105,0.05-0.169,0.04
		c-0.855-0.125-1.711-0.241-2.57-0.34l-0.324,2.766c1.09,0.127,2.177,0.275,3.261,0.445c0.077,0.011,0.137,0.037,0.162,0.073
		c0.022,0.054,0.03,0.104,0.018,0.186l-0.216,1.351c-0.012,0.08-0.034,0.125-0.069,0.153c-0.038,0.043-0.101,0.049-0.176,0.037
		c-1.564-0.242-3.135-0.444-4.71-0.6c-0.061-0.007-0.104-0.026-0.146-0.08c-0.027-0.035-0.038-0.085-0.03-0.166l1.017-10.531
		c0.007-0.065,0.029-0.111,0.067-0.158c0.056-0.026,0.107-0.039,0.177-0.031c1.782,0.177,3.559,0.404,5.328,0.679
		c0.086,0.014,0.151,0.042,0.181,0.079c0.026,0.054,0.035,0.104,0.025,0.169L77.711,19.999L77.711,19.999z M85.884,20.034
		L85.884,20.034c0.67,0.169,1.133,0.457,1.393,0.881c0.249,0.403,0.297,0.938,0.125,1.567l-0.38,1.398
		c-0.018,0.062-0.05,0.119-0.107,0.138c-0.045,0.039-0.098,0.042-0.177,0.021l-1.415-0.369c-0.064-0.017-0.124-0.049-0.146-0.104
		c-0.023-0.04-0.023-0.107-0.009-0.171l0.261-1.042c0.043-0.174,0.026-0.312-0.049-0.432c-0.059-0.115-0.195-0.197-0.377-0.242
		l-0.676-0.162c-0.182-0.043-0.325-0.026-0.445,0.048c-0.121,0.071-0.199,0.188-0.239,0.361l-0.425,1.856
		c1.004,0.596,1.989,1.21,2.957,1.84c0.098,0.078,0.159,0.162,0.2,0.257c0.042,0.095,0.048,0.198,0.013,0.324l-0.838,3.078
		c-0.172,0.627-0.465,1.055-0.85,1.306c-0.395,0.23-0.883,0.29-1.474,0.141l-1.411-0.336c-0.594-0.139-1.003-0.406-1.234-0.791
		c-0.244-0.4-0.313-0.913-0.181-1.551l0.292-1.419c0.017-0.079,0.042-0.124,0.096-0.146c0.037-0.025,0.088-0.032,0.165-0.017
		l1.371,0.298c0.062,0.015,0.12,0.045,0.144,0.084c0.023,0.038,0.028,0.09,0.01,0.169l-0.235,1.031
		c-0.044,0.191-0.026,0.328,0.043,0.444c0.072,0.101,0.183,0.177,0.35,0.216l0.622,0.148c0.167,0.04,0.299,0.021,0.41-0.034
		c0.113-0.072,0.191-0.188,0.238-0.376l0.441-1.769c-0.954-0.607-1.927-1.199-2.917-1.774c-0.116-0.074-0.183-0.155-0.229-0.248
		c-0.048-0.093-0.057-0.211-0.03-0.338l0.656-3.173c0.131-0.638,0.417-1.094,0.838-1.339c0.407-0.26,0.95-0.313,1.623-0.156
		L85.884,20.034L85.884,20.034z M94.162,22.501L94.162,22.501c0.064,0.023,0.125,0.062,0.146,0.104
		c0.018,0.057,0.033,0.114,0.012,0.176l-3.508,9.982c-0.027,0.076-0.071,0.112-0.111,0.133c-0.045,0.036-0.107,0.032-0.165,0.011
		l-1.271-0.433c-0.073-0.023-0.11-0.053-0.125-0.108c-0.019-0.04-0.032-0.097-0.008-0.173l3.295-10.056
		c0.021-0.062,0.068-0.097,0.116-0.133c0.044-0.02,0.098-0.02,0.18,0.007L94.162,22.501L94.162,22.501z M98.096,26.113
		L98.096,26.113c0.246-0.604,0.61-0.999,1.054-1.168c0.463-0.176,1.007-0.128,1.641,0.149l1.765,0.791
		c0.614,0.28,1.027,0.662,1.188,1.116c0.186,0.45,0.131,0.988-0.153,1.572l-0.628,1.287c-0.028,0.059-0.064,0.095-0.124,0.104
		c-0.052,0.029-0.103,0.021-0.178-0.016l-1.261-0.599c-0.075-0.034-0.114-0.07-0.139-0.135c-0.017-0.045-0.011-0.095,0.017-0.154
		l0.444-0.961c0.075-0.162,0.084-0.302,0.048-0.426c-0.052-0.131-0.17-0.239-0.34-0.316l-0.942-0.423
		c-0.172-0.075-0.331-0.092-0.447-0.036c-0.132,0.05-0.23,0.148-0.302,0.312l-2.502,5.763c-0.078,0.181-0.087,0.317-0.041,0.445
		c0.055,0.112,0.149,0.207,0.307,0.275l0.868,0.39c0.155,0.07,0.303,0.085,0.423,0.051c0.111-0.057,0.209-0.154,0.29-0.332
		l0.773-1.669l-0.642-0.294c-0.073-0.033-0.11-0.067-0.12-0.125c-0.016-0.043-0.01-0.094,0.023-0.169l0.561-1.247
		c0.034-0.074,0.069-0.112,0.118-0.143c0.043-0.017,0.095-0.012,0.17,0.022c0.706,0.319,1.407,0.647,2.104,0.985
		c0.073,0.036,0.11,0.072,0.125,0.116c0.023,0.064,0.017,0.116-0.019,0.189l-1.677,3.438c-0.286,0.586-0.652,0.948-1.092,1.116
		c-0.419,0.163-0.92,0.118-1.462-0.129l-1.56-0.699c-0.559-0.245-0.912-0.583-1.084-1.01c-0.152-0.433-0.125-0.95,0.121-1.552
		L98.096,26.113L98.096,26.113z M113.874,32.062l-1.289-0.805c-0.072-0.046-0.142-0.068-0.188-0.059
		c-0.055,0.023-0.095,0.057-0.128,0.111l-3.034,4.958l-0.068-0.043c0.422-2.025,0.799-4.065,1.135-6.125
		c0.017-0.065,0.011-0.124-0.018-0.179c-0.013-0.045-0.058-0.07-0.117-0.104l-1.265-0.714c-0.06-0.033-0.113-0.044-0.174-0.041
		c-0.055,0.026-0.093,0.061-0.124,0.117l-5.112,9.265c-0.039,0.07-0.05,0.121-0.038,0.165c0.016,0.063,0.049,0.101,0.102,0.13
		l1.17,0.66c0.066,0.038,0.113,0.047,0.178,0.028c0.043-0.013,0.08-0.048,0.121-0.117l2.93-5.057l0.058,0.033
		c-0.373,2.056-0.79,4.092-1.251,6.115c-0.021,0.063-0.021,0.121-0.003,0.15c0.022,0.052,0.053,0.089,0.104,0.122l1.087,0.68
		c0.052,0.033,0.1,0.045,0.163,0.028c0.044-0.011,0.084-0.044,0.128-0.111l5.708-8.908c0.035-0.056,0.047-0.106,0.044-0.166
		C113.966,32.142,113.931,32.1,113.874,32.062L113.874,32.062z"/>
	<path fill="#373737" d="M29.647,5.015l0.921,2.958l0.653-0.198l-0.253-0.83l0.388-0.117c0.437-0.129,0.74-0.315,0.896-0.541
		c0.167-0.228,0.196-0.533,0.092-0.896c-0.106-0.373-0.283-0.618-0.553-0.732c-0.259-0.117-0.621-0.104-1.087,0.033L29.647,5.015
		L29.647,5.015z M30.794,6.369L30.794,6.369l-0.303-0.994l0.384-0.116c0.217-0.065,0.386-0.072,0.514-0.036
		c0.122,0.049,0.215,0.148,0.268,0.325c0.049,0.166,0.05,0.315-0.003,0.426c-0.062,0.114-0.196,0.196-0.421,0.263L30.794,6.369
		L30.794,6.369z M36.859,4.095L36.859,4.095c-0.084-0.346-0.245-0.58-0.484-0.689c-0.238-0.108-0.59-0.11-1.07,0.014l-1.149,0.299
		l0.794,2.995l0.66-0.173l-0.247-0.957l0.461-0.118L36.72,6.26l0.819-0.198l-1.018-0.896C36.862,4.934,36.974,4.57,36.859,4.095
		L36.859,4.095z M35.212,5.001L35.212,5.001l-0.229-0.889l0.508-0.129c0.219-0.057,0.376-0.065,0.471-0.024
		c0.104,0.037,0.173,0.146,0.212,0.305c0.039,0.158,0.029,0.286-0.031,0.385c-0.071,0.091-0.209,0.168-0.446,0.229L35.212,5.001
		L35.212,5.001z M38.935,2.563L38.935,2.563l0.66,3.027l2.203-0.456L41.68,4.534l-1.545,0.314l-0.132-0.628l1.354-0.277l-0.115-0.58
		L39.88,3.642l-0.132-0.628l1.52-0.31l-0.118-0.6L38.935,2.563L38.935,2.563z M46.665,4.293L46.665,4.293l0.677-0.1l-0.439-3.067
		l-0.931,0.137L45.435,3.07L44.37,1.519l-0.936,0.16l0.535,3.053l0.673-0.116l-0.325-1.92l1.095,1.523l0.397-0.062l0.568-1.789
		L46.665,4.293L46.665,4.293z M49.681,3.885L49.681,3.885l0.668-0.078l-0.353-3.08l-0.688,0.082L49.681,3.885L49.681,3.885z
		 M53.429,2.688L53.429,2.688c-0.123-0.132-0.201-0.319-0.222-0.562l-0.148-1.707l-0.69,0.063l0.161,1.725
		c0.042,0.447,0.194,0.771,0.457,0.992c0.273,0.221,0.594,0.314,0.974,0.285c0.381-0.031,0.682-0.179,0.905-0.438
		c0.234-0.252,0.331-0.606,0.301-1.053l-0.12-1.729l-0.701,0.05l0.129,1.708c0.019,0.243-0.017,0.441-0.128,0.593
		c-0.1,0.151-0.245,0.234-0.437,0.25C53.719,2.879,53.562,2.819,53.429,2.688L53.429,2.688z M60.297,3.12L60.297,3.12l0.683-0.016
		l-0.055-3.098l-0.939,0.021l-0.759,1.727l-0.86-1.674l-0.95,0.042l0.15,3.097l0.683-0.031l-0.083-1.946l0.896,1.648l0.403-0.013
		l0.786-1.703L60.297,3.12L60.297,3.12z M64.528,0L64.528,0l-0.042,3.099l0.683,0.011l0.018-0.866l0.415,0.009
		c0.445,0.01,0.792-0.07,1.021-0.236c0.229-0.165,0.341-0.447,0.354-0.824c0.014-0.387-0.078-0.676-0.288-0.866
		c-0.222-0.191-0.569-0.295-1.044-0.305L64.528,0L64.528,0z M65.198,1.641L65.198,1.641l0.021-1.039l0.4,0.01
		c0.227,0.006,0.399,0.051,0.5,0.123c0.11,0.085,0.158,0.209,0.153,0.393c-0.006,0.173-0.051,0.314-0.135,0.404
		c-0.084,0.089-0.247,0.127-0.471,0.121L65.198,1.641L65.198,1.641z M71.679,1.354L71.679,1.354c0.028-0.354-0.054-0.63-0.247-0.806
		c-0.204-0.178-0.538-0.285-1.022-0.317l-1.196-0.071l-0.169,3.095l0.683,0.04l0.06-0.987l0.476,0.029l0.606,1.033l0.842,0.063
		l-0.691-1.167C71.423,2.151,71.642,1.842,71.679,1.354L71.679,1.354z M69.823,1.707L69.823,1.707l0.056-0.917l0.522,0.033
		c0.226,0.015,0.377,0.057,0.465,0.123c0.078,0.067,0.121,0.193,0.108,0.356c-0.011,0.162-0.061,0.281-0.158,0.355
		c-0.086,0.066-0.251,0.094-0.485,0.079L69.823,1.707L69.823,1.707z M76.324,2.314L76.324,2.314
		c-0.032,0.272-0.151,0.494-0.345,0.667c-0.204,0.172-0.425,0.245-0.677,0.22c-0.261-0.029-0.46-0.153-0.61-0.364
		c-0.162-0.213-0.229-0.454-0.2-0.728c0.028-0.274,0.144-0.499,0.348-0.671c0.192-0.174,0.418-0.252,0.685-0.223
		c0.256,0.027,0.458,0.154,0.618,0.368C76.294,1.797,76.357,2.041,76.324,2.314L76.324,2.314z M76.419,3.475L76.419,3.475
		c0.337-0.268,0.545-0.619,0.604-1.074c0.057-0.455-0.058-0.853-0.327-1.192c-0.28-0.34-0.652-0.54-1.114-0.591
		c-0.463-0.05-0.858,0.059-1.207,0.332s-0.537,0.634-0.582,1.09c-0.044,0.457,0.072,0.848,0.352,1.182
		c0.281,0.335,0.634,0.528,1.083,0.576C75.675,3.846,76.071,3.742,76.419,3.475L76.419,3.475z M79.435,1.187L79.435,1.187
		l-0.45,3.065l1.032,0.157c0.576,0.089,1.024,0.021,1.35-0.214c0.325-0.226,0.539-0.57,0.623-1.052
		c0.082-0.474-0.005-0.871-0.255-1.182c-0.249-0.319-0.646-0.522-1.207-0.609L79.435,1.187L79.435,1.187z M79.753,3.749
		L79.753,3.749l0.285-1.864l0.387,0.061c0.345,0.054,0.595,0.176,0.73,0.364c0.146,0.19,0.188,0.435,0.138,0.735
		c-0.05,0.302-0.17,0.521-0.363,0.644c-0.187,0.133-0.438,0.176-0.748,0.127L79.753,3.749L79.753,3.749z M84.832,4.453L84.832,4.453
		c-0.091-0.165-0.103-0.363-0.055-0.604l0.337-1.68l-0.689-0.135l-0.33,1.701c-0.085,0.44-0.029,0.794,0.171,1.082
		c0.189,0.285,0.47,0.468,0.844,0.544s0.702,0.022,1-0.163c0.286-0.179,0.479-0.491,0.575-0.93l0.37-1.693l-0.687-0.147
		l-0.356,1.676c-0.05,0.239-0.14,0.418-0.278,0.534c-0.148,0.114-0.312,0.154-0.499,0.115C85.048,4.716,84.913,4.615,84.832,4.453
		L84.832,4.453z M90.159,5.869L90.159,5.869c-0.235-0.06-0.418-0.203-0.544-0.411c-0.125-0.21-0.157-0.459-0.09-0.735
		c0.069-0.278,0.215-0.483,0.434-0.598c0.221-0.124,0.459-0.146,0.719-0.08c0.318,0.081,0.544,0.275,0.691,0.601l0.543-0.363
		c-0.239-0.462-0.609-0.763-1.101-0.887c-0.451-0.116-0.869-0.062-1.252,0.16c-0.373,0.223-0.621,0.561-0.729,1.008
		c-0.107,0.445-0.047,0.847,0.185,1.22c0.224,0.359,0.557,0.597,1.014,0.716c0.457,0.114,0.902,0.035,1.337-0.262l-0.302-0.555
		C90.778,5.891,90.48,5.951,90.159,5.869L90.159,5.869z M96.092,5.589L96.092,5.589l0.179-0.574
		c-0.789-0.243-1.581-0.483-2.376-0.71l-0.165,0.578l0.849,0.247l-0.709,2.396l0.654,0.194l0.724-2.392L96.092,5.589z"/>
	<polygon fill-rule="evenodd" clip-rule="evenodd" fill="#373737" points="53.245,45.586 62.959,42.191 72.673,45.586 
		72.673,48.771 72.673,51.957 62.959,55.353 53.245,51.957 53.245,48.771 	"/>
	<path fill="#373737" d="M37.867,48.993h0.553v1.326h0.495v-3.096H38.42v1.327h-0.553v-1.327h-0.486v3.096h0.486V48.993
		L37.867,48.993z M41.955,47.224h-0.712l-0.495,3.096h0.446l0.084-0.562h0.597l0.084,0.562h0.491L41.955,47.224L41.955,47.224z
		 M41.574,47.772l0.234,1.564h-0.468L41.574,47.772L41.574,47.772z M45.322,50.319h0.5v-3.096H45.39v1.854l-0.501-1.854h-0.61v3.096
		h0.438v-2.242L45.322,50.319L45.322,50.319z M47.779,50.319h0.77c0.243-0.001,0.424-0.066,0.545-0.196
		c0.12-0.131,0.18-0.32,0.18-0.568v-1.565c0-0.248-0.06-0.438-0.18-0.568c-0.121-0.131-0.302-0.196-0.545-0.197h-0.77V50.319
		L47.779,50.319z M48.539,47.666c0.053,0,0.097,0.009,0.134,0.028c0.037,0.021,0.064,0.053,0.085,0.096
		c0.019,0.045,0.029,0.103,0.029,0.177v1.609c0,0.073-0.011,0.132-0.029,0.176c-0.021,0.045-0.048,0.076-0.085,0.097
		c-0.037,0.02-0.081,0.029-0.134,0.028h-0.273v-2.211H48.539z"/>
	<path fill="#373737" d="M77.064,47.224h-0.677v3.096h0.425V48.13l0.363,2.189h0.46l0.336-2.22v2.22h0.46v-3.096h-0.677
		l-0.332,2.197L77.064,47.224L77.064,47.224z M81.472,47.224H80.76l-0.495,3.096h0.446l0.084-0.562h0.597l0.084,0.562h0.49
		L81.472,47.224L81.472,47.224z M81.091,47.772l0.234,1.564h-0.469L81.091,47.772L81.091,47.772z M83.8,50.319h0.77
		c0.242-0.001,0.424-0.066,0.545-0.196c0.12-0.131,0.18-0.32,0.18-0.568v-1.565c0-0.248-0.06-0.438-0.18-0.568
		c-0.121-0.131-0.303-0.196-0.545-0.197H83.8V50.319L83.8,50.319z M84.561,47.666c0.051,0,0.095,0.009,0.133,0.028
		c0.037,0.021,0.065,0.053,0.085,0.096c0.02,0.045,0.029,0.103,0.029,0.177v1.609c0,0.073-0.01,0.132-0.029,0.176
		c-0.02,0.045-0.048,0.076-0.085,0.097c-0.038,0.02-0.082,0.029-0.133,0.028h-0.274v-2.211H84.561L84.561,47.666z M87.697,47.666
		h0.84v-0.442h-1.326v3.096h1.326v-0.442h-0.84v-0.906h0.667v-0.441h-0.667V47.666z"/>
	<path fill="#FFFFFF" d="M56.974,50.581l-0.287,0.198v0.212c0.124,0,0.258,0,0.397,0s0.28,0,0.42,0c0.141,0,0.272,0,0.397,0v-0.212
		l-0.282-0.198c0-1.355,0-2.711,0-4.066c-0.127,0-0.247,0-0.354,0c-0.109,0-0.217,0-0.325,0c-0.107,0-0.223,0-0.351,0v0.269
		l0.384,0.121c0,0.614,0,1.228,0,1.839S56.974,49.968,56.974,50.581L56.974,50.581z M61.331,49.11c0,0.099,0,0.188,0,0.268
		s0,0.157,0,0.23s0,0.149,0,0.23c0,0.078,0,0.166,0,0.264c-0.001,0.179-0.045,0.316-0.131,0.412
		c-0.085,0.095-0.204,0.143-0.355,0.144c-0.101,0.001-0.188-0.016-0.261-0.051c-0.074-0.035-0.132-0.092-0.173-0.171
		s-0.062-0.185-0.065-0.315v-0.229H59.7v0.235c0.001,0.184,0.03,0.335,0.086,0.457c0.057,0.121,0.137,0.217,0.24,0.286
		c0.104,0.071,0.225,0.121,0.364,0.151c0.14,0.029,0.293,0.045,0.46,0.045c0.163,0,0.313-0.019,0.45-0.059
		c0.137-0.039,0.257-0.1,0.358-0.18c0.102-0.078,0.182-0.18,0.237-0.3c0.057-0.122,0.086-0.264,0.087-0.426c0-0.864,0-1.728,0-2.591
		c-0.001-0.176-0.03-0.328-0.087-0.458c-0.058-0.13-0.137-0.238-0.241-0.324c-0.104-0.085-0.227-0.149-0.368-0.19
		c-0.142-0.042-0.298-0.063-0.468-0.063s-0.327,0.022-0.473,0.066c-0.144,0.044-0.269,0.11-0.376,0.197
		c-0.107,0.088-0.19,0.198-0.251,0.331c-0.059,0.13-0.089,0.284-0.09,0.461v0.914c0.002,0.175,0.033,0.324,0.096,0.449
		c0.062,0.126,0.144,0.228,0.247,0.306c0.104,0.079,0.218,0.134,0.343,0.168c0.124,0.033,0.251,0.045,0.378,0.036
		c0.128-0.009,0.247-0.039,0.358-0.088C61.162,49.267,61.256,49.198,61.331,49.11L61.331,49.11L61.331,49.11z M61.324,48.433
		c-0.001,0.139-0.026,0.253-0.076,0.345c-0.05,0.09-0.112,0.157-0.189,0.201c-0.078,0.045-0.161,0.066-0.249,0.065
		c-0.088-0.002-0.169-0.024-0.249-0.069c-0.077-0.047-0.14-0.113-0.189-0.202c-0.05-0.087-0.075-0.197-0.076-0.327v-0.914
		c0-0.118,0.018-0.227,0.055-0.321s0.094-0.17,0.171-0.227c0.078-0.055,0.177-0.084,0.299-0.085c0.103,0,0.191,0.021,0.268,0.066
		c0.075,0.044,0.133,0.112,0.175,0.203c0.042,0.09,0.062,0.206,0.062,0.344V48.433L61.324,48.433z M65.585,49.11
		c0,0.099,0,0.188,0,0.268s0,0.157,0,0.23s0,0.149,0,0.23c0,0.078,0,0.166,0,0.264c-0.001,0.179-0.045,0.316-0.13,0.412
		c-0.086,0.095-0.205,0.143-0.356,0.144c-0.1,0.001-0.187-0.016-0.261-0.051c-0.073-0.035-0.132-0.092-0.173-0.171
		c-0.04-0.079-0.062-0.185-0.064-0.315v-0.229h-0.646v0.235c0.001,0.184,0.03,0.335,0.087,0.457
		c0.056,0.121,0.136,0.217,0.239,0.286c0.104,0.071,0.226,0.121,0.365,0.151c0.139,0.029,0.292,0.045,0.46,0.045
		c0.162,0,0.312-0.019,0.45-0.059c0.137-0.039,0.256-0.1,0.357-0.18c0.102-0.078,0.182-0.18,0.238-0.3
		c0.056-0.122,0.085-0.264,0.086-0.426c0-0.864,0-1.728,0-2.591c-0.001-0.176-0.03-0.328-0.086-0.458
		c-0.059-0.13-0.138-0.238-0.241-0.324c-0.104-0.085-0.227-0.149-0.368-0.19c-0.143-0.042-0.298-0.063-0.468-0.063
		c-0.171,0-0.328,0.022-0.474,0.066c-0.144,0.044-0.269,0.11-0.376,0.197c-0.107,0.088-0.19,0.198-0.25,0.331
		c-0.06,0.13-0.09,0.284-0.091,0.461v0.914c0.002,0.175,0.033,0.324,0.096,0.449c0.062,0.126,0.145,0.228,0.248,0.306
		c0.103,0.079,0.217,0.134,0.342,0.168c0.125,0.033,0.251,0.045,0.379,0.036c0.127-0.009,0.247-0.039,0.357-0.088
		C65.417,49.267,65.511,49.198,65.585,49.11L65.585,49.11L65.585,49.11z M65.578,48.433c0,0.139-0.025,0.253-0.075,0.345
		c-0.051,0.09-0.113,0.157-0.19,0.201c-0.078,0.045-0.161,0.066-0.249,0.065c-0.087-0.002-0.169-0.024-0.248-0.069
		c-0.078-0.047-0.141-0.113-0.189-0.202c-0.051-0.087-0.076-0.197-0.077-0.327v-0.914c0-0.118,0.019-0.227,0.056-0.321
		c0.036-0.095,0.094-0.17,0.171-0.227c0.077-0.055,0.177-0.084,0.299-0.085c0.103,0,0.191,0.021,0.267,0.066
		c0.076,0.044,0.134,0.112,0.176,0.203c0.041,0.09,0.062,0.206,0.062,0.344V48.433L65.578,48.433z M68.401,50.581l-0.289,0.198
		v0.212c0.125,0,0.259,0,0.397,0c0.14,0,0.281,0,0.421,0c0.141,0,0.272,0,0.397,0v-0.212l-0.281-0.198c0-1.355,0-2.711,0-4.066
		c-0.128,0-0.247,0-0.355,0s-0.217,0-0.323,0c-0.108,0-0.225,0-0.352,0v0.269l0.385,0.121c0,0.614,0,1.228,0,1.839
		S68.401,49.968,68.401,50.581z"/>
</g>
</svg>
