<?xml version="1.0" encoding="utf-8"?>
<!-- Generator: Adobe Illustrator 16.0.0, SVG Export Plug-In . SVG Version: 6.00 Build 0)  -->
<!DOCTYPE svg PUBLIC "-//W3C//DTD SVG 1.1//EN" "http://www.w3.org/Graphics/SVG/1.1/DTD/svg11.dtd">
<svg version="1.1" id="Layer_1" xmlns="http://www.w3.org/2000/svg" xmlns:xlink="http://www.w3.org/1999/xlink" x="0px" y="0px"
	 width="127.253px" height="69.024px" viewBox="0 0 127.253 69.024" enable-background="new 0 0 127.253 69.024"
	 xml:space="preserve">
<g>
	<path fill="#363837" d="M77.709,15.691L77.709,15.691c0.077,0.242-0.008,0.507-0.213,0.657l-5.25,3.84l1.328,3.096
		c0.093,0.218,0.048,0.467-0.115,0.64c-0.161,0.169-0.411,0.226-0.63,0.144l-4.822-1.808l-0.276,1.373
		c-0.042,0.213-0.197,0.384-0.406,0.447c-0.206,0.062-0.433,0.006-0.585-0.147l-3.112-3.112l-3.112,3.112
		c-0.152,0.154-0.377,0.21-0.586,0.147c-0.207-0.063-0.363-0.234-0.406-0.447l-0.274-1.373l-4.823,1.808
		c-0.067,0.025-0.137,0.037-0.206,0.037c-0.159,0-0.312-0.063-0.426-0.18c-0.163-0.172-0.208-0.422-0.115-0.639l1.33-3.097
		l-5.252-3.84c-0.207-0.15-0.29-0.415-0.211-0.657c0.079-0.241,0.304-0.404,0.559-0.404h1.536l-1.504-4.513
		c-0.006-0.016-0.011-0.034-0.016-0.052c-0.017-0.07-0.021-0.143-0.013-0.212c0.009-0.066,0.029-0.132,0.062-0.194
		c0.029-0.057,0.068-0.109,0.113-0.156c0.041-0.039,0.087-0.071,0.134-0.097h0.001c0.066-0.036,0.137-0.057,0.209-0.065
		c0.067-0.007,0.136-0.004,0.204,0.013c0.02,0.005,0.037,0.009,0.054,0.016l4.513,1.503V9.994c0-0.254,0.164-0.479,0.403-0.558
		c0.244-0.081,0.509,0.006,0.658,0.211l2.875,3.932l-2.733-8.7c-0.069-0.216-0.006-0.453,0.16-0.607
		c0.167-0.155,0.408-0.199,0.62-0.115l2.495,0.998l3.264-4.895C63.247,0.097,63.43,0,63.627,0c0.197,0,0.381,0.097,0.49,0.26
		l3.263,4.895l2.496-0.998c0.211-0.084,0.454-0.04,0.619,0.115c0.167,0.154,0.229,0.391,0.161,0.607l-2.733,8.7l2.875-3.932
		c0.149-0.206,0.415-0.292,0.656-0.211c0.241,0.079,0.405,0.304,0.405,0.558v1.536l4.518-1.505c0.211-0.07,0.445-0.016,0.603,0.142
		c0.158,0.158,0.213,0.39,0.142,0.6l-1.506,4.521h1.536C77.404,15.287,77.629,15.45,77.709,15.691L77.709,15.691z M63.626,22.342
		c-0.325,0-0.587,0.264-0.587,0.588v4.703c0,0.325,0.263,0.588,0.587,0.588c0.325,0,0.587-0.263,0.587-0.588V22.93
		C64.214,22.605,63.952,22.342,63.626,22.342z"/>
	<path fill="#363837" d="M0,46.055V44.29h0.624c0.411,0,0.679-0.045,0.81-0.145c0.13-0.096,0.194-0.375,0.194-0.832v-0.089v-6.792
		c0-0.481-0.061-0.781-0.182-0.893c-0.121-0.11-0.398-0.167-0.84-0.167H0v-1.755h7.482c1.626,0,2.816,0.234,3.572,0.708
		c0.757,0.469,1.137,1.207,1.137,2.218c0,0.686-0.219,1.282-0.661,1.783c-0.439,0.5-1.076,0.883-1.909,1.149
		c1.081,0.235,1.885,0.612,2.413,1.131c0.528,0.519,0.791,1.198,0.791,2.036c0,1.218-0.424,2.093-1.272,2.62
		c-0.847,0.529-2.271,0.792-4.268,0.792H0L0,46.055z M5.729,44.309h0.797c0.753,0,1.294-0.158,1.622-0.47
		c0.324-0.315,0.488-0.831,0.488-1.548c0-0.658-0.173-1.143-0.516-1.458c-0.346-0.312-0.884-0.469-1.613-0.469H5.729V44.309
		L5.729,44.309z M5.729,38.735h0.679c0.659,0,1.138-0.136,1.441-0.411c0.299-0.275,0.451-0.708,0.451-1.292
		c0-0.582-0.14-0.996-0.42-1.248C7.598,35.534,7.127,35.41,6.47,35.41H5.729V38.735L5.729,38.735z M22.703,41.918
		c0,0.96,0.148,1.631,0.448,2.017c0.3,0.387,0.804,0.582,1.517,0.582c0.847,0,1.453-0.192,1.82-0.571
		c0.369-0.38,0.554-1.005,0.554-1.874v-5.638c0-0.488-0.063-0.788-0.183-0.897c-0.121-0.106-0.396-0.163-0.832-0.163h-0.633v-1.755
		h5.766v1.755h-0.571c-0.433,0-0.714,0.056-0.837,0.167c-0.124,0.112-0.186,0.393-0.186,0.837v6.004c0,1.325-0.479,2.335-1.44,3.027
		c-0.958,0.689-2.363,1.035-4.217,1.035c-1.684,0-2.987-0.34-3.911-1.023c-0.923-0.683-1.384-1.644-1.384-2.889v-6.099
		c0-0.473-0.065-0.767-0.192-0.883c-0.126-0.118-0.408-0.176-0.849-0.176h-0.633v-1.755h7.496v1.755h-0.689
		c-0.445,0-0.731,0.059-0.855,0.176c-0.124,0.117-0.186,0.411-0.186,0.883V41.918L22.703,41.918z M35.58,41.476h1.792
		c0.297,0.958,0.785,1.708,1.47,2.249c0.687,0.541,1.493,0.81,2.423,0.81c0.559,0,1.01-0.121,1.347-0.358
		c0.337-0.238,0.508-0.551,0.508-0.936c0-0.597-0.733-1.097-2.2-1.502c-0.476-0.127-0.851-0.231-1.122-0.318
		c-0.881-0.266-1.561-0.491-2.036-0.677c-0.479-0.188-0.821-0.365-1.032-0.525c-0.503-0.374-0.871-0.791-1.109-1.245
		c-0.237-0.458-0.358-0.973-0.358-1.555c0-1.248,0.463-2.258,1.39-3.025c0.927-0.767,2.151-1.15,3.671-1.15
		c0.772,0,1.493,0.075,2.163,0.226c0.671,0.151,1.319,0.383,1.947,0.699l0.336-0.624h1.783v4.32H44.46
		c-0.204-0.884-0.59-1.539-1.159-1.973c-0.568-0.432-1.326-0.648-2.274-0.648c-0.553,0-1.01,0.125-1.372,0.38
		c-0.358,0.253-0.537,0.565-0.537,0.933c0,0.557,0.689,0.976,2.064,1.261c0.336,0.074,0.599,0.13,0.787,0.173
		c1.919,0.442,3.266,0.989,4.039,1.644c0.772,0.655,1.159,1.545,1.159,2.673c0,1.253-0.475,2.255-1.425,3
		c-0.951,0.744-2.233,1.118-3.843,1.118c-0.736,0-1.446-0.083-2.129-0.25c-0.679-0.164-1.356-0.417-2.026-0.754l-0.46,0.689H35.58
		V41.476L35.58,41.476z M58.673,33.619v1.755h-0.606c-0.448,0-0.733,0.059-0.856,0.176c-0.124,0.117-0.185,0.411-0.185,0.883v6.789
		c0,0.478,0.065,0.775,0.191,0.893c0.126,0.117,0.408,0.175,0.85,0.175h0.606v1.765h-7.394V44.29h0.615
		c0.436,0,0.716-0.059,0.844-0.175c0.126-0.118,0.188-0.415,0.188-0.893v-6.789c0-0.473-0.062-0.767-0.186-0.883
		c-0.123-0.118-0.405-0.176-0.847-0.176h-0.615v-1.755H58.673L58.673,33.619z M68.763,33.619l4.582,8.373v-5.558
		c0-0.5-0.065-0.803-0.194-0.905c-0.13-0.103-0.404-0.155-0.829-0.155h-0.707v-1.755h5.468v1.755h-0.444
		c-0.432,0-0.714,0.056-0.837,0.167c-0.123,0.112-0.185,0.412-0.185,0.893v9.622h-4.265l-4.834-8.917v6.083
		c0,0.484,0.062,0.782,0.185,0.896c0.124,0.114,0.405,0.172,0.837,0.172h0.553v1.765h-5.484V44.29h0.606
		c0.441,0,0.726-0.059,0.853-0.175c0.126-0.118,0.188-0.415,0.188-0.893v-6.789c0-0.473-0.062-0.767-0.186-0.883
		c-0.124-0.118-0.408-0.176-0.855-0.176h-0.606v-1.755H68.763L68.763,33.619z M94.015,33.619v4.635h-1.974
		c-0.127-0.603-0.264-1.076-0.402-1.412c-0.142-0.341-0.315-0.612-0.522-0.816c-0.234-0.235-0.521-0.401-0.858-0.504
		c-0.34-0.099-0.887-0.148-1.641-0.148h-0.371h-1.594v3.415h0.479c0.562,0,0.957-0.136,1.183-0.408
		c0.225-0.273,0.34-0.755,0.34-1.45v-0.108h1.558v5.676h-1.558c-0.025-0.868-0.136-1.434-0.34-1.693
		c-0.201-0.259-0.59-0.389-1.165-0.389h-0.498v3.874h2.2c0.853,0,1.439-0.052,1.761-0.154c0.324-0.102,0.574-0.278,0.747-0.525
		c0.195-0.293,0.346-0.654,0.458-1.082c0.111-0.427,0.185-0.96,0.223-1.605h2.044v5.131H80.961V44.29h0.624
		c0.411,0,0.68-0.05,0.809-0.145c0.129-0.096,0.195-0.375,0.195-0.832v-0.092v-6.789c0-0.481-0.063-0.781-0.182-0.893
		c-0.121-0.11-0.399-0.167-0.841-0.167h-0.605v-1.755H94.015L94.015,33.619z M99.351,41.476h1.792
		c0.295,0.958,0.785,1.708,1.47,2.249c0.686,0.541,1.493,0.81,2.423,0.81c0.559,0,1.01-0.121,1.347-0.358
		c0.337-0.238,0.507-0.551,0.507-0.936c0-0.597-0.732-1.097-2.199-1.502c-0.476-0.127-0.851-0.231-1.122-0.318
		c-0.881-0.266-1.56-0.491-2.036-0.677c-0.479-0.188-0.822-0.365-1.032-0.525c-0.504-0.374-0.872-0.791-1.109-1.245
		c-0.239-0.458-0.358-0.973-0.358-1.555c0-1.248,0.463-2.258,1.39-3.025c0.927-0.767,2.15-1.15,3.671-1.15
		c0.772,0,1.492,0.075,2.163,0.226s1.319,0.383,1.946,0.699l0.337-0.624h1.782v4.32h-2.091c-0.204-0.884-0.59-1.539-1.158-1.973
		c-0.569-0.432-1.326-0.648-2.274-0.648c-0.552,0-1.01,0.125-1.372,0.38c-0.358,0.253-0.538,0.565-0.538,0.933
		c0,0.557,0.689,0.976,2.065,1.261c0.336,0.074,0.599,0.13,0.787,0.173c1.919,0.442,3.266,0.989,4.039,1.644
		c0.772,0.655,1.158,1.545,1.158,2.673c0,1.253-0.475,2.255-1.424,3c-0.951,0.744-2.233,1.118-3.844,1.118
		c-0.735,0-1.445-0.083-2.128-0.25c-0.68-0.164-1.356-0.417-2.026-0.754l-0.461,0.689h-1.702V41.476L99.351,41.476z M115.667,41.476
		h1.792c0.296,0.958,0.785,1.708,1.471,2.249c0.686,0.541,1.492,0.81,2.422,0.81c0.559,0,1.01-0.121,1.347-0.358
		c0.337-0.238,0.508-0.551,0.508-0.936c0-0.597-0.733-1.097-2.2-1.502c-0.477-0.127-0.85-0.231-1.122-0.318
		c-0.88-0.266-1.561-0.491-2.036-0.677c-0.479-0.188-0.822-0.365-1.033-0.525c-0.503-0.374-0.872-0.791-1.109-1.245
		c-0.237-0.458-0.358-0.973-0.358-1.555c0-1.248,0.464-2.258,1.39-3.025c0.927-0.767,2.151-1.15,3.671-1.15
		c0.772,0,1.493,0.075,2.163,0.226c0.67,0.151,1.319,0.383,1.946,0.699l0.337-0.624h1.783v4.32h-2.092
		c-0.204-0.884-0.59-1.539-1.159-1.973c-0.569-0.432-1.325-0.648-2.274-0.648c-0.553,0-1.01,0.125-1.372,0.38
		c-0.358,0.253-0.537,0.565-0.537,0.933c0,0.557,0.689,0.976,2.063,1.261c0.337,0.074,0.6,0.13,0.789,0.173
		c1.918,0.442,3.266,0.989,4.038,1.644s1.159,1.545,1.159,2.673c0,1.253-0.476,2.255-1.424,3c-0.952,0.744-2.234,1.118-3.844,1.118
		c-0.735,0-1.446-0.083-2.129-0.25c-0.68-0.164-1.356-0.417-2.027-0.754l-0.46,0.689h-1.703V41.476z"/>
	<polygon fill="#363837" points="84.553,61.974 83.216,65.295 84.553,68.618 84.716,69.024 84.278,69.024 42.976,69.024 
		42.538,69.024 42.701,68.618 44.037,65.295 42.701,61.974 42.538,61.567 42.976,61.567 84.278,61.567 84.716,61.567 	"/>
	<path fill="#FFFFFF" d="M50.491,65.296c0,0.191-0.035,0.37-0.105,0.535c-0.07,0.167-0.171,0.314-0.305,0.446
		c-0.135,0.13-0.289,0.229-0.461,0.3c-0.173,0.07-0.353,0.106-0.54,0.106c-0.189,0-0.37-0.036-0.542-0.106s-0.325-0.17-0.455-0.3
		c-0.137-0.131-0.239-0.28-0.31-0.447c-0.07-0.167-0.105-0.345-0.105-0.534s0.035-0.365,0.105-0.532
		c0.071-0.167,0.173-0.315,0.31-0.446c0.13-0.131,0.283-0.23,0.455-0.301s0.353-0.105,0.542-0.105c0.188,0,0.368,0.034,0.542,0.105
		c0.173,0.071,0.326,0.17,0.458,0.301c0.132,0.129,0.233,0.278,0.304,0.445C50.456,64.931,50.491,65.108,50.491,65.296
		L50.491,65.296z M49.08,66.073c0.2,0,0.365-0.074,0.495-0.22c0.131-0.148,0.196-0.333,0.196-0.557c0-0.221-0.066-0.404-0.198-0.553
		c-0.132-0.148-0.296-0.221-0.492-0.221c-0.2,0-0.365,0.073-0.496,0.221c-0.13,0.147-0.196,0.333-0.196,0.554
		c0,0.227,0.064,0.413,0.193,0.559C48.71,66.001,48.877,66.073,49.08,66.073L49.08,66.073z M51.668,66.612v-2.641h0.753
		c0.294,0,0.5,0.015,0.616,0.042c0.115,0.026,0.216,0.073,0.3,0.136c0.095,0.071,0.168,0.164,0.219,0.275
		c0.05,0.113,0.076,0.236,0.076,0.37c0,0.205-0.049,0.371-0.149,0.5c-0.102,0.128-0.248,0.212-0.439,0.254l0.719,1.064h-0.813
		l-0.606-1.034v1.034H51.668L51.668,66.612z M52.343,65.221h0.133c0.155,0,0.269-0.027,0.34-0.081
		c0.071-0.052,0.106-0.136,0.106-0.248c0-0.133-0.033-0.227-0.1-0.282c-0.067-0.057-0.178-0.085-0.336-0.085h-0.145V65.221
		L52.343,65.221z M54.782,66.612v-2.641h0.727v2.641H54.782L54.782,66.612z M58.071,65.64v-0.554h1.415
		c0.001,0.017,0.003,0.038,0.003,0.06c0,0.021,0,0.053,0,0.096c0,0.455-0.12,0.807-0.359,1.057
		c-0.241,0.251-0.578,0.376-1.014,0.376c-0.214,0-0.404-0.032-0.569-0.096c-0.168-0.064-0.316-0.162-0.447-0.295
		c-0.126-0.126-0.223-0.277-0.292-0.448c-0.069-0.173-0.104-0.354-0.104-0.543c0-0.196,0.034-0.378,0.102-0.543
		c0.066-0.166,0.167-0.314,0.301-0.445c0.132-0.129,0.284-0.227,0.455-0.294c0.17-0.065,0.355-0.098,0.554-0.098
		c0.259,0,0.488,0.051,0.687,0.153c0.199,0.102,0.367,0.254,0.502,0.457l-0.624,0.299c-0.074-0.103-0.158-0.178-0.251-0.229
		c-0.094-0.049-0.197-0.075-0.313-0.075c-0.214,0-0.384,0.072-0.507,0.216c-0.125,0.143-0.187,0.34-0.187,0.589
		c0,0.251,0.062,0.449,0.187,0.594c0.123,0.145,0.293,0.216,0.507,0.216c0.184,0,0.336-0.043,0.458-0.134
		c0.121-0.089,0.193-0.209,0.212-0.358H58.071L58.071,65.64z M60.675,66.612v-2.641h0.728v2.641H60.675L60.675,66.612z
		 M62.709,66.612v-2.641h0.695l0.997,1.359c0.019,0.028,0.05,0.083,0.095,0.167c0.043,0.083,0.091,0.182,0.144,0.299
		c-0.014-0.11-0.024-0.207-0.031-0.293c-0.006-0.085-0.01-0.16-0.01-0.227v-1.305h0.691v2.641H64.6l-0.997-1.364
		c-0.021-0.028-0.053-0.083-0.097-0.167c-0.044-0.083-0.091-0.182-0.144-0.295c0.015,0.111,0.025,0.209,0.032,0.295
		c0.007,0.084,0.011,0.161,0.011,0.227v1.304H62.709L62.709,66.612z M67.283,65.626h0.716l-0.269-0.872
		c-0.008-0.026-0.021-0.069-0.034-0.129c-0.015-0.058-0.034-0.134-0.057-0.227c-0.015,0.065-0.031,0.126-0.046,0.186
		c-0.015,0.06-0.03,0.116-0.045,0.169L67.283,65.626L67.283,65.626z M66.274,66.612l0.911-2.641h0.902L69,66.612h-0.716L68.15,66.14
		h-1.023l-0.137,0.472H66.274L66.274,66.612z M69.979,66.612v-2.641h0.72v2.024h0.895v0.617H69.979L69.979,66.612z M75.742,64.073
		v0.788c-0.098-0.11-0.196-0.19-0.295-0.242c-0.098-0.051-0.203-0.076-0.314-0.076c-0.207,0-0.374,0.071-0.502,0.212
		c-0.128,0.141-0.192,0.325-0.192,0.553c0,0.211,0.065,0.387,0.196,0.526c0.13,0.14,0.296,0.21,0.499,0.21
		c0.112,0,0.217-0.026,0.314-0.078c0.099-0.051,0.197-0.131,0.295-0.242v0.789c-0.114,0.054-0.227,0.097-0.341,0.125
		c-0.112,0.028-0.227,0.041-0.342,0.041c-0.145,0-0.278-0.017-0.4-0.051c-0.121-0.034-0.234-0.086-0.336-0.156
		c-0.198-0.132-0.348-0.298-0.451-0.5c-0.104-0.201-0.155-0.427-0.155-0.679c0-0.202,0.033-0.386,0.099-0.551
		c0.066-0.166,0.165-0.316,0.296-0.45c0.125-0.128,0.267-0.225,0.423-0.289c0.157-0.063,0.331-0.095,0.524-0.095
		c0.115,0,0.23,0.014,0.342,0.042C75.515,63.977,75.627,64.02,75.742,64.073L75.742,64.073z M79.586,65.296
		c0,0.191-0.035,0.37-0.104,0.535c-0.069,0.167-0.171,0.314-0.305,0.446c-0.135,0.13-0.289,0.229-0.462,0.3s-0.353,0.106-0.54,0.106
		c-0.188,0-0.369-0.036-0.542-0.106s-0.325-0.17-0.456-0.3c-0.136-0.131-0.239-0.28-0.31-0.447
		c-0.071-0.167-0.105-0.345-0.105-0.534s0.035-0.365,0.105-0.532s0.173-0.315,0.31-0.446c0.13-0.131,0.283-0.23,0.456-0.301
		s0.353-0.105,0.542-0.105c0.188,0,0.369,0.034,0.542,0.105c0.174,0.071,0.327,0.17,0.459,0.301
		c0.132,0.129,0.233,0.278,0.304,0.445C79.551,64.931,79.586,65.108,79.586,65.296L79.586,65.296z M78.175,66.073
		c0.2,0,0.366-0.074,0.496-0.22c0.131-0.148,0.196-0.333,0.196-0.557c0-0.221-0.065-0.404-0.198-0.553
		c-0.133-0.148-0.297-0.221-0.493-0.221c-0.199,0-0.364,0.073-0.495,0.221c-0.13,0.147-0.196,0.333-0.196,0.554
		c0,0.227,0.064,0.413,0.194,0.559C77.807,66.001,77.973,66.073,78.175,66.073z"/>
	<path fill-rule="evenodd" clip-rule="evenodd" fill="#363837" d="M86.455,64.76c-0.296,0-0.536,0.24-0.536,0.535
		c0,0.296,0.24,0.537,0.536,0.537s0.537-0.24,0.537-0.537C86.991,65,86.751,64.76,86.455,64.76L86.455,64.76z M40.798,64.76
		c-0.296,0-0.536,0.24-0.536,0.535c0,0.296,0.24,0.537,0.536,0.537c0.296,0,0.537-0.24,0.537-0.537
		C41.334,65,41.094,64.76,40.798,64.76z"/>
	<path fill="#363837" d="M9.999,54.105v1.616l-0.275,0.217v0.23c0.128,0,0.267,0,0.417,0c0.151,0,0.3,0,0.452,0s0.293,0,0.426,0
		v-0.23l-0.282-0.217v-1.706l0.856-2.221l0.253-0.126v-0.193h-0.989v0.193l0.252,0.126l-0.617,1.588l-0.617-1.618
		c-0.029-0.075-0.057-0.133-0.086-0.174c-0.028-0.042-0.067-0.073-0.115-0.089c-0.046-0.019-0.111-0.027-0.193-0.027H8.861v0.201
		l0.179,0.068L9.999,54.105L9.999,54.105z M18.932,52.65c-0.001-0.254-0.057-0.475-0.167-0.661
		c-0.111-0.188-0.267-0.332-0.469-0.434c-0.202-0.102-0.442-0.153-0.718-0.155c-0.276,0.001-0.516,0.053-0.718,0.157
		c-0.202,0.103-0.359,0.247-0.469,0.434c-0.111,0.187-0.166,0.407-0.167,0.659c0,0.39,0,0.779,0,1.167c0,0.389,0,0.777,0,1.169
		c0.001,0.251,0.057,0.471,0.167,0.658c0.11,0.186,0.267,0.332,0.469,0.434c0.202,0.104,0.441,0.156,0.718,0.158
		c0.276-0.001,0.516-0.054,0.718-0.155c0.202-0.104,0.358-0.247,0.469-0.434c0.11-0.186,0.166-0.407,0.167-0.661V52.65L18.932,52.65
		z M16.953,52.65c-0.001-0.26,0.05-0.456,0.15-0.586c0.102-0.131,0.261-0.196,0.475-0.196c0.144,0.002,0.263,0.039,0.356,0.108
		c0.094,0.069,0.162,0.163,0.208,0.28c0.046,0.118,0.068,0.249,0.068,0.394c0,0.39,0,0.779,0,1.167c0,0.389,0,0.777,0,1.169
		c0,0.142-0.021,0.273-0.068,0.39c-0.046,0.117-0.114,0.212-0.208,0.283c-0.093,0.069-0.212,0.106-0.356,0.107
		c-0.214,0-0.374-0.067-0.475-0.198c-0.1-0.132-0.151-0.326-0.15-0.582V52.65L16.953,52.65z M25.916,54.987
		c0.001,0.155-0.02,0.291-0.062,0.403c-0.043,0.111-0.112,0.198-0.209,0.258c-0.095,0.06-0.225,0.091-0.385,0.091
		c-0.13,0.001-0.245-0.025-0.34-0.072c-0.096-0.049-0.169-0.129-0.222-0.241c-0.051-0.111-0.078-0.257-0.078-0.438
		c0-0.517,0-1.035,0-1.55c0-0.518,0-1.032,0-1.545l0.283-0.216v-0.201c-0.13,0-0.271,0-0.424,0c-0.151,0-0.302,0-0.454,0
		c-0.152,0-0.294,0-0.424,0v0.201l0.283,0.216c0,0.514,0,1.028,0,1.545c0,0.516,0,1.033,0,1.55c0.001,0.216,0.035,0.403,0.102,0.563
		c0.066,0.158,0.157,0.286,0.274,0.387c0.117,0.102,0.252,0.178,0.405,0.227c0.153,0.049,0.317,0.073,0.49,0.073
		s0.338-0.023,0.489-0.073c0.152-0.049,0.285-0.125,0.399-0.227c0.116-0.101,0.206-0.229,0.271-0.387
		c0.064-0.16,0.098-0.347,0.099-0.563c0-0.521,0-1.04,0-1.555c0-0.518,0-1.036,0-1.556l0.245-0.187v-0.215c-0.167,0-0.333,0-0.497,0
		c-0.165,0-0.329,0-0.492,0v0.215l0.245,0.187V54.987L25.916,54.987z M32.631,51.907c0.15,0,0.269,0.026,0.356,0.079
		s0.149,0.128,0.186,0.227c0.038,0.099,0.055,0.218,0.054,0.356c0,0.098,0,0.199,0,0.303c0,0.104,0,0.206,0,0.307
		c0.001,0.14-0.019,0.259-0.058,0.358c-0.04,0.098-0.104,0.174-0.194,0.225c-0.088,0.053-0.207,0.08-0.351,0.08h-0.41
		c0-0.18,0-0.347,0-0.504c0-0.159,0-0.313,0-0.463s0-0.305,0-0.462c0-0.158,0-0.326,0-0.504H32.631L32.631,51.907z M33.16,55.553
		c0.032,0.089,0.062,0.173,0.092,0.253c0.028,0.08,0.061,0.149,0.101,0.209s0.093,0.108,0.159,0.141
		c0.066,0.035,0.151,0.05,0.257,0.05c0.051,0,0.106-0.003,0.165-0.009c0.059-0.005,0.117-0.016,0.175-0.027
		c0.059-0.014,0.111-0.031,0.159-0.054v-0.274c-0.053,0.009-0.098,0.003-0.139-0.019c-0.041-0.021-0.077-0.052-0.108-0.092
		c-0.031-0.041-0.057-0.086-0.08-0.134c-0.024-0.048-0.043-0.094-0.06-0.14c-0.052-0.144-0.104-0.287-0.156-0.429
		c-0.053-0.142-0.104-0.284-0.157-0.429c-0.023-0.067-0.05-0.126-0.08-0.179c-0.03-0.052-0.067-0.099-0.112-0.142
		c-0.044-0.042-0.098-0.08-0.166-0.118c0.143-0.029,0.271-0.085,0.382-0.167c0.111-0.082,0.2-0.19,0.262-0.325
		c0.064-0.137,0.098-0.299,0.1-0.491c0-0.101,0-0.203,0-0.307c0-0.104,0-0.205,0-0.303c-0.001-0.206-0.036-0.38-0.105-0.52
		c-0.069-0.14-0.165-0.252-0.286-0.336c-0.122-0.085-0.262-0.146-0.422-0.183c-0.158-0.037-0.329-0.056-0.511-0.055H31.27v0.201
		l0.238,0.186c0,0.646,0,1.293,0,1.947c0,0.65,0,1.301,0,1.945l-0.283,0.208v0.202c0.131,0,0.27,0,0.417,0c0.146,0,0.294,0,0.441,0
		c0.148,0,0.289,0,0.421,0V55.96l-0.282-0.208c0-0.106,0-0.225,0-0.355s0-0.264,0-0.402c0-0.136,0-0.27,0-0.398s0-0.244,0-0.347
		c0.095,0,0.176,0.006,0.239,0.02c0.064,0.014,0.118,0.039,0.162,0.072c0.042,0.033,0.079,0.078,0.111,0.136
		c0.034,0.057,0.066,0.129,0.098,0.216L33.16,55.553L33.16,55.553z M40.954,52.858l-0.037-0.848h0.097
		c0.079,0.44,0.155,0.876,0.227,1.308c0.073,0.431,0.144,0.862,0.213,1.293c0.068,0.433,0.137,0.87,0.207,1.312
		c0.011,0.067,0.036,0.116,0.073,0.146c0.037,0.033,0.093,0.046,0.167,0.046h0.586l0.708-4.158h0.023v0.677c0-0.002,0-0.001,0,0.006
		c0,0.007,0,0.026,0,0.062c0,0.032,0,0.091,0,0.17s0,0.192,0,0.337c0,0.144,0,0.329,0,0.557c0,0.227,0,0.504,0,0.832
		s0,0.716,0,1.162l-0.283,0.209v0.2h1.287v-0.2l-0.282-0.209v-3.899l0.253-0.186v-0.201H43.17c-0.084-0.001-0.154,0.005-0.208,0.018
		c-0.053,0.012-0.094,0.04-0.124,0.081c-0.029,0.042-0.053,0.107-0.069,0.191l-0.565,3.519h-0.015
		c-0.026-0.26-0.054-0.507-0.082-0.737c-0.028-0.231-0.056-0.458-0.086-0.674c-0.029-0.218-0.062-0.436-0.096-0.653
		c-0.034-0.218-0.071-0.442-0.111-0.676c-0.04-0.232-0.084-0.479-0.131-0.741c-0.024-0.099-0.055-0.17-0.093-0.217
		c-0.039-0.047-0.091-0.078-0.157-0.091c-0.065-0.014-0.151-0.02-0.257-0.019h-0.974v0.201l0.253,0.186v3.906l-0.268,0.187v0.215
		h1.035v-0.215l-0.268-0.187V52.858L40.954,52.858z M51.337,56.169v-1.048h-0.313l-0.237,0.625h-1.109v-0.038
		c0.059-0.018,0.098-0.044,0.12-0.075c0.021-0.034,0.03-0.078,0.029-0.133v-1.451h0.61l0.186,0.342h0.208v-1.13h-0.208l-0.186,0.365
		h-0.61v-1.734h0.878l0.193,0.632h0.35v-1.049h-2.396v0.179l0.245,0.186v3.92l-0.29,0.209v0.2H51.337L51.337,56.169z M56.721,55.217
		v-0.372h-0.796v0.364c0.001,0.181,0.035,0.336,0.098,0.466c0.065,0.131,0.154,0.238,0.266,0.322
		c0.112,0.084,0.242,0.146,0.386,0.185c0.146,0.042,0.299,0.062,0.463,0.062c0.16,0,0.315-0.018,0.464-0.054
		c0.149-0.039,0.284-0.097,0.404-0.179c0.122-0.08,0.216-0.186,0.287-0.317c0.071-0.131,0.108-0.29,0.109-0.477v-0.572
		c-0.001-0.176-0.034-0.324-0.094-0.443c-0.061-0.12-0.141-0.219-0.242-0.296c-0.101-0.079-0.211-0.145-0.331-0.197
		c-0.121-0.053-0.242-0.103-0.363-0.146c-0.119-0.043-0.23-0.092-0.331-0.143c-0.1-0.051-0.181-0.113-0.242-0.186
		c-0.061-0.074-0.093-0.167-0.094-0.28v-0.572c0-0.155,0.037-0.275,0.111-0.36c0.075-0.087,0.187-0.13,0.335-0.132
		c0.153,0,0.27,0.042,0.352,0.125c0.082,0.083,0.123,0.204,0.124,0.366v0.349h0.722c0-0.211,0-0.424,0-0.635c0-0.212,0-0.422,0-0.63
		h-0.477l-0.053,0.238h-0.029c-0.074-0.078-0.154-0.138-0.238-0.18c-0.083-0.041-0.169-0.067-0.256-0.082
		c-0.087-0.014-0.173-0.021-0.257-0.02c-0.138,0-0.269,0.016-0.397,0.051c-0.126,0.034-0.242,0.088-0.342,0.164
		c-0.102,0.076-0.182,0.174-0.242,0.297c-0.059,0.122-0.089,0.272-0.091,0.449v0.572c0.001,0.166,0.032,0.305,0.093,0.417
		c0.061,0.112,0.141,0.205,0.241,0.279c0.099,0.074,0.209,0.137,0.328,0.191c0.119,0.051,0.238,0.101,0.357,0.147
		c0.121,0.046,0.23,0.097,0.329,0.153c0.1,0.056,0.18,0.124,0.24,0.205c0.061,0.082,0.091,0.184,0.093,0.304v0.566
		c0,0.108-0.016,0.203-0.05,0.285c-0.033,0.083-0.084,0.147-0.155,0.193c-0.073,0.047-0.164,0.071-0.278,0.072
		c-0.143,0.002-0.251-0.041-0.33-0.127C56.761,55.553,56.722,55.413,56.721,55.217L56.721,55.217L56.721,55.217z M63.861,55.217
		v-0.372h-0.796v0.364c0,0.181,0.034,0.336,0.098,0.466c0.064,0.131,0.154,0.238,0.265,0.322c0.113,0.084,0.242,0.146,0.387,0.185
		c0.146,0.042,0.299,0.062,0.463,0.062c0.16,0,0.314-0.018,0.464-0.054c0.149-0.039,0.284-0.097,0.405-0.179
		c0.12-0.08,0.215-0.186,0.287-0.317c0.071-0.131,0.107-0.29,0.109-0.477v-0.572c-0.001-0.176-0.034-0.324-0.095-0.443
		c-0.061-0.12-0.141-0.219-0.241-0.296c-0.102-0.079-0.211-0.145-0.332-0.197c-0.12-0.053-0.242-0.103-0.361-0.146
		c-0.121-0.043-0.231-0.092-0.332-0.143c-0.1-0.051-0.181-0.113-0.242-0.186c-0.061-0.074-0.093-0.167-0.094-0.28v-0.572
		c0-0.155,0.037-0.275,0.112-0.36c0.073-0.087,0.186-0.13,0.334-0.132c0.153,0,0.271,0.042,0.352,0.125
		c0.082,0.083,0.123,0.204,0.124,0.366v0.349h0.722c0-0.211,0-0.424,0-0.635c0-0.212,0-0.422,0-0.63h-0.476l-0.052,0.238h-0.03
		c-0.074-0.078-0.153-0.138-0.238-0.18c-0.083-0.041-0.168-0.067-0.255-0.082c-0.087-0.014-0.174-0.021-0.258-0.02
		c-0.138,0-0.27,0.016-0.397,0.051c-0.126,0.034-0.242,0.088-0.342,0.164c-0.102,0.076-0.182,0.174-0.242,0.297
		c-0.059,0.122-0.09,0.272-0.091,0.449v0.572c0.001,0.166,0.033,0.305,0.094,0.417c0.061,0.112,0.141,0.205,0.241,0.279
		c0.099,0.074,0.209,0.137,0.329,0.191c0.119,0.051,0.238,0.101,0.357,0.147c0.12,0.046,0.229,0.097,0.328,0.153
		c0.101,0.056,0.18,0.124,0.241,0.205c0.061,0.082,0.092,0.184,0.093,0.304v0.566c0,0.108-0.017,0.203-0.05,0.285
		s-0.085,0.147-0.156,0.193c-0.071,0.047-0.164,0.071-0.277,0.072c-0.143,0.002-0.252-0.041-0.331-0.127
		C63.9,55.553,63.863,55.413,63.861,55.217L63.861,55.217L63.861,55.217z M71.975,54.912l0.216,0.923l-0.231,0.156v0.178h1.213
		v-0.215l-0.239-0.157l-1.071-4.344h-0.721c-0.086,0.343-0.173,0.699-0.261,1.066c-0.089,0.366-0.177,0.739-0.265,1.115
		c-0.089,0.375-0.176,0.747-0.263,1.116c-0.087,0.368-0.171,0.723-0.253,1.07l-0.238,0.134v0.215h0.938v-0.215l-0.245-0.126
		l0.215-0.916H71.975L71.975,54.912z M71.372,52.308l0.506,2.202h-1.02c0.044-0.196,0.087-0.39,0.132-0.589s0.09-0.393,0.133-0.585
		c0.043-0.191,0.087-0.374,0.128-0.549c0.041-0.174,0.078-0.333,0.114-0.479H71.372L71.372,52.308z M78.333,52.68
		c0.001-0.194,0.028-0.35,0.083-0.463c0.054-0.114,0.126-0.197,0.216-0.246c0.088-0.05,0.188-0.073,0.296-0.072
		c0.104-0.001,0.201,0.015,0.296,0.047c0.093,0.031,0.169,0.084,0.229,0.16c0.06,0.073,0.091,0.173,0.092,0.299v0.372h0.729v-1.31
		h-0.484l-0.06,0.216H79.71c-0.068-0.067-0.146-0.118-0.234-0.153c-0.088-0.036-0.18-0.061-0.276-0.074
		c-0.094-0.013-0.188-0.02-0.278-0.019c-0.159,0-0.314,0.023-0.47,0.07c-0.156,0.048-0.297,0.123-0.426,0.221
		c-0.129,0.1-0.233,0.229-0.309,0.386c-0.078,0.157-0.117,0.345-0.12,0.564c0,0.767,0,1.533,0,2.3
		c0.001,0.209,0.036,0.393,0.103,0.548c0.068,0.156,0.165,0.285,0.287,0.388c0.123,0.104,0.267,0.18,0.433,0.23
		c0.167,0.051,0.349,0.076,0.547,0.076c0.1,0,0.201-0.013,0.301-0.04c0.099-0.025,0.192-0.067,0.279-0.123
		c0.085-0.056,0.157-0.128,0.216-0.218l0.074,0.327h0.461c0-0.342,0-0.684,0-1.026c0-0.342,0-0.681,0-1.02h-1.116v0.209l0.372,0.237
		v0.492c0.001,0.132-0.019,0.251-0.057,0.357c-0.038,0.104-0.103,0.187-0.191,0.248c-0.088,0.062-0.207,0.092-0.355,0.094
		c-0.191,0.002-0.342-0.06-0.451-0.183c-0.11-0.125-0.164-0.324-0.167-0.597V52.68L78.333,52.68z M87.535,56.169v-1.048h-0.313
		l-0.238,0.625h-1.109v-0.038c0.058-0.018,0.098-0.044,0.119-0.075c0.021-0.034,0.031-0.078,0.03-0.133v-1.451h0.61l0.186,0.342
		h0.208v-1.13H86.82l-0.186,0.365h-0.61v-1.734h0.877l0.193,0.632h0.35v-1.049H85.05v0.179l0.245,0.186v3.92l-0.29,0.209v0.2H87.535
		L87.535,56.169z M93.886,55.796l-0.291,0.173v0.2h1.288v-0.2l-0.29-0.173v-1.822h1.041v1.822l-0.274,0.173v0.2h1.271v-0.2
		l-0.283-0.173v-3.936l0.239-0.186v-0.201h-1.191v0.201l0.238,0.186v1.711h-1.041v-1.711l0.238-0.186v-0.201h-1.183v0.201
		l0.238,0.186V55.796L93.886,55.796z M103.764,56.169v-1.048h-0.313l-0.238,0.625h-1.109v-0.038
		c0.059-0.018,0.098-0.044,0.119-0.075c0.021-0.034,0.031-0.078,0.031-0.133v-1.451h0.609l0.186,0.342h0.208v-1.13h-0.208
		l-0.186,0.365h-0.609v-1.734h0.877l0.193,0.632h0.35v-1.049h-2.397v0.179l0.246,0.186v3.92l-0.29,0.209v0.2H103.764L103.764,56.169
		z M109.757,51.907c0.149,0,0.269,0.026,0.355,0.079s0.149,0.128,0.187,0.227c0.037,0.099,0.054,0.218,0.052,0.356
		c0,0.098,0,0.199,0,0.303c0,0.104,0,0.206,0,0.307c0.001,0.14-0.018,0.259-0.058,0.358c-0.04,0.098-0.104,0.174-0.194,0.225
		c-0.087,0.053-0.205,0.08-0.35,0.08h-0.409c0-0.18,0-0.347,0-0.504c0-0.159,0-0.313,0-0.463s0-0.305,0-0.462
		c0-0.158,0-0.326,0-0.504H109.757L109.757,51.907z M110.285,55.553c0.032,0.089,0.063,0.173,0.092,0.253
		c0.028,0.08,0.062,0.149,0.102,0.209c0.039,0.061,0.093,0.108,0.159,0.141c0.065,0.035,0.151,0.05,0.257,0.05
		c0.052,0,0.106-0.003,0.165-0.009c0.059-0.005,0.118-0.016,0.176-0.027c0.058-0.014,0.11-0.031,0.159-0.054v-0.274
		c-0.052,0.009-0.099,0.003-0.139-0.019c-0.041-0.021-0.077-0.052-0.107-0.092c-0.031-0.041-0.059-0.086-0.081-0.134
		c-0.024-0.048-0.043-0.094-0.06-0.14c-0.052-0.144-0.104-0.287-0.156-0.429c-0.053-0.142-0.104-0.284-0.156-0.429
		c-0.024-0.067-0.052-0.126-0.081-0.179c-0.03-0.052-0.067-0.099-0.111-0.142c-0.043-0.042-0.098-0.08-0.165-0.118
		c0.143-0.029,0.27-0.085,0.382-0.167c0.111-0.082,0.199-0.19,0.263-0.325c0.064-0.137,0.098-0.299,0.1-0.491
		c0-0.101,0-0.203,0-0.307c0-0.104,0-0.205,0-0.303c-0.001-0.206-0.037-0.38-0.106-0.52c-0.07-0.14-0.166-0.252-0.287-0.336
		c-0.121-0.085-0.261-0.146-0.421-0.183c-0.159-0.037-0.329-0.056-0.511-0.055h-1.362v0.201l0.238,0.186c0,0.646,0,1.293,0,1.947
		c0,0.65,0,1.301,0,1.945l-0.282,0.208v0.202c0.13,0,0.269,0,0.417,0c0.146,0,0.294,0,0.442,0c0.148,0,0.289,0,0.421,0V55.96
		l-0.283-0.208c0-0.106,0-0.225,0-0.355s0-0.264,0-0.402c0-0.136,0-0.27,0-0.398s0-0.244,0-0.347c0.095,0,0.176,0.006,0.239,0.02
		c0.063,0.014,0.118,0.039,0.161,0.072c0.043,0.033,0.08,0.078,0.112,0.136c0.033,0.057,0.065,0.129,0.098,0.216L110.285,55.553
		L110.285,55.553z M118.393,56.169v-1.048h-0.313l-0.238,0.625h-1.109v-0.038c0.059-0.018,0.098-0.044,0.119-0.075
		c0.021-0.034,0.031-0.078,0.03-0.133v-1.451h0.61l0.186,0.342h0.208v-1.13h-0.208l-0.186,0.365h-0.61v-1.734h0.877l0.194,0.632
		h0.35v-1.049h-2.396v0.179l0.246,0.186v3.92l-0.291,0.209v0.2H118.393z"/>
</g>
</svg>
