<?xml version="1.0" encoding="utf-8"?>
<!-- Generator: Adobe Illustrator 16.0.0, SVG Export Plug-In . SVG Version: 6.00 Build 0)  -->
<!DOCTYPE svg PUBLIC "-//W3C//DTD SVG 1.1//EN" "http://www.w3.org/Graphics/SVG/1.1/DTD/svg11.dtd">
<svg version="1.1" id="Layer_1" xmlns="http://www.w3.org/2000/svg" xmlns:xlink="http://www.w3.org/1999/xlink" x="0px" y="0px"
	 width="125.919px" height="104.967px" viewBox="0 0 125.919 104.967" enable-background="new 0 0 125.919 104.967"
	 xml:space="preserve">
<g>
	<path fill-rule="evenodd" clip-rule="evenodd" fill="#373737" d="M74.878,98.334c0.293,1.518-0.688,2.204-1.814,2.12
		c-0.684-0.051-1.332-0.44-2.014-0.959c-0.601-0.456-1.175-0.985-1.743-1.459c-1.496-1.247-3.203-1.923-5.057-0.845
		c-0.495,0.288-0.953,0.728-1.291,1.391c-0.338-0.663-0.795-1.103-1.29-1.391c-1.854-1.078-3.56-0.402-5.058,0.845
		c-0.567,0.474-1.142,1.003-1.743,1.459c-0.681,0.519-1.329,0.908-2.013,0.959c-1.127,0.084-2.107-0.603-1.814-2.12
		c0.008-0.039-0.009-0.076-0.041-0.098c-0.033-0.021-0.074-0.02-0.105,0.004c-0.688,0.498-0.862,1.357-0.787,2.214
		c0.158,1.788,1.262,2.981,2.709,3.673c2.441,1.167,5.809,1.144,8.178-0.235c0.951-0.554,1.605-1.316,1.965-2.224
		c0.36,0.907,1.015,1.67,1.965,2.224c2.37,1.379,5.736,1.402,8.178,0.235c1.448-0.691,2.552-1.885,2.709-3.673
		c0.076-0.856-0.098-1.716-0.786-2.214c-0.032-0.023-0.072-0.024-0.105-0.004C74.886,98.258,74.87,98.295,74.878,98.334z"/>
	<path fill-rule="evenodd" clip-rule="evenodd" fill="#373737" d="M49.164,34.433c0.846,0.847,1.269,1.955,1.269,3.063
		s-0.423,2.217-1.269,3.062c-0.846,0.847-1.955,1.27-3.062,1.27c-1.109,0-2.218-0.423-3.063-1.27
		c-0.846-0.846-1.269-1.954-1.269-3.062s0.423-2.217,1.269-3.063c0.846-0.846,1.954-1.269,3.063-1.269
		C47.209,33.165,48.318,33.587,49.164,34.433L49.164,34.433z M63.742,23.688c0.432,0.432,0.432,1.132,0,1.563
		c-0.433,0.432-1.133,0.432-1.564,0s-0.432-1.132,0-1.563C62.609,23.255,63.31,23.255,63.742,23.688L63.742,23.688z M50.505,41.9
		l13.483-13.483C71.98,20.424,82.361,10.001,83.511,0.43c0.02-0.165-0.063-0.317-0.213-0.39c-0.149-0.073-0.321-0.045-0.438,0.073
		L58.243,24.729c0.525,0.941,0.657,1.877,0.468,2.807c-0.259,1.267-0.657,1.583-1.51,2.434l-2.52,2.52
		c-1.089,1.087-1.899,1.552-3.002,1.185c-0.941-0.312-1.386-0.873-2.151-1.378c-1.036-0.686-2.231-1.026-3.427-1.026
		c-1.595,0-3.188,0.607-4.404,1.823c-1.217,1.216-1.824,2.811-1.824,4.404s0.607,3.188,1.824,4.403
		c1.216,1.216,2.81,1.825,4.404,1.825C47.695,43.725,49.288,43.116,50.505,41.9L50.505,41.9z M76.756,34.433
		c0.846-0.846,1.954-1.269,3.062-1.269s2.217,0.423,3.062,1.269c0.846,0.847,1.269,1.955,1.269,3.063s-0.423,2.217-1.269,3.062
		c-0.846,0.847-1.954,1.27-3.062,1.27s-2.217-0.423-3.062-1.27c-0.847-0.846-1.27-1.954-1.27-3.062S75.909,35.28,76.756,34.433
		L76.756,34.433z M75.414,41.9L64.255,30.741l1.028-1.029c0.627-0.626,1.287-1.284,1.971-1.97c0.26,1.098,0.66,1.425,1.464,2.228
		l2.521,2.52c1.088,1.087,1.897,1.552,3,1.185c0.942-0.312,1.387-0.873,2.152-1.378c1.036-0.686,2.231-1.026,3.428-1.026
		c1.593,0,3.188,0.607,4.403,1.823s1.824,2.811,1.824,4.404s-0.608,3.188-1.824,4.403s-2.811,1.825-4.403,1.825
		C78.224,43.725,76.63,43.116,75.414,41.9L75.414,41.9z M56.983,23.399C50.184,16.323,43.33,8.102,42.408,0.43
		c-0.02-0.165,0.063-0.317,0.213-0.391c0.15-0.072,0.32-0.044,0.438,0.073l18.605,18.604L56.983,23.399z"/>
	<path fill="#373737" d="M16.659,59.079l0.152,0.528l0.093-0.026c0.077-0.021,0.138-0.033,0.185-0.035
		c0.046-0.006,0.083,0.002,0.11,0.015c0.027,0.016,0.049,0.036,0.062,0.065l0.037,0.104L17.944,62l0.035,0.133
		c0.008,0.042,0.005,0.08-0.007,0.116s-0.038,0.068-0.076,0.098c-0.039,0.029-0.098,0.056-0.176,0.08l-0.092,0.025l0.154,0.532
		l0.194-0.06l0.2-0.059l0.215-0.062l0.253-0.071l0.27-0.073l0.229-0.062l0.21-0.058l0.213-0.059l-0.147-0.533l-0.104,0.028
		l-0.15,0.039c-0.041,0.006-0.074,0.006-0.103,0c-0.027-0.009-0.05-0.029-0.069-0.061c-0.018-0.028-0.034-0.073-0.052-0.135
		l-0.269-0.97l1.581-0.432l0.245,0.916l0.031,0.151c0.006,0.042,0,0.075-0.014,0.102c-0.015,0.029-0.042,0.054-0.08,0.073
		c-0.038,0.019-0.093,0.036-0.165,0.057l-0.104,0.028l0.145,0.534l0.421-0.115l0.484-0.132l0.261-0.069l0.221-0.058l0.202-0.051
		l0.209-0.051l-0.138-0.536l-0.096,0.024c-0.086,0.021-0.153,0.03-0.202,0.03c-0.046-0.001-0.084-0.013-0.109-0.035
		c-0.025-0.021-0.046-0.053-0.059-0.093l-0.042-0.149l-0.59-2.268l-0.022-0.115c-0.003-0.033,0.003-0.064,0.018-0.093
		c0.017-0.03,0.044-0.057,0.086-0.078c0.041-0.022,0.101-0.045,0.181-0.064l0.098-0.025l-0.138-0.536l-0.237,0.063l-0.231,0.063
		l-0.198,0.057l-0.148,0.037l-0.483,0.129l-0.546,0.138l0.146,0.533l0.104-0.026c0.064-0.017,0.116-0.026,0.158-0.03
		c0.043-0.003,0.076,0,0.105,0.011c0.028,0.014,0.05,0.033,0.068,0.06c0.017,0.029,0.032,0.064,0.044,0.11l0.237,0.893l-1.586,0.434
		L18.298,59.5l-0.028-0.118c-0.007-0.038-0.002-0.071,0.01-0.102c0.014-0.028,0.038-0.058,0.076-0.082
		c0.037-0.027,0.096-0.052,0.174-0.074l0.105-0.028l-0.146-0.534l-0.251,0.071l-0.243,0.07l-0.216,0.064l-0.17,0.047l-0.251,0.067
		l-0.285,0.078l-0.254,0.07L16.659,59.079L16.659,59.079z M25.219,56.862L25.219,56.862l-1.186,0.28l-0.013,0.571l-0.03,0.211
		l-0.048,0.336l-0.059,0.422l-0.063,0.462l-0.064,0.463L23.7,60.023l-0.044,0.334l-0.029,0.206
		c-0.009,0.064-0.021,0.118-0.034,0.155c-0.014,0.041-0.033,0.071-0.06,0.096c-0.025,0.024-0.059,0.048-0.104,0.064l-0.169,0.064
		l0.134,0.536l0.191-0.049l0.173-0.047l0.18-0.044l0.194-0.047l0.401-0.094l0.367-0.084l-0.118-0.496l-0.043,0.009l-0.067,0.016
		l-0.066,0.016l-0.039,0.007c-0.065,0.016-0.111,0.018-0.143,0.009c-0.03-0.009-0.051-0.035-0.062-0.08l-0.007-0.058l0.004-0.083
		l0.009-0.126l0.017-0.218l0.022-0.223l0.012-0.138l1.39-0.327l0.325,0.526l0.067,0.114c0.017,0.035,0.029,0.062,0.035,0.086
		c0.009,0.04-0.002,0.073-0.034,0.098c-0.034,0.025-0.097,0.05-0.191,0.076l-0.03,0.01l-0.045,0.011l-0.046,0.009l-0.035,0.009
		l0.115,0.501l0.534-0.128l0.503-0.115l0.386-0.084l0.344-0.073l-0.118-0.538c-0.104,0.02-0.182,0.028-0.239,0.028
		c-0.057,0-0.107-0.018-0.152-0.052s-0.089-0.091-0.136-0.163l-0.191-0.306l-0.115-0.179l-0.213-0.326l-0.271-0.415l-0.298-0.456
		L25.219,56.862L25.219,56.862z M24.464,59.323L24.464,59.323l0.192-1.729h0.008l0.914,1.467L24.464,59.323L24.464,59.323z
		 M28.17,56.21L28.17,56.21l0.113,0.54l0.123-0.027c0.078-0.015,0.14-0.021,0.186-0.015c0.046,0.005,0.082,0.02,0.108,0.044
		c0.028,0.024,0.047,0.059,0.06,0.103l0.038,0.151l0.461,2.205l0.027,0.151c0.005,0.042,0.002,0.08-0.014,0.113
		c-0.015,0.033-0.04,0.061-0.079,0.084s-0.099,0.043-0.176,0.061l-0.121,0.027l0.115,0.54l0.423-0.095l0.489-0.104l0.272-0.054
		l0.234-0.044l0.216-0.044l0.217-0.041l-0.107-0.543l-0.128,0.024c-0.075,0.017-0.136,0.025-0.18,0.025
		c-0.043,0-0.075-0.009-0.099-0.027c-0.026-0.015-0.045-0.042-0.056-0.078l-0.033-0.133l-0.473-2.334l-0.016-0.123
		c-0.003-0.035,0.005-0.067,0.021-0.098c0.017-0.03,0.045-0.056,0.084-0.078c0.039-0.021,0.095-0.039,0.169-0.056l0.13-0.025
		l-0.108-0.54l-0.234,0.051l-0.234,0.05l-0.265,0.052l-0.329,0.067l-0.18,0.035l-0.189,0.041l-0.213,0.044L28.17,56.21L28.17,56.21z
		 M35.577,57.793L35.577,57.793c-0.043-0.137-0.093-0.252-0.143-0.343c-0.054-0.094-0.108-0.17-0.167-0.229
		c-0.059-0.061-0.12-0.107-0.183-0.141c-0.064-0.033-0.13-0.058-0.194-0.077c0.123-0.052,0.229-0.112,0.322-0.188
		c0.092-0.07,0.166-0.155,0.224-0.246c0.058-0.092,0.096-0.189,0.116-0.294c0.021-0.106,0.021-0.213,0.004-0.324
		c-0.027-0.158-0.072-0.291-0.139-0.397c-0.068-0.109-0.15-0.198-0.247-0.266c-0.099-0.069-0.208-0.119-0.333-0.151
		c-0.122-0.033-0.253-0.051-0.391-0.058s-0.283,0-0.434,0.016l-0.449,0.065l-1.977,0.361l0.104,0.543l0.083-0.016
		c0.088-0.016,0.158-0.022,0.21-0.021c0.051,0,0.091,0.014,0.119,0.034c0.029,0.022,0.05,0.05,0.062,0.088l0.034,0.145l0.427,2.283
		l0.021,0.134c0.004,0.04-0.002,0.076-0.019,0.106c-0.016,0.029-0.046,0.056-0.092,0.078c-0.044,0.021-0.109,0.042-0.197,0.058
		l-0.098,0.019l0.104,0.544l0.2-0.04l0.203-0.039l0.225-0.045l0.264-0.051l0.276-0.052l0.243-0.039l0.227-0.039l0.222-0.038
		l-0.098-0.544l-0.133,0.022l-0.149,0.02c-0.041,0-0.071-0.003-0.097-0.016c-0.025-0.01-0.045-0.03-0.059-0.058
		c-0.017-0.028-0.026-0.066-0.035-0.113l-0.184-1.031l0.266-0.047c0.114-0.021,0.212-0.029,0.292-0.029
		c0.079,0.002,0.152,0.021,0.213,0.056c0.064,0.064,0.127,0.145,0.188,0.245c0.06,0.102,0.12,0.23,0.18,0.389
		c0.066,0.178,0.139,0.329,0.217,0.456c0.077,0.126,0.165,0.227,0.265,0.302c0.098,0.073,0.207,0.125,0.331,0.149
		c0.123,0.026,0.263,0.026,0.417,0c0.128-0.021,0.241-0.057,0.338-0.103c0.098-0.047,0.178-0.111,0.24-0.189
		c0.061-0.077,0.104-0.171,0.126-0.279c0.021-0.109,0.024-0.235,0.005-0.378l-0.003-0.019l-0.003-0.031l-0.003-0.03l-0.003-0.017
		l-0.347,0.101c0.017,0.098,0.01,0.172-0.021,0.218c-0.029,0.047-0.08,0.076-0.15,0.087c-0.049,0.009-0.092,0.004-0.131-0.013
		c-0.035-0.018-0.07-0.052-0.102-0.096c-0.031-0.047-0.062-0.105-0.092-0.176L35.577,57.793L35.577,57.793z M33.37,57.012
		L33.37,57.012l-0.218-1.2l0.386-0.068c0.148-0.027,0.279-0.042,0.395-0.044c0.115,0,0.216,0.013,0.297,0.046
		c0.083,0.033,0.15,0.084,0.204,0.156c0.053,0.072,0.09,0.169,0.109,0.289c0.021,0.112,0.02,0.21,0,0.291
		c-0.019,0.082-0.057,0.15-0.113,0.211c-0.059,0.058-0.135,0.106-0.234,0.143c-0.098,0.037-0.214,0.068-0.351,0.093L33.37,57.012
		L33.37,57.012z M40.123,57.705L40.123,57.705c-0.176,0.024-0.336,0.014-0.483-0.036c-0.146-0.049-0.277-0.129-0.392-0.244
		c-0.115-0.115-0.211-0.263-0.289-0.44c-0.079-0.178-0.136-0.387-0.172-0.624c-0.035-0.242-0.042-0.461-0.017-0.654
		c0.023-0.192,0.075-0.359,0.154-0.496c0.077-0.138,0.18-0.249,0.31-0.331c0.13-0.083,0.282-0.135,0.458-0.162
		c0.29-0.041,0.521-0.005,0.692,0.106c0.17,0.111,0.279,0.282,0.328,0.514l0.636-0.08l-0.166-1.263l-0.691,0.091l0.02,0.268
		c-0.062-0.047-0.137-0.084-0.223-0.115c-0.087-0.034-0.178-0.059-0.276-0.076c-0.097-0.018-0.198-0.026-0.303-0.029
		c-0.104-0.002-0.203,0.003-0.299,0.017c-0.32,0.046-0.6,0.135-0.838,0.275c-0.236,0.142-0.431,0.317-0.579,0.528
		c-0.147,0.211-0.248,0.451-0.303,0.723c-0.055,0.272-0.058,0.559-0.01,0.862c0.044,0.291,0.127,0.557,0.248,0.799
		c0.12,0.239,0.279,0.441,0.479,0.606c0.199,0.162,0.438,0.277,0.721,0.345c0.28,0.069,0.606,0.08,0.975,0.028
		c0.312-0.044,0.601-0.121,0.861-0.23c0.259-0.113,0.498-0.261,0.716-0.453l-0.076-0.945l-0.644-0.054
		c0.015,0.174,0.009,0.323-0.019,0.449c-0.028,0.124-0.078,0.229-0.147,0.315c-0.068,0.085-0.158,0.151-0.271,0.2
		C40.41,57.646,40.277,57.682,40.123,57.705L40.123,57.705z M42.78,53.781L42.78,53.781l0.067,0.549l0.133-0.016
		c0.065-0.009,0.117-0.004,0.154,0.007c0.038,0.014,0.069,0.031,0.09,0.051c0.021,0.022,0.035,0.047,0.044,0.073l0.016,0.076
		l0.205,1.728c0.032,0.271,0.09,0.504,0.177,0.697c0.083,0.193,0.2,0.35,0.348,0.465c0.146,0.118,0.327,0.198,0.541,0.24
		c0.214,0.039,0.464,0.042,0.753,0.011c0.286-0.029,0.527-0.088,0.722-0.177c0.197-0.092,0.351-0.212,0.464-0.362
		c0.114-0.15,0.189-0.33,0.229-0.539c0.038-0.209,0.046-0.446,0.019-0.711l-0.158-1.604l-0.01-0.108c-0.005-0.04,0-0.08,0.013-0.115
		c0.011-0.038,0.034-0.069,0.068-0.098c0.033-0.027,0.087-0.047,0.16-0.054l0.146-0.014l-0.052-0.55L46.7,53.351l-0.206,0.024
		l-0.18,0.023l-0.131,0.013l-0.218,0.021l-0.249,0.024l-0.229,0.022l-0.145,0.011l0.058,0.55l0.112-0.012
		c0.076-0.009,0.136-0.004,0.179,0.012c0.045,0.013,0.081,0.035,0.104,0.064c0.024,0.026,0.039,0.06,0.047,0.098l0.019,0.115
		l0.174,1.677c0.017,0.162,0.019,0.302,0.011,0.427c-0.011,0.124-0.04,0.229-0.085,0.318c-0.048,0.088-0.115,0.157-0.204,0.209
		c-0.091,0.051-0.206,0.084-0.35,0.098c-0.157,0.018-0.291,0.007-0.399-0.024s-0.197-0.086-0.269-0.167
		c-0.073-0.078-0.127-0.179-0.166-0.303c-0.041-0.121-0.069-0.266-0.089-0.431l-0.182-1.61l-0.008-0.128
		c0-0.043,0.008-0.08,0.023-0.115c0.016-0.036,0.043-0.063,0.082-0.09c0.038-0.022,0.096-0.04,0.169-0.049l0.103-0.011l-0.06-0.55
		l-0.282,0.036l-0.255,0.034l-0.238,0.028l-0.24,0.028l-0.207,0.022l-0.239,0.024l-0.222,0.021L42.78,53.781L42.78,53.781z
		 M48.328,53.203L48.328,53.203l0.121,1.367l0.488-0.045l-0.014-0.122l-0.014-0.148l-0.012-0.145l-0.009-0.101
		c-0.004-0.047-0.004-0.087,0.005-0.12c0.006-0.03,0.023-0.059,0.05-0.078s0.065-0.037,0.118-0.049l0.203-0.026l0.501-0.04
		l0.201,2.541l0.008,0.125c0.001,0.042-0.007,0.081-0.021,0.117c-0.018,0.033-0.044,0.062-0.083,0.087
		c-0.038,0.024-0.095,0.037-0.169,0.044l-0.173,0.014l0.045,0.552l0.235-0.02l0.257-0.023l0.252-0.021l0.23-0.018l0.282-0.022
		l0.238-0.016l0.218-0.014l0.218-0.014l-0.039-0.553l-0.172,0.013c-0.066,0.005-0.122-0.002-0.163-0.015
		c-0.042-0.015-0.073-0.032-0.094-0.055c-0.021-0.023-0.035-0.048-0.042-0.075l-0.014-0.076l-0.193-2.651l0.39-0.026
		c0.113-0.009,0.202-0.009,0.269-0.007c0.065,0.004,0.115,0.018,0.152,0.039c0.035,0.022,0.057,0.057,0.068,0.101
		c0.012,0.045,0.021,0.104,0.025,0.174l0.028,0.42l0.491-0.033l-0.089-1.371l-0.273,0.02l-0.294,0.022l-0.296,0.02l-0.285,0.022
		l-1.186,0.091L49.611,53.1l-0.221,0.018l-0.242,0.018l-0.239,0.019L48.328,53.203L48.328,53.203z M56.796,53.808L56.796,53.808
		l-0.042-1.137l-0.171,0.009L56.4,52.684l-0.15,0.007l-0.084,0.002l0.003,0.085l0.005,0.08l0.006,0.089
		c-0.167-0.12-0.342-0.2-0.527-0.238c-0.186-0.037-0.373-0.051-0.562-0.042c-0.22,0.006-0.412,0.049-0.578,0.115
		c-0.166,0.069-0.306,0.158-0.419,0.27c-0.112,0.108-0.195,0.235-0.25,0.38c-0.053,0.145-0.076,0.298-0.066,0.46
		c0.014,0.26,0.106,0.477,0.274,0.65c0.169,0.17,0.42,0.316,0.753,0.433l0.455,0.149c0.148,0.044,0.284,0.095,0.402,0.148
		c0.12,0.056,0.216,0.122,0.289,0.197c0.075,0.076,0.116,0.174,0.121,0.292c0.004,0.089-0.01,0.167-0.04,0.237
		c-0.03,0.069-0.075,0.132-0.134,0.181c-0.06,0.049-0.132,0.087-0.215,0.116c-0.085,0.027-0.179,0.045-0.283,0.048
		c-0.137,0.007-0.257-0.003-0.356-0.026c-0.1-0.024-0.185-0.062-0.255-0.116c-0.071-0.05-0.128-0.114-0.173-0.198
		c-0.045-0.076-0.08-0.17-0.106-0.272l-0.044-0.148l-0.593,0.032l0.069,1.261l0.672-0.037l-0.017-0.306
		c0.064,0.056,0.139,0.107,0.222,0.149c0.083,0.045,0.172,0.08,0.268,0.11c0.094,0.028,0.192,0.048,0.295,0.061
		c0.102,0.016,0.204,0.019,0.306,0.014c0.213-0.008,0.403-0.049,0.569-0.119c0.167-0.071,0.308-0.165,0.421-0.281
		c0.114-0.115,0.201-0.248,0.259-0.397c0.059-0.148,0.084-0.302,0.078-0.467c-0.006-0.153-0.034-0.289-0.085-0.407
		c-0.051-0.117-0.118-0.218-0.203-0.305c-0.083-0.086-0.181-0.162-0.288-0.224c-0.11-0.062-0.227-0.116-0.348-0.161l-0.529-0.182
		c-0.167-0.049-0.313-0.103-0.442-0.158c-0.126-0.055-0.229-0.119-0.305-0.193c-0.077-0.07-0.118-0.166-0.125-0.285
		c-0.003-0.076,0.009-0.146,0.037-0.211c0.027-0.063,0.069-0.12,0.125-0.168c0.056-0.047,0.123-0.085,0.203-0.114
		c0.081-0.028,0.173-0.044,0.275-0.048c0.25-0.011,0.44,0.029,0.566,0.122c0.129,0.093,0.213,0.231,0.256,0.413l0.021,0.073
		l0.024,0.077L56.796,53.808L56.796,53.808z M62.772,52.557L62.772,52.557l-1.218,0.007l-0.141,0.554l-0.075,0.198l-0.122,0.317
		l-0.152,0.398l-0.165,0.436l-0.165,0.438l-0.149,0.393l-0.117,0.318l-0.073,0.194c-0.023,0.062-0.047,0.111-0.068,0.146
		c-0.022,0.034-0.049,0.061-0.08,0.078c-0.03,0.021-0.068,0.031-0.115,0.038l-0.18,0.025l0.01,0.554l0.197-0.006l0.181-0.007
		l0.183-0.004l0.202-0.005l0.412-0.003l0.376,0.003l-0.004-0.509h-0.044h-0.069l-0.068-0.003h-0.039
		c-0.067-0.001-0.114-0.011-0.14-0.026c-0.03-0.016-0.044-0.045-0.045-0.091l0.008-0.058l0.022-0.078l0.036-0.122l0.065-0.209
		l0.071-0.211l0.042-0.132l1.428-0.009l0.199,0.587l0.039,0.125c0.01,0.037,0.015,0.068,0.015,0.093
		c0,0.042-0.018,0.071-0.054,0.087c-0.039,0.016-0.106,0.026-0.205,0.031l-0.03,0.002l-0.046,0.003h-0.047H62.61v0.513l0.548-0.007
		l0.518,0.002l0.396,0.005l0.351,0.007l0.005-0.552c-0.104-0.002-0.183-0.011-0.238-0.023c-0.056-0.014-0.102-0.043-0.139-0.087
		c-0.035-0.042-0.066-0.107-0.096-0.189l-0.117-0.34l-0.074-0.2l-0.133-0.365l-0.17-0.466l-0.188-0.514L62.772,52.557L62.772,52.557
		z M61.487,54.788L61.487,54.788l0.574-1.643l0.007,0.004l0.563,1.632L61.487,54.788L61.487,54.788z M66.561,52.595L66.561,52.595
		l-0.833-0.014l-0.009,0.553l0.162,0.001c0.07,0.002,0.123,0.01,0.162,0.021c0.04,0.009,0.069,0.024,0.089,0.051
		c0.02,0.022,0.031,0.056,0.033,0.095l0.003,0.154l-0.041,2.29l-0.007,0.157c-0.003,0.045-0.014,0.08-0.032,0.109
		s-0.049,0.052-0.09,0.064c-0.039,0.014-0.098,0.021-0.174,0.019l-0.16-0.003l-0.008,0.554h0.19l0.188,0.005h0.203l0.238,0.004
		l0.417,0.009l0.354,0.013l0.015-0.551l-0.151-0.004l-0.164-0.011c-0.041-0.008-0.072-0.019-0.095-0.038
		c-0.021-0.018-0.038-0.047-0.045-0.082c-0.006-0.036-0.009-0.088-0.006-0.152l0.048-2.243h0.005l1.774,3.166l1.009,0.041
		l0.063-1.604l0.025-0.591l0.02-0.516l0.016-0.372l0.005-0.149l0.011-0.13c0.005-0.041,0.017-0.076,0.035-0.103
		c0.019-0.027,0.048-0.05,0.086-0.062c0.038-0.014,0.091-0.021,0.163-0.018l0.158,0.007l0.024-0.552l-0.37-0.012l-0.144-0.004
		l-0.137-0.005l-0.111-0.004l-0.07-0.005l-0.341-0.015l-0.422-0.017l-0.02,0.552l0.145,0.005l0.158,0.013
		c0.041,0.007,0.072,0.021,0.094,0.038c0.022,0.02,0.037,0.047,0.045,0.08c0.007,0.035,0.01,0.081,0.007,0.14l-0.075,2.178h-0.006
		l-1.688-3.044l-0.077-0.003l-0.136-0.005l-0.163-0.004L66.77,52.6l-0.134-0.003L66.561,52.595L66.561,52.595z M73.478,52.88
		L73.478,52.88l-1.758-0.099l-0.027,0.549l0.152,0.01c0.059,0.003,0.105,0.014,0.142,0.031c0.035,0.018,0.062,0.04,0.081,0.069
		c0.018,0.026,0.03,0.058,0.034,0.093c0.008,0.035,0.009,0.076,0.006,0.12l-0.062,1.141l-0.022,0.422l-0.018,0.374l-0.014,0.267
		l-0.007,0.113l-0.015,0.138c-0.008,0.04-0.021,0.076-0.041,0.104c-0.021,0.029-0.048,0.051-0.088,0.066
		c-0.036,0.017-0.088,0.022-0.152,0.018l-0.15-0.006l-0.027,0.551l1.785,0.101c0.38,0.026,0.728,0.016,1.043-0.034
		c0.313-0.046,0.586-0.146,0.818-0.286c0.23-0.145,0.418-0.343,0.559-0.594c0.139-0.25,0.225-0.571,0.255-0.958
		c0.052-0.667-0.126-1.186-0.537-1.554C75.023,53.147,74.369,52.94,73.478,52.88L73.478,52.88z M73.147,53.462L73.147,53.462
		l0.446,0.028c0.465,0.032,0.804,0.165,1.015,0.403c0.21,0.237,0.298,0.598,0.264,1.08c-0.018,0.258-0.062,0.477-0.133,0.656
		c-0.068,0.181-0.164,0.326-0.284,0.438c-0.119,0.111-0.265,0.189-0.438,0.233c-0.174,0.047-0.372,0.061-0.597,0.044l-0.444-0.028
		L73.147,53.462z"/>
	<path fill="#373737" d="M82.375,54.81l0.129-1.127l-0.171-0.02l-0.18-0.023l-0.15-0.019l-0.082-0.011l-0.011,0.085l-0.007,0.08
		l-0.008,0.087c-0.147-0.145-0.309-0.249-0.486-0.316c-0.177-0.066-0.36-0.105-0.548-0.126c-0.219-0.021-0.414-0.012-0.59,0.029
		c-0.174,0.041-0.325,0.108-0.453,0.199s-0.229,0.202-0.306,0.338c-0.074,0.134-0.12,0.281-0.137,0.445
		c-0.024,0.258,0.033,0.484,0.174,0.682c0.141,0.198,0.365,0.38,0.677,0.548l0.428,0.213c0.141,0.067,0.266,0.134,0.375,0.206
		c0.11,0.074,0.195,0.154,0.258,0.24c0.062,0.09,0.087,0.189,0.074,0.31c-0.011,0.087-0.037,0.161-0.076,0.228
		c-0.041,0.063-0.094,0.117-0.16,0.154c-0.065,0.041-0.143,0.068-0.23,0.083c-0.087,0.016-0.183,0.018-0.287,0.007
		c-0.137-0.014-0.253-0.041-0.348-0.078c-0.096-0.038-0.173-0.088-0.235-0.153c-0.062-0.062-0.109-0.136-0.14-0.223
		c-0.031-0.084-0.053-0.18-0.062-0.286l-0.021-0.153l-0.591-0.061l-0.123,1.256l0.668,0.069l0.03-0.305
		c0.058,0.066,0.121,0.127,0.197,0.182c0.075,0.057,0.157,0.105,0.248,0.146c0.089,0.045,0.183,0.078,0.281,0.107
		c0.099,0.028,0.198,0.047,0.301,0.058c0.211,0.024,0.404,0.014,0.581-0.03c0.177-0.045,0.329-0.116,0.458-0.211
		c0.13-0.099,0.236-0.216,0.314-0.354c0.081-0.136,0.132-0.286,0.15-0.449c0.018-0.152,0.01-0.288-0.022-0.413
		s-0.083-0.235-0.153-0.336c-0.069-0.096-0.155-0.186-0.252-0.265c-0.099-0.08-0.206-0.151-0.318-0.213l-0.496-0.262
		c-0.157-0.074-0.295-0.147-0.412-0.221s-0.209-0.151-0.273-0.235c-0.066-0.085-0.091-0.183-0.078-0.303
		c0.007-0.076,0.031-0.143,0.067-0.202c0.037-0.058,0.088-0.107,0.15-0.147c0.061-0.04,0.133-0.066,0.219-0.082
		c0.083-0.018,0.177-0.02,0.277-0.012c0.25,0.025,0.432,0.099,0.542,0.21c0.113,0.113,0.176,0.263,0.191,0.449l0.008,0.075
		l0.012,0.08L82.375,54.81L82.375,54.81z M84.261,53.896L84.261,53.896l-0.069,0.547l0.096,0.013c0.078,0.01,0.14,0.023,0.184,0.041
		c0.043,0.015,0.075,0.035,0.095,0.058c0.021,0.024,0.031,0.054,0.031,0.084l-0.006,0.111l-0.303,2.339l-0.022,0.137
		c-0.009,0.042-0.025,0.075-0.051,0.105c-0.025,0.026-0.063,0.047-0.109,0.061c-0.047,0.01-0.11,0.01-0.192,0l-0.094-0.012
		l-0.07,0.55l0.203,0.024l0.206,0.023l0.224,0.027l0.26,0.031l0.277,0.038l0.235,0.035l0.216,0.031l0.217,0.03l0.075-0.547
		l-0.105-0.015l-0.152-0.027c-0.041-0.007-0.072-0.021-0.094-0.04c-0.023-0.021-0.036-0.045-0.04-0.082
		c-0.007-0.033-0.003-0.082,0.005-0.145l0.136-0.996l1.622,0.227l-0.137,0.939l-0.03,0.15c-0.011,0.04-0.028,0.069-0.053,0.089
		c-0.025,0.02-0.059,0.031-0.103,0.033c-0.042,0.003-0.101-0.002-0.174-0.011l-0.106-0.016l-0.078,0.547l0.433,0.061l0.496,0.07
		l0.267,0.042l0.226,0.036l0.208,0.033l0.211,0.033l0.085-0.547l-0.099-0.014c-0.087-0.013-0.152-0.03-0.195-0.051
		c-0.045-0.021-0.073-0.046-0.09-0.076c-0.015-0.03-0.02-0.068-0.015-0.11l0.021-0.151l0.354-2.316l0.024-0.115
		c0.011-0.034,0.028-0.059,0.054-0.08c0.025-0.021,0.062-0.03,0.108-0.036c0.047-0.004,0.111-0.002,0.191,0.011l0.1,0.017
		l0.085-0.547L88.572,54.5l-0.238-0.033l-0.203-0.029l-0.149-0.021l-0.495-0.076l-0.557-0.086L86.851,54.8l0.107,0.016
		c0.066,0.009,0.119,0.021,0.159,0.033c0.039,0.015,0.069,0.031,0.091,0.054c0.021,0.022,0.034,0.049,0.04,0.081
		c0.004,0.033,0.003,0.072-0.004,0.12l-0.133,0.913l-1.629-0.229L85.6,54.93l0.02-0.12c0.01-0.038,0.026-0.065,0.05-0.09
		c0.024-0.021,0.058-0.037,0.103-0.046s0.107-0.009,0.189,0.001l0.106,0.017l0.076-0.547l-0.258-0.033l-0.251-0.033l-0.224-0.029
		l-0.175-0.024l-0.257-0.033l-0.294-0.038l-0.261-0.035L84.261,53.896L84.261,53.896z M92.998,55.241L92.998,55.241l-1.2-0.213
		l-0.235,0.52l-0.11,0.183l-0.177,0.29l-0.222,0.363l-0.242,0.4l-0.24,0.4l-0.216,0.36l-0.173,0.291l-0.107,0.178
		c-0.035,0.056-0.066,0.101-0.093,0.131c-0.029,0.029-0.062,0.051-0.094,0.062c-0.033,0.013-0.074,0.021-0.12,0.019l-0.18-0.007
		L89.5,58.762l0.192,0.031l0.179,0.024l0.183,0.028l0.197,0.034l0.405,0.071l0.371,0.068l0.086-0.502l-0.042-0.009l-0.068-0.012
		l-0.067-0.014l-0.037-0.009c-0.067-0.013-0.111-0.028-0.137-0.05c-0.023-0.021-0.033-0.052-0.023-0.097l0.018-0.058l0.035-0.073
		l0.058-0.111l0.103-0.195l0.106-0.193l0.065-0.123l1.407,0.249l0.089,0.611l0.018,0.132c0.002,0.037,0.002,0.068-0.003,0.093
		c-0.007,0.04-0.031,0.066-0.069,0.076c-0.039,0.009-0.108,0.009-0.206-0.004l-0.031-0.006l-0.045-0.006l-0.046-0.009l-0.035-0.005
		l-0.092,0.505l0.541,0.092l0.506,0.095l0.39,0.075l0.342,0.069l0.104-0.54c-0.102-0.022-0.178-0.044-0.231-0.067
		c-0.05-0.023-0.091-0.06-0.12-0.111c-0.025-0.048-0.044-0.117-0.06-0.2l-0.054-0.356l-0.035-0.212l-0.066-0.382l-0.082-0.489
		l-0.096-0.541L92.998,55.241L92.998,55.241z M91.334,57.202L91.334,57.202l0.859-1.512l0.006,0.004l0.262,1.707L91.334,57.202
		L91.334,57.202z M96.617,56.78L96.617,56.78l-0.006-0.069l0.006-0.051c0.008-0.036,0.025-0.062,0.052-0.078
		c0.024-0.014,0.058-0.021,0.099-0.024c0.037,0,0.084,0.003,0.135,0.011l0.167,0.027l0.113-0.54l-0.502-0.097l-0.202-0.039
		l-0.189-0.036l-0.16-0.033l-0.111-0.022l-0.162-0.033l-0.189-0.042l-0.168-0.037l-0.1-0.021l-0.108,0.541
		c0.078,0.016,0.141,0.04,0.186,0.068c0.045,0.027,0.082,0.062,0.109,0.104c0.024,0.043,0.046,0.092,0.058,0.152l0.042,0.197
		l0.6,3.311l0.904,0.192l1.615-2.503l0.216-0.326c0.06-0.086,0.115-0.155,0.171-0.205c0.054-0.049,0.111-0.079,0.171-0.094
		c0.061-0.013,0.131-0.01,0.218,0.01l0.122-0.539l-0.397-0.084l-0.358-0.08l-0.075-0.016l-0.109-0.024l-0.129-0.028l-0.131-0.029
		l-0.333-0.075l-0.118,0.54l0.062,0.016l0.062,0.014c0.103,0.026,0.176,0.053,0.223,0.077c0.042,0.024,0.06,0.062,0.049,0.114
		c-0.004,0.015-0.011,0.034-0.024,0.057l-0.044,0.081l-1.355,2.191l-0.025-0.149l-0.044-0.295l-0.063-0.398l-0.067-0.444
		l-0.072-0.445l-0.062-0.396l-0.047-0.295L96.617,56.78L96.617,56.78z M104.492,57.757L104.492,57.757l-3.479-0.855l-0.125,0.533
		l0.214,0.05c0.055,0.015,0.096,0.035,0.121,0.063c0.024,0.026,0.041,0.061,0.048,0.098c0.004,0.039,0.002,0.081-0.005,0.125
		l-0.029,0.134l-0.516,2.176l-0.033,0.129c-0.014,0.04-0.03,0.076-0.056,0.104c-0.022,0.028-0.049,0.05-0.082,0.062
		c-0.033,0.011-0.076,0.009-0.129-0.003l-0.223-0.053l-0.124,0.537l3.417,0.841l0.298-1.16l-0.575-0.146l-0.028,0.096
		c-0.025,0.106-0.053,0.188-0.083,0.248c-0.03,0.061-0.065,0.104-0.105,0.129c-0.039,0.027-0.084,0.041-0.137,0.036
		c-0.053-0.003-0.114-0.013-0.189-0.031l-1.043-0.258l0.287-1.174l0.593,0.143l0.109,0.035c0.028,0.014,0.051,0.031,0.069,0.056
		c0.018,0.024,0.029,0.06,0.033,0.101c0.004,0.042,0.004,0.098,0,0.164l0.258,0.064l0.269-1.064l-0.258-0.068
		c-0.026,0.066-0.054,0.114-0.075,0.15c-0.024,0.033-0.052,0.056-0.078,0.068c-0.027,0.014-0.056,0.019-0.089,0.016l-0.115-0.021
		l-0.596-0.145l0.267-1.096l1.021,0.25l0.176,0.052c0.051,0.018,0.091,0.042,0.122,0.073c0.031,0.033,0.049,0.077,0.058,0.136
		c0.004,0.057-0.002,0.134-0.026,0.23l-0.031,0.123l0.589,0.148L104.492,57.757L104.492,57.757z M109.112,59.018L109.112,59.018
		l-0.165-0.05l-0.176-0.053l-0.145-0.042l-0.08-0.022l-0.021,0.083l-0.023,0.076l-0.021,0.086c-0.12-0.167-0.263-0.297-0.427-0.39
		s-0.338-0.164-0.521-0.215c-0.211-0.061-0.404-0.083-0.584-0.074c-0.181,0.014-0.341,0.056-0.482,0.125
		c-0.141,0.069-0.261,0.164-0.355,0.284c-0.096,0.12-0.165,0.258-0.207,0.418c-0.069,0.249-0.05,0.483,0.058,0.701
		c0.106,0.217,0.3,0.429,0.577,0.648l0.388,0.284c0.126,0.087,0.237,0.177,0.336,0.265c0.095,0.092,0.166,0.183,0.213,0.278
		c0.047,0.098,0.056,0.202,0.022,0.315c-0.023,0.085-0.062,0.153-0.111,0.214c-0.051,0.058-0.111,0.1-0.185,0.128
		c-0.07,0.027-0.15,0.042-0.239,0.045c-0.09-0.003-0.186-0.013-0.285-0.042c-0.134-0.038-0.243-0.085-0.329-0.138
		c-0.089-0.054-0.155-0.118-0.207-0.191c-0.051-0.071-0.084-0.151-0.103-0.241c-0.015-0.09-0.021-0.188-0.013-0.294l0.002-0.154
		l-0.573-0.152l-0.327,1.218l0.649,0.173l0.08-0.293c0.045,0.07,0.098,0.145,0.164,0.211c0.064,0.069,0.138,0.132,0.218,0.187
		c0.08,0.058,0.169,0.109,0.261,0.153c0.093,0.045,0.188,0.081,0.287,0.107c0.204,0.058,0.396,0.079,0.58,0.062
		c0.18-0.013,0.342-0.062,0.486-0.133c0.145-0.075,0.268-0.174,0.369-0.296c0.1-0.12,0.174-0.26,0.22-0.418
		c0.043-0.146,0.058-0.284,0.047-0.414c-0.011-0.126-0.045-0.244-0.095-0.354c-0.054-0.106-0.123-0.212-0.205-0.304
		c-0.085-0.095-0.178-0.182-0.279-0.262l-0.448-0.335c-0.142-0.099-0.267-0.195-0.368-0.289c-0.105-0.092-0.183-0.186-0.231-0.278
		c-0.05-0.094-0.061-0.197-0.029-0.312c0.022-0.073,0.056-0.135,0.103-0.189c0.047-0.05,0.103-0.089,0.172-0.117
		c0.066-0.029,0.142-0.044,0.229-0.047c0.084-0.002,0.178,0.011,0.275,0.04c0.242,0.067,0.409,0.164,0.5,0.294
		c0.094,0.126,0.132,0.284,0.115,0.472l-0.004,0.075l-0.002,0.082l0.578,0.165L109.112,59.018z"/>
	<path fill-rule="evenodd" clip-rule="evenodd" fill="#545454" d="M112.687,62.199l-0.089,0.287c2.02,0.639,4.024,1.322,6.016,2.046
		l0.101-0.283C116.721,63.527,114.713,62.839,112.687,62.199L112.687,62.199z M7.213,64.295L7.213,64.295
		c1.994-0.718,4.004-1.402,6.028-2.035l-0.091-0.285c-2.028,0.636-4.04,1.32-6.04,2.041L7.213,64.295z"/>
	<path fill-rule="evenodd" clip-rule="evenodd" fill="#373737" d="M4.213,75.18c37.229-15.326,80.274-15.302,117.483,0.007
		c-0.854,2.127,0.287,4.605,2.513,5.591l-1.605,3.622c2.908,1.284,4.116,4.643,2.761,7.358c-1.36,2.728-4.567,3.886-7.22,2.714
		l-1.594,3.601c-1.968-0.869-4.291,0.21-5.145,2.336c-30.614-12.624-66.288-12.63-96.887-0.014c-0.854-2.123-3.177-3.201-5.143-2.33
		L7.78,94.464c-2.651,1.172-5.859,0.019-7.224-2.706c-1.356-2.713-0.153-6.074,2.753-7.363l-1.605-3.619
		C3.928,79.789,5.069,77.31,4.213,75.18z"/>
	<path fill="#FFFFFF" d="M21.144,85.517c-0.134-0.426-0.314-0.762-0.531-1.033c-0.215-0.271-0.454-0.456-0.761-0.594
		c-0.273-0.122-0.59-0.204-0.938-0.224c0.209-0.169,0.353-0.374,0.459-0.617c0.106-0.244,0.167-0.47,0.188-0.739
		c-0.004-0.263-0.03-0.514-0.112-0.776l-0.624-1.972c-0.157-0.498-0.366-0.904-0.638-1.158c-0.254-0.282-0.562-0.474-0.888-0.554
		c-0.359-0.094-0.73-0.134-1.149-0.068c-0.42,0.062-0.876,0.188-1.348,0.347c-1.493,0.514-2.98,1.044-4.458,1.604l0.202,0.534
		l0.939,0.208l2.092,5.629l2.093,5.631l-0.612,0.872l0.211,0.558c1.385-0.526,2.779-1.024,4.181-1.507
		c0.718-0.237,1.289-0.541,1.725-0.892c0.411-0.34,0.706-0.746,0.82-1.256c0.122-0.482,0.073-1.043-0.128-1.685L21.144,85.517z
		 M14.653,82.958l-0.541-1.527l-0.574-1.62l1.494-0.524c0.278-0.069,0.517-0.096,0.754-0.043c0.22,0.083,0.413,0.176,0.582,0.356
		c0.17,0.18,0.29,0.375,0.376,0.635l0.654,1.964c0.148,0.449,0.17,0.838,0.067,1.16c-0.104,0.325-0.372,0.548-0.802,0.689
		l-0.496,0.175l-0.449,0.158l-0.497,0.174L14.653,82.958z M19.951,89.728c-0.131,0.36-0.445,0.623-0.943,0.79L17.14,91.17
		l-0.034-0.093c0.142-0.103,0.198-0.228,0.232-0.348c0.011-0.108-0.017-0.257-0.075-0.419l-0.559-1.576l-0.583-1.646l-0.558-1.572
		l1.386-0.486c0.401-0.135,0.756-0.176,1.031-0.135c0.274,0.037,0.502,0.173,0.698,0.37c0.204,0.221,0.352,0.514,0.477,0.892
		l0.756,2.297C20.074,88.951,20.094,89.393,19.951,89.728z M32.04,86.938c-2.028-4.086-4.157-8.15-6.382-12.16l-2.127,0.564
		l0.071,3.366l0.127,3.515l0.189,3.498l0.19,3.374l-0.568,0.588l0.183,0.599l2.562-0.754l-0.168-0.6l-0.788-0.162l-0.164-2.938
		l3.548-0.952l1.336,2.644l-0.558,0.607l0.129,0.507l3.355-0.809l-0.139-0.607L32.04,86.938z M25.105,84.628l-0.27-7.059
		l0.023-0.007l3.305,6.248L25.105,84.628z M41.949,85.095c-0.149-0.029-0.261-0.111-0.374-0.22
		c-0.113-0.109-0.231-0.243-0.302-0.383c-0.097-0.138-0.189-0.271-0.262-0.411l-1.338-2.457c-0.105-0.182-0.235-0.364-0.334-0.5
		c-0.126-0.153-0.271-0.282-0.415-0.385c-0.166-0.096-0.36-0.193-0.57-0.255c0.42-0.176,0.786-0.385,1.088-0.689
		c0.3-0.305,0.515-0.691,0.647-1.12c0.13-0.451,0.15-0.959,0.058-1.551l-0.295-1.844c-0.098-0.617-0.282-1.119-0.579-1.499
		c-0.271-0.383-0.609-0.68-1.036-0.859c-0.431-0.206-0.898-0.311-1.409-0.341c-0.536-0.029-1.086,0.02-1.652,0.124
		c-1.425,0.27-2.844,0.56-4.259,0.868l0.128,0.584l0.874,0.349l1.26,5.898l1.255,5.875l-0.71,0.764l0.129,0.582l1.179-0.251
		l1.25-0.259l1.184-0.233l-0.111-0.587l-0.956-0.42l-0.219-1.103l-0.237-1.196L35.7,82.354l-0.214-1.075
		c0.363-0.073,0.684-0.109,0.944-0.059c0.254,0.022,0.473,0.114,0.654,0.283c0.186,0.192,0.381,0.436,0.569,0.782l1.415,2.4
		c0.144,0.254,0.28,0.482,0.394,0.716c0.132,0.204,0.265,0.409,0.41,0.562c0.128,0.182,0.312,0.276,0.52,0.367
		c0.18,0.073,0.444,0.078,0.724,0.031c0.163-0.027,0.304-0.054,0.462-0.103c0.188-0.029,0.344-0.103,0.48-0.149
		c0.156-0.073,0.312-0.146,0.417-0.24l-0.12-0.787C42.223,85.156,42.078,85.153,41.949,85.095z M38.025,78.62
		c-0.071,0.317-0.225,0.598-0.493,0.8c-0.238,0.22-0.567,0.355-1.033,0.441l-1.27,0.247l-0.306-1.538l-0.276-1.394l-0.281-1.418
		l-0.305-1.541l1.35-0.262c0.484-0.089,0.881-0.084,1.192,0.033c0.307,0.098,0.555,0.305,0.732,0.578
		c0.153,0.272,0.299,0.653,0.371,1.071l0.322,1.841C38.106,77.921,38.096,78.303,38.025,78.62z M51.072,79.664
		c-0.062-0.443-0.144-0.812-0.293-1.126c-0.176-0.312-0.371-0.545-0.614-0.748c-0.266-0.172-0.555-0.322-0.892-0.415
		c0.24-0.122,0.449-0.294,0.582-0.504c0.156-0.217,0.265-0.429,0.344-0.686c0.077-0.258,0.082-0.509,0.058-0.78l-0.181-2.062
		c-0.045-0.521-0.161-0.962-0.344-1.269c-0.186-0.333-0.444-0.585-0.771-0.729c-0.305-0.171-0.683-0.287-1.107-0.319
		c-0.423-0.034-0.868-0.008-1.363,0.046c-1.577,0.169-3.152,0.373-4.724,0.594l0.081,0.566l0.896,0.407l0.816,5.949l0.812,5.953
		l-0.79,0.712l0.085,0.591c1.46-0.204,2.922-0.395,4.389-0.554c0.774-0.086,1.376-0.249,1.877-0.493
		c0.5-0.249,0.853-0.58,1.075-1.055c0.225-0.442,0.323-0.999,0.267-1.668L51.072,79.664z M45.271,75.753l-0.197-1.606l-0.207-1.708
		l1.572-0.183c0.286-0.008,0.549,0.014,0.743,0.118c0.222,0.127,0.393,0.258,0.492,0.474c0.125,0.211,0.198,0.429,0.227,0.702
		l0.211,2.057c0.048,0.472-0.014,0.855-0.187,1.149c-0.171,0.293-0.481,0.454-0.93,0.503l-0.523,0.058l-0.474,0.055l-0.522,0.065
		L45.271,75.753z M48.971,83.512c-0.21,0.322-0.574,0.515-1.071,0.566l-1.991,0.235l-0.014-0.099c0.16-0.071,0.268-0.183,0.302-0.29
		c0.036-0.104,0.065-0.257,0.021-0.428l-0.204-1.659l-0.211-1.732l-0.201-1.656l1.457-0.171c0.422-0.046,0.776-0.009,1.036,0.087
		c0.261,0.098,0.478,0.273,0.626,0.513c0.127,0.264,0.206,0.581,0.247,0.979l0.237,2.405C49.258,82.783,49.18,83.217,48.971,83.512z
		 M59.665,81.301l-0.622,1.979l-1.672,0.061l-1.67,0.078l-0.005-0.099c0.165-0.058,0.28-0.164,0.321-0.267
		c0.043-0.102,0.06-0.227,0.054-0.378l-0.112-2.264l-0.113-2.264l1.957-0.086l0.557,1.076l0.613-0.021l-0.031-1.12l-0.033-1.22
		l-0.031-1.121l-0.631,0.021l-0.487,1.14l-1.975,0.086l-0.133-2.69l-0.134-2.686l2.903-0.12l0.649,1.979l1.05-0.026l-0.062-3.212
		l-2.562,0.071l-2.508,0.111l-2.56,0.156l0.036,0.519l0.842,0.496l0.389,6.019l0.389,6.044l-0.839,0.654l0.043,0.596l3.661-0.211
		l3.644-0.109l-0.056-3.214L59.665,81.301z M70.655,83.693c-0.14-0.059-0.229-0.161-0.317-0.289
		c-0.089-0.129-0.177-0.285-0.218-0.436c-0.063-0.154-0.128-0.309-0.169-0.459l-0.82-2.688c-0.04-0.202-0.13-0.404-0.222-0.559
		c-0.066-0.175-0.183-0.328-0.302-0.457c-0.143-0.131-0.312-0.26-0.504-0.368c0.448-0.083,0.85-0.221,1.208-0.453
		c0.357-0.232,0.647-0.565,0.868-0.955c0.221-0.411,0.348-0.905,0.379-1.503l0.097-1.865c0.032-0.625-0.041-1.151-0.252-1.587
		c-0.187-0.432-0.48-0.796-0.835-1.062c-0.377-0.292-0.814-0.48-1.306-0.625c-0.518-0.145-1.065-0.213-1.641-0.223
		c-1.456-0.035-2.913-0.052-4.368-0.042l0.002,0.598l0.809,0.518l-0.005,6.031l-0.004,6.008l-0.856,0.605l0.004,0.597l1.206-0.004
		l1.277,0.012l1.208,0.021l0.013-0.598l-0.847-0.618l0.019-1.122l0.018-1.22l0.019-1.246l0.018-1.099
		c0.37,0.008,0.69,0.042,0.936,0.147c0.244,0.079,0.438,0.208,0.581,0.41c0.14,0.228,0.28,0.505,0.392,0.883l0.884,2.649
		l0.234,0.781c0.089,0.229,0.173,0.455,0.286,0.634c0.087,0.203,0.247,0.333,0.407,0.465c0.185,0.108,0.441,0.171,0.726,0.187
		c0.165,0.006,0.307,0.015,0.473-0.003c0.166,0.009,0.357-0.031,0.5-0.049c0.169-0.042,0.338-0.084,0.46-0.148l0.047-0.797
		C70.913,83.804,70.771,83.775,70.655,83.693z M67.522,77.219c-0.28,0.161-0.63,0.229-1.103,0.22l-1.293-0.029l0.022-1.569
		l0.021-1.42l0.022-1.445l0.022-1.569l1.376,0.03c0.49,0.009,0.879,0.094,1.158,0.28c0.279,0.16,0.478,0.415,0.595,0.721
		c0.093,0.302,0.155,0.702,0.139,1.127l-0.071,1.867c-0.016,0.447-0.105,0.82-0.242,1.112
		C68.035,76.838,67.828,77.081,67.522,77.219z M81.594,71.279l-0.277,0.744l-0.077-0.009c-0.202-0.275-0.44-0.479-0.682-0.662
		c-0.246-0.157-0.521-0.287-0.801-0.367c-0.281-0.079-0.565-0.138-0.852-0.169c-0.441-0.049-0.864-0.044-1.268,0.045
		c-0.427,0.06-0.781,0.202-1.14,0.394c-0.333,0.218-0.594,0.496-0.831,0.852c-0.213,0.357-0.327,0.798-0.374,1.345l-0.145,1.713
		c-0.043,0.521,0.022,0.952,0.171,1.29c0.171,0.362,0.369,0.683,0.673,0.936c0.279,0.229,0.609,0.459,0.938,0.665l1.07,0.535
		c0.329,0.188,0.659,0.375,0.934,0.579c0.276,0.206,0.499,0.432,0.663,0.704c0.143,0.268,0.202,0.601,0.157,0.975l-0.209,1.732
		c-0.042,0.345-0.126,0.635-0.251,0.873c-0.149,0.231-0.317,0.434-0.569,0.533c-0.23,0.122-0.522,0.167-0.855,0.131
		c-0.454-0.024-0.77-0.209-0.979-0.509c-0.21-0.296-0.285-0.752-0.227-1.347l0.113-1.142l-2.256-0.203l-0.094,1.114
		c-0.045,0.549,0.012,1.028,0.169,1.439c0.157,0.412,0.366,0.756,0.675,1.038c0.285,0.276,0.644,0.509,1.031,0.672
		c0.411,0.159,0.853,0.262,1.321,0.312c0.446,0.053,0.898,0.043,1.357-0.021c0.435-0.045,0.833-0.174,1.216-0.376
		c0.362-0.207,0.688-0.493,0.931-0.86c0.266-0.367,0.428-0.845,0.503-1.39l0.238-1.754c0.07-0.518,0.034-0.977-0.088-1.369
		c-0.15-0.373-0.355-0.704-0.62-0.988c-0.292-0.262-0.589-0.499-0.939-0.717c-0.354-0.196-0.709-0.392-1.068-0.554l-0.974-0.559
		c-0.284-0.179-0.514-0.409-0.667-0.649c-0.178-0.241-0.25-0.549-0.215-0.895l0.168-1.709c0.05-0.499,0.217-0.884,0.503-1.133
		c0.259-0.249,0.66-0.329,1.152-0.3c0.516,0.058,0.861,0.242,1.112,0.549c0.228,0.28,0.334,0.695,0.271,1.214l-0.122,1.016
		l2.126,0.271l0.257-1.902l0.256-1.901L81.594,71.279z M94.466,74.08l0.128-0.585l-3.718-0.758l-0.114,0.587l0.693,0.671
		l-1.024,5.234l-3.274-0.601l0.9-5.258l0.885-0.378l0.105-0.589l-3.745-0.612l-0.09,0.59l0.719,0.64l-1.88,12.017l-0.943,0.335
		l-0.088,0.592l3.663,0.6l0.105-0.588l-0.785-0.619l0.955-5.574l3.248,0.595l-1.087,5.554l-0.929,0.3l-0.111,0.59l3.615,0.735
		l0.127-0.585l-0.764-0.646l2.511-11.901L94.466,74.08z M104.346,77.618c-0.189-0.65-0.547-1.195-1.063-1.679
		c-0.54-0.49-1.235-0.833-2.096-1.065c-0.838-0.214-1.616-0.24-2.323-0.105c-0.687,0.168-1.273,0.485-1.758,0.958
		c-0.461,0.478-0.783,1.068-0.958,1.821l-1.624,6.94c-0.175,0.752-0.164,1.446,0.005,2.076c0.2,0.612,0.533,1.156,1.009,1.605
		c0.496,0.454,1.121,0.776,1.875,0.968c0.775,0.211,1.474,0.246,2.134,0.091c0.627-0.131,1.186-0.436,1.667-0.891
		c0.46-0.468,0.814-1.066,1.034-1.807l2.022-6.833C104.49,78.956,104.508,78.261,104.346,77.618z M102.207,79.104l-1.922,6.865
		c-0.088,0.311-0.222,0.609-0.37,0.88c-0.174,0.264-0.334,0.476-0.556,0.649c-0.223,0.171-0.451,0.289-0.723,0.371
		c-0.262,0.059-0.551,0.029-0.874-0.058c-0.621-0.16-1.036-0.474-1.233-0.961c-0.174-0.481-0.191-1.105,0-1.879l1.727-6.915
		c0.194-0.773,0.519-1.334,0.918-1.643c0.43-0.328,0.983-0.392,1.662-0.217c0.453,0.12,0.819,0.352,1.042,0.618
		c0.242,0.3,0.388,0.649,0.436,1.049C102.362,78.269,102.327,78.672,102.207,79.104z M114.772,81.276
		c-0.045-0.471-0.216-0.903-0.474-1.264c-0.271-0.391-0.628-0.708-1.076-1.004c-0.427-0.284-0.929-0.512-1.475-0.703
		c-1.375-0.475-2.761-0.931-4.15-1.368l-0.18,0.571l0.611,0.741l-1.836,5.745l-1.83,5.722l-1.018,0.304l-0.181,0.57l1.149,0.367
		l1.236,0.404l1.12,0.376l0.195-0.564l-0.619-0.841l0.642-1.911l0.637-1.892l1.184,0.402c0.534,0.188,1.036,0.311,1.534,0.381
		c0.472,0.065,0.947,0.057,1.374-0.028c0.409-0.113,0.803-0.317,1.138-0.643c0.358-0.317,0.637-0.769,0.865-1.376l0.909-2.4
		C114.749,82.284,114.839,81.755,114.772,81.276z M112.489,82.109l-0.872,2.415c-0.153,0.422-0.351,0.747-0.569,0.987
		c-0.218,0.237-0.479,0.382-0.798,0.458c-0.307,0.049-0.682-0.003-1.103-0.151l-1.242-0.423l1.062-3.166l1.064-3.165l1.301,0.444
		c0.464,0.163,0.81,0.362,1.021,0.621c0.218,0.233,0.328,0.537,0.347,0.865C112.722,81.318,112.634,81.711,112.489,82.109z"/>
	<path fill-rule="evenodd" clip-rule="evenodd" fill="#FFFFFF" d="M120.868,88.321c-0.618-0.28-1.347,0.012-1.612,0.627
		c-0.267,0.62,0.018,1.332,0.625,1.606c0.607,0.271,1.328-0.008,1.606-0.619C121.769,89.322,121.487,88.597,120.868,88.321z"/>
	<path fill-rule="evenodd" clip-rule="evenodd" fill="#FFFFFF" d="M5.05,88.314c-0.62,0.278-0.897,1.003-0.618,1.616
		c0.279,0.611,1.002,0.89,1.608,0.616s0.891-0.984,0.623-1.604C6.396,88.326,5.67,88.037,5.05,88.314z"/>
</g>
</svg>
