<?xml version="1.0" encoding="utf-8"?>
<!-- Generator: Adobe Illustrator 16.0.0, SVG Export Plug-In . SVG Version: 6.00 Build 0)  -->
<!DOCTYPE svg PUBLIC "-//W3C//DTD SVG 1.1//EN" "http://www.w3.org/Graphics/SVG/1.1/DTD/svg11.dtd">
<svg version="1.1" id="Layer_1" xmlns="http://www.w3.org/2000/svg" xmlns:xlink="http://www.w3.org/1999/xlink" x="0px" y="0px"
	 width="127.253px" height="75.944px" viewBox="0 0 127.253 75.944" enable-background="new 0 0 127.253 75.944"
	 xml:space="preserve">
<g>
	<path fill="#363837" d="M35.926,56.604c-0.102,0.469-0.459,0.642-0.826,0.642c-0.182,0-0.355-0.051-0.478-0.132l0.938-4.442
		c-0.398,0.488-0.877,0.814-1.376,0.814c-1.06,0-1.273-1.059-1.273-1.712c0-1.783,1.151-3.555,2.567-3.555
		c0.448,0,0.784,0.113,1.039,0.336c0.164-0.215,0.418-0.295,0.673-0.295c0.183,0,0.356,0.051,0.479,0.131L35.926,56.604
		L35.926,56.604z M93.456,48.902l-0.602,2.863c-0.112,0.519,0.021,0.744,0.224,0.744c0.184,0,0.419-0.122,0.571-0.489
		c0.193,0,0.306,0.102,0.306,0.275c0,0.713-0.835,1.191-1.406,1.191c-0.454,0-1.067-0.234-1.019-1.141
		c-0.7,0.725-1.648,1.141-2.464,1.141c-0.703,0-1.307-0.306-1.577-0.963c-0.48,0.521-1.188,0.963-1.724,0.963
		c-0.499,0-0.998-0.254-0.948-1.151c-0.407,0.663-0.906,1.151-1.487,1.151c-0.634,0-0.912-0.375-1.003-0.839
		c-0.473,0.464-1.111,0.839-1.603,0.839c-0.48,0-0.938-0.224-0.928-1.028c-0.428,0.6-0.969,1.028-1.549,1.028
		c-1.06,0-1.273-1.059-1.273-1.712c0-0.604,0.133-1.208,0.362-1.741c-0.283,0.16-0.615,0.311-0.942,0.376
		c-0.06,1.539-1.446,3.077-2.659,3.077c-1.049,0-1.498-0.845-1.498-1.804c0-1.537,1.071-3.463,2.608-3.463
		c0.51,0,0.918,0.144,1.223,0.601c-0.02,0.235-0.193,0.347-0.346,0.286c-0.193-0.071-0.407-0.113-0.652-0.113
		c-0.927,0-1.528,1.366-1.528,2.364c0,0.897,0.306,1.243,0.662,1.243c0.602,0,1.365-0.989,1.121-2.089
		c-0.184-0.01-0.356-0.05-0.468-0.122c-0.215-0.56,0.009-1.07,0.59-1.07c0.397,0,0.724,0.224,0.865,0.601
		c0.55-0.123,1.038-0.383,1.452-0.645c0.462-0.637,1.089-1.057,1.777-1.057c0.418,0,0.733,0.092,0.979,0.285l0.254-1.192
		c0.062-0.275-0.133-0.336-0.295-0.142c-0.143-0.133-0.152-0.235-0.152-0.316c0-0.235,0.733-0.725,1.283-0.725
		c0.366,0,0.57,0.174,0.489,0.562l-1.07,5.074c-0.121,0.57,0.041,0.754,0.306,0.754c0.326,0,0.698-0.19,0.957-0.407
		c0.01-0.203,0.041-0.404,0.081-0.581l0.479-2.089c0.041-0.163-0.01-0.255-0.102-0.255c-0.052,0-0.112,0.041-0.204,0.123
		c-0.133-0.082-0.203-0.397,0-0.561c0.347-0.275,0.714-0.488,1.142-0.488c0.366,0,0.581,0.173,0.488,0.56l-0.621,2.895
		c-0.092,0.417,0.041,0.601,0.347,0.601c0.357,0,0.661-0.205,0.938-0.53l0.611-2.883c0.102-0.468,0.489-0.642,0.855-0.642
		c0.184,0,0.356,0.051,0.479,0.131l-0.713,3.373c-0.123,0.57,0.04,0.754,0.305,0.754c0.34,0,0.729-0.207,0.99-0.434
		c-0.022-0.131-0.034-0.271-0.034-0.421c0-1.569,1.07-3.444,2.6-3.444c0.824,0,1.232,0.326,1.232,0.988
		c0,0.57-0.336,0.835-0.713,0.835c-0.133,0-0.297-0.041-0.409-0.143c0.112-0.244,0.164-0.519,0.164-0.662
		c0-0.194-0.122-0.295-0.377-0.295c-0.571,0-1.233,1.09-1.233,2.557c0,0.805,0.429,1.1,0.979,1.1c0.731,0,1.668-0.518,2.106-1.097
		l0.551-2.601h-0.509c-0.05-0.326,0.112-0.59,0.428-0.59h0.204l0.184-0.836c0.102-0.469,0.489-0.643,0.855-0.643
		c0.184,0,0.357,0.052,0.479,0.132l-0.286,1.346h0.744c0.052,0.326-0.112,0.59-0.429,0.59H93.456L93.456,48.902z M79.817,51.806
		L79.817,51.806l0.581-2.73c-0.173-0.061-0.337-0.091-0.49-0.091c-1.232,0-1.671,1.609-1.671,2.719c0,0.51,0.235,0.734,0.552,0.734
		c0.325,0,0.753-0.265,1.028-0.643V51.806L79.817,51.806z M70.517,49.371l0.112-0.55c0.081-0.386-0.122-0.56-0.489-0.56
		c-0.427,0-0.794,0.213-1.141,0.488c-0.204,0.164-0.133,0.479,0,0.561c0.092-0.082,0.152-0.123,0.204-0.123
		c0.091,0,0.132,0.092,0.101,0.255l-0.835,3.913c0.122,0.082,0.296,0.132,0.479,0.132c0.367,0,0.754-0.173,0.855-0.642l0.122-0.622
		c0.52-2.354,0.999-2.812,1.336-2.812c0.213,0,0.315,0.113,0.315,0.255c0,0.122-0.041,0.254-0.112,0.316
		c0.091,0.031,0.203,0.041,0.296,0.041c0.529,0,0.814-0.499,0.814-0.958c0-0.418-0.255-0.804-0.744-0.804
		C71.362,48.261,70.925,48.545,70.517,49.371L70.517,49.371z M64.456,49.442c0.041-0.163-0.011-0.255-0.102-0.255
		c-0.051,0-0.112,0.041-0.204,0.123c-0.133-0.082-0.204-0.397,0-0.561c0.347-0.275,0.713-0.488,1.142-0.488
		c0.366,0,0.58,0.173,0.488,0.56l-0.05,0.245c0.396-0.489,0.876-0.804,1.385-0.804c0.896,0,1.295,0.754,1.295,1.681
		c0,1.528-1.111,3.545-2.854,3.545c-0.244,0-0.499-0.092-0.703-0.265l-0.702,3.383c-0.102,0.469-0.459,0.642-0.824,0.642
		c-0.184,0-0.357-0.051-0.48-0.132L64.456,49.442L64.456,49.442z M65.546,49.931L65.546,49.931l-0.56,2.66
		c0.183,0.102,0.346,0.111,0.509,0.111c1.039,0,1.661-1.385,1.661-2.394c0-0.713-0.255-1.029-0.601-1.029
		C66.25,49.279,65.883,49.514,65.546,49.931L65.546,49.931z M57.233,49.442c0.042-0.163-0.01-0.255-0.102-0.255
		c-0.051,0-0.111,0.041-0.204,0.123c-0.132-0.082-0.202-0.397,0-0.561c0.348-0.275,0.714-0.488,1.142-0.488
		c0.367,0,0.571,0.173,0.489,0.56l-0.631,2.935c-0.071,0.316,0.009,0.561,0.345,0.561c0.297,0,0.552-0.143,0.785-0.367l0.663-3.047
		c0.101-0.468,0.488-0.642,0.855-0.642c0.184,0,0.355,0.051,0.479,0.131l-0.866,4.036c-0.041,0.173-0.08,0.356-0.122,0.54
		c0.174-0.031,0.316-0.041,0.428-0.041c0.418,0,0.602,0.408,0.469,0.805c-0.325-0.072-0.692-0.072-1.069-0.031
		c-0.469,1.814-1.243,3.627-2.966,3.627c-0.57,0-1.1-0.408-1.1-1.253c0-1.263,1.589-2.241,2.965-2.74
		c0.061-0.224,0.122-0.449,0.193-0.693c-0.397,0.499-0.855,0.835-1.365,0.835c-0.588,0-0.854-0.34-0.933-0.812
		c-0.479,0.457-1.153,0.822-1.757,0.822c-0.457,0-0.798-0.209-0.854-0.767c-0.454,0.431-1.032,0.767-1.611,0.767
		c-0.46,0-0.988-0.233-0.941-0.965c-0.539,0.573-1.378,0.965-2.063,0.965c-0.545,0-0.99-0.257-1.108-0.857
		c-0.474,0.474-1.122,0.857-1.62,0.857c-0.479,0-0.958-0.224-0.948-1.028c-0.427,0.6-0.968,1.028-1.549,1.028
		c-0.678,0-1.009-0.435-1.161-0.918c-0.477,0.5-1.16,0.918-1.68,0.918c-0.499,0-0.998-0.254-0.947-1.151
		c-0.408,0.663-0.907,1.151-1.488,1.151c-1.13,0-1.13-1.191-0.956-1.956l0.479-2.089c0.04-0.163-0.011-0.255-0.103-0.255
		c-0.05,0-0.111,0.041-0.203,0.123c-0.133-0.082-0.204-0.397,0-0.561c0.346-0.275,0.713-0.488,1.141-0.488
		c0.367,0,0.581,0.173,0.489,0.56l-0.621,2.895c-0.093,0.417,0.04,0.601,0.346,0.601c0.356,0,0.662-0.205,0.938-0.53l0.61-2.883
		c0.102-0.468,0.489-0.642,0.856-0.642c0.183,0,0.355,0.051,0.478,0.131l-0.713,3.373c-0.122,0.57,0.042,0.754,0.307,0.754
		c0.332,0,0.714-0.199,0.974-0.42c-0.012-0.114-0.017-0.224-0.017-0.324c0-1.783,1.15-3.555,2.565-3.555
		c0.459,0,0.796,0.113,1.051,0.336c0.173-0.204,0.437-0.295,0.692-0.295c0.184,0,0.356,0.051,0.479,0.131l-0.714,3.373
		c-0.122,0.57,0.04,0.754,0.307,0.754c0.337,0,0.725-0.206,0.985-0.431c0.003-0.035,0.006-0.072,0.011-0.109
		c0.469-3.688,1.151-5.849,2.486-5.849c0.479,0,0.814,0.297,0.814,0.827c0,0.794-0.662,2.425-1.976,4.431
		c-0.021,0.123-0.041,0.255-0.051,0.377c-0.071,0.53,0.193,0.733,0.549,0.733c0.561,0,1.377-0.499,1.57-1.06l0,0l0.416-1.997
		c0.031-0.163-0.01-0.255-0.102-0.255c-0.051,0-0.111,0.041-0.204,0.123c-0.133-0.082-0.204-0.397,0-0.561
		c0.347-0.275,0.713-0.488,1.142-0.488c0.367,0,0.57,0.173,0.489,0.56l-0.622,2.945c-0.122,0.57,0.041,0.754,0.306,0.754
		c0.324,0,0.692-0.188,0.952-0.402c0.007-0.044,0.016-0.091,0.025-0.138l0.652-3.077h-0.51c-0.051-0.326,0.112-0.59,0.428-0.59
		h0.204l0.184-0.836c0.102-0.469,0.488-0.643,0.855-0.643c0.183,0,0.356,0.052,0.479,0.132l-0.286,1.346h0.744
		c0.05,0.326-0.112,0.59-0.429,0.59h-0.448l-0.601,2.863c-0.122,0.57,0.04,0.754,0.305,0.754c0.325,0,0.694-0.188,0.953-0.403
		c0.014-0.191,0.044-0.389,0.087-0.584L57.233,49.442L57.233,49.442z M58.579,54.047L58.579,54.047
		c-1.12,0.448-2.059,1.203-2.059,1.896c0,0.356,0.285,0.478,0.418,0.478C57.642,56.421,58.06,55.719,58.579,54.047L58.579,54.047z
		 M53.262,46.233c-0.397,0-0.733,0.315-0.773,0.713c-0.062,0.397,0.233,0.714,0.631,0.714s0.734-0.316,0.795-0.714
		C53.954,46.548,53.66,46.233,53.262,46.233L53.262,46.233L53.262,46.233z M49.799,50.482L49.799,50.482
		c0.896-1.662,1.273-3.108,1.273-3.455c0-0.173-0.062-0.224-0.173-0.224C50.562,46.804,50.145,48.333,49.799,50.482L49.799,50.482z
		 M46.376,49.065L46.376,49.065c-0.172-0.061-0.326-0.081-0.478-0.081c-1.233,0-1.671,1.609-1.671,2.719
		c0,0.51,0.234,0.734,0.55,0.734c0.326,0,0.753-0.265,1.029-0.643L46.376,49.065L46.376,49.065z M35.741,51.806L35.741,51.806
		l0.582-2.741c-0.173-0.061-0.326-0.081-0.479-0.081c-1.233,0-1.672,1.609-1.672,2.719c0,0.51,0.235,0.734,0.551,0.734
		C35.051,52.438,35.467,52.173,35.741,51.806z"/>
	<rect x="32.947" y="60.566" fill="#8C8C8C" width="61.357" height="0.567"/>
	<path fill="#363837" d="M46.52,69.815V69.02h-0.224l-0.171,0.485c-0.146,0-0.288,0-0.431,0c-0.142,0-0.286,0-0.43,0V69.48
		c0.042-0.015,0.07-0.034,0.086-0.059c0.015-0.025,0.021-0.057,0.021-0.098c0-0.188,0-0.375,0-0.561c0-0.184,0-0.37,0-0.558h0.485
		l0.131,0.269h0.153c0-0.084,0-0.177,0-0.277s0-0.2,0-0.301c0-0.103,0-0.193,0-0.277h-0.153l-0.131,0.278h-0.485
		c0-0.223,0-0.447,0-0.669c0-0.224,0-0.445,0-0.667h0.688l0.142,0.497h0.253v-0.794c-0.206,0-0.407,0-0.604,0
		c-0.198,0-0.395,0-0.593,0c-0.197,0-0.398,0-0.604,0v0.131l0.192,0.132c0,0.496,0,0.995,0,1.493c0,0.5,0,0.997,0,1.495
		l-0.228,0.152v0.147c0.318,0,0.637,0,0.953,0C45.888,69.815,46.203,69.815,46.52,69.815L46.52,69.815z M48.835,69.097v-0.284
		h-0.572v0.279c0.001,0.135,0.025,0.251,0.074,0.349c0.048,0.1,0.113,0.181,0.197,0.243c0.083,0.063,0.179,0.11,0.287,0.141
		c0.109,0.03,0.225,0.047,0.347,0.047s0.239-0.015,0.351-0.043c0.112-0.027,0.214-0.073,0.304-0.135
		c0.089-0.061,0.159-0.141,0.211-0.239c0.054-0.098,0.08-0.218,0.082-0.357v-0.436c-0.002-0.132-0.026-0.243-0.073-0.332
		c-0.046-0.091-0.107-0.164-0.183-0.223c-0.078-0.059-0.161-0.107-0.253-0.147s-0.183-0.075-0.275-0.109
		c-0.09-0.032-0.175-0.067-0.252-0.106c-0.076-0.038-0.137-0.086-0.184-0.144c-0.046-0.055-0.069-0.128-0.071-0.214v-0.43
		c0-0.121,0.03-0.217,0.091-0.285c0.061-0.067,0.149-0.104,0.269-0.104c0.12,0,0.211,0.034,0.275,0.101s0.098,0.162,0.099,0.289
		v0.258h0.521c0-0.158,0-0.318,0-0.477c0-0.159,0-0.317,0-0.473h-0.343l-0.041,0.191h-0.021c-0.056-0.061-0.115-0.109-0.179-0.143
		c-0.063-0.032-0.128-0.055-0.195-0.068c-0.067-0.012-0.135-0.018-0.201-0.017c-0.105,0-0.203,0.012-0.299,0.039
		s-0.181,0.068-0.255,0.126c-0.075,0.058-0.136,0.132-0.18,0.226c-0.043,0.093-0.066,0.205-0.067,0.337v0.43
		c0.002,0.126,0.025,0.231,0.071,0.315c0.046,0.085,0.106,0.155,0.183,0.21c0.076,0.056,0.16,0.104,0.25,0.142
		c0.091,0.039,0.182,0.076,0.272,0.11s0.174,0.072,0.25,0.114c0.076,0.043,0.137,0.094,0.183,0.155
		c0.047,0.062,0.07,0.14,0.071,0.233v0.431c0,0.085-0.013,0.158-0.039,0.224c-0.027,0.064-0.068,0.115-0.127,0.149
		c-0.057,0.037-0.129,0.056-0.219,0.057c-0.115,0-0.203-0.032-0.265-0.102C48.866,69.357,48.835,69.247,48.835,69.097L48.835,69.097
		L48.835,69.097z M53.478,66.583l0.17,0.581h0.243l-0.02-0.899h-2.059l-0.021,0.899h0.243l0.162-0.581h0.379
		c0,0.968,0,1.935,0,2.902l-0.223,0.157v0.173c0.098,0,0.203,0,0.315,0c0.113,0,0.228,0,0.341,0c0.114,0,0.22,0,0.319,0v-0.173
		l-0.222-0.157c0-0.968,0-1.935,0-2.902H53.478L53.478,66.583z M56.292,66.866h0.005l0.396,1.703h-0.795L56.292,66.866
		L56.292,66.866z M55.831,68.857h0.932l0.167,0.714l-0.183,0.112v0.132h0.9v-0.158l-0.182-0.11l-0.814-3.299H56.13
		c-0.064,0.262-0.13,0.532-0.196,0.811c-0.067,0.277-0.135,0.561-0.202,0.845c-0.066,0.284-0.135,0.566-0.2,0.846
		c-0.066,0.279-0.131,0.55-0.194,0.812l-0.183,0.096v0.158h0.693v-0.158l-0.183-0.091L55.831,68.857L55.831,68.857z M61.247,68.499
		c-0.001-0.108-0.017-0.202-0.048-0.282c-0.034-0.078-0.078-0.144-0.137-0.196c-0.058-0.053-0.125-0.093-0.205-0.123
		c0.061-0.025,0.112-0.063,0.155-0.111c0.041-0.047,0.074-0.101,0.096-0.162c0.022-0.062,0.032-0.125,0.032-0.191v-0.511
		c0-0.13-0.02-0.237-0.059-0.321c-0.038-0.085-0.095-0.15-0.164-0.198c-0.071-0.048-0.155-0.081-0.253-0.101
		c-0.097-0.02-0.205-0.029-0.323-0.027h-1.117v0.142l0.191,0.132c0,0.495,0,0.989,0,1.484c0,0.493,0,0.987,0,1.483l-0.228,0.152
		v0.147h1.158c0.197,0,0.363-0.025,0.497-0.074c0.133-0.05,0.234-0.128,0.302-0.233c0.068-0.106,0.102-0.244,0.102-0.411V68.499
		L61.247,68.499z M59.821,69.511v-0.025c0.042-0.015,0.07-0.034,0.086-0.061c0.015-0.026,0.021-0.062,0.021-0.106
		c0-0.132,0-0.269,0-0.412s0-0.287,0-0.429c0-0.144,0-0.28,0-0.413h0.363c0.104,0,0.188,0.016,0.251,0.047
		c0.063,0.032,0.109,0.08,0.138,0.145c0.027,0.065,0.042,0.146,0.041,0.243v0.598c0.001,0.133-0.029,0.233-0.091,0.305
		c-0.062,0.073-0.16,0.108-0.294,0.109H59.821L59.821,69.511z M60.302,67.812c-0.047,0-0.09,0-0.128,0c-0.041,0-0.079,0-0.118,0
		s-0.081,0-0.128,0c0-0.146,0-0.286,0-0.421c0-0.134,0-0.269,0-0.402c0-0.135,0-0.275,0-0.422h0.374
		c0.069,0.001,0.127,0.018,0.173,0.05c0.047,0.032,0.083,0.074,0.105,0.129c0.023,0.053,0.036,0.111,0.036,0.177v0.511
		c0,0.117-0.024,0.209-0.075,0.276C60.493,67.776,60.411,67.811,60.302,67.812L60.302,67.812L60.302,67.812z M64.873,69.815V69.02
		H64.65l-0.172,0.485c-0.096,0-0.188,0-0.274,0s-0.174,0-0.262,0c-0.087,0-0.178,0-0.273,0V69.48c0.042-0.015,0.07-0.034,0.085-0.06
		c0.015-0.024,0.022-0.058,0.022-0.097c0-0.927,0-1.855,0-2.782l0.191-0.132v-0.146h-0.911v0.146l0.191,0.132
		c0,0.497,0,0.991,0,1.487c0,0.494,0,0.99,0,1.486l-0.227,0.152v0.147c0.21,0,0.416,0,0.619,0s0.406,0,0.609,0
		S64.661,69.815,64.873,69.815L64.873,69.815z M67.238,66.542l0.191-0.132v-0.146h-0.895v0.146l0.191,0.132c0,0.497,0,0.991,0,1.487
		c0,0.494,0,0.99,0,1.486L66.5,69.668v0.147c0.099,0,0.204,0,0.315,0c0.112,0,0.223,0,0.334,0c0.11,0,0.214,0,0.312,0v-0.147
		l-0.223-0.152c0-0.496,0-0.992,0-1.486C67.238,67.533,67.238,67.039,67.238,66.542L67.238,66.542z M69.791,69.097v-0.284H69.22
		v0.279c0.001,0.135,0.026,0.251,0.073,0.349c0.048,0.1,0.114,0.181,0.197,0.243c0.084,0.063,0.18,0.11,0.288,0.141
		s0.225,0.047,0.347,0.047c0.121,0,0.239-0.015,0.352-0.043c0.11-0.027,0.213-0.073,0.302-0.135c0.09-0.061,0.16-0.141,0.213-0.239
		c0.052-0.098,0.079-0.218,0.079-0.357v-0.436c0-0.132-0.025-0.243-0.07-0.332c-0.047-0.091-0.108-0.164-0.185-0.223
		s-0.161-0.107-0.252-0.147c-0.092-0.04-0.184-0.075-0.274-0.109c-0.092-0.032-0.176-0.067-0.252-0.106
		c-0.076-0.038-0.138-0.086-0.185-0.144c-0.046-0.055-0.07-0.128-0.071-0.214v-0.43c0-0.121,0.03-0.217,0.09-0.285
		c0.061-0.067,0.15-0.104,0.269-0.104c0.12,0,0.213,0.034,0.277,0.101s0.097,0.162,0.098,0.289v0.258h0.521c0-0.158,0-0.318,0-0.477
		c0-0.159,0-0.317,0-0.473h-0.344l-0.041,0.191h-0.02c-0.056-0.061-0.116-0.109-0.179-0.143c-0.063-0.032-0.129-0.055-0.196-0.068
		c-0.066-0.012-0.135-0.018-0.202-0.017c-0.104,0-0.201,0.012-0.298,0.039c-0.095,0.027-0.18,0.068-0.255,0.126
		s-0.135,0.132-0.178,0.226c-0.045,0.093-0.066,0.205-0.068,0.337v0.43c0.002,0.126,0.025,0.231,0.071,0.315
		c0.046,0.085,0.106,0.155,0.184,0.21c0.075,0.056,0.158,0.104,0.249,0.142c0.091,0.039,0.181,0.076,0.273,0.11
		c0.089,0.034,0.173,0.072,0.249,0.114c0.075,0.043,0.137,0.094,0.183,0.155c0.046,0.062,0.071,0.14,0.071,0.233v0.431
		c0,0.085-0.014,0.158-0.04,0.224c-0.027,0.064-0.069,0.115-0.125,0.149c-0.059,0.037-0.13,0.056-0.22,0.057
		c-0.114,0-0.203-0.032-0.266-0.102C69.823,69.357,69.792,69.247,69.791,69.097L69.791,69.097L69.791,69.097z M73.078,66.543v3.004
		l-0.229,0.121v0.147h0.966v-0.147l-0.227-0.121V68.15h0.819v1.396l-0.223,0.121v0.147h0.961v-0.147l-0.228-0.121v-3.004
		l0.192-0.133v-0.146h-0.896v0.146l0.192,0.133v1.318h-0.819v-1.318l0.191-0.133v-0.146h-0.895v0.146L73.078,66.543L73.078,66.543z
		 M78.792,69.815V69.02h-0.223l-0.171,0.485c-0.146,0-0.289,0-0.431,0c-0.143,0-0.287,0-0.431,0V69.48
		c0.042-0.015,0.07-0.034,0.086-0.059c0.015-0.025,0.021-0.057,0.021-0.098c0-0.188,0-0.375,0-0.561c0-0.184,0-0.37,0-0.558h0.485
		l0.131,0.269h0.152c0-0.084,0-0.177,0-0.277s0-0.2,0-0.301c0-0.103,0-0.193,0-0.277H78.26l-0.131,0.278h-0.485
		c0-0.223,0-0.447,0-0.669c0-0.224,0-0.445,0-0.667h0.688l0.141,0.497h0.253v-0.794c-0.204,0-0.406,0-0.604,0
		c-0.198,0-0.396,0-0.594,0c-0.196,0-0.398,0-0.603,0v0.131l0.192,0.132c0,0.496,0,0.995,0,1.493c0,0.5,0,0.997,0,1.495
		l-0.229,0.152v0.147c0.319,0,0.637,0,0.953,0S78.476,69.815,78.792,69.815L78.792,69.815z M80.556,66.265v0.146l0.191,0.151v2.954
		l-0.222,0.152v0.147h1.093c0.148,0,0.284-0.021,0.408-0.058c0.123-0.039,0.231-0.098,0.321-0.174
		c0.09-0.077,0.161-0.173,0.211-0.29s0.074-0.254,0.075-0.411v-1.702c-0.002-0.221-0.043-0.397-0.129-0.533
		c-0.084-0.135-0.202-0.233-0.354-0.293c-0.151-0.062-0.329-0.092-0.533-0.09H80.556L80.556,66.265z M81.618,66.572
		c0.124,0.004,0.222,0.031,0.292,0.085c0.073,0.056,0.124,0.127,0.154,0.218s0.045,0.192,0.043,0.306v1.702
		c0.002,0.113-0.013,0.217-0.043,0.309s-0.081,0.165-0.154,0.22c-0.07,0.053-0.168,0.083-0.292,0.085h-0.445l-0.005-0.03
		c0.042-0.014,0.071-0.031,0.087-0.055c0.017-0.026,0.024-0.061,0.023-0.102v-2.737H81.618z"/>
	<path fill="#363837" d="M57.408,75.561l-0.229,0.156v0.167c0.1,0,0.204,0,0.314,0c0.111,0,0.223,0,0.333,0s0.215,0,0.313,0v-0.167
		l-0.222-0.156c0-1.072,0-2.145,0-3.218c-0.102,0-0.196,0-0.281,0c-0.086,0-0.17,0-0.257,0c-0.084,0-0.176,0-0.277,0v0.213
		l0.305,0.096c0,0.485,0,0.971,0,1.454C57.408,74.59,57.408,75.074,57.408,75.561L57.408,75.561z M61.844,74.396
		c0,0.077,0,0.148,0,0.212s0,0.124,0,0.183c0,0.058,0,0.118,0,0.182c0,0.062,0,0.132,0,0.208c-0.001,0.143-0.036,0.252-0.104,0.326
		c-0.067,0.075-0.162,0.113-0.281,0.114c-0.08,0.001-0.149-0.013-0.207-0.041c-0.059-0.027-0.103-0.072-0.137-0.135
		c-0.031-0.062-0.049-0.146-0.051-0.25v-0.182h-0.511v0.188c0.001,0.146,0.023,0.266,0.068,0.36
		c0.044,0.097,0.107,0.173,0.189,0.228s0.178,0.095,0.288,0.119s0.232,0.036,0.364,0.036c0.128,0,0.247-0.015,0.355-0.048
		c0.107-0.03,0.203-0.077,0.284-0.141c0.08-0.062,0.143-0.142,0.188-0.238c0.044-0.096,0.067-0.208,0.068-0.337
		c0-0.684,0-1.366,0-2.049c-0.001-0.139-0.024-0.259-0.068-0.361c-0.045-0.104-0.109-0.188-0.19-0.256
		c-0.083-0.068-0.18-0.119-0.292-0.153c-0.112-0.031-0.235-0.049-0.371-0.049c-0.134,0-0.258,0.018-0.373,0.052
		c-0.112,0.036-0.213,0.088-0.297,0.157c-0.085,0.07-0.15,0.156-0.198,0.261c-0.048,0.104-0.07,0.226-0.071,0.366v0.723
		c0.001,0.138,0.026,0.257,0.076,0.355c0.049,0.1,0.114,0.18,0.194,0.241c0.082,0.062,0.173,0.106,0.271,0.132
		c0.099,0.027,0.198,0.037,0.299,0.03c0.102-0.009,0.196-0.032,0.283-0.071S61.784,74.466,61.844,74.396L61.844,74.396
		L61.844,74.396z M61.838,73.861c0,0.108-0.021,0.199-0.059,0.272c-0.041,0.07-0.091,0.124-0.153,0.158
		c-0.061,0.036-0.127,0.053-0.195,0.052c-0.069-0.002-0.134-0.019-0.196-0.055c-0.062-0.036-0.112-0.09-0.149-0.159
		c-0.04-0.069-0.061-0.156-0.061-0.259v-0.723c0-0.095,0.014-0.18,0.044-0.254c0.027-0.077,0.073-0.135,0.134-0.18
		c0.062-0.045,0.141-0.067,0.235-0.068c0.083,0,0.153,0.019,0.213,0.053c0.059,0.035,0.104,0.09,0.139,0.161
		c0.031,0.071,0.049,0.163,0.049,0.271V73.861L61.838,73.861z M66.197,74.396c0,0.077,0,0.148,0,0.212s0,0.124,0,0.183
		c0,0.058,0,0.118,0,0.182c0,0.062,0,0.132,0,0.208c0,0.143-0.035,0.252-0.103,0.326c-0.066,0.075-0.162,0.113-0.281,0.114
		c-0.079,0.001-0.148-0.013-0.207-0.041c-0.059-0.027-0.104-0.072-0.137-0.135c-0.031-0.062-0.05-0.146-0.051-0.25v-0.182h-0.511
		v0.188c0,0.146,0.023,0.266,0.067,0.36c0.046,0.097,0.108,0.173,0.19,0.228c0.081,0.055,0.179,0.095,0.288,0.119
		c0.11,0.024,0.231,0.036,0.363,0.036c0.129,0,0.248-0.015,0.356-0.048c0.107-0.03,0.204-0.077,0.284-0.141
		c0.08-0.062,0.143-0.142,0.188-0.238c0.045-0.096,0.067-0.208,0.067-0.337c0-0.684,0-1.366,0-2.049
		c0-0.139-0.022-0.259-0.067-0.361c-0.046-0.104-0.109-0.188-0.19-0.256c-0.083-0.068-0.181-0.119-0.291-0.153
		c-0.113-0.031-0.236-0.049-0.371-0.049s-0.259,0.018-0.374,0.052c-0.113,0.036-0.212,0.088-0.296,0.157
		c-0.087,0.07-0.152,0.156-0.199,0.261c-0.047,0.104-0.071,0.226-0.071,0.366v0.723c0.001,0.138,0.026,0.257,0.075,0.355
		c0.05,0.1,0.114,0.18,0.195,0.241c0.083,0.062,0.173,0.106,0.271,0.132c0.098,0.027,0.199,0.037,0.299,0.03
		c0.102-0.009,0.195-0.032,0.284-0.071C66.064,74.52,66.139,74.466,66.197,74.396L66.197,74.396L66.197,74.396z M66.192,73.861
		c-0.001,0.108-0.021,0.199-0.06,0.272c-0.039,0.07-0.089,0.124-0.15,0.158c-0.062,0.036-0.128,0.053-0.196,0.052
		c-0.069-0.002-0.134-0.019-0.197-0.055c-0.061-0.036-0.111-0.09-0.15-0.159c-0.038-0.069-0.06-0.156-0.061-0.259v-0.723
		c0-0.095,0.015-0.18,0.044-0.254c0.029-0.077,0.074-0.135,0.135-0.18c0.062-0.045,0.14-0.067,0.236-0.068
		c0.082,0,0.151,0.019,0.212,0.053c0.06,0.035,0.105,0.09,0.138,0.161c0.033,0.071,0.05,0.163,0.05,0.271V73.861L66.192,73.861z
		 M69.414,75.561l-0.227,0.156v0.167c0.098,0,0.203,0,0.313,0s0.222,0,0.333,0c0.11,0,0.215,0,0.314,0v-0.167l-0.223-0.156
		c0-1.072,0-2.145,0-3.218c-0.103,0-0.196,0-0.28,0c-0.087,0-0.172,0-0.257,0c-0.086,0-0.178,0-0.278,0v0.213l0.304,0.096
		c0,0.485,0,0.971,0,1.454C69.414,74.59,69.414,75.074,69.414,75.561z"/>
	<path fill-rule="evenodd" clip-rule="evenodd" fill="#8C8C8C" d="M104.209,50.624c-0.557-0.021-1.057-0.279-1.579-0.586
		c-0.266-0.152-0.539-0.31-0.841-0.432c-0.3-0.127-0.636-0.204-0.964-0.222c-0.463-0.029-0.896,0.081-1.2,0.255
		c-0.082,0.046-0.153,0.096-0.216,0.146c-0.321,0.03-0.613,0.122-0.835,0.249c-0.364,0.205-0.827,0.652-0.8,1.108
		c0.009,0.143,0.074,0.277,0.225,0.372c0.209,0.131,0.485,0.067,0.616-0.142c0.111-0.177,0.084-0.402-0.054-0.546
		c-0.074-0.077-0.083-0.144-0.071-0.207c0.075-0.375,0.996-0.348,1.254-0.333c0.557,0.022,1.056,0.28,1.579,0.588
		c0.267,0.15,0.539,0.307,0.842,0.429c0.299,0.127,0.635,0.206,0.964,0.223c0.462,0.028,0.895-0.082,1.199-0.255
		c0.082-0.047,0.154-0.096,0.216-0.146c0.321-0.03,0.614-0.123,0.836-0.25c0.363-0.204,0.826-0.652,0.8-1.108
		c-0.009-0.143-0.074-0.277-0.226-0.371c-0.209-0.132-0.485-0.067-0.616,0.142c-0.111,0.177-0.084,0.401,0.055,0.546
		c0.074,0.077,0.082,0.144,0.07,0.206C105.389,50.665,104.467,50.638,104.209,50.624L104.209,50.624z M23.042,50.624
		c0.558-0.021,1.058-0.279,1.581-0.586c0.265-0.152,0.537-0.31,0.84-0.432c0.299-0.127,0.637-0.204,0.964-0.222
		c0.463-0.029,0.896,0.081,1.2,0.255c0.082,0.046,0.153,0.096,0.216,0.146c0.322,0.03,0.613,0.122,0.836,0.249
		c0.361,0.205,0.826,0.652,0.799,1.108c-0.009,0.143-0.074,0.277-0.224,0.372c-0.211,0.131-0.487,0.067-0.618-0.142
		c-0.111-0.177-0.082-0.402,0.055-0.546c0.073-0.077,0.082-0.144,0.07-0.207c-0.074-0.375-0.996-0.348-1.253-0.333
		c-0.557,0.022-1.057,0.28-1.58,0.588c-0.266,0.15-0.538,0.307-0.84,0.431c-0.301,0.126-0.637,0.204-0.965,0.222
		c-0.462,0.028-0.896-0.082-1.2-0.255c-0.082-0.047-0.153-0.096-0.216-0.146c-0.321-0.03-0.612-0.123-0.836-0.25
		c-0.362-0.205-0.826-0.652-0.798-1.108c0.008-0.143,0.073-0.277,0.224-0.371c0.209-0.132,0.486-0.067,0.617,0.142
		c0.11,0.177,0.083,0.401-0.055,0.546c-0.073,0.077-0.082,0.144-0.07,0.206C21.864,50.665,22.785,50.638,23.042,50.624
		L23.042,50.624z M26.838,49.888c-0.123-0.005-0.25-0.005-0.382,0.002c-0.556,0.02-1.057,0.282-1.58,0.587
		c-0.264,0.15-0.538,0.31-0.84,0.431c-0.105,0.044-0.214,0.082-0.325,0.114c0.124,0.005,0.252,0.004,0.383-0.003
		c0.556-0.021,1.057-0.281,1.58-0.586c0.264-0.151,0.537-0.309,0.841-0.432C26.619,49.958,26.727,49.919,26.838,49.888
		L26.838,49.888z M100.413,49.888c0.122-0.005,0.251-0.005,0.382,0.002c0.557,0.02,1.058,0.282,1.581,0.587
		c0.264,0.15,0.537,0.31,0.841,0.431c0.104,0.044,0.213,0.082,0.324,0.114c-0.123,0.005-0.252,0.004-0.383-0.003
		c-0.557-0.021-1.057-0.281-1.581-0.586c-0.264-0.151-0.537-0.309-0.841-0.432C100.633,49.958,100.524,49.919,100.413,49.888z"/>
	<path fill="#8C8C8C" d="M72.7,74.431h3.481v0.452H72.7V74.431L72.7,74.431z M51.069,74.431h3.481v0.452h-3.481V74.431
		L51.069,74.431z M51.069,73.375h3.481v0.451h-3.481V73.375L51.069,73.375z M72.7,73.375h3.481v0.451H72.7V73.375z"/>
	<path fill="#363837" d="M4.194,31.039c1.209-0.344,2.458-0.215,3.758,0.337l0.922-2.502c-0.79-0.362-1.638-0.556-2.598-0.633
		c-0.914-0.078-1.829,0.022-2.658,0.263c-1.314,0.369-2.315,1.001-2.987,1.912c-0.656,0.962-0.804,2.005-0.429,3.225
		c0.373,1.219,0.979,1.986,1.782,2.36c0.845,0.367,2.038,0.527,3.568,0.474c0.986-0.045,1.638,0.015,2.045,0.186
		c0.354,0.139,0.564,0.412,0.672,0.807c0.095,0.352,0.055,0.694-0.166,1.037c-0.23,0.302-0.58,0.488-1.078,0.629
		c-1.121,0.315-2.493,0.05-4.18-0.728l-0.977,2.582c1.981,1.013,3.903,1.24,5.828,0.7c1.312-0.366,2.282-1.006,2.885-1.916
		c0.629-0.969,0.811-1.999,0.516-3.146c-0.305-1.188-0.871-1.99-1.658-2.392c-0.798-0.449-1.856-0.642-3.136-0.617
		c-1.28,0.021-2.122-0.014-2.484-0.151c-0.405-0.122-0.664-0.375-0.768-0.725c-0.114-0.393-0.075-0.738,0.163-1.043
		C3.41,31.404,3.762,31.162,4.194,31.039L4.194,31.039z M22.678,30.015L22.678,30.015c-1.694,0.327-3.383,0.672-5.067,1.04
		l-1.184-5.427l-2.879,0.648l3.021,12.994l2.7-0.608l-1.127-5.162c1.666-0.362,3.335-0.705,5.01-1.028l0.998,5.187l2.722-0.504
		l-2.345-13.134l-2.9,0.537L22.678,30.015L22.678,30.015z M40.937,28.369L40.937,28.369c0.122,1.178-0.124,2.213-0.768,3.106
		c-0.64,0.937-1.49,1.451-2.517,1.574c-1.028,0.128-1.978-0.166-2.824-0.92c-0.839-0.712-1.327-1.656-1.492-2.829
		c-0.172-1.218,0.039-2.257,0.681-3.173c0.634-0.962,1.52-1.485,2.59-1.619c1.07-0.129,2.057,0.167,2.904,0.947
		C40.354,26.188,40.81,27.146,40.937,28.369L40.937,28.369z M42.381,33.122L42.381,33.122c1.152-1.446,1.662-3.127,1.487-5.08
		c-0.174-1.947-0.983-3.53-2.459-4.708c-1.431-1.188-3.177-1.638-5.117-1.404c-1.985,0.247-3.528,1.1-4.674,2.603
		c-1.104,1.496-1.507,3.219-1.206,5.155c0.3,1.934,1.2,3.45,2.624,4.578c1.467,1.119,3.072,1.591,4.93,1.36
		C39.784,35.407,41.271,34.555,42.381,33.122L42.381,33.122z M48.166,21.125L48.166,21.125l0.898,13.311l2.808-0.169l-0.2-3.728
		l1.691-0.084c1.863-0.083,3.238-0.49,4.135-1.285c0.939-0.797,1.357-1.991,1.326-3.677c-0.031-1.638-0.502-2.857-1.47-3.608
		c-0.923-0.798-2.435-1.118-4.476-1.026C51.309,20.931,49.737,21.021,48.166,21.125L48.166,21.125z M51.533,27.948L51.533,27.948
		l-0.239-4.458l1.658-0.083c0.986-0.041,1.663,0.063,2.167,0.368c0.461,0.349,0.701,0.888,0.727,1.661
		c0.024,0.729-0.134,1.325-0.471,1.747c-0.338,0.42-0.945,0.629-1.91,0.67L51.533,27.948L51.533,27.948z M72.375,29.395
		L72.375,29.395c-1.951-2.945-3.988-5.857-6.109-8.742l-2.813-0.025L63.424,33.97l2.815,0.025l0.13-8.378
		c2.012,2.826,3.944,5.673,5.795,8.555l2.81,0.142l0.771-13.318l-2.991-0.151L72.375,29.395L72.375,29.395z M92.098,36.028
		L92.098,36.028c-1.157-4.653-2.434-9.309-3.83-13.946l-2.842-0.31c-2.366,4.226-4.617,8.497-6.753,12.788l2.973,0.25l1.425-2.794
		c1.764,0.171,3.525,0.363,5.283,0.577l0.789,3.036L92.098,36.028L92.098,36.028z M87.583,29.887L87.583,29.887l-3.176-0.346
		l2.03-3.677L87.583,29.887L87.583,29.887z M106.724,38.666L106.724,38.666l2.742,0.62l3.024-12.995l-3.898-0.869
		c-1.634,2.15-3.231,4.314-4.793,6.5c-0.619-2.614-1.277-5.221-1.976-7.833l-3.936-0.673l-2.126,13.171l2.73,0.46l1.455-8.296
		c0.728,2.607,1.415,5.221,2.061,7.832l1.64,0.321c1.585-2.171,3.209-4.33,4.872-6.467L106.724,38.666L106.724,38.666z
		 M117.999,27.647L117.999,27.647l-3.362,12.911c2.967,0.774,5.917,1.615,8.85,2.518l0.779-2.522
		c-2.062-0.636-4.134-1.241-6.214-1.813l0.738-2.677c1.841,0.507,3.677,1.036,5.502,1.596l0.744-2.44
		c-1.85-0.566-3.706-1.103-5.569-1.615l0.725-2.633c2.104,0.581,4.199,1.188,6.283,1.831l0.778-2.524
		C124.188,29.335,121.102,28.458,117.999,27.647z"/>
	<path fill="#8C8C8C" d="M7.483,47.417c18.171-5.36,37.155-8.041,56.143-8.04c18.986,0,37.975,2.682,56.15,8.042l-0.16,0.543
		c-18.125-5.347-37.06-8.021-55.99-8.021c-18.932,0-37.864,2.673-55.982,8.018L7.483,47.417L7.483,47.417z M0.461,23.52
		c20.486-6.035,41.823-9.052,63.159-9.052c21.339,0,42.683,3.018,63.171,9.053l-0.159,0.542
		c-20.434-6.018-41.721-9.028-63.012-9.028c-21.286,0-42.57,3.008-63,9.028L0.461,23.52z"/>
	<path fill="#363837" d="M69.097,3.797c0.002-0.09-0.094-0.183-0.191-0.185l-3.863-0.009l-1.168-3.467
		C63.822,0.046,63.725,0,63.624,0c-0.098,0-0.198,0.046-0.198,0.136l-1.219,3.467l-3.862,0.008
		c-0.098,0.002-0.145,0.095-0.191,0.186c-0.046,0.093,0.005,0.184,0.104,0.227L61.4,6.064l-1.16,3.433
		c-0.047,0.092,0.003,0.181,0.099,0.27c0.049,0.047,0.19,0.044,0.238-0.003l3.047-2.16l3.049,2.16
		c0.047,0.001,0.094,0.048,0.143,0.05c0.048,0,0.095-0.047,0.143-0.045c0.05-0.091,0.099-0.18,0.053-0.271l-1.111-3.433l3.143-2.04
		C69.093,3.981,69.144,3.89,69.097,3.797z"/>
	<path fill="#363837" d="M54.313,5.784c0.003,0.09,0.005,0.137-0.042,0.184l-2.059,1.55L53.135,9.8
		c0.005,0.09,0.006,0.135-0.086,0.184l-0.046,0.05c-0.047,0.001-0.097-0.043-0.097-0.043l-2.175-1.348l-2.011,1.581
		c-0.046,0.05-0.093,0.052-0.19,0.012c-0.052-0.042-0.055-0.087-0.06-0.178l0.666-2.367l-2.219-1.313
		c-0.052-0.042-0.055-0.089-0.061-0.179c-0.003-0.045,0.09-0.097,0.139-0.1l2.614-0.171l0.692-2.368
		C50.3,3.513,50.396,3.464,50.445,3.46c0.049-0.003,0.149,0.039,0.152,0.084l0.949,2.276l2.616-0.121
		C54.213,5.698,54.263,5.74,54.313,5.784L54.313,5.784z M72.923,5.784L72.923,5.784c-0.003,0.09-0.007,0.137,0.091,0.186
		l2.057,1.552l-0.923,2.281c-0.051,0.088-0.007,0.135,0.038,0.183c0,0,0.048,0.049,0.095,0.05c0,0,0.049-0.044,0.097-0.042
		l2.127-1.35l2.01,1.581c0.047,0.05,0.142,0.056,0.191,0.012c0.051-0.042,0.054-0.087,0.06-0.178L78.101,7.69l2.216-1.313
		c0.052-0.042,0.104-0.084,0.062-0.178c0.003-0.045-0.041-0.093-0.138-0.101l-2.614-0.171L76.932,3.56
		c0.003-0.046-0.044-0.094-0.14-0.099c-0.051-0.003-0.103,0.041-0.153,0.083l-0.902,2.278L73.12,5.702
		C73.023,5.698,72.972,5.742,72.923,5.784L72.923,5.784z M85.481,8.401L85.481,8.401c-0.003,0.045-0.009,0.091,0.039,0.096
		l1.11,0.979l-0.604,1.267c-0.004,0.045-0.009,0.089,0.038,0.095l0.043,0.05l0.051-0.041l1.271-0.696l1.101,0.941
		c0.042,0.052,0.089,0.057,0.093,0.011c0.048,0.006,0.053-0.04,0.058-0.085L88.35,9.653l1.336-0.725c0,0,0.053-0.041,0.01-0.091
		l-0.044-0.05l-1.53-0.167l-0.296-1.358c0.006-0.047-0.037-0.097-0.085-0.102c-0.05-0.005-0.054,0.041-0.107,0.082l-0.566,1.27
		l-1.485-0.147C85.533,8.361,85.481,8.401,85.481,8.401L85.481,8.401z M41.755,8.401L41.755,8.401l0.008,0.091l-1.158,0.983
		l0.604,1.265c0.003,0.045,0.009,0.09-0.038,0.095c0,0,0.004,0.046-0.044,0.051c0,0-0.004-0.047-0.052-0.042l-1.269-0.696
		l-1.103,0.941c-0.041,0.052-0.088,0.057-0.093,0.011c-0.049,0.006-0.053-0.04-0.058-0.085l0.333-1.363L37.6,8.923
		c-0.05,0.004-0.055-0.042-0.06-0.086c0,0,0.043-0.05,0.092-0.055l1.483-0.163l0.294-1.358c0.044-0.051,0.04-0.096,0.088-0.101
		c0.048-0.005,0.102,0.035,0.105,0.082l0.566,1.271l1.485-0.146C41.702,8.36,41.755,8.401,41.755,8.401z"/>
</g>
</svg>
