<?xml version="1.0" encoding="utf-8"?>
<!-- Generator: Adobe Illustrator 16.0.0, SVG Export Plug-In . SVG Version: 6.00 Build 0)  -->
<!DOCTYPE svg PUBLIC "-//W3C//DTD SVG 1.1//EN" "http://www.w3.org/Graphics/SVG/1.1/DTD/svg11.dtd">
<svg version="1.1" id="Layer_1" xmlns="http://www.w3.org/2000/svg" xmlns:xlink="http://www.w3.org/1999/xlink" x="0px" y="0px"
	 width="127.253px" height="67.322px" viewBox="0 0 127.253 67.322" enable-background="new 0 0 127.253 67.322"
	 xml:space="preserve">
<g>
	<path fill="#363837" d="M51.452,51.63c-0.222-0.001-0.444-0.02-0.665-0.056c-0.287-0.047-0.566-0.125-0.834-0.225
		c-0.145-0.056-0.244-0.17-0.276-0.319c-0.033-0.152,0.01-0.298,0.119-0.406l2.976-2.977c0.125-0.124,0.299-0.164,0.464-0.104
		c1.153,0.42,2.011,0.291,2.994-0.69l6.77-6.77L52.719,29.806c0.036,0.704-0.103,1.404-0.45,2.098
		c-0.013,0.026-0.032,0.048-0.056,0.061l-0.249-0.249c-0.425-2.016-1.193-3.798-2.274-5.364c-0.04-0.059-0.033-0.136,0.018-0.186
		c0.05-0.051,0.127-0.057,0.186-0.018c1.567,1.082,3.348,1.851,5.365,2.274l0.248,0.25c-0.013,0.022-0.034,0.042-0.06,0.056
		c-0.693,0.346-1.393,0.484-2.098,0.45l10.278,10.278l10.279-10.278c-0.705,0.034-1.405-0.104-2.099-0.45
		c-0.026-0.014-0.046-0.033-0.06-0.056l0.249-0.25c2.016-0.424,3.797-1.192,5.365-2.274c0.058-0.039,0.135-0.033,0.186,0.018
		c0.049,0.05,0.057,0.127,0.017,0.186c-1.081,1.566-1.849,3.349-2.273,5.364l-0.25,0.249c-0.023-0.013-0.043-0.034-0.056-0.061
		c-0.347-0.693-0.485-1.394-0.45-2.098L64.255,40.084l6.77,6.77c0.982,0.981,1.84,1.11,2.994,0.69
		c0.165-0.061,0.34-0.021,0.464,0.104l2.976,2.977c0.109,0.108,0.153,0.254,0.12,0.406c-0.033,0.149-0.132,0.264-0.276,0.319
		c-0.27,0.1-0.548,0.178-0.835,0.225c-0.221,0.036-0.443,0.055-0.666,0.056l0.607,0.607c0.174,0.173,0.174,0.456,0,0.628
		c-0.172,0.174-0.455,0.174-0.627,0l-0.607-0.606c-0.002,0.223-0.021,0.444-0.057,0.664c-0.047,0.289-0.124,0.566-0.225,0.835
		c-0.054,0.146-0.169,0.244-0.32,0.278c-0.151,0.031-0.296-0.01-0.406-0.12l-2.977-2.977c-0.124-0.124-0.162-0.298-0.102-0.464
		c0.419-1.152,0.292-2.012-0.69-2.994l-6.77-6.77l-6.77,6.77c-0.981,0.982-1.109,1.842-0.689,2.994
		c0.06,0.166,0.021,0.34-0.103,0.464l-2.976,2.977c-0.109,0.11-0.255,0.151-0.406,0.12c-0.151-0.034-0.267-0.133-0.32-0.278
		c-0.101-0.269-0.177-0.546-0.224-0.835c-0.037-0.22-0.056-0.441-0.057-0.664l-0.607,0.606c-0.172,0.174-0.455,0.174-0.628,0
		c-0.173-0.172-0.173-0.455,0-0.628L51.452,51.63z"/>
	<path fill-rule="evenodd" clip-rule="evenodd" fill="#363837" d="M94.464,49.369c0.414,1.371,0.807,2.77,1.157,4.169
		c1.167,0.869,2.351,1.699,3.568,2.52C88.884,63.377,76.25,67.36,63.625,67.322c-12.627,0.032-25.253-3.96-35.561-11.262
		c1.217-0.823,2.398-1.653,3.564-2.522c0.349-1.401,0.739-2.801,1.151-4.172c8.956,6.34,19.871,9.792,30.847,9.767
		C74.602,59.163,85.521,55.715,94.464,49.369L94.464,49.369z M93.636,54.202c-0.243,0.146-0.317,0.467-0.169,0.711
		s0.468,0.321,0.715,0.17c0.248-0.148,0.32-0.475,0.167-0.716C94.196,54.124,93.878,54.054,93.636,54.202L93.636,54.202z
		 M33.785,54.91c0.148-0.247,0.071-0.565-0.17-0.713c-0.243-0.146-0.559-0.076-0.713,0.169c-0.153,0.239-0.081,0.565,0.168,0.714
		C33.316,55.231,33.636,55.156,33.785,54.91L33.785,54.91L33.785,54.91z M36.307,58.308l-0.33,0.041l-0.092,0.176l0.347,0.179
		l0.375,0.191l0.353,0.179l0.088-0.177l-0.161-0.291l0.698-1.384l1.577-1.452l0.243-0.01l0.074-0.151l-0.75-0.369l-0.076,0.151
		l0.148,0.201l-1.163,1.047l0.18-1.588c0.008-0.065,0.012-0.117,0.006-0.163c-0.004-0.043-0.02-0.078-0.047-0.111
		c-0.027-0.031-0.071-0.064-0.132-0.096l-0.461-0.247l-0.083,0.151l0.115,0.132c-0.086,0.757-0.167,1.524-0.231,2.284L36.307,58.308
		L36.307,58.308z M43.146,58.355c0.081-0.214,0.107-0.419,0.079-0.61c-0.027-0.191-0.104-0.363-0.232-0.515
		c-0.126-0.149-0.304-0.267-0.522-0.36c-0.218-0.092-0.426-0.127-0.622-0.109c-0.197,0.019-0.373,0.087-0.526,0.203
		c-0.156,0.115-0.279,0.275-0.372,0.484L40.11,59.37c-0.089,0.207-0.122,0.41-0.097,0.605c0.024,0.196,0.106,0.371,0.241,0.529
		c0.135,0.159,0.321,0.289,0.555,0.389c0.237,0.101,0.464,0.134,0.673,0.119c0.208-0.016,0.389-0.084,0.545-0.204
		c0.156-0.12,0.274-0.287,0.358-0.498L43.146,58.355L43.146,58.355L43.146,58.355z M41.517,57.691L41.517,57.691l-0.82,1.931
		c-0.093,0.217-0.119,0.4-0.078,0.553c0.042,0.149,0.158,0.266,0.346,0.344c0.095,0.042,0.186,0.058,0.272,0.05
		c0.084-0.005,0.163-0.029,0.234-0.074c0.072-0.044,0.134-0.101,0.19-0.173c0.053-0.071,0.101-0.152,0.137-0.245l0.78-1.948
		c0.051-0.124,0.076-0.245,0.079-0.36c0.001-0.117-0.023-0.22-0.079-0.312c-0.056-0.091-0.142-0.161-0.262-0.214
		c-0.176-0.074-0.331-0.072-0.463,0.004C41.722,57.323,41.608,57.47,41.517,57.691L41.517,57.691z M45.927,62.288
		c-0.121-0.037-0.217-0.093-0.29-0.166c-0.071-0.071-0.116-0.164-0.13-0.276s0.003-0.25,0.056-0.407l0.863-2.672l0.3-0.096
		l0.053-0.167l-1.064-0.351l-0.057,0.166l0.186,0.252l-0.893,2.663c-0.061,0.184-0.085,0.352-0.074,0.506
		c0.012,0.153,0.054,0.292,0.126,0.413c0.073,0.121,0.17,0.228,0.291,0.314c0.123,0.084,0.261,0.151,0.417,0.2
		c0.156,0.047,0.309,0.071,0.455,0.072c0.146,0.003,0.282-0.025,0.409-0.081c0.126-0.058,0.239-0.146,0.334-0.267
		c0.097-0.121,0.174-0.277,0.231-0.471l0.791-2.708l0.256-0.089l0.052-0.18l-0.819-0.241l-0.054,0.179l0.167,0.216l-0.808,2.69
		c-0.049,0.16-0.109,0.286-0.183,0.373c-0.073,0.089-0.159,0.14-0.262,0.158C46.18,62.341,46.062,62.329,45.927,62.288
		L45.927,62.288L45.927,62.288z M51.502,60.163L51.502,60.163l-0.371-0.087l-0.104,0.451l-0.094,0.414l-0.094,0.413l-0.104,0.45
		l0.377,0.087c0.13,0.03,0.241,0.029,0.332-0.001c0.093-0.03,0.164-0.086,0.22-0.167c0.057-0.082,0.097-0.186,0.124-0.313
		l0.113-0.537c0.028-0.129,0.034-0.238,0.02-0.334c-0.016-0.098-0.057-0.175-0.124-0.239C51.73,60.235,51.631,60.193,51.502,60.163
		L51.502,60.163z M51.285,63.495l0.034,0.239c0.011,0.075,0.029,0.142,0.052,0.202c0.024,0.061,0.063,0.113,0.115,0.156
		s0.126,0.074,0.22,0.094l0.151,0.024c0.054,0.007,0.109,0.009,0.162,0.009c0.055-0.003,0.104-0.009,0.149-0.021l0.045-0.231
		c-0.05,0.001-0.093-0.012-0.128-0.038s-0.062-0.062-0.084-0.105c-0.023-0.042-0.041-0.089-0.053-0.137
		c-0.014-0.049-0.023-0.096-0.03-0.14l-0.127-0.82c-0.008-0.066-0.023-0.125-0.039-0.178c-0.019-0.053-0.043-0.101-0.076-0.146
		c-0.032-0.046-0.073-0.089-0.125-0.134c0.135,0.003,0.261-0.023,0.375-0.073c0.116-0.052,0.214-0.132,0.295-0.239
		c0.081-0.108,0.141-0.249,0.175-0.418l0.107-0.541c0.035-0.18,0.035-0.337,0.002-0.476c-0.032-0.134-0.091-0.249-0.179-0.346
		C52.24,60.08,52.132,60,52.005,59.938c-0.126-0.062-0.269-0.105-0.422-0.142l-1.149-0.267l-0.041,0.17l0.172,0.204l-0.412,1.726
		l-0.414,1.721l-0.308,0.11l-0.042,0.171l0.378,0.092l0.4,0.092l0.379,0.087l0.038-0.171l-0.228-0.238l0.073-0.315l0.082-0.358
		l0.082-0.357l0.072-0.314c0.114,0.026,0.204,0.057,0.27,0.096c0.065,0.04,0.115,0.095,0.146,0.163
		c0.033,0.07,0.057,0.16,0.072,0.271L51.285,63.495L51.285,63.495L51.285,63.495z M57.853,61.193l0.129,0.711l0.284,0.025
		l0.077-1.069c-0.785-0.075-1.567-0.167-2.349-0.272l-0.17,1.062l0.282,0.034l0.278-0.663l0.434,0.057l-0.417,3.435l-0.295,0.15
		l-0.025,0.205l0.387,0.05l0.418,0.046l0.393,0.043l0.021-0.203l-0.25-0.217l0.378-3.439L57.853,61.193L57.853,61.193L57.853,61.193
		z M62.623,65.333l0.016-0.947l-0.271-0.006l-0.223,0.573l-0.527-0.015L61.09,64.92l0.001-0.031
		c0.052-0.014,0.087-0.036,0.106-0.065c0.02-0.029,0.03-0.065,0.031-0.114l0.026-0.666l0.027-0.665l0.581,0.018l0.148,0.323
		l0.182,0.006l0.008-0.33l0.009-0.358l0.008-0.332l-0.179-0.004l-0.166,0.327l-0.577-0.018l0.032-0.798l0.031-0.792l0.796,0.023
		l0.149,0.598l0.296,0.006l0.017-0.949l-0.692-0.017l-0.682-0.023l-0.693-0.035l-0.008,0.156l0.214,0.168l-0.09,1.78l-0.091,1.777
		l-0.29,0.169l-0.01,0.174l1.176,0.055L62.623,65.333L62.623,65.333L62.623,65.333z M65.736,61.311
		c-0.032-0.07-0.063-0.123-0.091-0.155c-0.028-0.034-0.06-0.058-0.095-0.067c-0.036-0.009-0.082-0.012-0.136-0.009l-0.528,0.015
		l0.004,0.157l0.171,0.104l0.796,1.909l-0.81,1.771l-0.234,0.119l0.003,0.176l0.907-0.025l-0.006-0.176l-0.234-0.102l0.57-1.269
		l0.587,1.265c0.035,0.073,0.071,0.126,0.105,0.159c0.032,0.033,0.069,0.054,0.111,0.061c0.042,0.007,0.093,0.009,0.151,0.004
		l0.58-0.037l-0.009-0.148l-0.231-0.112l-0.931-2.013l0.682-1.651l0.197-0.115l-0.012-0.181l-0.806,0.046l0.008,0.169l0.209,0.1
		l-0.479,1.166L65.736,61.311L65.736,61.311L65.736,61.311z M71.27,60.973l0.293,0.658l0.281-0.041l-0.178-1.06
		c-0.78,0.115-1.562,0.209-2.346,0.29l0.085,1.07l0.282-0.031l0.113-0.709l0.437-0.048l0.403,3.438l-0.251,0.216l0.023,0.203
		l0.389-0.043l0.418-0.053l0.392-0.052l-0.027-0.203l-0.296-0.149l-0.441-3.433L71.27,60.973L71.27,60.973L71.27,60.973z
		 M75.16,60.25l0.734,3.505l-0.245,0.199l0.036,0.172l1.167-0.253l-0.039-0.171l-0.304-0.077l-0.359-1.626l0.954-0.219l0.387,1.619
		L77.256,63.6l0.04,0.17l1.154-0.281l-0.042-0.168L78.1,63.248l-0.869-3.474l0.176-0.206l-0.042-0.17l-0.999,0.244l0.04,0.171
		l0.253,0.104l0.364,1.529l-0.947,0.217l-0.339-1.536l0.181-0.202l-0.038-0.172l-1.005,0.217l0.035,0.171L75.16,60.25L75.16,60.25
		L75.16,60.25z M83.039,62.121l-0.307-0.896l-0.257,0.087l-0.015,0.615l-0.501,0.167l-0.503,0.158l-0.009-0.028
		c0.043-0.031,0.069-0.064,0.077-0.099c0.009-0.034,0.006-0.073-0.009-0.118l-0.202-0.635l-0.201-0.635l0.552-0.179l0.25,0.253
		l0.173-0.059l-0.104-0.312l-0.114-0.342l-0.104-0.312l-0.17,0.058l-0.044,0.365l-0.548,0.176l-0.242-0.762l-0.239-0.756
		l0.755-0.245l0.344,0.51l0.28-0.094l-0.306-0.897l-0.658,0.22l-0.649,0.207l-0.661,0.204l0.045,0.151l0.257,0.085l0.518,1.703
		l0.519,1.706l-0.215,0.254l0.049,0.166l1.126-0.348L83.039,62.121L83.039,62.121L83.039,62.121z M85.05,57.233L85.05,57.233
		l-0.351,0.146l0.173,0.428l0.161,0.394l0.16,0.393l0.174,0.429l0.357-0.147c0.124-0.052,0.214-0.117,0.271-0.193
		c0.058-0.075,0.085-0.164,0.085-0.261c-0.001-0.099-0.026-0.206-0.079-0.325l-0.216-0.507c-0.05-0.12-0.108-0.216-0.175-0.285
		c-0.067-0.07-0.146-0.112-0.237-0.126C85.28,57.162,85.173,57.183,85.05,57.233L85.05,57.233z M86.785,60.089l0.167,0.175
		c0.051,0.056,0.105,0.102,0.158,0.138c0.055,0.036,0.117,0.057,0.184,0.063c0.066,0.004,0.145-0.016,0.235-0.053l0.135-0.067
		c0.048-0.028,0.095-0.057,0.138-0.088c0.043-0.032,0.082-0.066,0.112-0.101l-0.096-0.217c-0.041,0.029-0.084,0.044-0.128,0.041
		c-0.043-0.001-0.087-0.015-0.129-0.038c-0.043-0.021-0.084-0.048-0.122-0.082c-0.038-0.03-0.073-0.062-0.104-0.095l-0.575-0.597
		c-0.044-0.047-0.089-0.089-0.133-0.122c-0.046-0.034-0.094-0.059-0.146-0.078s-0.111-0.031-0.18-0.037
		c0.111-0.076,0.202-0.167,0.266-0.275c0.065-0.109,0.099-0.231,0.103-0.368c0.004-0.136-0.029-0.283-0.097-0.442l-0.221-0.505
		c-0.075-0.168-0.165-0.297-0.271-0.389c-0.104-0.091-0.219-0.151-0.346-0.178c-0.126-0.029-0.259-0.033-0.399-0.012
		c-0.139,0.021-0.282,0.062-0.428,0.124l-1.093,0.441l0.064,0.162l0.258,0.067l0.651,1.649l0.65,1.647l-0.189,0.271l0.064,0.163
		l0.361-0.145l0.381-0.151l0.359-0.147l-0.067-0.161l-0.321-0.062l-0.124-0.302l-0.139-0.339l-0.139-0.34l-0.121-0.299
		c0.109-0.044,0.201-0.071,0.276-0.077s0.146,0.01,0.211,0.047s0.137,0.099,0.214,0.182L86.785,60.089L86.785,60.089L86.785,60.089z
		 M91.042,58.698l1.037-0.549l-0.452-0.833l-0.239,0.129l0.087,0.61L91.01,58.3l-0.47,0.243l-0.014-0.028
		c0.038-0.039,0.059-0.076,0.062-0.11c0.002-0.035-0.007-0.074-0.03-0.114l-0.305-0.595l-0.302-0.593l0.517-0.266l0.288,0.209
		l0.161-0.086l-0.155-0.29l-0.169-0.319l-0.155-0.291l-0.158,0.083l0.017,0.368l-0.513,0.265l-0.364-0.712l-0.361-0.705l0.707-0.365
		l0.422,0.443l0.26-0.14l-0.451-0.835l-0.61,0.329l-0.606,0.31l-0.62,0.312l0.07,0.141l0.268,0.044l0.793,1.593l0.796,1.596
		l-0.171,0.285l0.077,0.157L91.042,58.698L91.042,58.698z"/>
	<g>
		<g>
			<path fill-rule="evenodd" clip-rule="evenodd" fill="#8C8C8C" d="M77.308,44.008h45.993v0.333H77.308V44.008L77.308,44.008z
				 M77.308,37.523h45.993v0.334H77.308V37.523z"/>
			<path fill="#363837" d="M79.307,42.185h0.394v-0.831l0.498-1.677h-0.376l-0.301,1.144l-0.301-1.144h-0.413l0.499,1.677V42.185
				L79.307,42.185z M82.138,40.254c0.001-0.09,0.019-0.153,0.055-0.191c0.036-0.039,0.086-0.058,0.15-0.057
				c0.063-0.001,0.112,0.018,0.148,0.057c0.036,0.038,0.055,0.102,0.055,0.191v1.354c0,0.089-0.019,0.152-0.055,0.191
				c-0.036,0.037-0.085,0.058-0.148,0.057c-0.063,0.001-0.114-0.02-0.15-0.057c-0.036-0.039-0.054-0.103-0.055-0.191V40.254
				L82.138,40.254z M81.744,41.583c0,0.135,0.023,0.248,0.069,0.343c0.045,0.093,0.113,0.164,0.202,0.214
				c0.089,0.051,0.198,0.073,0.328,0.075c0.128-0.002,0.238-0.024,0.327-0.075c0.089-0.05,0.156-0.121,0.202-0.214
				c0.046-0.095,0.069-0.208,0.069-0.343v-1.304c0-0.134-0.023-0.248-0.069-0.342c-0.046-0.095-0.113-0.165-0.202-0.214
				c-0.089-0.05-0.199-0.075-0.327-0.075c-0.129,0-0.239,0.025-0.328,0.075c-0.089,0.049-0.156,0.119-0.202,0.214
				c-0.046,0.094-0.069,0.208-0.069,0.342V41.583L81.744,41.583z M84.65,39.677v1.909c0,0.135,0.022,0.247,0.066,0.342
				c0.044,0.094,0.11,0.166,0.197,0.215s0.196,0.074,0.324,0.074c0.129,0,0.237-0.025,0.325-0.074
				c0.086-0.049,0.152-0.121,0.197-0.215c0.044-0.095,0.067-0.207,0.067-0.342v-1.909h-0.374v1.935c0,0.061-0.008,0.107-0.025,0.143
				c-0.017,0.036-0.04,0.062-0.071,0.078c-0.03,0.016-0.066,0.024-0.108,0.023c-0.042,0.001-0.078-0.008-0.109-0.023
				c-0.03-0.017-0.053-0.042-0.07-0.078c-0.017-0.035-0.025-0.082-0.025-0.143v-1.935H84.65L84.65,39.677z M88.793,42.185
				c-0.019-0.046-0.031-0.094-0.036-0.142s-0.007-0.103-0.007-0.162v-0.388c0.001-0.087-0.007-0.167-0.023-0.237
				c-0.017-0.069-0.045-0.13-0.083-0.18c-0.039-0.051-0.09-0.09-0.156-0.117c0.088-0.041,0.153-0.104,0.195-0.188
				c0.043-0.083,0.063-0.19,0.063-0.319v-0.197c0-0.13-0.02-0.236-0.061-0.322c-0.042-0.086-0.104-0.15-0.19-0.191
				c-0.086-0.043-0.198-0.063-0.333-0.063h-0.594v2.508h0.394v-1.021h0.137c0.059-0.001,0.109,0.009,0.146,0.03
				s0.066,0.055,0.084,0.102c0.019,0.048,0.027,0.11,0.027,0.188v0.393c0,0.052,0,0.093,0.002,0.126
				c0.002,0.032,0.004,0.06,0.009,0.081c0.003,0.021,0.006,0.04,0.011,0.055c0.004,0.016,0.009,0.032,0.014,0.047H88.793
				L88.793,42.185z M88.152,40.035c0.069-0.001,0.121,0.021,0.154,0.062c0.032,0.043,0.048,0.107,0.047,0.196v0.248
				c0,0.065-0.01,0.119-0.029,0.158c-0.019,0.038-0.046,0.066-0.081,0.083c-0.036,0.017-0.078,0.024-0.127,0.023h-0.154v-0.771
				H88.152L88.152,40.035z M91.582,39.677h-0.548v2.508h0.344v-1.773l0.293,1.773h0.373l0.272-1.799v1.799h0.373v-2.508h-0.548
				l-0.269,1.78L91.582,39.677L91.582,39.677z M94.844,40.035h0.681v-0.357h-1.075v2.508h1.075v-0.358h-0.681v-0.734h0.541v-0.358
				h-0.541V40.035L94.844,40.035z M97.192,40.279c0.001,0.102,0.015,0.191,0.043,0.271c0.027,0.081,0.063,0.152,0.109,0.216
				c0.046,0.062,0.096,0.121,0.151,0.174c0.054,0.054,0.109,0.105,0.164,0.154c0.055,0.049,0.105,0.099,0.151,0.149
				c0.045,0.052,0.082,0.107,0.11,0.167c0.028,0.059,0.042,0.124,0.042,0.197c0,0.06-0.008,0.106-0.025,0.143
				c-0.017,0.037-0.041,0.062-0.071,0.078c-0.03,0.016-0.067,0.024-0.109,0.023c-0.042,0.001-0.078-0.008-0.108-0.023
				c-0.031-0.017-0.054-0.041-0.071-0.078c-0.017-0.036-0.025-0.083-0.025-0.143v-0.179h-0.373v0.153
				c0,0.135,0.022,0.248,0.066,0.343c0.044,0.093,0.11,0.164,0.197,0.214c0.087,0.051,0.196,0.073,0.325,0.075
				c0.129-0.002,0.237-0.024,0.324-0.075c0.087-0.05,0.152-0.121,0.197-0.214c0.044-0.095,0.066-0.208,0.066-0.343
				c0-0.102-0.015-0.193-0.043-0.271c-0.027-0.079-0.064-0.151-0.11-0.215c-0.045-0.062-0.096-0.121-0.151-0.175
				c-0.054-0.054-0.108-0.104-0.164-0.153c-0.054-0.049-0.104-0.101-0.15-0.15c-0.046-0.05-0.082-0.105-0.111-0.166
				c-0.027-0.059-0.042-0.125-0.042-0.197c0-0.09,0.017-0.153,0.051-0.191c0.034-0.039,0.083-0.058,0.146-0.057
				c0.063-0.001,0.112,0.018,0.146,0.057c0.035,0.038,0.051,0.102,0.051,0.191v0.104h0.374v-0.079c0-0.134-0.023-0.248-0.066-0.342
				c-0.043-0.095-0.108-0.165-0.194-0.214c-0.086-0.05-0.193-0.075-0.321-0.075s-0.235,0.025-0.321,0.075
				c-0.086,0.049-0.151,0.119-0.194,0.214C97.213,40.031,97.192,40.145,97.192,40.279L97.192,40.279z M100.006,40.279
				c0,0.102,0.014,0.191,0.042,0.271c0.028,0.081,0.064,0.152,0.11,0.216c0.046,0.062,0.097,0.121,0.151,0.174
				c0.054,0.054,0.109,0.105,0.164,0.154c0.055,0.049,0.105,0.099,0.15,0.149c0.046,0.052,0.083,0.107,0.111,0.167
				c0.027,0.059,0.042,0.124,0.042,0.197c0,0.06-0.009,0.106-0.026,0.143c-0.017,0.037-0.039,0.062-0.07,0.078
				c-0.031,0.016-0.066,0.024-0.109,0.023c-0.042,0.001-0.078-0.008-0.108-0.023c-0.031-0.017-0.054-0.041-0.071-0.078
				c-0.017-0.036-0.025-0.083-0.025-0.143v-0.179h-0.373v0.153c0,0.135,0.022,0.248,0.067,0.343
				c0.043,0.093,0.109,0.164,0.196,0.214c0.088,0.051,0.195,0.073,0.324,0.075c0.129-0.002,0.237-0.024,0.325-0.075
				c0.087-0.05,0.153-0.121,0.197-0.214c0.043-0.095,0.065-0.208,0.065-0.343c0-0.102-0.014-0.193-0.042-0.271
				c-0.028-0.079-0.064-0.151-0.111-0.215c-0.045-0.062-0.096-0.121-0.15-0.175s-0.11-0.104-0.164-0.153
				c-0.055-0.049-0.105-0.101-0.15-0.15c-0.046-0.05-0.083-0.105-0.111-0.166c-0.027-0.059-0.042-0.125-0.042-0.197
				c0-0.09,0.018-0.153,0.051-0.191c0.034-0.039,0.083-0.058,0.146-0.057c0.063-0.001,0.112,0.018,0.146,0.057
				c0.034,0.038,0.051,0.102,0.051,0.191v0.104h0.373v-0.079c0-0.134-0.022-0.248-0.065-0.342c-0.043-0.095-0.109-0.165-0.194-0.214
				c-0.086-0.05-0.193-0.075-0.321-0.075s-0.234,0.025-0.321,0.075c-0.086,0.049-0.151,0.119-0.195,0.214
				C100.028,40.031,100.006,40.145,100.006,40.279L100.006,40.279z M103.743,39.677h-0.577l-0.401,2.508h0.361l0.068-0.454h0.484
				l0.068,0.454h0.398L103.743,39.677L103.743,39.677z M103.435,40.122l0.189,1.268h-0.379L103.435,40.122L103.435,40.122z
				 M106.389,41.146h0.179v0.462c0,0.06-0.008,0.106-0.025,0.143c-0.017,0.037-0.04,0.062-0.071,0.078
				c-0.03,0.016-0.066,0.024-0.109,0.023c-0.042,0.001-0.078-0.008-0.108-0.023c-0.031-0.017-0.054-0.041-0.071-0.078
				c-0.016-0.036-0.025-0.083-0.025-0.143v-1.354c0.001-0.09,0.019-0.153,0.055-0.191c0.036-0.039,0.086-0.058,0.148-0.057
				c0.064-0.001,0.114,0.018,0.15,0.057c0.036,0.038,0.055,0.102,0.055,0.191v0.268h0.373v-0.243c0-0.134-0.022-0.248-0.066-0.342
				c-0.044-0.095-0.11-0.165-0.197-0.214c-0.088-0.05-0.196-0.075-0.324-0.075c-0.129,0-0.237,0.025-0.325,0.075
				c-0.087,0.049-0.153,0.119-0.197,0.214c-0.044,0.094-0.065,0.208-0.065,0.342v1.304c0,0.135,0.021,0.248,0.065,0.343
				c0.044,0.093,0.11,0.164,0.197,0.214c0.087,0.051,0.195,0.073,0.325,0.075c0.128-0.002,0.236-0.024,0.324-0.075
				c0.087-0.05,0.152-0.121,0.197-0.214c0.044-0.095,0.066-0.208,0.066-0.343v-0.795h-0.552V41.146L106.389,41.146z M109.063,40.035
				h0.68v-0.357h-1.075v2.508h1.075v-0.358h-0.68v-0.734h0.541v-0.358h-0.541V40.035L109.063,40.035z M112.41,41.11h0.448v1.075
				h0.401v-2.508h-0.401v1.075h-0.448v-1.075h-0.394v2.508h0.394V41.11L112.41,41.11z M115.414,40.035h0.68v-0.357h-1.074v2.508
				h1.074v-0.358h-0.68v-0.734h0.541v-0.358h-0.541V40.035L115.414,40.035z M119.037,42.185c-0.019-0.046-0.03-0.094-0.036-0.142
				c-0.005-0.048-0.008-0.103-0.007-0.162v-0.388c0.001-0.087-0.008-0.167-0.024-0.237c-0.017-0.069-0.044-0.13-0.083-0.18
				c-0.038-0.051-0.09-0.09-0.155-0.117c0.088-0.041,0.153-0.104,0.195-0.188c0.043-0.083,0.063-0.19,0.063-0.319v-0.197
				c0.001-0.13-0.02-0.236-0.061-0.322s-0.104-0.15-0.189-0.191c-0.087-0.043-0.199-0.063-0.333-0.063h-0.595v2.508h0.394v-1.021
				h0.136c0.06-0.001,0.109,0.009,0.147,0.03c0.038,0.021,0.066,0.055,0.084,0.102c0.018,0.048,0.027,0.11,0.027,0.188v0.393
				c0,0.052,0.001,0.093,0.002,0.126c0.001,0.032,0.003,0.06,0.008,0.081c0.002,0.021,0.006,0.04,0.011,0.055
				c0.004,0.016,0.009,0.032,0.014,0.047H119.037L119.037,42.185z M118.396,40.035c0.069-0.001,0.121,0.021,0.153,0.062
				c0.033,0.043,0.048,0.107,0.048,0.196v0.248c0,0.065-0.01,0.119-0.029,0.158c-0.019,0.038-0.045,0.066-0.081,0.083
				c-0.035,0.017-0.078,0.024-0.126,0.023h-0.154v-0.771H118.396L118.396,40.035z M121.12,40.035h0.681v-0.357h-1.075v2.508h1.075
				v-0.358h-0.681v-0.734h0.541v-0.358h-0.541V40.035z"/>
		</g>
		<g>
			<path fill-rule="evenodd" clip-rule="evenodd" fill="#8C8C8C" d="M3.952,44.008h45.993v0.333H3.952V44.008L3.952,44.008z
				 M3.952,37.523h45.993v0.334H3.952V37.523z"/>
			<path fill="#363837" d="M5.951,42.185h0.394v-0.831l0.498-1.677H6.466l-0.301,1.144l-0.301-1.144H5.453l0.498,1.677V42.185
				L5.951,42.185z M8.782,40.254c0-0.09,0.019-0.153,0.054-0.191c0.038-0.039,0.086-0.058,0.15-0.057
				c0.063-0.001,0.113,0.018,0.149,0.057c0.036,0.038,0.054,0.102,0.054,0.191v1.354c0,0.089-0.019,0.152-0.054,0.191
				c-0.037,0.037-0.086,0.058-0.149,0.057c-0.063,0.001-0.112-0.02-0.15-0.057c-0.036-0.039-0.054-0.103-0.054-0.191V40.254
				L8.782,40.254z M8.388,41.583c0,0.135,0.023,0.248,0.07,0.343c0.045,0.093,0.112,0.164,0.202,0.214
				c0.089,0.051,0.198,0.073,0.327,0.075c0.129-0.002,0.238-0.024,0.328-0.075c0.088-0.05,0.155-0.121,0.201-0.214
				c0.046-0.095,0.069-0.208,0.069-0.343v-1.304c0-0.134-0.023-0.248-0.069-0.342c-0.046-0.095-0.113-0.165-0.201-0.214
				c-0.089-0.05-0.199-0.075-0.328-0.075c-0.129,0-0.238,0.025-0.327,0.075c-0.089,0.049-0.156,0.119-0.202,0.214
				c-0.046,0.094-0.07,0.208-0.07,0.342V41.583L8.388,41.583z M11.295,39.677v1.909c0,0.135,0.021,0.247,0.066,0.342
				c0.043,0.094,0.109,0.166,0.196,0.215c0.088,0.049,0.196,0.074,0.325,0.074c0.128,0,0.237-0.025,0.324-0.074
				s0.153-0.121,0.197-0.215c0.043-0.095,0.066-0.207,0.066-0.342v-1.909h-0.373v1.935c0,0.061-0.009,0.107-0.025,0.143
				c-0.017,0.036-0.04,0.062-0.07,0.078c-0.031,0.016-0.067,0.024-0.109,0.023c-0.042,0.001-0.078-0.008-0.109-0.023
				c-0.03-0.017-0.053-0.042-0.07-0.078c-0.017-0.035-0.026-0.082-0.026-0.143v-1.935H11.295L11.295,39.677z M15.438,42.185
				c-0.019-0.046-0.031-0.094-0.037-0.142c-0.004-0.048-0.006-0.103-0.006-0.162v-0.388c0.001-0.087-0.007-0.167-0.023-0.237
				c-0.017-0.069-0.044-0.13-0.083-0.18c-0.039-0.051-0.09-0.09-0.155-0.117c0.088-0.041,0.152-0.104,0.194-0.188
				c0.042-0.083,0.062-0.19,0.062-0.319v-0.197c0.001-0.13-0.02-0.236-0.061-0.322c-0.04-0.086-0.104-0.15-0.19-0.191
				c-0.086-0.043-0.197-0.063-0.333-0.063h-0.595v2.508h0.395v-1.021h0.136c0.06-0.001,0.109,0.009,0.146,0.03
				c0.038,0.021,0.066,0.055,0.085,0.102C14.992,41.344,15,41.407,15,41.484v0.393c0,0.052,0.001,0.093,0.002,0.126
				c0.002,0.032,0.004,0.06,0.008,0.081c0.003,0.021,0.006,0.04,0.011,0.055c0.005,0.016,0.01,0.032,0.015,0.047H15.438
				L15.438,42.185z M14.796,40.035c0.069-0.001,0.121,0.021,0.153,0.062c0.032,0.043,0.049,0.107,0.048,0.196v0.248
				c0,0.065-0.01,0.119-0.028,0.158c-0.02,0.038-0.046,0.066-0.082,0.083s-0.077,0.024-0.127,0.023h-0.153v-0.771H14.796
				L14.796,40.035z M18.226,39.677h-0.548v2.508h0.344v-1.773l0.294,1.773h0.372l0.273-1.799v1.799h0.373v-2.508h-0.548l-0.269,1.78
				L18.226,39.677L18.226,39.677z M21.487,40.035h0.681v-0.357h-1.075v2.508h1.075v-0.358h-0.681v-0.734h0.542v-0.358h-0.542V40.035
				L21.487,40.035z M23.836,40.279c0,0.102,0.015,0.191,0.043,0.271c0.027,0.081,0.063,0.152,0.11,0.216
				c0.045,0.062,0.096,0.121,0.15,0.174c0.054,0.054,0.11,0.105,0.164,0.154c0.055,0.049,0.105,0.099,0.15,0.149
				c0.046,0.052,0.083,0.107,0.111,0.167c0.028,0.059,0.042,0.124,0.042,0.197c0,0.06-0.008,0.106-0.025,0.143
				c-0.017,0.037-0.04,0.062-0.07,0.078c-0.03,0.016-0.067,0.024-0.109,0.023c-0.041,0.001-0.078-0.008-0.108-0.023
				c-0.031-0.017-0.054-0.041-0.071-0.078c-0.016-0.036-0.025-0.083-0.025-0.143v-0.179h-0.372v0.153
				c0,0.135,0.021,0.248,0.066,0.343c0.043,0.093,0.109,0.164,0.197,0.214c0.087,0.051,0.195,0.073,0.324,0.075
				c0.128-0.002,0.236-0.024,0.324-0.075c0.087-0.05,0.153-0.121,0.197-0.214C24.978,41.831,25,41.717,25,41.583
				c-0.001-0.102-0.015-0.193-0.043-0.271c-0.028-0.079-0.064-0.151-0.111-0.215c-0.045-0.062-0.094-0.121-0.149-0.175
				c-0.055-0.054-0.11-0.104-0.164-0.153c-0.055-0.049-0.106-0.101-0.151-0.15c-0.046-0.05-0.082-0.105-0.11-0.166
				c-0.027-0.059-0.042-0.125-0.042-0.197c0-0.09,0.018-0.153,0.052-0.191c0.033-0.039,0.082-0.058,0.145-0.057
				c0.063-0.001,0.112,0.018,0.146,0.057c0.034,0.038,0.051,0.102,0.052,0.191v0.104h0.372v-0.079c0-0.134-0.022-0.248-0.065-0.342
				c-0.043-0.095-0.108-0.165-0.194-0.214c-0.086-0.05-0.193-0.075-0.32-0.075c-0.128,0-0.235,0.025-0.321,0.075
				c-0.086,0.049-0.151,0.119-0.194,0.214C23.858,40.031,23.836,40.145,23.836,40.279L23.836,40.279z M26.649,40.279
				c0,0.102,0.015,0.191,0.042,0.271c0.028,0.081,0.064,0.152,0.11,0.216c0.045,0.062,0.096,0.121,0.151,0.174
				c0.054,0.054,0.109,0.105,0.164,0.154c0.055,0.049,0.105,0.099,0.15,0.149c0.046,0.052,0.083,0.107,0.11,0.167
				c0.028,0.059,0.042,0.124,0.042,0.197c0,0.06-0.008,0.106-0.024,0.143c-0.017,0.037-0.041,0.062-0.071,0.078
				c-0.03,0.016-0.066,0.024-0.108,0.023c-0.042,0.001-0.078-0.008-0.108-0.023c-0.031-0.017-0.055-0.041-0.071-0.078
				c-0.017-0.036-0.025-0.083-0.025-0.143v-0.179h-0.373v0.153c0,0.135,0.022,0.248,0.066,0.343c0.044,0.093,0.11,0.164,0.196,0.214
				c0.088,0.051,0.195,0.073,0.325,0.075c0.129-0.002,0.237-0.024,0.324-0.075c0.087-0.05,0.153-0.121,0.198-0.214
				c0.043-0.095,0.066-0.208,0.066-0.343c-0.001-0.102-0.015-0.193-0.042-0.271c-0.029-0.079-0.065-0.151-0.111-0.215
				c-0.046-0.062-0.096-0.121-0.151-0.175c-0.054-0.054-0.109-0.104-0.164-0.153c-0.055-0.049-0.105-0.101-0.151-0.15
				c-0.045-0.05-0.082-0.105-0.11-0.166c-0.027-0.059-0.042-0.125-0.042-0.197c0.001-0.09,0.017-0.153,0.052-0.191
				c0.034-0.039,0.082-0.058,0.146-0.057c0.063-0.001,0.112,0.018,0.145,0.057c0.035,0.038,0.052,0.102,0.052,0.191v0.104h0.372
				v-0.079c0-0.134-0.021-0.248-0.065-0.342c-0.043-0.095-0.108-0.165-0.194-0.214c-0.086-0.05-0.193-0.075-0.321-0.075
				s-0.234,0.025-0.321,0.075c-0.086,0.049-0.151,0.119-0.194,0.214C26.671,40.031,26.649,40.145,26.649,40.279L26.649,40.279z
				 M30.387,39.677h-0.576l-0.401,2.508h0.362l0.068-0.454h0.483l0.069,0.454h0.397L30.387,39.677L30.387,39.677z M30.08,40.122
				l0.19,1.268h-0.38L30.08,40.122L30.08,40.122z M33.033,41.146h0.179v0.462c0,0.06-0.008,0.106-0.025,0.143
				c-0.017,0.037-0.04,0.062-0.071,0.078c-0.03,0.016-0.066,0.024-0.108,0.023c-0.042,0.001-0.078-0.008-0.108-0.023
				c-0.031-0.017-0.054-0.041-0.071-0.078c-0.017-0.036-0.025-0.083-0.025-0.143v-1.354c0-0.09,0.019-0.153,0.055-0.191
				c0.037-0.039,0.086-0.058,0.149-0.057c0.063-0.001,0.113,0.018,0.149,0.057c0.036,0.038,0.054,0.102,0.055,0.191v0.268h0.373
				v-0.243c0-0.134-0.022-0.248-0.066-0.342c-0.044-0.095-0.11-0.165-0.196-0.214c-0.088-0.05-0.196-0.075-0.325-0.075
				s-0.237,0.025-0.324,0.075c-0.087,0.049-0.152,0.119-0.197,0.214c-0.043,0.094-0.066,0.208-0.066,0.342v1.304
				c0,0.135,0.022,0.248,0.066,0.343c0.045,0.093,0.11,0.164,0.197,0.214c0.087,0.051,0.195,0.073,0.324,0.075
				c0.129-0.002,0.237-0.024,0.325-0.075c0.086-0.05,0.152-0.121,0.196-0.214c0.044-0.095,0.066-0.208,0.066-0.343v-0.795h-0.552
				V41.146L33.033,41.146z M35.707,40.035h0.68v-0.357h-1.075v2.508h1.075v-0.358h-0.68v-0.734h0.541v-0.358h-0.541V40.035
				L35.707,40.035z M39.054,41.11h0.448v1.075h0.401v-2.508h-0.401v1.075h-0.448v-1.075H38.66v2.508h0.394V41.11L39.054,41.11z
				 M42.058,40.035h0.681v-0.357h-1.075v2.508h1.075v-0.358h-0.681v-0.734h0.541v-0.358h-0.541V40.035L42.058,40.035z
				 M45.681,42.185c-0.019-0.046-0.031-0.094-0.037-0.142c-0.005-0.048-0.007-0.103-0.006-0.162v-0.388
				c0-0.087-0.008-0.167-0.024-0.237c-0.017-0.069-0.043-0.13-0.082-0.18c-0.039-0.051-0.09-0.09-0.155-0.117
				c0.088-0.041,0.152-0.104,0.194-0.188c0.042-0.083,0.064-0.19,0.064-0.319v-0.197c0-0.13-0.02-0.236-0.061-0.322
				c-0.041-0.086-0.104-0.15-0.19-0.191c-0.086-0.043-0.198-0.063-0.333-0.063h-0.595v2.508h0.394v-1.021h0.137
				c0.06-0.001,0.108,0.009,0.146,0.03c0.038,0.021,0.066,0.055,0.085,0.102c0.018,0.048,0.027,0.11,0.027,0.188v0.393
				c0,0.052,0,0.093,0.002,0.126c0.001,0.032,0.004,0.06,0.008,0.081c0.003,0.021,0.006,0.04,0.011,0.055
				c0.005,0.016,0.009,0.032,0.014,0.047H45.681L45.681,42.185z M45.04,40.035c0.07-0.001,0.121,0.021,0.153,0.062
				c0.032,0.043,0.049,0.107,0.048,0.196v0.248c0,0.065-0.01,0.119-0.028,0.158c-0.02,0.038-0.046,0.066-0.082,0.083
				c-0.035,0.017-0.077,0.024-0.126,0.023H44.85v-0.771H45.04L45.04,40.035z M47.764,40.035h0.681v-0.357H47.37v2.508h1.075v-0.358
				h-0.681v-0.734h0.542v-0.358h-0.542V40.035z"/>
		</g>
	</g>
	<g>
		<path fill-rule="evenodd" clip-rule="evenodd" fill="#8C8C8C" d="M97.483,34.377c1.28,0.287,2.556,0.403,3.798,0.322
			c0.619-0.045,1.23-0.144,1.812-0.326c0.581-0.183,1.136-0.456,1.595-0.851c0.46-0.39,0.799-0.907,0.975-1.449
			c0.085-0.272,0.149-0.542,0.161-0.835c0.01-0.287-0.035-0.572-0.126-0.834c-0.182-0.523-0.548-0.96-1.006-1.208
			c-0.455-0.256-0.992-0.296-1.441-0.175c-0.222,0.059-0.441,0.148-0.627,0.284c-0.184,0.135-0.334,0.301-0.446,0.482
			c-0.222,0.362-0.304,0.772-0.242,1.149c0.059,0.373,0.294,0.703,0.597,0.85c0.301,0.146,0.632,0.128,0.873,0.003
			c0.252-0.125,0.381-0.378,0.385-0.584c0.011-0.208-0.072-0.377-0.171-0.474c-0.1-0.101-0.208-0.129-0.274-0.135
			c-0.068-0.006-0.102,0.007-0.102,0.016c-0.009,0.03,0.148,0.027,0.281,0.201c0.064,0.086,0.108,0.223,0.083,0.375
			c-0.023,0.15-0.125,0.31-0.305,0.381c-0.181,0.078-0.423,0.071-0.63-0.047c-0.206-0.118-0.358-0.35-0.39-0.639
			c-0.074-0.566,0.33-1.306,1.074-1.436c0.362-0.083,0.76-0.039,1.102,0.165c0.342,0.199,0.621,0.545,0.752,0.955
			c0.066,0.205,0.095,0.426,0.083,0.646c-0.011,0.217-0.071,0.456-0.147,0.682c-0.157,0.453-0.438,0.866-0.828,1.189
			c-0.785,0.653-1.919,0.931-3.076,1.004c-1.166,0.07-2.403-0.047-3.618-0.318c-1.534-0.348-2.928-1.009-4.217-1.725
			c-0.634-0.352-1.25-0.709-1.854-1.051c0.052-0.035,0.103-0.071,0.155-0.108c0.395-0.28,0.771-0.565,1.138-0.845
			c1.041,0.479,2.065,0.896,3.094,1.104c1.053,0.221,2.161,0.151,2.974-0.386c0.4-0.264,0.704-0.66,0.809-1.09
			c0.281-1.073-0.606-1.965-1.576-2.259c-0.689-0.208-1.525-0.2-2.318,0.121c-0.77,0.277-1.516,0.713-2.253,1.219
			c-0.272,0.188-0.544,0.383-0.814,0.585c-0.979-0.472-1.966-1.05-3.071-1.536c-0.475-0.206-0.959-0.388-1.455-0.519
			c-0.496-0.134-0.996-0.211-1.485-0.254c-0.981-0.084-1.956-0.013-2.839,0.28c-1.779,0.604-2.931,2.094-3.176,3.477
			c-0.135,0.69-0.06,1.342,0.114,1.865c0.174,0.524,0.434,0.928,0.674,1.223c0.492,0.586,0.87,0.786,0.889,0.762
			c0.036-0.04-0.287-0.308-0.694-0.907c-0.198-0.299-0.408-0.69-0.535-1.177c-0.126-0.483-0.164-1.065-0.018-1.675
			c0.142-0.607,0.464-1.236,0.966-1.775c0.498-0.538,1.176-1.002,1.958-1.247c0.79-0.247,1.689-0.305,2.606-0.218
			c0.461,0.044,0.924,0.12,1.378,0.244c0.458,0.125,0.914,0.294,1.368,0.491c0.955,0.419,1.864,0.931,2.772,1.375
			c-0.284,0.212-0.572,0.425-0.865,0.632c-0.133,0.096-0.267,0.188-0.401,0.277c-0.419-0.231-0.833-0.451-1.244-0.654
			c-0.593-0.296-1.183-0.571-1.783-0.762c-0.603-0.193-1.209-0.284-1.782-0.284c-0.567-0.001-1.147,0.09-1.607,0.382
			c-0.737,0.439-1.022,1.355-0.641,2.117c0.145,0.29,0.368,0.555,0.666,0.765c0.294,0.206,0.637,0.351,1.001,0.457
			c0.361,0.107,0.763,0.174,1.176,0.179c0.832,0.016,1.704-0.202,2.537-0.562c0.594-0.257,1.175-0.576,1.745-0.939
			c0.675,0.391,1.369,0.806,2.099,1.221C94.414,33.311,95.87,34.012,97.483,34.377L97.483,34.377z M93.388,29.635
			c0.179-0.133,0.354-0.263,0.531-0.388c0.705-0.498,1.409-0.929,2.101-1.201c0.345-0.135,0.688-0.229,1.017-0.266
			c0.327-0.036,0.641-0.008,0.939,0.062c0.813,0.177,1.649,0.795,1.357,1.724c-0.095,0.315-0.334,0.607-0.667,0.81
			c-0.333,0.204-0.75,0.322-1.199,0.358c-0.447,0.04-0.924-0.012-1.414-0.122C95.193,30.418,94.303,30.059,93.388,29.635
			L93.388,29.635z M84.738,29.686c0.378-0.221,0.867-0.287,1.393-0.27c0.527,0.017,1.08,0.113,1.63,0.305
			c0.554,0.191,1.113,0.464,1.693,0.769c0.313,0.162,0.63,0.334,0.95,0.515c-0.457,0.282-0.917,0.531-1.377,0.738
			c-0.776,0.348-1.56,0.558-2.294,0.566c-0.367,0.007-0.714-0.038-1.046-0.121c-0.329-0.081-0.63-0.194-0.877-0.35
			c-0.256-0.16-0.452-0.373-0.577-0.599C83.902,30.637,84.122,30.026,84.738,29.686z"/>
		<path fill-rule="evenodd" clip-rule="evenodd" fill="#8C8C8C" d="M29.77,34.377c-1.279,0.287-2.555,0.403-3.797,0.322
			c-0.62-0.045-1.23-0.144-1.812-0.326c-0.581-0.183-1.136-0.456-1.594-0.851c-0.461-0.39-0.8-0.907-0.975-1.449
			c-0.085-0.272-0.149-0.542-0.161-0.835c-0.01-0.287,0.034-0.572,0.125-0.834c0.182-0.523,0.549-0.96,1.005-1.208
			c0.456-0.256,0.993-0.296,1.442-0.175c0.221,0.059,0.44,0.148,0.627,0.284c0.184,0.135,0.334,0.301,0.447,0.482
			c0.222,0.362,0.304,0.772,0.241,1.149c-0.059,0.373-0.294,0.703-0.596,0.85c-0.301,0.146-0.632,0.128-0.873,0.003
			c-0.252-0.125-0.381-0.378-0.386-0.584c-0.01-0.208,0.073-0.377,0.172-0.474c0.1-0.101,0.208-0.129,0.274-0.135
			c0.068-0.006,0.102,0.007,0.102,0.016c0.009,0.03-0.147,0.027-0.281,0.201c-0.063,0.086-0.108,0.223-0.083,0.375
			c0.022,0.15,0.125,0.31,0.305,0.381c0.18,0.078,0.424,0.071,0.629-0.047c0.207-0.118,0.358-0.35,0.391-0.639
			c0.074-0.566-0.33-1.306-1.075-1.436c-0.361-0.083-0.76-0.039-1.102,0.165c-0.342,0.199-0.621,0.545-0.751,0.955
			c-0.067,0.205-0.096,0.426-0.084,0.646c0.012,0.217,0.072,0.456,0.147,0.682c0.157,0.453,0.438,0.866,0.828,1.189
			c0.784,0.653,1.919,0.931,3.077,1.004c1.166,0.07,2.401-0.047,3.616-0.318c1.535-0.348,2.928-1.009,4.218-1.725
			c0.633-0.352,1.25-0.709,1.853-1.051c-0.051-0.035-0.103-0.071-0.154-0.108c-0.395-0.28-0.771-0.565-1.138-0.845
			c-1.04,0.479-2.065,0.896-3.094,1.104c-1.054,0.221-2.161,0.151-2.974-0.386c-0.401-0.264-0.705-0.66-0.81-1.09
			c-0.28-1.073,0.607-1.965,1.577-2.259c0.689-0.208,1.524-0.2,2.318,0.121c0.77,0.277,1.515,0.713,2.253,1.219
			c0.272,0.188,0.543,0.383,0.814,0.585c0.978-0.472,1.966-1.05,3.071-1.536c0.474-0.206,0.958-0.388,1.453-0.519
			c0.497-0.134,0.997-0.211,1.487-0.254c0.981-0.084,1.956-0.013,2.838,0.28c1.779,0.604,2.932,2.094,3.177,3.477
			c0.135,0.69,0.059,1.342-0.114,1.865c-0.174,0.524-0.434,0.928-0.674,1.223c-0.493,0.586-0.871,0.786-0.889,0.762
			c-0.036-0.04,0.286-0.308,0.694-0.907c0.198-0.299,0.408-0.69,0.534-1.177c0.126-0.483,0.164-1.065,0.018-1.675
			c-0.143-0.607-0.464-1.236-0.966-1.775c-0.498-0.538-1.176-1.002-1.958-1.247c-0.79-0.247-1.689-0.305-2.606-0.218
			c-0.461,0.044-0.924,0.12-1.379,0.244c-0.458,0.125-0.913,0.294-1.367,0.491c-0.954,0.419-1.863,0.931-2.771,1.375
			c0.284,0.212,0.571,0.425,0.864,0.632c0.133,0.096,0.267,0.188,0.402,0.277c0.418-0.231,0.832-0.451,1.243-0.654
			c0.593-0.296,1.183-0.571,1.784-0.762c0.602-0.193,1.209-0.284,1.782-0.284c0.566-0.001,1.146,0.09,1.607,0.382
			c0.737,0.439,1.021,1.355,0.641,2.117c-0.144,0.29-0.368,0.555-0.665,0.765c-0.294,0.206-0.637,0.351-1.001,0.457
			c-0.362,0.107-0.763,0.174-1.177,0.179c-0.831,0.016-1.703-0.202-2.537-0.562c-0.594-0.257-1.174-0.576-1.745-0.939
			c-0.674,0.391-1.369,0.806-2.098,1.221C32.84,33.311,31.383,34.012,29.77,34.377L29.77,34.377z M33.865,29.635
			c-0.178-0.133-0.354-0.263-0.53-0.388c-0.706-0.498-1.409-0.929-2.101-1.201c-0.346-0.135-0.688-0.229-1.017-0.266
			c-0.328-0.036-0.641-0.008-0.939,0.062c-0.813,0.177-1.65,0.795-1.357,1.724c0.095,0.315,0.334,0.607,0.667,0.81
			c0.333,0.204,0.75,0.322,1.199,0.358c0.446,0.04,0.923-0.012,1.413-0.122C32.061,30.418,32.951,30.059,33.865,29.635
			L33.865,29.635z M42.515,29.686c-0.378-0.221-0.867-0.287-1.393-0.27c-0.527,0.017-1.079,0.113-1.63,0.305
			c-0.554,0.191-1.113,0.464-1.694,0.769c-0.313,0.162-0.63,0.334-0.951,0.515c0.458,0.282,0.918,0.531,1.377,0.738
			c0.777,0.348,1.561,0.558,2.294,0.566c0.366,0.007,0.714-0.038,1.045-0.121c0.329-0.081,0.631-0.194,0.877-0.35
			c0.256-0.16,0.452-0.373,0.577-0.599C43.352,30.637,43.132,30.026,42.515,29.686z"/>
	</g>
	<polygon fill-rule="evenodd" clip-rule="evenodd" fill="#363837" points="61.068,24.576 59.092,26.551 63.626,31.086 
		68.162,26.551 66.185,24.576 63.626,24.576 	"/>
	<polygon fill="#363837" points="62.151,47.811 62.151,52.626 61.787,52.821 61.787,53.055 63.334,53.055 63.334,52.821 
		62.97,52.626 62.97,50.387 64.283,50.387 64.283,52.626 63.927,52.821 63.927,53.055 65.467,53.055 65.467,52.821 65.102,52.626 
		65.102,47.811 65.41,47.599 65.41,47.364 63.975,47.364 63.975,47.599 64.283,47.811 64.283,49.925 62.97,49.925 62.97,47.811 
		63.278,47.599 63.278,47.364 61.843,47.364 61.843,47.599 	"/>
	<g>
		<path fill="#363837" d="M12.124,27.556c-0.076-0.078-0.146-0.172-0.21-0.254c-0.069-0.097-0.14-0.19-0.21-0.318
			c-0.082-0.121-0.167-0.288-0.271-0.494c-0.098-0.193-0.211-0.458-0.347-0.774l-1.054-2.463c-0.209-0.489-0.426-0.851-0.667-1.092
			c-0.242-0.24-0.509-0.394-0.795-0.409c-0.291-0.029-0.621,0.034-0.984,0.196l-0.831,0.371l2.859,6.339l-2.293,1.061L0,14.292
			c1.292-0.613,2.593-1.206,3.902-1.782c0.909-0.4,1.697-0.577,2.383-0.554s1.274,0.25,1.757,0.673
			c0.489,0.438,0.898,1.049,1.229,1.864l0.508,1.252c0.33,0.814,0.465,1.537,0.415,2.179c-0.05,0.645-0.299,1.212-0.736,1.693
			c0.47,0.003,0.907,0.122,1.275,0.343c0.364,0.208,0.694,0.524,0.978,0.922s0.542,0.883,0.751,1.437l0.99,2.44
			c0.151,0.374,0.305,0.715,0.455,1.013c0.162,0.291,0.356,0.555,0.587,0.802L12.124,27.556L12.124,27.556z M3.592,15.311
			L3.592,15.311l2.154,4.777l0.952-0.426c0.323-0.127,0.566-0.295,0.732-0.494c0.18-0.204,0.28-0.449,0.298-0.739
			c0.011-0.304-0.076-0.656-0.252-1.068l-0.663-1.548c-0.238-0.556-0.509-0.925-0.83-1.1c-0.329-0.158-0.716-0.145-1.171,0.054
			L3.592,15.311L3.592,15.311z M17.207,15.009l-1.565-4.502c1.522-0.528,3.054-1.032,4.593-1.512l-0.722-2.322
			c-2.474,0.77-4.929,1.603-7.359,2.501l5.92,16.016c2.15-0.795,4.32-1.532,6.508-2.212l-0.727-2.338
			c-1.41,0.438-2.812,0.9-4.208,1.386l-1.641-4.719c1.151-0.4,2.307-0.786,3.468-1.154l-0.739-2.318
			C19.553,14.209,18.378,14.602,17.207,15.009L17.207,15.009L17.207,15.009z M23.085,5.612L23.085,5.612
			c2.821-0.799,5.666-1.516,8.53-2.146l0.523,2.376c-0.954,0.212-1.906,0.429-2.855,0.659l3.435,14.233
			c-0.814,0.197-1.627,0.399-2.437,0.612L26.574,7.182c-0.944,0.247-1.886,0.503-2.826,0.771L23.085,5.612L23.085,5.612z
			 M43.969,18.537L43.969,18.537l-0.127-0.302c-0.057-0.108-0.088-0.219-0.137-0.358c-0.035-0.14-0.09-0.321-0.125-0.547
			c-0.045-0.212-0.103-0.495-0.155-0.836l-0.402-2.648c-0.081-0.526-0.198-0.932-0.358-1.228c-0.174-0.294-0.394-0.509-0.667-0.596
			c-0.273-0.102-0.609-0.123-1.017-0.054l-0.897,0.149l1.176,6.854L38.79,19.42l-3.21-16.77c1.404-0.269,2.814-0.517,4.226-0.745
			c0.965-0.156,1.788-0.134,2.431,0.064c0.66,0.194,1.17,0.562,1.531,1.093c0.378,0.544,0.606,1.241,0.722,2.111l0.178,1.342
			c0.115,0.871,0.063,1.603-0.146,2.213c-0.209,0.61-0.579,1.095-1.137,1.453c0.467,0.12,0.847,0.344,1.163,0.649
			c0.3,0.294,0.539,0.682,0.714,1.138c0.162,0.459,0.289,0.993,0.366,1.579l0.345,2.612c0.053,0.399,0.115,0.769,0.186,1.093
			c0.07,0.326,0.192,0.628,0.354,0.926C45.663,18.29,44.816,18.411,43.969,18.537L43.969,18.537z M38.785,4.542L38.785,4.542
			l0.887,5.164l1.042-0.174c0.33-0.041,0.608-0.142,0.833-0.296c0.211-0.15,0.369-0.362,0.458-0.638
			c0.088-0.291,0.106-0.658,0.04-1.098l-0.253-1.666c-0.09-0.597-0.275-1.021-0.542-1.272c-0.264-0.236-0.642-0.32-1.131-0.242
			L38.785,4.542L38.785,4.542z M52.313,13.611L52.313,13.611c0.051,0.604,0.21,1.023,0.465,1.263
			c0.254,0.238,0.594,0.356,1.004,0.313c0.412-0.019,0.717-0.18,0.935-0.455c0.217-0.274,0.314-0.714,0.276-1.317l-0.581-9.209
			c-0.038-0.604-0.198-1.026-0.469-1.268c-0.272-0.24-0.626-0.35-1.075-0.3c-0.451,0.018-0.8,0.174-1.034,0.455
			c-0.233,0.278-0.332,0.72-0.282,1.322L52.313,13.611L52.313,13.611z M48.817,4.841L48.817,4.841
			c-0.092-0.903-0.009-1.692,0.244-2.355c0.267-0.674,0.706-1.198,1.312-1.597c0.608-0.387,1.387-0.626,2.317-0.693
			c0.929-0.068,1.72,0.057,2.377,0.351c0.674,0.309,1.167,0.756,1.529,1.391c0.362,0.616,0.56,1.386,0.599,2.292l0.39,8.874
			c0.04,0.922-0.079,1.69-0.349,2.351c-0.271,0.646-0.668,1.158-1.23,1.52c-0.549,0.378-1.225,0.578-2.046,0.638
			c-0.821,0.059-1.532-0.038-2.13-0.333c-0.596-0.279-1.075-0.723-1.437-1.325c-0.35-0.616-0.58-1.359-0.673-2.276L48.817,4.841
			L48.817,4.841z M61.636,0.013L61.636,0.013c1.499-0.019,2.999-0.016,4.499,0.008c1.418,0.024,2.477,0.419,3.146,1.167
			c0.67,0.744,0.966,1.812,0.904,3.177l-0.386,8.631c-0.062,1.365-0.426,2.386-1.081,3.081s-1.609,1.038-2.866,1.017
			c-1.331-0.022-2.661-0.024-3.991-0.007L61.636,0.013L61.636,0.013z M64.474,2.436L64.474,2.436l-0.07,12.194l1.447,0.016
			c0.261,0.021,0.496-0.034,0.705-0.146c0.196-0.097,0.351-0.265,0.454-0.507c0.117-0.243,0.167-0.572,0.178-0.975l0.229-8.88
			c0.01-0.403-0.026-0.721-0.139-0.969c-0.099-0.247-0.259-0.424-0.467-0.543c-0.222-0.105-0.476-0.167-0.762-0.172L64.474,2.436
			L64.474,2.436z M77.122,7.836L77.122,7.836c1.234,0.117,2.466,0.25,3.697,0.399l-0.293,2.416
			c-1.209-0.146-2.421-0.277-3.634-0.394l-0.472,4.974c1.47,0.14,2.94,0.302,4.404,0.492l-0.311,2.428
			c-2.27-0.291-4.547-0.523-6.829-0.696l1.29-17.026c2.577,0.195,5.149,0.458,7.713,0.787l-0.309,2.413
			c-1.599-0.206-3.202-0.383-4.806-0.536L77.122,7.836L77.122,7.836z M86.208,5.847L86.208,5.847
			c0.141-0.896,0.408-1.64,0.807-2.219c0.416-0.59,0.956-0.982,1.631-1.218c0.656-0.223,1.456-0.261,2.357-0.092
			c0.917,0.172,1.635,0.489,2.181,0.938c0.544,0.462,0.893,1.024,1.067,1.721c0.164,0.683,0.16,1.478-0.031,2.365l-0.115,0.535
			c-0.854-0.184-1.708-0.361-2.565-0.53l0.14-0.707c0.117-0.593,0.083-1.039-0.103-1.34s-0.501-0.493-0.948-0.562
			c-0.44-0.099-0.805-0.03-1.086,0.182c-0.283,0.212-0.476,0.617-0.581,1.212c-0.088,0.497-0.063,0.954,0.054,1.385
			c0.117,0.431,0.31,0.846,0.549,1.241c0.251,0.413,0.532,0.803,0.838,1.213c0.293,0.396,0.595,0.804,0.892,1.231
			c0.297,0.428,0.553,0.891,0.758,1.375c0.219,0.488,0.354,1.016,0.421,1.575c0.065,0.572,0.03,1.199-0.116,1.876
			c-0.194,0.899-0.491,1.615-0.907,2.189c-0.413,0.562-0.925,0.95-1.536,1.167c-0.612,0.227-1.316,0.251-2.139,0.097
			c-0.809-0.151-1.458-0.424-1.948-0.859c-0.492-0.418-0.829-0.97-1.013-1.639c-0.181-0.686-0.201-1.461-0.058-2.372l0.163-1.037
			l2.437,0.404l-0.211,1.205c-0.069,0.397-0.071,0.733-0.005,0.993c0.069,0.245,0.185,0.457,0.357,0.59
			c0.169,0.147,0.402,0.247,0.661,0.283c0.268,0.062,0.508,0.05,0.732-0.025c0.208-0.063,0.393-0.217,0.545-0.421
			c0.155-0.22,0.273-0.534,0.352-0.93c0.096-0.495,0.086-0.952-0.016-1.382c-0.103-0.432-0.281-0.847-0.511-1.241
			c-0.241-0.397-0.5-0.797-0.807-1.188c-0.306-0.393-0.61-0.811-0.917-1.229c-0.308-0.421-0.583-0.873-0.815-1.335
			c-0.244-0.479-0.411-1-0.513-1.57C86.106,7.157,86.101,6.529,86.208,5.847L86.208,5.847z M99.413,4.349L99.413,4.349
			c0.924,0.228,1.846,0.464,2.765,0.713l-4.424,16.491c-0.812-0.219-1.628-0.428-2.445-0.63L99.413,4.349L99.413,4.349z
			 M108.514,14.865L108.514,14.865c1.195,0.401,2.384,0.818,3.569,1.253l-1.862,5.082c-0.317,0.865-0.709,1.535-1.201,2.045
			c-0.486,0.499-1.048,0.813-1.694,0.939c-0.638,0.14-1.338,0.067-2.119-0.194c-0.78-0.26-1.385-0.621-1.81-1.118
			c-0.442-0.486-0.701-1.08-0.777-1.766c-0.085-0.702-0.01-1.477,0.255-2.359l2.57-8.503c0.263-0.869,0.645-1.564,1.133-2.078
			c0.479-0.532,1.068-0.847,1.783-0.984c0.695-0.126,1.493-0.051,2.377,0.244c0.885,0.295,1.568,0.714,2.046,1.235
			c0.49,0.536,0.771,1.146,0.849,1.86c0.082,0.705-0.045,1.486-0.358,2.337l-0.574,1.569c-0.808-0.297-1.619-0.585-2.433-0.866
			l0.602-1.742c0.184-0.576,0.211-1.023,0.054-1.352c-0.157-0.328-0.458-0.566-0.89-0.695c-0.422-0.159-0.793-0.142-1.116,0.024
			c-0.323,0.167-0.583,0.536-0.769,1.111l-2.841,8.782c-0.125,0.383-0.173,0.716-0.157,0.978c0.034,0.254,0.119,0.479,0.285,0.64
			c0.146,0.168,0.35,0.295,0.615,0.369c0.255,0.103,0.496,0.12,0.728,0.079c0.215-0.033,0.418-0.161,0.599-0.342
			c0.184-0.196,0.345-0.491,0.477-0.872l1.03-2.98l-1.146-0.391L108.514,14.865L108.514,14.865z M119.527,15.988
			c-0.551,4.243-1.197,8.459-1.939,12.646l2.341,1.085l7.324-15.426l-2.299-1.067l-4.226,9.31c0.585-3.478,1.104-6.975,1.559-10.488
			c-1.094-0.47-2.194-0.93-3.299-1.373l-6.371,15.841l2.098,0.866L119.527,15.988L119.527,15.988z"/>
	</g>
</g>
</svg>
