<?xml version="1.0" encoding="utf-8"?>
<!-- Generator: Adobe Illustrator 16.0.0, SVG Export Plug-In . SVG Version: 6.00 Build 0)  -->
<!DOCTYPE svg PUBLIC "-//W3C//DTD SVG 1.1//EN" "http://www.w3.org/Graphics/SVG/1.1/DTD/svg11.dtd">
<svg version="1.1" id="Layer_1" xmlns="http://www.w3.org/2000/svg" xmlns:xlink="http://www.w3.org/1999/xlink" x="0px" y="0px"
	 width="125.919px" height="64.357px" viewBox="0 0 125.919 64.357" enable-background="new 0 0 125.919 64.357"
	 xml:space="preserve">
<g>
	<polygon fill-rule="evenodd" clip-rule="evenodd" fill="#373737" points="16.208,32.175 62.956,8.407 109.712,32.175 
		62.956,55.941 	"/>
	<path fill="#545454" d="M62.956,0c-0.195,0-0.354,0.158-0.354,0.354v4.552c0,0.195,0.158,0.354,0.354,0.354
		s0.354-0.158,0.354-0.354V0.354C63.31,0.158,63.151,0,62.956,0L62.956,0z M43.091,15.152L43.091,15.152
		c0.066,0.06,0.15,0.089,0.233,0.089c0.098,0,0.195-0.042,0.266-0.12c0.129-0.146,0.114-0.371-0.032-0.5L33.975,6.19
		c-0.146-0.129-0.369-0.116-0.499,0.032c-0.129,0.146-0.114,0.37,0.032,0.498L43.091,15.152L43.091,15.152z M12.256,17.67
		L12.256,17.67l16.591,4.863c0.033,0.01,0.066,0.015,0.1,0.015c0.152,0,0.294-0.101,0.339-0.255c0.056-0.188-0.052-0.385-0.24-0.438
		L12.454,16.99c-0.187-0.053-0.384,0.053-0.439,0.24C11.961,17.418,12.067,17.615,12.256,17.67L12.256,17.67z M29.285,42.062
		L29.285,42.062c-0.054-0.186-0.251-0.293-0.438-0.239l-16.591,4.864c-0.188,0.055-0.295,0.251-0.241,0.439
		c0.046,0.153,0.188,0.255,0.341,0.255c0.032,0,0.065-0.006,0.099-0.015l16.591-4.864C29.233,42.447,29.341,42.251,29.285,42.062
		L29.285,42.062z M43.59,49.236L43.59,49.236c-0.13-0.146-0.354-0.16-0.499-0.031l-9.583,8.432
		c-0.146,0.129-0.161,0.352-0.032,0.499c0.069,0.079,0.167,0.12,0.266,0.12c0.083,0,0.166-0.029,0.233-0.089l9.583-8.431
		C43.704,49.607,43.719,49.384,43.59,49.236L43.59,49.236z M82.83,49.205L82.83,49.205c-0.146-0.129-0.37-0.114-0.499,0.031
		c-0.13,0.147-0.115,0.371,0.031,0.5l9.583,8.431c0.067,0.06,0.15,0.089,0.233,0.089c0.099,0,0.196-0.041,0.266-0.12
		c0.129-0.147,0.115-0.37-0.032-0.499L82.83,49.205L82.83,49.205z M113.665,46.688L113.665,46.688l-16.592-4.864
		c-0.187-0.054-0.384,0.054-0.438,0.239c-0.055,0.188,0.052,0.385,0.24,0.44l16.591,4.864c0.033,0.009,0.067,0.015,0.1,0.015
		c0.153,0,0.294-0.102,0.34-0.255C113.96,46.938,113.853,46.742,113.665,46.688L113.665,46.688z M96.635,22.293L96.635,22.293
		c0.045,0.154,0.187,0.255,0.34,0.255c0.032,0,0.065-0.005,0.099-0.015l16.592-4.863c0.188-0.055,0.295-0.252,0.24-0.439
		s-0.25-0.293-0.439-0.24l-16.591,4.864C96.687,21.908,96.58,22.105,96.635,22.293L96.635,22.293z M82.331,15.121L82.331,15.121
		c0.07,0.078,0.167,0.12,0.266,0.12c0.083,0,0.166-0.029,0.233-0.089l9.582-8.432c0.147-0.128,0.161-0.353,0.032-0.498
		c-0.129-0.148-0.354-0.161-0.499-0.032l-9.583,8.431C82.216,14.75,82.201,14.975,82.331,15.121L82.331,15.121z M48.153,3.321
		L48.153,3.321c-0.09-0.173-0.305-0.238-0.478-0.147s-0.239,0.305-0.148,0.478l3.778,7.185c0.063,0.121,0.187,0.189,0.314,0.189
		c0.056,0,0.111-0.014,0.164-0.041c0.173-0.09,0.239-0.305,0.147-0.478L48.153,3.321L48.153,3.321z M18.326,9.888
		c-0.175-0.089-0.244-0.302-0.155-0.476c0.089-0.175,0.301-0.245,0.477-0.154l17.647,8.972c0.174,0.089,0.243,0.301,0.155,0.476
		c-0.062,0.123-0.188,0.192-0.315,0.192c-0.055,0-0.108-0.012-0.16-0.038L18.326,9.888L18.326,9.888L18.326,9.888z M6.471,24.841
		L6.471,24.841l14.132,1.928c0.017,0.002,0.032,0.003,0.048,0.003c0.175,0,0.327-0.129,0.351-0.307
		c0.026-0.193-0.109-0.371-0.303-0.397L6.566,24.14c-0.194-0.034-0.372,0.108-0.398,0.303C6.142,24.636,6.277,24.814,6.471,24.841
		L6.471,24.841z M21.001,37.892L21.001,37.892c-0.026-0.194-0.206-0.339-0.398-0.303L6.471,39.517
		c-0.193,0.026-0.329,0.204-0.303,0.398c0.024,0.177,0.177,0.306,0.351,0.306c0.016,0,0.032,0,0.048-0.003l14.132-1.928
		C20.892,38.265,21.027,38.086,21.001,37.892L21.001,37.892z M36.45,45.652c0.088,0.175,0.019,0.387-0.155,0.476l-17.647,8.973
		c-0.052,0.025-0.106,0.038-0.161,0.038c-0.129,0-0.253-0.07-0.315-0.193c-0.089-0.175-0.02-0.388,0.155-0.476l17.648-8.972
		C36.148,45.407,36.362,45.478,36.45,45.652L36.45,45.652L36.45,45.652z M51.784,53.373L51.784,53.373
		c-0.173-0.091-0.387-0.024-0.479,0.148l-3.778,7.185c-0.091,0.173-0.024,0.387,0.148,0.478c0.053,0.027,0.108,0.04,0.165,0.04
		c0.127,0,0.25-0.067,0.312-0.189l3.778-7.184C52.023,53.678,51.957,53.463,51.784,53.373L51.784,53.373z M74.614,53.521
		L74.614,53.521c-0.091-0.173-0.306-0.239-0.479-0.148c-0.173,0.09-0.239,0.305-0.147,0.478l3.778,7.184
		c0.062,0.122,0.186,0.189,0.312,0.189c0.057,0,0.112-0.013,0.165-0.04c0.173-0.091,0.239-0.305,0.148-0.478L74.614,53.521
		L74.614,53.521z M107.594,54.47c0.175,0.088,0.244,0.301,0.155,0.476c-0.062,0.123-0.187,0.193-0.315,0.193
		c-0.055,0-0.109-0.013-0.161-0.038l-17.648-8.973c-0.173-0.089-0.242-0.301-0.154-0.476c0.089-0.175,0.301-0.245,0.476-0.154
		L107.594,54.47L107.594,54.47L107.594,54.47z M119.449,39.517L119.449,39.517l-14.132-1.928c-0.197-0.036-0.372,0.108-0.398,0.303
		s0.109,0.373,0.303,0.398l14.132,1.928c0.016,0.003,0.032,0.003,0.048,0.003c0.174,0,0.327-0.129,0.351-0.306
		C119.778,39.721,119.643,39.543,119.449,39.517L119.449,39.517z M104.919,26.465L104.919,26.465
		c0.023,0.178,0.176,0.307,0.35,0.307c0.017,0,0.032-0.001,0.049-0.003l14.132-1.928c0.193-0.026,0.329-0.205,0.303-0.398
		c-0.026-0.194-0.205-0.337-0.398-0.303l-14.132,1.928C105.028,26.094,104.893,26.271,104.919,26.465L104.919,26.465z M89.47,18.705
		c-0.088-0.175-0.019-0.387,0.154-0.476l17.648-8.972c0.174-0.091,0.388-0.021,0.477,0.154c0.089,0.174,0.02,0.387-0.155,0.476
		l-17.648,8.972c-0.051,0.026-0.105,0.038-0.159,0.038C89.657,18.897,89.532,18.828,89.47,18.705L89.47,18.705L89.47,18.705z
		 M74.136,10.984L74.136,10.984c0.053,0.027,0.109,0.041,0.165,0.041c0.127,0,0.25-0.068,0.313-0.189l3.778-7.185
		c0.091-0.173,0.024-0.387-0.148-0.478s-0.387-0.025-0.478,0.147l-3.778,7.186C73.896,10.68,73.963,10.895,74.136,10.984
		L74.136,10.984z M56.651,6.4L56.651,6.4c-0.049-0.189-0.244-0.303-0.432-0.255c-0.189,0.049-0.303,0.241-0.255,0.431l0.41,1.593
		c0.041,0.158,0.185,0.265,0.343,0.265c0.028,0,0.059-0.003,0.088-0.011c0.189-0.049,0.304-0.243,0.255-0.433L56.651,6.4L56.651,6.4
		z M46.968,13.117l-3.787-4.65c-0.123-0.151-0.101-0.373,0.051-0.498c0.152-0.122,0.375-0.101,0.498,0.052l3.787,4.65
		c0.124,0.151,0.101,0.374-0.051,0.498c-0.065,0.053-0.146,0.079-0.224,0.079C47.14,13.248,47.037,13.203,46.968,13.117
		L46.968,13.117L46.968,13.117z M31.734,11.918c-0.163-0.108-0.208-0.328-0.1-0.491c0.107-0.162,0.326-0.206,0.49-0.099l7.738,5.125
		c0.163,0.107,0.207,0.327,0.1,0.49c-0.068,0.103-0.181,0.158-0.296,0.158c-0.066,0-0.135-0.02-0.194-0.059L31.734,11.918
		L31.734,11.918L31.734,11.918z M32.73,20.011c0.183,0.071,0.272,0.276,0.201,0.458c-0.055,0.14-0.188,0.225-0.33,0.225
		c-0.042,0-0.086-0.007-0.128-0.023l-10.083-3.937c-0.182-0.071-0.271-0.277-0.201-0.459c0.071-0.182,0.276-0.271,0.459-0.2
		L32.73,20.011L32.73,20.011L32.73,20.011z M25.366,24.26c-0.036,0.166-0.183,0.28-0.346,0.28c-0.024,0-0.05-0.001-0.074-0.007
		l-9.147-1.928c-0.192-0.04-0.314-0.229-0.273-0.419c0.04-0.192,0.229-0.317,0.419-0.273l9.148,1.927
		C25.283,23.881,25.406,24.068,25.366,24.26L25.366,24.26L25.366,24.26z M15.575,28.655L15.575,28.655l-3.131-0.213
		c-0.2-0.011-0.363,0.134-0.377,0.329c-0.013,0.195,0.134,0.364,0.329,0.377l3.132,0.214c0.008,0,0.016,0,0.023,0
		c0.186,0,0.341-0.142,0.354-0.329C15.918,28.838,15.771,28.669,15.575,28.655L15.575,28.655z M15.528,34.995L15.528,34.995
		l-3.132,0.212c-0.195,0.014-0.342,0.184-0.329,0.378c0.013,0.188,0.168,0.33,0.354,0.33c0.008,0,0.016,0,0.023-0.001l3.131-0.212
		c0.195-0.014,0.343-0.183,0.33-0.378S15.726,34.984,15.528,34.995L15.528,34.995z M15.525,42.171
		c-0.041-0.191,0.082-0.379,0.273-0.419l9.155-1.928c0.19-0.045,0.38,0.081,0.42,0.273c0.041,0.191-0.083,0.379-0.273,0.42
		l-9.156,1.927c-0.024,0.006-0.049,0.008-0.073,0.008C15.707,42.452,15.56,42.338,15.525,42.171L15.525,42.171L15.525,42.171z
		 M32.474,43.687c0.181-0.07,0.387,0.021,0.458,0.201c0.071,0.183-0.019,0.388-0.201,0.459l-10.082,3.937
		c-0.043,0.017-0.086,0.023-0.129,0.023c-0.142,0-0.275-0.085-0.33-0.225c-0.07-0.182,0.02-0.387,0.201-0.458L32.474,43.687
		L32.474,43.687L32.474,43.687z M39.963,47.413c0.107,0.163,0.063,0.384-0.1,0.491l-7.738,5.126c-0.06,0.04-0.128,0.059-0.195,0.059
		c-0.114,0-0.228-0.056-0.295-0.158c-0.108-0.163-0.063-0.383,0.1-0.491l7.738-5.125C39.635,47.206,39.854,47.251,39.963,47.413
		L39.963,47.413L39.963,47.413z M47.474,51.189c0.152,0.124,0.175,0.347,0.051,0.498l-3.796,4.649
		c-0.069,0.086-0.171,0.131-0.273,0.131c-0.079,0-0.158-0.026-0.225-0.08c-0.151-0.123-0.173-0.347-0.05-0.498l3.795-4.649
		C47.099,51.088,47.32,51.066,47.474,51.189L47.474,51.189L47.474,51.189z M56.806,55.935L56.806,55.935
		c-0.188-0.048-0.382,0.065-0.431,0.255l-0.41,1.59c-0.048,0.189,0.065,0.384,0.255,0.432c0.029,0.008,0.06,0.011,0.089,0.011
		c0.157,0,0.302-0.105,0.343-0.265l0.409-1.591C57.109,56.178,56.995,55.983,56.806,55.935L56.806,55.935z M69.544,56.188
		L69.544,56.188c-0.05-0.189-0.243-0.305-0.432-0.252c-0.189,0.05-0.302,0.243-0.253,0.432l0.419,1.591
		c0.042,0.159,0.186,0.264,0.342,0.264c0.03,0,0.061-0.003,0.09-0.011c0.189-0.05,0.303-0.243,0.252-0.433L69.544,56.188
		L69.544,56.188z M78.952,51.24l3.795,4.649c0.124,0.151,0.102,0.375-0.05,0.498c-0.066,0.054-0.146,0.08-0.224,0.08
		c-0.103,0-0.205-0.045-0.274-0.131l-3.795-4.649c-0.124-0.151-0.102-0.374,0.05-0.498C78.605,51.066,78.828,51.088,78.952,51.24
		L78.952,51.24L78.952,51.24z M94.186,52.439c0.163,0.108,0.208,0.328,0.101,0.491c-0.069,0.103-0.182,0.158-0.296,0.158
		c-0.067,0-0.136-0.019-0.195-0.059l-7.738-5.126c-0.163-0.107-0.208-0.328-0.1-0.491c0.107-0.162,0.326-0.207,0.49-0.099
		L94.186,52.439L94.186,52.439L94.186,52.439z M92.988,43.888c0.07-0.181,0.277-0.271,0.458-0.201l10.083,3.938
		c0.183,0.071,0.271,0.276,0.201,0.458c-0.056,0.14-0.188,0.225-0.33,0.225c-0.043,0-0.087-0.007-0.129-0.023l-10.082-3.937
		C93.008,44.275,92.917,44.07,92.988,43.888L92.988,43.888L92.988,43.888z M100.554,40.089c0.041-0.191,0.226-0.312,0.42-0.273
		l9.156,1.937c0.191,0.041,0.313,0.228,0.273,0.42c-0.035,0.166-0.183,0.28-0.346,0.28c-0.025,0-0.05-0.003-0.074-0.008
		l-9.156-1.936C100.636,40.468,100.514,40.281,100.554,40.089L100.554,40.089L100.554,40.089z M113.523,35.207L113.523,35.207
		l-3.132-0.212c-0.186-0.011-0.364,0.134-0.377,0.329s0.134,0.364,0.33,0.378l3.131,0.212c0.008,0.001,0.017,0.001,0.024,0.001
		c0.185,0,0.34-0.143,0.353-0.33C113.866,35.391,113.719,35.221,113.523,35.207L113.523,35.207z M113.476,28.442L113.476,28.442
		l-3.132,0.213c-0.195,0.014-0.342,0.183-0.329,0.378c0.013,0.188,0.168,0.329,0.353,0.329c0.008,0,0.017,0,0.024,0l3.133-0.214
		c0.194-0.013,0.342-0.182,0.328-0.377C113.84,28.576,113.681,28.432,113.476,28.442L113.476,28.442z M110.403,22.187
		c0.04,0.19-0.082,0.379-0.273,0.419l-9.156,1.937c-0.024,0.004-0.05,0.007-0.074,0.007c-0.163,0-0.31-0.114-0.346-0.28
		c-0.04-0.191,0.082-0.379,0.273-0.42l9.156-1.936C110.176,21.874,110.362,21.994,110.403,22.187L110.403,22.187L110.403,22.187z
		 M103.73,16.274c0.07,0.182-0.019,0.388-0.201,0.459L93.446,20.67c-0.042,0.017-0.085,0.023-0.129,0.023
		c-0.141,0-0.274-0.085-0.329-0.225c-0.071-0.182,0.02-0.387,0.201-0.458l10.082-3.937C103.452,16.003,103.659,16.093,103.73,16.274
		L103.73,16.274L103.73,16.274z M85.957,16.943c-0.108-0.163-0.063-0.383,0.101-0.49l7.737-5.125
		c0.163-0.107,0.382-0.063,0.491,0.099c0.107,0.163,0.062,0.383-0.101,0.491l-7.738,5.125c-0.06,0.039-0.128,0.059-0.195,0.059
		C86.138,17.102,86.025,17.046,85.957,16.943L85.957,16.943L85.957,16.943z M78.455,13.169c-0.152-0.124-0.175-0.348-0.051-0.499
		l3.795-4.65c0.122-0.151,0.347-0.174,0.498-0.051c0.151,0.125,0.174,0.348,0.05,0.499l-3.795,4.65
		c-0.069,0.085-0.172,0.13-0.274,0.13C78.6,13.248,78.521,13.222,78.455,13.169L78.455,13.169L78.455,13.169z M69.114,8.423
		L69.114,8.423c0.029,0.008,0.059,0.011,0.088,0.011c0.158,0,0.302-0.106,0.343-0.265l0.409-1.593
		c0.05-0.189-0.064-0.382-0.254-0.431c-0.188-0.048-0.382,0.065-0.432,0.255l-0.409,1.59C68.811,8.18,68.925,8.374,69.114,8.423
		L69.114,8.423z M125.565,31.821L125.565,31.821h-8.959c-0.196,0-0.354,0.157-0.354,0.354c0,0.195,0.158,0.354,0.354,0.354h8.959
		c0.195,0,0.354-0.158,0.354-0.354C125.919,31.979,125.761,31.821,125.565,31.821L125.565,31.821z M62.956,59.098L62.956,59.098
		c-0.195,0-0.354,0.158-0.354,0.354v4.552c0,0.195,0.158,0.354,0.354,0.354s0.354-0.159,0.354-0.354v-4.552
		C63.31,59.256,63.151,59.098,62.956,59.098L62.956,59.098z M9.668,32.175L9.668,32.175c0-0.196-0.158-0.354-0.354-0.354h-8.96
		C0.159,31.821,0,31.979,0,32.175c0,0.195,0.159,0.354,0.354,0.354h8.96C9.51,32.528,9.668,32.37,9.668,32.175z"/>
	<path fill="#FFFFFF" d="M38.221,31.703c0.082,0.3,0.1,0.564,0.036,0.801c-0.045,0.228-0.173,0.428-0.354,0.573l1.283,2.194
		c0.036,0.046,0.036,0.092,0.026,0.128c-0.018,0.027-0.054,0.055-0.1,0.063l-0.9,0.264c-0.046,0.01-0.073,0.019-0.109,0
		c-0.037-0.018-0.055-0.045-0.073-0.072l-1.282-2.104l-0.602,0.183l0.71,2.258c0.009,0.046,0.019,0.091-0.009,0.118
		c-0.019,0.027-0.046,0.045-0.092,0.064l-0.891,0.29c-0.037,0.01-0.073,0.01-0.11,0c-0.026-0.018-0.054-0.054-0.063-0.1
		l-2.257-6.846c-0.018-0.056-0.018-0.093-0.009-0.119c0.027-0.036,0.055-0.064,0.101-0.073c0.773-0.264,1.556-0.5,2.348-0.737
		c0.437-0.137,0.81-0.118,1.101,0.027c0.282,0.164,0.492,0.455,0.619,0.874L38.221,31.703L38.221,31.703z M36.664,32.276
		L36.664,32.276c0.119-0.036,0.191-0.091,0.237-0.173c0.046-0.092,0.046-0.182,0.009-0.301l-0.5-1.684
		c-0.037-0.119-0.101-0.21-0.183-0.237c-0.082-0.046-0.173-0.055-0.3-0.019l-0.91,0.283l0.755,2.403L36.664,32.276L36.664,32.276z
		 M43.489,27.752L43.489,27.752c0.01,0.055,0,0.091-0.009,0.127c-0.018,0.027-0.064,0.063-0.118,0.073
		c-0.782,0.163-1.565,0.345-2.339,0.537l0.437,1.82c0.592-0.137,1.174-0.282,1.766-0.409c0.046-0.009,0.082-0.009,0.109,0.018
		c0.037,0.019,0.055,0.063,0.063,0.101l0.2,0.91c0.018,0.055,0.01,0.091-0.018,0.127c-0.01,0.027-0.046,0.056-0.082,0.073
		c-0.583,0.128-1.166,0.265-1.738,0.401l0.445,1.839c0.737-0.173,1.475-0.347,2.221-0.501c0.045-0.018,0.091-0.018,0.118,0
		c0.027,0.019,0.046,0.063,0.055,0.109l0.2,0.92c0.009,0.045,0.009,0.091-0.009,0.118c-0.019,0.018-0.055,0.045-0.109,0.055
		c-1.073,0.228-2.148,0.482-3.212,0.756c-0.046,0.008-0.083,0.008-0.1-0.009c-0.037-0.011-0.064-0.056-0.073-0.092l-1.802-6.992
		c-0.01-0.055-0.01-0.082,0.018-0.118c0.018-0.037,0.045-0.055,0.092-0.064c1.164-0.3,2.329-0.573,3.494-0.828
		c0.054-0.009,0.108-0.009,0.137,0.019c0.026,0.018,0.045,0.046,0.054,0.1L43.489,27.752L43.489,27.752z M49.05,25.639L49.05,25.639
		c0.045-0.008,0.091-0.008,0.118,0.028c0.027,0.017,0.045,0.045,0.054,0.1l0.137,0.92c0.01,0.063,0,0.091-0.018,0.118
		c-0.019,0.036-0.063,0.055-0.109,0.063l-1.109,0.174l0.973,6.045c0.01,0.054,0.01,0.091-0.009,0.118
		c-0.018,0.019-0.046,0.036-0.101,0.046l-0.919,0.154c-0.045,0.009-0.091,0.009-0.108-0.009c-0.027-0.019-0.056-0.046-0.064-0.1
		l-1.064-6.037l-1.102,0.2c-0.045,0.009-0.091,0.009-0.118-0.018c-0.026-0.019-0.046-0.055-0.055-0.11l-0.173-0.91
		c-0.009-0.054-0.009-0.091,0.009-0.117c0.02-0.037,0.064-0.056,0.11-0.064C46.675,26.021,47.857,25.812,49.05,25.639L49.05,25.639z
		 M55.61,28.553L55.61,28.553c0.027,0.31-0.018,0.564-0.109,0.782c-0.1,0.229-0.255,0.392-0.464,0.501l0.829,2.404
		c0.026,0.055,0.018,0.101,0,0.127c-0.02,0.027-0.056,0.046-0.11,0.046l-0.928,0.082c-0.045,0.009-0.082,0.009-0.101-0.019
		c-0.036-0.018-0.055-0.054-0.063-0.09l-0.846-2.313l-0.638,0.073l0.264,2.349c0,0.046,0,0.091-0.026,0.118
		c-0.019,0.019-0.056,0.036-0.109,0.036l-0.929,0.109c-0.036,0.009-0.072,0-0.108-0.019c-0.019-0.018-0.036-0.063-0.046-0.1
		l-0.893-7.165c-0.009-0.055,0-0.082,0.019-0.109c0.027-0.036,0.064-0.055,0.109-0.055c0.819-0.101,1.629-0.191,2.448-0.272
		c0.455-0.046,0.81,0.045,1.073,0.246c0.246,0.208,0.401,0.536,0.437,0.973L55.61,28.553L55.61,28.553z M53.973,28.808
		L53.973,28.808c0.118-0.009,0.209-0.045,0.264-0.118c0.064-0.073,0.091-0.164,0.073-0.291l-0.164-1.758
		c-0.018-0.118-0.055-0.219-0.128-0.264c-0.081-0.063-0.173-0.082-0.3-0.072l-0.946,0.1l0.273,2.504L53.973,28.808L53.973,28.808z
		 M57.513,26.113L57.513,26.113c-0.027-0.446,0.072-0.783,0.291-1.029c0.228-0.237,0.573-0.373,1.028-0.4l1.101-0.036
		c0.456-0.019,0.811,0.1,1.057,0.31c0.236,0.236,0.363,0.563,0.373,1.011l0.09,4.807c0.01,0.446-0.108,0.783-0.309,1.011
		c-0.228,0.236-0.538,0.354-0.965,0.364l-1.01,0.045c-0.419,0.019-0.746-0.072-0.983-0.301c-0.228-0.209-0.364-0.527-0.392-0.974
		L57.513,26.113L57.513,26.113z M59.915,30.956L59.915,30.956c0.118-0.009,0.2-0.046,0.264-0.1c0.064-0.073,0.091-0.164,0.091-0.292
		l-0.137-4.333c-0.009-0.128-0.045-0.219-0.117-0.283c-0.064-0.063-0.155-0.091-0.282-0.091l-0.556,0.027
		c-0.127,0-0.228,0.046-0.301,0.11c-0.045,0.072-0.081,0.163-0.073,0.282l0.201,4.333c0,0.136,0.036,0.219,0.1,0.282
		c0.064,0.055,0.164,0.082,0.282,0.082L59.915,30.956L59.915,30.956z M67.432,27.779L67.432,27.779c0,0.108-0.037,0.219-0.092,0.31
		c-0.054,0.091-0.126,0.172-0.218,0.218c-0.091,0.064-0.191,0.092-0.318,0.109v0.027c0.118,0.009,0.218,0.063,0.31,0.137
		c0.081,0.055,0.145,0.137,0.19,0.228c0.047,0.101,0.073,0.201,0.063,0.328l-0.081,1.729c-0.019,0.438-0.146,0.765-0.382,0.975
		c-0.237,0.227-0.556,0.327-0.983,0.31c-0.719-0.019-1.438-0.037-2.157-0.037c-0.045,0-0.091-0.019-0.108-0.036
		c-0.019-0.027-0.037-0.064-0.037-0.109l0.037-7.22c0-0.055,0.027-0.082,0.045-0.118c0.027-0.019,0.073-0.037,0.119-0.037
		c0.782,0.009,1.564,0.028,2.339,0.056c0.464,0.009,0.81,0.146,1.036,0.382c0.237,0.236,0.347,0.574,0.319,1.02L67.432,27.779
		L67.432,27.779z M66.221,26.268L66.221,26.268c0.01-0.127-0.026-0.228-0.082-0.283c-0.062-0.072-0.154-0.108-0.291-0.108
		l-0.873-0.019l-0.045,1.895l0.864,0.019c0.118,0.009,0.228-0.019,0.291-0.092c0.063-0.055,0.1-0.137,0.1-0.264L66.221,26.268
		L66.221,26.268z M66.121,29.399L66.121,29.399c0-0.118-0.027-0.219-0.082-0.282c-0.063-0.064-0.154-0.1-0.282-0.1l-0.846-0.019
		l-0.037,1.894l0.829,0.018c0.118,0.01,0.218-0.026,0.281-0.09c0.055-0.055,0.092-0.155,0.092-0.273L66.121,29.399L66.121,29.399z
		 M73.483,28.835L73.483,28.835c-0.037,0.31-0.119,0.556-0.255,0.756c-0.146,0.191-0.318,0.327-0.564,0.391l0.364,2.522
		c0.009,0.055,0,0.101-0.037,0.128c-0.018,0.018-0.054,0.027-0.108,0.018l-0.929-0.1c-0.046,0-0.082-0.009-0.1-0.036
		c-0.019-0.027-0.036-0.063-0.036-0.101l-0.383-2.432l-0.646-0.054l-0.2,2.358c0,0.036-0.018,0.081-0.036,0.101
		c-0.036,0.026-0.073,0.026-0.109,0.026l-0.938-0.072c-0.036,0-0.081-0.019-0.1-0.037c-0.027-0.027-0.037-0.072-0.037-0.118
		l0.52-7.192c0-0.055,0.009-0.092,0.046-0.109c0.027-0.037,0.072-0.037,0.118-0.037c0.818,0.055,1.629,0.127,2.438,0.21
		c0.464,0.045,0.792,0.209,1.01,0.455c0.219,0.255,0.291,0.602,0.237,1.038L73.483,28.835L73.483,28.835z M71.827,28.771
		L71.827,28.771c0.118,0.009,0.227-0.009,0.281-0.072c0.073-0.056,0.119-0.146,0.128-0.265l0.182-1.757
		c0.01-0.119-0.018-0.229-0.081-0.283c-0.046-0.073-0.146-0.117-0.273-0.127l-0.946-0.091l-0.219,2.513L71.827,28.771L71.827,28.771
		z M78.252,33.424L78.252,33.424c-0.046-0.01-0.073-0.01-0.092-0.046c-0.027-0.027-0.036-0.063-0.036-0.1l-0.019-1.402l-1.602-0.255
		l-0.455,1.32c-0.009,0.036-0.036,0.063-0.063,0.081c-0.027,0.027-0.055,0.027-0.101,0.019l-0.946-0.137
		c-0.045,0-0.081-0.018-0.1-0.045c-0.018-0.036-0.018-0.063,0.009-0.119c0.811-2.32,1.666-4.634,2.566-6.928
		c0.019-0.046,0.046-0.073,0.073-0.091c0.036-0.019,0.072-0.027,0.118-0.019l1.329,0.219c0.045,0.009,0.081,0.018,0.108,0.055
		c0.019,0.019,0.036,0.055,0.036,0.1c0.128,2.468,0.21,4.926,0.256,7.394c0,0.055-0.01,0.081-0.037,0.118
		c-0.019,0.018-0.063,0.018-0.118,0.009L78.252,33.424L78.252,33.424z M77.997,27.433L77.997,27.433
		c-0.373,1.047-0.737,2.094-1.102,3.15l1.164,0.183C78.052,29.654,78.023,28.544,77.997,27.433L77.997,27.433z M86.706,27.569
		L86.706,27.569c0.045,0.019,0.072,0.036,0.1,0.072c0.018,0.027,0.018,0.063,0,0.119l-1.802,6.983
		c-0.01,0.045-0.036,0.082-0.055,0.1c-0.036,0.01-0.073,0.018-0.118,0.01l-0.865-0.219c-0.036-0.01-0.072-0.019-0.1-0.055
		c-0.009-0.019-0.027-0.063-0.027-0.109c-0.127-1.402-0.282-2.813-0.455-4.225l-0.045-0.01l-0.883,3.888
		c-0.01,0.046-0.027,0.083-0.055,0.101c-0.037,0.019-0.064,0.019-0.118,0.01l-0.92-0.201c-0.036-0.009-0.063-0.026-0.091-0.054
		c-0.019-0.028-0.019-0.073-0.009-0.118l1.492-7.057c0.019-0.055,0.036-0.082,0.063-0.1c0.036-0.027,0.073-0.027,0.119-0.019
		l0.946,0.209c0.045,0.009,0.073,0.027,0.091,0.056c0.036,0.026,0.055,0.055,0.055,0.1c0.191,1.411,0.354,2.812,0.501,4.225
		l0.054,0.009l0.938-3.852c0.019-0.045,0.036-0.082,0.063-0.091c0.036-0.027,0.073-0.027,0.128-0.018L86.706,27.569L86.706,27.569z
		 M89.054,28.371L89.054,28.371c0.018-0.056,0.036-0.083,0.063-0.101c0.036-0.019,0.081-0.019,0.128-0.01
		c0.745,0.219,1.491,0.438,2.238,0.674c0.445,0.146,0.736,0.364,0.892,0.656c0.163,0.301,0.163,0.655,0.027,1.074l-1.511,4.562
		c-0.137,0.428-0.346,0.71-0.628,0.847c-0.282,0.145-0.619,0.164-1.028,0.027c-0.683-0.209-1.374-0.419-2.066-0.62
		c-0.036-0.009-0.072-0.026-0.09-0.054c-0.01-0.027-0.02-0.063,0-0.118L89.054,28.371L89.054,28.371z M89.371,34.854L89.371,34.854
		c0.11,0.036,0.21,0.036,0.292-0.01c0.072-0.037,0.137-0.118,0.173-0.236l1.283-4.079c0.036-0.128,0.036-0.228-0.01-0.301
		c-0.045-0.081-0.127-0.145-0.245-0.182l-0.847-0.264l-1.446,4.825L89.371,34.854z"/>
	<path fill="#FFFFFF" d="M49.918,38.189h0.766v-0.403h-1.209v2.821h1.209v-0.402h-0.766v-0.827h0.608v-0.403h-0.608V38.189
		L49.918,38.189z M52.023,38.464c0,0.114,0.017,0.216,0.048,0.306c0.03,0.09,0.072,0.17,0.123,0.241
		c0.052,0.072,0.107,0.137,0.17,0.197c0.061,0.06,0.122,0.118,0.184,0.173c0.062,0.055,0.119,0.111,0.169,0.169
		c0.053,0.057,0.094,0.119,0.125,0.186s0.047,0.141,0.048,0.223c0,0.067-0.01,0.121-0.028,0.161s-0.045,0.069-0.08,0.087
		c-0.034,0.019-0.075,0.027-0.122,0.026c-0.047,0.001-0.087-0.008-0.122-0.026c-0.034-0.018-0.061-0.047-0.079-0.087
		s-0.028-0.094-0.028-0.161v-0.2h-0.419v0.172c0,0.152,0.024,0.279,0.074,0.385s0.124,0.187,0.222,0.242
		c0.099,0.055,0.22,0.082,0.365,0.083c0.145-0.001,0.267-0.028,0.364-0.083c0.099-0.056,0.172-0.137,0.222-0.242
		s0.074-0.232,0.074-0.385c0-0.114-0.017-0.217-0.047-0.306c-0.031-0.09-0.072-0.17-0.125-0.241
		c-0.051-0.071-0.106-0.137-0.169-0.196c-0.061-0.061-0.123-0.118-0.184-0.173c-0.062-0.056-0.119-0.111-0.17-0.17
		c-0.052-0.057-0.093-0.119-0.124-0.186c-0.03-0.066-0.047-0.141-0.048-0.224c0.001-0.1,0.02-0.17,0.059-0.214
		c0.038-0.043,0.092-0.064,0.164-0.063c0.07-0.001,0.125,0.021,0.163,0.063c0.038,0.044,0.058,0.114,0.058,0.214v0.117h0.419v-0.088
		c0-0.151-0.024-0.28-0.073-0.386c-0.048-0.105-0.122-0.185-0.219-0.24c-0.097-0.055-0.217-0.083-0.36-0.084
		c-0.144,0.001-0.264,0.029-0.36,0.084c-0.097,0.056-0.17,0.135-0.22,0.24C52.048,38.184,52.023,38.312,52.023,38.464L52.023,38.464
		z M54.58,38.189h0.463v2.418h0.443v-2.418h0.464v-0.403h-1.37V38.189L54.58,38.189z M58.095,37.786h-0.648l-0.452,2.821h0.408
		l0.076-0.512h0.544l0.077,0.512h0.447L58.095,37.786L58.095,37.786z M57.749,38.286l0.213,1.427h-0.427L57.749,38.286
		L57.749,38.286z M60.542,37.786h-0.668v2.821h0.697c0.222-0.001,0.39-0.058,0.502-0.171c0.114-0.114,0.17-0.279,0.17-0.498v-0.229
		c0.002-0.149-0.023-0.276-0.075-0.38s-0.137-0.178-0.255-0.225c0.099-0.046,0.171-0.116,0.217-0.21
		c0.047-0.095,0.07-0.213,0.069-0.358v-0.102c0.001-0.145-0.022-0.265-0.067-0.361c-0.047-0.096-0.117-0.168-0.215-0.215
		C60.82,37.811,60.694,37.786,60.542,37.786L60.542,37.786z M60.515,39.338c0.066-0.001,0.121,0.01,0.163,0.03
		c0.043,0.021,0.074,0.058,0.093,0.106c0.021,0.051,0.03,0.119,0.03,0.206v0.246c0,0.068-0.009,0.123-0.026,0.165
		c-0.018,0.041-0.043,0.069-0.078,0.087c-0.033,0.018-0.076,0.026-0.125,0.026h-0.254v-0.867H60.515L60.515,39.338z M60.53,38.189
		c0.078,0,0.136,0.022,0.173,0.069c0.036,0.048,0.054,0.121,0.053,0.221v0.157c0,0.074-0.011,0.134-0.032,0.177
		c-0.021,0.044-0.051,0.075-0.091,0.095c-0.04,0.019-0.088,0.027-0.143,0.027h-0.173v-0.746H60.53L60.53,38.189z M62.632,40.607
		h1.173v-0.402h-0.729v-2.419h-0.443V40.607L62.632,40.607z M65.12,40.607h0.442v-2.821H65.12V40.607L65.12,40.607z M66.951,38.464
		c0.001,0.114,0.017,0.216,0.048,0.306s0.072,0.17,0.124,0.241c0.051,0.072,0.107,0.137,0.169,0.197
		c0.061,0.06,0.123,0.118,0.184,0.173c0.062,0.055,0.119,0.111,0.17,0.169c0.052,0.057,0.092,0.119,0.124,0.186
		c0.031,0.066,0.047,0.141,0.048,0.223c0,0.067-0.01,0.121-0.028,0.161s-0.045,0.069-0.08,0.087
		c-0.033,0.019-0.075,0.027-0.122,0.026c-0.047,0.001-0.087-0.008-0.122-0.026c-0.034-0.018-0.061-0.047-0.079-0.087
		s-0.027-0.094-0.027-0.161v-0.2h-0.42v0.172c0,0.152,0.024,0.279,0.074,0.385c0.051,0.105,0.124,0.187,0.223,0.242
		c0.098,0.055,0.22,0.082,0.364,0.083c0.146-0.001,0.267-0.028,0.364-0.083c0.099-0.056,0.172-0.137,0.222-0.242
		s0.075-0.232,0.075-0.385c-0.001-0.114-0.017-0.217-0.048-0.306c-0.031-0.09-0.072-0.17-0.125-0.241
		c-0.05-0.071-0.107-0.137-0.169-0.196c-0.061-0.061-0.123-0.118-0.185-0.173c-0.062-0.056-0.117-0.111-0.168-0.17
		c-0.052-0.057-0.094-0.119-0.124-0.186c-0.031-0.066-0.048-0.141-0.048-0.224c0-0.1,0.02-0.17,0.058-0.214
		c0.038-0.043,0.093-0.064,0.163-0.063c0.071-0.001,0.126,0.021,0.164,0.063c0.038,0.044,0.058,0.114,0.058,0.214v0.117h0.42v-0.088
		c0-0.151-0.025-0.28-0.074-0.386c-0.048-0.105-0.122-0.185-0.219-0.24c-0.097-0.055-0.217-0.083-0.36-0.084
		c-0.144,0.001-0.264,0.029-0.36,0.084c-0.097,0.056-0.17,0.135-0.219,0.24S66.951,38.312,66.951,38.464L66.951,38.464z
		 M70.079,39.398h0.504v1.209h0.451v-2.821h-0.451v1.21h-0.504v-1.21h-0.443v2.821h0.443V39.398L70.079,39.398z M72.922,38.189
		h0.766v-0.403h-1.209v2.821h1.209v-0.402h-0.766v-0.827h0.608v-0.403h-0.608V38.189L72.922,38.189z M75.083,40.607h0.701
		c0.222-0.001,0.388-0.061,0.497-0.179c0.11-0.12,0.164-0.292,0.164-0.519v-1.426c0-0.228-0.054-0.399-0.164-0.519
		c-0.109-0.119-0.275-0.179-0.497-0.18h-0.701V40.607L75.083,40.607z M75.776,38.189c0.047,0,0.087,0.009,0.122,0.025
		c0.033,0.02,0.059,0.048,0.077,0.089c0.018,0.039,0.026,0.092,0.026,0.16v1.466c0,0.067-0.009,0.12-0.026,0.161
		c-0.019,0.04-0.044,0.069-0.077,0.087c-0.035,0.019-0.075,0.027-0.122,0.027h-0.25v-2.016H75.776L75.776,38.189z M58.501,43.291
		h0.342v2.152h0.443v-2.821h-0.299c-0.016,0.048-0.035,0.093-0.056,0.135c-0.021,0.044-0.05,0.081-0.085,0.113
		c-0.034,0.034-0.079,0.059-0.135,0.078c-0.056,0.019-0.126,0.028-0.211,0.028V43.291L58.501,43.291z M62.246,43.299
		c0-0.151-0.026-0.278-0.078-0.384s-0.127-0.186-0.227-0.242c-0.101-0.055-0.224-0.082-0.369-0.083
		c-0.145,0.001-0.268,0.028-0.367,0.083c-0.101,0.057-0.176,0.137-0.228,0.242s-0.078,0.232-0.078,0.384v0.517
		c0,0.208,0.041,0.367,0.124,0.478c0.082,0.111,0.205,0.166,0.368,0.167c0.099-0.001,0.183-0.022,0.251-0.064
		c0.068-0.044,0.122-0.104,0.16-0.186v0.516c0,0.089-0.01,0.159-0.029,0.21c-0.019,0.051-0.047,0.087-0.083,0.107
		s-0.081,0.03-0.134,0.029c-0.071,0.001-0.127-0.021-0.168-0.063c-0.04-0.044-0.062-0.114-0.062-0.214v-0.102h-0.419v0.073
		c0,0.15,0.024,0.278,0.074,0.384s0.124,0.186,0.222,0.242c0.098,0.055,0.221,0.082,0.365,0.083
		c0.229-0.001,0.399-0.063,0.511-0.189c0.11-0.124,0.166-0.306,0.166-0.544V43.299L62.246,43.299z M61.572,44.057
		c-0.07,0.001-0.126-0.02-0.167-0.063c-0.04-0.043-0.062-0.114-0.062-0.215v-0.507c0-0.067,0.009-0.121,0.027-0.161
		c0.02-0.04,0.045-0.068,0.08-0.087c0.034-0.019,0.074-0.027,0.121-0.026c0.048-0.001,0.089,0.008,0.122,0.026
		c0.035,0.019,0.062,0.047,0.08,0.087s0.028,0.094,0.028,0.161v0.507c-0.001,0.101-0.021,0.172-0.062,0.215
		C61.7,44.037,61.645,44.058,61.572,44.057L61.572,44.057z M64.964,43.299c0-0.151-0.026-0.278-0.078-0.384
		s-0.127-0.186-0.227-0.242c-0.101-0.055-0.224-0.082-0.369-0.083c-0.145,0.001-0.268,0.028-0.368,0.083
		c-0.1,0.057-0.175,0.137-0.227,0.242s-0.078,0.232-0.078,0.384v0.517c0,0.208,0.041,0.367,0.124,0.478
		c0.082,0.111,0.205,0.166,0.368,0.167c0.099-0.001,0.183-0.022,0.251-0.064c0.068-0.044,0.121-0.104,0.16-0.186v0.516
		c0,0.089-0.01,0.159-0.029,0.21c-0.019,0.051-0.047,0.087-0.083,0.107s-0.081,0.03-0.134,0.029
		c-0.071,0.001-0.127-0.021-0.168-0.063c-0.04-0.044-0.062-0.114-0.062-0.214v-0.102h-0.419v0.073c0,0.15,0.024,0.278,0.074,0.384
		s0.124,0.186,0.222,0.242c0.098,0.055,0.22,0.082,0.365,0.083c0.229-0.001,0.399-0.063,0.511-0.189
		c0.11-0.124,0.166-0.306,0.166-0.544V43.299L64.964,43.299z M64.29,44.057c-0.07,0.001-0.126-0.02-0.168-0.063
		c-0.039-0.043-0.061-0.114-0.062-0.215v-0.507c0-0.067,0.01-0.121,0.028-0.161c0.02-0.04,0.045-0.068,0.08-0.087
		c0.034-0.019,0.074-0.027,0.121-0.026c0.048-0.001,0.089,0.008,0.123,0.026s0.061,0.047,0.079,0.087s0.028,0.094,0.028,0.161v0.507
		c-0.001,0.101-0.021,0.172-0.062,0.215C64.418,44.037,64.362,44.058,64.29,44.057L64.29,44.057z M66.653,43.291h0.343v2.152h0.443
		v-2.821h-0.298c-0.017,0.048-0.036,0.093-0.058,0.135c-0.021,0.044-0.049,0.081-0.084,0.113c-0.034,0.034-0.079,0.059-0.136,0.078
		c-0.055,0.019-0.125,0.028-0.211,0.028V43.291z"/>
	<path fill-rule="evenodd" clip-rule="evenodd" fill="#FFFFFF" d="M58.735,17.196c-0.299,0-0.541,0.242-0.541,0.542
		c0,0.282,0.216,0.515,0.492,0.539l0.098,0.183l0.63,1.181c0.048,0.09,0.159,0.126,0.251,0.08c1.018-0.511,2.154-0.778,3.295-0.776
		c1.141-0.002,2.277,0.266,3.296,0.776c0.092,0.046,0.203,0.01,0.251-0.08l0.629-1.181l0.098-0.183
		c0.276-0.024,0.492-0.257,0.492-0.539c0-0.3-0.242-0.542-0.541-0.542s-0.542,0.242-0.542,0.542c0,0.106,0.031,0.205,0.084,0.289
		l-0.086,0.188c-0.157,0.332-0.558,0.466-0.911,0.341c-0.353-0.127-0.572-0.483-0.483-0.84l0.054-0.2
		c0.215-0.072,0.37-0.274,0.37-0.515c0-0.299-0.242-0.541-0.542-0.541c-0.298,0-0.541,0.242-0.541,0.541
		c0,0.152,0.062,0.289,0.162,0.387l-0.041,0.203c-0.076,0.359-0.437,0.582-0.809,0.54c-0.373-0.042-0.673-0.34-0.668-0.707
		l0.007-0.207c0.155-0.095,0.26-0.267,0.26-0.463c0-0.299-0.242-0.541-0.542-0.541c-0.299,0-0.541,0.242-0.541,0.541
		c0,0.196,0.104,0.369,0.26,0.464l0.007,0.206c0.006,0.367-0.288,0.665-0.661,0.707c-0.372,0.042-0.732-0.181-0.81-0.54l-0.04-0.202
		c0.101-0.099,0.162-0.235,0.162-0.387c0-0.3-0.242-0.542-0.541-0.542c-0.3,0-0.542,0.242-0.542,0.542
		c0,0.239,0.155,0.443,0.371,0.514l0.053,0.2c0.09,0.356-0.13,0.713-0.483,0.84c-0.354,0.125-0.754-0.009-0.911-0.341l-0.086-0.188
		c0.053-0.084,0.084-0.183,0.084-0.289C59.277,17.438,59.035,17.196,58.735,17.196L58.735,17.196z M59.841,20.03
		c0.965-0.481,2.04-0.731,3.119-0.73c1.082-0.001,2.155,0.249,3.12,0.73c0.047,0.022,0.078,0.061,0.095,0.111s0.012,0.1-0.014,0.146
		l-0.145,0.273c-0.049,0.092-0.159,0.127-0.251,0.081c-0.868-0.431-1.831-0.655-2.805-0.653c-0.975-0.002-1.938,0.223-2.807,0.653
		c-0.091,0.046-0.202,0.011-0.25-0.081l-0.146-0.273c-0.025-0.046-0.03-0.095-0.014-0.146S59.793,20.053,59.841,20.03z"/>
</g>
</svg>
