<?xml version="1.0" encoding="utf-8"?>
<!-- Generator: Adobe Illustrator 16.0.0, SVG Export Plug-In . SVG Version: 6.00 Build 0)  -->
<!DOCTYPE svg PUBLIC "-//W3C//DTD SVG 1.1//EN" "http://www.w3.org/Graphics/SVG/1.1/DTD/svg11.dtd">
<svg version="1.1" id="Layer_1" xmlns="http://www.w3.org/2000/svg" xmlns:xlink="http://www.w3.org/1999/xlink" x="0px" y="0px"
	 width="86.989px" height="105.83px" viewBox="0 0 86.989 105.83" enable-background="new 0 0 86.989 105.83" xml:space="preserve">
<g>
	<path fill-rule="evenodd" clip-rule="evenodd" fill="#373737" d="M13.434,34.576c10.466-1.777,20.767-5.088,30.061-16.412
		c9.294,11.324,19.596,14.635,30.061,16.412C72.388,45.667,68.28,56.46,61.783,65.515c-4.888,6.812-11.16,12.61-18.289,17.016
		c-7.129-4.405-13.4-10.204-18.289-17.016C18.709,56.46,14.602,45.667,13.434,34.576z"/>
	<path fill="#545454" d="M17.461,99.057c-0.342-0.28-0.649-0.599-0.952-0.917c-0.771-0.941-1.285-1.986-1.629-3.109
		c-0.086-0.271,0.021-0.561,0.272-0.616c0.031-0.037,0.062-0.039,0.095-0.042c3.681-0.303,7.338-0.918,10.919-1.825
		c0.217-0.056,0.447,0.063,0.54,0.292c0.531,1.014,1.188,1.813,1.954,2.428c0.551,0.465,1.184,0.819,1.853,1.13
		c3.823-1.149,7.542-2.629,11.113-4.405c-9.357-5.202-17.583-12.446-23.818-21.165C8.509,57.908,3.547,41.924,4.013,26.005
		c-0.969,1.03-2.153,1.854-3.612,2.378c-0.14,0.039-0.242,0.002-0.347-0.108c-0.071-0.111-0.071-0.26-0.002-0.371
		c2.333-3.711,4.105-7.301,5.376-10.99c0.055-0.133,0.168-0.187,0.305-0.165c0.138,0.022,0.266,0.113,0.245,0.25
		c0.106,3.875,1.348,7.666,3.682,10.914c0.071,0.098,0.071,0.229,0.002,0.326c-0.103,0.096-0.208,0.13-0.348,0.098
		c-1.466-0.448-2.649-1.226-3.562-2.283C5.295,41.586,10.144,57.202,19.22,69.81c6.312,8.826,14.714,16.104,24.274,21.217
		c9.561-5.112,17.964-12.391,24.274-21.217c9.077-12.607,13.925-28.224,13.468-43.757c-0.911,1.058-2.096,1.835-3.561,2.283
		c-0.14,0.032-0.244-0.002-0.348-0.098c-0.07-0.098-0.07-0.229,0.001-0.326c2.335-3.248,3.576-7.039,3.682-10.914
		c0.015-0.142,0.107-0.228,0.245-0.25c0.137-0.021,0.285,0.026,0.306,0.165c1.271,3.689,3.043,7.279,5.376,10.99
		c0.069,0.111,0.069,0.26-0.003,0.371c-0.103,0.11-0.207,0.147-0.347,0.108c-1.458-0.524-2.644-1.348-3.612-2.378
		c0.467,15.919-4.495,31.903-13.795,44.821c-6.235,8.719-14.46,15.963-23.818,21.165c3.571,1.776,7.291,3.256,11.114,4.405
		c0.668-0.311,1.301-0.665,1.852-1.13c0.766-0.614,1.432-1.446,1.955-2.429c0.093-0.228,0.322-0.347,0.54-0.291
		c3.581,0.907,7.237,1.522,10.919,1.825l0.097,0.008c0.248,0.09,0.356,0.38,0.272,0.616c-0.347,1.157-0.862,2.2-1.628,3.107
		c-0.307,0.354-0.612,0.673-0.955,0.953l1.3,0.128c0.479,0.041,0.859,0.459,0.824,0.944c-0.038,0.485-0.487,0.832-0.98,0.79
		l-1.332-0.133c0.283,0.346,0.529,0.721,0.78,1.096c0.613,1.072,1.001,2.183,1.212,3.355c0.053,0.284-0.116,0.55-0.419,0.558
		c-0.042,0.032-0.077,0.028-0.115,0.025c-4.318-0.354-8.604-1.074-12.804-2.139c-0.254-0.065-0.428-0.291-0.402-0.536
		c-0.01-1.15-0.227-2.182-0.598-3.119c-0.259-0.683-0.623-1.339-1.023-1.966c-4.307-1.294-8.485-2.997-12.477-5.066
		c-3.99,2.069-8.17,3.772-12.477,5.066c-0.399,0.627-0.764,1.283-1.022,1.966c-0.369,0.938-0.58,2.001-0.598,3.12
		c0.025,0.244-0.148,0.47-0.402,0.535c-4.199,1.064-8.485,1.785-12.805,2.139l-0.111,0.01c-0.306-0.043-0.476-0.309-0.419-0.559
		c0.208-1.207,0.595-2.316,1.211-3.355c0.249-0.409,0.495-0.784,0.778-1.13l-1.333,0.133c-0.492,0.042-0.942-0.305-0.979-0.79
		c-0.036-0.485,0.345-0.903,0.824-0.944L17.461,99.057z"/>
	<polygon fill="#FFFFFF" points="36.313,38.674 36.313,62.105 34.537,63.053 34.537,64.197 42.074,64.197 42.074,63.053 
		40.298,62.105 40.298,51.215 46.691,51.215 46.691,62.105 44.954,63.053 44.954,64.197 52.452,64.197 52.452,63.053 50.676,62.105 
		50.676,38.674 52.176,37.642 52.176,36.497 45.191,36.497 45.191,37.642 46.691,38.674 46.691,48.966 40.298,48.966 40.298,38.674 
		41.798,37.642 41.798,36.497 34.813,36.497 34.813,37.642 	"/>
	<path fill-rule="evenodd" clip-rule="evenodd" fill="#545454" d="M73.95,16.73L73.95,16.73c-0.026,0.04-0.086,0.086-0.149,0.1
		c-0.866,0.039-1.703,0.109-2.548,0.191c-0.229,0.838-0.443,1.669-0.694,2.498c-0.021,0.071-0.078,0.12-0.14,0.138
		c-0.03,0.007-0.067-0.015-0.085-0.026c-0.017-0.011-0.054-0.035-0.059-0.066c-0.256-0.791-0.524-1.562-0.842-2.329
		c-0.823,0.1-1.627,0.25-2.44,0.413c-0.05,0-0.104-0.03-0.15-0.082c-0.016-0.062-0.001-0.137,0.051-0.188
		c0.597-0.626,1.213-1.214,1.831-1.829c-0.318-0.776-0.697-1.533-1.084-2.316c-0.02-0.062-0.009-0.138,0.033-0.17
		c0.053-0.053,0.115-0.075,0.177-0.043c0.772,0.385,1.512,0.78,2.265,1.199l1.932-1.751c0.057-0.05,0.124-0.066,0.187-0.03
		c0.064,0.037,0.083,0.103,0.067,0.176c-0.169,0.866-0.375,1.722-0.577,2.547c0.739,0.443,1.464,0.91,2.159,1.38
		C73.941,16.58,73.972,16.658,73.95,16.73L73.95,16.73z M63.138,10.3c-0.003,0.074-0.059,0.156-0.142,0.174
		c-0.959,0.277-1.916,0.563-2.837,0.893l-0.091,3.013c-0.002,0.075-0.055,0.158-0.122,0.159c-0.028,0.016-0.076,0.022-0.098,0.017
		c-0.04-0.014-0.072-0.05-0.083-0.08c-0.496-0.797-1.039-1.597-1.594-2.382c-0.913,0.358-1.78,0.734-2.629,1.144
		c-0.074,0.031-0.157,0.011-0.186-0.046c-0.059-0.039-0.056-0.137-0.019-0.202c0.494-0.859,1.008-1.737,1.556-2.584
		c-0.618-0.775-1.246-1.536-1.926-2.291c-0.035-0.056-0.061-0.16-0.023-0.225c0.037-0.065,0.117-0.097,0.209-0.076
		c0.969,0.21,1.957,0.446,2.912,0.709c0.546-0.838,1.139-1.688,1.715-2.517c0.044-0.062,0.137-0.109,0.207-0.087
		c0.072,0.021,0.122,0.111,0.127,0.188c0.036,1.008,0.051,2.033,0.059,3.032c0.967,0.308,1.904,0.632,2.853,0.988
		C63.094,10.153,63.143,10.224,63.138,10.3L63.138,10.3z M49.973,4.967L49.973,4.967c0.01,0.122-0.026,0.237-0.132,0.298
		c-1.319,0.722-2.587,1.494-3.803,2.306c0.384,1.426,0.731,2.879,1.046,4.313c0.033,0.121-0.017,0.237-0.105,0.278
		c-0.046,0.046-0.09,0.067-0.133,0.064c-0.064-0.005-0.104-0.03-0.145-0.081c-1.014-0.948-2.088-1.844-3.218-2.729
		c-1.127,0.885-2.2,1.78-3.215,2.729c-0.08,0.076-0.185,0.083-0.276,0.018c-0.087-0.043-0.14-0.158-0.104-0.28
		c0.312-1.434,0.659-2.887,1.042-4.312c-1.214-0.811-2.483-1.584-3.804-2.305c-0.08-0.063-0.142-0.177-0.132-0.297
		c0.039-0.101,0.126-0.207,0.248-0.221c1.521-0.152,3.047-0.255,4.575-0.29c0.433-1.428,0.9-2.843,1.403-4.266
		C43.247,0.073,43.354,0,43.483,0c0.132,0,0.238,0.073,0.289,0.193c0.493,1.423,0.953,2.838,1.378,4.266
		c1.527,0.035,3.054,0.138,4.576,0.287C49.848,4.761,49.936,4.867,49.973,4.967L49.973,4.967z M13.041,16.733L13.041,16.733
		c0.008,0.053,0.067,0.099,0.132,0.111c0.866,0.04,1.72,0.099,2.548,0.191c0.229,0.84,0.443,1.671,0.693,2.499
		c0.021,0.071,0.078,0.119,0.14,0.138c0.048-0.003,0.066-0.016,0.084-0.026c0.037-0.023,0.055-0.035,0.059-0.066
		c0.259-0.792,0.527-1.561,0.843-2.329c0.824,0.1,1.629,0.249,2.443,0.411c0.048,0,0.104-0.03,0.149-0.081
		c0.015-0.063,0-0.136-0.05-0.188c-0.599-0.626-1.215-1.215-1.832-1.829c0.339-0.787,0.695-1.534,1.083-2.315
		c0.019-0.064,0.008-0.139-0.013-0.183c-0.053-0.052-0.137-0.063-0.198-0.031c-0.751,0.374-1.511,0.78-2.264,1.199
		c-0.619-0.579-1.261-1.174-1.932-1.751c-0.058-0.05-0.125-0.065-0.188-0.03c-0.063,0.037-0.081,0.103-0.066,0.177l0.576,2.547
		c-0.738,0.443-1.443,0.897-2.157,1.381C13.033,16.595,13.021,16.66,13.041,16.733L13.041,16.733z M23.832,10.311L23.832,10.311
		c0.004,0.075,0.062,0.156,0.145,0.176c0.958,0.275,1.917,0.561,2.837,0.89l0.093,3.013c0.002,0.075,0.075,0.151,0.123,0.158
		c0.049,0.009,0.075,0.023,0.116,0.01c0.021-0.006,0.053-0.043,0.064-0.071c0.515-0.806,1.037-1.599,1.592-2.384
		c0.912,0.356,1.78,0.732,2.65,1.136c0.053,0.036,0.137,0.016,0.166-0.042c0.057-0.039,0.056-0.136,0.019-0.2
		c-0.494-0.859-1.012-1.737-1.559-2.584c0.618-0.775,1.244-1.537,1.923-2.292c0.059-0.061,0.062-0.16,0.024-0.225
		c-0.038-0.064-0.117-0.097-0.188-0.081c-0.991,0.216-1.978,0.451-2.934,0.717c-0.547-0.838-1.117-1.697-1.694-2.523
		c-0.042-0.062-0.134-0.108-0.23-0.079c-0.071,0.021-0.123,0.111-0.126,0.188c-0.036,1.008-0.05,2.034-0.055,3.031
		c-0.968,0.311-1.905,0.635-2.854,0.992C23.878,10.166,23.83,10.235,23.832,10.311z"/>
</g>
</svg>
