<?xml version="1.0" encoding="utf-8"?>
<!-- Generator: Adobe Illustrator 16.0.0, SVG Export Plug-In . SVG Version: 6.00 Build 0)  -->
<!DOCTYPE svg PUBLIC "-//W3C//DTD SVG 1.1//EN" "http://www.w3.org/Graphics/SVG/1.1/DTD/svg11.dtd">
<svg version="1.1" id="Layer_1" xmlns="http://www.w3.org/2000/svg" xmlns:xlink="http://www.w3.org/1999/xlink" x="0px" y="0px"
	 width="127.254px" height="72.675px" viewBox="0 0 127.254 72.675" enable-background="new 0 0 127.254 72.675"
	 xml:space="preserve">
<g>
	<path fill-rule="evenodd" clip-rule="evenodd" fill="#363837" d="M120.91,23.507c0,1.28,1.044,2.325,2.323,2.325v2.134l4.021,7.065
		l-4.021,7.054v2.134c-1.279,0-2.323,1.045-2.323,2.325H6.332c0-1.28-1.044-2.325-2.312-2.325v-2.134L0,35.031l4.019-7.065v-2.134
		c1.269,0,2.312-1.045,2.312-2.325H120.91z"/>
	<path fill="#FFFFFF" d="M119.42,25.479H7.822c-0.203,0.392-0.466,0.751-0.775,1.061c-0.309,0.312-0.666,0.574-1.057,0.779v1.123
		v0.044l-0.024,0.043L2.267,35.03l3.699,6.492l0.024,0.041v0.047v1.122c0.392,0.205,0.748,0.47,1.057,0.779
		c0.309,0.311,0.572,0.669,0.775,1.061H119.42c0.204-0.395,0.468-0.754,0.778-1.064h0.001c0.312-0.311,0.671-0.575,1.064-0.78V41.61
		v-0.047l0.023-0.041l3.699-6.492l-3.699-6.502l-0.023-0.043v-0.044v-1.119c-0.394-0.204-0.753-0.469-1.064-0.78l0,0
		C119.888,26.232,119.624,25.873,119.42,25.479L119.42,25.479z M7.712,25.119h111.817h0.112l0.049,0.103
		c0.192,0.397,0.452,0.758,0.763,1.067l0,0c0.31,0.311,0.671,0.569,1.067,0.762l0.102,0.05v0.113v1.18l3.725,6.549l0.05,0.088
		l-0.05,0.088l-3.725,6.539v1.182v0.111L121.521,43c-0.396,0.193-0.759,0.452-1.068,0.761l0,0c-0.31,0.311-0.569,0.673-0.763,1.068
		l-0.048,0.104h-0.112H7.712H7.601l-0.049-0.104c-0.192-0.396-0.449-0.757-0.758-1.066c-0.308-0.308-0.666-0.566-1.062-0.76
		l-0.1-0.05v-0.111v-1.185l-3.725-6.539L1.855,35.03l0.051-0.088l3.725-6.549v-1.186v-0.11l0.1-0.048
		c0.396-0.194,0.754-0.453,1.062-0.762c0.308-0.311,0.565-0.671,0.758-1.066l0.049-0.103H7.712z"/>
	<path fill-rule="evenodd" clip-rule="evenodd" fill="#FFFFFF" d="M119.808,34.204c-0.446,0-0.816,0.37-0.816,0.827
		c0,0.446,0.37,0.817,0.816,0.817c0.457,0,0.827-0.371,0.827-0.817C120.635,34.574,120.265,34.204,119.808,34.204L119.808,34.204z
		 M7.434,34.204L7.434,34.204c-0.444,0-0.815,0.37-0.815,0.827c0,0.446,0.371,0.817,0.815,0.817c0.458,0,0.828-0.371,0.828-0.817
		C8.262,34.574,7.892,34.204,7.434,34.204z"/>
	<path fill="#8C8C8C" d="M63.981,0.608c-2.685,0-5.117,1.088-6.876,2.848c-1.761,1.76-2.849,4.191-2.849,6.875
		c0,2.687,1.088,5.118,2.849,6.878c1.759,1.76,4.191,2.848,6.876,2.848c2.685,0,5.117-1.088,6.876-2.848
		c1.76-1.76,2.848-4.191,2.848-6.878c0-2.684-1.088-5.115-2.848-6.875C69.099,1.696,66.666,0.608,63.981,0.608L63.981,0.608z
		 M56.676,3.026C58.545,1.157,61.128,0,63.981,0c2.853,0,5.436,1.157,7.305,3.026c1.87,1.871,3.027,4.453,3.027,7.305
		c0,2.854-1.157,5.437-3.027,7.306c-1.869,1.871-4.452,3.026-7.305,3.026c-2.853,0-5.437-1.155-7.306-3.026
		c-1.87-1.869-3.026-4.452-3.026-7.306C53.649,7.479,54.806,4.897,56.676,3.026z"/>
	<path fill="#8C8C8C" d="M11.617,17.748c-0.168-0.146-0.387-0.23-0.628-0.23c-0.71,0-1.284,0.574-1.284,1.282
		c0,0.465,0.188,0.887,0.493,1.189c0.303,0.305,0.724,0.493,1.188,0.493h105.19c0.464,0,0.885-0.188,1.188-0.493
		c0.304-0.303,0.492-0.725,0.492-1.189c0-0.708-0.574-1.282-1.284-1.282c-0.24,0-0.459,0.085-0.628,0.23
		c0.067,0.021,0.133,0.055,0.192,0.101c0.318,0.234,0.387,0.683,0.152,1.002c-0.235,0.318-0.684,0.387-1.002,0.151
		c-0.096-0.071-0.17-0.162-0.219-0.263c-0.135-0.274-0.053-0.628,0.067-0.896c0.164-0.367,0.466-0.663,0.846-0.818
		c0.183-0.073,0.382-0.115,0.591-0.115c1.043,0,1.891,0.848,1.891,1.891c0,0.632-0.256,1.205-0.67,1.618
		c-0.413,0.413-0.985,0.67-1.617,0.67H11.386c-0.631,0-1.203-0.257-1.617-0.67S9.098,19.432,9.098,18.8
		c0-1.043,0.847-1.891,1.891-1.891c0.208,0,0.409,0.042,0.591,0.115c0.379,0.155,0.682,0.451,0.846,0.818
		c0.12,0.269,0.202,0.622,0.068,0.896c-0.049,0.101-0.123,0.191-0.219,0.263c-0.319,0.235-0.768,0.167-1.002-0.151
		c-0.235-0.319-0.039-0.863,0.151-1.002C11.614,17.709,11.55,17.77,11.617,17.748z"/>
	<path fill="#8C8C8C" d="M36.748,18.669c1.125-0.16,1.791-1.282,1.638-2.36c-0.193-1.365-1.556-2.167-2.866-1.983
		c-1.748,0.247-2.859,2.213-2.38,3.861c0.085,0.294,0.215,0.571,0.381,0.827c-0.364-0.258-0.692-0.541-1.019-0.823
		c-0.339-0.292-0.677-0.585-1.056-0.854c-0.429-0.306-0.912-0.583-1.426-0.753c-0.531-0.179-1.093-0.244-1.663-0.114
		c-0.414,0.095-0.78,0.278-1.107,0.55c-0.116,0.098-0.222,0.203-0.315,0.317c-0.294,0.358-0.475,0.795-0.497,1.246
		c-0.02,0.456,0.12,0.925,0.466,1.341c0.095,0.114,0.205,0.224,0.331,0.327c0.375,0.309,0.839,0.437,1.285,0.394
		c0.449-0.044,0.88-0.257,1.188-0.633c0.208-0.251,0.317-0.551,0.333-0.854c0.027-0.511-0.233-1.211-0.837-1.211
		c-0.396,0-0.717,0.32-0.717,0.716s0.321,0.718,0.717,0.718c0.065,0,0.128-0.009,0.189-0.026c-0.032,0.098-0.083,0.19-0.152,0.273
		c-0.202,0.245-0.484,0.386-0.777,0.414c-0.294,0.028-0.599-0.056-0.845-0.257c-0.096-0.08-0.18-0.162-0.25-0.247
		c-0.243-0.292-0.34-0.615-0.326-0.93c0.015-0.316,0.145-0.628,0.358-0.889c0.07-0.084,0.149-0.163,0.236-0.234
		c0.247-0.205,0.54-0.354,0.853-0.426c0.451-0.103,0.905-0.048,1.338,0.097c0.449,0.15,0.88,0.4,1.267,0.674
		c0.356,0.253,0.684,0.536,1.01,0.818c0.412,0.354,0.828,0.707,1.306,1.018c0.621,0.406,1.3,0.703,2.023,0.866
		c0.531,0.118,1.052,0.155,1.528,0.108c2.322-0.23,4.329-2.646,5.766-4.375c0.135-0.163,0.27-0.323,0.369-0.442
		c0.6-0.714,1.203-1.417,1.838-2.04c0.622-0.608,1.271-1.137,1.973-1.511c1.275-0.68,2.59-0.812,3.761-0.562
		c1.292,0.276,2.408,1.023,3.094,2.022c0.807,1.172,0.882,2.472,0.5,3.588c-0.217,0.635-0.582,1.21-1.044,1.671
		c-0.459,0.46-1.017,0.806-1.618,0.984c-0.935,0.277-1.993,0.148-2.985-0.599c-0.603-0.453-0.965-1.109-1.063-1.804
		c-0.098-0.693,0.068-1.425,0.523-2.029c0.352-0.469,0.863-0.75,1.402-0.826c0.261-0.036,0.529-0.025,0.79,0.036
		c-0.156,0.163-0.253,0.383-0.253,0.626c0,0.494,0.401,0.896,0.896,0.896c0.495,0,0.896-0.401,0.896-0.896
		c0-1.104-1.567-1.382-2.411-1.262c-0.692,0.099-1.349,0.46-1.803,1.064c-0.555,0.736-0.758,1.629-0.639,2.474
		c0.12,0.848,0.562,1.648,1.301,2.203c1.163,0.876,2.409,1.026,3.518,0.697c0.702-0.207,1.345-0.607,1.875-1.136
		c0.527-0.528,0.943-1.185,1.19-1.904c0.441-1.285,0.354-2.778-0.576-4.129c-0.771-1.123-2.021-1.961-3.466-2.271
		c-1.3-0.279-2.759-0.132-4.172,0.62c-0.76,0.406-1.453,0.968-2.112,1.613c-0.646,0.634-1.263,1.353-1.877,2.083
		c-0.137,0.162-0.25,0.3-0.371,0.444c-1.344,1.618-3.22,3.877-5.288,4.139c-0.804,0.101-1.619-0.123-2.268-0.611
		c-0.475-0.357-0.83-0.842-0.988-1.388c-0.377-1.295,0.5-2.897,1.883-3.094c0.976-0.137,2.037,0.435,2.183,1.466
		c0.107,0.763-0.338,1.576-1.147,1.683c0.092-0.143,0.146-0.311,0.146-0.49c0-0.496-0.401-0.896-0.896-0.896
		c-0.495,0-0.896,0.4-0.896,0.896C34.993,18.407,36.064,18.765,36.748,18.669L36.748,18.669z M91.214,18.669
		c-1.125-0.16-1.79-1.282-1.637-2.36c0.192-1.365,1.556-2.167,2.865-1.983c1.747,0.247,2.86,2.213,2.38,3.861
		c-0.085,0.294-0.214,0.571-0.381,0.827c0.364-0.258,0.691-0.541,1.02-0.823c0.338-0.292,0.678-0.585,1.057-0.854
		c0.429-0.306,0.912-0.583,1.426-0.753c0.53-0.179,1.093-0.244,1.662-0.114c0.414,0.095,0.781,0.278,1.106,0.55
		c0.116,0.098,0.222,0.203,0.316,0.317c0.294,0.358,0.475,0.795,0.495,1.246c0.021,0.456-0.119,0.925-0.465,1.341
		c-0.095,0.114-0.205,0.224-0.331,0.327c-0.375,0.309-0.839,0.437-1.286,0.394c-0.448-0.044-0.88-0.257-1.188-0.633
		c-0.208-0.251-0.316-0.551-0.334-0.854c-0.026-0.511,0.234-1.211,0.838-1.211c0.396,0,0.717,0.32,0.717,0.716
		s-0.32,0.718-0.717,0.718c-0.065,0-0.129-0.009-0.189-0.026c0.033,0.098,0.083,0.19,0.152,0.273
		c0.202,0.245,0.484,0.386,0.777,0.414c0.294,0.028,0.599-0.056,0.845-0.257c0.096-0.08,0.18-0.162,0.251-0.247
		c0.242-0.292,0.34-0.615,0.326-0.93c-0.015-0.316-0.146-0.628-0.359-0.889c-0.069-0.084-0.149-0.163-0.234-0.234
		c-0.247-0.205-0.541-0.354-0.854-0.426c-0.451-0.103-0.905-0.048-1.338,0.097c-0.45,0.15-0.881,0.4-1.267,0.674
		c-0.356,0.253-0.685,0.536-1.012,0.818c-0.412,0.354-0.827,0.707-1.305,1.018c-0.621,0.406-1.3,0.703-2.023,0.866
		c-0.532,0.118-1.053,0.155-1.528,0.108c-2.323-0.23-4.329-2.646-5.767-4.375c-0.135-0.163-0.269-0.323-0.368-0.442
		c-0.601-0.714-1.204-1.417-1.839-2.04c-0.622-0.608-1.271-1.137-1.973-1.511c-1.275-0.68-2.591-0.812-3.761-0.562
		c-1.293,0.276-2.407,1.023-3.095,2.022c-0.807,1.172-0.882,2.472-0.499,3.588c0.218,0.635,0.581,1.21,1.044,1.671
		c0.46,0.46,1.016,0.806,1.618,0.984c0.936,0.277,1.993,0.148,2.985-0.599c0.603-0.453,0.965-1.109,1.062-1.804
		c0.098-0.693-0.069-1.425-0.523-2.029c-0.353-0.469-0.862-0.75-1.401-0.826c-0.261-0.036-0.53-0.025-0.791,0.036
		c0.157,0.163,0.254,0.383,0.254,0.626c0,0.494-0.4,0.896-0.896,0.896c-0.494,0-0.896-0.401-0.896-0.896
		c0-1.104,1.567-1.382,2.411-1.262c0.692,0.099,1.349,0.46,1.803,1.064c0.555,0.736,0.759,1.629,0.639,2.474
		c-0.12,0.848-0.562,1.648-1.3,2.203c-1.162,0.876-2.41,1.026-3.519,0.697c-0.701-0.207-1.346-0.607-1.874-1.136
		c-0.527-0.528-0.944-1.185-1.191-1.904c-0.44-1.285-0.353-2.778,0.575-4.129c0.772-1.123,2.022-1.961,3.468-2.271
		c1.298-0.279,2.758-0.132,4.17,0.62c0.761,0.406,1.453,0.968,2.113,1.613c0.646,0.634,1.262,1.353,1.877,2.083
		c0.137,0.162,0.25,0.3,0.37,0.444c1.343,1.618,3.221,3.877,5.289,4.139c0.803,0.101,1.618-0.123,2.267-0.611
		c0.475-0.357,0.829-0.842,0.987-1.388c0.377-1.295-0.501-2.897-1.882-3.094c-0.977-0.137-2.038,0.435-2.183,1.466
		c-0.108,0.763,0.337,1.576,1.146,1.683c-0.092-0.143-0.146-0.311-0.146-0.49c0-0.496,0.401-0.896,0.896-0.896
		c0.495,0,0.897,0.4,0.897,0.896C92.971,18.407,91.898,18.765,91.214,18.669z"/>
	<rect x="8.094" y="21.771" fill-rule="evenodd" clip-rule="evenodd" fill="#8C8C8C" width="111.774" height="0.605"/>
	<path fill-rule="evenodd" clip-rule="evenodd" fill="#8C8C8C" d="M8.248,47.657h111.773v0.606H8.248V47.657L8.248,47.657z
		 M8.248,58.047h111.773v0.608H8.248V58.047z"/>
	<path fill="#8C8C8C" d="M11.77,62.844c-0.168,0.143-0.387,0.23-0.628,0.23c-0.71,0-1.284-0.574-1.284-1.285
		c0-0.463,0.189-0.883,0.493-1.188c0.304-0.304,0.725-0.492,1.188-0.492h105.189c0.466,0,0.885,0.188,1.189,0.492
		c0.303,0.305,0.492,0.725,0.492,1.188c0,0.711-0.574,1.285-1.283,1.285c-0.241,0-0.461-0.088-0.629-0.23
		c0.067-0.024,0.133-0.058,0.193-0.102c0.318-0.235,0.387-0.684,0.15-1.002c-0.234-0.318-0.684-0.386-1.001-0.152
		c-0.097,0.071-0.171,0.163-0.22,0.263c-0.134,0.274-0.052,0.629,0.067,0.896c0.165,0.367,0.467,0.664,0.846,0.818
		c0.183,0.074,0.382,0.115,0.593,0.115c1.042,0,1.89-0.847,1.89-1.892c0-0.631-0.256-1.203-0.671-1.617
		c-0.413-0.413-0.985-0.669-1.617-0.669H11.539c-0.631,0-1.204,0.256-1.617,0.669c-0.414,0.414-0.67,0.986-0.67,1.617
		c0,1.045,0.848,1.892,1.891,1.892c0.209,0,0.41-0.041,0.592-0.115c0.38-0.154,0.682-0.451,0.846-0.818
		c0.12-0.268,0.201-0.622,0.067-0.896c-0.048-0.1-0.122-0.191-0.219-0.263c-0.319-0.233-0.767-0.166-1.002,0.152
		c-0.234,0.318-0.038,0.862,0.152,1.002C11.767,62.881,11.703,62.819,11.77,62.844z"/>
	<path fill="#8C8C8C" d="M82.39,61.977c-1.125,0.16-1.79,1.28-1.637,2.36c0.192,1.365,1.556,2.167,2.864,1.983
		c1.748-0.247,2.861-2.213,2.381-3.861c-0.084-0.294-0.214-0.571-0.381-0.827c0.364,0.258,0.691,0.54,1.019,0.823
		c0.339,0.292,0.679,0.584,1.058,0.854c0.428,0.304,0.912,0.581,1.426,0.754c0.53,0.178,1.094,0.242,1.662,0.113
		c0.414-0.095,0.781-0.279,1.107-0.551c0.115-0.097,0.222-0.203,0.315-0.316c0.294-0.359,0.475-0.794,0.495-1.245
		c0.021-0.458-0.119-0.926-0.465-1.342c-0.095-0.114-0.206-0.224-0.331-0.327c-0.375-0.309-0.839-0.438-1.286-0.394
		c-0.448,0.044-0.88,0.259-1.188,0.633c-0.208,0.251-0.316,0.551-0.333,0.854c-0.027,0.512,0.233,1.211,0.837,1.211
		c0.396,0,0.718-0.32,0.718-0.716s-0.321-0.718-0.718-0.718c-0.065,0-0.13,0.009-0.189,0.027c0.032-0.099,0.083-0.19,0.152-0.274
		c0.202-0.244,0.484-0.386,0.777-0.414c0.294-0.028,0.6,0.056,0.845,0.257c0.096,0.08,0.18,0.162,0.251,0.247
		c0.242,0.29,0.34,0.615,0.326,0.929c-0.015,0.317-0.145,0.629-0.359,0.888c-0.069,0.086-0.149,0.164-0.234,0.237
		c-0.246,0.204-0.54,0.353-0.854,0.425c-0.451,0.103-0.905,0.048-1.338-0.097c-0.45-0.152-0.881-0.401-1.267-0.674
		c-0.356-0.255-0.685-0.536-1.012-0.817c-0.411-0.357-0.827-0.709-1.305-1.021c-0.622-0.404-1.3-0.701-2.023-0.864
		c-0.532-0.12-1.053-0.156-1.528-0.109c-2.322,0.23-4.329,2.646-5.767,4.377c-0.135,0.162-0.27,0.323-0.368,0.44
		c-0.601,0.715-1.203,1.418-1.839,2.041c-0.621,0.608-1.271,1.137-1.972,1.511c-1.275,0.68-2.592,0.812-3.762,0.561
		c-1.292-0.275-2.408-1.024-3.094-2.021c-0.807-1.172-0.883-2.472-0.5-3.588c0.218-0.635,0.582-1.21,1.045-1.672
		c0.459-0.459,1.015-0.807,1.617-0.984c0.937-0.276,1.993-0.146,2.985,0.6c0.603,0.453,0.965,1.109,1.062,1.804
		c0.098,0.692-0.069,1.425-0.522,2.028c-0.354,0.469-0.863,0.751-1.402,0.826c-0.262,0.037-0.53,0.026-0.79-0.035
		c0.156-0.163,0.253-0.382,0.253-0.626c0-0.493-0.4-0.896-0.896-0.896s-0.895,0.403-0.895,0.896c0,1.104,1.566,1.38,2.41,1.262
		c0.692-0.099,1.349-0.461,1.803-1.064c0.556-0.736,0.759-1.629,0.64-2.474c-0.12-0.848-0.563-1.649-1.301-2.204
		c-1.162-0.875-2.409-1.025-3.519-0.697c-0.701,0.208-1.345,0.608-1.875,1.138c-0.526,0.527-0.943,1.182-1.19,1.903
		c-0.069,0.2-0.125,0.406-0.167,0.617c-0.042-0.211-0.098-0.417-0.167-0.617c-0.247-0.722-0.663-1.376-1.19-1.903
		c-0.529-0.529-1.174-0.93-1.875-1.138c-1.109-0.328-2.355-0.178-3.519,0.697c-0.737,0.555-1.18,1.356-1.3,2.204
		c-0.119,0.845,0.084,1.737,0.639,2.474c0.455,0.604,1.11,0.966,1.803,1.064c0.845,0.118,2.412-0.157,2.412-1.262
		c0-0.493-0.401-0.896-0.896-0.896c-0.495,0-0.896,0.403-0.896,0.896c0,0.244,0.097,0.463,0.254,0.626
		c-0.261,0.062-0.529,0.072-0.791,0.035c-0.54-0.075-1.049-0.357-1.402-0.826c-0.454-0.604-0.621-1.336-0.523-2.028
		c0.098-0.694,0.461-1.351,1.063-1.804c0.992-0.746,2.049-0.876,2.985-0.6c0.602,0.178,1.159,0.525,1.618,0.984
		c0.462,0.462,0.827,1.037,1.043,1.672c0.384,1.116,0.308,2.416-0.499,3.588c-0.687,0.997-1.802,1.746-3.094,2.021
		c-1.17,0.252-2.486,0.119-3.761-0.561c-0.701-0.374-1.351-0.902-1.973-1.511c-0.635-0.623-1.238-1.326-1.839-2.041
		c-0.099-0.117-0.233-0.278-0.368-0.44c-1.438-1.73-3.443-4.146-5.766-4.377c-0.477-0.047-0.997-0.011-1.529,0.109
		c-0.723,0.163-1.402,0.46-2.023,0.864c-0.478,0.312-0.893,0.663-1.305,1.021c-0.327,0.281-0.655,0.562-1.012,0.817
		c-0.386,0.272-0.816,0.521-1.266,0.674c-0.433,0.145-0.887,0.199-1.337,0.097c-0.313-0.072-0.607-0.221-0.854-0.425
		c-0.086-0.073-0.165-0.151-0.235-0.237c-0.213-0.259-0.344-0.57-0.358-0.888c-0.015-0.313,0.083-0.639,0.326-0.929
		c0.07-0.085,0.154-0.167,0.25-0.247c0.247-0.201,0.551-0.285,0.845-0.257c0.293,0.028,0.577,0.17,0.778,0.414
		c0.069,0.084,0.12,0.176,0.152,0.274c-0.061-0.019-0.125-0.027-0.19-0.027c-0.396,0-0.717,0.322-0.717,0.718
		s0.321,0.716,0.717,0.716c0.603,0,0.864-0.699,0.837-1.211c-0.017-0.303-0.125-0.603-0.333-0.854
		c-0.308-0.374-0.739-0.589-1.188-0.633c-0.447-0.044-0.912,0.085-1.285,0.394c-0.126,0.104-0.236,0.213-0.332,0.327
		c-0.347,0.416-0.487,0.884-0.466,1.342c0.021,0.451,0.201,0.886,0.496,1.245c0.094,0.113,0.2,0.22,0.316,0.316
		c0.327,0.271,0.693,0.456,1.107,0.551c0.57,0.129,1.132,0.064,1.663-0.113c0.514-0.173,0.996-0.45,1.425-0.754
		c0.379-0.27,0.718-0.562,1.057-0.854c0.327-0.283,0.655-0.565,1.02-0.823c-0.167,0.256-0.296,0.533-0.382,0.827
		c-0.479,1.648,0.633,3.614,2.381,3.861c1.309,0.184,2.673-0.618,2.865-1.983c0.153-1.08-0.512-2.2-1.637-2.36
		c-0.684-0.096-1.755,0.262-1.755,1.086c0,0.496,0.401,0.896,0.896,0.896c0.495,0,0.896-0.399,0.896-0.896
		c0-0.18-0.054-0.348-0.146-0.49c0.81,0.105,1.255,0.92,1.147,1.683c-0.146,1.032-1.207,1.603-2.182,1.464
		c-1.382-0.194-2.26-1.799-1.883-3.092c0.159-0.546,0.512-1.03,0.987-1.388c0.649-0.488,1.465-0.712,2.268-0.611
		c2.067,0.262,3.944,2.521,5.288,4.138c0.121,0.146,0.234,0.283,0.372,0.444c0.614,0.731,1.23,1.45,1.876,2.083
		c0.659,0.646,1.353,1.209,2.113,1.613c1.413,0.752,2.872,0.9,4.171,0.621c1.445-0.31,2.694-1.148,3.466-2.272
		c0.385-0.559,0.624-1.14,0.743-1.723c0.119,0.583,0.358,1.164,0.743,1.723c0.771,1.124,2.021,1.963,3.466,2.272
		c1.3,0.279,2.759,0.131,4.171-0.621c0.761-0.404,1.455-0.967,2.113-1.613c0.646-0.633,1.262-1.352,1.877-2.083
		c0.137-0.161,0.25-0.299,0.371-0.444c1.344-1.617,3.22-3.876,5.288-4.138c0.802-0.101,1.618,0.123,2.267,0.611
		c0.476,0.357,0.829,0.842,0.987,1.388c0.378,1.293-0.501,2.897-1.883,3.092c-0.975,0.139-2.036-0.432-2.183-1.464
		c-0.107-0.763,0.338-1.577,1.147-1.683c-0.091,0.143-0.145,0.311-0.145,0.49c0,0.496,0.4,0.896,0.896,0.896
		c0.494,0,0.896-0.399,0.896-0.896C84.146,62.238,83.074,61.881,82.39,61.977L82.39,61.977z M66.406,70.574
		c-0.391,0.095-0.761,0.126-1.077,0.102c-0.321,1.059-0.59,1.323-0.996,1.892c-0.051,0.07-0.119,0.107-0.199,0.107
		s-0.148-0.037-0.199-0.107c-0.406-0.568-0.675-0.833-0.997-1.892c-0.316,0.024-0.686-0.007-1.077-0.102
		c-0.111-0.028-0.191-0.13-0.201-0.259c-0.01-0.127,0.053-0.243,0.159-0.293c0.795-0.365,1.526-0.904,2.133-1.59
		c0.099-0.112,0.261-0.112,0.361,0c0.607,0.686,1.337,1.225,2.134,1.59c0.104,0.05,0.167,0.166,0.158,0.293
		C66.597,70.444,66.519,70.546,66.406,70.574z"/>
	<path fill-rule="evenodd" clip-rule="evenodd" fill="#363837" d="M105.174,51.007h14.847l-1.186,2.149l1.186,2.149h-14.847
		l-1.185-2.149L105.174,51.007L105.174,51.007z M23.095,51.007H8.248l1.185,2.149l-1.185,2.149h14.847l1.185-2.149L23.095,51.007z"
		/>
	<path fill="#FFFFFF" d="M17.111,31.255h0.016l1.229,5.313h-2.475L17.111,31.255L17.111,31.255z M15.676,37.468h2.9l0.52,2.221
		l-0.567,0.349v0.408h2.807v-0.488l-0.568-0.348L18.23,29.332h-1.625c-0.202,0.815-0.407,1.655-0.614,2.525
		c-0.208,0.866-0.418,1.745-0.629,2.631c-0.209,0.886-0.42,1.768-0.625,2.637c-0.207,0.87-0.41,1.713-0.607,2.533l-0.567,0.299
		v0.488h2.159v-0.488l-0.567-0.283L15.676,37.468L15.676,37.468z M29.862,39.483c-0.321,0.003-0.597-0.06-0.828-0.184
		c-0.23-0.123-0.407-0.32-0.53-0.591c-0.124-0.269-0.187-0.622-0.187-1.056V30.31l0.693-0.473V29.38h-3.042v0.457l0.693,0.473v7.344
		c0.003,0.503,0.082,0.943,0.234,1.313c0.152,0.371,0.362,0.679,0.633,0.919c0.271,0.242,0.586,0.424,0.944,0.543
		c0.357,0.118,0.741,0.174,1.152,0.174c0.413-0.003,0.797-0.06,1.151-0.17c0.354-0.11,0.665-0.284,0.93-0.518
		c0.265-0.234,0.476-0.54,0.622-0.911c0.15-0.373,0.227-0.823,0.229-1.351v-7.374l0.6-0.411V29.38h-2.318v0.488l0.6,0.411v7.343
		c0,0.438-0.055,0.799-0.171,1.071c-0.112,0.276-0.286,0.475-0.52,0.602C30.513,39.424,30.22,39.486,29.862,39.483L29.862,39.483z
		 M43.622,30.373l0.537,1.813h0.756l-0.063-2.807h-6.416l-0.063,2.807h0.757l0.504-1.813h1.183c0,3.016,0,6.028,0,9.045
		l-0.694,0.491v0.536c0.305,0,0.634,0,0.986,0c0.352,0,0.707,0,1.061,0c0.354,0,0.686,0,0.995,0v-0.536l-0.693-0.491
		c0-3.017,0-6.029,0-9.045H43.622L43.622,30.373z M50.936,30.25v9.359l-0.71,0.379v0.457h3.011v-0.457l-0.709-0.379v-4.351h2.554
		v4.351l-0.693,0.379v0.457h2.995v-0.457l-0.709-0.379V30.25l0.599-0.413V29.38h-2.791v0.457l0.599,0.413v4.111h-2.554V30.25
		l0.599-0.413V29.38h-2.791v0.457L50.936,30.25L50.936,30.25z M68.936,40.445v-2.474h-0.692l-0.537,1.512c-0.449,0-0.896,0-1.339,0
		c-0.444,0-0.891,0-1.34,0v-0.078c0.131-0.044,0.22-0.107,0.265-0.185c0.048-0.077,0.069-0.179,0.066-0.304c0-0.583,0-1.165,0-1.742
		c0-0.579,0-1.159,0-1.742h1.513l0.41,0.836h0.473c0-0.263,0-0.549,0-0.861c0-0.316,0-0.629,0-0.941c0-0.314,0-0.601,0-0.863h-0.473
		l-0.41,0.869h-1.513c0-0.697,0-1.393,0-2.085c0-0.697,0-1.389,0-2.077h2.144l0.441,1.551h0.788v-2.48c-0.639,0-1.266,0-1.882,0
		c-0.617,0-1.231,0-1.85,0c-0.614,0-1.242,0-1.88,0v0.41l0.599,0.41c0,1.549,0,3.103,0,4.654c0,1.556,0,3.107,0,4.662l-0.709,0.472
		v0.457c0.994,0,1.983,0,2.97,0C66.966,40.445,67.951,40.445,68.936,40.445L68.936,40.445z M76.343,39.545c0-1.145,0-2.291,0-3.439
		c0-1.15,0-2.296,0-3.441l-0.189-1.578l0.048-0.017l2.57,8.84c0.048,0.16,0.123,0.289,0.234,0.388
		c0.106,0.096,0.257,0.146,0.444,0.148h1.355c0-1.696,0-3.392,0-5.084c0-1.69,0-3.386,0-5.082l0.599-0.411V29.38
		c-0.772,0-1.545,0-2.318,0v0.488l0.6,0.411v5.115c0,0.272,0.008,0.562,0.017,0.871c0.011,0.308,0.021,0.617,0.031,0.925
		c0.01,0.311,0.016,0.6,0.016,0.873h-0.032l-0.708-3.095l-1.546-4.927c-0.055-0.197-0.112-0.342-0.182-0.438
		c-0.065-0.096-0.16-0.156-0.282-0.185c-0.127-0.03-0.301-0.043-0.529-0.04c-0.185,0-0.349,0-0.496,0s-0.292,0-0.428,0
		c-0.138,0-0.278,0-0.43,0s-0.32,0-0.507,0v0.457l0.6,0.41c0,1.548,0,3.098,0,4.649c0,1.554,0,3.102,0,4.648l-0.662,0.412v0.488
		c0.261,0,0.528,0,0.81,0c0.28,0,0.559,0,0.84,0c0.282,0,0.55,0,0.811,0v-0.488L76.343,39.545L76.343,39.545z M91.965,30.373
		l0.535,1.813h0.757l-0.062-2.807h-6.417l-0.062,2.807h0.757l0.504-1.813h1.182c0,3.016,0,6.028,0,9.045l-0.692,0.491v0.536
		c0.305,0,0.633,0,0.985,0c0.352,0,0.707,0,1.061,0c0.355,0,0.687,0,0.996,0v-0.536l-0.693-0.491c0-3.017,0-6.029,0-9.045H91.965
		L91.965,30.373z M100.869,30.247l0.6-0.41V29.38h-2.79v0.457l0.599,0.41c0,1.548,0,3.092,0,4.634c0,1.544,0,3.088,0,4.632
		l-0.71,0.476v0.457c0.308,0,0.636,0,0.983,0c0.347,0,0.693,0,1.041,0c0.343,0,0.669,0,0.972,0v-0.457l-0.694-0.476
		c0-1.544,0-3.088,0-4.632C100.869,33.339,100.869,31.795,100.869,30.247L100.869,30.247z M113.637,29.364h-1.089l-0.124,0.599
		h-0.048c-0.161-0.173-0.339-0.307-0.542-0.407c-0.202-0.1-0.415-0.168-0.641-0.21c-0.223-0.041-0.45-0.063-0.678-0.061
		c-0.623,0-1.158,0.115-1.607,0.345c-0.449,0.226-0.794,0.558-1.035,0.992c-0.242,0.438-0.366,0.967-0.368,1.595
		c0,0.098,0,0.259,0,0.477c0,0.221,0,0.48,0,0.782c0,0.299,0,0.623,0,0.964c0,0.342,0,0.684,0,1.026c0,0.34,0,0.661,0,0.963
		s0,0.562,0,0.783c0,0.217,0,0.379,0,0.475c0.002,0.5,0.081,0.936,0.239,1.303c0.157,0.369,0.379,0.673,0.659,0.916
		c0.281,0.237,0.613,0.42,0.99,0.537c0.378,0.119,0.789,0.178,1.232,0.178c0.444,0,0.854-0.056,1.229-0.164
		c0.377-0.11,0.705-0.277,0.984-0.508c0.281-0.228,0.5-0.521,0.655-0.87c0.155-0.355,0.233-0.776,0.236-1.265v-0.599h-1.64v0.583
		c0.002,0.373-0.039,0.694-0.129,0.959c-0.089,0.266-0.241,0.467-0.457,0.608c-0.215,0.142-0.516,0.213-0.896,0.213
		c-0.476,0.004-0.839-0.15-1.089-0.454c-0.248-0.307-0.374-0.786-0.377-1.438c0-0.096,0-0.258,0-0.475c0-0.222,0-0.481,0-0.783
		s0-0.623,0-0.963c0-0.343,0-0.685,0-1.026c0-0.341,0-0.665,0-0.964c0-0.302,0-0.562,0-0.782c0-0.218,0-0.379,0-0.477
		c0.003-0.459,0.071-0.83,0.202-1.106c0.131-0.277,0.304-0.48,0.52-0.604c0.213-0.122,0.447-0.184,0.697-0.181
		c0.374,0.007,0.667,0.094,0.877,0.26c0.207,0.165,0.355,0.385,0.438,0.656c0.081,0.272,0.121,0.575,0.119,0.911v0.3h1.639V29.364z"
		/>
	<path fill="#363837" d="M29.25,51.334c0.565,0,0.978,0.109,1.236,0.33c0.259,0.219,0.388,0.557,0.388,1.013
		c0,0.455-0.133,0.788-0.398,0.999s-0.671,0.316-1.216,0.316h-0.49v1.028h-0.823v-3.687H29.25L29.25,51.334z M29.324,53.28
		c0.273,0,0.46-0.056,0.559-0.166c0.098-0.111,0.148-0.272,0.148-0.485c0-0.214-0.064-0.364-0.192-0.453
		c-0.128-0.091-0.328-0.135-0.599-0.135H28.77v1.239H29.324L29.324,53.28z M35.902,52.557c0,0.592-0.233,0.974-0.702,1.146
		l0.934,1.317h-1.013l-0.817-1.176h-0.569v1.176h-0.824v-3.687h1.398c0.574,0,0.982,0.096,1.227,0.291
		C35.78,51.818,35.902,52.129,35.902,52.557L35.902,52.557z M34.336,53.133c0.281,0,0.472-0.046,0.574-0.137
		c0.103-0.093,0.154-0.237,0.154-0.437c0-0.198-0.053-0.334-0.159-0.408c-0.106-0.073-0.29-0.11-0.554-0.11h-0.617v1.092H34.336
		L34.336,53.133z M40.799,51.334v0.733h-1.835v0.759h1.651v0.701h-1.651v0.766h1.893v0.728h-2.715v-3.687H40.799L40.799,51.334z
		 M46.287,52.7l-0.998,2.015h-0.491L43.808,52.7v2.32h-0.823v-3.687h1.113l0.949,2.024l0.955-2.024h1.107v3.687h-0.822V52.7
		L46.287,52.7z M49.411,51.334h0.823v3.687h-0.823V51.334L49.411,51.334z M53.512,54.067c0.136,0.172,0.321,0.258,0.554,0.258
		c0.231,0,0.415-0.086,0.551-0.258c0.135-0.169,0.204-0.403,0.204-0.697v-2.036h0.822v2.062c0,0.535-0.147,0.946-0.443,1.232
		c-0.295,0.286-0.673,0.43-1.133,0.43c-0.461,0-0.839-0.144-1.137-0.433c-0.297-0.288-0.446-0.697-0.446-1.229v-2.062h0.823v2.036
		C53.306,53.664,53.375,53.898,53.512,54.067L53.512,54.067z M61.193,52.7l-0.998,2.015h-0.49L58.714,52.7v2.32h-0.823v-3.687h1.113
		l0.95,2.024l0.954-2.024h1.107v3.687h-0.823V52.7L61.193,52.7z M67.013,51.334c0.565,0,0.979,0.109,1.236,0.33
		c0.259,0.219,0.388,0.557,0.388,1.013c0,0.455-0.132,0.788-0.397,0.999c-0.267,0.211-0.671,0.316-1.216,0.316h-0.491v1.028h-0.823
		v-3.687H67.013L67.013,51.334z M67.087,53.28c0.273,0,0.46-0.056,0.558-0.166c0.099-0.111,0.149-0.272,0.149-0.485
		c0-0.214-0.064-0.364-0.192-0.453c-0.129-0.091-0.328-0.135-0.6-0.135h-0.47v1.239H67.087L67.087,53.28z M73.666,52.557
		c0,0.592-0.234,0.974-0.702,1.146l0.933,1.317h-1.011l-0.818-1.176h-0.57v1.176h-0.822v-3.687h1.397
		c0.573,0,0.982,0.096,1.227,0.291C73.543,51.818,73.666,52.129,73.666,52.557L73.666,52.557z M72.1,53.133
		c0.281,0,0.473-0.046,0.574-0.137c0.102-0.093,0.153-0.237,0.153-0.437c0-0.198-0.053-0.334-0.158-0.408
		c-0.105-0.073-0.29-0.11-0.554-0.11h-0.618v1.092H72.1L72.1,53.133z M78.725,53.156c0-0.329-0.104-0.609-0.316-0.842
		c-0.211-0.23-0.47-0.348-0.777-0.348s-0.566,0.117-0.777,0.348c-0.211,0.232-0.316,0.513-0.316,0.842
		c0,0.328,0.105,0.608,0.316,0.839c0.211,0.229,0.47,0.345,0.777,0.345s0.566-0.115,0.777-0.345
		C78.62,53.765,78.725,53.484,78.725,53.156L78.725,53.156z M79.006,54.512c-0.374,0.363-0.832,0.546-1.378,0.546
		c-0.544,0-1.003-0.183-1.376-0.546c-0.373-0.364-0.56-0.816-0.56-1.358c0-0.541,0.187-0.993,0.56-1.357s0.832-0.547,1.376-0.547
		c0.546,0,1.004,0.183,1.378,0.547c0.371,0.364,0.558,0.816,0.558,1.357C79.563,53.695,79.377,54.147,79.006,54.512L79.006,54.512z
		 M82.957,51.334c0.658,0,1.162,0.16,1.515,0.481c0.352,0.321,0.526,0.771,0.526,1.344c0,0.572-0.171,1.025-0.514,1.36
		c-0.344,0.335-0.866,0.501-1.569,0.501h-1.26v-3.687H82.957L82.957,51.334z M83,54.293c0.377,0,0.665-0.096,0.867-0.285
		s0.304-0.466,0.304-0.828c0-0.361-0.102-0.64-0.304-0.836c-0.202-0.194-0.513-0.293-0.931-0.293h-0.459v2.242H83L83,54.293z
		 M88.081,54.067c0.137,0.172,0.321,0.258,0.554,0.258s0.415-0.086,0.551-0.258c0.136-0.169,0.203-0.403,0.203-0.697v-2.036h0.823
		v2.062c0,0.535-0.148,0.946-0.443,1.232c-0.296,0.286-0.674,0.43-1.134,0.43c-0.461,0-0.84-0.144-1.137-0.433
		c-0.297-0.288-0.445-0.697-0.445-1.229v-2.062h0.822v2.036C87.875,53.664,87.943,53.898,88.081,54.067L88.081,54.067z
		 M94.153,54.293c0.404,0,0.735-0.161,0.991-0.481l0.527,0.545c-0.417,0.47-0.911,0.707-1.479,0.707
		c-0.568,0-1.036-0.18-1.403-0.538c-0.367-0.359-0.551-0.812-0.551-1.359c0-0.546,0.187-1.002,0.562-1.367s0.833-0.55,1.374-0.55
		c0.604,0,1.11,0.23,1.52,0.69l-0.512,0.581c-0.261-0.323-0.584-0.485-0.972-0.485c-0.309,0-0.573,0.101-0.794,0.305
		c-0.219,0.201-0.329,0.475-0.329,0.816c0,0.344,0.104,0.618,0.312,0.825C93.606,54.189,93.858,54.293,94.153,54.293L94.153,54.293z
		 M99.276,52.046v2.975h-0.822v-2.975h-1.045v-0.712h2.912v0.712H99.276z"/>
	<path fill-rule="evenodd" clip-rule="evenodd" fill="#363837" d="M63.981,1.239c-5.022,0-9.093,4.072-9.093,9.092
		c0,5.022,4.071,9.094,9.093,9.094c5.021,0,9.093-4.071,9.093-9.094C73.074,5.312,69.002,1.239,63.981,1.239L63.981,1.239z
		 M69.339,8.696c0.03,0.093-0.003,0.193-0.082,0.25L66.2,11.158l1.174,3.587c0.03,0.09-0.003,0.192-0.082,0.25
		c-0.04,0.027-0.085,0.043-0.131,0.043c-0.047,0-0.093-0.016-0.132-0.043l-3.048-2.225l-3.049,2.225
		c-0.079,0.057-0.185,0.057-0.263,0c-0.079-0.058-0.112-0.16-0.081-0.25l1.173-3.587l-3.057-2.212
		c-0.079-0.057-0.112-0.157-0.081-0.25c0.03-0.093,0.115-0.154,0.211-0.154h0.001l3.773,0.007l1.159-3.591
		c0.03-0.091,0.116-0.154,0.214-0.154c0.096,0,0.183,0.063,0.212,0.154l1.159,3.591l3.773-0.007l0,0
		C69.224,8.542,69.31,8.604,69.339,8.696z"/>
</g>
</svg>
