<?xml version="1.0" encoding="utf-8"?>
<!-- Generator: Adobe Illustrator 16.0.0, SVG Export Plug-In . SVG Version: 6.00 Build 0)  -->
<!DOCTYPE svg PUBLIC "-//W3C//DTD SVG 1.1//EN" "http://www.w3.org/Graphics/SVG/1.1/DTD/svg11.dtd">
<svg version="1.1" id="Layer_1" xmlns="http://www.w3.org/2000/svg" xmlns:xlink="http://www.w3.org/1999/xlink" x="0px" y="0px"
	 width="125.919px" height="73.68px" viewBox="0 0 125.919 73.68" enable-background="new 0 0 125.919 73.68" xml:space="preserve">
<g>
	<path fill="#545454" d="M21.451,16.01c-5.752,0-10.96,2.331-14.729,6.101c-3.769,3.771-6.101,8.978-6.101,14.729
		S2.953,47.8,6.722,51.568c3.77,3.771,8.978,6.102,14.729,6.102h0.128l0.092,0.091l7.249,7.249
		c5.648-0.498,12.229-0.229,18.697,1.279c5.392,1.258,10.707,3.378,15.343,6.632c4.636-3.254,9.951-5.374,15.343-6.632
		C84.77,64.78,91.352,64.512,97,65.01l7.249-7.249l0.091-0.091h0.129c5.752,0,10.959-2.331,14.729-6.102
		c3.77-3.769,6.101-8.977,6.101-14.729s-2.331-10.959-6.101-14.729c-3.77-3.77-8.977-6.101-14.729-6.101h-0.129l-0.091-0.091
		L97,8.67c-5.648,0.499-12.23,0.229-18.697-1.279C72.911,6.134,67.596,4.013,62.96,0.759c-4.636,3.254-9.951,5.375-15.343,6.632
		C41.149,8.899,34.568,9.169,28.92,8.67l-7.249,7.249l-0.092,0.091H21.451L21.451,16.01z M6.283,21.672
		c3.854-3.854,9.167-6.248,15.039-6.282l7.26-7.26l0.102-0.102l0.146,0.013c5.62,0.511,12.189,0.252,18.647-1.254
		c5.39-1.258,10.698-3.385,15.304-6.659L62.96,0l0.18,0.128c4.605,3.274,9.913,5.401,15.304,6.659
		C84.9,8.293,91.471,8.552,97.09,8.041l0.146-0.013l0.103,0.102l7.26,7.26c5.872,0.034,11.185,2.429,15.039,6.282
		c3.882,3.882,6.282,9.245,6.282,15.168c0,5.924-2.4,11.286-6.282,15.168c-3.854,3.854-9.167,6.247-15.039,6.282l-7.26,7.26
		l-0.103,0.102l-0.146-0.013c-5.619-0.511-12.189-0.252-18.646,1.254c-5.391,1.258-10.698,3.385-15.304,6.66l-0.18,0.127
		l-0.18-0.127c-4.605-3.275-9.914-5.402-15.304-6.66c-6.458-1.506-13.027-1.765-18.647-1.254l-0.146,0.013l-0.102-0.102l-7.26-7.26
		c-5.872-0.035-11.186-2.429-15.039-6.282C2.401,48.126,0,42.764,0,36.84C0,30.917,2.401,25.554,6.283,21.672z"/>
	<path fill="#373737" d="M19.471,38.751c-0.004-0.462-0.071-0.857-0.207-1.192c-0.139-0.331-0.327-0.608-0.572-0.829
		c-0.25-0.221-0.534-0.392-0.866-0.52c0.257-0.11,0.474-0.267,0.652-0.467c0.178-0.203,0.312-0.431,0.405-0.69
		c0.093-0.259,0.139-0.526,0.139-0.808v-2.157c-0.003-0.549-0.085-1-0.249-1.356c-0.16-0.356-0.396-0.634-0.693-0.837
		c-0.3-0.199-0.655-0.342-1.065-0.424c-0.413-0.082-0.868-0.121-1.366-0.117h-4.721v0.598l0.812,0.556c0,2.093,0,4.183,0,6.27
		c0,2.086,0,4.175,0,6.269l-0.961,0.641v0.619h4.891c0.834,0.004,1.534-0.104,2.097-0.313c0.562-0.209,0.99-0.537,1.275-0.982
		c0.288-0.448,0.431-1.028,0.431-1.737V38.751L19.471,38.751z M13.447,43.022v-0.106c0.178-0.061,0.299-0.146,0.359-0.256
		c0.064-0.11,0.093-0.26,0.089-0.448c0-0.56,0-1.14,0-1.744c0-0.602,0-1.207,0-1.809c0-0.605,0-1.187,0-1.744h1.538
		c0.438,0,0.794,0.067,1.062,0.199c0.267,0.135,0.459,0.338,0.579,0.609c0.118,0.272,0.178,0.615,0.175,1.027v2.521
		c0.003,0.56-0.125,0.99-0.388,1.293c-0.261,0.302-0.673,0.455-1.235,0.458H13.447L13.447,43.022z M15.476,35.847
		c-0.195,0-0.377,0-0.54,0c-0.167,0-0.332,0-0.499,0c-0.164,0-0.345,0-0.541,0c0-0.616,0-1.206,0-1.776c0-0.565,0-1.136,0-1.702
		c0-0.569,0-1.16,0-1.775h1.58c0.292,0.003,0.538,0.071,0.734,0.206c0.195,0.136,0.345,0.313,0.44,0.541
		c0.101,0.225,0.15,0.474,0.15,0.748v2.157c0.003,0.494-0.101,0.886-0.31,1.167C16.28,35.697,15.943,35.839,15.476,35.847
		L15.476,35.847L15.476,35.847z M26.578,30.635c0.487,0,0.876,0.085,1.164,0.257c0.288,0.171,0.495,0.416,0.619,0.736
		c0.125,0.321,0.185,0.713,0.183,1.172v1.95c0.002,0.459-0.064,0.848-0.196,1.172c-0.136,0.32-0.346,0.565-0.641,0.736
		c-0.292,0.171-0.673,0.257-1.15,0.257h-1.367c0-0.581,0-1.125,0-1.638s0-1.015,0-1.503c0-0.49,0-0.989,0-1.502s0-1.057,0-1.638
		H26.578L26.578,30.635z M28.329,42.34c0.104,0.284,0.2,0.552,0.289,0.805s0.195,0.474,0.316,0.666
		c0.125,0.191,0.289,0.345,0.492,0.455c0.202,0.11,0.473,0.164,0.804,0.167c0.16,0,0.331-0.007,0.52-0.024
		c0.186-0.019,0.37-0.047,0.548-0.086c0.183-0.043,0.346-0.096,0.492-0.167v-0.833c-0.171,0.036-0.324,0.018-0.459-0.054
		c-0.136-0.067-0.254-0.171-0.356-0.306c-0.106-0.133-0.195-0.281-0.271-0.441c-0.078-0.156-0.143-0.313-0.195-0.46l-1.004-2.755
		c-0.075-0.221-0.164-0.412-0.261-0.584c-0.099-0.171-0.217-0.32-0.363-0.456c-0.143-0.134-0.316-0.256-0.529-0.37
		c0.466-0.093,0.883-0.271,1.242-0.529c0.362-0.26,0.647-0.609,0.854-1.044c0.206-0.434,0.312-0.961,0.316-1.573V32.8
		c-0.004-0.651-0.114-1.2-0.331-1.648c-0.214-0.448-0.513-0.805-0.897-1.075c-0.381-0.271-0.825-0.467-1.331-0.587
		c-0.502-0.121-1.047-0.182-1.627-0.179h-4.336v0.62l0.791,0.556c0,2.082,0,4.179,0,6.282c0,2.107,0,4.201,0,6.276l-0.94,0.641
		v0.619c0.416,0,0.862,0,1.328,0c0.467,0,0.936,0,1.402,0c0.47,0,0.911,0,1.328,0v-0.619l-0.94-0.641c0-0.346,0-0.729,0-1.154
		c0-0.419,0-0.854,0-1.299c0-0.448,0-0.879,0-1.3c0-0.419,0-0.797,0-1.139c0.413-0.004,0.748,0.035,1.005,0.121
		c0.252,0.082,0.459,0.231,0.618,0.441c0.164,0.213,0.314,0.509,0.449,0.89L28.329,42.34L28.329,42.34z M37.723,31.853h0.021
		l1.666,7.198h-3.354L37.723,31.853L37.723,31.853z M35.779,40.269h3.931l0.705,3.011l-0.77,0.47v0.556h3.802v-0.662l-0.769-0.47
		l-3.439-13.926H37.04c-0.274,1.103-0.552,2.242-0.833,3.421c-0.281,1.174-0.566,2.363-0.852,3.567
		c-0.284,1.198-0.569,2.392-0.847,3.57c-0.281,1.178-0.556,2.32-0.822,3.431l-0.769,0.406v0.662h2.925v-0.662l-0.769-0.384
		L35.779,40.269L35.779,40.269z M47.565,43.084c0-1.549,0-3.104,0-4.66c0-1.559,0-3.111,0-4.663l-0.257-2.14l0.064-0.021
		l3.481,11.979c0.063,0.218,0.167,0.392,0.316,0.523c0.146,0.132,0.349,0.199,0.602,0.203h1.837c0-2.3,0-4.596,0-6.888
		c0-2.293,0-4.589,0-6.89l0.812-0.555v-0.662c-1.047,0-2.094,0-3.14,0v0.662l0.812,0.555v6.932c0,0.37,0.011,0.762,0.021,1.183
		c0.015,0.416,0.028,0.836,0.043,1.252c0.014,0.421,0.021,0.812,0.021,1.183h-0.043l-0.961-4.193l-2.094-6.675
		c-0.074-0.268-0.153-0.463-0.246-0.595c-0.089-0.128-0.217-0.21-0.384-0.25c-0.171-0.038-0.405-0.056-0.716-0.053
		c-0.249,0-0.474,0-0.673,0s-0.395,0-0.58,0c-0.185,0-0.377,0-0.58,0c-0.206,0-0.434,0-0.688,0v0.62l0.812,0.556
		c0,2.097,0,4.196,0,6.3c0,2.104,0,4.2,0,6.298l-0.897,0.559v0.662c0.353,0,0.716,0,1.097,0s0.758,0,1.139,0s0.744,0,1.097,0v-0.662
		L47.565,43.084L47.565,43.084z M57.064,29.311v0.62l0.812,0.641v12.474l-0.94,0.641v0.619h4.613c0.627,0,1.203-0.082,1.727-0.242
		c0.521-0.16,0.976-0.405,1.356-0.729c0.385-0.327,0.68-0.736,0.891-1.229c0.209-0.494,0.316-1.071,0.32-1.733v-7.19
		c-0.008-0.929-0.186-1.681-0.545-2.25c-0.356-0.569-0.854-0.982-1.495-1.238c-0.641-0.261-1.392-0.385-2.254-0.382H57.064
		L57.064,29.311z M61.55,30.614c0.523,0.011,0.937,0.131,1.239,0.359c0.306,0.231,0.52,0.534,0.648,0.918
		c0.128,0.385,0.188,0.812,0.185,1.289v7.19c0.003,0.48-0.057,0.915-0.185,1.303c-0.129,0.385-0.343,0.694-0.648,0.923
		c-0.303,0.23-0.716,0.353-1.239,0.362h-1.879l-0.021-0.129c0.178-0.053,0.303-0.131,0.37-0.233c0.071-0.107,0.104-0.25,0.1-0.428
		V30.614H61.55L61.55,30.614z M71.243,43.084c0-1.549,0-3.104,0-4.66c0-1.559,0-3.111,0-4.663l-0.257-2.14l0.064-0.021l3.48,11.979
		c0.064,0.218,0.168,0.392,0.317,0.523c0.146,0.132,0.349,0.199,0.602,0.203h1.837c0-2.3,0-4.596,0-6.888c0-2.293,0-4.589,0-6.89
		l0.812-0.555v-0.662c-1.047,0-2.093,0-3.14,0v0.662l0.812,0.555v6.932c0,0.37,0.011,0.762,0.021,1.183
		c0.015,0.416,0.028,0.836,0.043,1.252c0.014,0.421,0.021,0.812,0.021,1.183h-0.043l-0.962-4.193l-2.093-6.675
		c-0.074-0.268-0.152-0.463-0.245-0.595c-0.09-0.128-0.218-0.21-0.385-0.25c-0.171-0.038-0.406-0.056-0.716-0.053
		c-0.248,0-0.474,0-0.673,0s-0.395,0-0.58,0c-0.185,0-0.377,0-0.58,0c-0.206,0-0.435,0-0.688,0v0.62l0.812,0.556
		c0,2.097,0,4.196,0,6.3c0,2.104,0,4.2,0,6.298l-0.897,0.559v0.662c0.353,0,0.716,0,1.096,0c0.382,0,0.759,0,1.14,0s0.744,0,1.097,0
		v-0.662L71.243,43.084L71.243,43.084z M84.587,31.853h0.022l1.665,7.198h-3.353L84.587,31.853L84.587,31.853z M82.644,40.269h3.93
		l0.705,3.011l-0.769,0.47v0.556h3.802v-0.662l-0.769-0.47l-3.439-13.926h-2.199c-0.274,1.103-0.553,2.242-0.834,3.421
		c-0.28,1.174-0.565,2.363-0.851,3.567c-0.284,1.198-0.569,2.392-0.847,3.57c-0.281,1.178-0.556,2.32-0.822,3.431l-0.77,0.406v0.662
		h2.926v-0.662l-0.769-0.384L82.644,40.269L82.644,40.269z M94.408,43.084c0-1.56,0-3.119,0-4.671c0-1.556,0-3.115,0-4.674
		l-0.107-2.759h0.107c0.263,1.406,0.516,2.802,0.757,4.179c0.246,1.378,0.485,2.756,0.72,4.138c0.231,1.381,0.467,2.779,0.701,4.196
		c0.032,0.203,0.104,0.353,0.221,0.452c0.114,0.096,0.285,0.146,0.506,0.146h1.773l2.349-13.261h0.086l-0.064,2.153
		c0,3.354,0,6.707,0,10.061l-0.939,0.641v0.619c0.413,0,0.854,0,1.327,0c0.474,0,0.951,0,1.425,0s0.918,0,1.327,0v-0.619
		l-0.94-0.644c0-2.095,0-4.188,0-6.276c0-2.091,0-4.183,0-6.279l0.834-0.556v-0.62c-0.303,0-0.577,0-0.826,0.004
		c-0.249,0-0.491,0.003-0.723,0.008c-0.231,0.003-0.474,0.003-0.723,0.006c-0.249,0.004-0.523,0.004-0.826,0.004
		c-0.267-0.01-0.484,0.007-0.647,0.054c-0.168,0.046-0.296,0.135-0.388,0.271c-0.097,0.136-0.171,0.334-0.225,0.595l-1.9,11.295
		h-0.043c-0.097-0.837-0.196-1.627-0.296-2.374c-0.1-0.748-0.199-1.474-0.306-2.176c-0.104-0.704-0.218-1.409-0.335-2.114
		c-0.118-0.704-0.242-1.431-0.377-2.182c-0.136-0.751-0.281-1.546-0.438-2.386c-0.06-0.267-0.139-0.474-0.234-0.619
		c-0.096-0.146-0.229-0.249-0.392-0.307c-0.16-0.053-0.374-0.081-0.634-0.078c-0.374,0-0.729,0-1.064,0c-0.339,0-0.673,0-1.011,0
		c-0.335,0-0.69,0-1.064,0v0.62l0.854,0.556c0,2.097,0,4.196,0,6.3c0,2.104,0,4.2,0,6.298l-0.896,0.559v0.662
		c0.353,0,0.716,0,1.089,0c0.378,0,0.755,0,1.133,0c0.373,0,0.736,0,1.089,0v-0.662L94.408,43.084L94.408,43.084z M115.143,44.305
		v-3.354h-0.939l-0.727,2.051c-0.608,0-1.214,0-1.815,0s-1.207,0-1.815,0v-0.106c0.179-0.061,0.299-0.146,0.359-0.25
		c0.064-0.106,0.092-0.241,0.089-0.412c0-0.791,0-1.578,0-2.36c0-0.783,0-1.57,0-2.36h2.05l0.557,1.132h0.641
		c0-0.355,0-0.743,0-1.167c0-0.429,0-0.852,0-1.275c0-0.427,0-0.814,0-1.171H112.9l-0.557,1.179h-2.05c0-0.943,0-1.887,0-2.826
		c0-0.943,0-1.88,0-2.812h2.904l0.6,2.1h1.066v-3.36c-0.864,0-1.715,0-2.549,0c-0.836,0-1.669,0-2.506,0c-0.832,0-1.684,0-2.548,0
		v0.556l0.811,0.556c0,2.1,0,4.204,0,6.308c0,2.107,0,4.211,0,6.315l-0.961,0.641v0.619c1.346,0,2.688,0,4.022,0
		C112.473,44.305,113.808,44.305,115.143,44.305z"/>
	<path fill-rule="evenodd" clip-rule="evenodd" fill="#373737" d="M63.287,12.356l1.118,3.461c0.052,0.141,0.175,0.228,0.333,0.228
		h3.634c0.156,0,0.278,0.086,0.331,0.244c0.053,0.141,0,0.298-0.14,0.385l-2.936,2.132c-0.121,0.088-0.175,0.245-0.121,0.386
		l1.117,3.461c0.053,0.14,0,0.297-0.122,0.384c-0.122,0.088-0.28,0.088-0.402,0l-2.935-2.133c-0.122-0.087-0.298-0.087-0.419,0
		l-2.918,2.133c-0.14,0.088-0.297,0.088-0.42,0c-0.122-0.087-0.174-0.244-0.122-0.384l1.119-3.461c0.052-0.141,0-0.298-0.123-0.386
		l-2.935-2.132c-0.122-0.087-0.175-0.244-0.141-0.385c0.053-0.158,0.192-0.244,0.333-0.244h3.634c0.157,0,0.297-0.087,0.331-0.228
		l1.118-3.461c0.053-0.157,0.175-0.243,0.332-0.243S63.235,12.199,63.287,12.356z"/>
	<path fill="#373737" d="M34.04,52.302c0-0.255-0.083-0.473-0.246-0.653c-0.165-0.181-0.366-0.271-0.605-0.271
		s-0.44,0.09-0.604,0.271s-0.246,0.398-0.246,0.653c0,0.256,0.082,0.474,0.246,0.652s0.365,0.269,0.604,0.269s0.44-0.09,0.605-0.269
		C33.957,52.775,34.04,52.558,34.04,52.302L34.04,52.302z M34.257,53.356c-0.289,0.283-0.646,0.424-1.07,0.424
		s-0.78-0.141-1.07-0.424c-0.289-0.283-0.435-0.636-0.435-1.056c0-0.421,0.146-0.774,0.435-1.056c0.29-0.284,0.646-0.426,1.07-0.426
		s0.781,0.142,1.07,0.426c0.29,0.281,0.436,0.635,0.436,1.056C34.692,52.721,34.547,53.073,34.257,53.356L34.257,53.356z
		 M38.896,51.837c0,0.459-0.182,0.756-0.546,0.89l0.726,1.025H38.29l-0.637-0.914h-0.442v0.914h-0.64v-2.866h1.086
		c0.446,0,0.764,0.075,0.954,0.226C38.801,51.262,38.896,51.504,38.896,51.837L38.896,51.837z M37.678,52.284
		c0.22,0,0.368-0.036,0.448-0.106c0.078-0.072,0.118-0.185,0.118-0.339s-0.041-0.26-0.123-0.317
		c-0.082-0.059-0.226-0.087-0.43-0.087h-0.48v0.85H37.678L37.678,52.284z M40.891,50.886h0.64v2.866h-0.64V50.886L40.891,50.886z
		 M45.435,52.292h0.644v1.017c-0.284,0.317-0.677,0.477-1.181,0.477c-0.42,0-0.773-0.14-1.06-0.419
		c-0.286-0.278-0.429-0.631-0.429-1.056s0.146-0.779,0.437-1.064c0.292-0.284,0.643-0.427,1.054-0.427
		c0.412,0,0.77,0.137,1.073,0.406l-0.333,0.48c-0.128-0.112-0.246-0.189-0.354-0.232c-0.108-0.042-0.225-0.063-0.351-0.063
		c-0.243,0-0.448,0.083-0.615,0.248c-0.166,0.166-0.25,0.384-0.25,0.654s0.079,0.487,0.24,0.65c0.159,0.162,0.351,0.243,0.571,0.243
		c0.222,0,0.407-0.042,0.554-0.126V52.292L45.435,52.292z M47.986,50.886h0.64v2.866h-0.64V50.886L47.986,50.886z M52.675,50.886
		h0.641v2.866h-0.641l-1.365-1.796v1.796h-0.64v-2.866h0.599l1.406,1.846V50.886L52.675,50.886z M57.4,53.752l-0.267-0.619h-1.201
		l-0.267,0.619h-0.681l1.237-2.866h0.62l1.238,2.866H57.4L57.4,53.752z M56.534,51.738l-0.36,0.832h0.718L56.534,51.738
		L56.534,51.738z M59.751,53.752v-2.866h0.641v2.296h1.221v0.57H59.751L59.751,53.752z M65.817,53.187
		c0.314,0,0.571-0.125,0.771-0.374l0.41,0.423c-0.325,0.366-0.709,0.55-1.149,0.55c-0.442,0-0.806-0.14-1.091-0.419
		c-0.286-0.278-0.429-0.631-0.429-1.056s0.145-0.779,0.437-1.064c0.291-0.284,0.646-0.427,1.068-0.427
		c0.47,0,0.863,0.18,1.181,0.537l-0.397,0.451c-0.203-0.251-0.454-0.376-0.755-0.376c-0.24,0-0.446,0.078-0.617,0.235
		s-0.256,0.369-0.256,0.635c0,0.267,0.08,0.48,0.242,0.643C65.393,53.105,65.587,53.187,65.817,53.187L65.817,53.187z
		 M71.034,52.302c0-0.255-0.082-0.473-0.245-0.653c-0.164-0.181-0.366-0.271-0.605-0.271s-0.441,0.09-0.604,0.271
		c-0.164,0.181-0.246,0.398-0.246,0.653c0,0.256,0.082,0.474,0.246,0.652c0.163,0.179,0.365,0.269,0.604,0.269
		s0.441-0.09,0.605-0.269C70.952,52.775,71.034,52.558,71.034,52.302L71.034,52.302z M71.252,53.356
		c-0.29,0.283-0.646,0.424-1.07,0.424s-0.78-0.141-1.07-0.424s-0.435-0.636-0.435-1.056c0-0.421,0.145-0.774,0.435-1.056
		c0.29-0.284,0.646-0.426,1.07-0.426s0.78,0.142,1.07,0.426c0.29,0.281,0.435,0.635,0.435,1.056
		C71.687,52.721,71.542,53.073,71.252,53.356L71.252,53.356z M76.133,51.947l-0.774,1.566h-0.382l-0.771-1.566v1.805h-0.641v-2.866
		h0.866l0.737,1.574l0.742-1.574h0.862v2.866h-0.641V51.947L76.133,51.947z M79.828,50.886c0.44,0,0.761,0.085,0.962,0.257
		c0.201,0.17,0.302,0.432,0.302,0.786s-0.104,0.613-0.31,0.778c-0.206,0.163-0.521,0.245-0.945,0.245h-0.381v0.8h-0.64v-2.866
		H79.828L79.828,50.886z M79.887,52.398c0.213,0,0.357-0.043,0.435-0.129c0.076-0.086,0.114-0.212,0.114-0.377
		c0-0.166-0.05-0.283-0.149-0.353s-0.255-0.105-0.466-0.105h-0.364v0.964H79.887L79.887,52.398z M84.972,53.752l-0.267-0.619h-1.201
		l-0.267,0.619h-0.681l1.238-2.866h0.619l1.239,2.866H84.972L84.972,53.752z M84.107,51.738l-0.361,0.832h0.718L84.107,51.738
		L84.107,51.738z M89.328,50.886h0.64v2.866h-0.64l-1.365-1.796v1.796h-0.64v-2.866h0.599l1.406,1.846V50.886L89.328,50.886z
		 M93.245,53.752h-0.639V52.62l-0.993-1.734h0.693l0.619,1.066l0.619-1.066h0.693l-0.993,1.734V53.752z"/>
	<path fill-rule="evenodd" clip-rule="evenodd" fill="#373737" d="M56.059,59.146l0.259,0.8c0.012,0.032,0.04,0.052,0.076,0.052
		h0.84c0.036,0,0.064,0.021,0.076,0.057c0.013,0.032,0,0.069-0.032,0.09L56.6,60.635c-0.028,0.021-0.04,0.057-0.028,0.09l0.259,0.8
		c0.012,0.032,0,0.068-0.028,0.088c-0.028,0.021-0.065,0.021-0.093,0l-0.679-0.493c-0.027-0.02-0.068-0.02-0.097,0l-0.674,0.493
		c-0.032,0.021-0.068,0.021-0.097,0c-0.029-0.02-0.04-0.056-0.029-0.088l0.259-0.8c0.012-0.033,0-0.069-0.027-0.09l-0.679-0.491
		c-0.028-0.021-0.04-0.058-0.032-0.09c0.012-0.036,0.045-0.057,0.076-0.057h0.84c0.037,0,0.069-0.02,0.076-0.052l0.259-0.8
		c0.013-0.036,0.041-0.056,0.077-0.056S56.047,59.109,56.059,59.146L56.059,59.146z M63.603,59.146l0.258,0.8
		c0.013,0.032,0.041,0.052,0.077,0.052h0.84c0.036,0,0.063,0.021,0.076,0.057c0.013,0.032,0,0.069-0.032,0.09l-0.678,0.491
		c-0.028,0.021-0.04,0.057-0.028,0.09l0.258,0.8c0.013,0.032,0,0.068-0.027,0.088c-0.028,0.021-0.064,0.021-0.093,0l-0.679-0.493
		c-0.028-0.02-0.068-0.02-0.097,0l-0.674,0.493c-0.032,0.021-0.068,0.021-0.097,0c-0.028-0.02-0.041-0.056-0.028-0.088l0.258-0.8
		c0.013-0.033,0-0.069-0.028-0.09l-0.678-0.491c-0.028-0.021-0.04-0.058-0.032-0.09c0.012-0.036,0.045-0.057,0.076-0.057h0.84
		c0.037,0,0.069-0.02,0.077-0.052l0.258-0.8c0.013-0.036,0.041-0.056,0.077-0.056S63.591,59.109,63.603,59.146L63.603,59.146z
		 M71.146,59.146l0.258,0.8c0.013,0.032,0.041,0.052,0.077,0.052h0.839c0.036,0,0.064,0.021,0.077,0.057
		c0.012,0.032,0,0.069-0.032,0.09l-0.678,0.491c-0.028,0.021-0.041,0.057-0.028,0.09l0.258,0.8c0.013,0.032,0,0.068-0.028,0.088
		c-0.027,0.021-0.063,0.021-0.092,0l-0.679-0.493c-0.028-0.02-0.068-0.02-0.097,0l-0.674,0.493c-0.032,0.021-0.068,0.021-0.097,0
		c-0.028-0.02-0.041-0.056-0.028-0.088l0.258-0.8c0.013-0.033,0-0.069-0.028-0.09l-0.678-0.491c-0.028-0.021-0.041-0.058-0.032-0.09
		c0.012-0.036,0.044-0.057,0.077-0.057h0.839c0.036,0,0.068-0.02,0.077-0.052l0.258-0.8c0.012-0.036,0.041-0.056,0.077-0.056
		S71.134,59.109,71.146,59.146z"/>
	<path fill="#373737" d="M44.892,18.958h-0.597l-0.522,0.923l-0.521-0.923h-0.598l0.821,1.45l-0.821,1.449h0.598l0.521-0.923
		l0.522,0.923h0.597l-0.821-1.449L44.892,18.958L44.892,18.958z M81.028,18.958h0.596l0.522,0.923l0.522-0.923h0.598l-0.821,1.45
		l0.82,1.449h-0.597l-0.522-0.923l-0.522,0.923h-0.596l0.82-1.449L81.028,18.958L81.028,18.958z M85.756,18.958l0.82,1.45
		l-0.819,1.449h0.596l0.522-0.923l0.522,0.923h0.597l-0.82-1.449l0.82-1.45h-0.597l-0.522,0.923l-0.522-0.923H85.756L85.756,18.958z
		 M73.289,18.958h0.521v2.899h-0.521V18.958L73.289,18.958z M76.3,18.958h0.597l0.522,0.923l0.522-0.923h0.597l-0.821,1.45
		l0.821,1.449h-0.597l-0.522-0.923l-0.522,0.923H76.3l0.82-1.449L76.3,18.958L76.3,18.958z M40.164,18.958l-0.821,1.45l0.821,1.449
		h-0.598l-0.522-0.923l-0.521,0.923h-0.598l0.821-1.449l-0.821-1.45h0.598l0.521,0.923l0.523-0.923H40.164L40.164,18.958z
		 M52.631,18.958H52.11v2.899h0.521V18.958L52.631,18.958z M49.62,18.958h-0.597l-0.522,0.923l-0.522-0.923h-0.597l0.82,1.45
		l-0.82,1.449h0.597l0.522-0.923l0.521,0.923h0.598l-0.821-1.449L49.62,18.958z"/>
</g>
</svg>
