<?xml version="1.0" encoding="utf-8"?>
<!-- Generator: Adobe Illustrator 16.0.0, SVG Export Plug-In . SVG Version: 6.00 Build 0)  -->
<!DOCTYPE svg PUBLIC "-//W3C//DTD SVG 1.1//EN" "http://www.w3.org/Graphics/SVG/1.1/DTD/svg11.dtd">
<svg version="1.1" id="Layer_1" xmlns="http://www.w3.org/2000/svg" xmlns:xlink="http://www.w3.org/1999/xlink" x="0px" y="0px"
	 width="154.187px" height="104.438px" viewBox="0 0 154.187 104.438" enable-background="new 0 0 154.187 104.438"
	 xml:space="preserve">
<g>
	<path fill="#545454" d="M17.365,28.928c0.023,0.591,0.39,1.146,0.98,1.37c0.509,0.203,1.053,0.167,1.513-0.034
		c0.461-0.201,0.84-0.58,1.041-1.088c0.26-0.65,0.225-1.336-0.036-1.927c-0.26-0.592-0.744-1.089-1.395-1.337
		c-0.827-0.319-1.702-0.272-2.446,0.047c-0.756,0.331-1.372,0.946-1.69,1.774c-0.226,0.555-0.308,1.147-0.271,1.703
		c0.034,0.592,0.189,1.159,0.461,1.667c0.627,1.159,1.524,1.762,2.553,2.069c1.051,0.319,2.258,0.344,3.44,0.344h7.99
		c6.194-6.197,13.593-11.177,21.82-14.582c0.509-0.213,1.017-0.426,1.524-0.615c-1.016-0.06-1.902-0.863-2.187-1.869
		c-0.142-0.484-0.13-1.006,0.013-1.501c0.141-0.484,0.425-0.959,0.851-1.325c0.614-0.543,1.513-0.898,2.719-0.887
		c1.595,0.023,2.86,0.555,4.173,1.123c0.886,0.367,1.785,0.758,2.825,0.994c-0.852-0.592-1.407-1.455-1.656-2.39
		c-0.603-2.376,0.971-4.73,3.312-5.286c1.241-0.308,2.612-0.118,3.841,0.483c1.229,0.604,2.14,1.503,3.085,2.45l0.035,0.034
		c-0.271-0.521-0.461-1.052-0.578-1.585c-0.024-0.105-0.048-0.223-0.06-0.331c-0.355-2.4,1.028-4.754,3.475-5.273
		c0.096-0.023,0.202-0.036,0.309-0.06c0.39-0.047,0.791-0.047,1.17,0.023c0.757,0.13,1.453,0.486,1.997,1.006
		c0.438,0.438,0.757,0.946,0.923,1.513c0.165-0.566,0.484-1.075,0.922-1.513c0.544-0.52,1.24-0.876,2.01-1.006
		c0.365-0.07,0.767-0.07,1.158-0.023c0.106,0.023,0.213,0.036,0.308,0.06c2.446,0.52,3.829,2.873,3.474,5.273
		c-0.011,0.108-0.034,0.226-0.059,0.331c-0.105,0.533-0.308,1.064-0.579,1.585l0.036-0.034c0.944-0.947,1.855-1.846,3.085-2.45
		c1.229-0.602,2.6-0.791,3.842-0.483c2.34,0.556,3.912,2.91,3.31,5.286c-0.247,0.935-0.804,1.798-1.655,2.39
		c1.04-0.236,1.938-0.627,2.825-0.994c1.312-0.568,2.578-1.1,4.173-1.123c1.206-0.012,2.104,0.344,2.719,0.887
		c0.425,0.366,0.71,0.841,0.851,1.325c0.143,0.495,0.153,1.017,0.012,1.501c-0.283,1.006-1.17,1.81-2.187,1.869
		c0.508,0.189,1.017,0.402,1.524,0.615c8.228,3.405,15.628,8.385,21.822,14.582h7.99c1.182,0,2.388-0.024,3.438-0.344
		c1.029-0.308,1.927-0.91,2.554-2.069c0.273-0.508,0.427-1.075,0.461-1.667c0.035-0.556-0.047-1.148-0.272-1.703
		c-0.318-0.828-0.933-1.443-1.69-1.774c-0.744-0.319-1.618-0.366-2.445-0.047c-0.65,0.248-1.136,0.745-1.395,1.337
		c-0.261,0.591-0.284,1.276-0.036,1.927c0.201,0.508,0.579,0.887,1.04,1.088s1.006,0.237,1.514,0.034
		c0.591-0.224,0.957-0.779,0.98-1.37c-0.082,0.036-0.177,0.059-0.285,0.059c-0.328,0-0.577-0.271-0.577-0.603
		c0.012-0.319,0.282-0.58,0.603-0.58c0.13,0.013,0.248,0.047,0.342,0.118c0.227,0.167,0.284,0.497,0.309,0.757
		c0.082,0.84-0.391,1.668-1.229,1.986c-0.603,0.248-1.253,0.214-1.81-0.034c-0.555-0.237-1.016-0.698-1.265-1.313
		c-0.283-0.744-0.247-1.548,0.047-2.235c0.167-0.379,0.415-0.722,0.734-1.005c-1.229,0.568-2.151,1.62-2.979,2.578
		c-0.449,0.508-0.875,1.005-1.323,1.373c-0.438,0.377-0.863,0.626-1.419,0.732c-0.414,0.083-0.852,0.06-1.217-0.083
		c-0.639-0.236-1.041-0.887-1.016-1.561c0.011-0.354,0.152-0.651,0.354-0.888c0.2-0.225,0.473-0.39,0.744-0.438
		c0.083-0.012,0.166-0.022,0.236-0.022c0.343,0.022,0.662,0.188,0.851,0.473c0.154,0.224,0.225,0.626,0.071,0.886
		c-0.106,0.177-0.296,0.296-0.52,0.296c-0.332-0.012-0.58-0.284-0.58-0.615c0.013-0.271,0.201-0.496,0.462-0.555
		c-0.095-0.048-0.19-0.071-0.296-0.083c-0.047,0-0.095,0-0.153,0.012c-0.178,0.035-0.366,0.153-0.509,0.319
		c-0.153,0.165-0.248,0.379-0.26,0.626c-0.023,0.51,0.284,0.994,0.756,1.184c0.297,0.117,0.662,0.117,1.004,0.059
		c0.521-0.106,0.911-0.355,1.313-0.71c0.391-0.355,0.78-0.804,1.192-1.276c1.042-1.171,2.2-2.496,3.902-2.945
		c0.921-0.248,2.128-0.236,3.026,0.154c0.838,0.378,1.536,1.064,1.902,1.998c0.237,0.615,0.331,1.254,0.297,1.869
		c-0.036,0.649-0.214,1.278-0.521,1.832c-0.673,1.267-1.655,1.928-2.778,2.271c-1.11,0.332-2.34,0.354-3.557,0.354h-8.062h-0.083
		l-0.058-0.059c-6.182-6.186-13.559-11.164-21.763-14.56c-7.884-3.275-16.537-5.072-25.614-5.072
		c-9.079,0-17.731,1.797-25.615,5.072c-8.203,3.396-15.58,8.374-21.75,14.56l-0.071,0.059h-0.071h-8.072
		c-1.218,0-2.448-0.022-3.558-0.354c-1.124-0.344-2.105-1.005-2.778-2.271c-0.309-0.554-0.485-1.183-0.521-1.832
		c-0.034-0.615,0.06-1.254,0.297-1.869c0.366-0.934,1.063-1.62,1.902-1.998c0.898-0.391,2.104-0.402,3.026-0.154
		c1.714,0.449,2.872,1.774,3.901,2.945c0.413,0.473,0.803,0.921,1.194,1.276c0.412,0.354,0.79,0.604,1.312,0.71
		c0.354,0.059,0.708,0.059,1.005-0.059c0.473-0.189,0.78-0.674,0.756-1.184c-0.012-0.247-0.106-0.461-0.249-0.626
		c-0.153-0.166-0.342-0.284-0.52-0.319c-0.06-0.012-0.106-0.012-0.154-0.012c-0.105,0.012-0.2,0.035-0.295,0.083
		c0.26,0.059,0.449,0.283,0.462,0.555c0,0.331-0.248,0.604-0.58,0.615c-0.225,0-0.414-0.119-0.52-0.296
		c-0.153-0.26-0.083-0.662,0.07-0.886c0.189-0.284,0.508-0.45,0.852-0.473c0.07,0,0.153,0.011,0.236,0.022
		c0.271,0.048,0.543,0.213,0.744,0.438c0.202,0.236,0.343,0.533,0.355,0.888c0.035,0.674-0.378,1.324-1.018,1.561
		c-0.366,0.143-0.804,0.166-1.217,0.083c-0.556-0.106-0.981-0.355-1.419-0.732c-0.438-0.368-0.874-0.865-1.323-1.373
		c-0.827-0.958-1.749-2.01-2.979-2.578c0.319,0.283,0.567,0.626,0.733,1.005c0.295,0.688,0.331,1.491,0.047,2.235
		c-0.236,0.615-0.71,1.076-1.265,1.313c-0.556,0.248-1.205,0.282-1.809,0.034c-0.828-0.318-1.312-1.146-1.229-1.986
		c0.023-0.26,0.096-0.59,0.308-0.757c0.094-0.071,0.213-0.105,0.342-0.118c0.32,0,0.592,0.261,0.604,0.58
		c0,0.331-0.249,0.603-0.578,0.603C17.542,28.986,17.448,28.964,17.365,28.928L17.365,28.928z M54.458,17.717L54.458,17.717
		c2.576-0.911,5.213-1.681,7.92-2.283c-1.62-0.142-2.885-0.686-4.114-1.206c-1.276-0.544-2.506-1.065-4.03-1.088
		c-1.087-0.013-1.892,0.307-2.435,0.779c-0.366,0.32-0.614,0.722-0.745,1.147c-0.119,0.415-0.119,0.864-0.012,1.278
		c0.283,1.005,1.3,1.797,2.364,1.514c0.804-0.202,1.431-0.993,1.217-1.834c-0.165-0.614-0.769-1.111-1.43-0.945
		c-0.047,0.012-0.096,0.034-0.142,0.06c0.165,0.093,0.271,0.283,0.271,0.495c0,0.332-0.261,0.592-0.591,0.592
		c-0.32,0-0.592-0.26-0.592-0.592c0-0.449,0.567-0.839,0.957-0.934c0.863-0.225,1.69,0.391,1.904,1.218
		C55.18,16.604,54.93,17.267,54.458,17.717L54.458,17.717z M65.19,14.866L65.19,14.866c3.251-0.58,6.585-0.922,9.977-1.018
		c-0.284-0.059-0.556-0.119-0.814-0.2c-0.911-0.272-1.739-0.686-2.46-1.195l-0.035-0.023c-0.886-0.614-1.607-1.336-2.317-2.046
		c-0.921-0.911-1.809-1.786-2.965-2.365c-1.159-0.556-2.436-0.733-3.584-0.462c-2.115,0.521-3.568,2.649-3.014,4.813
		c0.189,0.722,0.58,1.385,1.17,1.905c1.432,1.253,3.642,1.063,4.646-0.64c0.331-0.555,0.402-1.194,0.26-1.774
		c-0.153-0.591-0.521-1.111-1.075-1.442c-0.261-0.153-0.544-0.236-0.816-0.248c-0.296-0.024-0.579,0.023-0.838,0.142
		c-0.355,0.154-0.627,0.354-0.781,0.615c-0.143,0.261-0.2,0.567-0.143,0.922c0.024,0.119,0.049,0.237,0.096,0.344
		c0.094-0.189,0.295-0.32,0.521-0.32c0.33,0,0.59,0.273,0.59,0.592c0,0.332-0.26,0.591-0.59,0.591c-0.179,0-0.355-0.082-0.485-0.188
		c-0.095-0.06-0.178-0.142-0.248-0.236c-0.142-0.201-0.236-0.461-0.272-0.71c-0.07-0.461,0-0.863,0.189-1.194
		c0.2-0.331,0.532-0.603,0.957-0.779c0.331-0.144,0.674-0.202,1.028-0.178c0.344,0.022,0.674,0.117,0.993,0.308
		c0.65,0.39,1.087,1.004,1.254,1.678c0.176,0.687,0.095,1.432-0.295,2.082C65.888,14.263,65.569,14.606,65.19,14.866L65.19,14.866z
		 M79.021,13.849L79.021,13.849c3.392,0.096,6.726,0.438,9.977,1.018c-0.366-0.26-0.696-0.604-0.944-1.029
		c-0.392-0.65-0.474-1.396-0.297-2.082c0.166-0.674,0.604-1.288,1.253-1.678c0.32-0.19,0.65-0.285,0.993-0.308
		c0.355-0.024,0.709,0.034,1.029,0.178c0.425,0.177,0.756,0.448,0.956,0.779c0.189,0.331,0.26,0.733,0.189,1.194
		c-0.033,0.249-0.129,0.509-0.271,0.71c-0.071,0.095-0.154,0.177-0.248,0.236c-0.13,0.106-0.308,0.188-0.484,0.188
		c-0.332,0-0.591-0.259-0.591-0.591c0-0.318,0.259-0.592,0.591-0.592c0.225,0,0.425,0.131,0.52,0.32
		c0.047-0.106,0.072-0.225,0.095-0.344c0.06-0.354,0-0.661-0.142-0.922c-0.154-0.261-0.426-0.461-0.77-0.615
		c-0.271-0.118-0.555-0.166-0.851-0.142c-0.271,0.012-0.556,0.095-0.814,0.248c-0.557,0.331-0.923,0.852-1.076,1.442
		c-0.143,0.58-0.071,1.22,0.261,1.774c1.004,1.703,3.215,1.893,4.645,0.64c0.591-0.521,0.98-1.184,1.17-1.905
		c0.557-2.164-0.886-4.293-3.014-4.813c-1.147-0.271-2.424-0.094-3.57,0.462c-1.169,0.579-2.057,1.454-2.979,2.365
		c-0.709,0.71-1.431,1.432-2.316,2.046l-0.036,0.023c-0.721,0.51-1.548,0.923-2.459,1.195C79.576,13.729,79.305,13.79,79.021,13.849
		L79.021,13.849z M91.811,15.434L91.811,15.434c2.707,0.603,5.356,1.372,7.919,2.283c-0.472-0.45-0.719-1.112-0.544-1.799
		c0.214-0.827,1.042-1.442,1.904-1.218c0.39,0.095,0.958,0.484,0.958,0.934c0,0.332-0.272,0.592-0.591,0.592
		c-0.332,0-0.592-0.26-0.592-0.592c0-0.212,0.106-0.402,0.271-0.495c-0.047-0.025-0.095-0.048-0.142-0.06
		c-0.662-0.166-1.266,0.331-1.431,0.945c-0.212,0.841,0.414,1.632,1.219,1.834c1.062,0.283,2.079-0.509,2.364-1.514
		c0.105-0.414,0.105-0.863-0.014-1.278c-0.128-0.426-0.365-0.827-0.744-1.147c-0.544-0.473-1.348-0.792-2.436-0.779
		c-1.523,0.022-2.753,0.544-4.03,1.088C94.695,14.748,93.43,15.292,91.811,15.434L91.811,15.434z M77.095,0L77.095,0
		c-0.45,0-0.805,0.758-0.805,1.691c0,0.946,0.354,1.704,0.805,1.704c0.448,0,0.804-0.758,0.804-1.704
		C77.898,0.758,77.543,0,77.095,0L77.095,0z M77.095,13.624L77.095,13.624c0.922,0.012,1.808-0.118,2.623-0.366
		c0.875-0.261,1.667-0.651,2.353-1.124c0.639-0.462,1.171-1.017,1.572-1.62c0.438-0.639,0.722-1.337,0.875-2.034
		c0.023-0.107,0.047-0.2,0.06-0.309c0.319-2.187-0.935-4.339-3.169-4.823C81.325,3.336,81.23,3.312,81.124,3.3
		c-0.354-0.048-0.696-0.048-1.039,0.012c-0.686,0.117-1.312,0.438-1.785,0.91c-0.721,0.687-1.063,1.632-0.898,2.602
		c0.119,0.628,0.448,1.124,0.91,1.443c0.898,0.615,2.294,0.544,2.968-0.379c0.154-0.201,0.259-0.437,0.318-0.686
		c-0.06,0.023-0.105,0.023-0.164,0.023c-0.332,0-0.592-0.26-0.592-0.592c0-0.318,0.26-0.59,0.592-0.59
		c0.081,0,0.153,0.023,0.223,0.047c0.39,0.165,0.45,0.65,0.368,1.088c-0.084,0.402-0.284,0.769-0.415,0.946
		c-0.803,1.088-2.435,1.206-3.511,0.473c-0.473-0.318-0.827-0.78-1.004-1.36c-0.178,0.58-0.532,1.042-0.994,1.36
		c-1.088,0.733-2.718,0.615-3.522-0.473c-0.13-0.178-0.331-0.544-0.413-0.946c-0.082-0.438-0.023-0.923,0.366-1.088
		c0.07-0.023,0.142-0.047,0.226-0.047c0.33,0,0.59,0.271,0.59,0.59c0,0.332-0.26,0.592-0.59,0.592c-0.061,0-0.107,0-0.166-0.023
		c0.059,0.249,0.166,0.484,0.319,0.686c0.674,0.923,2.067,0.994,2.967,0.379c0.461-0.319,0.792-0.815,0.91-1.443
		c0.166-0.97-0.177-1.915-0.898-2.602c-0.473-0.473-1.1-0.793-1.786-0.91c-0.343-0.06-0.685-0.06-1.039-0.012
		c-0.106,0.012-0.201,0.036-0.283,0.048c-2.234,0.484-3.487,2.637-3.169,4.823c0.013,0.108,0.036,0.201,0.059,0.309
		c0.154,0.697,0.45,1.396,0.876,2.034c0.401,0.604,0.933,1.158,1.571,1.62c0.687,0.473,1.49,0.863,2.354,1.124
		C75.285,13.506,76.172,13.636,77.095,13.624z"/>
	<path fill="#545454" d="M48.122,33.739c4.29-2.624,8.96-4.682,13.913-6.078c4.788-1.335,9.847-2.057,15.06-2.057
		c5.225,0,10.271,0.722,15.06,2.057c4.952,1.396,9.621,3.454,13.912,6.078l-0.2,0.345c-4.267-2.603-8.902-4.647-13.818-6.031
		c-4.753-1.337-9.765-2.046-14.953-2.046c-5.19,0-10.202,0.709-14.953,2.046c-4.918,1.384-9.552,3.429-13.819,6.031L48.122,33.739z"
		/>
	<path fill-rule="evenodd" clip-rule="evenodd" fill="#373737" d="M77.354,27.674l0.604,1.868c0.034,0.118,0.141,0.189,0.26,0.189
		h1.963c0.13,0,0.225,0.071,0.27,0.189c0.037,0.117-0.011,0.237-0.105,0.308l-1.584,1.147c-0.106,0.07-0.141,0.2-0.106,0.307
		l0.615,1.868c0.035,0.119,0,0.236-0.106,0.309c-0.096,0.07-0.225,0.07-0.319,0L77.26,32.7c-0.106-0.071-0.225-0.071-0.331,0
		l-1.584,1.159c-0.095,0.07-0.225,0.07-0.319,0c-0.094-0.072-0.143-0.189-0.105-0.309l0.614-1.868c0.034-0.106,0-0.236-0.095-0.307
		l-1.596-1.147c-0.096-0.07-0.143-0.19-0.096-0.308c0.036-0.118,0.131-0.189,0.261-0.189h1.963c0.118,0,0.224-0.071,0.26-0.189
		l0.603-1.868c0.036-0.118,0.142-0.189,0.261-0.189C77.212,27.484,77.317,27.556,77.354,27.674z"/>
	<path fill-rule="evenodd" clip-rule="evenodd" fill="#545454" d="M82.024,31.281h7.788v0.39h-7.788V31.281L82.024,31.281z
		 M64.388,31.281L64.388,31.281h7.777v0.39h-7.777V31.281z"/>
	<g>
		<path fill-rule="evenodd" clip-rule="evenodd" fill="#373737" d="M116.023,32.993c0.288,0.236,0.33,0.649,0.102,0.925
			s-0.64,0.317-0.919,0.088c-0.276-0.219-0.321-0.631-0.1-0.912S115.741,32.769,116.023,32.993L116.023,32.993z M38.157,33.001
			L38.157,33.001c0.29-0.232,0.703-0.188,0.925,0.093c0.221,0.281,0.177,0.693-0.105,0.919c-0.273,0.223-0.685,0.181-0.914-0.095
			C37.835,33.643,37.877,33.229,38.157,33.001z"/>
		<path fill="#373737" d="M43.753,30.137c-0.812-0.56-1.635-1.104-2.471-1.638l-0.234,0.062l-0.125-0.182l0.609-0.414
			c0.079-0.053,0.148-0.087,0.198-0.099c0.058-0.018,0.105-0.016,0.162,0.003c0.063,0.024,0.117,0.055,0.187,0.107
			c0.567,0.396,1.13,0.794,1.687,1.201c-0.127-0.665-0.245-1.332-0.356-2l-0.345,0.043l-0.112-0.179l0.992-0.614l0.109,0.181
			l-0.176,0.278c0.154,0.913,0.322,1.822,0.503,2.724l1.072,1.688l0.401,0.027l0.138,0.218l-0.392,0.248l-0.42,0.271l-0.389,0.253
			l-0.142-0.213l0.142-0.379L43.753,30.137L43.753,30.137z M51.119,27.144L51.119,27.144c0.126,0.263,0.182,0.521,0.167,0.774
			c-0.016,0.253-0.102,0.477-0.244,0.682c-0.145,0.206-0.357,0.383-0.622,0.519c-0.271,0.139-0.533,0.205-0.784,0.202
			c-0.254-0.013-0.486-0.071-0.695-0.197c-0.215-0.137-0.393-0.331-0.532-0.589l-1.292-2.366c-0.141-0.258-0.206-0.515-0.194-0.771
			c0.017-0.248,0.102-0.495,0.258-0.71c0.154-0.217,0.383-0.399,0.679-0.561c0.293-0.143,0.585-0.225,0.852-0.225
			c0.266-0.001,0.512,0.065,0.727,0.205c0.215,0.141,0.386,0.343,0.514,0.607L51.119,27.144L51.119,27.144z M49.103,28.161
			L49.103,28.161c0.141,0.267,0.308,0.449,0.482,0.533c0.175,0.083,0.377,0.071,0.597-0.04c0.109-0.058,0.19-0.13,0.257-0.216
			c0.059-0.081,0.097-0.181,0.108-0.279c0.014-0.109,0.012-0.211-0.009-0.334c-0.025-0.109-0.062-0.224-0.119-0.34l-1.201-2.413
			c-0.077-0.155-0.173-0.283-0.289-0.389c-0.112-0.099-0.237-0.158-0.385-0.177c-0.139-0.023-0.286,0.002-0.447,0.083
			c-0.237,0.122-0.377,0.287-0.412,0.483c-0.037,0.195,0.012,0.429,0.158,0.705L49.103,28.161L49.103,28.161z M55.952,26.046
			L55.952,26.046c0.156-0.062,0.275-0.146,0.354-0.242c0.087-0.092,0.127-0.215,0.128-0.362c0.003-0.146-0.032-0.32-0.108-0.526
			l-1.251-3.39l-0.356-0.083l-0.083-0.223l1.125-0.41l0.079,0.226L55.61,21.33l1.227,3.418c0.09,0.251,0.131,0.471,0.125,0.666
			c-0.003,0.197-0.045,0.367-0.119,0.521c-0.086,0.149-0.186,0.283-0.325,0.385c-0.137,0.11-0.295,0.211-0.475,0.279
			c-0.181,0.068-0.361,0.109-0.539,0.112c-0.173,0.011-0.348-0.021-0.514-0.081c-0.159-0.063-0.313-0.159-0.448-0.302
			c-0.136-0.144-0.253-0.333-0.348-0.562l-1.381-3.338l-0.425-0.082l-0.085-0.202c0.481-0.203,0.968-0.398,1.455-0.59l0.079,0.204
			l-0.239,0.352l1.335,3.356c0.079,0.196,0.171,0.356,0.277,0.453c0.097,0.1,0.215,0.161,0.337,0.181
			C55.676,26.112,55.804,26.102,55.952,26.046L55.952,26.046z M59.969,19.981L59.969,19.981l0.159,0.573l0.148,0.53l0.145,0.521
			l0.161,0.574l0.486-0.135c0.168-0.044,0.294-0.106,0.374-0.193c0.09-0.091,0.141-0.189,0.165-0.318
			c0.015-0.127,0.008-0.268-0.045-0.434l-0.177-0.684c-0.032-0.163-0.096-0.297-0.169-0.394c-0.076-0.103-0.172-0.172-0.289-0.207
			c-0.125-0.024-0.272-0.023-0.455,0.025L59.969,19.981L59.969,19.981z M61.567,22.928L61.567,22.928
			c-0.079-0.12-0.159-0.212-0.231-0.27c-0.083-0.064-0.167-0.099-0.262-0.101c-0.095-0.003-0.214,0.012-0.362,0.053l0.113,0.406
			l0.125,0.45l0.128,0.459l0.111,0.398l0.386,0.14l0.059,0.213l-0.447,0.124l-0.471,0.136l-0.438,0.129l-0.063-0.211l0.245-0.323
			l-0.643-2.19l-0.641-2.19l-0.341-0.11l-0.062-0.21c0.522-0.157,1.049-0.305,1.574-0.448c0.213-0.057,0.422-0.094,0.618-0.098
			s0.38,0.018,0.543,0.079c0.162,0.063,0.305,0.16,0.417,0.303c0.123,0.14,0.205,0.317,0.261,0.551l0.167,0.686
			c0.055,0.223,0.064,0.418,0.029,0.587c-0.032,0.169-0.11,0.319-0.211,0.441c-0.102,0.119-0.233,0.229-0.387,0.295
			c0.083,0.027,0.156,0.056,0.22,0.086c0.065,0.032,0.114,0.075,0.165,0.129c0.051,0.055,0.102,0.107,0.139,0.183l0.588,0.884
			c0.031,0.049,0.069,0.097,0.108,0.144c0.042,0.057,0.089,0.102,0.134,0.138s0.098,0.062,0.146,0.077
			c0.05,0.017,0.103,0.015,0.158-0.02l0.07,0.296c-0.045,0.039-0.092,0.069-0.146,0.101c-0.058,0.023-0.121,0.058-0.181,0.072
			c-0.066,0.025-0.117,0.038-0.177,0.052c-0.11,0.028-0.208,0.034-0.285,0.015c-0.078-0.026-0.145-0.066-0.202-0.118
			c-0.061-0.061-0.115-0.132-0.171-0.211c-0.05-0.083-0.106-0.163-0.169-0.261L61.567,22.928L61.567,22.928z M68.582,18.221
			L68.582,18.221l0.591,4.417l0.355,0.195l0.032,0.263l-0.459,0.061l-0.494,0.069l-0.459,0.069l-0.04-0.264l0.287-0.284l-0.65-4.409
			l-0.603,0.092l-0.108,0.928l-0.37,0.061l-0.201-1.37c1.087-0.181,2.177-0.334,3.271-0.46l0.186,1.372l-0.382,0.045l-0.371-0.86
			L68.582,18.221L68.582,18.221z M75.902,22.629L75.902,22.629c-0.465,0.009-0.929,0.022-1.393,0.043s-0.929,0.046-1.399,0.077
			l-0.016-0.22l0.327-0.259l-0.141-2.288l-0.141-2.289l-0.325-0.182l-0.014-0.201l0.966-0.056l0.955-0.043l0.966-0.027l0.026,1.219
			l-0.404,0.011l-0.239-0.755l-1.092,0.044l0.05,1.017l0.05,1.025l0.744-0.031l0.188-0.429l0.232-0.008l0.012,0.423l0.014,0.467
			l0.013,0.423l-0.227,0.006L74.84,20.19l-0.738,0.03l0.042,0.862l0.042,0.852c0.002,0.063-0.005,0.109-0.03,0.148
			c-0.015,0.047-0.058,0.076-0.119,0.098l0.003,0.046l0.635-0.029l0.636-0.022l0.229-0.759l0.34-0.008L75.902,22.629L75.902,22.629z
			 M80.513,19.086L80.513,19.086l0.812-1.422l-0.277-0.154l0.014-0.219l1.127,0.078l-0.019,0.229l-0.295,0.115
			c-0.399,0.662-0.788,1.33-1.165,2.001c0.295,0.9,0.576,1.805,0.841,2.711l0.26,0.185l-0.015,0.192l-0.691-0.052
			c-0.069-0.004-0.13-0.008-0.173-0.028c-0.052-0.014-0.094-0.042-0.127-0.09c-0.032-0.04-0.072-0.116-0.101-0.219
			c-0.181-0.566-0.367-1.129-0.561-1.693c-0.282,0.521-0.559,1.046-0.827,1.57l0.275,0.158l-0.01,0.221l-1.077-0.036l0.005-0.221
			l0.286-0.14c0.374-0.743,0.76-1.478,1.162-2.213c-0.283-0.842-0.578-1.684-0.886-2.521l-0.233-0.145l0.005-0.201l0.736,0.023
			c0.077,0.004,0.144,0.006,0.191,0.026c0.047,0.011,0.083,0.04,0.12,0.087c0.036,0.048,0.071,0.122,0.114,0.216L80.513,19.086
			L80.513,19.086z M86.998,18.422L86.998,18.422l-0.689,4.403l0.293,0.289l-0.043,0.262l-0.467-0.073l-0.494-0.075l-0.459-0.063
			l0.036-0.264l0.364-0.19l0.631-4.411l-0.602-0.083l-0.369,0.858l-0.381-0.049l0.207-1.37c1.089,0.135,2.175,0.299,3.256,0.488
			l-0.203,1.37L87.7,19.448l-0.121-0.932L86.998,18.422L86.998,18.422z M92.675,19.307L92.675,19.307l0.053-0.214
			c0.465,0.116,0.928,0.237,1.39,0.365l-0.059,0.212l-0.349,0.123l-0.525,1.948l1.214,0.341l0.565-1.937l-0.234-0.287l0.061-0.211
			c0.461,0.132,0.92,0.269,1.376,0.412l-0.065,0.209l-0.353,0.111l-1.348,4.4l0.262,0.284l-0.066,0.21
			c-0.448-0.142-0.898-0.274-1.35-0.403l0.061-0.213l0.365-0.094l0.6-2.052l-1.204-0.338l-0.558,2.062l0.271,0.274l-0.059,0.212
			c-0.454-0.126-0.912-0.245-1.371-0.361l0.053-0.213l0.372-0.105l1.143-4.458L92.675,19.307L92.675,19.307z M99.921,27.229
			L99.921,27.229c-0.429-0.183-0.857-0.357-1.289-0.528c-0.432-0.17-0.866-0.335-1.301-0.496l0.075-0.206l0.397-0.107l0.805-2.147
			l0.803-2.146l-0.215-0.295l0.07-0.189l0.904,0.342l0.883,0.347l0.894,0.37l-0.475,1.124l-0.364-0.152l0.08-0.79l-1.015-0.406
			l-0.369,0.948l-0.372,0.957l0.691,0.274l0.348-0.314l0.223,0.092l-0.162,0.39l-0.178,0.433l-0.161,0.391l-0.218-0.09l-0.029-0.458
			l-0.688-0.272L98.946,25.1l-0.31,0.796c-0.024,0.059-0.049,0.098-0.078,0.126c-0.042,0.033-0.093,0.044-0.158,0.038l-0.017,0.042
			l0.592,0.233l0.589,0.238l0.526-0.597l0.305,0.129L99.921,27.229L99.921,27.229z M105.744,24.455L105.744,24.455l-0.269,0.53
			l-0.248,0.492l-0.244,0.482l-0.269,0.532l0.44,0.225c0.154,0.079,0.288,0.119,0.415,0.114c0.12-0.011,0.23-0.045,0.329-0.128
			c0.095-0.084,0.185-0.192,0.268-0.347l0.33-0.625c0.077-0.145,0.121-0.287,0.13-0.406c0.022-0.123-0.009-0.244-0.072-0.35
			c-0.067-0.097-0.184-0.201-0.345-0.283L105.744,24.455L105.744,24.455z M104.937,27.71L104.937,27.71
			c0.016-0.149,0.019-0.27,0.004-0.36c-0.01-0.098-0.058-0.185-0.126-0.251c-0.069-0.065-0.165-0.136-0.295-0.202l-0.19,0.377
			l-0.211,0.418l-0.215,0.425l-0.188,0.369l0.183,0.359l-0.101,0.197l-0.413-0.211l-0.432-0.215l-0.418-0.203l0.097-0.198
			l0.397-0.072l1.004-2.051l1.004-2.051l-0.177-0.31l0.096-0.198c0.494,0.238,0.985,0.483,1.473,0.736
			c0.196,0.1,0.365,0.21,0.513,0.34c0.148,0.129,0.27,0.267,0.348,0.424c0.077,0.157,0.116,0.324,0.113,0.51
			c-0.013,0.182-0.064,0.372-0.179,0.582l-0.34,0.618c-0.11,0.202-0.243,0.348-0.382,0.45c-0.141,0.102-0.289,0.167-0.454,0.183
			c-0.155,0.021-0.318,0.015-0.484-0.042c0.052,0.079,0.078,0.146,0.104,0.211c0.027,0.066,0.041,0.136,0.034,0.206
			c0.001,0.074,0.003,0.148-0.013,0.233l-0.161,1.049c-0.011,0.057-0.021,0.113-0.024,0.175c-0.008,0.068-0.003,0.134,0.006,0.191
			c0.008,0.058,0.03,0.11,0.054,0.156c0.033,0.05,0.075,0.083,0.13,0.094l-0.146,0.264c-0.052,0.003-0.114-0.011-0.176-0.024
			c-0.06-0.021-0.12-0.036-0.183-0.069c-0.059-0.021-0.113-0.051-0.158-0.075c-0.106-0.059-0.176-0.116-0.22-0.182
			c-0.039-0.074-0.067-0.15-0.077-0.229c-0.004-0.085,0.003-0.174,0.022-0.268c0.013-0.098,0.025-0.194,0.044-0.309L104.937,27.71
			L104.937,27.71z M110.188,32.851L110.188,32.851c-0.382-0.264-0.769-0.52-1.156-0.774c-0.391-0.254-0.782-0.502-1.177-0.746
			l0.116-0.188l0.409-0.025l1.217-1.941l1.216-1.943l-0.151-0.334l0.105-0.171l0.818,0.517l0.794,0.516l0.802,0.54l-0.688,1.006
			l-0.326-0.221l0.236-0.758l-0.914-0.601l-0.551,0.856l-0.557,0.863l0.625,0.406l0.4-0.238l0.193,0.128l-0.235,0.351l-0.262,0.389
			l-0.234,0.35l-0.188-0.126l0.061-0.455l-0.618-0.403l-0.467,0.725l-0.463,0.717c-0.034,0.054-0.066,0.088-0.108,0.104
			c-0.041,0.028-0.093,0.028-0.154,0.01l-0.025,0.039l0.535,0.346l0.528,0.351l0.635-0.479l0.272,0.188L110.188,32.851z"/>
	</g>
	<path fill-rule="evenodd" clip-rule="evenodd" fill="#373737" d="M14.351,37.868h125.487c7.896,0,14.349,6.456,14.349,14.357
		c0,7.888-6.452,14.357-14.349,14.357H14.351C6.454,66.583,0,60.113,0,52.226C0,44.324,6.454,37.868,14.351,37.868z"/>
	<path fill="#FFFFFF" d="M14.351,39.938c-3.38,0-6.441,1.385-8.676,3.619c-2.223,2.224-3.605,5.287-3.605,8.669
		c0,3.371,1.383,6.445,3.605,8.669c2.234,2.223,5.296,3.606,8.676,3.606h125.487c3.381,0,6.442-1.384,8.676-3.606
		c2.224-2.224,3.604-5.298,3.604-8.669c0-3.382-1.381-6.445-3.604-8.669c-2.233-2.234-5.295-3.619-8.676-3.619H14.351L14.351,39.938
		z M5.249,43.131L5.249,43.131c2.34-2.342,5.556-3.785,9.102-3.785h125.487c3.546,0,6.761,1.443,9.101,3.785
		c2.33,2.33,3.783,5.547,3.783,9.095c0,3.535-1.453,6.753-3.783,9.094c-2.34,2.331-5.555,3.785-9.101,3.785H14.351
		c-3.546,0-6.762-1.454-9.102-3.785c-2.328-2.341-3.782-5.559-3.782-9.094C1.467,48.678,2.921,45.461,5.249,43.131z"/>
	<rect x="13.097" y="35.432" fill-rule="evenodd" clip-rule="evenodd" fill="#545454" width="128.006" height="0.402"/>
	<path fill="#545454" d="M17.365,75.523c0.023-0.592,0.39-1.147,0.98-1.372c0.509-0.201,1.053-0.178,1.513,0.023
		c0.461,0.212,0.84,0.592,1.041,1.101c0.26,0.638,0.225,1.336-0.036,1.927c-0.26,0.592-0.744,1.076-1.395,1.336
		c-0.827,0.32-1.702,0.273-2.446-0.059c-0.756-0.33-1.372-0.946-1.69-1.762c-0.226-0.567-0.308-1.147-0.271-1.715
		c0.034-0.58,0.189-1.147,0.461-1.667c0.627-1.16,1.524-1.751,2.553-2.069c1.051-0.308,2.258-0.333,3.44-0.333h7.99
		c6.194,6.186,13.593,11.177,21.82,14.583c0.509,0.213,1.017,0.413,1.524,0.615c-1.016,0.059-1.902,0.851-2.187,1.868
		c-0.142,0.485-0.13,1.005,0.013,1.49c0.141,0.496,0.425,0.958,0.851,1.337c0.614,0.532,1.513,0.886,2.719,0.874
		c1.595-0.011,2.86-0.555,4.173-1.11c0.886-0.379,1.785-0.758,2.825-0.994c-0.852,0.591-1.407,1.442-1.656,2.389
		c-0.603,2.377,0.971,4.72,3.312,5.286c1.241,0.297,2.612,0.119,3.841-0.496c1.229-0.591,2.14-1.502,3.085-2.437l0.035-0.035
		c-0.271,0.508-0.461,1.04-0.578,1.584c-0.024,0.107-0.048,0.214-0.06,0.331c-0.355,2.401,1.028,4.743,3.475,5.264
		c0.096,0.023,0.202,0.048,0.309,0.059c0.39,0.059,0.791,0.047,1.17-0.011c0.757-0.131,1.453-0.498,1.997-1.018
		c0.438-0.427,0.757-0.946,0.923-1.502c0.165,0.556,0.484,1.075,0.922,1.502c0.544,0.52,1.24,0.887,2.01,1.018
		c0.365,0.058,0.767,0.069,1.158,0.011c0.106-0.011,0.213-0.035,0.308-0.059c2.446-0.521,3.829-2.862,3.474-5.264
		c-0.011-0.117-0.034-0.224-0.059-0.331c-0.105-0.544-0.308-1.076-0.579-1.584l0.036,0.035c0.944,0.935,1.855,1.846,3.085,2.437
		c1.229,0.615,2.6,0.793,3.842,0.496c2.34-0.566,3.912-2.909,3.31-5.286c-0.247-0.946-0.804-1.798-1.655-2.389
		c1.04,0.236,1.938,0.615,2.825,0.994c1.312,0.556,2.578,1.1,4.173,1.11c1.206,0.012,2.104-0.342,2.719-0.874
		c0.425-0.379,0.71-0.841,0.851-1.337c0.143-0.485,0.153-1.005,0.012-1.49c-0.283-1.018-1.17-1.81-2.187-1.868
		c0.508-0.202,1.017-0.402,1.524-0.615c8.228-3.406,15.628-8.397,21.822-14.583h7.99c1.182,0,2.388,0.025,3.438,0.333
		c1.029,0.318,1.927,0.909,2.554,2.069c0.273,0.52,0.427,1.087,0.461,1.667c0.035,0.567-0.047,1.147-0.272,1.715
		c-0.318,0.815-0.933,1.432-1.69,1.762c-0.744,0.332-1.618,0.379-2.445,0.059c-0.65-0.26-1.136-0.744-1.395-1.336
		c-0.261-0.591-0.284-1.289-0.036-1.927c0.201-0.509,0.579-0.889,1.04-1.101c0.461-0.201,1.006-0.225,1.514-0.023
		c0.591,0.225,0.957,0.78,0.98,1.372c-0.082-0.048-0.177-0.07-0.285-0.07c-0.328,0.011-0.577,0.283-0.577,0.603
		c0.012,0.33,0.282,0.592,0.603,0.579c0.13,0,0.248-0.047,0.342-0.118c0.227-0.154,0.284-0.485,0.309-0.744
		c0.082-0.841-0.391-1.68-1.229-1.999c-0.603-0.237-1.253-0.202-1.81,0.035c-0.555,0.247-1.016,0.709-1.265,1.312
		c-0.283,0.757-0.247,1.549,0.047,2.235c0.167,0.378,0.415,0.723,0.734,1.004c-1.229-0.555-2.151-1.607-2.979-2.564
		c-0.449-0.521-0.875-1.007-1.323-1.385c-0.438-0.366-0.863-0.615-1.419-0.722c-0.414-0.082-0.852-0.07-1.217,0.071
		c-0.639,0.249-1.041,0.898-1.016,1.573c0.011,0.343,0.152,0.649,0.354,0.875c0.2,0.236,0.473,0.39,0.744,0.449
		c0.083,0.012,0.166,0.012,0.236,0.012c0.343-0.012,0.662-0.178,0.851-0.461c0.154-0.236,0.225-0.628,0.071-0.887
		c-0.106-0.178-0.296-0.295-0.52-0.295c-0.332,0.011-0.58,0.284-0.58,0.602c0.013,0.284,0.201,0.51,0.462,0.568
		c-0.095,0.047-0.19,0.071-0.296,0.071c-0.047,0.012-0.095,0-0.153-0.012c-0.178-0.036-0.366-0.143-0.509-0.308
		c-0.153-0.166-0.248-0.391-0.26-0.638c-0.023-0.498,0.284-0.994,0.756-1.172c0.297-0.118,0.662-0.13,1.004-0.059
		c0.521,0.094,0.911,0.342,1.313,0.708c0.391,0.344,0.78,0.792,1.192,1.267c1.042,1.182,2.2,2.508,3.902,2.956
		c0.921,0.248,2.128,0.226,3.026-0.165c0.838-0.367,1.536-1.064,1.902-1.987c0.237-0.615,0.331-1.253,0.297-1.881
		c-0.036-0.638-0.214-1.264-0.521-1.833c-0.673-1.265-1.655-1.915-2.778-2.259c-1.11-0.331-2.34-0.354-3.557-0.354h-8.062h-0.083
		l-0.058,0.058c-6.182,6.187-13.559,11.165-21.763,14.559c-7.884,3.264-16.537,5.074-25.614,5.074
		c-9.079,0-17.731-1.811-25.615-5.074c-8.203-3.394-15.58-8.372-21.75-14.559l-0.071-0.058h-0.071h-8.072
		c-1.218,0-2.448,0.022-3.558,0.354c-1.124,0.344-2.105,0.994-2.778,2.259c-0.309,0.569-0.485,1.195-0.521,1.833
		c-0.034,0.628,0.06,1.266,0.297,1.881c0.366,0.923,1.063,1.62,1.902,1.987c0.898,0.391,2.104,0.413,3.026,0.165
		c1.714-0.448,2.872-1.774,3.901-2.956c0.413-0.475,0.803-0.923,1.194-1.267c0.412-0.366,0.79-0.614,1.312-0.708
		c0.354-0.071,0.708-0.06,1.005,0.059c0.473,0.178,0.78,0.674,0.756,1.172c-0.012,0.247-0.106,0.472-0.249,0.638
		c-0.153,0.165-0.342,0.271-0.52,0.308c-0.06,0.012-0.106,0.023-0.154,0.012c-0.105,0-0.2-0.024-0.295-0.071
		c0.26-0.059,0.449-0.284,0.462-0.568c0-0.317-0.248-0.591-0.58-0.602c-0.225,0-0.414,0.117-0.52,0.295
		c-0.153,0.259-0.083,0.65,0.07,0.887c0.189,0.283,0.508,0.449,0.852,0.461c0.07,0,0.153,0,0.236-0.012
		c0.271-0.06,0.543-0.213,0.744-0.449c0.202-0.226,0.343-0.532,0.355-0.875c0.035-0.675-0.378-1.324-1.018-1.573
		c-0.366-0.142-0.804-0.153-1.217-0.071c-0.556,0.106-0.981,0.355-1.419,0.722c-0.438,0.378-0.874,0.864-1.323,1.385
		c-0.827,0.957-1.749,2.01-2.979,2.564c0.319-0.281,0.567-0.626,0.733-1.004c0.295-0.687,0.331-1.479,0.047-2.235
		c-0.236-0.604-0.71-1.065-1.265-1.312c-0.556-0.237-1.205-0.272-1.809-0.035c-0.828,0.319-1.312,1.158-1.229,1.999
		c0.023,0.259,0.096,0.59,0.308,0.744c0.094,0.071,0.213,0.118,0.342,0.118c0.32,0.013,0.592-0.249,0.604-0.579
		c0-0.319-0.249-0.592-0.578-0.603C17.542,75.453,17.448,75.476,17.365,75.523L17.365,75.523z M54.458,86.723L54.458,86.723
		c2.576,0.922,5.213,1.69,7.92,2.294c-1.62,0.143-2.885,0.686-4.114,1.207c-1.276,0.544-2.506,1.064-4.03,1.075
		c-1.087,0.024-1.892-0.295-2.435-0.769c-0.366-0.33-0.614-0.733-0.745-1.146c-0.119-0.426-0.119-0.864-0.012-1.278
		c0.283-1.016,1.3-1.798,2.364-1.525c0.804,0.213,1.431,0.994,1.217,1.845c-0.165,0.615-0.769,1.111-1.43,0.935
		c-0.047-0.013-0.096-0.023-0.142-0.048c0.165-0.105,0.271-0.296,0.271-0.497c0-0.33-0.261-0.591-0.591-0.591
		c-0.32,0-0.592,0.261-0.592,0.591c0,0.438,0.567,0.828,0.957,0.936c0.863,0.225,1.69-0.391,1.904-1.23
		C55.18,87.834,54.93,87.185,54.458,86.723L54.458,86.723z M65.19,89.573L65.19,89.573c3.251,0.58,6.585,0.934,9.977,1.028
		c-0.284,0.048-0.556,0.118-0.814,0.2c-0.911,0.273-1.739,0.675-2.46,1.184l-0.035,0.024c-0.886,0.626-1.607,1.348-2.317,2.046
		c-0.921,0.91-1.809,1.798-2.965,2.364c-1.159,0.568-2.436,0.745-3.584,0.462c-2.115-0.509-3.568-2.638-3.014-4.802
		c0.189-0.721,0.58-1.396,1.17-1.904c1.432-1.253,3.642-1.063,4.646,0.64c0.331,0.555,0.402,1.194,0.26,1.772
		c-0.153,0.58-0.521,1.113-1.075,1.432c-0.261,0.153-0.544,0.235-0.816,0.261c-0.296,0.011-0.579-0.036-0.838-0.143
		c-0.355-0.152-0.627-0.366-0.781-0.626c-0.143-0.249-0.2-0.557-0.143-0.924c0.024-0.118,0.049-0.224,0.096-0.33
		c0.094,0.188,0.295,0.307,0.521,0.307c0.33,0,0.59-0.26,0.59-0.591c0-0.318-0.26-0.592-0.59-0.592
		c-0.179,0-0.355,0.095-0.485,0.189c-0.095,0.071-0.178,0.153-0.248,0.249c-0.142,0.201-0.236,0.449-0.272,0.71
		c-0.07,0.461,0,0.851,0.189,1.183c0.2,0.343,0.532,0.604,0.957,0.791c0.331,0.132,0.674,0.202,1.028,0.179
		c0.344-0.023,0.674-0.131,0.993-0.309c0.65-0.389,1.087-1.005,1.254-1.691c0.176-0.673,0.095-1.419-0.295-2.069
		C65.888,90.188,65.569,89.845,65.19,89.573L65.19,89.573z M79.021,90.602L79.021,90.602c3.392-0.095,6.726-0.448,9.977-1.028
		c-0.366,0.271-0.696,0.614-0.944,1.04c-0.392,0.65-0.474,1.396-0.297,2.069c0.166,0.687,0.604,1.303,1.253,1.691
		c0.32,0.178,0.65,0.285,0.993,0.309c0.355,0.023,0.709-0.047,1.029-0.179c0.425-0.188,0.756-0.448,0.956-0.791
		c0.189-0.332,0.26-0.722,0.189-1.183c-0.033-0.261-0.129-0.509-0.271-0.71c-0.071-0.096-0.154-0.178-0.248-0.249
		c-0.13-0.095-0.308-0.189-0.484-0.189c-0.332,0-0.591,0.273-0.591,0.592c0,0.331,0.259,0.591,0.591,0.591
		c0.225,0,0.425-0.118,0.52-0.307c0.047,0.106,0.072,0.212,0.095,0.33c0.06,0.367,0,0.675-0.142,0.924
		c-0.154,0.26-0.426,0.474-0.77,0.626c-0.271,0.106-0.555,0.153-0.851,0.143c-0.271-0.025-0.556-0.107-0.814-0.261
		c-0.557-0.318-0.923-0.852-1.076-1.432c-0.143-0.578-0.071-1.218,0.261-1.772c1.004-1.703,3.215-1.893,4.645-0.64
		c0.591,0.509,0.98,1.184,1.17,1.904c0.557,2.164-0.886,4.293-3.014,4.802c-1.147,0.283-2.424,0.106-3.57-0.462
		c-1.169-0.566-2.057-1.454-2.979-2.364c-0.709-0.698-1.431-1.42-2.316-2.046l-0.036-0.024c-0.721-0.509-1.548-0.91-2.459-1.184
		C79.576,90.72,79.305,90.649,79.021,90.602L79.021,90.602z M91.811,89.017L91.811,89.017c2.707-0.604,5.356-1.372,7.919-2.294
		c-0.472,0.462-0.719,1.111-0.544,1.798c0.214,0.84,1.042,1.455,1.904,1.23c0.39-0.107,0.958-0.497,0.958-0.936
		c0-0.33-0.272-0.591-0.591-0.591c-0.332,0-0.592,0.261-0.592,0.591c0,0.201,0.106,0.392,0.271,0.497
		c-0.047,0.024-0.095,0.035-0.142,0.048c-0.662,0.177-1.266-0.319-1.431-0.935c-0.212-0.851,0.414-1.632,1.219-1.845
		c1.062-0.272,2.079,0.51,2.364,1.525c0.105,0.414,0.105,0.853-0.014,1.278c-0.128,0.412-0.365,0.815-0.744,1.146
		c-0.544,0.474-1.348,0.793-2.436,0.769c-1.523-0.011-2.753-0.531-4.03-1.075C94.695,89.702,93.43,89.159,91.811,89.017
		L91.811,89.017z M77.095,104.438L77.095,104.438c-0.45,0-0.805-0.757-0.805-1.691c0-0.934,0.354-1.691,0.805-1.691
		c0.448,0,0.804,0.758,0.804,1.691C77.898,103.682,77.543,104.438,77.095,104.438L77.095,104.438z M77.095,90.827L77.095,90.827
		c0.922-0.025,1.808,0.105,2.623,0.354c0.875,0.261,1.667,0.651,2.353,1.136c0.639,0.449,1.171,1.006,1.572,1.621
		c0.438,0.626,0.722,1.324,0.875,2.033c0.023,0.095,0.047,0.2,0.06,0.308c0.319,2.188-0.935,4.341-3.169,4.813
		c-0.083,0.023-0.178,0.048-0.284,0.059c-0.354,0.048-0.696,0.036-1.039-0.011c-0.686-0.118-1.312-0.449-1.785-0.911
		c-0.721-0.687-1.063-1.632-0.898-2.602c0.119-0.627,0.448-1.136,0.91-1.456c0.898-0.603,2.294-0.53,2.968,0.393
		c0.154,0.2,0.259,0.425,0.318,0.673c-0.06-0.013-0.105-0.023-0.164-0.023c-0.332,0-0.592,0.272-0.592,0.592
		c0,0.331,0.26,0.591,0.592,0.591c0.081,0,0.153-0.012,0.223-0.035c0.39-0.166,0.45-0.65,0.368-1.101
		c-0.084-0.401-0.284-0.769-0.415-0.934c-0.803-1.1-2.435-1.219-3.511-0.484c-0.473,0.317-0.827,0.791-1.004,1.371
		c-0.178-0.58-0.532-1.054-0.994-1.371c-1.088-0.734-2.718-0.615-3.522,0.484c-0.13,0.165-0.331,0.532-0.413,0.934
		c-0.082,0.45-0.023,0.935,0.366,1.101c0.07,0.023,0.142,0.035,0.226,0.035c0.33,0,0.59-0.26,0.59-0.591
		c0-0.319-0.26-0.592-0.59-0.592c-0.061,0-0.107,0.011-0.166,0.023c0.059-0.248,0.166-0.473,0.319-0.673
		c0.674-0.923,2.067-0.995,2.967-0.393c0.461,0.32,0.792,0.829,0.91,1.456c0.166,0.97-0.177,1.915-0.898,2.602
		c-0.473,0.462-1.1,0.793-1.786,0.911c-0.343,0.047-0.685,0.059-1.039,0.011c-0.106-0.011-0.201-0.035-0.283-0.059
		c-2.234-0.473-3.487-2.625-3.169-4.813c0.013-0.107,0.036-0.213,0.059-0.308c0.154-0.709,0.45-1.407,0.876-2.033
		c0.401-0.615,0.933-1.172,1.571-1.621c0.687-0.484,1.49-0.875,2.354-1.136C75.285,90.933,76.172,90.802,77.095,90.827z"/>
	<path fill="#545454" d="M48.122,70.698c4.29,2.625,8.96,4.684,13.913,6.079c4.788,1.349,9.847,2.069,15.06,2.069
		c5.225,0,10.271-0.721,15.06-2.069c4.952-1.396,9.621-3.454,13.912-6.079l-0.2-0.343c-4.267,2.614-8.902,4.659-13.818,6.043
		c-4.753,1.336-9.765,2.046-14.953,2.046c-5.19,0-10.202-0.71-14.953-2.046c-4.918-1.384-9.552-3.429-13.819-6.043L48.122,70.698z"
		/>
	<g>
		<path fill-rule="evenodd" clip-rule="evenodd" fill="#373737" d="M115.206,70.444c0.279-0.23,0.69-0.188,0.919,0.089
			c0.229,0.275,0.186,0.688-0.102,0.924c-0.282,0.226-0.695,0.182-0.917-0.1S114.929,70.664,115.206,70.444L115.206,70.444z
			 M38.977,70.438L38.977,70.438c0.282,0.226,0.326,0.638,0.105,0.919c-0.222,0.281-0.635,0.325-0.925,0.093
			c-0.28-0.229-0.322-0.642-0.095-0.917C38.292,70.257,38.703,70.214,38.977,70.438z"/>
		<path fill="#373737" d="M43.392,74.867c0.183-0.969,0.381-1.932,0.595-2.888l-0.128-0.188l0.125-0.182l0.559,0.379
			c0.072,0.048,0.126,0.096,0.151,0.135c0.034,0.045,0.048,0.087,0.052,0.145c-0.001,0.065-0.009,0.125-0.032,0.208
			c-0.153,0.667-0.303,1.338-0.442,2.01c0.548-0.393,1.09-0.791,1.626-1.195l-0.168-0.277l0.113-0.18l0.908,0.562l-0.109,0.181
			l-0.31-0.017c-0.722,0.566-1.452,1.12-2.197,1.667l-1.071,1.687l0.171,0.39l-0.136,0.217l-0.43-0.271l-0.458-0.295l-0.425-0.278
			l0.142-0.214l0.425-0.006L43.392,74.867L43.392,74.867z M49.95,79.737L49.95,79.737c-0.128,0.265-0.299,0.467-0.515,0.607
			c-0.214,0.139-0.46,0.205-0.726,0.205c-0.267-0.001-0.562-0.075-0.852-0.225c-0.299-0.152-0.524-0.345-0.679-0.562
			c-0.152-0.224-0.241-0.462-0.258-0.709c-0.012-0.258,0.054-0.514,0.194-0.772l1.292-2.365c0.14-0.258,0.318-0.453,0.532-0.587
			c0.209-0.128,0.445-0.195,0.695-0.2c0.251-0.002,0.507,0.071,0.784,0.202c0.259,0.146,0.478,0.314,0.622,0.52
			c0.143,0.205,0.229,0.429,0.244,0.682c0.016,0.251-0.041,0.51-0.167,0.774L49.95,79.737L49.95,79.737z M47.843,78.673
			L47.843,78.673c-0.142,0.268-0.195,0.509-0.158,0.704c0.035,0.196,0.176,0.362,0.412,0.483c0.119,0.06,0.232,0.088,0.347,0.094
			c0.104,0.002,0.215-0.024,0.303-0.073c0.1-0.052,0.183-0.113,0.27-0.203c0.075-0.086,0.145-0.185,0.202-0.299l1.201-2.413
			c0.078-0.157,0.122-0.308,0.14-0.464c0.015-0.146-0.008-0.281-0.073-0.405c-0.059-0.121-0.154-0.223-0.304-0.3
			c-0.22-0.112-0.422-0.124-0.597-0.04s-0.336,0.257-0.482,0.533L47.843,78.673L47.843,78.673z M54.337,82.617L54.337,82.617
			c0.168,0.065,0.323,0.086,0.453,0.064c0.134-0.008,0.251-0.072,0.352-0.183c0.1-0.109,0.187-0.263,0.263-0.469l1.251-3.39
			l-0.194-0.287l0.084-0.224l1.028,0.375l-0.079,0.225l-0.341,0.093l-1.227,3.417c-0.09,0.251-0.199,0.445-0.334,0.593
			c-0.134,0.146-0.281,0.248-0.448,0.315c-0.172,0.053-0.347,0.085-0.533,0.064c-0.19-0.01-0.392-0.05-0.588-0.126
			c-0.197-0.074-0.375-0.173-0.52-0.301c-0.149-0.119-0.267-0.263-0.354-0.428c-0.078-0.161-0.128-0.341-0.129-0.538
			c0-0.199,0.049-0.417,0.143-0.646l1.381-3.338l-0.217-0.35l0.086-0.203c0.44,0.187,0.885,0.364,1.33,0.541l-0.08,0.205
			l-0.391,0.101l-1.336,3.357c-0.078,0.196-0.119,0.376-0.105,0.521c0.006,0.14,0.056,0.27,0.138,0.371
			C54.066,82.475,54.177,82.556,54.337,82.617L54.337,82.617z M61.177,80.143L61.177,80.143l-0.16,0.573l-0.147,0.53l-0.146,0.521
			l-0.159,0.574l0.484,0.134c0.17,0.045,0.31,0.054,0.423,0.018c0.122-0.035,0.214-0.095,0.298-0.198
			c0.073-0.104,0.134-0.229,0.169-0.4l0.176-0.684c0.05-0.157,0.06-0.307,0.045-0.425c-0.014-0.126-0.058-0.233-0.136-0.32
			c-0.089-0.08-0.207-0.149-0.378-0.195L61.177,80.143L61.177,80.143z M61.045,83.489L61.045,83.489
			c-0.009-0.146-0.036-0.266-0.069-0.351c-0.042-0.096-0.099-0.168-0.182-0.22c-0.081-0.051-0.192-0.101-0.343-0.143l-0.114,0.407
			l-0.126,0.449l-0.127,0.459l-0.111,0.398l0.286,0.326l-0.058,0.212l-0.49-0.135l-0.516-0.148l-0.478-0.141l0.063-0.211
			l0.405-0.128l0.642-2.191l0.643-2.19l-0.205-0.272l0.063-0.21c0.479,0.143,0.958,0.278,1.439,0.41
			c0.194,0.051,0.376,0.118,0.534,0.207s0.296,0.188,0.398,0.319c0.104,0.13,0.176,0.281,0.205,0.458
			c0.038,0.179,0.027,0.374-0.028,0.605l-0.168,0.687c-0.054,0.222-0.135,0.401-0.243,0.536c-0.108,0.133-0.246,0.23-0.394,0.289
			c-0.146,0.056-0.316,0.09-0.485,0.075c0.062,0.062,0.112,0.123,0.154,0.181s0.064,0.12,0.085,0.192
			c0.021,0.07,0.04,0.143,0.038,0.227l0.123,1.062c0.006,0.057,0.02,0.117,0.034,0.177c0.013,0.069,0.037,0.132,0.063,0.187
			c0.025,0.053,0.063,0.099,0.104,0.137c0.039,0.039,0.093,0.062,0.161,0.06l-0.069,0.294c-0.062,0.013-0.122,0.017-0.19,0.02
			c-0.068-0.007-0.146-0.007-0.213-0.023c-0.076-0.01-0.132-0.022-0.197-0.038c-0.12-0.03-0.218-0.074-0.284-0.129
			c-0.062-0.062-0.104-0.13-0.135-0.204c-0.028-0.082-0.044-0.172-0.059-0.271l-0.027-0.31L61.045,83.489L61.045,83.489z
			 M69.176,81.795L69.176,81.795l-0.592,4.418l0.318,0.28l-0.034,0.265l-0.503-0.066l-0.54-0.075l-0.502-0.076l0.04-0.263
			l0.384-0.184l0.651-4.408l-0.56-0.084l-0.379,0.847l-0.354-0.056l0.255-1.361c0.993,0.164,1.99,0.306,2.992,0.42l-0.131,1.379
			l-0.365-0.043l-0.139-0.923L69.176,81.795L69.176,81.795z M75.794,87.269L75.794,87.269c-0.508-0.01-1.014-0.027-1.521-0.048
			c-0.507-0.022-1.014-0.051-1.529-0.084l0.016-0.22l0.386-0.214l0.14-2.289l0.141-2.288l-0.276-0.22l0.013-0.201l0.884,0.052
			l0.875,0.038l0.885,0.026l-0.027,1.22l-0.383-0.011l-0.183-0.767l-1.014-0.041l-0.05,1.017l-0.05,1.026l0.739,0.031l0.215-0.414
			l0.226,0.006l-0.011,0.423l-0.015,0.467L75.241,85.2l-0.23-0.007l-0.189-0.42l-0.744-0.031l-0.042,0.861l-0.041,0.851
			c-0.003,0.064-0.015,0.109-0.046,0.146c-0.021,0.043-0.069,0.069-0.137,0.083L73.81,86.73l0.684,0.031l0.684,0.023l0.284-0.745
			l0.356,0.009L75.794,87.269L75.794,87.269z M80.417,83.57L80.417,83.57l0.598-1.507l-0.271-0.12l-0.015-0.219l1.032-0.073
			l0.018,0.229l-0.253,0.157c-0.271,0.714-0.555,1.424-0.849,2.134c0.395,0.861,0.804,1.72,1.227,2.574l0.307,0.142l0.017,0.192
			l-0.754,0.055c-0.077,0.007-0.144,0.01-0.192-0.006c-0.059-0.006-0.107-0.029-0.149-0.073c-0.04-0.034-0.093-0.104-0.137-0.203
			c-0.265-0.537-0.523-1.077-0.775-1.619c-0.236,0.548-0.479,1.093-0.729,1.638l0.311,0.134l0.009,0.221l-1.175,0.039l-0.006-0.221
			l0.3-0.155c0.359-0.761,0.706-1.528,1.037-2.295c-0.359-0.813-0.706-1.628-1.039-2.447l-0.224-0.131l-0.004-0.201l0.674-0.022
			c0.069-0.003,0.13-0.005,0.175,0.011c0.045,0.008,0.081,0.034,0.117,0.078c0.039,0.045,0.076,0.117,0.124,0.207L80.417,83.57
			L80.417,83.57z M86.307,81.607L86.307,81.607l0.688,4.402l0.396,0.179l0.042,0.263l-0.51,0.081l-0.54,0.081l-0.502,0.069
			l-0.037-0.264l0.325-0.284l-0.631-4.413l-0.56,0.078l-0.122,0.922l-0.364,0.047l-0.134-1.379c0.996-0.124,1.99-0.273,2.979-0.447
			l0.275,1.357l-0.36,0.062l-0.405-0.842L86.307,81.607L86.307,81.607z M91.455,80.288L91.455,80.288l-0.053-0.213
			c0.425-0.106,0.849-0.218,1.271-0.334l0.059,0.212l-0.218,0.278l0.526,1.947l1.203-0.338l-0.565-1.937l-0.329-0.125l-0.061-0.211
			c0.421-0.12,0.84-0.246,1.258-0.377l0.064,0.21l-0.206,0.285l1.349,4.402l0.401,0.076l0.066,0.21
			c-0.489,0.154-0.982,0.301-1.476,0.442l-0.062-0.213l0.286-0.282l-0.6-2.05l-1.213,0.341l0.558,2.062l0.399,0.089l0.059,0.213
			c-0.498,0.139-0.999,0.27-1.5,0.395l-0.054-0.214l0.304-0.275l-1.142-4.459L91.455,80.288L91.455,80.288z M102.042,82.238
			L102.042,82.238c-0.466,0.199-0.936,0.39-1.406,0.576c-0.473,0.188-0.947,0.367-1.423,0.544l-0.077-0.207l0.257-0.35l-0.804-2.146
			l-0.805-2.147l-0.334-0.091l-0.069-0.188l0.826-0.312l0.807-0.318l0.817-0.337l0.474,1.123l-0.346,0.145l-0.487-0.623
			l-0.941,0.377l0.368,0.949l0.374,0.957l0.688-0.273l0.027-0.467l0.217-0.089l0.161,0.39l0.179,0.433l0.16,0.39l-0.223,0.092
			l-0.344-0.306l-0.692,0.275l0.313,0.802l0.31,0.796c0.022,0.06,0.03,0.106,0.024,0.146c-0.01,0.053-0.043,0.097-0.099,0.137
			l0.017,0.042l0.637-0.249l0.635-0.258l-0.035-0.799l0.32-0.136L102.042,82.238L102.042,82.238z M103.716,75.986L103.716,75.986
			l0.27,0.532l0.248,0.491l0.244,0.482l0.27,0.532l0.44-0.227c0.156-0.079,0.264-0.167,0.333-0.275
			c0.059-0.104,0.093-0.215,0.078-0.342c-0.018-0.126-0.056-0.261-0.139-0.415l-0.331-0.624c-0.076-0.146-0.17-0.262-0.261-0.339
			c-0.087-0.088-0.2-0.132-0.316-0.145c-0.111-0.003-0.254,0.031-0.402,0.106L103.716,75.986L103.716,75.986z M105.879,78.546
			L105.879,78.546c-0.113-0.096-0.214-0.168-0.298-0.208c-0.087-0.048-0.187-0.058-0.281-0.04c-0.096,0.018-0.21,0.057-0.342,0.123
			l0.191,0.376l0.211,0.417l0.215,0.427l0.187,0.368l0.421,0.051l0.101,0.197l-0.452,0.229l-0.471,0.235l-0.457,0.223l-0.096-0.198
			l0.213-0.369l-1.004-2.05l-1.004-2.051l-0.333-0.062l-0.097-0.198c0.452-0.22,0.902-0.443,1.347-0.674
			c0.18-0.092,0.351-0.162,0.526-0.203c0.179-0.041,0.348-0.059,0.512-0.033c0.163,0.026,0.316,0.089,0.467,0.195
			c0.141,0.111,0.272,0.259,0.388,0.468l0.34,0.62c0.109,0.2,0.162,0.391,0.172,0.563c0.011,0.171-0.017,0.331-0.095,0.479
			c-0.068,0.142-0.164,0.276-0.307,0.382c0.095,0.002,0.166,0.017,0.235,0.032c0.071,0.013,0.138,0.039,0.192,0.083
			c0.063,0.039,0.127,0.077,0.19,0.138l0.805,0.7c0.045,0.039,0.088,0.079,0.139,0.112c0.056,0.044,0.114,0.073,0.171,0.095
			c0.055,0.021,0.114,0.031,0.169,0.031c0.063-0.003,0.118-0.022,0.159-0.066l0.147,0.265c-0.028,0.047-0.079,0.096-0.128,0.145
			c-0.055,0.04-0.105,0.089-0.172,0.126c-0.054,0.04-0.112,0.071-0.164,0.1c-0.118,0.063-0.211,0.093-0.297,0.097
			c-0.088-0.004-0.173-0.02-0.244-0.055c-0.077-0.042-0.15-0.098-0.219-0.165c-0.076-0.063-0.153-0.125-0.238-0.205L105.879,78.546
			L105.879,78.546z M113.267,76.092l-0.688-1.005l-0.287,0.196l0.193,0.775l-0.571,0.378l-0.573,0.372l-0.025-0.038
			c0.046-0.052,0.071-0.101,0.063-0.148c0.003-0.047-0.014-0.091-0.048-0.145l-0.462-0.716l-0.468-0.725l0.625-0.407l0.397,0.23
			l0.192-0.129l-0.235-0.35l-0.261-0.388l-0.235-0.351l-0.188,0.126l0.066,0.463l-0.619,0.403l-0.557-0.863l-0.551-0.855
			l0.848-0.558l0.601,0.513l0.311-0.211l-0.687-1.006l-0.734,0.493l-0.727,0.473l-0.748,0.472l0.106,0.172l0.344,0.022l1.218,1.943
			l1.216,1.943l-0.181,0.394l0.115,0.186c0.432-0.267,0.86-0.537,1.286-0.815C112.429,76.661,112.851,76.38,113.267,76.092
			L113.267,76.092z"/>
	</g>
	<rect x="13.097" y="68.604" fill-rule="evenodd" clip-rule="evenodd" fill="#545454" width="128.006" height="0.402"/>
	<path fill-rule="evenodd" clip-rule="evenodd" fill="#545454" d="M64.388,73.205h4.101v0.402h-4.101V73.205L64.388,73.205z
		 M85.699,73.205L85.699,73.205h4.113v0.402h-4.113V73.205z"/>
	<path fill-rule="evenodd" clip-rule="evenodd" fill="#FFFFFF" d="M145.866,51.362c-0.473,0-0.852,0.39-0.852,0.863
		c0,0.473,0.379,0.863,0.852,0.863c0.472,0,0.862-0.391,0.862-0.863C146.729,51.752,146.338,51.362,145.866,51.362L145.866,51.362z
		 M8.321,51.362L8.321,51.362c-0.472,0-0.862,0.39-0.862,0.863c0,0.473,0.391,0.863,0.862,0.863c0.474,0,0.863-0.391,0.863-0.863
		C9.185,51.752,8.795,51.362,8.321,51.362z"/>
	<path fill="#373737" d="M72.851,73.513c0.06-0.035,0.095-0.059,0.119-0.095c0.022-0.023,0.035-0.07,0.035-0.118v-1.36
		c0-0.26-0.071-0.472-0.213-0.614c-0.143-0.13-0.344-0.202-0.604-0.202h-0.649c-0.272,0-0.473,0.072-0.615,0.202
		c-0.142,0.143-0.2,0.354-0.2,0.614v0.615c0,0.024,0,0.047,0.012,0.06c0.022,0.023,0.047,0.023,0.069,0.023h0.604
		c0.022,0,0.047,0,0.059-0.023c0.023-0.013,0.023-0.035,0.023-0.06v-0.449c0-0.071,0.023-0.131,0.058-0.166
		c0.037-0.047,0.096-0.059,0.18-0.059H72c0.069,0,0.13,0.012,0.165,0.059c0.047,0.035,0.06,0.095,0.06,0.166v0.852l-1.36,0.732
		c-0.047,0.025-0.094,0.047-0.118,0.084c-0.022,0.035-0.034,0.07-0.022,0.129v1.691c0,0.035,0,0.06,0.022,0.083
		c0.024,0.012,0.048,0.024,0.083,0.024h2.069c0.035,0,0.059-0.013,0.082-0.024c0.024-0.023,0.024-0.048,0.024-0.083v-0.887
		c0-0.036,0-0.059-0.024-0.082c-0.023-0.013-0.047-0.024-0.082-0.024h-0.556c-0.035,0-0.06,0.012-0.084,0.024
		c-0.022,0.023-0.034,0.046-0.034,0.082v0.237h-0.615c-0.036,0-0.061-0.013-0.083-0.024c-0.023-0.023-0.035-0.047-0.035-0.082
		v-0.509c0-0.024,0.012-0.048,0.023-0.07c0.012-0.025,0.034-0.048,0.059-0.061L72.851,73.513L72.851,73.513z M74.21,74.873
		L74.21,74.873c0,0.271,0.071,0.484,0.201,0.614c0.142,0.142,0.354,0.214,0.614,0.214h0.65c0.26,0,0.473-0.072,0.614-0.214
		c0.13-0.13,0.201-0.343,0.201-0.614v-2.934c0-0.26-0.071-0.472-0.201-0.614c-0.142-0.13-0.354-0.202-0.614-0.202h-0.65
		c-0.26,0-0.473,0.072-0.614,0.202c-0.13,0.143-0.201,0.354-0.201,0.614V74.873L74.21,74.873z M75.191,74.969L75.191,74.969
		c-0.071,0-0.13-0.024-0.166-0.061c-0.035-0.035-0.059-0.095-0.059-0.177v-2.638c0-0.082,0.023-0.142,0.059-0.178
		c0.036-0.035,0.095-0.06,0.166-0.06h0.343c0.069,0,0.13,0.024,0.165,0.06c0.036,0.036,0.059,0.096,0.059,0.178v2.638
		c0,0.082-0.022,0.142-0.059,0.177c-0.035,0.036-0.096,0.061-0.165,0.061H75.191L75.191,74.969z M77.696,74.873L77.696,74.873
		c0,0.271,0.071,0.484,0.214,0.614c0.13,0.142,0.343,0.214,0.603,0.214h0.65c0.272,0,0.472-0.072,0.614-0.214
		c0.142-0.13,0.2-0.343,0.2-0.614v-2.934c0-0.26-0.059-0.472-0.2-0.614c-0.143-0.13-0.342-0.202-0.614-0.202h-0.65
		c-0.26,0-0.473,0.072-0.603,0.202c-0.143,0.143-0.214,0.354-0.214,0.614V74.873L77.696,74.873z M78.69,74.969L78.69,74.969
		c-0.083,0-0.142-0.024-0.178-0.061c-0.036-0.035-0.059-0.095-0.059-0.177v-2.638c0-0.082,0.022-0.142,0.059-0.178
		c0.036-0.035,0.095-0.06,0.178-0.06h0.33c0.071,0,0.131,0.024,0.166,0.06c0.035,0.036,0.06,0.096,0.06,0.178v2.638
		c0,0.082-0.024,0.142-0.06,0.177c-0.035,0.036-0.095,0.061-0.166,0.061H78.69L78.69,74.969z M81.349,71.123L81.349,71.123
		c-0.035,0-0.058,0-0.082,0.025c-0.022,0.022-0.022,0.047-0.022,0.082v1.998c0,0.036,0,0.06,0.022,0.083
		c0.013,0.012,0.035,0.036,0.072,0.047l1.359,0.426v1.054c0,0.035-0.013,0.059-0.024,0.082c-0.023,0.012-0.048,0.024-0.096,0.024
		h-0.614V74.72c0-0.036-0.012-0.071-0.035-0.083c-0.012-0.024-0.047-0.036-0.083-0.036h-0.555c-0.036,0-0.061,0.012-0.083,0.036
		c-0.012,0.012-0.023,0.047-0.023,0.083v0.177c0,0.271,0.07,0.461,0.2,0.604c0.142,0.128,0.332,0.2,0.603,0.2h0.687
		c0.26,0,0.461-0.072,0.59-0.2c0.142-0.144,0.2-0.333,0.214-0.604v-1.561c0-0.036-0.014-0.06-0.023-0.083
		c-0.023-0.024-0.049-0.035-0.083-0.048l-1.359-0.425v-0.899H83.3c0.035,0,0.071-0.012,0.083-0.036
		c0.022-0.022,0.036-0.047,0.036-0.082V71.23c0-0.035-0.014-0.06-0.036-0.082c-0.012-0.025-0.048-0.025-0.083-0.025H81.349z"/>
	<path fill="#FFFFFF" d="M16.662,46.526c0.449,0,0.808,0.078,1.073,0.236c0.266,0.157,0.456,0.384,0.57,0.679
		c0.115,0.296,0.171,0.655,0.168,1.079v1.799c0.003,0.423-0.06,0.78-0.181,1.079c-0.125,0.296-0.318,0.522-0.591,0.68
		c-0.269,0.157-0.62,0.235-1.06,0.235h-1.26c0-0.534,0-1.036,0-1.51c0-0.471,0-0.934,0-1.384c0-0.452,0-0.912,0-1.384
		c0-0.473,0-0.975,0-1.51H16.662L16.662,46.526z M18.276,57.314c0.095,0.263,0.184,0.509,0.266,0.741
		c0.082,0.233,0.18,0.437,0.292,0.614c0.115,0.177,0.266,0.318,0.452,0.42c0.188,0.102,0.438,0.15,0.742,0.154
		c0.147,0,0.305-0.007,0.479-0.022c0.171-0.017,0.341-0.044,0.505-0.079c0.168-0.04,0.318-0.089,0.452-0.154v-0.768
		c-0.157,0.032-0.298,0.016-0.423-0.05c-0.124-0.062-0.232-0.157-0.327-0.281c-0.099-0.122-0.181-0.261-0.251-0.408
		c-0.071-0.145-0.131-0.288-0.18-0.423l-0.925-2.54c-0.069-0.203-0.151-0.38-0.24-0.537c-0.092-0.158-0.2-0.296-0.334-0.421
		c-0.131-0.125-0.292-0.236-0.489-0.341c0.431-0.085,0.814-0.249,1.146-0.489c0.334-0.239,0.597-0.561,0.787-0.961
		s0.289-0.886,0.292-1.45v-1.799c-0.003-0.6-0.104-1.105-0.305-1.519c-0.197-0.413-0.473-0.742-0.827-0.991
		c-0.351-0.249-0.762-0.43-1.228-0.542c-0.462-0.111-0.964-0.167-1.499-0.164h-3.996v0.571l0.729,0.512c0,1.92,0,3.853,0,5.792
		c0,1.943,0,3.872,0,5.784l-0.866,0.591v0.571c0.383,0,0.794,0,1.224,0s0.862,0,1.293,0c0.433,0,0.839,0,1.224,0v-0.571
		l-0.866-0.591c0-0.318,0-0.672,0-1.063c0-0.386,0-0.786,0-1.197c0-0.413,0-0.81,0-1.197s0-0.734,0-1.05
		c0.381-0.003,0.688,0.032,0.925,0.111c0.233,0.075,0.423,0.213,0.571,0.407c0.15,0.196,0.288,0.469,0.413,0.819L18.276,57.314
		L18.276,57.314z M32.436,59.126v-3.092h-0.866l-0.669,1.89c-0.562,0-1.119,0-1.674,0c-0.554,0-1.112,0-1.673,0v-0.098
		c0.164-0.056,0.276-0.135,0.331-0.229c0.06-0.1,0.085-0.225,0.082-0.382c0-0.729,0-1.453,0-2.175s0-1.447,0-2.177h1.89l0.513,1.045
		h0.591c0-0.329,0-0.687,0-1.076c0-0.395,0-0.785,0-1.176c0-0.394,0-0.75,0-1.079h-0.591l-0.513,1.086h-1.89
		c0-0.868,0-1.737,0-2.605c0-0.869,0-1.732,0-2.591h2.678l0.551,1.936h0.984v-3.099c-0.797,0-1.582,0-2.35,0
		c-0.771,0-1.538,0-2.31,0c-0.768,0-1.552,0-2.35,0v0.513l0.748,0.512c0,1.936,0,3.875,0,5.814c0,1.942,0,3.882,0,5.82l-0.885,0.591
		v0.571c1.239,0,2.477,0,3.707,0C29.975,59.126,31.205,59.126,32.436,59.126L32.436,59.126z M42.619,46.546l0.668,2.264h0.946
		l-0.08-3.505h-8.012l-0.078,3.505h0.944l0.63-2.264h1.477c0,3.767,0,7.53,0,11.298l-0.867,0.612v0.67c0.381,0,0.791,0,1.231,0
		c0.439,0,0.882,0,1.325,0s0.856,0,1.244,0v-0.67l-0.866-0.612c0-3.768,0-7.531,0-11.298H42.619L42.619,46.546z M52.053,46.526
		c0.449,0,0.808,0.078,1.072,0.236c0.267,0.157,0.457,0.384,0.571,0.679c0.115,0.296,0.171,0.655,0.168,1.079v1.799
		c0.003,0.423-0.06,0.78-0.181,1.079c-0.124,0.296-0.318,0.522-0.591,0.68c-0.269,0.157-0.619,0.235-1.06,0.235h-1.26
		c0-0.534,0-1.036,0-1.51c0-0.471,0-0.934,0-1.384c0-0.452,0-0.912,0-1.384c0-0.473,0-0.975,0-1.51H52.053L52.053,46.526z
		 M53.667,57.314c0.096,0.263,0.184,0.509,0.266,0.741c0.082,0.233,0.181,0.437,0.293,0.614c0.113,0.177,0.265,0.318,0.452,0.42
		s0.437,0.15,0.741,0.154c0.148,0,0.305-0.007,0.479-0.022c0.17-0.017,0.341-0.044,0.505-0.079c0.167-0.04,0.318-0.089,0.453-0.154
		v-0.768c-0.158,0.032-0.299,0.016-0.423-0.05c-0.126-0.062-0.233-0.157-0.329-0.281c-0.098-0.122-0.18-0.261-0.249-0.408
		c-0.072-0.145-0.132-0.288-0.18-0.423l-0.926-2.54c-0.069-0.203-0.151-0.38-0.24-0.537c-0.092-0.158-0.199-0.296-0.334-0.421
		c-0.132-0.125-0.292-0.236-0.489-0.341c0.43-0.085,0.814-0.249,1.146-0.489c0.334-0.239,0.597-0.561,0.788-0.961
		c0.189-0.4,0.288-0.886,0.291-1.45v-1.799c-0.003-0.6-0.104-1.105-0.305-1.519c-0.196-0.413-0.473-0.742-0.827-0.991
		c-0.351-0.249-0.762-0.43-1.227-0.542c-0.464-0.111-0.965-0.167-1.5-0.164h-3.996v0.571l0.728,0.512c0,1.92,0,3.853,0,5.792
		c0,1.943,0,3.872,0,5.784l-0.866,0.591v0.571c0.384,0,0.795,0,1.225,0s0.863,0,1.293,0c0.433,0,0.84,0,1.224,0v-0.571l-0.866-0.591
		c0-0.318,0-0.672,0-1.063c0-0.386,0-0.786,0-1.197c0-0.413,0-0.81,0-1.197s0-0.734,0-1.05c0.38-0.003,0.689,0.032,0.925,0.111
		c0.233,0.075,0.424,0.213,0.571,0.407c0.151,0.196,0.288,0.469,0.413,0.819L53.667,57.314L53.667,57.314z M68.613,48.79
		c-0.003-0.745-0.166-1.395-0.488-1.942c-0.321-0.551-0.773-0.978-1.364-1.279c-0.591-0.303-1.294-0.456-2.104-0.46
		c-0.804,0.004-1.5,0.161-2.087,0.463c-0.587,0.305-1.044,0.734-1.361,1.283c-0.322,0.552-0.486,1.194-0.489,1.936v6.852
		c0.003,0.738,0.167,1.385,0.489,1.936c0.317,0.548,0.774,0.975,1.361,1.279c0.587,0.306,1.283,0.463,2.087,0.466
		c0.81-0.003,1.513-0.157,2.104-0.459s1.043-0.729,1.364-1.279c0.322-0.548,0.485-1.198,0.488-1.942V48.79L68.613,48.79z
		 M62.768,48.79c-0.004-0.781,0.15-1.368,0.455-1.765c0.309-0.397,0.788-0.598,1.435-0.598c0.439,0.004,0.801,0.112,1.085,0.321
		c0.286,0.213,0.5,0.496,0.638,0.85c0.138,0.354,0.206,0.752,0.206,1.191v6.852c0,0.321-0.039,0.627-0.114,0.908
		c-0.079,0.285-0.197,0.535-0.354,0.751c-0.157,0.22-0.361,0.391-0.601,0.513c-0.242,0.125-0.531,0.188-0.859,0.19
		c-0.646-0.003-1.126-0.204-1.435-0.604c-0.305-0.403-0.459-0.987-0.455-1.758V48.79L62.768,48.79z M77.143,45.305v0.571
		l0.749,0.592v11.496l-0.867,0.591v0.571h4.253c0.577,0,1.108-0.076,1.591-0.223c0.479-0.148,0.898-0.375,1.251-0.673
		c0.354-0.302,0.626-0.68,0.82-1.132c0.193-0.456,0.292-0.987,0.295-1.599v-6.628c-0.007-0.855-0.171-1.549-0.502-2.073
		c-0.328-0.525-0.787-0.906-1.378-1.143c-0.591-0.24-1.283-0.354-2.077-0.352H77.143L77.143,45.305z M81.277,46.507
		c0.481,0.01,0.862,0.121,1.142,0.331c0.282,0.214,0.479,0.492,0.597,0.846c0.119,0.355,0.175,0.749,0.171,1.188V55.5
		c0.004,0.443-0.052,0.844-0.171,1.201c-0.117,0.354-0.314,0.64-0.597,0.85c-0.279,0.213-0.66,0.325-1.142,0.335h-1.732l-0.02-0.118
		c0.164-0.05,0.278-0.122,0.341-0.217c0.065-0.099,0.095-0.229,0.092-0.394v-10.65H81.277L81.277,46.507z M97.109,59.126v-3.092
		h-0.865l-0.67,1.89c-0.561,0-1.119,0-1.673,0c-0.555,0-1.112,0-1.675,0v-0.098c0.165-0.056,0.276-0.135,0.332-0.229
		c0.059-0.1,0.085-0.225,0.082-0.382c0-0.729,0-1.453,0-2.175s0-1.447,0-2.177h1.89l0.513,1.045h0.591c0-0.329,0-0.687,0-1.076
		c0-0.395,0-0.785,0-1.176c0-0.394,0-0.75,0-1.079h-0.591l-0.513,1.086h-1.89c0-0.868,0-1.737,0-2.605c0-0.869,0-1.732,0-2.591
		h2.678l0.551,1.936h0.985v-3.099c-0.798,0-1.582,0-2.35,0c-0.771,0-1.539,0-2.311,0c-0.768,0-1.552,0-2.349,0v0.513l0.748,0.512
		c0,1.936,0,3.875,0,5.814c0,1.942,0,3.882,0,5.82l-0.887,0.591v0.571c1.241,0,2.478,0,3.708,0
		C94.649,59.126,95.88,59.126,97.109,59.126L97.109,59.126z M103.414,56.331v-1.104h-2.225v1.083
		c0.003,0.524,0.099,0.981,0.285,1.362c0.187,0.383,0.443,0.698,0.769,0.944s0.699,0.429,1.122,0.548
		c0.423,0.118,0.872,0.178,1.348,0.178c0.474,0,0.929-0.053,1.365-0.165c0.437-0.108,0.83-0.284,1.178-0.521
		c0.348-0.239,0.623-0.551,0.827-0.935c0.203-0.381,0.309-0.848,0.312-1.391v-1.693c-0.003-0.515-0.098-0.949-0.278-1.297
		s-0.421-0.637-0.716-0.862c-0.298-0.227-0.627-0.42-0.98-0.575c-0.357-0.153-0.713-0.295-1.07-0.423
		c-0.354-0.128-0.683-0.266-0.98-0.416c-0.296-0.151-0.535-0.336-0.716-0.556c-0.18-0.22-0.275-0.498-0.279-0.833v-1.673
		c0-0.477,0.119-0.847,0.352-1.113c0.236-0.266,0.584-0.399,1.047-0.403c0.466,0,0.823,0.132,1.076,0.388
		c0.249,0.26,0.377,0.633,0.381,1.129v1.004h2.028c0-0.62,0-1.241,0-1.857c0-0.62,0-1.233,0-1.845h-1.339l-0.158,0.749h-0.079
		c-0.216-0.24-0.448-0.427-0.695-0.555c-0.246-0.128-0.499-0.217-0.761-0.262c-0.263-0.05-0.525-0.072-0.787-0.069
		c-0.404,0-0.788,0.049-1.159,0.15c-0.37,0.105-0.702,0.266-0.994,0.493c-0.292,0.223-0.525,0.515-0.695,0.876
		c-0.171,0.36-0.26,0.8-0.263,1.315v1.673c0.007,0.489,0.099,0.896,0.275,1.225c0.182,0.331,0.417,0.603,0.712,0.819
		c0.296,0.214,0.62,0.4,0.975,0.552c0.352,0.15,0.706,0.292,1.06,0.426c0.352,0.136,0.676,0.283,0.971,0.446
		c0.296,0.165,0.533,0.364,0.713,0.604c0.181,0.243,0.272,0.545,0.276,0.908v1.675c0,0.331-0.05,0.619-0.155,0.872
		c-0.104,0.249-0.269,0.446-0.488,0.585c-0.223,0.141-0.505,0.213-0.854,0.216c-0.446,0.003-0.791-0.128-1.029-0.395
		C103.538,57.345,103.417,56.918,103.414,56.331L103.414,56.331L103.414,56.331z M115.487,46.388l0.747-0.512v-0.571h-3.484v0.571
		l0.749,0.512c0,1.933,0,3.862,0,5.789c0,1.926,0,3.854,0,5.784l-0.887,0.594v0.571c0.384,0,0.794,0,1.228,0
		c0.433,0,0.865,0,1.299,0c0.43,0,0.837,0,1.214,0v-0.571l-0.865-0.594c0-1.93,0-3.858,0-5.784
		C115.487,50.25,115.487,48.32,115.487,46.388L115.487,46.388z M122.894,48.869c0.003-0.574,0.085-1.037,0.246-1.382
		c0.16-0.348,0.374-0.601,0.643-0.754c0.27-0.154,0.571-0.229,0.902-0.227c0.328-0.003,0.63,0.049,0.916,0.153
		c0.281,0.105,0.509,0.276,0.686,0.513c0.174,0.233,0.266,0.541,0.27,0.929v1.043h2.047v-3.84h-1.358l-0.157,0.729h-0.059
		c-0.2-0.217-0.427-0.385-0.687-0.502c-0.26-0.122-0.531-0.207-0.82-0.256c-0.285-0.05-0.57-0.072-0.856-0.069
		c-0.374,0-0.741,0.046-1.108,0.135c-0.368,0.092-0.716,0.229-1.041,0.417c-0.327,0.187-0.616,0.427-0.872,0.715
		c-0.253,0.289-0.449,0.633-0.595,1.03c-0.146,0.397-0.22,0.854-0.223,1.365c0,1.122,0,2.247,0,3.376s0,2.254,0,3.376
		c0.003,0.614,0.102,1.152,0.295,1.612c0.194,0.458,0.47,0.84,0.823,1.141c0.355,0.306,0.772,0.532,1.258,0.683
		c0.485,0.151,1.018,0.227,1.601,0.227c0.305,0,0.607-0.039,0.906-0.121c0.298-0.082,0.573-0.21,0.827-0.381
		c0.252-0.171,0.462-0.39,0.629-0.659l0.217,1.004h1.279c0-2.009,0-4.017,0-6.024h-3.229v0.59l1.162,0.67v1.497
		c0.003,0.41-0.057,0.773-0.174,1.092c-0.115,0.318-0.309,0.57-0.578,0.755c-0.269,0.181-0.629,0.275-1.079,0.278
		c-0.594,0.004-1.054-0.187-1.378-0.566c-0.325-0.385-0.489-0.982-0.492-1.796c0-1.122,0-2.247,0-3.376
		S122.894,49.991,122.894,48.869L122.894,48.869L122.894,48.869z M135.34,58.001c0-1.428,0-2.861,0-4.296c0-1.437,0-2.868,0-4.298
		l-0.235-1.973l0.059-0.02l3.209,11.041c0.06,0.2,0.153,0.362,0.292,0.482c0.134,0.122,0.321,0.184,0.555,0.188h1.693
		c0-2.12,0-4.236,0-6.349c0-2.113,0-4.23,0-6.35l0.747-0.512v-0.611c-0.965,0-1.929,0-2.894,0v0.611l0.749,0.512v6.389
		c0,0.341,0.009,0.702,0.02,1.09c0.013,0.383,0.025,0.771,0.039,1.154c0.013,0.387,0.02,0.748,0.02,1.09h-0.039l-0.887-3.865
		l-1.93-6.153c-0.068-0.246-0.141-0.427-0.227-0.548c-0.081-0.118-0.199-0.193-0.354-0.229c-0.158-0.036-0.374-0.053-0.66-0.05
		c-0.229,0-0.437,0-0.619,0c-0.185,0-0.364,0-0.536,0c-0.17,0-0.347,0-0.534,0c-0.19,0-0.4,0-0.633,0v0.571l0.748,0.512
		c0,1.933,0,3.87,0,5.809s0,3.871,0,5.805l-0.827,0.515v0.61c0.325,0,0.659,0,1.011,0c0.351,0,0.699,0,1.051,0
		c0.351,0,0.686,0,1.01,0v-0.61L135.34,58.001z"/>
</g>
</svg>
