<?xml version="1.0" encoding="utf-8"?>
<!-- Generator: Adobe Illustrator 16.0.0, SVG Export Plug-In . SVG Version: 6.00 Build 0)  -->
<!DOCTYPE svg PUBLIC "-//W3C//DTD SVG 1.1//EN" "http://www.w3.org/Graphics/SVG/1.1/DTD/svg11.dtd">
<svg version="1.1" id="Layer_1" xmlns="http://www.w3.org/2000/svg" xmlns:xlink="http://www.w3.org/1999/xlink" x="0px" y="0px"
	 width="125.92px" height="130.365px" viewBox="0 0 125.92 130.365" enable-background="new 0 0 125.92 130.365"
	 xml:space="preserve">
<g>
	<path fill="#545454" d="M62.961,18.925c12.137,0,23.127,4.924,31.084,12.885c7.955,7.959,12.877,18.954,12.877,31.096
		c0,12.144-4.921,23.14-12.877,31.099c-7.957,7.96-18.947,12.886-31.084,12.886c-12.138,0-23.128-4.925-31.085-12.886
		c-7.955-7.959-12.875-18.955-12.875-31.099c0-12.142,4.92-23.138,12.876-31.096C39.834,23.849,50.824,18.925,62.961,18.925
		L62.961,18.925z M93.306,32.545c-7.765-7.768-18.494-12.573-30.345-12.573s-22.58,4.806-30.344,12.573
		c-7.767,7.77-12.57,18.504-12.57,30.36c0,11.858,4.804,22.594,12.569,30.363c7.765,7.769,18.494,12.574,30.345,12.574
		s22.58-4.806,30.345-12.574c7.766-7.77,12.569-18.505,12.569-30.363C105.875,51.049,101.071,40.314,93.306,32.545z"/>
	<path fill-rule="evenodd" clip-rule="evenodd" fill="#373737" d="M61.415,27.18c-1.213,1.411-0.942,3.477-0.339,5.167
		c0.365,1.023,0.783,2.99,0.7,4.26c-0.028,0.43-0.186,0.825-0.531,1.027c-0.362,0.209-0.568,0.569-0.568,0.987v0.403
		c-4.911,0.464-9.391,2.406-12.987,5.379l-0.285-0.285c-0.296-0.296-0.696-0.403-1.101-0.296c-0.387,0.103-0.778-0.067-1.103-0.351
		c-0.956-0.839-2.052-2.525-2.518-3.507c-0.768-1.621-2.036-3.274-3.893-3.413c-1.373-0.104-2.289,0.812-2.186,2.186
		c0.14,1.855,1.792,3.124,3.413,3.893c0.982,0.466,2.669,1.562,3.508,2.518c0.283,0.323,0.452,0.716,0.35,1.103
		c-0.106,0.403,0.001,0.805,0.297,1.1l0.285,0.285c-2.973,3.597-4.916,8.077-5.381,12.987h-0.401c-0.419,0-0.777,0.206-0.987,0.568
		c-0.201,0.347-0.599,0.503-1.027,0.531c-1.27,0.083-3.236-0.334-4.261-0.7c-1.689-0.604-3.755-0.874-5.166,0.34
		c-1.044,0.897-1.044,2.193,0,3.092c1.411,1.213,3.477,0.941,5.166,0.339c1.024-0.365,2.991-0.783,4.261-0.701
		c0.429,0.028,0.826,0.187,1.027,0.532c0.21,0.362,0.568,0.568,0.987,0.568h0.401c0.465,4.911,2.407,9.391,5.38,12.987l-0.284,0.285
		c-0.296,0.296-0.403,0.695-0.297,1.1c0.103,0.388-0.066,0.779-0.351,1.103c-0.838,0.957-2.524,2.052-3.507,2.518
		c-1.621,0.768-3.273,2.037-3.413,3.894c-0.104,1.373,0.812,2.289,2.186,2.186c1.856-0.14,3.125-1.792,3.893-3.413
		c0.466-0.982,1.562-2.67,2.518-3.508c0.324-0.284,0.716-0.453,1.103-0.351c0.404,0.107,0.805-0.001,1.101-0.296l0.284-0.284
		c3.598,2.972,8.077,4.915,12.987,5.379v0.402c0,0.418,0.207,0.777,0.568,0.987c0.347,0.201,0.504,0.598,0.532,1.027
		c0.083,1.269-0.335,3.237-0.7,4.26c-0.604,1.689-0.874,3.756,0.339,5.167c0.898,1.044,2.193,1.044,3.092,0
		c1.214-1.411,0.942-3.478,0.34-5.167c-0.366-1.022-0.784-2.991-0.701-4.26c0.028-0.43,0.186-0.826,0.532-1.027
		c0.361-0.21,0.568-0.569,0.568-0.987V86.79c4.91-0.464,9.391-2.406,12.988-5.379l0.283,0.284c0.296,0.295,0.695,0.403,1.101,0.296
		c0.388-0.103,0.778,0.066,1.103,0.35c0.956,0.839,2.052,2.526,2.517,3.509c0.768,1.621,2.037,3.273,3.895,3.413
		c1.372,0.103,2.288-0.813,2.185-2.186c-0.14-1.856-1.792-3.126-3.413-3.894c-0.982-0.466-2.67-1.561-3.508-2.518
		c-0.283-0.323-0.452-0.715-0.35-1.103c0.107-0.404-0.001-0.804-0.297-1.1l-0.284-0.284c2.973-3.598,4.915-8.077,5.38-12.988h0.401
		c0.418,0,0.777-0.206,0.988-0.568c0.2-0.346,0.598-0.504,1.026-0.532c1.27-0.082,3.236,0.336,4.261,0.701
		c1.688,0.603,3.755,0.874,5.167-0.339c1.043-0.898,1.043-2.194,0-3.092c-1.412-1.214-3.479-0.943-5.167-0.34
		c-1.024,0.366-2.991,0.783-4.261,0.7c-0.429-0.028-0.826-0.185-1.026-0.531c-0.211-0.362-0.57-0.568-0.988-0.568h-0.401
		c-0.465-4.91-2.407-9.391-5.38-12.987l0.284-0.285c0.296-0.295,0.404-0.695,0.297-1.1c-0.103-0.387,0.066-0.779,0.35-1.103
		c0.839-0.956,2.525-2.052,3.508-2.518c1.621-0.768,3.273-2.037,3.413-3.893c0.104-1.373-0.812-2.289-2.185-2.186
		c-1.857,0.139-3.127,1.792-3.895,3.413c-0.465,0.981-1.561,2.668-2.517,3.507c-0.324,0.284-0.715,0.453-1.103,0.351
		c-0.405-0.106-0.805,0.001-1.101,0.297l-0.284,0.284c-3.598-2.974-8.077-4.915-12.987-5.379v-0.403
		c0-0.418-0.207-0.778-0.567-0.987c-0.348-0.202-0.505-0.598-0.533-1.027c-0.082-1.27,0.336-3.236,0.701-4.26
		c0.603-1.69,0.874-3.756-0.34-5.167C63.609,26.136,62.313,26.136,61.415,27.18L61.415,27.18z M60.677,55.241
		c-0.532,0.159-1.041,0.37-1.52,0.63l-0.089-0.088c-0.205-0.205-0.526-0.235-0.886-0.082c-0.344,0.146-0.649,0.062-0.88-0.128
		c-0.88-0.728,0.062-1.033-0.853-1.925c-1.233-1.266-3.56-2.287-4.518-3.445c-0.19-0.23-0.273-0.536-0.127-0.88
		c0.145-0.342,0.125-0.649-0.054-0.854c2.528-1.967,5.587-3.283,8.926-3.7c0.018,0.273,0.223,0.506,0.567,0.646
		c0.346,0.14,0.503,0.414,0.531,0.711c0.142,1.497-0.78,3.864-0.758,5.632c-0.017,1.276,0.865,0.826,0.758,1.964
		c-0.028,0.297-0.186,0.572-0.531,0.712c-0.362,0.146-0.568,0.395-0.568,0.685V55.241L60.677,55.241z M55.925,59.103
		c-0.26,0.479-0.471,0.987-0.629,1.52h-0.125c-0.289,0-0.539,0.206-0.685,0.568c-0.14,0.347-0.414,0.503-0.712,0.531
		c-1.137,0.108-0.688-0.773-1.963-0.758c-1.768-0.022-4.135,0.899-5.632,0.758c-0.297-0.028-0.572-0.185-0.712-0.531
		c-0.139-0.345-0.372-0.549-0.645-0.566c0.416-3.339,1.733-6.397,3.699-8.927c0.206,0.18,0.514,0.199,0.855,0.054
		c0.344-0.146,0.648-0.062,0.879,0.128c1.159,0.957,2.182,3.283,3.445,4.518c0.892,0.914,1.197-0.027,1.925,0.853
		c0.191,0.23,0.274,0.535,0.128,0.88c-0.153,0.358-0.123,0.68,0.082,0.886L55.925,59.103L55.925,59.103z M55.296,65.192
		c0.158,0.531,0.369,1.04,0.629,1.52L55.837,66.8c-0.205,0.205-0.235,0.527-0.082,0.886c0.146,0.344,0.063,0.649-0.128,0.88
		c-0.728,0.881-1.033-0.062-1.925,0.853c-1.264,1.233-2.286,3.56-3.445,4.517c-0.23,0.191-0.535,0.274-0.879,0.128
		c-0.342-0.145-0.649-0.125-0.855,0.054c-1.967-2.528-3.283-5.587-3.699-8.926c0.272-0.019,0.506-0.222,0.645-0.567
		c0.14-0.346,0.415-0.503,0.712-0.531c1.497-0.142,3.864,0.78,5.632,0.759c1.275,0.016,0.826-0.866,1.963-0.759
		c0.298,0.028,0.572,0.186,0.712,0.531c0.146,0.362,0.396,0.569,0.685,0.569H55.296L55.296,65.192z M59.157,69.943
		c0.479,0.26,0.987,0.472,1.52,0.629v0.125c0,0.29,0.206,0.539,0.568,0.684c0.346,0.141,0.503,0.415,0.531,0.713
		c0.107,1.137-0.774,0.688-0.758,1.964c-0.022,1.768,0.899,4.135,0.758,5.631c-0.028,0.297-0.186,0.572-0.531,0.712
		c-0.345,0.14-0.55,0.372-0.567,0.645c-3.339-0.416-6.397-1.733-8.926-3.699c0.179-0.205,0.198-0.514,0.054-0.854
		c-0.146-0.345-0.063-0.649,0.127-0.88c0.958-1.159,3.284-2.181,4.518-3.445c0.914-0.892-0.027-1.197,0.853-1.925
		c0.23-0.191,0.536-0.274,0.88-0.128c0.359,0.153,0.681,0.123,0.886-0.082L59.157,69.943L59.157,69.943z M65.246,70.572
		c0.532-0.157,1.041-0.369,1.52-0.629l0.089,0.088c0.204,0.205,0.526,0.235,0.885,0.082c0.345-0.146,0.65-0.063,0.881,0.128
		c0.879,0.728-0.062,1.033,0.852,1.925c1.233,1.265,3.56,2.286,4.519,3.445c0.19,0.23,0.273,0.535,0.127,0.88
		c-0.146,0.341-0.126,0.649,0.054,0.854c-2.528,1.966-5.588,3.283-8.926,3.699c-0.019-0.272-0.222-0.505-0.566-0.645
		c-0.348-0.14-0.505-0.415-0.532-0.712c-0.142-1.496,0.78-3.863,0.758-5.631c0.017-1.276-0.865-0.827-0.758-1.964
		c0.027-0.298,0.185-0.572,0.532-0.713c0.36-0.145,0.567-0.394,0.567-0.684V70.572L65.246,70.572z M69.998,66.712
		c0.259-0.479,0.471-0.988,0.629-1.521h0.125c0.29,0,0.538-0.206,0.685-0.568c0.14-0.346,0.414-0.503,0.711-0.531
		c1.138-0.107,0.688,0.774,1.964,0.758c1.768,0.022,4.135-0.899,5.631-0.758c0.298,0.028,0.573,0.186,0.713,0.531
		c0.138,0.345,0.372,0.549,0.645,0.567c-0.417,3.34-1.733,6.397-3.699,8.926c-0.206-0.179-0.514-0.198-0.855-0.054
		c-0.344,0.146-0.649,0.063-0.88-0.128c-1.158-0.957-2.181-3.283-3.445-4.517c-0.891-0.914-1.197,0.028-1.925-0.853
		c-0.19-0.23-0.273-0.536-0.127-0.88c0.152-0.358,0.122-0.681-0.083-0.886L69.998,66.712L69.998,66.712z M70.627,60.622
		c-0.158-0.532-0.37-1.04-0.629-1.52l0.087-0.088c0.205-0.206,0.235-0.527,0.083-0.886c-0.146-0.345-0.063-0.649,0.127-0.88
		c0.728-0.88,1.034,0.062,1.925-0.853c1.265-1.234,2.287-3.561,3.445-4.518c0.23-0.19,0.536-0.274,0.88-0.128
		c0.342,0.146,0.649,0.126,0.855-0.054c1.966,2.528,3.282,5.588,3.699,8.927c-0.272,0.018-0.507,0.222-0.645,0.566
		c-0.14,0.347-0.415,0.503-0.713,0.531c-1.496,0.142-3.863-0.78-5.631-0.758c-1.276-0.017-0.826,0.866-1.964,0.758
		c-0.297-0.028-0.571-0.185-0.711-0.531c-0.146-0.362-0.395-0.568-0.685-0.568H70.627L70.627,60.622z M66.766,55.871
		c-0.479-0.26-0.987-0.471-1.52-0.63v-0.124c0-0.29-0.207-0.539-0.567-0.685c-0.348-0.14-0.505-0.415-0.533-0.712
		c-0.106-1.138,0.775-0.688,0.759-1.964c0.022-1.768-0.899-4.135-0.759-5.632c0.028-0.297,0.186-0.571,0.533-0.711
		c0.345-0.14,0.548-0.372,0.566-0.646c3.338,0.417,6.397,1.733,8.926,3.7c-0.18,0.205-0.199,0.513-0.054,0.854
		c0.146,0.344,0.063,0.649-0.127,0.88c-0.959,1.158-3.285,2.18-4.519,3.445c-0.914,0.892,0.027,1.197-0.852,1.925
		c-0.23,0.19-0.536,0.273-0.881,0.128c-0.358-0.153-0.681-0.123-0.885,0.082L66.766,55.871L66.766,55.871z M62.962,57.537
		c1.482,0,2.825,0.601,3.797,1.573c0.971,0.972,1.571,2.313,1.571,3.797c0,1.482-0.601,2.825-1.571,3.797
		c-0.972,0.972-2.314,1.572-3.797,1.572c-1.483,0-2.826-0.601-3.798-1.572s-1.572-2.314-1.572-3.797
		c0-1.483,0.601-2.825,1.572-3.797C60.136,58.138,61.479,57.537,62.962,57.537L62.962,57.537z M58.68,58.625
		c1.096-1.095,2.609-1.773,4.282-1.773c1.671,0,3.186,0.679,4.281,1.773c1.096,1.097,1.773,2.61,1.773,4.282
		c0,1.671-0.678,3.186-1.773,4.281s-2.61,1.773-4.281,1.773c-1.673,0-3.187-0.678-4.282-1.773s-1.773-2.609-1.773-4.281
		S57.584,59.722,58.68,58.625L58.68,58.625z M62.962,59.908c1.656,0,2.998,1.343,2.998,2.999s-1.342,2.999-2.998,2.999
		c-1.657,0-3-1.343-3-2.999S61.305,59.908,62.962,59.908z"/>
	<path fill-rule="evenodd" clip-rule="evenodd" fill="#373737" d="M8.094,103.44c6.5,8.145,14.77,14.977,24.229,19.689
		c9.438,4.734,20.068,7.255,30.653,7.235c10.585,0.016,21.215-2.511,30.65-7.247c9.456-4.718,17.724-11.554,24.22-19.702
		l-13.332-10.64c-5.021,6.298-11.364,11.519-18.509,15.082c-7.138,3.576-15.062,5.455-23.033,5.45
		c-7.97,0.009-15.896-1.866-23.035-5.44c-7.146-3.561-13.49-8.777-18.516-15.074L8.094,103.44z"/>
	<path fill-rule="evenodd" clip-rule="evenodd" fill="#373737" d="M107.208,93.532l-3.146-2.419c-2.411,1.395-4.874,2.562-7.346,3.5
		c3.403-3.343,6.352-7.178,8.764-11.336c1.896,2.405,3.675,4.945,5.32,7.612c3.096,0.488,6.256,0.805,9.464,0.944
		c-1.558,2.69-3.292,5.281-5.19,7.749L107.208,93.532L107.208,93.532z M18.714,93.532L18.714,93.532l3.146-2.419
		c2.42,1.405,4.893,2.583,7.373,3.529c-3.414-3.35-6.372-7.195-8.791-11.365c-1.896,2.405-3.676,4.945-5.321,7.612
		c-3.096,0.487-6.255,0.805-9.463,0.944c1.558,2.69,3.292,5.281,5.189,7.749L18.714,93.532z"/>
	<path fill-rule="evenodd" clip-rule="evenodd" fill="#FFFFFF" d="M17.853,102.951c0.329,0.343,0.872,0.366,1.215,0.031
		c0.321-0.315,0.344-0.875,0.025-1.207c-0.337-0.353-0.89-0.365-1.224-0.059C17.519,102.039,17.506,102.589,17.853,102.951
		L17.853,102.951z M108.086,102.933L108.086,102.933c0.347-0.363,0.334-0.912-0.017-1.233c-0.334-0.308-0.887-0.295-1.223,0.057
		c-0.318,0.334-0.297,0.893,0.025,1.207C107.214,103.298,107.757,103.275,108.086,102.933z"/>
	<path fill="#FFFFFF" d="M26.453,106.306c0.299-0.37,0.407-0.704,0.395-1.039c-0.05-0.329-0.233-0.642-0.569-0.927
		c-0.588-0.491-1.162-0.999-1.731-1.511c-0.036-0.033-0.055-0.05-0.089-0.049c-0.054-0.014-0.087,0.023-0.121,0.06l-5.081,5.566
		c-0.033,0.036-0.051,0.056-0.026,0.11c0.002,0.038,0.007,0.076,0.047,0.114c0.643,0.578,1.291,1.151,1.955,1.707
		c0.38,0.321,0.759,0.468,1.116,0.466c0.35-0.039,0.676-0.228,0.959-0.581l1.132-1.409c0.079-0.099,0.122-0.193,0.145-0.304
		c0.022-0.112,0.009-0.221-0.024-0.344c-0.029-0.089-0.098-0.209-0.164-0.295l0.016-0.019c0.081,0.065,0.215,0.107,0.321,0.1
		c0.113,0.025,0.222,0.016,0.324-0.029c0.103-0.047,0.186-0.107,0.264-0.206L26.453,106.306L26.453,106.306z M24.496,106.618
		L24.496,106.618c-0.081,0.095-0.149,0.136-0.256,0.145c-0.089,0.023-0.183-0.022-0.283-0.107l-0.702-0.605l1.307-1.493l0.681,0.586
		c0.097,0.081,0.14,0.185,0.165,0.271c-0.011,0.09-0.055,0.183-0.136,0.279L24.496,106.618L24.496,106.618z M22.397,109.119
		L22.397,109.119c-0.08,0.096-0.166,0.155-0.276,0.161c-0.074,0.003-0.174-0.047-0.277-0.135l-0.738-0.637l1.29-1.474l0.716,0.617
		c0.103,0.085,0.166,0.171,0.178,0.28c0.009,0.072-0.036,0.165-0.116,0.262L22.397,109.119L22.397,109.119z M34.775,111.928
		L34.775,111.928c0.233-0.417,0.305-0.749,0.216-1.09c-0.101-0.32-0.315-0.582-0.715-0.82c-0.687-0.405-1.363-0.827-2.034-1.26
		c-0.041-0.025-0.062-0.039-0.096-0.03c-0.035,0.007-0.082,0.036-0.109,0.077l-4.113,6.316c-0.027,0.042-0.018,0.078-0.007,0.114
		c0.008,0.035,0.019,0.072,0.064,0.101l0.959,0.61c0.047,0.028,0.084,0.021,0.121,0.014c0.036-0.006,0.072-0.012,0.1-0.055
		l1.311-2.114l0.611,0.376l-0.67,2.498c-0.024,0.042-0.026,0.1-0.002,0.113c0.01,0.036,0.045,0.087,0.093,0.115l0.961,0.552
		c0.073,0.04,0.109,0.032,0.146,0.024c0.036-0.009,0.061-0.054,0.086-0.098l0.629-2.59c0.257,0.032,0.505-0.028,0.718-0.139
		c0.227-0.133,0.406-0.349,0.566-0.634L34.775,111.928L34.775,111.928z M31.147,112.702L31.147,112.702l1.39-2.241l0.832,0.507
		c0.106,0.063,0.167,0.158,0.184,0.227c0.026,0.104-0.003,0.202-0.066,0.311l-0.932,1.581c-0.063,0.107-0.137,0.181-0.242,0.205
		c-0.07,0.018-0.186,0.008-0.297-0.06L31.147,112.702L31.147,112.702z M42.21,122.278L42.21,122.278
		c0.079,0.027,0.112,0.013,0.148-0.003c0.033-0.016,0.05-0.063,0.065-0.11c0.243-2.574,0.556-5.127,0.938-7.668
		c0.018-0.048,0.003-0.078-0.01-0.111c-0.016-0.032-0.062-0.049-0.106-0.065l-1.229-0.479c-0.045-0.017-0.067-0.027-0.099-0.012
		c-0.032,0.014-0.064,0.026-0.083,0.073c-1.438,2.13-2.936,4.222-4.495,6.283c-0.045,0.035-0.066,0.082-0.052,0.115
		c0.018,0.034,0.058,0.079,0.107,0.101l1.073,0.457c0.026,0.011,0.088,0.008,0.124-0.004c0.025,0.01,0.044-0.035,0.089-0.071
		l0.795-1.222c0.587,0.238,1.175,0.471,1.77,0.689l-0.215,1.447c-0.018,0.047-0.009,0.104,0.019,0.112
		c0.017,0.034,0.034,0.067,0.086,0.087L42.21,122.278L42.21,122.278z M41.391,119.098L41.391,119.098l-1.241-0.483l1.86-2.938
		L41.391,119.098L41.391,119.098z M53.229,117.058L53.229,117.058c-0.05-0.009-0.072-0.014-0.103,0.006
		c-0.026,0.021-0.061,0.066-0.069,0.115l-0.73,4.08l-0.052-0.009c-0.262-1.461-0.488-2.919-0.678-4.38
		c-0.013-0.055-0.031-0.082-0.051-0.113c-0.019-0.028-0.066-0.038-0.091-0.044l-0.929-0.203c-0.047-0.01-0.096-0.021-0.124-0.002
		c-0.029,0.021-0.041,0.068-0.052,0.117l-1.694,7.344c-0.012,0.05-0.017,0.073,0.005,0.104c0.021,0.03,0.069,0.066,0.124,0.078
		l1.088,0.238c0.08,0.016,0.113-0.002,0.146-0.022c0.032-0.018,0.065-0.036,0.075-0.086l0.843-4.084l0.05,0.01
		c0.219,1.476,0.474,2.943,0.766,4.419c0.018,0.056,0.041,0.086,0.063,0.115c0.026,0.005,0.079,0.038,0.105,0.043l1.069,0.179
		c0.057,0.009,0.115-0.008,0.146-0.028c0.031-0.021,0.035-0.046,0.043-0.096l1.156-7.447c0.007-0.05,0.014-0.098-0.006-0.128
		c-0.02-0.027-0.068-0.035-0.116-0.042L53.229,117.058L53.229,117.058z M59.856,125.518L59.856,125.518
		c-0.002,0.049-0.003,0.074,0.024,0.1c0.026,0.028,0.081,0.055,0.136,0.058c0.87,0.043,1.74,0.061,2.61,0.065
		c0.501,0.008,0.89-0.129,1.162-0.355c0.246-0.253,0.376-0.607,0.367-1.061l-0.095-5.023c-0.009-0.451-0.141-0.801-0.365-1.051
		c-0.248-0.226-0.59-0.341-1.027-0.347c-0.766-0.004-1.53-0.021-2.294-0.059c-0.048-0.002-0.097-0.005-0.122,0.02
		c-0.026,0.024-0.029,0.074-0.031,0.124L59.856,125.518L59.856,125.518z M61.354,124.416L61.354,124.416l0.134-5.25l0.899,0.016
		c0.125,0.001,0.224,0.054,0.273,0.103c0.074,0.076,0.1,0.176,0.099,0.303l-0.016,4.472c0,0.126-0.028,0.226-0.109,0.3
		c-0.055,0.051-0.163,0.075-0.3,0.074L61.354,124.416L61.354,124.416z M72.789,117.039L72.789,117.039
		c-0.048,0.01-0.071,0.014-0.092,0.043c-0.02,0.028-0.034,0.081-0.026,0.131l0.716,4.083l-0.052,0.01
		c-0.757-1.281-1.478-2.571-2.164-3.877c-0.008-0.051-0.035-0.07-0.063-0.094c-0.028-0.02-0.076-0.013-0.124-0.005l-0.918,0.124
		c-0.049,0.007-0.097,0.012-0.117,0.041c-0.022,0.029-0.017,0.078-0.01,0.127l0.934,7.48c0.006,0.049,0.009,0.074,0.041,0.094
		c0.03,0.022,0.088,0.041,0.144,0.033l1.103-0.15c0.082-0.013,0.107-0.041,0.131-0.07c0.022-0.029,0.047-0.058,0.039-0.107
		l-0.612-4.125l0.052-0.008c0.711,1.311,1.456,2.601,2.236,3.888c0.036,0.045,0.068,0.064,0.101,0.085
		c0.026-0.005,0.086,0.01,0.113,0.004l1.065-0.2c0.056-0.011,0.077-0.04,0.127-0.077c0.022-0.03,0.019-0.055,0.008-0.104
		l-1.474-7.391c-0.01-0.05-0.02-0.099-0.049-0.119c-0.053-0.015-0.076-0.009-0.125,0L72.789,117.039L72.789,117.039z
		 M86.887,121.091L86.887,121.091c0.052-0.021,0.093-0.065,0.108-0.1c0.017-0.034-0.002-0.081-0.047-0.116
		c-1.493-2.104-2.926-4.243-4.296-6.412c-0.04-0.039-0.073-0.053-0.104-0.069c-0.03-0.015-0.054-0.006-0.1,0.011l-1.239,0.446
		c-0.047,0.016-0.069,0.023-0.107,0.063c-0.015,0.032-0.03,0.063-0.015,0.111c0.311,2.545,0.553,5.111,0.723,7.688
		c0.015,0.048,0.03,0.097,0.063,0.112c0.034,0.016,0.067,0.032,0.122,0.016l1.11-0.359c0.053-0.017,0.071-0.05,0.089-0.083
		c0.027-0.009,0.037-0.064,0.021-0.112l-0.173-1.453l1.761-0.631l0.788,1.236c0.044,0.036,0.062,0.083,0.087,0.072
		c0.035,0.015,0.097,0.017,0.148-0.004L86.887,121.091L86.887,121.091z M84.183,119.228L84.183,119.228l-1.254,0.449l-0.522-3.438
		L84.183,119.228L84.183,119.228z M92.605,109.438L92.605,109.438c-0.042,0.025-0.083,0.051-0.091,0.085
		c-0.016,0.067-0.022,0.103,0.017,0.166c0.552,1.571,1.07,3.148,1.568,4.745c-1.159-1.202-2.296-2.428-3.404-3.663
		c-0.037-0.065-0.071-0.076-0.139-0.096c-0.033-0.011-0.076,0.014-0.119,0.037l-1.115,0.606c-0.043,0.022-0.086,0.046-0.105,0.113
		c-0.011,0.033-0.008,0.09,0.026,0.157l3.464,6.579c0.035,0.066,0.083,0.099,0.119,0.106c0.062-0.003,0.121-0.007,0.17-0.032
		l0.879-0.476c0.073-0.04,0.109-0.088,0.12-0.124c0.014-0.035,0.013-0.093-0.023-0.159l-2.145-3.865l0.067-0.037
		c1.007,1.139,2.03,2.257,3.075,3.366c0.049,0.029,0.098,0.06,0.135,0.068c0.061-0.006,0.098,0.002,0.17-0.039l0.453-0.269
		c0.047-0.027,0.081-0.077,0.093-0.114c0.035-0.05,0.032-0.107,0.007-0.149c-0.451-1.454-0.926-2.903-1.424-4.339l0.066-0.041
		l2.336,3.753c0.039,0.064,0.089,0.093,0.126,0.1c0.036,0.007,0.097-0.001,0.168-0.044l0.839-0.536
		c0.048-0.029,0.081-0.081,0.113-0.133c0.01-0.035,0.005-0.093-0.036-0.155l-4.062-6.228c-0.041-0.063-0.089-0.093-0.123-0.1
		c-0.069-0.016-0.11,0.011-0.151,0.036L92.605,109.438L92.605,109.438z M101.602,102.823L101.602,102.823
		c-0.033-0.037-0.066-0.073-0.103-0.075c-0.035-0.002-0.07,0.031-0.107,0.063c-0.868,0.791-1.76,1.553-2.672,2.291
		c-0.037,0.03-0.057,0.046-0.06,0.081c-0.004,0.036,0.009,0.089,0.04,0.128l4.724,5.874c0.031,0.038,0.067,0.042,0.104,0.043
		c0.038,0.002,0.075,0.004,0.118-0.03c1.031-0.833,2.038-1.696,3.019-2.587c0.041-0.037,0.064-0.093,0.067-0.131
		c0.004-0.038-0.014-0.056-0.047-0.093l-0.661-0.724c-0.051-0.056-0.066-0.074-0.105-0.074c-0.035,0-0.092,0.019-0.133,0.056
		c-0.657,0.592-1.319,1.178-1.999,1.745l-1.26-1.501c0.505-0.422,1.001-0.854,1.491-1.291c0.039-0.034,0.041-0.072,0.045-0.108
		c0.003-0.036-0.011-0.09-0.046-0.128l-0.653-0.729c-0.034-0.037-0.069-0.038-0.122-0.059c-0.037-0.002-0.056,0.016-0.093,0.05
		c-0.481,0.429-0.968,0.852-1.463,1.265l-1.259-1.501c0.626-0.522,1.237-1.063,1.844-1.609c0.036-0.034,0.056-0.086,0.058-0.121
		c0.001-0.036-0.032-0.073-0.066-0.109L101.602,102.823z"/>
	<path fill-rule="evenodd" clip-rule="evenodd" fill="#545454" d="M6.225,81.921c-0.269-0.794-0.859-1.616-1.395-1.841l-1.919-0.908
		c-0.533-0.247-0.741,0.24-0.509,1.095c0.25,0.85,0.856,1.721,1.408,1.933c0.649,0.271,1.306,0.569,1.962,0.812
		C6.324,83.203,6.487,82.716,6.225,81.921L6.225,81.921z M118.559,84.823c0.314-0.816,1.262-1.237,2.146-0.923
		c0.854,0.306,1.285,1.268,0.95,2.138c-0.36,0.904-1.335,1.315-2.163,0.96C118.623,86.624,118.22,85.672,118.559,84.823
		L118.559,84.823z M7.377,84.861L7.377,84.861c0.326,0.812-0.079,1.763-0.948,2.137c-0.828,0.355-1.802-0.056-2.147-0.921
		c-0.35-0.909,0.08-1.872,0.936-2.177C6.102,83.586,7.049,84.008,7.377,84.861L7.377,84.861z M120.479,79.4L120.479,79.4
		c-0.227,0.767-0.199,1.82,0.109,2.306c0.368,0.587,0.737,1.188,1.086,1.794c0.295,0.501,0.758,0.223,1.034-0.621
		c0.271-0.797,0.26-1.902-0.069-2.388c-0.377-0.586-0.78-1.168-1.176-1.737C121.122,78.287,120.699,78.592,120.479,79.4
		L120.479,79.4z M121.441,75.521c0.181-0.817,0.564-1.155,0.943-0.709c0.444,0.542,0.863,1.091,1.289,1.654
		c0.368,0.462,0.438,1.56,0.231,2.378c-0.231,0.856-0.658,1.17-0.994,0.688c-0.397-0.585-0.785-1.154-1.202-1.719
		C121.361,77.349,121.279,76.302,121.441,75.521L121.441,75.521L121.441,75.521z M122.146,71.585L122.146,71.585
		c-0.111,0.832,0.037,1.829,0.424,2.271l1.315,1.633c0.367,0.459,0.772,0.117,0.931-0.711c0.175-0.869,0.008-1.965-0.376-2.399
		l-1.397-1.564C122.642,70.397,122.265,70.756,122.146,71.585L122.146,71.585z M122.59,67.611c0.054-0.836,0.407-1.22,0.836-0.829
		c0.502,0.478,1.011,0.968,1.498,1.468c0.419,0.409,0.65,1.489,0.539,2.368c-0.097,0.839-0.495,1.205-0.885,0.771
		c-0.461-0.523-0.945-1.038-1.422-1.54C122.758,69.435,122.517,68.446,122.59,67.611L122.59,67.611L122.59,67.611z M122.76,63.617
		L122.76,63.617c-0.002,0.839,0.281,1.808,0.72,2.194c0.52,0.471,1.013,0.95,1.52,1.443c0.426,0.406,0.777,0.056,0.834-0.828
		c0.042-0.885-0.244-1.948-0.698-2.327c-0.531-0.467-1.05-0.922-1.59-1.366C123.084,62.373,122.775,62.778,122.76,63.617
		L122.76,63.617z M122.672,59.618c-0.053-0.836,0.249-1.263,0.723-0.933c0.559,0.407,1.126,0.827,1.681,1.257
		c0.46,0.352,0.844,1.392,0.844,2.277c0.016,0.886-0.327,1.259-0.771,0.923c-0.532-0.499-1.078-0.945-1.615-1.381
		C123.081,61.403,122.714,60.456,122.672,59.618L122.672,59.618L122.672,59.618z M122.318,55.635L122.318,55.635
		c0.103,0.832,0.523,1.754,0.999,2.082c0.576,0.396,1.138,0.808,1.701,1.272c0.47,0.305,0.777-0.09,0.716-0.974
		c-0.073-0.884-0.502-1.897-0.995-2.174c-0.586-0.437-1.168-0.817-1.763-1.185C122.476,54.359,122.216,54.804,122.318,55.635
		L122.318,55.635z M121.698,51.686c-0.152-0.822,0.076-1.283,0.597-1.021c0.61,0.329,1.216,0.67,1.837,1.064
		c0.504,0.244,1.008,1.226,1.133,2.104c0.123,0.877-0.15,1.291-0.644,1.019c-0.601-0.426-1.189-0.796-1.78-1.157
		C122.328,53.402,121.867,52.507,121.698,51.686L121.698,51.686L121.698,51.686z M120.818,47.787L120.818,47.787
		c0.208,0.812,0.757,1.667,1.27,1.929c0.612,0.318,1.241,0.646,1.856,1.033c0.507,0.282,0.769-0.194,0.574-1.06
		c-0.179-0.866-0.747-1.771-1.271-2.022c-0.637-0.354-1.278-0.649-1.906-0.938C120.811,46.5,120.601,46.979,120.818,47.787
		L120.818,47.787z M119.678,43.956c-0.27-0.792-0.101-1.28,0.448-1.09c0.653,0.242,1.306,0.498,1.964,0.808
		c0.551,0.212,1.163,1.081,1.409,1.932c0.238,0.854,0.025,1.343-0.507,1.097c-0.644-0.343-1.278-0.633-1.92-0.907
		C120.541,45.57,119.942,44.751,119.678,43.956L119.678,43.956L119.678,43.956z M118.278,40.213L118.278,40.213
		c0.325,0.771,0.963,1.553,1.52,1.738c0.657,0.231,1.316,0.521,1.977,0.776c0.551,0.208,0.723-0.292,0.429-1.128
		c-0.305-0.832-0.97-1.659-1.534-1.833c-0.672-0.222-1.34-0.479-2.013-0.673C118.089,38.941,117.967,39.435,118.278,40.213
		L118.278,40.213z M116.633,36.568c-0.37-0.75-0.265-1.259,0.303-1.143c0.674,0.156,1.37,0.359,2.056,0.538
		c0.559,0.142,1.304,0.911,1.648,1.727c0.36,0.811,0.209,1.327-0.349,1.152c-0.671-0.213-1.361-0.451-2.024-0.641
		C117.701,38.055,117.009,37.318,116.633,36.568L116.633,36.568L116.633,36.568z M114.748,33.043L114.748,33.043
		c0.416,0.728,1.171,1.408,1.735,1.522c0.678,0.145,1.388,0.332,2.063,0.504c0.565,0.137,0.688-0.391,0.274-1.175
		c-0.406-0.787-1.19-1.51-1.765-1.611c-0.685-0.138-1.405-0.287-2.086-0.397C114.398,31.806,114.321,32.323,114.748,33.043
		L114.748,33.043z M112.631,29.652L112.631,29.652c0.467,0.696,1.26,1.327,1.832,1.404c0.693,0.093,1.4,0.241,2.093,0.363
		c0.579,0.097,0.652-0.431,0.198-1.19c-0.464-0.756-1.285-1.43-1.872-1.489c-0.694-0.09-1.413-0.197-2.107-0.258
		C112.194,28.442,112.159,28.959,112.631,29.652L112.631,29.652z M110.289,26.411L110.289,26.411
		c0.518,0.66,1.343,1.243,1.926,1.275l2.111,0.226c0.586,0.054,0.621-0.473,0.116-1.201c-0.514-0.722-1.375-1.342-1.965-1.361
		l-2.121-0.118C109.772,25.234,109.782,25.744,110.289,26.411L110.289,26.411z M107.741,23.332L107.741,23.332
		c0.562,0.619,1.443,1.184,2.006,1.143l2.123,0.083c0.585,0.02,0.59-0.515,0.032-1.202c-0.553-0.692-1.466-1.243-2.048-1.231
		l-2.123,0.025C107.149,22.188,107.188,22.7,107.741,23.332L107.741,23.332z M104.992,20.426L104.992,20.426
		c0.595,0.591,1.528,1.078,2.076,1.011l2.124-0.059c0.581-0.016,0.562-0.559-0.046-1.203c-0.597-0.654-1.548-1.142-2.124-1.092
		l-2.119,0.165C104.36,19.349,104.394,19.841,104.992,20.426L104.992,20.426z M102.059,17.708L102.059,17.708
		c0.631,0.554,1.595,0.978,2.137,0.874l2.114-0.198c0.582-0.058,0.521-0.591-0.123-1.2c-0.643-0.609-1.616-1.04-2.194-0.946
		l-2.103,0.306C101.353,16.681,101.419,17.168,102.059,17.708L102.059,17.708z M98.949,15.196L98.949,15.196
		c0.67,0.503,1.654,0.868,2.223,0.753c0.687-0.139,1.368-0.252,2.065-0.364c0.578-0.1,0.475-0.618-0.203-1.191
		c-0.687-0.559-1.68-0.931-2.254-0.795c-0.688,0.144-1.367,0.297-2.044,0.467C98.173,14.22,98.28,14.692,98.949,15.196
		L98.949,15.196z M95.679,12.896c-0.696-0.467-0.839-0.924-0.286-1.116c0.665-0.216,1.329-0.406,2.009-0.602
		c0.564-0.175,1.58,0.131,2.3,0.646c0.717,0.523,0.855,1.031,0.284,1.171l-2.036,0.5C97.385,13.657,96.385,13.348,95.679,12.896
		L95.679,12.896L95.679,12.896z M92.264,10.816L92.264,10.816c0.732,0.406,1.756,0.642,2.306,0.448l1.999-0.636
		c0.558-0.171,0.392-0.683-0.362-1.148c-0.746-0.478-1.794-0.692-2.336-0.495l-1.965,0.735
		C91.371,9.943,91.568,10.425,92.264,10.816L92.264,10.816z M88.755,8.985c-0.759-0.354-0.987-0.823-0.47-1.08
		c0.626-0.293,1.269-0.594,1.91-0.866c0.532-0.241,1.625-0.067,2.366,0.335c0.784,0.413,0.98,0.918,0.437,1.124
		c-0.655,0.24-1.311,0.505-1.952,0.767C90.516,9.487,89.473,9.335,88.755,8.985L88.755,8.985L88.755,8.985z M85.094,7.38
		L85.094,7.38c0.742,0.295,1.79,0.386,2.306,0.125c0.626-0.312,1.255-0.605,1.896-0.896c0.532-0.247,0.296-0.724-0.509-1.095
		c-0.771-0.343-1.868-0.456-2.385-0.172C85.776,5.66,85.16,5.99,84.554,6.334C84.052,6.629,84.316,7.073,85.094,7.38L85.094,7.38z
		 M81.334,6.027c-0.796-0.266-1.091-0.679-0.61-1.012c0.584-0.385,1.173-0.744,1.777-1.114c0.497-0.317,1.599-0.278,2.429,0.029
		c0.789,0.3,1.06,0.754,0.545,1.04c-0.622,0.337-1.23,0.671-1.832,1.021C83.143,6.297,82.134,6.276,81.334,6.027L81.334,6.027
		L81.334,6.027z M77.491,4.927L77.491,4.927c0.812,0.201,1.824,0.142,2.301-0.189l1.759-1.145c0.493-0.312,0.198-0.762-0.614-0.998
		c-0.846-0.263-1.953-0.203-2.424,0.131l-1.698,1.232C76.359,4.313,76.678,4.729,77.491,4.927L77.491,4.927z M73.584,4.086
		c-0.827-0.14-1.173-0.527-0.741-0.915c0.525-0.453,1.064-0.908,1.61-1.344C74.902,1.45,76,1.331,76.864,1.529
		c0.865,0.194,1.149,0.612,0.68,0.959c-0.569,0.406-1.13,0.831-1.679,1.26C75.413,4.103,74.407,4.241,73.584,4.086L73.584,4.086
		L73.584,4.086z M69.627,3.517L69.627,3.517c0.833,0.085,1.826-0.1,2.255-0.498c0.521-0.468,1.048-0.911,1.589-1.367
		c0.447-0.382,0.134-0.768-0.741-0.912c-0.876-0.131-1.963,0.049-2.386,0.461c-0.519,0.484-1.021,0.951-1.518,1.446
		C68.422,3.071,68.795,3.414,69.627,3.517L69.627,3.517z M65.64,3.207c-0.837-0.032-1.231-0.376-0.855-0.813
		c0.461-0.516,0.934-1.034,1.46-1.546c0.353-0.422,1.426-0.704,2.308-0.615c0.882,0.075,1.221,0.45,0.842,0.859
		c-0.551,0.484-1.05,0.979-1.535,1.471C67.456,2.981,66.478,3.241,65.64,3.207L65.64,3.207L65.64,3.207z M61.641,3.161L61.641,3.161
		c0.839-0.018,1.798-0.348,2.172-0.787c0.452-0.53,0.917-1.054,1.435-1.565c0.351-0.435-0.013-0.786-0.897-0.808
		c-0.886-0.02-1.938,0.31-2.263,0.771c-0.491,0.537-0.928,1.082-1.354,1.637C60.388,2.877,60.803,3.181,61.641,3.161L61.641,3.161z
		 M57.647,3.381c-0.834,0.069-1.27-0.205-0.955-0.696c0.39-0.573,0.789-1.142,1.243-1.72c0.294-0.478,1.322-0.878,2.206-0.916
		c0.885-0.034,1.312,0.279,0.95,0.744c-0.483,0.553-0.913,1.101-1.33,1.655C59.419,2.928,58.481,3.297,57.647,3.381L57.647,3.381
		L57.647,3.381z M53.68,3.862L53.68,3.862c0.829-0.123,1.735-0.583,2.047-1.066c0.38-0.577,0.769-1.171,1.215-1.742
		c0.332-0.477-0.115-0.786-0.995-0.68c-0.881,0.092-1.838,0.564-2.141,1.062C53.39,2.03,53.03,2.643,52.681,3.237
		C52.398,3.742,52.853,3.999,53.68,3.862L53.68,3.862z M49.754,4.611c-0.817,0.185-1.286-0.027-1.041-0.557
		c0.307-0.629,0.669-1.253,1.004-1.873c0.267-0.527,1.193-1.044,2.063-1.207c0.874-0.146,1.338,0.111,1.039,0.616
		c-0.364,0.603-0.759,1.206-1.096,1.818C51.446,3.918,50.57,4.426,49.754,4.611L49.754,4.611L49.754,4.611z M45.886,5.624
		L45.886,5.624c0.8-0.249,1.644-0.798,1.883-1.337c0.3-0.625,0.651-1.258,0.974-1.889c0.263-0.526-0.218-0.747-1.078-0.537
		c-0.86,0.213-1.747,0.801-1.979,1.339c-0.289,0.646-0.609,1.291-0.873,1.935C44.602,5.679,45.082,5.858,45.886,5.624L45.886,5.624z
		 M42.096,6.892c-0.782,0.299-1.279,0.137-1.104-0.414c0.223-0.653,0.492-1.333,0.74-1.991c0.197-0.544,1.039-1.203,1.885-1.468
		c0.842-0.278,1.342-0.068,1.111,0.466c-0.281,0.64-0.585,1.309-0.842,1.95C43.678,5.971,42.882,6.603,42.096,6.892L42.096,6.892
		L42.096,6.892z M38.398,8.41L38.398,8.41c0.766-0.339,1.519-1.02,1.69-1.57c0.209-0.666,0.47-1.344,0.709-2.002
		c0.19-0.552-0.317-0.719-1.142-0.394c-0.823,0.328-1.624,1.028-1.781,1.596c-0.205,0.668-0.429,1.364-0.606,2.036
		C37.133,8.64,37.64,8.764,38.398,8.41L38.398,8.41z M34.814,10.18L34.814,10.18c0.737-0.399,1.447-1.116,1.579-1.685l0.572-2.045
		c0.151-0.567-0.362-0.691-1.165-0.315c-0.797,0.389-1.552,1.133-1.669,1.713c-0.156,0.687-0.341,1.383-0.468,2.071
		C33.568,10.495,34.073,10.573,34.814,10.18L34.814,10.18z M31.354,12.184L31.354,12.184c0.706-0.453,1.374-1.208,1.461-1.79
		l0.436-2.078c0.114-0.577-0.41-0.666-1.182-0.231c-0.773,0.431-1.472,1.236-1.553,1.815l-0.328,2.097
		C30.131,12.578,30.641,12.623,31.354,12.184L31.354,12.184z M28.035,14.412L28.035,14.412c0.68-0.489,1.315-1.328,1.341-1.88
		l0.293-2.104c0.08-0.575-0.457-0.646-1.194-0.153c-0.744,0.479-1.382,1.337-1.429,1.914l-0.188,2.116
		C26.869,14.856,27.359,14.906,28.035,14.412L28.035,14.412z M24.87,16.855L24.87,16.855c0.649-0.529,1.227-1.411,1.215-1.963
		l0.153-2.117c0.04-0.583-0.497-0.612-1.204-0.077c-0.707,0.533-1.292,1.422-1.295,2.009l-0.047,2.124
		C23.739,17.382,24.23,17.396,24.87,16.855L24.87,16.855z M21.877,19.509L21.877,19.509c0.609-0.578,1.132-1.489,1.111-2.068
		c-0.022-0.699-0.022-1.392-0.018-2.097c-0.003-0.588-0.531-0.571-1.208,0.003c-0.666,0.584-1.197,1.502-1.158,2.091l0.095,2.122
		C20.786,20.11,21.27,20.086,21.877,19.509L21.877,19.509z M19.067,22.353L19.067,22.353c0.563-0.621,1.033-1.557,0.967-2.14
		l-0.154-2.092c-0.044-0.586-0.569-0.532-1.203,0.087c-0.628,0.625-1.098,1.577-1.019,2.162c0.081,0.703,0.159,1.388,0.262,2.08
		C18.02,23.027,18.492,22.962,19.067,22.353L19.067,22.353z M16.45,25.375L16.45,25.375c0.522-0.655,0.927-1.622,0.824-2.198
		l-0.295-2.076c-0.078-0.579-0.607-0.499-1.192,0.166c-0.594,0.657-0.982,1.653-0.875,2.223l0.398,2.059
		C15.444,26.113,15.947,25.995,16.45,25.375L16.45,25.375z M14.04,28.565c-0.454,0.656-0.957,0.804-1.122,0.249
		c-0.186-0.665-0.371-1.347-0.537-2.026c-0.146-0.564,0.179-1.581,0.725-2.277c0.537-0.706,1.068-0.813,1.181-0.244
		c0.127,0.687,0.281,1.377,0.433,2.053C14.852,26.88,14.524,27.881,14.04,28.565L14.04,28.565L14.04,28.565z M11.868,31.873
		L11.868,31.873c0.416-0.679,0.678-1.698,0.508-2.251c-0.203-0.667-0.391-1.34-0.567-2.019c-0.155-0.564-0.668-0.412-1.165,0.321
		c-0.471,0.701-0.76,1.765-0.568,2.321c0.209,0.667,0.437,1.332,0.67,1.989C10.951,32.776,11.437,32.594,11.868,31.873
		L11.868,31.873z M9.903,35.356c-0.393,0.741-0.851,0.963-1.098,0.432c-0.282-0.641-0.541-1.281-0.801-1.938
		c-0.23-0.543-0.006-1.621,0.411-2.354c0.451-0.764,0.945-0.953,1.141-0.397c0.229,0.669,0.45,1.321,0.7,1.978
		C10.47,33.617,10.269,34.646,9.903,35.356L9.903,35.356L9.903,35.356z M8.176,38.962L8.176,38.962
		c0.327-0.773,0.452-1.772,0.197-2.303l-0.832-1.924c-0.231-0.541-0.713-0.32-1.087,0.438c-0.396,0.791-0.534,1.889-0.276,2.411
		l0.928,1.88C7.386,39.976,7.836,39.728,8.176,38.962L8.176,38.962z M6.692,42.672c-0.278,0.791-0.724,1.066-1.03,0.577
		l-1.055-1.813c-0.289-0.504-0.23-1.612,0.114-2.429c0.33-0.821,0.799-1.027,1.057-0.508c0.305,0.628,0.637,1.254,0.96,1.865
		C7.014,40.87,6.979,41.886,6.692,42.672L6.692,42.672L6.692,42.672z M5.461,46.477L5.461,46.477
		c0.234-0.806,0.202-1.819-0.106-2.307c-0.374-0.59-0.733-1.188-1.082-1.797c-0.299-0.503-0.739-0.261-1.024,0.578
		c-0.281,0.842-0.279,1.945,0.054,2.43c0.378,0.591,0.773,1.169,1.174,1.739C4.818,47.589,5.236,47.283,5.461,46.477L5.461,46.477z
		 M4.493,50.354c-0.184,0.816-0.564,1.152-0.944,0.707c-0.443-0.542-0.859-1.091-1.278-1.695c-0.376-0.422-0.445-1.521-0.226-2.38
		c0.231-0.854,0.646-1.129,0.993-0.687c0.387,0.626,0.777,1.196,1.188,1.76C4.579,48.528,4.662,49.533,4.493,50.354L4.493,50.354
		L4.493,50.354z M3.785,54.288L3.785,54.288c0.118-0.83-0.042-1.829-0.42-2.271c-0.439-0.533-0.882-1.078-1.307-1.676
		c-0.37-0.417-0.777-0.119-0.94,0.752c-0.178,0.868-0.006,1.964,0.381,2.358c0.456,0.574,0.924,1.097,1.39,1.606
		C3.287,55.476,3.669,55.117,3.785,54.288L3.785,54.288z M3.339,58.261c-0.059,0.835-0.408,1.22-0.838,0.829
		c-0.506-0.479-1.009-0.969-1.492-1.512C0.583,57.21,0.357,56.13,0.466,55.25c0.108-0.879,0.502-1.244,0.893-0.811
		c0.456,0.566,0.935,1.081,1.416,1.584C3.173,56.438,3.409,57.425,3.339,58.261L3.339,58.261L3.339,58.261z M3.163,62.258
		L3.163,62.258c0-0.839-0.277-1.809-0.718-2.197c-0.515-0.47-1.012-0.951-1.516-1.486c-0.426-0.407-0.779-0.014-0.836,0.87
		c-0.044,0.884,0.244,1.905,0.694,2.285c0.53,0.51,1.052,0.965,1.588,1.409C2.834,63.5,3.147,63.095,3.163,62.258L3.163,62.258z
		 M3.245,66.255c0.053,0.836-0.248,1.262-0.723,0.931c-0.557-0.406-1.129-0.825-1.68-1.299c-0.463-0.352-0.84-1.351-0.842-2.237
		c-0.017-0.885,0.332-1.301,0.774-0.921c0.528,0.458,1.077,0.947,1.613,1.384C2.837,64.47,3.206,65.418,3.245,66.255L3.245,66.255
		L3.245,66.255z M3.597,70.237L3.597,70.237c-0.105-0.831-0.52-1.755-1-2.082c-0.576-0.397-1.135-0.851-1.699-1.272
		c-0.473-0.347-0.773,0.087-0.717,0.972c0.076,0.883,0.495,1.855,0.993,2.175c0.585,0.395,1.167,0.818,1.763,1.187
		C3.439,71.514,3.693,71.069,3.597,70.237L3.597,70.237z M4.212,74.187c0.155,0.825-0.082,1.285-0.599,1.022
		c-0.606-0.33-1.224-0.713-1.836-1.065c-0.504-0.288-1.012-1.229-1.13-2.107c-0.125-0.877,0.147-1.33,0.644-1.017
		c0.594,0.386,1.191,0.799,1.781,1.158C3.582,72.472,4.045,73.366,4.212,74.187L4.212,74.187L4.212,74.187z M5.086,78.089
		c0.22,0.808,0.009,1.286-0.521,1.056c-0.629-0.288-1.283-0.624-1.905-0.939c-0.527-0.25-1.09-1.156-1.271-2.023
		c-0.19-0.866,0.069-1.343,0.577-1.06c0.606,0.347,1.24,0.717,1.855,1.037C4.333,76.42,4.882,77.276,5.086,78.089L5.086,78.089z"/>
	<path fill="#373737" d="M11.616,80.398l1.241-0.421l1.263-0.429l-0.158-0.477c-0.058-0.173-0.123-0.296-0.225-0.384
		c-0.103-0.088-0.214-0.148-0.339-0.158c-0.123-0.01-0.282,0.018-0.437,0.065l-0.986,0.309c-0.154,0.048-0.301,0.118-0.396,0.198
		c-0.095,0.079-0.164,0.176-0.192,0.312c-0.027,0.134-0.005,0.279,0.056,0.461L11.616,80.398L11.616,80.398z M12.713,77.774
		L12.713,77.774c0.242-0.072,0.454-0.086,0.636-0.045c0.174,0.021,0.339,0.09,0.473,0.215c0.128,0.105,0.247,0.259,0.343,0.418
		c0.104,0.181,0.172,0.373,0.234,0.566l0.157,0.474l0.762-0.259l0.762-0.259l0.115-0.384l0.217-0.073l0.15,0.454l0.167,0.471
		l0.161,0.449l-0.216,0.08L16.34,79.63l-2.252,0.804l-2.252,0.804l-0.088,0.365l-0.217,0.079c-0.197-0.539-0.386-1.08-0.562-1.626
		c-0.075-0.231-0.125-0.443-0.137-0.643c-0.021-0.222-0.004-0.404,0.042-0.569c0.062-0.194,0.159-0.351,0.292-0.465
		c0.126-0.137,0.333-0.248,0.554-0.312L12.713,77.774L12.713,77.774z M9.395,71.39L9.395,71.39l0.612-0.098l0.545-0.084l0.569-0.09
		l0.612-0.097l-0.076-0.523c-0.025-0.181-0.068-0.313-0.152-0.419c-0.084-0.104-0.186-0.16-0.306-0.19
		c-0.124-0.053-0.287-0.056-0.446-0.034l-0.752,0.099c-0.159,0.021-0.316,0.065-0.424,0.128c-0.106,0.062-0.185,0.17-0.236,0.297
		c-0.053,0.104-0.053,0.274-0.025,0.465L9.395,71.39L9.395,71.39z M12.644,70.081L12.644,70.081
		c-0.153,0.067-0.235,0.147-0.316,0.229c-0.062,0.055-0.117,0.153-0.127,0.247c-0.032,0.098-0.014,0.232,0.006,0.368l0.432-0.068
		l0.477-0.075l0.478-0.074l0.455-0.071l0.18-0.36l0.228-0.033l0.072,0.472l0.083,0.494l0.08,0.471l-0.227,0.041l-0.284-0.306
		l-2.356,0.407l-2.355,0.408l-0.151,0.345l-0.227,0.04c-0.094-0.566-0.199-1.13-0.274-1.698c-0.034-0.239-0.042-0.459-0.024-0.657
		c0.017-0.197,0.063-0.398,0.139-0.554c0.097-0.157,0.22-0.293,0.367-0.407c0.152-0.091,0.376-0.164,0.604-0.19l0.754-0.088
		c0.227-0.025,0.416-0.001,0.606,0.048c0.168,0.049,0.295,0.149,0.426,0.271c0.107,0.126,0.192,0.275,0.265,0.45
		c0.011-0.094,0.046-0.167,0.108-0.221c0.039-0.074,0.079-0.125,0.144-0.155c0.063-0.055,0.13-0.086,0.219-0.119l0.982-0.502
		l0.175-0.086c0.063-0.053,0.107-0.08,0.147-0.128c0.043-0.028,0.083-0.075,0.099-0.144c0.019-0.047,0.035-0.093,0.005-0.154
		l0.319-0.036c0.029,0.041,0.06,0.104,0.09,0.166c0.007,0.064,0.037,0.126,0.045,0.191l0.022,0.193
		c0.013,0.109,0.022,0.195-0.013,0.287c-0.038,0.069-0.098,0.144-0.162,0.195c-0.063,0.053-0.148,0.107-0.236,0.142
		c-0.085,0.056-0.173,0.089-0.28,0.147L12.644,70.081L12.644,70.081z M13.981,60.209L13.981,60.209l-0.059,1.432l-0.015,1.437
		h-0.229l-0.23-0.349l-2.413-0.009l-2.391-0.009l-0.208,0.336H8.229l0.01-1.017c0.002-0.338,0.009-0.678,0.024-1.017l0.041-1.015
		l1.264,0.065L9.55,60.49l-0.791,0.205c-0.012,0.384-0.033,0.767-0.034,1.151l1.056,0.021l1.081,0.021l0.022-0.784l-0.452-0.226
		l0.009-0.256l0.461,0.021l0.48,0.021l0.438,0.02l-0.009,0.248l-0.445,0.189l-0.021,0.776l0.896,0.017l0.896,0.018
		c0.069,0.002,0.115,0.002,0.161,0.025c0.046,0.022,0.068,0.067,0.09,0.135h0.047l0.014-0.658l0.025-0.658l-0.771-0.3l0.016-0.334
		L13.981,60.209L13.981,60.209z M14.522,53.654L14.522,53.654l0.248,0.047l-0.073,0.384l-0.07,0.407l-0.064,0.385l-0.249-0.042
		l-0.15-0.356l-2.356-0.404l-2.357-0.403L9.19,53.97l-0.227-0.038l0.067-0.405l0.069-0.406l0.077-0.404
		c0.023-0.12,0.037-0.191,0.073-0.259c0.037-0.067,0.091-0.104,0.14-0.12c0.055-0.039,0.149-0.044,0.244-0.051
		c0.329-0.009,0.631,0.004,0.934,0.016c0.284-0.015,0.563-0.006,0.841,0.004c0.259,0.004,0.538,0.015,0.813,0.048
		c0.258,0.007,0.537,0.02,0.834,0.057c0.28,0.014,0.583,0.031,0.901,0.076l0.005-0.022c-1.354-0.521-2.702-1.061-4.046-1.619
		c-0.086-0.043-0.147-0.083-0.205-0.146c-0.039-0.033-0.046-0.109-0.058-0.162c-0.006-0.077,0.018-0.17,0.04-0.265l0.08-0.33
		l0.069-0.282l0.069-0.282l0.078-0.305l0.223,0.057l0.115,0.379l2.319,0.587l2.295,0.582l0.331-0.275l0.223,0.058l-0.117,0.463
		l-0.118,0.485l-0.111,0.464l-0.225-0.051l-0.146-0.371l-3.736-0.883l-0.777-0.209l-0.006,0.023
		c1.556,0.688,3.134,1.352,4.712,1.985l-0.134,0.616c-0.017,0.085-0.051,0.145-0.104,0.179c-0.03,0.038-0.103,0.046-0.17,0.032
		l-1.606-0.044l-1.609-0.028l-1.614-0.01l-0.008,0.047l1.049,0.144l1.741,0.317l1.742,0.318L14.522,53.654L14.522,53.654z
		 M12.702,42.321L12.702,42.321l2.213,0.905l2.19,0.897l0.357-0.206l0.212,0.088l-0.181,0.442l-0.188,0.463l-0.169,0.445
		l-0.215-0.081l-0.111-0.419l-2.206-0.862l-2.226-0.869l-0.305,0.217l-0.216-0.082c0.174-0.471,0.37-0.932,0.558-1.396l0.214,0.089
		L12.702,42.321L12.702,42.321z M20.507,37.351L20.507,37.351c0.088-0.151,0.12-0.287,0.15-0.422c0-0.13-0.053-0.266-0.146-0.376
		c-0.083-0.129-0.227-0.246-0.422-0.366l-3.197-1.995l-0.343,0.156l-0.216-0.133l0.674-1.066l0.212,0.138l-0.01,0.395l3.195,2.043
		c0.232,0.148,0.402,0.312,0.522,0.466c0.12,0.155,0.198,0.334,0.227,0.507c0.047,0.184,0.045,0.361-0.008,0.532
		c-0.035,0.184-0.104,0.343-0.203,0.512c-0.11,0.187-0.218,0.324-0.365,0.439c-0.147,0.114-0.308,0.198-0.47,0.257
		c-0.184,0.045-0.356,0.074-0.581,0.05c-0.192-0.033-0.414-0.107-0.635-0.23l-3.289-1.841l-0.397,0.191l-0.201-0.111
		c0.267-0.479,0.533-0.96,0.816-1.431l0.199,0.117l0.022,0.46l3.259,1.896c0.199,0.116,0.359,0.158,0.502,0.189
		c0.173,0.024,0.297-0.005,0.412-0.064C20.312,37.591,20.429,37.483,20.507,37.351L20.507,37.351z M25.476,30.854L25.476,30.854
		l0.192,0.165l-0.251,0.298l-0.268,0.316l-0.246,0.304l-0.196-0.16l0.046-0.388l-1.845-1.521l-1.844-1.521l-0.372,0.131
		l-0.178-0.145l0.26-0.321l0.266-0.313l0.266-0.315c0.078-0.092,0.126-0.147,0.189-0.187c0.064-0.042,0.131-0.049,0.182-0.036
		c0.065-0.007,0.151,0.036,0.236,0.077c0.291,0.157,0.549,0.318,0.805,0.48c0.254,0.128,0.493,0.274,0.731,0.422
		c0.222,0.132,0.458,0.28,0.68,0.445c0.221,0.133,0.457,0.282,0.694,0.463c0.236,0.15,0.49,0.315,0.745,0.513l0.015-0.017
		c-0.916-1.125-1.823-2.267-2.707-3.416c-0.053-0.08-0.087-0.145-0.104-0.227c-0.001-0.066,0.016-0.117,0.031-0.169
		c0.032-0.068,0.099-0.14,0.165-0.209l0.23-0.25l0.199-0.211l0.203-0.208l0.221-0.226l0.164,0.161l-0.087,0.385l1.721,1.661
		l1.703,1.645l0.426-0.075l0.165,0.161l-0.335,0.342l-0.344,0.363l-0.325,0.35l-0.169-0.156l0.056-0.396l-2.805-2.622l-0.571-0.567
		l-0.017,0.017c1.015,1.376,2.044,2.726,3.102,4.062l-0.418,0.472c-0.059,0.065-0.118,0.099-0.183,0.101
		c-0.046,0.019-0.112-0.012-0.163-0.057l-1.375-0.837l-1.381-0.823l-1.393-0.809l-0.031,0.036l0.839,0.645l1.354,1.143l1.354,1.141
		L25.476,30.854L25.476,30.854z M29.789,19.639L29.789,19.639l-0.14-0.184c0.401-0.313,0.81-0.615,1.223-0.913l0.136,0.187
		l-0.15,0.366l1.252,1.704c0.354-0.259,0.708-0.521,1.07-0.766l-1.208-1.736l-0.377,0.01l-0.132-0.188
		c0.412-0.282,0.818-0.577,1.24-0.848l0.127,0.192l-0.146,0.344l2.695,4.004l0.394-0.039l0.127,0.191
		c-0.408,0.262-0.802,0.547-1.201,0.821l-0.133-0.188l0.163-0.338l-1.287-1.849c-0.359,0.245-0.711,0.502-1.062,0.759l1.333,1.815
		l0.392-0.057l0.136,0.186c-0.395,0.283-0.784,0.572-1.168,0.871l-0.139-0.182l0.165-0.36l-2.917-3.846L29.789,19.639L29.789,19.639
		z M40.386,17.106L40.386,17.106c0.369-0.188,0.744-0.362,1.121-0.537l-1.734-2.21L40.386,17.106L40.386,17.106z M40.774,18.685
		L40.774,18.685l0.297,0.006l0.112,0.226l-0.929,0.475l-0.117-0.225l0.188-0.255l-0.341-1.298c-0.097-0.439-0.202-0.899-0.325-1.353
		c-0.103-0.463-0.192-0.906-0.311-1.36l-0.266-1.306l0.812-0.384c1.151,1.403,2.27,2.838,3.348,4.291l0.324,0.034l0.101,0.232
		c-0.417,0.186-0.839,0.359-1.25,0.558l-0.086-0.188l0.18-0.288l-0.71-0.911c-0.44,0.203-0.88,0.408-1.312,0.629L40.774,18.685
		L40.774,18.685z M49.486,15.438L49.486,15.438l0.069,0.243l-0.375,0.111l-0.374,0.111l-0.396,0.117l-0.075-0.242l0.255-0.29
		l-0.693-2.289l-0.693-2.288l-0.36-0.108l-0.068-0.22l0.256-0.076l0.232-0.07l0.209-0.061l0.256-0.077
		c0.14-0.04,0.209-0.062,0.285-0.059c0.07-0.019,0.13,0.013,0.188,0.043l0.155,0.198c0.49,0.739,0.966,1.483,1.431,2.231
		l0.747,1.443l0.021-0.005c-0.034-0.133-0.073-0.289-0.135-0.439l-0.113-0.446l-0.136-0.439l-0.646-2.54l-0.355-0.121L49.106,9.92
		l1.224-0.304l0.058,0.247l-0.278,0.28l0.618,2.547l0.612,2.524l-0.632,0.153c-0.084,0.022-0.153,0.019-0.228-0.01
		c-0.054-0.032-0.113-0.089-0.157-0.172c-0.795-1.354-1.631-2.708-2.496-4.028l-0.018,0.028l0.34,0.739l0.493,1.7l0.493,1.699
		L49.486,15.438L49.486,15.438z M58.052,8.37L58.052,8.37c0.337-0.027,0.654-0.016,0.902,0.064c0.272,0.074,0.475,0.223,0.632,0.42
		c0.157,0.221,0.244,0.491,0.265,0.858l0.156,2.707c0.015,0.253-0.017,0.485-0.071,0.674c-0.078,0.189-0.177,0.356-0.3,0.479
		c-0.123,0.146-0.29,0.248-0.461,0.306c-0.189,0.086-0.383,0.126-0.621,0.146c-0.549,0.043-1.095,0.111-1.642,0.173l-0.027-0.229
		l0.298-0.265L56.637,9l-0.341-0.215l-0.027-0.229C56.861,8.488,57.456,8.417,58.052,8.37L58.052,8.37z M57.544,8.899L57.544,8.899
		l0.433,4.37c0.008,0.068-0.01,0.116-0.027,0.164c-0.017,0.048-0.059,0.073-0.122,0.104l0.005,0.046l0.678-0.062
		c0.196-0.017,0.346-0.077,0.447-0.178c0.103-0.102,0.16-0.224,0.194-0.363c0.031-0.163,0.043-0.325,0.029-0.509l-0.2-2.705
		c-0.013-0.183-0.049-0.343-0.108-0.5c-0.058-0.134-0.138-0.242-0.265-0.323c-0.126-0.081-0.298-0.112-0.514-0.093L57.544,8.899
		L57.544,8.899z M66.824,13.723L66.824,13.723l-0.021,0.253l-0.39-0.025l-0.39-0.026L65.634,13.9l0.013-0.253l0.317-0.187
		l0.144-2.387l0.143-2.387L65.926,8.46l0.012-0.23l0.435,0.027l0.411,0.026l0.411,0.027c0.097,0.009,0.192,0.018,0.264,0.047
		c0.046,0.027,0.091,0.077,0.135,0.127s0.061,0.145,0.077,0.237c0.044,0.326,0.066,0.629,0.087,0.931l0.065,0.838l0.063,0.812
		c0.021,0.256,0.018,0.532,0.034,0.833c0.02,0.279,0.012,0.578,0.024,0.902l0.023,0.002c0.368-1.405,0.757-2.798,1.165-4.195
		c0.034-0.09,0.066-0.155,0.122-0.218c0.029-0.043,0.08-0.062,0.155-0.075c0.074-0.014,0.146-0.006,0.267,0.009l0.312,0.036
		l0.288,0.04l0.288,0.04l0.338,0.047l-0.034,0.229L70.505,9.11l-0.328,2.367l-0.326,2.346l0.311,0.298l-0.033,0.229l-0.473-0.066
		l-0.518-0.07l-0.474-0.055l0.025-0.229l0.376-0.188l0.468-3.81l0.122-0.796l-0.023-0.004c-0.515,1.631-1,3.264-1.458,4.901
		l-0.648-0.062c-0.065-0.006-0.128-0.034-0.168-0.085c-0.041-0.026-0.057-0.096-0.073-0.167c-0.02-0.532-0.061-1.09-0.109-1.602
		l-0.148-1.606c-0.055-0.511-0.108-1.065-0.19-1.603l-0.023-0.002l-0.051,1.058l-0.125,1.766l-0.125,1.766L66.824,13.723
		L66.824,13.723z M76.709,13.726L76.709,13.726l1.214,0.355l0.162-2.807C77.616,12.086,77.157,12.898,76.709,13.726L76.709,13.726z
		 M75.944,15.163L75.944,15.163l0.238,0.205l-0.067,0.244l-1.028-0.274l0.062-0.245l0.31-0.062l0.634-1.186
		c0.199-0.399,0.43-0.813,0.662-1.227c0.21-0.419,0.439-0.81,0.678-1.221c0.209-0.397,0.444-0.785,0.674-1.147l0.838,0.249
		c-0.071,1.812-0.192,3.639-0.353,5.436l0.197,0.233l-0.08,0.241l-1.281-0.413l0.062-0.198l0.305-0.098l0.102-1.147
		c-0.465-0.136-0.928-0.286-1.396-0.408L75.944,15.163L75.944,15.163z M87.458,13.928L87.458,13.928
		c0.306,0.149,0.543,0.323,0.734,0.531c0.171,0.194,0.287,0.438,0.296,0.676c0.019,0.271-0.05,0.546-0.226,0.869l-1.29,2.386
		c-0.12,0.223-0.25,0.414-0.415,0.535c-0.146,0.131-0.319,0.222-0.508,0.251c-0.181,0.062-0.358,0.071-0.553,0.021
		c-0.203-0.033-0.39-0.096-0.585-0.193c-0.496-0.254-1-0.492-1.507-0.726l0.097-0.208l0.413-0.061l2.007-4.289l-0.199-0.372
		l0.098-0.209C86.37,13.394,86.917,13.653,87.458,13.928L87.458,13.928z M86.725,14.104L86.725,14.104l-1.926,3.945
		c-0.031,0.062-0.07,0.093-0.109,0.124c-0.04,0.033-0.09,0.033-0.159,0.025l-0.02,0.04l0.629,0.313
		c0.156,0.078,0.315,0.105,0.455,0.073c0.14-0.031,0.27-0.093,0.373-0.193c0.113-0.123,0.208-0.255,0.293-0.419l1.252-2.405
		c0.084-0.163,0.138-0.317,0.17-0.482c0.021-0.144-0.011-0.291-0.074-0.429c-0.064-0.135-0.195-0.251-0.368-0.337L86.725,14.104
		L86.725,14.104z M93.277,24.315L93.277,24.315l-1.14-0.869c-0.387-0.281-0.787-0.581-1.183-0.849l0.131-0.189l0.42,0.013
		l1.394-1.971l1.381-1.953l-0.14-0.347l0.12-0.17c0.279,0.191,0.554,0.388,0.828,0.591l0.799,0.59l0.808,0.618l-0.78,0.996
		l-0.319-0.245l0.286-0.765c-0.303-0.237-0.61-0.467-0.922-0.69l-0.625,0.853L93.697,20.8l0.63,0.467l0.444-0.24l0.185,0.143
		l-0.28,0.365l-0.294,0.382l-0.267,0.348l-0.18-0.14l0.102-0.472l-0.625-0.464l-0.529,0.724l-0.53,0.725
		c-0.04,0.056-0.085,0.078-0.131,0.104c-0.044,0.024-0.094,0.017-0.159-0.003l-0.027,0.037l0.532,0.389l0.521,0.398l0.688-0.457
		l0.282,0.218L93.277,24.315L93.277,24.315z M102.943,26.255L102.943,26.255l-0.966,0.886l-0.982,0.9l0.337,0.372
		c0.121,0.138,0.229,0.224,0.356,0.264c0.129,0.041,0.259,0.049,0.376,0.007c0.117-0.041,0.253-0.129,0.374-0.235l0.779-0.68
		c0.121-0.105,0.228-0.23,0.281-0.341c0.056-0.112,0.062-0.244,0.05-0.36c-0.028-0.136-0.122-0.277-0.233-0.403L102.943,26.255
		L102.943,26.255z M102.997,29.1L102.997,29.1c-0.193,0.164-0.383,0.262-0.564,0.296c-0.166,0.053-0.346,0.054-0.518-0.007
		c-0.156-0.046-0.33-0.136-0.484-0.241c-0.17-0.122-0.306-0.274-0.455-0.443l-0.319-0.353l-0.594,0.543l-0.593,0.544l0.051,0.396
		l-0.17,0.155l-0.323-0.352l-0.341-0.366l-0.328-0.347l0.166-0.16l0.407,0.095l1.737-1.643l1.736-1.643l-0.064-0.37l0.166-0.158
		l1.168,1.261c0.161,0.182,0.288,0.36,0.382,0.536c0.095,0.174,0.171,0.363,0.193,0.536c0.021,0.203-0.006,0.386-0.082,0.543
		c-0.062,0.177-0.206,0.362-0.382,0.511L102.997,29.1L102.997,29.1z M108.608,33.604L108.608,33.604l-0.522,0.335l-0.465,0.298
		l-0.483,0.312l-0.522,0.335l0.281,0.448c0.098,0.155,0.19,0.26,0.31,0.321s0.234,0.073,0.356,0.051
		c0.123-0.021,0.285-0.064,0.423-0.147l0.648-0.396c0.137-0.083,0.263-0.187,0.335-0.286c0.062-0.121,0.102-0.229,0.097-0.368
		c0.007-0.116-0.062-0.272-0.164-0.435L108.608,33.604L108.608,33.604z M106.164,36.111L106.164,36.111
		c0.101-0.143,0.155-0.23,0.196-0.337c0.035-0.074,0.045-0.188,0.018-0.277c-0.01-0.102-0.081-0.219-0.169-0.352l-0.367,0.235
		l-0.405,0.261l-0.406,0.261l-0.388,0.25l-0.007,0.418l-0.195,0.124l-0.256-0.403l-0.274-0.417l-0.263-0.399l0.191-0.129
		l0.371,0.147l1.99-1.325l1.991-1.323l-0.001-0.378l0.19-0.128c0.317,0.487,0.646,0.966,0.949,1.464
		c0.128,0.205,0.225,0.403,0.287,0.592c0.065,0.186,0.103,0.391,0.098,0.562c-0.025,0.184-0.083,0.357-0.173,0.521
		c-0.103,0.144-0.276,0.302-0.475,0.417l-0.654,0.385c-0.198,0.116-0.38,0.168-0.573,0.202c-0.175,0.022-0.331-0.018-0.5-0.078
		c-0.15-0.069-0.287-0.174-0.424-0.304c0.029,0.09,0.025,0.173-0.011,0.247c-0.006,0.082-0.033,0.126-0.069,0.2
		s-0.084,0.13-0.151,0.196l-0.695,0.855l-0.125,0.148c-0.049,0.055-0.066,0.116-0.084,0.177c-0.027,0.042-0.045,0.103-0.033,0.171
		c0.003,0.049,0.006,0.099,0.06,0.144l-0.278,0.16c-0.043-0.025-0.096-0.07-0.148-0.115c-0.033-0.056-0.087-0.101-0.12-0.156
		l-0.098-0.168c-0.056-0.094-0.111-0.188-0.106-0.267c0.008-0.079,0.033-0.171,0.07-0.244s0.094-0.159,0.16-0.227
		c0.056-0.083,0.122-0.15,0.197-0.247L106.164,36.111L106.164,36.111z M110.354,45.474L110.354,45.474
		c-0.28,0.104-0.562,0.136-0.818,0.113c-0.263-0.043-0.475-0.149-0.688-0.324c-0.183-0.163-0.348-0.4-0.465-0.681
		c-0.124-0.301-0.157-0.566-0.143-0.834c0.04-0.253,0.13-0.505,0.275-0.688c0.158-0.213,0.384-0.385,0.657-0.505l2.588-1.141
		c0.273-0.12,0.555-0.166,0.823-0.126c0.237,0.026,0.492,0.151,0.716,0.32c0.208,0.202,0.381,0.444,0.52,0.782
		c0.13,0.313,0.18,0.635,0.156,0.902c-0.033,0.298-0.116,0.535-0.279,0.749c-0.174,0.191-0.407,0.354-0.688,0.457L110.354,45.474
		L110.354,45.474z M109.503,43.312L109.503,43.312c-0.298,0.124-0.492,0.255-0.59,0.439c-0.129,0.173-0.118,0.381-0.02,0.624
		c0.041,0.102,0.113,0.216,0.189,0.279c0.076,0.065,0.17,0.122,0.279,0.149c0.108,0.029,0.232,0.029,0.348,0.009
		c0.114-0.021,0.229-0.042,0.358-0.092l2.639-1.018c0.171-0.066,0.312-0.146,0.416-0.262c0.134-0.104,0.206-0.234,0.229-0.372
		c0.041-0.146,0.019-0.317-0.044-0.474c-0.11-0.268-0.255-0.44-0.448-0.489c-0.225-0.062-0.454-0.018-0.75,0.107L109.503,43.312
		L109.503,43.312z M116.543,51.692L116.543,51.692c0.077,0.355,0.081,0.651,0.042,0.929c-0.045,0.255-0.167,0.474-0.343,0.651
		c-0.201,0.183-0.463,0.3-0.824,0.363l-2.672,0.469c-0.249,0.043-0.479,0.062-0.675,0.006c-0.191-0.034-0.373-0.113-0.514-0.242
		c-0.16-0.104-0.279-0.236-0.361-0.42c-0.106-0.178-0.159-0.367-0.213-0.601c-0.117-0.537-0.229-1.075-0.364-1.609l0.223-0.054
		l0.307,0.286l4.608-1.087l0.166-0.387l0.225-0.055C116.295,50.522,116.415,51.107,116.543,51.692L116.543,51.692z M115.952,51.251
		L115.952,51.251l-4.289,0.937c-0.067,0.016-0.116,0.004-0.166-0.008s-0.082-0.05-0.118-0.109l-0.044,0.011l0.145,0.664
		c0.043,0.192,0.112,0.336,0.225,0.425c0.111,0.09,0.241,0.155,0.385,0.173c0.166,0.012,0.329,0.005,0.51-0.031l2.663-0.51
		c0.181-0.034,0.335-0.089,0.483-0.165c0.127-0.074,0.221-0.189,0.289-0.325c0.066-0.135,0.084-0.311,0.036-0.521L115.952,51.251
		L115.952,51.251z M112.481,61.651L112.481,61.651c0.003,0.176,0.051,0.329,0.098,0.438c0.07,0.108,0.188,0.195,0.325,0.26
		c0.139,0.043,0.323,0.064,0.553,0.062l3.77-0.036l0.204-0.316l0.253-0.003c0.003,0.419,0.015,0.838,0.005,1.258l-0.253-0.002
		l-0.203-0.337l-3.792-0.005c-0.276,0-0.505-0.023-0.69-0.11c-0.185-0.067-0.347-0.176-0.464-0.307
		c-0.139-0.13-0.232-0.26-0.281-0.433c-0.072-0.174-0.094-0.368-0.101-0.562c-0.008-0.196,0.008-0.391,0.07-0.567
		s0.148-0.333,0.258-0.47c0.135-0.139,0.265-0.255,0.468-0.332c0.178-0.098,0.405-0.133,0.657-0.146l3.765-0.21l0.229-0.399
		l0.229-0.015c0.04,0.548,0.06,1.096,0.079,1.646l-0.23,0.007l-0.266-0.352l-3.768,0.15c-0.229,0.008-0.389,0.036-0.524,0.108
		c-0.159,0.051-0.248,0.143-0.312,0.275C112.518,61.365,112.478,61.497,112.481,61.651L112.481,61.651z M115.281,72.408
		L115.281,72.408l0.146-0.859l0.137,0.022c0.181,0.029,0.343,0.033,0.487,0.008c0.141-0.002,0.271-0.077,0.354-0.161
		c0.111-0.104,0.178-0.264,0.206-0.453c0.021-0.144,0.015-0.266-0.037-0.394c-0.055-0.104-0.131-0.212-0.258-0.302
		c-0.149-0.093-0.325-0.165-0.554-0.194l-0.25-0.034l-0.388-0.052l-0.5-0.067l-0.524-0.07l-0.479-0.065l-0.41-0.056l-0.251-0.032
		c-0.318-0.044-0.579-0.011-0.757,0.098c-0.175,0.087-0.269,0.251-0.302,0.488c-0.029,0.196,0,0.334,0.048,0.451
		c0.05,0.119,0.152,0.203,0.259,0.267c0.129,0.064,0.307,0.116,0.487,0.146l0.295,0.049l-0.138,0.82l-0.295-0.055
		c-0.248-0.045-0.467-0.129-0.637-0.227c-0.167-0.119-0.284-0.251-0.376-0.4c-0.092-0.148-0.153-0.335-0.192-0.518
		c-0.014-0.179-0.004-0.396,0.025-0.611c0.031-0.213,0.081-0.404,0.174-0.565c0.073-0.188,0.188-0.325,0.338-0.44
		c0.132-0.136,0.305-0.225,0.494-0.27c0.192-0.065,0.425-0.062,0.676-0.03l0.251,0.029l0.41,0.048l0.48,0.057l0.524,0.063
		l0.502,0.059l0.389,0.047l0.25,0.028c0.32,0.039,0.589,0.117,0.777,0.285c0.213,0.147,0.377,0.362,0.458,0.615
		c0.079,0.256,0.083,0.55,0.035,0.886c-0.017,0.121-0.034,0.241-0.074,0.358c-0.04,0.115-0.085,0.23-0.17,0.315
		c-0.064,0.112-0.148,0.196-0.256,0.275l-0.004,0.024l0.31,0.101l-0.102,0.599L115.281,72.408L115.281,72.408z M114.328,80.33
		L114.328,80.33l-4.399-1.486l-0.342,0.23l-0.261-0.091l0.149-0.453l0.164-0.494l0.145-0.457l0.264,0.082l0.137,0.411l4.423,1.415
		l0.191-0.619l-0.804-0.519l0.117-0.385l1.354,0.448c-0.332,1.106-0.683,2.207-1.084,3.29l-1.355-0.442l0.136-0.379l0.964,0.038
		L114.328,80.33z"/>
</g>
</svg>
