<?xml version="1.0" encoding="utf-8"?>
<!-- Generator: Adobe Illustrator 16.0.0, SVG Export Plug-In . SVG Version: 6.00 Build 0)  -->
<!DOCTYPE svg PUBLIC "-//W3C//DTD SVG 1.1//EN" "http://www.w3.org/Graphics/SVG/1.1/DTD/svg11.dtd">
<svg version="1.1" id="Layer_1" xmlns="http://www.w3.org/2000/svg" xmlns:xlink="http://www.w3.org/1999/xlink" x="0px" y="0px"
	 width="127.253px" height="92.787px" viewBox="0 0 127.253 92.787" enable-background="new 0 0 127.253 92.787"
	 xml:space="preserve">
<g>
	<path fill="#363837" d="M0,53.64c0.004,1.294,0.338,2.271,1.01,2.938c0.667,0.671,1.646,1.006,2.938,1.01h3.071
		c1.293-0.004,2.271-0.339,2.942-1.01c0.667-0.668,1.001-1.645,1.005-2.938V39.603c-0.004-1.293-0.338-2.271-1.005-2.943
		c-0.671-0.666-1.649-0.999-2.942-1.006H3.948c-1.293,0.007-2.271,0.34-2.938,1.006C0.338,37.331,0.004,38.31,0,39.603V53.64
		L0,53.64z M4.743,54.05c-0.356,0-0.63-0.09-0.818-0.269c-0.183-0.183-0.279-0.457-0.279-0.827V40.287
		c0-0.356,0.096-0.629,0.279-0.817c0.188-0.184,0.461-0.278,0.818-0.278h1.59c0.356,0,0.63,0.095,0.817,0.278
		c0.183,0.188,0.279,0.461,0.279,0.817v12.667c0,0.37-0.096,0.645-0.279,0.827C6.964,53.96,6.69,54.05,6.333,54.05H4.743
		L4.743,54.05z M27.277,39.603c-0.004-1.293-0.343-2.271-1.019-2.943c-0.672-0.666-1.65-0.999-2.93-1.006h-3.071
		c-1.292,0.007-2.275,0.34-2.952,1.006c-0.676,0.672-1.019,1.65-1.023,2.943V53.64c0.004,1.294,0.347,2.271,1.023,2.938
		c0.676,0.671,1.659,1.006,2.952,1.01h3.071c1.28-0.004,2.257-0.339,2.93-1.01c0.676-0.668,1.014-1.645,1.019-2.938v-2.96
		c0-0.138-0.041-0.247-0.114-0.325c-0.077-0.072-0.187-0.114-0.324-0.114h-2.742c-0.151,0-0.261,0.042-0.333,0.114
		c-0.069,0.078-0.105,0.188-0.105,0.325v2.193c0,0.368-0.096,0.645-0.279,0.827c-0.187,0.178-0.461,0.269-0.818,0.269h-1.426
		c-0.355,0-0.63-0.091-0.817-0.269c-0.183-0.183-0.279-0.459-0.279-0.827V40.369c0-0.356,0.091-0.63,0.27-0.816
		c0.182-0.185,0.458-0.279,0.827-0.279h1.426c0.357,0,0.631,0.095,0.818,0.279c0.183,0.187,0.279,0.46,0.279,0.816v2.194
		c0,0.137,0.036,0.247,0.105,0.319c0.073,0.077,0.182,0.118,0.333,0.118h2.742c0.138,0,0.247-0.041,0.324-0.118
		c0.073-0.072,0.114-0.183,0.114-0.319V39.603L27.277,39.603z M43.534,36.092c0-0.136-0.032-0.246-0.097-0.324
		c-0.068-0.071-0.183-0.114-0.343-0.114h-10.09c-0.123,0-0.224,0.043-0.296,0.114c-0.073,0.078-0.114,0.188-0.114,0.324v21.057
		c0,0.137,0.041,0.247,0.114,0.319c0.073,0.079,0.174,0.12,0.296,0.12h10.09c0.16,0,0.274-0.041,0.343-0.12
		c0.064-0.072,0.097-0.183,0.097-0.319v-2.741c0-0.151-0.032-0.26-0.097-0.334c-0.068-0.068-0.183-0.104-0.343-0.104H36.24v-5.538
		h5.237c0.137,0,0.247-0.042,0.32-0.119c0.077-0.081,0.119-0.195,0.119-0.348V45.25c0-0.15-0.042-0.265-0.119-0.348
		c-0.074-0.077-0.183-0.118-0.32-0.118H36.24v-5.483h6.854c0.16-0.006,0.274-0.047,0.343-0.133c0.064-0.081,0.097-0.197,0.097-0.333
		V36.092L43.534,36.092z M61.242,57.588c0.166,0,0.275-0.041,0.334-0.12c0.064-0.081,0.077-0.195,0.05-0.346l-4.551-21.085
		c-0.028-0.137-0.082-0.231-0.16-0.291c-0.082-0.064-0.183-0.093-0.306-0.093h-3.812c-0.124,0-0.224,0.028-0.306,0.093
		c-0.078,0.06-0.132,0.154-0.16,0.291l-4.551,21.085c-0.042,0.15-0.028,0.265,0.031,0.346c0.064,0.079,0.174,0.12,0.325,0.12h2.934
		c0.123,0,0.22-0.032,0.292-0.101c0.068-0.064,0.119-0.16,0.146-0.283l0.741-4.003h4.88l0.768,4.003
		c0.026,0.123,0.077,0.219,0.146,0.283c0.073,0.068,0.169,0.101,0.292,0.101H61.242L61.242,57.588z M56.444,50.02h-3.509
		l1.754-9.567L56.444,50.02L56.444,50.02z M74.812,35.653c-0.15,0-0.26,0.043-0.334,0.114c-0.068,0.078-0.105,0.188-0.105,0.324
		v11.571h-0.164L70.041,36.01c-0.041-0.122-0.105-0.214-0.187-0.269c-0.083-0.06-0.183-0.088-0.306-0.088h-2.714
		c-0.137,0-0.247,0.043-0.32,0.114c-0.077,0.078-0.119,0.188-0.119,0.324v21.057c0,0.137,0.042,0.247,0.119,0.319
		c0.073,0.079,0.183,0.12,0.32,0.12h2.851c0.151,0,0.261-0.041,0.334-0.12c0.068-0.072,0.104-0.183,0.104-0.319V45.525h0.137
		l4.196,11.706c0.041,0.123,0.104,0.215,0.187,0.27c0.082,0.06,0.183,0.087,0.306,0.087h2.714c0.138,0,0.247-0.041,0.325-0.12
		c0.074-0.072,0.114-0.183,0.114-0.319V36.092c0-0.136-0.041-0.246-0.114-0.324c-0.078-0.071-0.187-0.114-0.325-0.114H74.812
		L74.812,35.653z M83.418,57.148c0,0.151,0.037,0.262,0.105,0.334c0.073,0.068,0.183,0.105,0.333,0.105h6.581
		c1.293-0.004,2.271-0.339,2.943-1.01c0.667-0.668,1.001-1.645,1.005-2.938V39.63c-0.004-1.293-0.338-2.281-1.005-2.957
		c-0.672-0.676-1.65-1.013-2.943-1.02h-6.581c-0.15,0-0.26,0.043-0.333,0.114c-0.068,0.078-0.105,0.188-0.105,0.324V57.148
		L83.418,57.148z M87.147,53.969V39.273h2.522c0.356,0,0.63,0.095,0.817,0.283c0.183,0.188,0.279,0.471,0.279,0.84v12.477
		c0,0.368-0.096,0.645-0.279,0.827c-0.187,0.178-0.461,0.269-0.817,0.269H87.147L87.147,53.969z M99.701,53.64
		c0.005,1.294,0.339,2.271,1.01,2.938c0.667,0.671,1.645,1.006,2.938,1.01h3.071c1.293-0.004,2.271-0.339,2.943-1.01
		c0.668-0.668,1.001-1.645,1.005-2.938V39.603c-0.004-1.293-0.337-2.271-1.005-2.943c-0.672-0.666-1.649-0.999-2.943-1.006h-3.071
		c-1.293,0.007-2.271,0.34-2.938,1.006c-0.671,0.672-1.005,1.65-1.01,2.943V53.64L99.701,53.64z M104.444,54.05
		c-0.355,0-0.63-0.09-0.818-0.269c-0.182-0.183-0.279-0.457-0.279-0.827V40.287c0-0.356,0.097-0.629,0.279-0.817
		c0.188-0.184,0.462-0.278,0.818-0.278h1.591c0.356,0,0.63,0.095,0.818,0.278c0.182,0.188,0.279,0.461,0.279,0.817v12.667
		c0,0.37-0.097,0.645-0.279,0.827c-0.188,0.179-0.461,0.269-0.818,0.269H104.444L104.444,54.05z M127.253,39.603
		c-0.004-1.293-0.338-2.271-1.005-2.943c-0.672-0.666-1.65-0.999-2.944-1.006h-6.881c-0.138,0-0.247,0.043-0.32,0.114
		c-0.078,0.078-0.12,0.188-0.12,0.324v21.057c0,0.137,0.042,0.247,0.12,0.319c0.073,0.079,0.182,0.12,0.32,0.12h2.851
		c0.138,0,0.248-0.041,0.32-0.12c0.078-0.072,0.119-0.183,0.119-0.319V50.24h1.892l1.837,6.964c0.027,0.123,0.077,0.219,0.15,0.283
		c0.074,0.068,0.179,0.101,0.316,0.101h2.851c0.155,0,0.265-0.041,0.338-0.124c0.068-0.081,0.087-0.204,0.046-0.37l-1.893-7.184
		c0.658-0.288,1.157-0.735,1.494-1.339c0.339-0.602,0.508-1.361,0.508-2.279V39.603L127.253,39.603z M119.714,46.621v-7.348h2.714
		c0.356,0,0.63,0.095,0.818,0.279c0.183,0.187,0.278,0.46,0.278,0.816v5.156c0,0.354-0.096,0.629-0.278,0.812
		c-0.188,0.188-0.462,0.284-0.818,0.284H119.714z"/>
	<rect x="6.884" y="63.54" fill="#8C8C8C" width="113.486" height="0.427"/>
	<path fill="#8C8C8C" d="M10.828,72.106h9.607v0.427h-9.607V72.106L10.828,72.106z M106.819,72.106h9.606v0.427h-9.606V72.106
		L106.819,72.106z M106.819,73.198h9.606v0.427h-9.606V73.198L106.819,73.198z M10.828,73.198h9.607v0.427h-9.607V73.198z"/>
	<path fill="#363837" d="M29.961,70.096L29.835,70.7c0.002-0.198-0.077-0.359-0.241-0.48c-0.162-0.121-0.422-0.183-0.779-0.188
		c-0.366,0.003-0.7,0.072-1.002,0.208C27.51,70.378,27.24,70.562,27,70.797c-0.239,0.236-0.449,0.505-0.625,0.802
		c-0.179,0.302-0.328,0.616-0.446,0.946c-0.118,0.327-0.205,0.654-0.265,0.98c-0.058,0.325-0.087,0.631-0.087,0.918
		c0.001,0.373,0.048,0.69,0.14,0.948c0.092,0.261,0.218,0.47,0.376,0.628c0.157,0.159,0.336,0.273,0.535,0.345
		c0.2,0.074,0.408,0.107,0.624,0.107c0.214-0.003,0.411-0.032,0.592-0.092c0.182-0.062,0.349-0.145,0.5-0.249
		c0.149-0.103,0.285-0.221,0.407-0.353l-0.794,3.768l1.902-0.454l1.916-8.996H29.961L29.961,70.096z M99.019,68.356l-0.377,1.739
		h-0.417L98.123,70.6h0.417l-0.756,3.541c-0.208,0.241-0.42,0.457-0.637,0.648c-0.218,0.192-0.455,0.342-0.713,0.453
		c-0.257,0.113-0.55,0.169-0.88,0.172c-0.202,0.001-0.37-0.027-0.504-0.086s-0.235-0.164-0.301-0.318
		c-0.068-0.153-0.102-0.372-0.102-0.656c0-0.233,0.021-0.487,0.065-0.76c0.042-0.271,0.102-0.545,0.177-0.82
		c0.076-0.277,0.166-0.542,0.266-0.796c0.104-0.253,0.214-0.479,0.334-0.678c0.12-0.2,0.245-0.358,0.375-0.474
		c0.13-0.115,0.263-0.174,0.395-0.175c0.12,0.001,0.208,0.049,0.268,0.14c0.056,0.091,0.085,0.217,0.085,0.376
		c0,0.106-0.013,0.224-0.038,0.349c-0.025,0.123-0.063,0.256-0.113,0.395l0,0c0.075,0.05,0.15,0.089,0.224,0.113
		c0.076,0.025,0.146,0.038,0.216,0.038c0.123,0,0.235-0.034,0.336-0.102c0.101-0.068,0.181-0.17,0.239-0.307
		c0.062-0.136,0.091-0.305,0.093-0.512c0.002-0.147-0.019-0.287-0.061-0.426c-0.042-0.136-0.115-0.261-0.218-0.372
		c-0.104-0.109-0.246-0.197-0.429-0.263c-0.18-0.064-0.411-0.097-0.69-0.099c-0.365,0.002-0.695,0.059-0.994,0.173
		c-0.296,0.111-0.562,0.267-0.798,0.462c-0.233,0.194-0.438,0.419-0.617,0.671c-0.176,0.253-0.328,0.52-0.452,0.801
		c-0.126,0.281-0.227,0.565-0.304,0.851c-0.079,0.285-0.135,0.559-0.171,0.821c-0.038,0.26-0.054,0.496-0.054,0.707l0.001,0.095
		c-0.024,0.05-0.05,0.099-0.077,0.146c-0.096,0.164-0.209,0.298-0.34,0.395c-0.13,0.096-0.277,0.145-0.44,0.147
		c-0.177,0.001-0.307-0.032-0.391-0.101c-0.084-0.071-0.125-0.191-0.125-0.365c0-0.058,0.004-0.119,0.01-0.184
		c0.009-0.065,0.021-0.139,0.041-0.22l0.907-4.285h-1.814l-0.856,4.045c-0.063,0.212-0.142,0.4-0.236,0.567
		c-0.097,0.164-0.208,0.298-0.336,0.395c-0.127,0.096-0.273,0.145-0.437,0.147c-0.137-0.005-0.235-0.053-0.294-0.15
		c-0.057-0.097-0.086-0.219-0.084-0.367c0-0.057,0.002-0.114,0.008-0.173c0.007-0.055,0.017-0.116,0.03-0.179l0.907-4.285H87.44
		l-0.857,4.045c-0.063,0.212-0.143,0.4-0.239,0.567c-0.097,0.164-0.211,0.298-0.341,0.395c-0.13,0.096-0.276,0.145-0.44,0.147
		c-0.177,0.001-0.307-0.032-0.392-0.101c-0.083-0.071-0.125-0.191-0.125-0.365c0-0.058,0.004-0.119,0.01-0.184
		c0.009-0.065,0.021-0.139,0.04-0.22l1.45-6.805l-1.865,0.252l-0.618,2.897v-0.05c0-0.124-0.033-0.233-0.105-0.33
		s-0.181-0.173-0.332-0.228c-0.151-0.056-0.344-0.083-0.583-0.086c-0.365,0.003-0.699,0.072-1.002,0.208
		c-0.302,0.138-0.574,0.321-0.812,0.557c-0.239,0.236-0.449,0.505-0.625,0.802c-0.032,0.055-0.063,0.108-0.093,0.163
		c-0.135,0.059-0.27,0.108-0.406,0.15c-0.231,0.071-0.443,0.109-0.64,0.111c-0.019,0-0.04,0-0.065-0.003
		c-0.023-0.003-0.049-0.009-0.074-0.021c0-0.664-0.132-1.163-0.399-1.505c-0.269-0.339-0.672-0.51-1.214-0.512
		c-0.37,0.002-0.706,0.059-1.008,0.173c-0.302,0.111-0.573,0.265-0.811,0.462c-0.239,0.194-0.449,0.419-0.629,0.67
		c-0.181,0.253-0.334,0.519-0.462,0.801c-0.129,0.28-0.232,0.563-0.311,0.847c-0.08,0.284-0.138,0.558-0.176,0.817
		c-0.036,0.26-0.055,0.494-0.055,0.703c0.004,0.478,0.09,0.861,0.262,1.156c0.172,0.291,0.407,0.506,0.71,0.639
		c0.302,0.134,0.648,0.198,1.043,0.197c0.389-0.003,0.754-0.092,1.096-0.265c0.34-0.176,0.646-0.429,0.916-0.759
		c0.269-0.33,0.49-0.726,0.662-1.195c0.172-0.467,0.286-0.991,0.338-1.574c0.309-0.051,0.603-0.127,0.88-0.226l0.037-0.013
		c-0.017,0.043-0.033,0.085-0.048,0.129c-0.118,0.327-0.206,0.654-0.265,0.98c-0.058,0.325-0.088,0.631-0.088,0.918
		c0.002,0.373,0.048,0.69,0.141,0.948c0.092,0.261,0.218,0.47,0.375,0.628c0.158,0.159,0.336,0.273,0.535,0.345
		c0.2,0.074,0.408,0.107,0.625,0.107c0.223-0.003,0.428-0.035,0.615-0.099c0.187-0.064,0.356-0.154,0.51-0.266
		c0.153-0.107,0.292-0.232,0.414-0.369c0.122-0.138,0.231-0.28,0.326-0.426c0.052,0.355,0.187,0.624,0.398,0.806
		c0.214,0.185,0.493,0.277,0.836,0.277c0.137,0.003,0.29-0.01,0.455-0.038c0.166-0.026,0.341-0.082,0.523-0.163
		c0.183-0.084,0.366-0.208,0.548-0.372c0.139-0.125,0.275-0.281,0.407-0.47c0.029,0.18,0.079,0.336,0.149,0.47
		c0.12,0.222,0.28,0.386,0.484,0.492c0.201,0.104,0.43,0.157,0.684,0.157c0.132,0.001,0.275-0.014,0.427-0.043
		c0.151-0.028,0.307-0.086,0.469-0.169c0.161-0.081,0.323-0.204,0.486-0.361c0.165-0.16,0.326-0.368,0.484-0.623
		c0.039,0.393,0.168,0.688,0.382,0.889c0.216,0.206,0.503,0.305,0.865,0.308c0.136,0.001,0.289-0.014,0.456-0.047
		c0.165-0.03,0.339-0.092,0.522-0.183c0.183-0.09,0.365-0.223,0.548-0.396c0.148-0.139,0.293-0.312,0.433-0.521
		c0.034,0.107,0.076,0.205,0.125,0.296c0.162,0.293,0.391,0.51,0.685,0.647c0.292,0.136,0.638,0.204,1.036,0.203
		c0.417-0.005,0.799-0.07,1.146-0.202c0.346-0.13,0.662-0.307,0.945-0.528c0.283-0.223,0.538-0.472,0.764-0.749l0.081-0.099l0,0.065
		c0.002,0.354,0.062,0.639,0.18,0.863c0.12,0.222,0.28,0.386,0.483,0.492c0.202,0.104,0.431,0.157,0.685,0.157
		c0.136,0.001,0.294-0.014,0.468-0.047c0.175-0.03,0.357-0.092,0.55-0.183c0.193-0.09,0.387-0.223,0.582-0.396
		c0.195-0.171,0.382-0.396,0.561-0.676c0.179-0.278,0.34-0.621,0.485-1.03h-0.529c-0.065,0.212-0.153,0.4-0.269,0.567
		c-0.116,0.164-0.246,0.298-0.395,0.395c-0.149,0.096-0.305,0.145-0.471,0.147c-0.176,0.001-0.306-0.032-0.391-0.101
		c-0.083-0.071-0.125-0.191-0.125-0.365c0-0.058,0.004-0.119,0.01-0.184c0.009-0.065,0.021-0.139,0.041-0.22l0.807-3.781h0.756
		l0.1-0.504h-0.755l0.428-1.99L99.019,68.356L99.019,68.356z M83.333,74.203c-0.06,0.23-0.146,0.424-0.263,0.581
		c-0.118,0.154-0.243,0.27-0.382,0.347c-0.138,0.077-0.269,0.119-0.389,0.119c-0.058,0.001-0.124-0.005-0.193-0.018
		c-0.071-0.015-0.14-0.05-0.207-0.111c-0.066-0.059-0.12-0.157-0.162-0.292c-0.044-0.135-0.065-0.322-0.067-0.562
		c0-0.199,0.019-0.423,0.057-0.668c0.039-0.244,0.091-0.495,0.162-0.754c0.072-0.259,0.16-0.507,0.263-0.75
		c0.103-0.238,0.217-0.457,0.351-0.648c0.13-0.193,0.272-0.347,0.431-0.459c0.155-0.113,0.323-0.172,0.501-0.173
		c0.124,0.001,0.222,0.029,0.296,0.079c0.073,0.053,0.125,0.112,0.159,0.178c0.034,0.07,0.052,0.131,0.061,0.184l-0.617,2.886
		V74.203L83.333,74.203z M76.781,75.312c-0.16,0.002-0.286-0.023-0.38-0.08c-0.095-0.057-0.163-0.158-0.202-0.307
		c-0.043-0.149-0.062-0.358-0.062-0.635c0-0.207,0.021-0.438,0.062-0.689c0.042-0.253,0.101-0.511,0.174-0.778
		c0.075-0.264,0.164-0.519,0.268-0.766c0.102-0.246,0.215-0.467,0.342-0.664c0.124-0.194,0.255-0.351,0.396-0.467
		c0.141-0.115,0.286-0.174,0.435-0.177c0.161-0.001,0.279,0.053,0.353,0.167c0.073,0.116,0.115,0.303,0.125,0.565
		c-0.116,0.05-0.208,0.132-0.279,0.245s-0.109,0.259-0.111,0.435c-0.002,0.128,0.021,0.239,0.071,0.336
		c0.048,0.095,0.139,0.159,0.269,0.192c-0.05,0.374-0.125,0.72-0.227,1.039c-0.098,0.315-0.214,0.594-0.349,0.83
		c-0.132,0.235-0.275,0.422-0.426,0.553C77.089,75.242,76.936,75.31,76.781,75.312L76.781,75.312L76.781,75.312z M70.556,70.096
		h1.814l-0.164,0.781c0.147-0.128,0.298-0.253,0.458-0.372c0.157-0.116,0.323-0.214,0.5-0.291c0.176-0.075,0.365-0.115,0.567-0.118
		c0.188,0.003,0.349,0.049,0.477,0.139c0.131,0.091,0.227,0.206,0.294,0.35c0.065,0.142,0.099,0.295,0.099,0.457
		c0,0.149-0.032,0.294-0.099,0.435c-0.066,0.139-0.164,0.254-0.299,0.345c-0.134,0.09-0.304,0.136-0.51,0.14
		c-0.139-0.001-0.241-0.03-0.311-0.086c-0.067-0.056-0.115-0.122-0.143-0.207c-0.025-0.082-0.046-0.164-0.061-0.245
		c-0.012-0.083-0.034-0.151-0.063-0.206c-0.03-0.055-0.079-0.084-0.153-0.087c-0.125,0-0.237,0.022-0.336,0.059
		c-0.101,0.041-0.197,0.096-0.29,0.167c-0.093,0.071-0.191,0.157-0.294,0.254l-1.008,4.787h-1.814L70.556,70.096L70.556,70.096z
		 M64.761,69.63l-2.104,9.916l1.902-0.454l0.656-3.075c0.046,0.083,0.111,0.156,0.199,0.226c0.089,0.067,0.202,0.122,0.344,0.163
		c0.143,0.043,0.319,0.063,0.527,0.066c0.407-0.003,0.767-0.073,1.08-0.212c0.31-0.137,0.582-0.326,0.81-0.562
		c0.229-0.239,0.42-0.509,0.578-0.812c0.155-0.302,0.279-0.621,0.372-0.952c0.092-0.332,0.16-0.663,0.201-0.99
		c0.041-0.327,0.059-0.634,0.059-0.92c-0.002-0.497-0.072-0.891-0.208-1.183c-0.137-0.291-0.319-0.5-0.55-0.625
		c-0.231-0.126-0.489-0.188-0.779-0.184c-0.315,0.003-0.592,0.056-0.836,0.154s-0.456,0.229-0.638,0.389l0.201-0.945H64.761
		L64.761,69.63z M65.895,75.375c-0.143-0.004-0.254-0.032-0.33-0.091c-0.076-0.061-0.125-0.125-0.149-0.197l0.743-3.529
		c0.082-0.135,0.172-0.247,0.271-0.339c0.099-0.092,0.2-0.161,0.303-0.21c0.105-0.045,0.204-0.068,0.296-0.068
		c0.06-0.002,0.125,0.006,0.195,0.028c0.069,0.019,0.139,0.062,0.206,0.131c0.065,0.067,0.12,0.172,0.162,0.313
		c0.044,0.142,0.064,0.331,0.066,0.573c0,0.199-0.013,0.42-0.038,0.661c-0.027,0.24-0.069,0.489-0.126,0.743
		c-0.056,0.255-0.13,0.497-0.222,0.732c-0.09,0.238-0.202,0.447-0.333,0.638c-0.13,0.187-0.28,0.336-0.455,0.446
		C66.312,75.316,66.115,75.373,65.895,75.375L65.895,75.375z M58.914,70.096h1.814l-1.247,5.847c0.254-0.09,0.481-0.206,0.674-0.346
		c0.195-0.144,0.368-0.331,0.517-0.562c0.146-0.234,0.281-0.529,0.396-0.894h0.529c-0.123,0.413-0.272,0.76-0.444,1.039
		c-0.175,0.278-0.362,0.509-0.562,0.683c-0.201,0.174-0.407,0.311-0.615,0.409c-0.209,0.1-0.411,0.176-0.608,0.226l-0.189,0.907
		c-0.097,0.446-0.229,0.812-0.396,1.095s-0.357,0.499-0.567,0.653c-0.209,0.149-0.428,0.255-0.653,0.312
		c-0.222,0.055-0.441,0.083-0.651,0.081c-0.26,0-0.496-0.045-0.708-0.134c-0.212-0.092-0.382-0.229-0.509-0.408
		c-0.125-0.181-0.19-0.408-0.195-0.681c0.004-0.265,0.065-0.497,0.189-0.699c0.123-0.201,0.284-0.378,0.483-0.527
		c0.201-0.15,0.422-0.277,0.661-0.384c0.242-0.107,0.48-0.196,0.72-0.266l0.151-0.682c-0.176,0.195-0.355,0.345-0.531,0.445
		c-0.178,0.104-0.351,0.173-0.517,0.208c-0.166,0.038-0.321,0.054-0.464,0.053c-0.254,0-0.483-0.053-0.685-0.157
		c-0.204-0.106-0.363-0.271-0.481-0.492c-0.072-0.137-0.123-0.297-0.152-0.479c-0.144,0.2-0.292,0.367-0.445,0.503
		c-0.196,0.173-0.389,0.306-0.583,0.396c-0.193,0.091-0.375,0.152-0.549,0.183c-0.175,0.033-0.333,0.048-0.469,0.047
		c-0.254,0-0.483-0.053-0.685-0.157c-0.204-0.106-0.363-0.271-0.483-0.492c-0.071-0.137-0.123-0.297-0.151-0.479
		c-0.143,0.201-0.292,0.367-0.445,0.503c-0.196,0.173-0.389,0.306-0.583,0.396c-0.193,0.091-0.375,0.152-0.55,0.183
		c-0.174,0.033-0.332,0.048-0.468,0.047c-0.254,0-0.483-0.053-0.685-0.157c-0.204-0.106-0.363-0.271-0.483-0.492
		c-0.072-0.137-0.123-0.297-0.151-0.479c-0.144,0.201-0.292,0.367-0.446,0.503c-0.195,0.173-0.388,0.306-0.582,0.396
		c-0.193,0.091-0.375,0.152-0.55,0.183c-0.174,0.033-0.332,0.048-0.468,0.047c-0.254,0-0.483-0.053-0.685-0.157
		c-0.204-0.106-0.363-0.271-0.483-0.492c-0.069-0.131-0.119-0.284-0.148-0.46c-0.132,0.193-0.27,0.354-0.408,0.484
		c-0.183,0.173-0.365,0.306-0.548,0.396c-0.183,0.091-0.357,0.152-0.523,0.183c-0.167,0.033-0.319,0.048-0.456,0.047
		c-0.355-0.003-0.641-0.101-0.854-0.297c-0.212-0.197-0.34-0.482-0.38-0.862c-0.097,0.146-0.208,0.288-0.332,0.426
		c-0.124,0.137-0.265,0.262-0.418,0.369c-0.153,0.111-0.326,0.201-0.512,0.266c-0.187,0.063-0.393,0.096-0.616,0.099
		c-0.216,0-0.424-0.033-0.624-0.107c-0.2-0.071-0.377-0.186-0.536-0.345c-0.158-0.158-0.283-0.367-0.375-0.628l-0.022-0.064
		c-0.14,0.208-0.284,0.381-0.432,0.52c-0.183,0.173-0.365,0.306-0.548,0.396c-0.183,0.091-0.357,0.152-0.523,0.183
		c-0.166,0.033-0.319,0.048-0.456,0.047c-0.361-0.003-0.649-0.102-0.865-0.308c-0.214-0.201-0.342-0.496-0.382-0.889
		c-0.157,0.255-0.319,0.463-0.483,0.623c-0.164,0.157-0.325,0.28-0.487,0.361c-0.162,0.083-0.317,0.141-0.468,0.169
		c-0.151,0.029-0.294,0.044-0.427,0.043c-0.253,0-0.483-0.053-0.685-0.157c-0.203-0.106-0.363-0.271-0.483-0.492
		c-0.118-0.225-0.179-0.51-0.181-0.863c0-0.119,0.009-0.247,0.028-0.386c0.016-0.137,0.042-0.282,0.073-0.433l0.857-4.045h1.814
		l-0.907,4.285c-0.012,0.062-0.023,0.124-0.029,0.179c-0.006,0.059-0.009,0.116-0.009,0.173c-0.001,0.148,0.028,0.271,0.084,0.367
		c0.059,0.098,0.157,0.146,0.294,0.15c0.164-0.003,0.308-0.052,0.437-0.147c0.128-0.097,0.239-0.23,0.335-0.395
		c0.095-0.167,0.172-0.355,0.235-0.567l0.857-4.045h1.814l-0.907,4.285c-0.019,0.081-0.032,0.154-0.041,0.22
		c-0.006,0.064-0.011,0.126-0.011,0.184c0,0.174,0.042,0.294,0.126,0.365c0.084,0.068,0.214,0.102,0.39,0.101
		c0.164-0.003,0.312-0.052,0.441-0.147c0.13-0.097,0.243-0.23,0.339-0.395c0.028-0.047,0.054-0.096,0.079-0.146
		c-0.001-0.039-0.002-0.079-0.002-0.118c0-0.287,0.029-0.593,0.089-0.918c0.058-0.326,0.146-0.653,0.264-0.98
		c0.118-0.33,0.267-0.645,0.445-0.946c0.176-0.297,0.386-0.565,0.626-0.802c0.239-0.235,0.51-0.419,0.812-0.557
		c0.303-0.136,0.636-0.205,1.001-0.208c0.239,0.003,0.433,0.03,0.583,0.086c0.152,0.055,0.261,0.131,0.333,0.228
		c0.071,0.097,0.104,0.206,0.104,0.33v0.087l0.139-0.667h1.815l-0.908,4.285c-0.018,0.081-0.031,0.154-0.039,0.22
		c-0.007,0.064-0.01,0.126-0.01,0.184c0,0.175,0.042,0.31,0.125,0.402s0.214,0.138,0.391,0.138c0.164-0.002,0.311-0.059,0.441-0.168
		c0.13-0.106,0.243-0.25,0.34-0.428c0.097-0.179,0.176-0.376,0.24-0.588l1.348-6.312l1.865-0.252l-1.45,6.805
		c-0.019,0.081-0.032,0.154-0.04,0.22c-0.006,0.064-0.01,0.126-0.01,0.184c0,0.174,0.042,0.294,0.125,0.365
		c0.084,0.068,0.214,0.102,0.391,0.101c0.166-0.003,0.321-0.052,0.47-0.147c0.149-0.097,0.28-0.23,0.396-0.395
		c0.115-0.167,0.203-0.355,0.268-0.567l0.857-4.045h1.814l-0.907,4.285c-0.02,0.081-0.032,0.154-0.04,0.22
		c-0.007,0.064-0.01,0.126-0.01,0.184c0,0.174,0.042,0.294,0.125,0.365c0.084,0.068,0.214,0.102,0.391,0.101
		c0.166-0.003,0.32-0.052,0.47-0.147c0.149-0.097,0.28-0.23,0.395-0.395c0.116-0.167,0.205-0.355,0.268-0.567l0.757-3.541h-0.416
		l0.101-0.504h0.416l0.378-1.739l1.865-0.251l-0.429,1.99h0.756L54.908,70.6h-0.756l-0.806,3.781
		c-0.019,0.081-0.031,0.154-0.04,0.22c-0.006,0.064-0.01,0.126-0.01,0.184c0,0.174,0.042,0.294,0.125,0.365
		c0.084,0.068,0.214,0.102,0.391,0.101c0.166-0.003,0.321-0.052,0.47-0.147c0.149-0.097,0.28-0.23,0.396-0.395
		c0.115-0.167,0.204-0.355,0.268-0.567l0.857-4.045h1.814l-0.907,4.285c-0.013,0.049-0.023,0.102-0.029,0.156
		c-0.006,0.056-0.008,0.108-0.008,0.157c0,0.1,0.01,0.189,0.033,0.273c0.022,0.085,0.063,0.15,0.118,0.202
		c0.054,0.053,0.13,0.077,0.227,0.08c0.155-0.003,0.295-0.047,0.42-0.138c0.124-0.087,0.233-0.209,0.327-0.365
		c0.095-0.154,0.173-0.332,0.236-0.53L58.914,70.096L58.914,70.096z M56.193,78.147c0,0.06,0.017,0.123,0.05,0.188
		c0.031,0.062,0.08,0.117,0.143,0.158c0.065,0.045,0.143,0.068,0.235,0.07c0.088,0,0.179-0.042,0.271-0.126
		c0.09-0.084,0.176-0.208,0.256-0.374s0.147-0.375,0.204-0.622l0.075-0.364c-0.218,0.078-0.419,0.169-0.604,0.271
		c-0.188,0.102-0.338,0.219-0.454,0.349C56.256,77.83,56.198,77.979,56.193,78.147L56.193,78.147z M49.326,68.421
		c0.003,0.188,0.046,0.354,0.135,0.503c0.087,0.148,0.208,0.269,0.357,0.357c0.149,0.087,0.316,0.133,0.503,0.136
		c0.187-0.003,0.357-0.049,0.508-0.136c0.151-0.089,0.271-0.209,0.361-0.357c0.09-0.148,0.137-0.315,0.139-0.503
		c-0.002-0.188-0.049-0.357-0.139-0.509c-0.09-0.151-0.21-0.271-0.361-0.36c-0.151-0.091-0.321-0.137-0.508-0.14
		c-0.187,0.003-0.354,0.049-0.503,0.14c-0.15,0.089-0.27,0.209-0.357,0.36C49.373,68.063,49.329,68.233,49.326,68.421L49.326,68.421
		z M41.691,70.814c-0.178,0.001-0.346,0.06-0.501,0.173c-0.157,0.112-0.3,0.266-0.431,0.459c-0.132,0.191-0.247,0.41-0.35,0.648
		c-0.104,0.243-0.191,0.491-0.263,0.75c-0.071,0.259-0.124,0.51-0.162,0.754c-0.038,0.245-0.057,0.469-0.057,0.668
		c0.002,0.24,0.023,0.428,0.067,0.562c0.042,0.135,0.097,0.233,0.162,0.292c0.067,0.062,0.136,0.097,0.208,0.111
		c0.069,0.013,0.134,0.019,0.193,0.018c0.126,0,0.258-0.043,0.399-0.128c0.143-0.081,0.271-0.204,0.391-0.369
		c0.117-0.165,0.202-0.368,0.256-0.612l0.604-2.848c0-0.055-0.015-0.117-0.044-0.19c-0.031-0.075-0.084-0.142-0.16-0.198
		C41.929,70.849,41.824,70.815,41.691,70.814L41.691,70.814z M29.206,70.814c0.122,0.001,0.219,0.026,0.29,0.077
		c0.073,0.049,0.128,0.107,0.164,0.173c0.034,0.064,0.055,0.126,0.063,0.179l-0.668,3.11c-0.069,0.197-0.16,0.364-0.271,0.497
		c-0.111,0.132-0.23,0.231-0.356,0.299c-0.124,0.067-0.244,0.101-0.355,0.101c-0.06,0.001-0.125-0.005-0.194-0.018
		c-0.071-0.015-0.141-0.05-0.208-0.111c-0.065-0.059-0.12-0.157-0.162-0.292c-0.044-0.135-0.066-0.322-0.067-0.562
		c0-0.199,0.019-0.423,0.057-0.668c0.038-0.244,0.091-0.495,0.162-0.754c0.071-0.259,0.16-0.507,0.263-0.75
		c0.103-0.238,0.219-0.457,0.351-0.648c0.13-0.193,0.273-0.347,0.43-0.459C28.858,70.874,29.027,70.815,29.206,70.814z"/>
	<path fill-rule="evenodd" clip-rule="evenodd" fill="#363837" d="M62.652,5.008c-2.188,0.2-4.185,1.068-5.782,2.396
		c-0.008-0.074-0.038-0.145-0.092-0.198l0,0c-0.118-0.117-0.31-0.124-0.458-0.027c-0.008-0.149-0.062-0.287-0.167-0.392
		c-0.196-0.195-0.516-0.216-0.811-0.077c-0.412-0.603-0.625-1.358-1.161-1.894c-0.498-0.5-1.189-0.618-1.541-0.266
		c-0.353,0.352-0.234,1.043,0.265,1.542c0.535,0.536,1.291,0.747,1.894,1.162c-0.137,0.294-0.118,0.612,0.079,0.81
		c0.104,0.104,0.241,0.159,0.392,0.166c-0.098,0.148-0.091,0.34,0.027,0.459l0,0c0.054,0.054,0.125,0.084,0.198,0.092
		c-1.329,1.599-2.196,3.593-2.396,5.782c-0.059-0.047-0.128-0.074-0.206-0.074l0,0c-0.166,0-0.306,0.132-0.343,0.306
		c-0.112-0.102-0.247-0.16-0.394-0.16c-0.277,0-0.517,0.212-0.628,0.519c-0.719-0.136-1.403-0.519-2.161-0.519
		c-0.705,0-1.277,0.405-1.277,0.903c0,0.499,0.572,0.901,1.277,0.901c0.757,0,1.442-0.383,2.161-0.517
		c0.111,0.306,0.351,0.517,0.628,0.517c0.147,0,0.282-0.059,0.394-0.158c0.038,0.175,0.178,0.305,0.343,0.305l0,0
		c0.076,0,0.147-0.027,0.205-0.073c0.2,2.188,1.067,4.184,2.396,5.781c-0.074,0.007-0.145,0.038-0.198,0.094l0,0
		c-0.118,0.116-0.125,0.308-0.027,0.458c-0.151,0.008-0.288,0.062-0.392,0.166c-0.197,0.195-0.216,0.516-0.079,0.812
		c-0.603,0.411-1.358,0.625-1.894,1.16c-0.499,0.5-0.618,1.188-0.265,1.541c0.352,0.353,1.043,0.233,1.541-0.264
		c0.536-0.537,0.749-1.291,1.161-1.895c0.295,0.137,0.615,0.118,0.811-0.079c0.104-0.104,0.158-0.241,0.167-0.39
		c0.148,0.096,0.341,0.09,0.458-0.027l0,0c0.054-0.055,0.084-0.125,0.092-0.198c1.599,1.328,3.594,2.194,5.782,2.396
		c-0.046,0.058-0.074,0.129-0.074,0.204l0,0c0,0.166,0.131,0.308,0.305,0.344c-0.1,0.112-0.16,0.248-0.16,0.395
		c0,0.278,0.212,0.517,0.519,0.628c-0.135,0.718-0.519,1.403-0.519,2.161c0,0.704,0.404,1.276,0.903,1.276
		c0.498,0,0.902-0.572,0.902-1.276c0-0.758-0.383-1.443-0.518-2.161c0.306-0.111,0.518-0.35,0.518-0.628
		c0-0.146-0.059-0.282-0.159-0.395c0.173-0.036,0.304-0.178,0.304-0.344l0,0c0-0.075-0.027-0.146-0.074-0.204
		c2.189-0.201,4.185-1.067,5.782-2.396c0.008,0.073,0.039,0.144,0.093,0.198l0,0c0.118,0.117,0.31,0.123,0.458,0.027
		c0.009,0.148,0.063,0.286,0.166,0.39c0.198,0.197,0.516,0.216,0.812,0.079c0.412,0.604,0.625,1.357,1.162,1.895
		c0.498,0.497,1.189,0.616,1.541,0.264s0.233-1.041-0.265-1.541c-0.536-0.535-1.291-0.749-1.894-1.16
		c0.138-0.296,0.118-0.616-0.079-0.812c-0.103-0.104-0.24-0.158-0.391-0.166c0.097-0.15,0.091-0.342-0.027-0.458l0,0
		c-0.054-0.056-0.124-0.087-0.198-0.094c1.329-1.599,2.195-3.594,2.396-5.782c0.058,0.047,0.129,0.074,0.205,0.074l0,0
		c0.167,0,0.307-0.13,0.343-0.305c0.113,0.1,0.248,0.158,0.394,0.158c0.278,0,0.518-0.211,0.629-0.517
		c0.718,0.134,1.403,0.517,2.161,0.517c0.705,0,1.277-0.402,1.277-0.901c0-0.498-0.572-0.903-1.277-0.903
		c-0.758,0-1.443,0.383-2.161,0.519c-0.111-0.307-0.351-0.519-0.629-0.519c-0.146,0-0.281,0.059-0.394,0.16
		c-0.037-0.174-0.177-0.306-0.343-0.306l0,0c-0.076,0-0.147,0.027-0.205,0.074c-0.199-2.189-1.066-4.184-2.396-5.782
		c0.074-0.008,0.144-0.038,0.198-0.092l0,0c0.118-0.119,0.125-0.311,0.027-0.459c0.15-0.007,0.288-0.062,0.391-0.166
		c0.197-0.197,0.217-0.516,0.079-0.81c0.603-0.415,1.358-0.626,1.894-1.162c0.499-0.499,0.617-1.19,0.265-1.542
		c-0.352-0.353-1.043-0.234-1.541,0.266c-0.537,0.535-0.75,1.291-1.162,1.894c-0.296-0.139-0.614-0.118-0.812,0.077
		c-0.103,0.104-0.157,0.242-0.166,0.392c-0.148-0.097-0.34-0.09-0.458,0.027l0,0c-0.054,0.054-0.085,0.124-0.093,0.198
		c-1.598-1.328-3.593-2.196-5.782-2.396c0.046-0.057,0.074-0.128,0.074-0.204l0,0c0-0.167-0.131-0.307-0.304-0.344
		c0.1-0.111,0.159-0.247,0.159-0.394c0-0.277-0.212-0.519-0.518-0.63c0.135-0.717,0.518-1.402,0.518-2.159
		C64.529,0.571,64.125,0,63.627,0c-0.499,0-0.903,0.571-0.903,1.277c0,0.757,0.384,1.442,0.519,2.159
		c-0.306,0.111-0.519,0.353-0.519,0.63c0,0.146,0.06,0.282,0.16,0.394c-0.174,0.037-0.305,0.177-0.305,0.344l0,0
		C62.579,4.88,62.606,4.951,62.652,5.008L62.652,5.008z M63.627,13.607c1.066,0,1.931,0.864,1.931,1.931
		c0,1.065-0.865,1.931-1.931,1.931c-1.067,0-1.931-0.865-1.931-1.931C61.696,14.472,62.56,13.607,63.627,13.607L63.627,13.607z
		 M67.427,13.343c0.178,0.309,0.073,0.703-0.237,0.882c-0.308,0.179-0.703,0.073-0.88-0.237c-0.178-0.309-0.073-0.702,0.236-0.88
		S67.249,13.035,67.427,13.343L67.427,13.343z M65.821,11.737c0.308,0.179,0.414,0.573,0.237,0.882
		c-0.179,0.308-0.573,0.413-0.881,0.235c-0.309-0.178-0.414-0.571-0.236-0.88C65.118,11.664,65.512,11.559,65.821,11.737
		L65.821,11.737z M63.627,11.149c0.356,0,0.645,0.289,0.645,0.645c0,0.357-0.288,0.645-0.645,0.645s-0.645-0.287-0.645-0.645
		C62.982,11.438,63.271,11.149,63.627,11.149L63.627,11.149z M61.432,11.737c0.309-0.179,0.704-0.071,0.881,0.237
		c0.178,0.309,0.072,0.702-0.236,0.88c-0.308,0.178-0.702,0.072-0.881-0.235C61.019,12.311,61.124,11.916,61.432,11.737
		L61.432,11.737z M59.827,13.343c0.177-0.308,0.572-0.413,0.88-0.235c0.308,0.178,0.415,0.571,0.236,0.88
		c-0.177,0.311-0.572,0.416-0.88,0.237C59.754,14.046,59.649,13.651,59.827,13.343L59.827,13.343z M59.239,15.538
		c0-0.356,0.289-0.646,0.645-0.646c0.356,0,0.645,0.289,0.645,0.646c0,0.355-0.289,0.645-0.645,0.645
		C59.527,16.183,59.239,15.894,59.239,15.538L59.239,15.538z M59.827,17.731c-0.178-0.309-0.073-0.703,0.236-0.881
		c0.308-0.178,0.703-0.072,0.88,0.236c0.179,0.309,0.072,0.703-0.236,0.88C60.399,18.146,60.004,18.04,59.827,17.731L59.827,17.731z
		 M61.433,19.338c-0.308-0.179-0.414-0.573-0.236-0.882c0.179-0.308,0.572-0.413,0.88-0.234c0.31,0.179,0.415,0.571,0.236,0.881
		C62.136,19.41,61.741,19.517,61.433,19.338L61.433,19.338z M63.627,19.925c-0.356,0-0.645-0.287-0.645-0.645
		c0-0.355,0.289-0.645,0.645-0.645s0.645,0.289,0.645,0.645C64.271,19.638,63.983,19.925,63.627,19.925L63.627,19.925z
		 M65.821,19.338c-0.309,0.179-0.703,0.072-0.881-0.235c-0.178-0.31-0.072-0.702,0.236-0.881c0.308-0.179,0.703-0.073,0.881,0.234
		C66.235,18.765,66.129,19.159,65.821,19.338L65.821,19.338z M67.427,17.731c-0.178,0.309-0.573,0.414-0.881,0.235
		c-0.309-0.177-0.414-0.571-0.236-0.88c0.178-0.31,0.573-0.414,0.881-0.236C67.5,17.028,67.605,17.423,67.427,17.731L67.427,17.731z
		 M68.015,15.538c0,0.355-0.289,0.645-0.646,0.645c-0.355,0-0.644-0.289-0.644-0.645c0-0.356,0.289-0.646,0.644-0.646
		C67.727,14.893,68.015,15.182,68.015,15.538L68.015,15.538z M60.306,11.334c-0.628-1.055-1.502-1.696-2.295-2.048
		c0.187-0.319,0.22-0.637,0.054-0.802c-0.006-0.006-0.013-0.011-0.019-0.018c1.274-1.008,2.828-1.678,4.526-1.877
		c0,0.009-0.001,0.021-0.001,0.028c0,0.233,0.248,0.434,0.606,0.527c-0.312,0.81-0.476,1.881-0.175,3.072
		C61.991,10.334,61.065,10.735,60.306,11.334L60.306,11.334z M56.555,9.958c0.006,0.006,0.011,0.013,0.018,0.019
		c0.166,0.165,0.483,0.133,0.802-0.054c0.351,0.791,0.993,1.666,2.048,2.294c-0.601,0.76-1,1.685-1.118,2.695
		c-1.191-0.3-2.263-0.137-3.071,0.176c-0.093-0.357-0.295-0.605-0.528-0.605c-0.01,0-0.019,0.001-0.028,0.001
		C54.877,12.785,55.548,11.231,56.555,9.958L56.555,9.958z M54.68,16.593c0.009,0.001,0.018,0.001,0.028,0.001
		c0.233,0,0.435-0.248,0.528-0.607c0.808,0.313,1.88,0.478,3.071,0.176c0.117,1.012,0.517,1.937,1.118,2.696
		c-1.055,0.628-1.698,1.502-2.048,2.296c-0.319-0.188-0.637-0.221-0.802-0.056c-0.007,0.006-0.012,0.014-0.018,0.021
		C55.548,19.844,54.877,18.29,54.68,16.593L54.68,16.593z M58.046,22.609c0.006-0.006,0.013-0.011,0.019-0.019
		c0.166-0.165,0.133-0.482-0.054-0.801c0.793-0.353,1.667-0.994,2.295-2.05c0.759,0.602,1.685,1,2.696,1.117
		c-0.301,1.19-0.137,2.264,0.175,3.071c-0.358,0.094-0.606,0.296-0.606,0.53c0,0.008,0.001,0.017,0.001,0.025
		C60.875,24.287,59.321,23.617,58.046,22.609L58.046,22.609z M64.681,24.486c0.001-0.011,0.001-0.02,0.001-0.027
		c0-0.234-0.248-0.437-0.606-0.53c0.312-0.808,0.476-1.881,0.175-3.069c1.011-0.119,1.937-0.518,2.696-1.119
		c0.628,1.056,1.502,1.697,2.295,2.05c-0.188,0.318-0.22,0.636-0.055,0.801c0.006,0.008,0.014,0.013,0.02,0.019
		C67.933,23.617,66.379,24.287,64.681,24.486L64.681,24.486z M70.698,21.118c-0.005-0.006-0.011-0.014-0.018-0.02
		c-0.165-0.165-0.483-0.132-0.802,0.056c-0.351-0.794-0.993-1.668-2.048-2.296c0.601-0.76,1-1.685,1.117-2.696
		c1.19,0.302,2.263,0.138,3.071-0.176c0.094,0.359,0.294,0.607,0.528,0.607c0.01,0,0.019,0,0.027-0.001
		C72.375,18.29,71.705,19.844,70.698,21.118L70.698,21.118z M72.574,14.483c-0.009,0-0.018-0.001-0.028-0.001
		c-0.234,0-0.435,0.248-0.528,0.605c-0.808-0.312-1.88-0.476-3.07-0.176c-0.119-1.011-0.518-1.936-1.118-2.695
		c1.055-0.628,1.697-1.503,2.048-2.294c0.319,0.187,0.637,0.219,0.802,0.054c0.006-0.006,0.013-0.013,0.019-0.019
		C71.706,11.231,72.376,12.785,72.574,14.483L72.574,14.483z M69.208,8.467c-0.006,0.007-0.014,0.012-0.02,0.018
		c-0.165,0.165-0.132,0.482,0.055,0.802c-0.793,0.352-1.667,0.993-2.295,2.048c-0.76-0.599-1.686-1-2.696-1.116
		c0.301-1.191,0.137-2.263-0.175-3.072c0.358-0.094,0.606-0.294,0.606-0.527c0-0.008,0-0.02-0.001-0.028
		C66.379,6.789,67.932,7.459,69.208,8.467z"/>
	<path fill="#363837" d="M31.604,17.131v-0.716h-0.201l-0.155,0.438c-0.131,0-0.26,0-0.389,0s-0.258,0-0.388,0V16.83
		c0.038-0.013,0.064-0.032,0.077-0.055c0.014-0.021,0.02-0.05,0.02-0.087c0-0.17,0-0.338,0-0.505s0-0.336,0-0.504h0.438l0.119,0.241
		h0.137c0-0.075,0-0.158,0-0.25c0-0.09,0-0.182,0-0.271c0-0.092,0-0.174,0-0.25h-0.137l-0.119,0.252h-0.438c0-0.202,0-0.403,0-0.604
		c0-0.201,0-0.402,0-0.603h0.62l0.128,0.45h0.229v-0.719c-0.185,0-0.367,0-0.545,0c-0.179,0-0.357,0-0.536,0
		c-0.178,0-0.36,0-0.545,0v0.118l0.174,0.118c0,0.45,0,0.899,0,1.35c0,0.449,0,0.899,0,1.35l-0.206,0.136v0.133
		c0.288,0,0.575,0,0.86,0S31.318,17.131,31.604,17.131L31.604,17.131z M33.608,16.482v-0.254h-0.516v0.25
		c0.001,0.122,0.023,0.228,0.066,0.315c0.044,0.089,0.104,0.162,0.178,0.219c0.075,0.057,0.163,0.1,0.26,0.127
		c0.098,0.027,0.202,0.041,0.313,0.041c0.109,0,0.216-0.012,0.316-0.038c0.102-0.024,0.193-0.065,0.273-0.12
		c0.082-0.056,0.145-0.128,0.191-0.217c0.048-0.089,0.072-0.196,0.072-0.323v-0.392c0-0.12-0.022-0.221-0.064-0.301
		c-0.042-0.081-0.098-0.147-0.166-0.2c-0.069-0.053-0.145-0.099-0.227-0.133c-0.083-0.036-0.165-0.069-0.249-0.099
		c-0.082-0.029-0.159-0.062-0.228-0.096c-0.068-0.036-0.124-0.078-0.166-0.129c-0.042-0.052-0.064-0.116-0.065-0.193v-0.389
		c0-0.111,0.028-0.195,0.082-0.259c0.054-0.061,0.135-0.092,0.242-0.094c0.108,0,0.19,0.031,0.249,0.091
		c0.059,0.061,0.088,0.146,0.089,0.262v0.232h0.47c0-0.144,0-0.286,0-0.43c0-0.145,0-0.287,0-0.428h-0.311l-0.036,0.174h-0.019
		c-0.051-0.056-0.104-0.1-0.162-0.129c-0.057-0.031-0.116-0.051-0.176-0.062c-0.061-0.011-0.122-0.016-0.182-0.016
		c-0.094,0-0.183,0.012-0.269,0.034c-0.086,0.026-0.163,0.062-0.231,0.114c-0.067,0.053-0.121,0.12-0.161,0.203
		c-0.039,0.085-0.061,0.186-0.061,0.306v0.389c0.001,0.113,0.023,0.208,0.063,0.283c0.042,0.076,0.097,0.141,0.166,0.19
		s0.144,0.093,0.226,0.127c0.082,0.035,0.164,0.068,0.246,0.1c0.082,0.03,0.157,0.066,0.225,0.104
		c0.068,0.038,0.123,0.085,0.165,0.141c0.042,0.055,0.063,0.126,0.064,0.211v0.387c0,0.077-0.011,0.145-0.036,0.203
		c-0.024,0.057-0.062,0.104-0.113,0.136c-0.052,0.032-0.117,0.049-0.198,0.05c-0.104,0-0.184-0.029-0.239-0.093
		C33.637,16.717,33.609,16.62,33.608,16.482L33.608,16.482L33.608,16.482z M37.713,14.215l0.155,0.524h0.219l-0.019-0.812H36.21
		l-0.018,0.812h0.219l0.146-0.524h0.342c0,0.873,0,1.746,0,2.618l-0.2,0.143v0.155c0.087,0,0.183,0,0.285,0c0.103,0,0.205,0,0.308,0
		s0.198,0,0.288,0v-0.155l-0.201-0.143c0-0.872,0-1.745,0-2.618H37.713L37.713,14.215z M39.515,13.927v0.133l0.174,0.136v2.667
		l-0.201,0.136v0.133h0.986c0.134,0,0.257-0.017,0.369-0.051c0.111-0.035,0.209-0.088,0.29-0.156c0.083-0.07,0.146-0.158,0.19-0.263
		c0.045-0.105,0.068-0.229,0.069-0.37v-1.537c-0.001-0.199-0.04-0.36-0.116-0.48c-0.076-0.122-0.183-0.211-0.32-0.266
		s-0.298-0.081-0.481-0.081H39.515L39.515,13.927z M40.474,14.206c0.111,0,0.2,0.027,0.265,0.076s0.111,0.113,0.138,0.195
		c0.028,0.083,0.041,0.174,0.04,0.276v1.537c0.001,0.102-0.012,0.194-0.04,0.277c-0.027,0.082-0.073,0.148-0.138,0.197
		c-0.065,0.05-0.154,0.076-0.265,0.077h-0.402l-0.004-0.027c0.038-0.01,0.065-0.027,0.08-0.05c0.016-0.023,0.022-0.053,0.021-0.09
		v-2.47H40.474z"/>
	<path fill="#363837" d="M86.469,16.83c0.004-0.138,0.024-0.265,0.063-0.385c0.039-0.118,0.088-0.229,0.149-0.336
		c0.063-0.105,0.129-0.206,0.203-0.304s0.146-0.194,0.218-0.289c0.073-0.096,0.141-0.193,0.201-0.291s0.109-0.2,0.146-0.307
		c0.036-0.106,0.056-0.22,0.056-0.34c0-0.161-0.034-0.293-0.097-0.397c-0.064-0.102-0.155-0.18-0.273-0.227
		c-0.118-0.051-0.258-0.076-0.42-0.074c-0.14,0-0.258,0.022-0.352,0.065c-0.094,0.043-0.168,0.103-0.223,0.182
		c-0.054,0.081-0.093,0.174-0.117,0.282C86,14.52,85.989,14.64,85.99,14.771h0.461c-0.001-0.041,0-0.089,0.001-0.14
		c0.001-0.052,0.005-0.103,0.014-0.154c0.007-0.052,0.021-0.101,0.041-0.145c0.019-0.043,0.045-0.078,0.081-0.104
		c0.035-0.026,0.082-0.041,0.137-0.041c0.064,0,0.117,0.02,0.16,0.053c0.042,0.035,0.075,0.083,0.097,0.142
		c0.02,0.06,0.031,0.127,0.031,0.203c-0.002,0.123-0.022,0.238-0.06,0.347c-0.04,0.109-0.09,0.213-0.153,0.314
		c-0.064,0.101-0.133,0.201-0.208,0.299c-0.075,0.102-0.15,0.201-0.224,0.306c-0.075,0.103-0.143,0.212-0.204,0.326
		c-0.061,0.114-0.109,0.236-0.146,0.368c-0.036,0.132-0.053,0.273-0.051,0.428v0.168c0.262,0,0.525,0,0.792,0s0.531,0,0.792,0
		v-0.757h-0.206l-0.146,0.447H86.469L86.469,16.83z M89.122,14.748v1.595c0,0.17,0.034,0.319,0.102,0.448
		c0.068,0.127,0.166,0.225,0.294,0.296c0.128,0.07,0.281,0.107,0.462,0.108c0.18,0,0.334-0.031,0.462-0.094
		c0.127-0.062,0.226-0.154,0.293-0.282c0.068-0.125,0.102-0.284,0.103-0.477v-1.595c-0.001-0.191-0.035-0.349-0.103-0.475
		c-0.067-0.127-0.166-0.222-0.293-0.283c-0.128-0.062-0.282-0.091-0.462-0.091c-0.181,0.001-0.334,0.035-0.462,0.107
		c-0.128,0.07-0.226,0.17-0.294,0.297C89.156,14.429,89.122,14.578,89.122,14.748L89.122,14.748z M89.596,14.748
		c0-0.061,0.005-0.123,0.015-0.186c0.011-0.063,0.029-0.123,0.057-0.178c0.028-0.056,0.067-0.099,0.118-0.133
		c0.049-0.033,0.115-0.051,0.194-0.053c0.081,0.002,0.146,0.017,0.197,0.047c0.05,0.03,0.089,0.07,0.116,0.122
		c0.028,0.051,0.046,0.109,0.056,0.175c0.011,0.064,0.016,0.134,0.015,0.205v1.595c0,0.071-0.004,0.14-0.015,0.205
		c-0.009,0.066-0.028,0.125-0.056,0.176c-0.026,0.051-0.065,0.091-0.116,0.121c-0.051,0.028-0.116,0.044-0.197,0.044
		c-0.079,0-0.145-0.018-0.194-0.053c-0.051-0.032-0.089-0.077-0.118-0.132c-0.027-0.056-0.046-0.113-0.057-0.176
		c-0.01-0.064-0.016-0.126-0.015-0.186V14.748L89.596,14.748z M92.5,14.748v1.595c0,0.17,0.035,0.319,0.102,0.448
		c0.068,0.127,0.167,0.225,0.294,0.296c0.128,0.07,0.282,0.107,0.463,0.108c0.179,0,0.333-0.031,0.461-0.094
		c0.127-0.062,0.226-0.154,0.293-0.282c0.067-0.125,0.102-0.284,0.103-0.477v-1.595c-0.001-0.191-0.035-0.349-0.103-0.475
		c-0.068-0.127-0.167-0.222-0.293-0.283c-0.128-0.062-0.282-0.091-0.461-0.091c-0.181,0.001-0.335,0.035-0.463,0.107
		c-0.127,0.07-0.226,0.17-0.294,0.297C92.535,14.429,92.5,14.578,92.5,14.748L92.5,14.748z M92.975,14.748
		c-0.001-0.061,0.004-0.123,0.014-0.186c0.01-0.063,0.029-0.123,0.057-0.178c0.028-0.056,0.066-0.099,0.117-0.133
		c0.05-0.033,0.115-0.051,0.195-0.053c0.08,0.002,0.145,0.017,0.196,0.047c0.05,0.03,0.089,0.07,0.117,0.122
		c0.027,0.051,0.045,0.109,0.056,0.175c0.01,0.064,0.014,0.134,0.014,0.205v1.595c0,0.071-0.003,0.14-0.014,0.205
		c-0.01,0.066-0.029,0.125-0.056,0.176c-0.028,0.051-0.066,0.091-0.117,0.121c-0.051,0.028-0.116,0.044-0.196,0.044
		s-0.145-0.018-0.195-0.053c-0.051-0.032-0.089-0.077-0.117-0.132c-0.028-0.056-0.047-0.113-0.057-0.176
		c-0.01-0.064-0.015-0.126-0.014-0.186V14.748L92.975,14.748z M96.283,16.83c0.005-0.138,0.025-0.265,0.064-0.385
		c0.039-0.118,0.088-0.229,0.15-0.336c0.062-0.105,0.129-0.206,0.202-0.304c0.073-0.098,0.146-0.194,0.219-0.289
		c0.073-0.096,0.139-0.193,0.2-0.291c0.061-0.098,0.11-0.2,0.146-0.307s0.056-0.22,0.057-0.34c-0.001-0.161-0.034-0.293-0.098-0.397
		c-0.063-0.102-0.154-0.18-0.273-0.227c-0.118-0.051-0.257-0.076-0.419-0.074c-0.141,0-0.259,0.022-0.353,0.065
		c-0.093,0.043-0.168,0.103-0.224,0.182c-0.054,0.081-0.093,0.174-0.117,0.282c-0.022,0.109-0.034,0.229-0.033,0.36h0.461
		c-0.001-0.041,0-0.089,0.002-0.14c0-0.052,0.004-0.103,0.013-0.154c0.007-0.052,0.021-0.101,0.041-0.145
		c0.019-0.043,0.045-0.078,0.082-0.104c0.035-0.026,0.081-0.041,0.136-0.041c0.064,0,0.117,0.02,0.16,0.053
		c0.042,0.035,0.075,0.083,0.096,0.142c0.021,0.06,0.032,0.127,0.032,0.203c-0.002,0.123-0.021,0.238-0.06,0.347
		c-0.04,0.109-0.089,0.213-0.153,0.314c-0.063,0.101-0.132,0.201-0.208,0.299c-0.074,0.102-0.149,0.201-0.224,0.306
		c-0.075,0.103-0.143,0.212-0.204,0.326c-0.061,0.114-0.11,0.236-0.146,0.368s-0.052,0.273-0.05,0.428v0.168
		c0.261,0,0.525,0,0.792,0c0.268,0,0.532,0,0.792,0v-0.757h-0.205l-0.146,0.447H96.283z"/>
	<path fill-rule="evenodd" clip-rule="evenodd" fill="#363837" d="M38.148,84.671h50.956l-1.863,4.058l1.863,4.059H38.148
		l1.863-4.059L38.148,84.671L38.148,84.671z M45.423,90.579c0.503,0,0.855-0.114,1.057-0.34c0.175-0.196,0.262-0.422,0.262-0.676
		c0-0.23-0.067-0.424-0.201-0.579c-0.135-0.154-0.315-0.257-0.542-0.305c0.063-0.028,0.106-0.048,0.131-0.06
		c0.025-0.014,0.068-0.044,0.131-0.093c0.185-0.139,0.278-0.352,0.278-0.639c0-0.236-0.082-0.45-0.247-0.639
		c-0.091-0.101-0.226-0.181-0.405-0.24c-0.18-0.059-0.394-0.089-0.641-0.089h-1.423v3.658H45.423L45.423,90.579z M44.639,88.401
		h0.387c0.227,0,0.395-0.024,0.505-0.073c0.109-0.05,0.165-0.154,0.165-0.316s-0.05-0.269-0.152-0.322
		c-0.101-0.053-0.271-0.078-0.513-0.078h-0.392V88.401L44.639,88.401z M44.639,89.888h0.56c0.234,0,0.409-0.029,0.526-0.086
		c0.117-0.057,0.175-0.171,0.175-0.34c0-0.17-0.062-0.281-0.186-0.335c-0.124-0.054-0.321-0.082-0.594-0.082h-0.481V89.888
		L44.639,89.888z M52.254,88.134c0-0.424-0.121-0.732-0.364-0.926c-0.242-0.191-0.647-0.287-1.217-0.287h-1.387v3.658h0.816v-1.167
		h0.565l0.811,1.167h1.005l-0.927-1.309C52.022,89.099,52.254,88.72,52.254,88.134L52.254,88.134z M50.7,88.706
		c0.279,0,0.469-0.046,0.571-0.136c0.101-0.091,0.151-0.236,0.151-0.434s-0.052-0.331-0.156-0.404
		c-0.106-0.074-0.288-0.111-0.55-0.111h-0.613v1.085H50.7L50.7,88.706z M57.558,90.579h0.868l-1.581-3.658h-0.79l-1.581,3.658h0.869
		l0.34-0.79h1.533L57.558,90.579L57.558,90.579z M56.453,88.009l-0.461,1.062h0.916L56.453,88.009L56.453,88.009z M63.268,86.921
		v2.354l-1.795-2.354h-0.764v3.658h0.817v-2.293l1.742,2.293h0.817v-3.658H63.268L63.268,86.921z M68.137,86.921h-1.293v3.658h1.251
		c0.698,0,1.218-0.166,1.558-0.497c0.339-0.332,0.509-0.781,0.509-1.351c0-0.567-0.173-1.012-0.523-1.332
		C69.29,87.081,68.789,86.921,68.137,86.921L68.137,86.921z M68.179,89.857c0.373,0,0.66-0.096,0.861-0.284
		c0.201-0.188,0.301-0.462,0.301-0.82c0-0.36-0.1-0.636-0.301-0.83c-0.201-0.193-0.509-0.29-0.924-0.29h-0.455v2.225H68.179
		L68.179,89.857z M75.789,89.857c-0.293,0-0.543-0.104-0.748-0.31c-0.207-0.205-0.309-0.478-0.309-0.819
		c0-0.34,0.109-0.61,0.327-0.811c0.218-0.2,0.48-0.301,0.788-0.301c0.384,0,0.705,0.161,0.963,0.481l0.507-0.576
		c-0.405-0.456-0.907-0.686-1.508-0.686c-0.537,0-0.992,0.182-1.363,0.544c-0.372,0.363-0.558,0.816-0.558,1.359
		c0,0.541,0.182,0.991,0.547,1.346c0.364,0.357,0.829,0.534,1.393,0.534c0.563,0,1.053-0.234,1.468-0.7l-0.523-0.538
		C76.519,89.697,76.19,89.857,75.789,89.857L75.789,89.857z M82.599,88.729c0-0.325-0.105-0.604-0.314-0.834
		c-0.209-0.23-0.466-0.346-0.771-0.346c-0.306,0-0.563,0.115-0.772,0.346c-0.209,0.229-0.313,0.509-0.313,0.834
		c0,0.326,0.104,0.604,0.313,0.832c0.209,0.229,0.467,0.344,0.772,0.344c0.305,0,0.562-0.114,0.771-0.344
		C82.494,89.333,82.599,89.055,82.599,88.729L82.599,88.729z M82.876,90.073c0.37-0.36,0.555-0.809,0.555-1.348
		c0-0.537-0.185-0.985-0.555-1.347c-0.37-0.36-0.826-0.542-1.365-0.542c-0.542,0-0.997,0.182-1.367,0.542
		c-0.37,0.361-0.555,0.81-0.555,1.347c0,0.539,0.185,0.987,0.555,1.348c0.37,0.361,0.825,0.543,1.367,0.543
		C82.051,90.616,82.507,90.435,82.876,90.073z"/>
	<path fill-rule="evenodd" clip-rule="evenodd" fill="#8C8C8C" d="M90.318,88.097c-0.349,0-0.632,0.283-0.632,0.632
		c0,0.351,0.283,0.632,0.632,0.632s0.632-0.281,0.632-0.632C90.951,88.38,90.667,88.097,90.318,88.097L90.318,88.097z
		 M36.936,88.097c-0.35,0-0.632,0.283-0.632,0.632c0,0.351,0.283,0.632,0.632,0.632c0.348,0,0.631-0.281,0.631-0.632
		C37.566,88.38,37.284,88.097,36.936,88.097z"/>
</g>
</svg>
