<?xml version="1.0" encoding="utf-8"?>
<!-- Generator: Adobe Illustrator 16.0.0, SVG Export Plug-In . SVG Version: 6.00 Build 0)  -->
<!DOCTYPE svg PUBLIC "-//W3C//DTD SVG 1.1//EN" "http://www.w3.org/Graphics/SVG/1.1/DTD/svg11.dtd">
<svg version="1.1" id="Layer_1" xmlns="http://www.w3.org/2000/svg" xmlns:xlink="http://www.w3.org/1999/xlink" x="0px" y="0px"
	 width="125.919px" height="68.039px" viewBox="0 0 125.919 68.039" enable-background="new 0 0 125.919 68.039"
	 xml:space="preserve">
<g>
	<path fill="#545454" d="M117.39,51.297v-4.196v-0.139l0.116-0.07l1.166-0.724c2.098-1.306,3.798-3.101,4.963-5.199
		c1.166-2.075,1.795-4.478,1.795-6.948c0-2.472-0.629-4.85-1.795-6.925c-1.165-2.1-2.865-3.895-4.963-5.201l-1.166-0.722
		l-0.116-0.095v-0.115v-4.244h-12.188h-0.094l-0.047-0.046l-7.226-5.131c-5.033-3.568-10.626-6.319-16.522-8.185
		c-5.92-1.889-12.143-2.868-18.341-2.868c-6.223,0-12.445,0.979-18.364,2.868c-5.873,1.865-11.49,4.616-16.524,8.185l-7.201,5.131
		l-0.07,0.046h-0.069H8.553v4.244v0.115l-0.116,0.095l-1.188,0.722c-2.098,1.307-3.799,3.102-4.941,5.201
		c-1.165,2.075-1.817,4.453-1.817,6.925c0,2.471,0.652,4.873,1.817,6.948c1.143,2.099,2.844,3.894,4.941,5.199l1.188,0.724
		l0.116,0.07v0.139v4.196h12.143h0.094l0.069,0.048l7.225,5.153c5.034,3.59,10.651,6.342,16.524,8.207
		c5.919,1.865,12.142,2.846,18.364,2.846c6.198,0,12.421-0.98,18.341-2.846c5.896-1.865,11.489-4.617,16.522-8.207l7.25-5.153
		l0.07-0.048h0.067H117.39L117.39,51.297z M117.879,47.241L117.879,47.241v4.312v0.257h-0.257h-12.329l-7.177,5.083
		c-5.058,3.615-10.722,6.413-16.642,8.277c-5.988,1.89-12.234,2.868-18.503,2.868s-12.539-0.979-18.505-2.868
		c-5.943-1.864-11.583-4.662-16.663-8.277l-7.179-5.083H8.297H8.04v-0.257v-4.312l-1.049-0.653
		c-2.167-1.353-3.915-3.218-5.127-5.387C0.652,39.056,0,36.585,0,34.021c0-2.566,0.652-5.015,1.864-7.183
		c1.212-2.146,2.96-4.01,5.127-5.363l1.049-0.652v-4.336v-0.257h0.257h12.352l7.155-5.084c5.08-3.613,10.72-6.389,16.663-8.276
		C50.433,0.98,56.703,0,62.972,0s12.515,0.98,18.503,2.869c5.92,1.888,11.584,4.663,16.642,8.276l7.155,5.084h12.351h0.257v0.257
		v4.336l1.071,0.652c2.168,1.354,3.916,3.218,5.105,5.363c1.211,2.168,1.863,4.616,1.863,7.183c0,2.564-0.652,5.035-1.863,7.181
		c-1.189,2.169-2.938,4.034-5.105,5.387L117.879,47.241z"/>
	<path fill-rule="evenodd" clip-rule="evenodd" fill="#373737" d="M118.742,32.784c-0.677,0-1.236,0.56-1.236,1.236
		c0,0.699,0.56,1.259,1.236,1.259c0.675,0,1.234-0.56,1.234-1.259C119.977,33.344,119.417,32.784,118.742,32.784L118.742,32.784z
		 M7.178,32.784L7.178,32.784c-0.676,0-1.235,0.56-1.235,1.236c0,0.699,0.56,1.259,1.235,1.259c0.699,0,1.259-0.56,1.259-1.259
		C8.437,33.344,7.877,32.784,7.178,32.784z"/>
	<rect x="30.344" y="16.274" fill="#545454" width="65.255" height="0.421"/>
	<rect x="30.344" y="51.345" fill="#545454" width="65.255" height="0.42"/>
	<g>
		<path fill="#373737" d="M42.062,55.855L42.17,55.9l-0.676,1.534c-0.046,0.103-0.086,0.158-0.123,0.167
			c-0.036,0.008-0.096-0.007-0.181-0.044l-0.197-0.089l-0.158,0.353c0.559,0.248,1.118,0.496,1.686,0.725l0.147-0.357l-0.215-0.088
			c-0.091-0.037-0.144-0.073-0.16-0.107c-0.016-0.035-0.004-0.1,0.037-0.196l0.65-1.544l0.109,0.044
			c0.136,0.056,0.221,0.146,0.255,0.271c0.034,0.123,0.015,0.273-0.058,0.451l-0.004,0.011l0.365,0.15l0.383-0.956
			c-0.86-0.353-1.719-0.712-2.562-1.108l-0.433,0.936l0.363,0.166l0.004-0.01c0.08-0.176,0.177-0.293,0.289-0.353
			C41.806,55.797,41.929,55.797,42.062,55.855L42.062,55.855z M45.664,59.07L45.664,59.07c-0.034,0.1-0.068,0.157-0.103,0.172
			s-0.097,0.008-0.189-0.023l-0.132-0.045l-0.128,0.363c0.531,0.18,1.062,0.365,1.596,0.528l0.116-0.367l-0.148-0.047
			c-0.092-0.029-0.147-0.061-0.165-0.093c-0.019-0.031-0.012-0.099,0.021-0.199l0.188-0.58l0.232,0.073
			c0.146,0.046,0.233,0.1,0.265,0.162c0.031,0.062,0.021,0.18-0.033,0.353l-0.067,0.218c-0.066,0.216-0.061,0.389,0.02,0.521
			c0.079,0.136,0.242,0.234,0.484,0.307c0.23,0.067,0.412,0.062,0.546-0.019c0.134-0.079,0.235-0.243,0.304-0.486l0.014-0.054
			l0.012-0.053l-0.267-0.078l-0.012,0.047l-0.01,0.044c-0.026,0.091-0.054,0.154-0.085,0.193c-0.03,0.041-0.063,0.055-0.099,0.044
			c-0.038-0.011-0.06-0.036-0.065-0.077s0.006-0.109,0.033-0.203c0.091-0.31,0.117-0.519,0.079-0.623
			c-0.036-0.106-0.141-0.194-0.312-0.268c0.188,0.015,0.344-0.015,0.469-0.086c0.125-0.072,0.209-0.183,0.251-0.33
			c0.063-0.217,0.034-0.403-0.087-0.556c-0.122-0.154-0.337-0.271-0.645-0.371c-0.583-0.179-1.157-0.374-1.732-0.569l-0.127,0.363
			l0.127,0.043c0.089,0.03,0.142,0.061,0.158,0.093c0.017,0.031,0.008,0.097-0.025,0.196L45.664,59.07L45.664,59.07z M46.824,58.426
			L46.824,58.426l0.222-0.687l0.25,0.079c0.148,0.047,0.243,0.106,0.286,0.178s0.043,0.173,0.003,0.304
			c-0.037,0.12-0.096,0.195-0.176,0.227c-0.08,0.03-0.2,0.021-0.36-0.029L46.824,58.426L46.824,58.426z M52.067,60.168
			L52.067,60.168l-0.471-0.1L52,59.312L52.067,60.168L52.067,60.168z M51.702,61.385L51.702,61.385
			c0.552,0.12,1.105,0.226,1.661,0.329l0.068-0.38l-0.143-0.026c-0.078-0.016-0.134-0.04-0.164-0.075
			c-0.031-0.034-0.055-0.122-0.072-0.263l-0.229-2.132l-0.938-0.198l-1.151,1.847c-0.057,0.087-0.113,0.147-0.17,0.178
			c-0.057,0.033-0.118,0.042-0.188,0.025l-0.1-0.025l-0.092,0.375l1.216,0.282l0.083-0.378l-0.134-0.028
			c-0.061-0.015-0.105-0.031-0.135-0.053c-0.03-0.02-0.043-0.042-0.037-0.064c0.004-0.02,0.011-0.038,0.022-0.059
			c0.009-0.021,0.025-0.049,0.048-0.085l0.142-0.232l0.722,0.154l0.038,0.306l0.001,0.059c0,0.02-0.004,0.039-0.007,0.061
			c-0.007,0.031-0.022,0.048-0.048,0.055s-0.089-0.001-0.192-0.023l-0.122-0.025L51.702,61.385L51.702,61.385z M57.121,59.521
			L57.121,59.521l-1.429-0.186l-0.056,0.38l0.129,0.02c0.094,0.015,0.151,0.033,0.174,0.062c0.022,0.027,0.026,0.094,0.012,0.199
			l-0.201,1.472l-0.002,0.021c-0.014,0.099-0.038,0.157-0.069,0.174c-0.03,0.018-0.093,0.021-0.183,0.007l-0.138-0.021l-0.056,0.382
			l1.505,0.195c0.555,0.062,0.978-0.005,1.266-0.207c0.29-0.198,0.451-0.527,0.49-0.986c0.038-0.459-0.063-0.811-0.301-1.056
			C58.026,59.732,57.646,59.578,57.121,59.521L57.121,59.521z M56.637,61.806L56.637,61.806l0.23-1.918l0.209,0.022
			c0.191,0.021,0.32,0.11,0.39,0.267c0.068,0.157,0.084,0.408,0.048,0.755c-0.036,0.345-0.104,0.586-0.207,0.724
			c-0.103,0.139-0.254,0.195-0.453,0.174L56.637,61.806L56.637,61.806z M63.621,59.854L63.621,59.854
			c-0.927,0.018-1.854-0.006-2.781-0.039l-0.016,0.384l0.13,0.007c0.095,0.002,0.153,0.016,0.179,0.041s0.036,0.09,0.032,0.196
			l-0.052,1.485l-0.001,0.021c-0.004,0.1-0.021,0.16-0.051,0.18c-0.028,0.021-0.089,0.03-0.181,0.026l-0.14-0.006l-0.016,0.386
			c0.981,0.036,1.964,0.06,2.946,0.041l-0.015-1.123l-0.449,0.004c-0.009,0.143-0.023,0.26-0.048,0.353
			c-0.024,0.094-0.059,0.173-0.102,0.237c-0.038,0.056-0.094,0.095-0.165,0.116c-0.072,0.021-0.204,0.031-0.394,0.029l-0.49-0.005
			l0.015-0.848l0.109,0.001c0.126,0.001,0.211,0.03,0.255,0.088s0.067,0.181,0.071,0.372l0.345,0.003l0.004-1.243l-0.336-0.003
			v0.023c-0.002,0.151-0.028,0.257-0.078,0.315c-0.05,0.06-0.137,0.089-0.259,0.087h-0.104l0.014-0.747l0.343,0.003l0.079,0.001
			c0.162,0.002,0.279,0.014,0.353,0.036c0.071,0.021,0.134,0.061,0.185,0.111c0.044,0.044,0.082,0.103,0.112,0.178
			c0.03,0.072,0.061,0.177,0.089,0.309l0.43-0.006L63.621,59.854L63.621,59.854z M69.825,59.394L69.825,59.394
			c-0.507,0.067-1.015,0.13-1.522,0.183l-0.33,1.665l-0.602-1.576c-0.493,0.05-0.988,0.075-1.481,0.108l0.022,0.385l0.123-0.007
			c0.093-0.006,0.153,0.002,0.181,0.024c0.028,0.022,0.046,0.087,0.053,0.192l0.095,1.482c0.008,0.106-0.002,0.172-0.028,0.199
			c-0.025,0.026-0.088,0.043-0.184,0.051l-0.128,0.006l0.022,0.386l1.249-0.087l-0.03-0.385l-0.103,0.009
			c-0.098,0.008-0.16-0.001-0.189-0.024c-0.028-0.023-0.048-0.087-0.056-0.193l-0.124-1.647c0.273,0.742,0.555,1.477,0.847,2.211
			l0.652-0.059c0.16-0.781,0.312-1.562,0.454-2.34l0.187,1.646c0.013,0.111,0.005,0.179-0.021,0.205
			c-0.026,0.024-0.087,0.042-0.18,0.052l-0.102,0.012l0.041,0.384c0.509-0.052,1.014-0.116,1.521-0.185l-0.053-0.381l-0.135,0.017
			c-0.094,0.012-0.157,0.009-0.187-0.01c-0.032-0.02-0.054-0.084-0.067-0.193l-0.191-1.474c-0.013-0.107-0.008-0.174,0.015-0.2
			c0.023-0.027,0.081-0.046,0.172-0.058l0.131-0.018L69.825,59.394L69.825,59.394z M73.567,60.229L73.567,60.229l-0.472,0.096
			l0.065-0.853L73.567,60.229L73.567,60.229z M73.719,61.492L73.719,61.492c0.553-0.114,1.104-0.234,1.655-0.365l-0.09-0.376
			l-0.142,0.033c-0.078,0.018-0.139,0.017-0.181-0.002c-0.041-0.02-0.099-0.09-0.172-0.211c-0.361-0.617-0.716-1.237-1.062-1.863
			l-0.94,0.193l-0.315,2.154c-0.017,0.104-0.045,0.183-0.083,0.232c-0.04,0.052-0.094,0.084-0.162,0.095l-0.103,0.017l0.066,0.381
			c0.41-0.066,0.818-0.152,1.227-0.228l-0.075-0.379l-0.134,0.025c-0.061,0.012-0.109,0.014-0.145,0.008s-0.057-0.021-0.06-0.045
			C73,61.144,73,61.123,73,61.1c0.002-0.022,0.005-0.055,0.013-0.097l0.035-0.271l0.726-0.145l0.155,0.264l0.024,0.053
			c0.006,0.019,0.013,0.037,0.018,0.059c0.007,0.031-0.002,0.054-0.022,0.07c-0.02,0.016-0.081,0.034-0.185,0.056l-0.121,0.026
			L73.719,61.492L73.719,61.492z M77.465,59.944L77.465,59.944c0.028,0.102,0.033,0.169,0.014,0.199
			c-0.021,0.032-0.076,0.062-0.17,0.086l-0.134,0.037l0.104,0.372c0.54-0.144,1.075-0.309,1.611-0.471l-0.115-0.37l-0.147,0.048
			c-0.092,0.029-0.155,0.033-0.188,0.018c-0.033-0.018-0.065-0.075-0.097-0.177l-0.176-0.584l0.234-0.07
			c0.144-0.045,0.247-0.053,0.308-0.02c0.061,0.032,0.119,0.136,0.174,0.31l0.068,0.218c0.067,0.214,0.172,0.354,0.312,0.417
			c0.142,0.062,0.333,0.059,0.574-0.022c0.227-0.075,0.373-0.186,0.437-0.328c0.065-0.143,0.056-0.334-0.027-0.574l-0.019-0.05
			l-0.02-0.051l-0.265,0.089l0.018,0.045l0.016,0.042c0.031,0.09,0.045,0.159,0.042,0.208c-0.002,0.05-0.021,0.08-0.058,0.093
			c-0.037,0.012-0.068,0.003-0.098-0.027c-0.026-0.03-0.057-0.092-0.087-0.184c-0.103-0.309-0.198-0.493-0.289-0.559
			s-0.226-0.078-0.409-0.045c0.162-0.091,0.273-0.205,0.336-0.335c0.062-0.132,0.068-0.271,0.02-0.415
			c-0.072-0.215-0.203-0.351-0.388-0.407c-0.186-0.053-0.434-0.037-0.741,0.062c-0.582,0.185-1.163,0.355-1.75,0.516l0.102,0.371
			l0.129-0.035c0.092-0.024,0.152-0.028,0.185-0.012c0.031,0.016,0.062,0.075,0.09,0.177L77.465,59.944L77.465,59.944z
			 M78.051,58.753L78.051,58.753l-0.208-0.691l0.252-0.075c0.147-0.047,0.259-0.054,0.336-0.019
			c0.075,0.033,0.134,0.117,0.176,0.247c0.036,0.12,0.031,0.216-0.017,0.286c-0.05,0.072-0.152,0.134-0.312,0.184L78.051,58.753
			L78.051,58.753z M81.499,56.377L81.499,56.377l0.141,0.358l0.124-0.048c0.089-0.034,0.148-0.044,0.182-0.031
			s0.07,0.069,0.108,0.168l0.549,1.381c0.04,0.098,0.05,0.164,0.033,0.198c-0.017,0.031-0.069,0.066-0.16,0.101l-0.13,0.051
			l0.141,0.36c0.497-0.188,0.984-0.397,1.476-0.596l-0.15-0.355l-0.083,0.034c-0.086,0.035-0.148,0.046-0.183,0.032
			c-0.035-0.013-0.073-0.067-0.113-0.164l-0.088-0.211l0.257-0.449l0.607,0.395c0.016,0.009,0.028,0.021,0.039,0.033
			c0.014,0.012,0.023,0.027,0.029,0.045c0.011,0.024,0.005,0.048-0.018,0.07s-0.065,0.048-0.131,0.075l-0.119,0.053l0.151,0.354
			c0.529-0.227,1.055-0.459,1.576-0.702l-0.163-0.351l-0.154,0.072c-0.058,0.025-0.113,0.035-0.166,0.03
			c-0.053-0.008-0.112-0.03-0.18-0.073l-1.122-0.704l0.307-0.648c0.04-0.092,0.085-0.165,0.13-0.223
			c0.045-0.059,0.088-0.098,0.131-0.117l0.123-0.057l-0.161-0.35c-0.446,0.209-0.897,0.407-1.353,0.603l0.152,0.353l0.205-0.089
			c0.05-0.021,0.088-0.032,0.115-0.031c0.029,0,0.046,0.011,0.056,0.033c0.008,0.017,0.009,0.035,0.008,0.057
			c-0.003,0.021-0.011,0.045-0.023,0.071l-0.517,1.009l-0.26-0.622c-0.042-0.102-0.054-0.167-0.037-0.199
			c0.017-0.03,0.064-0.062,0.144-0.095l0.021-0.009l-0.149-0.354C82.396,56.017,81.951,56.208,81.499,56.377z"/>
		<path fill-rule="evenodd" clip-rule="evenodd" fill="#545454" d="M38.984,55.081c0.182,0.092,0.254,0.314,0.162,0.498
			c-0.091,0.182-0.314,0.254-0.498,0.162c-0.185-0.095-0.257-0.316-0.162-0.497C38.581,55.062,38.804,54.989,38.984,55.081
			L38.984,55.081z M87.456,55.244L87.456,55.244c0.095,0.181,0.022,0.402-0.161,0.497c-0.186,0.092-0.408,0.02-0.499-0.163
			s-0.019-0.405,0.162-0.497S87.361,55.062,87.456,55.244z"/>
	</g>
	<g>
		<path fill="#373737" d="M41.505,12.205c0.043,0.096,0.059,0.161,0.044,0.196c-0.013,0.033-0.062,0.069-0.146,0.108l-0.122,0.056
			l0.161,0.351c0.481-0.226,0.97-0.437,1.459-0.646l-0.151-0.355l-0.139,0.06c-0.085,0.037-0.145,0.049-0.179,0.036
			c-0.033-0.012-0.072-0.067-0.113-0.164l-0.243-0.561l0.223-0.097c0.14-0.06,0.24-0.077,0.304-0.05s0.131,0.124,0.201,0.294
			l0.088,0.209c0.088,0.209,0.202,0.338,0.344,0.392s0.322,0.035,0.545-0.056c0.209-0.087,0.341-0.199,0.395-0.342
			s0.035-0.332-0.057-0.569l-0.021-0.051l-0.021-0.05l-0.255,0.099l0.019,0.042l0.02,0.042c0.034,0.088,0.053,0.156,0.053,0.206
			c0,0.049-0.016,0.079-0.05,0.093c-0.035,0.015-0.066,0.008-0.096-0.021c-0.029-0.029-0.062-0.09-0.099-0.181
			c-0.119-0.3-0.226-0.48-0.32-0.54c-0.095-0.059-0.231-0.063-0.412-0.015c0.156-0.105,0.262-0.226,0.316-0.359
			c0.055-0.136,0.054-0.275-0.002-0.417c-0.084-0.212-0.224-0.338-0.42-0.379c-0.197-0.042-0.453,0.003-0.769,0.132
			c-0.589,0.251-1.179,0.505-1.761,0.776l0.162,0.35l0.127-0.058c0.09-0.042,0.151-0.056,0.186-0.045s0.073,0.064,0.117,0.159
			L41.505,12.205L41.505,12.205z M41.921,10.95L41.921,10.95l-0.286-0.662l0.25-0.108c0.148-0.064,0.262-0.084,0.343-0.056
			c0.081,0.027,0.147,0.104,0.2,0.23c0.049,0.116,0.052,0.212,0.008,0.286c-0.043,0.074-0.141,0.148-0.296,0.215L41.921,10.95
			L41.921,10.95z M47.65,7.68L47.65,7.68c-0.938,0.276-1.863,0.581-2.785,0.905l0.129,0.363l0.127-0.045
			c0.093-0.034,0.155-0.045,0.189-0.029c0.032,0.015,0.067,0.072,0.102,0.172l0.487,1.404l0.007,0.019
			c0.032,0.095,0.04,0.156,0.021,0.186c-0.021,0.029-0.071,0.06-0.153,0.088l-0.127,0.047l0.129,0.363
			c0.881-0.311,1.77-0.604,2.665-0.867l-0.319-1.077l-0.428,0.127c0.034,0.138,0.053,0.254,0.057,0.351
			c0.005,0.096-0.003,0.182-0.024,0.256c-0.02,0.063-0.06,0.115-0.119,0.158s-0.176,0.092-0.352,0.146l-0.45,0.146l-0.266-0.807
			l0.104-0.035c0.119-0.039,0.209-0.036,0.268,0.005c0.061,0.04,0.122,0.151,0.185,0.331l0.321-0.103l-0.372-1.187l-0.329,0.104
			l0.008,0.023c0.046,0.145,0.055,0.253,0.025,0.324s-0.104,0.125-0.22,0.164l-0.101,0.033l-0.234-0.71l0.338-0.109l0.079-0.024
			c0.16-0.051,0.28-0.077,0.358-0.08c0.078-0.001,0.15,0.015,0.215,0.048c0.058,0.028,0.112,0.073,0.163,0.136
			c0.051,0.061,0.11,0.151,0.176,0.269l0.417-0.123L47.65,7.68L47.65,7.68z M50.385,7.379L50.385,7.379l0.117-0.027l0.395,1.629
			c0.025,0.109,0.028,0.177,0.006,0.206c-0.023,0.026-0.078,0.052-0.165,0.074l-0.202,0.051l0.094,0.375
			c0.564-0.142,1.132-0.275,1.7-0.395l-0.08-0.378L52.03,8.96c-0.094,0.02-0.155,0.02-0.188,0.001
			c-0.032-0.02-0.06-0.079-0.083-0.183l-0.365-1.635l0.118-0.026c0.149-0.031,0.275-0.007,0.376,0.076
			c0.1,0.082,0.17,0.218,0.21,0.405l0.002,0.011l0.393-0.083l-0.206-1.01c-0.96,0.199-1.915,0.419-2.862,0.666l0.261,0.997
			l0.393-0.1l-0.004-0.012c-0.047-0.187-0.044-0.339,0.009-0.456C50.137,7.495,50.237,7.417,50.385,7.379L50.385,7.379z
			 M54.638,8.221L54.638,8.221c0.018,0.104,0.016,0.171-0.007,0.199c-0.022,0.03-0.079,0.053-0.172,0.068l-0.132,0.023l0.066,0.38
			c0.522-0.094,1.05-0.169,1.576-0.249L55.916,8.26l-0.149,0.021c-0.092,0.014-0.152,0.011-0.183-0.011
			c-0.03-0.021-0.052-0.083-0.067-0.188l-0.09-0.604l0.24-0.036c0.15-0.022,0.253-0.009,0.308,0.033
			c0.054,0.043,0.093,0.154,0.118,0.336l0.031,0.226c0.029,0.223,0.106,0.377,0.229,0.465c0.124,0.087,0.303,0.116,0.542,0.085
			c0.225-0.027,0.381-0.101,0.469-0.226c0.089-0.126,0.119-0.315,0.093-0.566l-0.008-0.054l-0.01-0.054l-0.27,0.03l0.007,0.046
			l0.008,0.046c0.011,0.093,0.01,0.164-0.003,0.212C57.17,8.068,57.146,8.095,57.109,8.1c-0.037,0.004-0.066-0.012-0.086-0.047
			c-0.021-0.036-0.037-0.103-0.049-0.199c-0.038-0.321-0.095-0.523-0.171-0.607c-0.076-0.083-0.207-0.121-0.395-0.118
			c0.178-0.062,0.311-0.153,0.398-0.268s0.124-0.249,0.105-0.401c-0.026-0.226-0.129-0.384-0.308-0.477
			c-0.18-0.091-0.438-0.113-0.775-0.068c-0.636,0.088-1.27,0.183-1.9,0.294l0.064,0.379l0.139-0.021
			c0.096-0.018,0.16-0.017,0.19,0.002c0.03,0.021,0.055,0.082,0.071,0.187L54.638,8.221L54.638,8.221z M55.364,7.116L55.364,7.116
			l-0.105-0.713l0.27-0.042c0.16-0.024,0.274-0.009,0.347,0.037c0.07,0.047,0.114,0.138,0.133,0.274
			c0.017,0.125-0.006,0.217-0.066,0.279c-0.06,0.062-0.174,0.102-0.341,0.128L55.364,7.116L55.364,7.116z M60.522,5.815
			L60.522,5.815c0.186-0.008,0.324,0.065,0.416,0.228c0.092,0.16,0.142,0.422,0.155,0.784c0.014,0.359-0.019,0.621-0.093,0.785
			c-0.076,0.163-0.204,0.253-0.386,0.26c-0.177,0.01-0.312-0.065-0.402-0.224s-0.147-0.42-0.168-0.784
			c-0.021-0.356,0.006-0.619,0.083-0.784C60.203,5.914,60.336,5.826,60.522,5.815L60.522,5.815z M58.992,6.944L58.992,6.944
			c0.035,0.447,0.202,0.788,0.492,1.024c0.291,0.234,0.672,0.34,1.147,0.318c0.48-0.029,0.853-0.157,1.12-0.425
			c0.269-0.264,0.4-0.615,0.394-1.066c-0.007-0.449-0.153-0.807-0.445-1.053c-0.291-0.244-0.693-0.37-1.197-0.34
			c-0.509,0.023-0.898,0.174-1.165,0.453C59.07,6.133,58.957,6.495,58.992,6.944L58.992,6.944z M64.379,8.169L64.379,8.169
			c0.518,0.013,1.035,0.04,1.552,0.067c0.424,0.027,0.73-0.006,0.921-0.109c0.19-0.103,0.297-0.285,0.318-0.551
			c0.016-0.182-0.028-0.337-0.135-0.459c-0.105-0.12-0.274-0.216-0.508-0.285c0.187-0.044,0.332-0.118,0.438-0.22
			c0.105-0.104,0.164-0.229,0.177-0.379c0.018-0.221-0.055-0.388-0.216-0.503c-0.161-0.114-0.424-0.187-0.789-0.21
			c-0.56-0.03-1.12-0.061-1.681-0.072l-0.011,0.384l0.136,0.004c0.098,0.003,0.16,0.018,0.186,0.042
			c0.026,0.026,0.037,0.092,0.034,0.197l-0.053,1.486V7.58c-0.005,0.101-0.021,0.16-0.05,0.182
			c-0.028,0.021-0.087,0.028-0.174,0.026l-0.134-0.004L64.379,8.169L64.379,8.169z M65.619,7.838L65.619,7.838l0.045-0.863
			l0.171,0.009c0.159,0.008,0.274,0.048,0.345,0.122c0.07,0.075,0.101,0.184,0.092,0.328c-0.011,0.155-0.053,0.267-0.127,0.33
			c-0.075,0.062-0.193,0.091-0.354,0.083L65.619,7.838L65.619,7.838z M65.684,6.618L65.684,6.618l0.039-0.727L65.887,5.9
			c0.147,0.008,0.251,0.038,0.309,0.1c0.06,0.059,0.084,0.151,0.076,0.278c-0.008,0.128-0.048,0.22-0.117,0.275
			c-0.07,0.055-0.176,0.081-0.321,0.072L65.684,6.618L65.684,6.618z M69.19,7.912L69.19,7.912c-0.013,0.104-0.034,0.168-0.063,0.19
			c-0.03,0.02-0.091,0.025-0.184,0.016L68.81,8.104l-0.045,0.383c0.529,0.062,1.057,0.131,1.583,0.211l0.056-0.383l-0.149-0.022
			c-0.091-0.015-0.146-0.035-0.17-0.064c-0.023-0.028-0.028-0.095-0.012-0.199l0.084-0.604l0.241,0.035
			c0.149,0.023,0.245,0.063,0.285,0.12c0.04,0.055,0.046,0.173,0.019,0.354l-0.034,0.225c-0.034,0.223-0.004,0.393,0.089,0.512
			c0.093,0.118,0.258,0.193,0.496,0.236c0.221,0.038,0.394,0.01,0.514-0.086s0.203-0.269,0.248-0.518l0.008-0.054l0.008-0.054
			l-0.27-0.046l-0.005,0.046l-0.006,0.047c-0.016,0.091-0.036,0.159-0.062,0.201c-0.026,0.044-0.057,0.061-0.092,0.056
			c-0.038-0.007-0.062-0.03-0.07-0.069c-0.011-0.04-0.008-0.108,0.01-0.205c0.055-0.319,0.058-0.528,0.008-0.629
			c-0.051-0.1-0.164-0.178-0.344-0.229c0.188-0.01,0.34-0.054,0.457-0.141c0.117-0.086,0.188-0.204,0.214-0.354
			c0.04-0.225-0.015-0.406-0.159-0.545c-0.146-0.141-0.388-0.236-0.724-0.287c-0.635-0.099-1.271-0.181-1.906-0.257l-0.045,0.384
			l0.139,0.016c0.098,0.01,0.157,0.03,0.182,0.058c0.024,0.028,0.028,0.094,0.016,0.198L69.19,7.912L69.19,7.912z M70.2,7.058
			L70.2,7.058l0.101-0.714l0.269,0.04c0.161,0.023,0.268,0.068,0.322,0.133s0.071,0.165,0.051,0.3
			c-0.019,0.124-0.067,0.207-0.144,0.25c-0.075,0.042-0.196,0.051-0.363,0.026L70.2,7.058L70.2,7.058z M75.037,8.312L75.037,8.312
			L74.57,8.203l0.412-0.75L75.037,8.312L75.037,8.312z M74.647,9.521L74.647,9.521c0.521,0.121,1.042,0.256,1.562,0.395l0.101-0.373
			l-0.136-0.037c-0.075-0.021-0.126-0.05-0.153-0.086c-0.027-0.035-0.043-0.124-0.053-0.265L75.85,7.011l-0.982-0.233
			c-0.39,0.611-0.773,1.232-1.146,1.854c-0.054,0.09-0.108,0.15-0.162,0.185c-0.055,0.033-0.115,0.043-0.181,0.028L73.28,8.823
			l-0.078,0.379l1.159,0.253l0.088-0.376l-0.129-0.03c-0.06-0.014-0.103-0.03-0.131-0.05c-0.029-0.021-0.04-0.043-0.035-0.065
			c0.003-0.019,0.012-0.038,0.021-0.06l0.05-0.084l0.139-0.234l0.707,0.165l0.025,0.306l-0.001,0.058
			c0,0.021-0.005,0.039-0.01,0.061c-0.006,0.029-0.022,0.048-0.048,0.054c-0.025,0.007-0.086-0.002-0.185-0.025l-0.119-0.026
			L74.647,9.521L74.647,9.521z M79.584,8.073L79.584,8.073l-1.319-0.408l-0.108,0.37l0.13,0.038
			c0.095,0.027,0.152,0.058,0.172,0.091c0.019,0.032,0.013,0.098-0.016,0.197L78.01,9.784c-0.03,0.1-0.062,0.157-0.096,0.175
			c-0.033,0.017-0.096,0.012-0.187-0.015l-0.124-0.038l-0.11,0.371l1.119,0.345l0.118-0.368l-0.113-0.036
			c-0.089-0.027-0.144-0.058-0.161-0.09s-0.011-0.099,0.021-0.199l0.397-1.272c0.146,0.729,0.282,1.452,0.4,2.182l0.86,0.296
			l0.703-1.986c0.035-0.1,0.069-0.157,0.104-0.171c0.033-0.014,0.097-0.004,0.188,0.029l0.094,0.034l0.131-0.362
			c-0.386-0.142-0.773-0.274-1.16-0.403l-0.123,0.364l0.149,0.051c0.09,0.03,0.144,0.061,0.164,0.091
			c0.02,0.03,0.011,0.097-0.023,0.201l-0.396,1.15C79.85,9.45,79.725,8.757,79.584,8.073L79.584,8.073z M84.31,9.846L84.31,9.846
			c-0.463-0.205-0.936-0.389-1.403-0.583L82.765,9.62l0.125,0.051c0.092,0.038,0.145,0.072,0.16,0.105
			c0.015,0.032,0.004,0.099-0.037,0.197l-0.558,1.378l-0.008,0.018c-0.037,0.094-0.073,0.144-0.106,0.152
			c-0.033,0.01-0.091-0.003-0.173-0.036l-0.124-0.05l-0.142,0.359c0.443,0.184,0.891,0.357,1.331,0.553
			c0.484,0.208,0.89,0.266,1.216,0.174c0.328-0.096,0.593-0.351,0.789-0.769c0.194-0.416,0.219-0.781,0.068-1.096
			C85.156,10.338,84.822,10.067,84.31,9.846L84.31,9.846z M83.953,10.119L83.953,10.119l0.201,0.087
			c0.184,0.081,0.285,0.206,0.307,0.377c0.019,0.171-0.042,0.415-0.182,0.732c-0.143,0.317-0.281,0.527-0.418,0.629
			s-0.295,0.114-0.472,0.037l-0.191-0.084L83.953,10.119z"/>
		<path fill-rule="evenodd" clip-rule="evenodd" fill="#545454" d="M38.689,12.408c0.184-0.094,0.406-0.021,0.499,0.16
			s0.022,0.405-0.158,0.498c-0.18,0.093-0.404,0.021-0.499-0.161C38.436,12.726,38.506,12.502,38.689,12.408L38.689,12.408z
			 M87.411,12.905L87.411,12.905c-0.096,0.182-0.319,0.254-0.499,0.161s-0.25-0.316-0.157-0.498c0.092-0.182,0.314-0.254,0.499-0.16
			C87.438,12.502,87.507,12.725,87.411,12.905z"/>
	</g>
	<path fill="#373737" d="M14.449,26.209v1.026h1.072v13.593h-1.072v1.026h3.893c0.442,0,0.815-0.117,1.164-0.304
		c0.327-0.209,0.583-0.513,0.77-0.955s0.303-1.004,0.303-1.702v-9.723c0-0.584-0.069-1.098-0.232-1.54
		c-0.141-0.443-0.396-0.793-0.723-1.049c-0.326-0.232-0.769-0.373-1.306-0.373H14.449L14.449,26.209z M19.367,39.104L19.367,39.104
		c0,0.326-0.023,0.629-0.094,0.886c-0.07,0.256-0.187,0.466-0.35,0.606c-0.14,0.162-0.326,0.232-0.582,0.232h-1.609V27.235h1.562
		c0.209,0,0.396,0.047,0.56,0.162c0.163,0.117,0.278,0.304,0.372,0.56c0.094,0.258,0.141,0.584,0.141,1.003V39.104L19.367,39.104z
		 M31.998,31.781L31.998,31.781h1.212v-5.572h-6.06v1.026h1.049v13.593H27.15v1.026h6.06v-5.596h-1.212v4.569h-2.587v-6.271h2.237
		v-1.003h-2.237v-6.318h2.587V31.781L31.998,31.781z M46.611,40.828L46.611,40.828V27.235h1.095v-1.026h-3.355v1.026h1.072v6.154
		h-3.03v-6.154h1.072v-1.026h-3.356v1.026h1.072v13.593h-1.072v1.026h3.356v-1.026h-1.072V34.37h3.03v6.458h-1.072v1.026h3.355
		v-1.026H46.611L46.611,40.828z M56.656,27.235L56.656,27.235h1.071v-1.026h-3.355v1.026h1.071v13.593h-1.071v1.026h3.355v-1.026
		h-1.071V27.235L56.656,27.235z M71.127,35.745L71.127,35.745V34.72h-3.449v1.025h1.166v3.567c0,0.327-0.047,0.629-0.163,0.887
		c-0.116,0.256-0.279,0.466-0.513,0.605c-0.209,0.141-0.512,0.233-0.885,0.233c-0.327,0-0.63-0.047-0.862-0.164
		c-0.257-0.116-0.468-0.278-0.605-0.534c-0.14-0.234-0.21-0.537-0.21-0.934V28.798c0-0.351,0.046-0.654,0.14-0.911
		c0.116-0.279,0.278-0.489,0.489-0.63c0.232-0.161,0.513-0.231,0.887-0.231c0.349,0,0.628,0.07,0.884,0.231
		c0.257,0.164,0.467,0.421,0.605,0.771c0.141,0.35,0.211,0.792,0.233,1.376v2.378h1.188v-5.572h-0.979l-0.14,0.862h-0.07
		c-0.163-0.327-0.396-0.582-0.723-0.77c-0.302-0.209-0.697-0.303-1.211-0.303c-0.489,0-0.909,0.094-1.305,0.28
		c-0.373,0.186-0.652,0.465-0.885,0.886c-0.211,0.396-0.327,0.933-0.327,1.585v10.562c0,0.537,0.093,1.002,0.279,1.423
		c0.187,0.396,0.467,0.724,0.886,0.955c0.395,0.233,0.908,0.351,1.562,0.374c0.349,0,0.651-0.07,0.954-0.232
		c0.278-0.142,0.535-0.397,0.722-0.746h0.047l0.07,0.979h1.118v-6.319H71.127L71.127,35.745z M84.902,26.209L84.902,26.209h-3.357
		v1.026h1.073v6.412l0.209,5.199l-3.496-12.638h-2.26v1.026h1.095v13.593h-1.095v1.026h3.354v-1.026h-1.048v-6.319l-0.209-5.292
		l3.495,12.638h1.165V27.235h1.073V26.209L84.902,26.209z M96.135,31.781L96.135,31.781h1.211v-5.572h-6.058v1.026h1.048v13.593
		h-1.048v1.026h6.058v-5.596h-1.211v4.569h-2.587v-6.271h2.237v-1.003h-2.237v-6.318h2.587V31.781L96.135,31.781z M111.47,40.828
		L111.47,40.828h-0.979v-4.127c-0.023-0.536-0.069-0.979-0.162-1.329c-0.095-0.35-0.211-0.629-0.351-0.838
		c-0.163-0.212-0.326-0.375-0.49-0.491c-0.162-0.094-0.326-0.163-0.465-0.209c-0.141-0.048-0.257-0.048-0.352-0.048
		c0.373-0.046,0.7-0.139,0.934-0.279c0.232-0.163,0.418-0.35,0.56-0.583c0.14-0.21,0.232-0.442,0.303-0.653
		c0.048-0.209,0.094-0.396,0.094-0.535c0.022-0.14,0.022-0.234,0.022-0.234v-2.33c0-0.561-0.068-1.003-0.187-1.377
		c-0.116-0.373-0.255-0.652-0.441-0.863c-0.164-0.208-0.373-0.373-0.56-0.489c-0.211-0.092-0.397-0.162-0.56-0.187
		c-0.165-0.046-0.304-0.046-0.396-0.046h-4.218v1.026h1.095v13.593h-1.095v1.026h3.706v-1.026h-1.4v-6.575h1.235
		c0.141,0,0.281,0.023,0.443,0.069c0.187,0.048,0.349,0.141,0.513,0.281c0.14,0.14,0.279,0.373,0.396,0.698
		c0.095,0.304,0.164,0.724,0.164,1.26v5.293h2.19V40.828L111.47,40.828z M106.528,33.298L106.528,33.298v-6.062h1.446
		c0.141,0,0.278,0,0.419,0.047c0.162,0.022,0.326,0.115,0.466,0.232c0.14,0.116,0.28,0.279,0.373,0.513
		c0.094,0.233,0.14,0.536,0.14,0.933v2.658c0,0.093,0,0.256-0.023,0.42c-0.047,0.187-0.116,0.373-0.209,0.56
		c-0.116,0.21-0.28,0.373-0.489,0.489c-0.233,0.14-0.514,0.211-0.887,0.211H106.528z"/>
</g>
</svg>
