<?xml version="1.0" encoding="utf-8"?>
<!-- Generator: Adobe Illustrator 16.0.0, SVG Export Plug-In . SVG Version: 6.00 Build 0)  -->
<!DOCTYPE svg PUBLIC "-//W3C//DTD SVG 1.1//EN" "http://www.w3.org/Graphics/SVG/1.1/DTD/svg11.dtd">
<svg version="1.1" id="Layer_1" xmlns="http://www.w3.org/2000/svg" xmlns:xlink="http://www.w3.org/1999/xlink" x="0px" y="0px"
	 width="127.254px" height="58.406px" viewBox="0 0 127.254 58.406" enable-background="new 0 0 127.254 58.406"
	 xml:space="preserve">
<g>
	<g>
		<path fill-rule="evenodd" clip-rule="evenodd" fill="#363837" d="M121.101,24.706c-0.175-1.585-0.501-3.154-0.961-4.681
			c-0.751-2.501-1.852-4.896-3.206-7.125c-0.772-1.271-1.344-1.915-2.763-2.461c-0.915-0.352-1.897-0.507-2.87-0.592
			c-1.774-0.156-3.675-0.136-5.416-0.466c-1.206-0.229-2.603-0.726-3.56-1.516c-0.207-0.17-1.25-1.036-0.916-1.406
			c0.181-0.221,0.472-0.021,0.653,0.094c0.269,0.17,0.531,0.336,0.812,0.488c1.005,0.541,2.084,0.859,3.216,0.985
			c0.801,0.09,1.62,0.1,2.426,0.112c0.97,0.013,1.938,0.022,2.907,0.077c0.805,0.047,1.599,0.14,2.377,0.331
			c-1.039-1.233-2.163-2.398-3.356-3.481c-1.366-1.24-2.811-2.362-4.341-3.392c-0.421-0.284-0.85-0.555-1.271-0.839
			c-0.195-0.13-0.631-0.378-0.503-0.668c0.123-0.311,0.639-0.104,0.852-0.029c0.493,0.171,0.985,0.398,1.452,0.632
			c1.693,0.85,3.318,1.968,4.785,3.161c2.204,1.792,4.182,3.897,5.852,6.191c1.419,1.95,2.635,4.058,3.582,6.277
			c0.104-0.587,0.229-1.169,0.363-1.75c0.411-1.771,0.862-3.952,0.577-5.766c-0.208-1.327-0.666-2.48-1.295-3.657
			c-0.176-0.329-0.362-0.654-0.532-0.984c-0.103-0.196-0.293-0.524-0.066-0.706c0.227-0.18,0.521,0.086,0.682,0.234
			c0.287,0.263,0.554,0.58,0.792,0.887c0.921,1.18,1.558,2.486,1.889,3.951c0.224,0.994,0.269,2.047,0.202,3.062
			c-0.075,1.121-0.277,2.239-0.49,3.341c-0.276,1.439-0.526,2.883-0.56,4.351c-0.041,1.789,0.396,3.426,0.584,5.185
			c0.222,2.063,0.216,4.158-0.041,6.218c-0.202,1.626-0.56,3.233-1.05,4.796c0.406-0.326,0.808-0.657,1.191-1.006
			c0.975-0.886,1.825-1.963,2.38-3.161c0.395-0.851,0.652-1.694,0.879-2.601c0.062-0.253,0.12-0.511,0.191-0.761
			c0.054-0.188,0.133-0.464,0.386-0.441c0.431,0.037,0.307,1.078,0.288,1.338c-0.072,1.001-0.297,1.987-0.65,2.926
			c-0.52,1.384-1.465,2.686-2.515,3.714c-1.282,1.255-2.78,1.947-3.574,3.649c-0.359,0.769-0.757,1.517-1.169,2.258
			c-0.92,1.657-2.1,3.235-3.415,4.6c-1.286,1.334-2.657,2.576-4.004,3.849c-2.435,2.299-4.723,4.894-6.029,8.017
			c-0.159,0.379-0.596,0.562-0.978,0.414l-0.361-0.141c-0.195-0.077-0.342-0.218-0.424-0.412c-0.082-0.194-0.082-0.398,0.001-0.591
			c0.376-0.893,0.822-1.755,1.324-2.584c0.527-0.872,0.895-1.424,1.227-2.411c0.606-1.806,0.954-3.959,0.668-5.86
			c-0.114-0.764-0.292-1.49-0.508-2.231c-0.081-0.281-0.371-0.991-0.048-1.189c0.197-0.122,0.403,0.037,0.541,0.168
			c0.174,0.168,0.33,0.379,0.462,0.581c0.464,0.708,0.797,1.558,1.018,2.371c0.335,1.226,0.405,2.567,0.28,3.83
			c-0.005,0.054-0.011,0.108-0.017,0.161c0.498-0.513,1.009-1.014,1.527-1.506c1.981-1.878,4.138-3.669,5.751-5.889
			c1.03-1.419,0.737-2.844,0.302-4.422c-0.386-1.394-0.898-2.912-1.034-4.35c-0.097-1.019,0.008-2.204,0.43-3.148
			c0.104-0.231,0.542-1.231,0.946-1.055c0.257,0.1,0.17,0.397,0.109,0.595c-0.075,0.25-0.151,0.491-0.21,0.746
			c-0.21,0.896-0.229,1.798-0.077,2.707c0.225,1.346,0.806,2.799,1.205,4.116c0.14,0.461,0.262,0.924,0.351,1.395
			c1.378-2.727,2.328-5.674,2.711-8.709c0.188-1.49,0.345-2.435-0.438-3.799c-0.437-0.76-1.056-1.399-1.721-1.96
			c-1.231-1.04-2.721-2.053-3.77-3.267c-0.753-0.87-1.405-1.959-1.711-3.076c-0.071-0.262-0.419-1.442,0.049-1.548
			c0.26-0.059,0.38,0.231,0.465,0.417c0.123,0.268,0.238,0.539,0.364,0.807c0.438,0.937,1.046,1.784,1.776,2.517
			c0.509,0.509,1.104,0.957,1.683,1.382c0.711,0.524,1.429,1.035,2.121,1.583C120.316,23.926,120.729,24.297,121.101,24.706z"/>
		<path fill-rule="evenodd" clip-rule="evenodd" fill="#363837" d="M6.152,24.706c0.176-1.585,0.501-3.154,0.96-4.681
			c0.753-2.501,1.853-4.896,3.208-7.125c0.772-1.271,1.343-1.915,2.762-2.461c0.916-0.352,1.897-0.507,2.87-0.592
			c1.774-0.156,3.675-0.136,5.417-0.466c1.204-0.229,2.602-0.726,3.56-1.516c0.206-0.17,1.248-1.036,0.915-1.406
			c-0.182-0.221-0.472-0.021-0.653,0.094c-0.269,0.17-0.532,0.336-0.813,0.488c-1.005,0.541-2.083,0.859-3.216,0.985
			c-0.8,0.09-1.62,0.1-2.424,0.112C17.767,8.15,16.8,8.16,15.831,8.215c-0.807,0.047-1.6,0.14-2.377,0.331
			c1.039-1.233,2.161-2.398,3.355-3.481c1.367-1.24,2.811-2.362,4.341-3.392C21.571,1.389,22,1.117,22.421,0.833
			c0.194-0.13,0.631-0.378,0.502-0.668c-0.123-0.311-0.639-0.104-0.852-0.029c-0.494,0.171-0.986,0.398-1.452,0.632
			c-1.693,0.85-3.319,1.968-4.786,3.161c-2.203,1.792-4.182,3.897-5.852,6.191c-1.418,1.95-2.633,4.058-3.582,6.277
			c-0.104-0.587-0.228-1.169-0.362-1.75c-0.412-1.771-0.863-3.952-0.578-5.766c0.208-1.327,0.667-2.48,1.295-3.657
			C6.932,4.896,7.117,4.571,7.289,4.24c0.102-0.196,0.292-0.524,0.065-0.706c-0.227-0.18-0.52,0.086-0.681,0.234
			C6.386,4.031,6.119,4.348,5.88,4.655c-0.92,1.18-1.558,2.486-1.887,3.951C3.769,9.6,3.723,10.654,3.791,11.668
			c0.075,1.121,0.277,2.239,0.489,3.341c0.277,1.439,0.526,2.883,0.56,4.351c0.042,1.789-0.396,3.426-0.584,5.185
			c-0.221,2.063-0.216,4.158,0.041,6.218c0.203,1.626,0.559,3.233,1.05,4.796c-0.405-0.326-0.807-0.657-1.191-1.006
			c-0.975-0.886-1.824-1.963-2.379-3.161c-0.395-0.851-0.653-1.694-0.878-2.601c-0.063-0.253-0.121-0.511-0.192-0.761
			c-0.054-0.188-0.132-0.464-0.385-0.441c-0.431,0.037-0.307,1.078-0.288,1.338c0.072,1.001,0.297,1.987,0.65,2.926
			c0.52,1.384,1.464,2.686,2.516,3.714c1.282,1.255,2.779,1.947,3.574,3.649c0.358,0.769,0.757,1.517,1.167,2.258
			c0.92,1.657,2.1,3.235,3.416,4.6c1.286,1.334,2.658,2.576,4.003,3.849c2.435,2.299,4.724,4.894,6.031,8.017
			c0.157,0.379,0.594,0.562,0.977,0.414l0.361-0.141c0.197-0.077,0.342-0.218,0.424-0.412c0.082-0.194,0.082-0.398,0-0.591
			c-0.376-0.893-0.822-1.755-1.324-2.584c-0.528-0.872-0.896-1.424-1.227-2.411c-0.608-1.806-0.955-3.959-0.669-5.86
			c0.115-0.764,0.294-1.49,0.508-2.231c0.082-0.281,0.373-0.991,0.049-1.189c-0.197-0.122-0.403,0.037-0.541,0.168
			c-0.174,0.168-0.33,0.379-0.462,0.581c-0.464,0.708-0.795,1.558-1.018,2.371c-0.335,1.226-0.406,2.567-0.281,3.83
			c0.006,0.054,0.011,0.108,0.018,0.161c-0.499-0.513-1.009-1.014-1.528-1.506c-1.98-1.878-4.138-3.669-5.75-5.889
			c-1.031-1.419-0.738-2.844-0.302-4.422c0.386-1.394,0.898-2.912,1.034-4.35c0.096-1.019-0.007-2.204-0.43-3.148
			c-0.103-0.231-0.542-1.231-0.946-1.055c-0.256,0.1-0.169,0.397-0.109,0.595c0.076,0.25,0.151,0.491,0.211,0.746
			c0.208,0.896,0.228,1.798,0.076,2.707c-0.224,1.346-0.806,2.799-1.205,4.116c-0.141,0.461-0.262,0.924-0.35,1.395
			c-1.379-2.727-2.328-5.674-2.71-8.709c-0.188-1.49-0.347-2.435,0.438-3.799c0.437-0.76,1.054-1.399,1.72-1.96
			c1.232-1.04,2.721-2.053,3.77-3.267c0.753-0.87,1.405-1.959,1.71-3.076c0.072-0.262,0.419-1.442-0.049-1.548
			c-0.26-0.059-0.379,0.231-0.464,0.417c-0.123,0.268-0.237,0.539-0.363,0.807c-0.44,0.937-1.047,1.784-1.778,2.517
			c-0.509,0.509-1.103,0.957-1.682,1.382c-0.712,0.524-1.429,1.035-2.122,1.583C6.937,23.926,6.525,24.297,6.152,24.706z"/>
	</g>
	<path fill="#363837" d="M46.623,55.278c0,0.24-0.044,0.465-0.132,0.674c-0.088,0.21-0.216,0.398-0.386,0.564
		c-0.17,0.164-0.365,0.291-0.583,0.38c-0.219,0.088-0.446,0.133-0.682,0.133c-0.239,0-0.467-0.045-0.685-0.133
		c-0.219-0.089-0.41-0.216-0.575-0.38c-0.173-0.166-0.302-0.354-0.392-0.566c-0.089-0.211-0.133-0.435-0.133-0.672
		c0-0.239,0.044-0.463,0.133-0.674c0.09-0.21,0.219-0.398,0.392-0.563c0.165-0.165,0.356-0.291,0.575-0.38
		c0.218-0.089,0.446-0.133,0.685-0.133c0.237,0,0.465,0.043,0.685,0.133c0.221,0.089,0.414,0.215,0.58,0.38
		c0.168,0.164,0.295,0.351,0.384,0.562C46.579,54.814,46.623,55.039,46.623,55.278L46.623,55.278z M44.84,56.259
		c0.252,0,0.46-0.094,0.625-0.278c0.165-0.187,0.248-0.421,0.248-0.703c0-0.279-0.083-0.513-0.251-0.7
		c-0.167-0.187-0.375-0.28-0.622-0.28c-0.252,0-0.461,0.094-0.626,0.279s-0.247,0.42-0.247,0.701c0,0.285,0.081,0.52,0.244,0.705
		C44.373,56.167,44.583,56.259,44.84,56.259L44.84,56.259z M48.201,56.94v-3.338h0.951c0.372,0,0.632,0.018,0.779,0.052
		c0.145,0.034,0.272,0.091,0.379,0.171c0.12,0.092,0.212,0.208,0.277,0.35c0.065,0.142,0.096,0.296,0.096,0.468
		c0,0.258-0.063,0.467-0.19,0.629c-0.126,0.162-0.312,0.27-0.555,0.322l0.909,1.345h-1.028l-0.765-1.307v1.307H48.201L48.201,56.94z
		 M49.054,55.181h0.169c0.196,0,0.338-0.034,0.429-0.101c0.09-0.067,0.136-0.171,0.136-0.314c0-0.167-0.042-0.286-0.127-0.357
		c-0.083-0.071-0.226-0.106-0.425-0.106h-0.182V55.181L49.054,55.181z M52.225,56.94v-3.338h0.919v3.338H52.225L52.225,56.94z
		 M56.472,55.711v-0.7h1.787c0.001,0.023,0.003,0.048,0.003,0.076c0.001,0.027,0.001,0.068,0.001,0.12
		c0,0.576-0.152,1.021-0.455,1.338s-0.729,0.475-1.28,0.475c-0.271,0-0.511-0.041-0.721-0.122c-0.21-0.081-0.399-0.205-0.564-0.373
		c-0.159-0.159-0.281-0.348-0.369-0.565c-0.087-0.218-0.131-0.447-0.131-0.686c0-0.25,0.043-0.478,0.128-0.688
		c0.085-0.21,0.212-0.396,0.381-0.564c0.167-0.163,0.359-0.286,0.576-0.37c0.216-0.083,0.45-0.125,0.701-0.125
		c0.327,0,0.616,0.064,0.868,0.193c0.251,0.13,0.462,0.322,0.634,0.577l-0.788,0.379c-0.094-0.13-0.2-0.225-0.318-0.288
		c-0.119-0.063-0.25-0.095-0.396-0.095c-0.272,0-0.486,0.091-0.642,0.272c-0.156,0.183-0.236,0.431-0.236,0.744
		c0,0.318,0.08,0.568,0.236,0.751c0.156,0.182,0.37,0.273,0.642,0.273c0.231,0,0.424-0.056,0.578-0.169
		c0.153-0.113,0.244-0.264,0.27-0.453H56.472L56.472,55.711z M59.852,56.94v-3.338h0.919v3.338H59.852L59.852,56.94z M62.513,56.94
		v-3.338h0.877l1.26,1.718c0.024,0.035,0.064,0.105,0.12,0.21c0.056,0.106,0.116,0.231,0.183,0.378
		c-0.018-0.138-0.031-0.262-0.039-0.369c-0.008-0.108-0.013-0.203-0.013-0.288v-1.648h0.873v3.338h-0.873l-1.261-1.723
		c-0.025-0.035-0.066-0.105-0.122-0.211c-0.056-0.105-0.116-0.229-0.181-0.373c0.018,0.14,0.031,0.264,0.039,0.372
		c0.009,0.106,0.013,0.203,0.013,0.287v1.648H62.513L62.513,56.94z M68.381,55.693h0.905l-0.34-1.101
		c-0.011-0.034-0.025-0.087-0.043-0.162c-0.019-0.074-0.043-0.17-0.071-0.287c-0.019,0.082-0.039,0.161-0.059,0.235
		c-0.019,0.075-0.038,0.145-0.058,0.214L68.381,55.693L68.381,55.693z M67.106,56.94l1.151-3.338h1.141l1.151,3.338h-0.904
		l-0.168-0.598h-1.292l-0.175,0.598H67.106L67.106,56.94z M71.878,56.94v-3.338h0.91v2.559h1.131v0.779H71.878L71.878,56.94z
		 M79.251,53.732v0.994c-0.125-0.138-0.249-0.239-0.373-0.304s-0.257-0.097-0.397-0.097c-0.262,0-0.474,0.09-0.635,0.268
		c-0.162,0.178-0.243,0.411-0.243,0.699c0,0.267,0.082,0.489,0.248,0.665c0.164,0.177,0.375,0.266,0.63,0.266
		c0.141,0,0.273-0.034,0.397-0.098c0.124-0.064,0.248-0.167,0.373-0.307v0.997c-0.146,0.069-0.289,0.122-0.432,0.157
		c-0.142,0.035-0.287,0.053-0.433,0.053c-0.184,0-0.351-0.022-0.506-0.065c-0.153-0.043-0.295-0.109-0.424-0.198
		c-0.25-0.167-0.439-0.377-0.57-0.631c-0.131-0.254-0.196-0.539-0.196-0.856c0-0.256,0.041-0.488,0.125-0.697
		c0.082-0.209,0.208-0.398,0.375-0.568c0.158-0.163,0.336-0.285,0.534-0.365s0.418-0.121,0.662-0.121
		c0.146,0,0.291,0.017,0.433,0.051C78.962,53.61,79.105,53.662,79.251,53.732L79.251,53.732z M84.198,55.278
		c0,0.24-0.044,0.465-0.133,0.674c-0.087,0.21-0.216,0.398-0.385,0.564c-0.17,0.164-0.365,0.291-0.584,0.38
		c-0.218,0.088-0.445,0.133-0.681,0.133c-0.239,0-0.468-0.045-0.686-0.133c-0.218-0.089-0.409-0.216-0.575-0.38
		c-0.173-0.166-0.303-0.354-0.392-0.566c-0.089-0.211-0.134-0.435-0.134-0.672c0-0.239,0.045-0.463,0.134-0.674
		c0.089-0.21,0.219-0.398,0.392-0.563c0.166-0.165,0.357-0.291,0.575-0.38s0.446-0.133,0.686-0.133c0.236,0,0.465,0.043,0.684,0.133
		c0.222,0.089,0.414,0.215,0.581,0.38c0.168,0.164,0.295,0.351,0.384,0.562C84.154,54.814,84.198,55.039,84.198,55.278
		L84.198,55.278z M82.416,56.259c0.252,0,0.461-0.094,0.624-0.278c0.166-0.187,0.248-0.421,0.248-0.703
		c0-0.279-0.083-0.513-0.251-0.7c-0.166-0.187-0.375-0.28-0.621-0.28c-0.253,0-0.461,0.094-0.626,0.279
		c-0.166,0.186-0.248,0.42-0.248,0.701c0,0.285,0.081,0.52,0.244,0.705C81.948,56.167,82.159,56.259,82.416,56.259z"/>
	<path fill-rule="evenodd" clip-rule="evenodd" fill="#8C8C8C" d="M23.632,22.462h79.989v0.498H23.632V22.462L23.632,22.462z
		 M23.632,47.676h79.989v0.498H23.632V47.676z"/>
	<path fill="#363837" d="M23.458,42.759h3.699c1.169-0.003,2.042-0.318,2.622-0.946c0.578-0.627,0.865-1.538,0.865-2.732v-7.526
		c0-1.195-0.287-2.105-0.865-2.732c-0.581-0.627-1.453-0.942-2.622-0.946h-3.699V42.759L23.458,42.759z M27.115,30.002
		c0.249-0.003,0.46,0.043,0.642,0.139c0.177,0.096,0.311,0.249,0.408,0.46c0.092,0.213,0.142,0.492,0.142,0.848v7.739
		c0,0.354-0.049,0.634-0.142,0.846c-0.097,0.214-0.231,0.365-0.408,0.462c-0.181,0.095-0.393,0.142-0.642,0.138h-1.318V30.002
		H27.115L27.115,30.002z M36.769,30.002h4.04v-2.125h-6.378v14.883h6.378v-2.126h-4.04v-4.359h3.211v-2.126h-3.211V30.002
		L36.769,30.002z M46.891,30.002h4.041v-2.125h-6.378v14.883h6.378v-2.126h-4.041v-4.359h3.211v-2.126h-3.211V30.002L46.891,30.002z
		 M61.946,42.759c-0.113-0.272-0.184-0.553-0.216-0.839c-0.028-0.287-0.042-0.609-0.039-0.967v-2.297
		c0.003-0.517-0.046-0.985-0.142-1.403c-0.1-0.415-0.263-0.773-0.49-1.071c-0.227-0.297-0.535-0.531-0.921-0.694
		c0.521-0.244,0.904-0.617,1.156-1.12c0.251-0.5,0.375-1.134,0.375-1.9V31.3c0.004-0.766-0.117-1.403-0.361-1.91
		c-0.241-0.507-0.617-0.886-1.127-1.138c-0.514-0.252-1.173-0.375-1.978-0.375h-3.529v14.883h2.339V36.7h0.808
		c0.354-0.004,0.645,0.06,0.868,0.185c0.227,0.124,0.393,0.326,0.503,0.602c0.106,0.28,0.16,0.649,0.16,1.105v2.339
		c0,0.301,0.007,0.549,0.014,0.744c0.011,0.195,0.025,0.354,0.046,0.482c0.018,0.125,0.039,0.234,0.067,0.326
		c0.025,0.092,0.054,0.185,0.086,0.276H61.946L61.946,42.759z M58.141,30.002c0.411-0.003,0.716,0.121,0.907,0.365
		c0.191,0.249,0.287,0.639,0.284,1.166V33c0,0.393-0.057,0.706-0.17,0.936c-0.113,0.23-0.272,0.397-0.482,0.497
		c-0.209,0.095-0.46,0.145-0.751,0.141h-0.914v-4.572H58.141L58.141,30.002z M72.791,42.759c-0.113-0.272-0.184-0.553-0.216-0.839
		c-0.028-0.287-0.043-0.609-0.039-0.967v-2.297c0.003-0.517-0.046-0.985-0.142-1.403c-0.1-0.415-0.262-0.773-0.488-1.071
		c-0.228-0.297-0.536-0.531-0.923-0.694c0.521-0.244,0.904-0.617,1.155-1.12c0.252-0.5,0.376-1.134,0.376-1.9V31.3
		c0.004-0.766-0.117-1.403-0.361-1.91c-0.24-0.507-0.617-0.886-1.127-1.138c-0.514-0.252-1.172-0.375-1.978-0.375H65.52v14.883
		h2.339V36.7h0.808c0.355-0.004,0.646,0.06,0.869,0.185c0.227,0.124,0.394,0.326,0.503,0.602c0.106,0.28,0.16,0.649,0.16,1.105
		v2.339c0,0.301,0.006,0.549,0.014,0.744c0.011,0.195,0.025,0.354,0.046,0.482c0.018,0.125,0.039,0.234,0.067,0.326
		c0.024,0.092,0.054,0.185,0.084,0.276H72.791L72.791,42.759z M68.985,30.002c0.411-0.003,0.716,0.121,0.907,0.365
		c0.191,0.249,0.287,0.639,0.283,1.166V33c0,0.393-0.056,0.706-0.17,0.936c-0.113,0.23-0.272,0.397-0.481,0.497
		c-0.21,0.095-0.462,0.145-0.751,0.141h-0.915v-4.572H68.985L68.985,30.002z M78.703,30.002h4.04v-2.125h-6.378v14.883h6.378v-2.126
		h-4.04v-4.359h3.211v-2.126h-3.211V30.002L78.703,30.002z M88.825,30.002h4.041v-2.125h-6.379v14.883h6.379v-2.126h-4.041v-4.359
		h3.212v-2.126h-3.212V30.002L88.825,30.002z M96.609,42.759h3.699c1.17-0.003,2.041-0.318,2.622-0.946
		c0.578-0.627,0.865-1.538,0.865-2.732v-7.526c0-1.195-0.287-2.105-0.865-2.732c-0.581-0.627-1.452-0.942-2.622-0.946h-3.699V42.759
		L96.609,42.759z M100.267,30.002c0.248-0.003,0.461,0.043,0.642,0.139c0.178,0.096,0.312,0.249,0.407,0.46
		c0.093,0.213,0.142,0.492,0.142,0.848v7.739c0,0.354-0.049,0.634-0.142,0.846c-0.096,0.214-0.229,0.365-0.407,0.462
		c-0.181,0.095-0.394,0.142-0.642,0.138h-1.318V30.002H100.267z"/>
	<path fill-rule="evenodd" clip-rule="evenodd" fill="#8C8C8C" d="M86.288,55.197l0.822-0.267l6.665,0.263
		c0.045,0.002,0.08,0.038,0.08,0.082c0.001,0.046-0.034,0.083-0.08,0.085l-6.665,0.263l-0.822-0.267
		c-0.035-0.011-0.058-0.043-0.058-0.08S86.253,55.208,86.288,55.197L86.288,55.197z M40.965,55.197l-0.822-0.267l-6.666,0.263
		c-0.044,0.002-0.079,0.038-0.081,0.082c-0.001,0.046,0.036,0.083,0.081,0.085l6.666,0.263l0.822-0.267
		c0.035-0.011,0.058-0.043,0.058-0.08S41,55.208,40.965,55.197z"/>
	<path fill="#363837" d="M69.059,11.9c-0.03-0.094-0.117-0.157-0.216-0.157l0,0l-3.825,0.007l-1.176-3.64
		c-0.029-0.094-0.118-0.157-0.215-0.157c-0.099,0-0.186,0.063-0.216,0.157l-1.175,3.64l-3.826-0.007l0,0
		c-0.098,0-0.185,0.063-0.216,0.157c-0.031,0.093,0.003,0.196,0.083,0.253l3.1,2.244l-1.189,3.636
		c-0.03,0.093,0.003,0.194,0.083,0.253c0.08,0.058,0.188,0.058,0.267,0l3.091-2.255l3.09,2.255c0.04,0.029,0.086,0.043,0.134,0.043
		c0.046,0,0.093-0.014,0.134-0.043c0.079-0.059,0.112-0.161,0.081-0.253l-1.188-3.636l3.099-2.244
		C69.055,12.096,69.089,11.993,69.059,11.9L69.059,11.9z M82.45,14.641c-0.017-0.054-0.067-0.091-0.124-0.091l0,0l-2.194,0.004
		l-0.674-2.088c-0.017-0.054-0.067-0.091-0.124-0.091s-0.106,0.037-0.124,0.091l-0.674,2.088l-2.195-0.004H76.34
		c-0.055,0-0.105,0.037-0.123,0.091c-0.018,0.053,0.001,0.112,0.048,0.145l1.778,1.287l-0.683,2.085
		c-0.018,0.054,0.002,0.112,0.047,0.146c0.047,0.033,0.108,0.033,0.153,0l1.773-1.293l1.772,1.293
		c0.023,0.016,0.05,0.025,0.078,0.025c0.026,0,0.053-0.009,0.076-0.025c0.045-0.034,0.064-0.092,0.047-0.146l-0.683-2.085
		l1.777-1.287C82.449,14.753,82.469,14.693,82.45,14.641L82.45,14.641z M51.036,14.641c-0.017-0.054-0.067-0.091-0.125-0.091l0,0
		l-2.195,0.004l-0.674-2.088c-0.017-0.054-0.067-0.091-0.123-0.091c-0.057,0-0.107,0.037-0.124,0.091l-0.674,2.088l-2.195-0.004l0,0
		c-0.056,0-0.107,0.037-0.123,0.091c-0.018,0.053,0.001,0.112,0.047,0.145l1.778,1.287l-0.683,2.085
		c-0.016,0.054,0.001,0.112,0.048,0.146c0.046,0.033,0.107,0.033,0.152,0l1.774-1.293l1.773,1.293
		c0.022,0.016,0.05,0.025,0.077,0.025c0.026,0,0.053-0.009,0.077-0.025c0.046-0.034,0.064-0.092,0.047-0.146l-0.683-2.085
		l1.779-1.287C51.034,14.753,51.054,14.693,51.036,14.641z"/>
</g>
</svg>
