<?xml version="1.0" encoding="utf-8"?>
<!-- Generator: Adobe Illustrator 16.0.0, SVG Export Plug-In . SVG Version: 6.00 Build 0)  -->
<!DOCTYPE svg PUBLIC "-//W3C//DTD SVG 1.1//EN" "http://www.w3.org/Graphics/SVG/1.1/DTD/svg11.dtd">
<svg version="1.1" id="Layer_1" xmlns="http://www.w3.org/2000/svg" xmlns:xlink="http://www.w3.org/1999/xlink" x="0px" y="0px"
	 width="125.919px" height="78.336px" viewBox="0 0 125.919 78.336" enable-background="new 0 0 125.919 78.336"
	 xml:space="preserve">
<g>
	<path fill-rule="evenodd" clip-rule="evenodd" fill="#373737" d="M61.655,22.678c-3.95,0.066-7.719,0.418-11.162,0.968v-4.558
		c1.737-0.527,3.019-2.267,3.019-5.265c0-3.662-1.898-7.85-4.231-7.85c-2.335,0-4.209,4.188-4.209,7.85
		c0,2.998,1.257,4.737,3.019,5.265v4.982l-0.064,0.013c-4.439,0.862-8.216,2.045-11.073,3.215c17.036-3.98,34.983-4.009,52.014,0
		c-2.854-1.178-6.625-2.364-11.063-3.224l-0.074-0.014v-4.973c1.762-0.527,3.021-2.267,3.021-5.265c0-3.662-1.877-7.85-4.209-7.85
		c-2.334,0-4.232,4.188-4.232,7.85c0,2.998,1.28,4.737,3.02,5.265v4.549c-3.441-0.547-7.211-0.894-11.163-0.96v-8.235l0,0h0.662
		c1.443,0,2.632-1.167,2.632-2.632V7.873V0.641C67.558,0.297,67.26,0,66.894,0s-0.64,0.297-0.64,0.641V9.2
		c0,0.344-0.298,0.642-0.663,0.642c-0.366,0-0.665-0.298-0.665-0.642v-8.56C64.926,0.297,64.629,0,64.264,0
		c-0.343,0-0.641,0.297-0.641,0.641V9.2c0,0.344-0.298,0.642-0.663,0.642c-0.366,0-0.665-0.298-0.665-0.642v-8.56
		c0-0.344-0.297-0.641-0.64-0.641c-0.366,0-0.663,0.297-0.663,0.641V9.2c0,0.344-0.297,0.642-0.664,0.642
		c-0.365,0-0.662-0.298-0.662-0.642v-8.56C59.666,0.297,59.391,0,59.025,0c-0.366,0-0.664,0.297-0.664,0.641v7.232v3.937
		c0,1.465,1.19,2.632,2.631,2.632h0.663V22.678z"/>
	<path fill-rule="evenodd" clip-rule="evenodd" fill="#373737" d="M125.182,49.481c-2.379,1.717-4.735,3.479-7.023,5.31
		c-0.297,0.252-0.502,0.55-0.617,0.938c-0.801,2.792-1.67,5.585-2.608,8.309c-0.205,0.595-0.594,1.007-1.144,1.235
		c-0.549,0.206-1.074,0.16-1.532-0.137c-7.206-4.897-15.166-8.72-23.494-11.262c-8.326-2.563-17.064-3.845-25.803-3.845
		c-8.739,0-17.455,1.281-25.805,3.845c-8.326,2.564-16.287,6.364-23.517,11.262c-0.457,0.32-0.982,0.366-1.531,0.137
		c-0.55-0.206-0.938-0.641-1.145-1.212c-0.938-2.747-1.784-5.54-2.584-8.332c-0.115-0.389-0.321-0.687-0.642-0.938
		c-2.265-1.831-4.62-3.593-7-5.31c-0.503-0.343-0.777-0.893-0.732-1.533c0.046-0.617,0.366-1.167,0.939-1.556
		c9.081-6.157,19.077-10.964,29.577-14.168c10.5-3.227,21.481-4.853,32.438-4.853c10.935,0,21.938,1.626,32.415,4.83
		c10.522,3.227,20.519,8.033,29.602,14.19c0.571,0.389,0.891,0.938,0.938,1.579C125.959,48.612,125.685,49.139,125.182,49.481z"/>
	<path fill="#FFFFFF" d="M14.371,46.048l0.572,1.076l0.525,1.029l0.549,0.985l0.573,1.098l0.914-0.48
		c0.32-0.16,0.55-0.343,0.687-0.548c0.16-0.23,0.206-0.481,0.183-0.733c-0.022-0.252-0.091-0.55-0.251-0.869l-0.663-1.327
		c-0.137-0.298-0.32-0.55-0.526-0.71c-0.184-0.184-0.412-0.275-0.687-0.275c-0.252-0.022-0.549,0.069-0.893,0.229L14.371,46.048
		L14.371,46.048z M18.924,51.336L18.924,51.336c-0.229-0.229-0.412-0.366-0.618-0.458c-0.16-0.091-0.365-0.114-0.548-0.091
		c-0.206,0.045-0.435,0.137-0.711,0.273l0.391,0.778l0.457,0.848l0.457,0.869l0.412,0.778l0.847,0.114l0.205,0.412l-0.846,0.457
		l-0.869,0.481l-0.847,0.457l-0.229-0.412l0.365-0.754l-2.287-4.188l-2.288-4.144l-0.754-0.069l-0.229-0.41
		c1.007-0.573,2.036-1.122,3.043-1.648c0.435-0.206,0.823-0.367,1.235-0.459c0.411-0.091,0.777-0.114,1.144-0.068
		s0.687,0.183,0.983,0.413c0.319,0.251,0.572,0.571,0.778,1.006l0.64,1.351c0.206,0.412,0.298,0.802,0.298,1.168
		s-0.092,0.709-0.252,0.984c-0.16,0.32-0.366,0.571-0.641,0.801c0.184,0,0.343,0.022,0.48,0.068
		c0.139,0.046,0.274,0.092,0.389,0.184c0.114,0.067,0.229,0.184,0.367,0.32l1.577,1.557c0.069,0.067,0.161,0.158,0.275,0.251
		c0.091,0.092,0.206,0.16,0.319,0.206c0.092,0.069,0.207,0.114,0.32,0.114c0.114,0,0.207-0.022,0.32-0.114l0.253,0.572
		c-0.046,0.091-0.161,0.183-0.253,0.274c-0.092,0.068-0.206,0.138-0.32,0.229c-0.113,0.047-0.229,0.114-0.32,0.16
		c-0.229,0.092-0.412,0.138-0.57,0.138c-0.161,0-0.344-0.068-0.481-0.16c-0.137-0.091-0.274-0.205-0.435-0.343
		c-0.138-0.138-0.274-0.298-0.457-0.459L18.924,51.336L18.924,51.336z M31.848,49.642l-0.822-2.38l-0.664,0.229l0.046,1.626
		l-1.235,0.457l-1.235,0.48l-0.023-0.068c0.115-0.092,0.161-0.184,0.184-0.275c0.023-0.092,0-0.183-0.046-0.32l-0.663-1.648
		l-0.64-1.67l1.417-0.55l0.687,0.642l0.457-0.16l-0.297-0.824l-0.343-0.916l-0.297-0.823l-0.459,0.183l-0.091,0.984l-1.441,0.55
		l-0.778-1.991l-0.8-1.991l2.149-0.824l0.984,1.351l0.801-0.298l-0.847-2.403l-1.922,0.71l-1.876,0.732l-1.875,0.756l0.16,0.411
		l0.755,0.138l1.83,4.394l1.83,4.44l-0.457,0.71l0.183,0.435c0.893-0.389,1.761-0.732,2.653-1.075
		C30.064,50.306,30.957,49.963,31.848,49.642L31.848,49.642L31.848,49.642z M36.446,45.773L36.446,45.773
		c0.138,0.458,0.344,0.778,0.595,0.939c0.229,0.159,0.526,0.183,0.847,0.092c0.275-0.069,0.458-0.184,0.595-0.345
		c0.138-0.159,0.229-0.343,0.251-0.572c0.047-0.229,0-0.457-0.068-0.731l-0.343-1.328c-0.069-0.274-0.206-0.503-0.389-0.663
		c-0.206-0.161-0.435-0.252-0.687-0.321c-0.274-0.091-0.572-0.114-0.869-0.137l-0.938-0.115c-0.32-0.045-0.617-0.114-0.892-0.205
		c-0.274-0.092-0.526-0.274-0.755-0.479c-0.229-0.23-0.389-0.505-0.525-0.894l-0.39-1.328c-0.114-0.389-0.16-0.755-0.092-1.075
		c0.046-0.343,0.184-0.641,0.367-0.869c0.182-0.252,0.411-0.459,0.708-0.641c0.298-0.161,0.595-0.298,0.938-0.391
		c0.207-0.068,0.436-0.091,0.664-0.137c0.229,0,0.48,0,0.687,0.046c0.229,0.046,0.479,0.16,0.708,0.298l0.069-0.023l-0.022-0.641
		l1.121-0.274l0.366,1.487l0.365,1.488l-1.67,0.411l-0.205-0.801c-0.092-0.389-0.275-0.663-0.55-0.823
		c-0.252-0.139-0.572-0.184-0.984-0.069c-0.388,0.113-0.64,0.298-0.754,0.572c-0.138,0.252-0.16,0.594-0.046,0.961l0.366,1.328
		c0.092,0.252,0.229,0.457,0.434,0.595c0.184,0.113,0.412,0.229,0.688,0.274c0.273,0.046,0.549,0.092,0.869,0.092
		c0.319,0.045,0.616,0.068,0.938,0.114c0.321,0.068,0.618,0.159,0.915,0.273c0.252,0.116,0.526,0.299,0.732,0.552
		c0.205,0.228,0.367,0.57,0.457,0.982l0.32,1.351c0.114,0.436,0.114,0.824,0.046,1.167c-0.069,0.345-0.229,0.641-0.436,0.894
		c-0.228,0.252-0.48,0.479-0.777,0.641c-0.319,0.183-0.64,0.32-0.983,0.412c-0.365,0.092-0.709,0.16-1.052,0.137
		c-0.344,0-0.664-0.068-0.961-0.184c-0.297-0.137-0.572-0.319-0.801-0.571s-0.412-0.596-0.525-1.007l-0.275-0.848l1.716-0.503
		L36.446,45.773L36.446,45.773z M46.604,35.314L46.604,35.314l1.44,9.155l0.756,0.389l0.067,0.549l-0.938,0.161l-1.028,0.16
		l-0.938,0.159l-0.092-0.525l0.595-0.618l-1.624-9.155l-1.234,0.229l-0.184,1.946l-0.777,0.138l-0.504-2.839
		c2.264-0.457,4.553-0.823,6.841-1.144l0.456,2.86l-0.777,0.114l-0.847-1.762L46.604,35.314L46.604,35.314z M54.771,40.715
		L54.771,40.715c0.822-0.067,1.646-0.137,2.492-0.182c-0.526-1.786-1.052-3.571-1.623-5.333h-0.022
		C55.319,37.031,55.021,38.863,54.771,40.715L54.771,40.715z M54.335,43.966L54.335,43.966l0.572,0.229l0.046,0.503l-2.082,0.207
		l-0.068-0.503l0.526-0.366l0.343-2.655l0.389-2.747l0.412-2.746l0.457-2.632l1.762-0.115c1.121,3.456,2.15,6.913,3.111,10.414
		l0.549,0.343v0.505c-0.893,0.022-1.808,0.045-2.699,0.114l-0.023-0.436l0.527-0.389l-0.641-2.243
		c-0.962,0.046-1.923,0.114-2.883,0.206L54.335,43.966L54.335,43.966z M66.985,43.439L66.985,43.439
		c0.366,0.045,0.663-0.023,0.893-0.138c0.229-0.137,0.389-0.319,0.526-0.595c0.137-0.273,0.206-0.641,0.229-1.099l0.434-7.507
		l-0.617-0.457l0.023-0.505c0.847,0.046,1.67,0.092,2.517,0.16l-0.047,0.505l-0.663,0.366l-0.525,7.552
		c-0.047,0.527-0.16,1.007-0.32,1.373c-0.184,0.366-0.389,0.665-0.664,0.893c-0.274,0.229-0.571,0.39-0.938,0.481
		c-0.343,0.092-0.731,0.137-1.121,0.113c-0.39,0-0.755-0.067-1.098-0.229c-0.344-0.114-0.641-0.319-0.893-0.549
		c-0.274-0.252-0.48-0.571-0.617-0.962c-0.139-0.389-0.229-0.822-0.229-1.35l0.069-7.529l-0.732-0.504v-0.458
		c1.099,0,2.197,0.023,3.294,0.046l-0.022,0.481l-0.755,0.457l-0.183,7.529c-0.023,0.458,0.021,0.801,0.137,1.099
		c0.114,0.274,0.298,0.48,0.503,0.619C66.413,43.37,66.666,43.439,66.985,43.439L66.985,43.439z M77.417,34.994L77.417,34.994
		l-0.183,1.235l-0.137,1.122l-0.161,1.121l-0.183,1.236l1.029,0.138c0.366,0.067,0.641,0.045,0.892-0.047
		c0.252-0.091,0.436-0.251,0.572-0.479c0.137-0.229,0.251-0.504,0.298-0.848l0.251-1.464c0.046-0.32,0.046-0.618-0.022-0.894
		c-0.046-0.251-0.184-0.457-0.39-0.617c-0.205-0.184-0.503-0.274-0.868-0.344L77.417,34.994L77.417,34.994z M78.035,41.951
		L78.035,41.951c-0.068-0.297-0.138-0.525-0.252-0.71c-0.092-0.182-0.229-0.319-0.412-0.41c-0.16-0.092-0.412-0.138-0.709-0.184
		l-0.114,0.847l-0.138,0.983l-0.137,0.962l-0.114,0.87l0.571,0.571l-0.068,0.481l-0.915-0.138l-1.006-0.138l-0.938-0.114
		l0.067-0.457l0.709-0.413l0.572-4.715l0.595-4.715l-0.595-0.502l0.068-0.458c1.145,0.114,2.288,0.274,3.432,0.458
		c0.458,0.068,0.893,0.16,1.258,0.319c0.39,0.16,0.709,0.367,0.984,0.618c0.274,0.274,0.458,0.572,0.549,0.916
		c0.114,0.389,0.137,0.801,0.046,1.281l-0.275,1.466c-0.092,0.457-0.229,0.823-0.435,1.12c-0.229,0.298-0.479,0.526-0.777,0.665
		c-0.32,0.158-0.641,0.229-0.983,0.25c0.137,0.115,0.251,0.229,0.343,0.344c0.092,0.115,0.16,0.252,0.207,0.366
		c0.044,0.138,0.091,0.298,0.113,0.481l0.366,2.173c0.022,0.114,0.045,0.253,0.068,0.391c0.022,0.113,0.092,0.251,0.137,0.343
		c0.069,0.114,0.139,0.229,0.206,0.274c0.092,0.068,0.206,0.114,0.32,0.114l-0.114,0.618c-0.114,0.022-0.251,0.046-0.365,0.069
		c-0.138,0-0.275-0.023-0.39-0.023c-0.137,0-0.274-0.023-0.365-0.046c-0.252-0.046-0.435-0.114-0.573-0.229
		c-0.114-0.092-0.205-0.229-0.273-0.39c-0.046-0.16-0.115-0.343-0.138-0.526l-0.114-0.641L78.035,41.951L78.035,41.951z
		 M86.521,43.234L86.521,43.234c0.823,0.205,1.624,0.41,2.425,0.617c0.068-1.854,0.138-3.707,0.183-5.562l-0.022-0.022
		C88.215,39.914,87.368,41.562,86.521,43.234L86.521,43.234z M85.08,46.163L85.08,46.163l0.458,0.411l-0.114,0.481l-2.036-0.458
		l0.091-0.503l0.618-0.184l1.19-2.403l1.234-2.472l1.258-2.449l1.281-2.357l1.716,0.436c-0.046,3.639-0.183,7.255-0.412,10.871
		l0.412,0.504l-0.138,0.48c-0.868-0.274-1.738-0.526-2.607-0.779l0.114-0.41l0.642-0.184l0.113-2.335
		c-0.938-0.251-1.875-0.503-2.791-0.732L85.08,46.163L85.08,46.163z M96.083,49.848L96.083,49.848l-0.16,0.458l-0.755-0.275
		l-0.755-0.251l-0.73-0.275l0.159-0.457l0.754-0.206l1.58-4.486l1.601-4.508l-0.48-0.596l0.16-0.457l0.526,0.183l0.435,0.16
		l0.435,0.16l0.525,0.183c0.229,0.093,0.39,0.16,0.527,0.252c0.092,0.068,0.184,0.16,0.205,0.275
		c0.023,0.114,0.023,0.274,0.023,0.503c-0.092,1.763-0.206,3.525-0.32,5.287l-0.526,3.204l0.022,0.023
		c0.115-0.252,0.206-0.526,0.321-0.848l0.343-0.893c0.091-0.297,0.206-0.571,0.32-0.824l1.967-4.852l-0.435-0.641l0.184-0.458
		c0.777,0.297,1.555,0.618,2.333,0.962l-0.205,0.457l-0.755,0.138l-2.037,4.806l-2.012,4.807l-1.213-0.503
		c-0.184-0.069-0.274-0.184-0.344-0.321c-0.069-0.137-0.092-0.274-0.069-0.435c0.344-3.113,0.618-6.249,0.779-9.406h-0.047
		l-0.365,1.578l-1.213,3.319l-1.235,3.318L96.083,49.848L96.083,49.848z M111.388,45.957L111.388,45.957l-4.347,8.216l0.389,0.756
		l-0.274,0.504l-0.847-0.458l-0.914-0.48l-0.847-0.412l0.251-0.504l0.824-0.137l4.187-8.285l-1.144-0.573l-1.305,1.442l-0.71-0.343
		l1.305-2.587c2.081,1.007,4.141,2.061,6.177,3.205l-1.35,2.54l-0.709-0.39l0.389-1.899L111.388,45.957z"/>
	<g>
		<g>
			<path fill="#545454" d="M43.774,59.611l-1.028,1.815l1.028,1.813h-0.747l-0.654-1.154l-0.652,1.154h-0.747L42,61.427
				l-1.026-1.815h0.746l0.653,1.155l0.654-1.155H43.774L43.774,59.611z M53.804,59.611h-0.652v3.629h0.652V59.611L53.804,59.611z
				 M51.979,59.611h-0.746l-0.653,1.155l-0.654-1.155H49.18l1.027,1.815L49.18,63.24h0.746l0.654-1.154l0.653,1.154h0.746
				l-1.026-1.813L51.979,59.611L51.979,59.611z M47.877,59.611H47.13l-0.653,1.155l-0.653-1.155h-0.747l1.027,1.815l-1.026,1.813
				h0.747l0.652-1.154l0.653,1.154h0.747l-1.027-1.813L47.877,59.611z"/>
			<path fill="#545454" d="M82.145,59.611l1.027,1.815l-1.027,1.813h0.747l0.653-1.154l0.653,1.154h0.747l-1.027-1.813l1.027-1.815
				h-0.747l-0.653,1.155l-0.653-1.155H82.145L82.145,59.611z M72.115,59.611h0.652v3.629h-0.652V59.611L72.115,59.611z
				 M73.939,59.611h0.746l0.653,1.155l0.653-1.155h0.747l-1.026,1.815l1.026,1.813h-0.747l-0.653-1.154l-0.653,1.154h-0.746
				l1.026-1.813L73.939,59.611L73.939,59.611z M78.042,59.611h0.746l0.654,1.155l0.653-1.155h0.747l-1.027,1.815l1.026,1.813h-0.746
				l-0.653-1.154l-0.654,1.154h-0.746l1.027-1.813L78.042,59.611z"/>
		</g>
		<path fill-rule="evenodd" clip-rule="evenodd" fill="#373737" d="M67.755,59.367c-0.027-0.082-0.104-0.137-0.19-0.137h-0.001
			l-3.377,0.005l-1.037-3.213c-0.026-0.083-0.104-0.14-0.189-0.14c-0.088,0-0.164,0.057-0.191,0.14l-1.036,3.213l-3.378-0.005
			h-0.001c-0.086,0-0.163,0.055-0.189,0.137c-0.027,0.083,0.002,0.174,0.072,0.225l2.736,1.979l-1.05,3.21
			c-0.027,0.082,0.002,0.172,0.072,0.225c0.07,0.05,0.166,0.05,0.236-0.001l2.729-1.99l2.728,1.99
			c0.035,0.025,0.076,0.038,0.118,0.038c0.041,0,0.082-0.013,0.117-0.037c0.071-0.053,0.101-0.143,0.073-0.225l-1.051-3.21
			l2.736-1.979C67.752,59.541,67.781,59.45,67.755,59.367z"/>
	</g>
	<path fill="#373737" d="M32.464,66.827l0.149,0.088l-1.239,2.131c-0.084,0.143-0.152,0.217-0.206,0.224
		c-0.054,0.005-0.14-0.027-0.259-0.096l-0.275-0.162l-0.29,0.488c0.781,0.461,1.567,0.911,2.366,1.339l0.271-0.501l-0.303-0.161
		c-0.129-0.068-0.201-0.131-0.219-0.185s0.01-0.147,0.085-0.281l1.192-2.158l0.148,0.083c0.19,0.103,0.301,0.246,0.331,0.433
		c0.031,0.187-0.02,0.404-0.153,0.652l-0.007,0.015l0.513,0.272l0.701-1.344c-1.203-0.629-2.384-1.299-3.542-2.008l-0.793,1.291
		l0.501,0.307l0.009-0.016c0.146-0.243,0.307-0.396,0.481-0.468C32.101,66.701,32.28,66.72,32.464,66.827L32.464,66.827z
		 M37.257,72.058L37.257,72.058c-0.062,0.142-0.121,0.222-0.174,0.239c-0.052,0.017-0.144-0.003-0.274-0.062l-0.187-0.085
		l-0.236,0.516c0.755,0.345,1.516,0.673,2.282,0.989l0.215-0.526l-0.214-0.088c-0.13-0.057-0.207-0.108-0.229-0.157
		c-0.023-0.05-0.005-0.148,0.055-0.29l0.349-0.827l0.331,0.139c0.206,0.089,0.329,0.176,0.368,0.271
		c0.038,0.092,0.009,0.264-0.092,0.513l-0.125,0.31c-0.124,0.308-0.134,0.562-0.031,0.767c0.103,0.203,0.328,0.38,0.68,0.511
		c0.332,0.125,0.601,0.137,0.807,0.033c0.206-0.101,0.374-0.328,0.501-0.68l0.024-0.074l0.025-0.077l-0.386-0.145l-0.021,0.066
		l-0.021,0.064c-0.048,0.128-0.095,0.222-0.146,0.274c-0.049,0.055-0.1,0.072-0.151,0.053c-0.054-0.02-0.082-0.062-0.087-0.12
		c-0.004-0.062,0.021-0.159,0.071-0.295c0.168-0.443,0.23-0.746,0.188-0.904c-0.042-0.159-0.186-0.298-0.427-0.431
		c0.271,0.049,0.507,0.021,0.697-0.071c0.191-0.09,0.325-0.242,0.405-0.453c0.117-0.313,0.095-0.589-0.064-0.825
		c-0.159-0.233-0.454-0.443-0.893-0.617c-0.824-0.33-1.638-0.684-2.447-1.051l-0.235,0.516l0.178,0.082
		c0.127,0.057,0.2,0.107,0.22,0.156c0.02,0.048-0.001,0.142-0.064,0.284L37.257,72.058L37.257,72.058z M39.042,71.263L39.042,71.263
		l0.41-0.979l0.354,0.148c0.21,0.089,0.342,0.184,0.395,0.294c0.054,0.109,0.043,0.258-0.031,0.444
		c-0.069,0.171-0.163,0.274-0.285,0.312c-0.121,0.036-0.299,0.011-0.523-0.086L39.042,71.263L39.042,71.263z M46.547,74.358
		L46.547,74.358l-0.682-0.187l0.652-1.077L46.547,74.358L46.547,74.358z M45.91,76.115L45.91,76.115
		c0.806,0.221,1.617,0.427,2.433,0.611l0.127-0.554l-0.21-0.048c-0.115-0.025-0.194-0.065-0.237-0.118
		c-0.044-0.053-0.072-0.186-0.089-0.392c-0.074-1.055-0.13-2.104-0.173-3.15l-1.35-0.365c-0.602,0.875-1.22,1.747-1.853,2.61
		c-0.091,0.124-0.18,0.206-0.266,0.247c-0.087,0.04-0.18,0.045-0.277,0.014l-0.146-0.045L43.7,75.467l1.771,0.529l0.153-0.546
		l-0.194-0.058c-0.088-0.025-0.152-0.054-0.196-0.087c-0.042-0.032-0.059-0.066-0.048-0.1c0.007-0.026,0.02-0.054,0.037-0.083
		c0.016-0.03,0.043-0.069,0.08-0.12l0.228-0.331l1.051,0.29l0.03,0.452l-0.002,0.085c-0.003,0.029-0.009,0.059-0.017,0.088
		c-0.012,0.047-0.036,0.071-0.075,0.078c-0.037,0.008-0.13-0.009-0.28-0.05l-0.178-0.048L45.91,76.115L45.91,76.115z M53.985,73.715
		L53.985,73.715c-0.694-0.099-1.386-0.216-2.076-0.339l-0.101,0.556l0.187,0.036c0.137,0.023,0.22,0.055,0.251,0.097
		c0.032,0.042,0.035,0.141,0.008,0.292l-0.372,2.155l-0.007,0.028c-0.024,0.146-0.061,0.23-0.107,0.253
		c-0.049,0.023-0.138,0.024-0.271,0.002l-0.201-0.038l-0.103,0.559c0.737,0.132,1.476,0.257,2.217,0.362
		c0.817,0.119,1.448,0.028,1.88-0.253c0.434-0.283,0.681-0.763,0.753-1.437c0.07-0.674-0.068-1.194-0.404-1.561
		C55.3,74.057,54.751,73.826,53.985,73.715L53.985,73.715z M53.176,77.051L53.176,77.051l0.423-2.81l0.304,0.045
		c0.279,0.042,0.465,0.179,0.559,0.409c0.095,0.233,0.108,0.603,0.042,1.11c-0.066,0.505-0.178,0.858-0.333,1.058
		c-0.157,0.202-0.383,0.279-0.677,0.233L53.176,77.051L53.176,77.051z M63.47,74.322L63.47,74.322
		c-1.354,0.025-2.71-0.002-4.062-0.074l-0.03,0.564l0.191,0.01c0.138,0.007,0.225,0.029,0.261,0.066
		c0.036,0.038,0.051,0.135,0.044,0.289l-0.095,2.185l-0.002,0.029c-0.006,0.147-0.032,0.236-0.075,0.265
		c-0.044,0.029-0.133,0.041-0.269,0.033l-0.204-0.01l-0.03,0.567c1.451,0.076,2.904,0.106,4.357,0.079l-0.026-1.651l-0.661,0.007
		c-0.012,0.208-0.035,0.381-0.069,0.518c-0.037,0.137-0.086,0.254-0.15,0.351c-0.057,0.079-0.139,0.137-0.245,0.167
		c-0.105,0.032-0.299,0.048-0.579,0.045L61.1,77.751l0.028-1.247l0.16,0.006c0.186,0.002,0.311,0.045,0.374,0.129
		c0.065,0.084,0.1,0.266,0.104,0.545l0.508,0.006l0.008-1.828l-0.493-0.005v0.035c-0.003,0.224-0.042,0.379-0.114,0.466
		c-0.073,0.086-0.201,0.129-0.381,0.126l-0.153-0.004l0.024-1.099l0.502,0.009l0.116,0.001c0.236,0.002,0.409,0.02,0.515,0.053
		c0.106,0.033,0.196,0.089,0.271,0.164c0.064,0.064,0.119,0.151,0.164,0.26c0.046,0.108,0.088,0.261,0.131,0.453l0.63-0.005
		L63.47,74.322L63.47,74.322z M72.513,73.487L72.513,73.487c-0.733,0.128-1.472,0.237-2.212,0.334l-0.421,2.462l-0.938-2.298
		c-0.718,0.081-1.438,0.143-2.159,0.192l0.04,0.565l0.179-0.013c0.139-0.01,0.227,0.002,0.269,0.035
		c0.04,0.033,0.067,0.127,0.079,0.282l0.175,2.178c0.012,0.156,0,0.252-0.039,0.293c-0.037,0.039-0.128,0.065-0.271,0.074
		l-0.188,0.014l0.041,0.566c0.616-0.038,1.231-0.102,1.847-0.157l-0.058-0.565l-0.15,0.017c-0.143,0.012-0.236,0.002-0.279-0.031
		c-0.045-0.033-0.074-0.127-0.088-0.282l-0.226-2.42c0.419,1.085,0.855,2.155,1.31,3.227l0.962-0.111
		c0.211-1.154,0.406-2.299,0.579-3.454l0.342,2.412c0.024,0.163,0.017,0.264-0.022,0.304c-0.039,0.036-0.125,0.067-0.262,0.083
		l-0.15,0.02l0.075,0.562c0.748-0.102,1.495-0.211,2.24-0.34l-0.096-0.56l-0.2,0.033c-0.137,0.022-0.229,0.02-0.275-0.005
		c-0.046-0.027-0.082-0.121-0.108-0.28l-0.349-2.157c-0.025-0.158-0.021-0.258,0.011-0.297c0.033-0.039,0.116-0.07,0.249-0.094
		l0.191-0.031L72.513,73.487L72.513,73.487z M78.047,74.484L78.047,74.484l-0.685,0.173l0.031-1.258L78.047,74.484L78.047,74.484z
		 M78.368,76.325L78.368,76.325c0.81-0.212,1.614-0.438,2.415-0.677l-0.164-0.545l-0.205,0.062
		c-0.115,0.032-0.204,0.038-0.268,0.013s-0.154-0.124-0.272-0.296c-0.585-0.877-1.155-1.754-1.715-2.647
		c-0.449,0.124-0.9,0.245-1.354,0.354c-0.084,1.063-0.188,2.126-0.309,3.186c-0.017,0.153-0.053,0.27-0.107,0.348
		c-0.056,0.079-0.132,0.129-0.233,0.153l-0.147,0.033l0.121,0.554c0.601-0.137,1.202-0.271,1.799-0.426l-0.14-0.551l-0.196,0.05
		c-0.089,0.022-0.16,0.028-0.212,0.022c-0.054-0.007-0.084-0.027-0.092-0.061c-0.007-0.027-0.009-0.058-0.009-0.091
		c-0.001-0.035,0.002-0.082,0.009-0.145l0.032-0.401l1.057-0.27l0.251,0.376l0.04,0.075c0.013,0.025,0.022,0.054,0.03,0.084
		c0.012,0.046,0.003,0.079-0.025,0.105c-0.03,0.024-0.118,0.057-0.269,0.098l-0.179,0.048L78.368,76.325L78.368,76.325z
		 M83.752,73.697L83.752,73.697c0.054,0.146,0.067,0.243,0.041,0.291c-0.025,0.049-0.105,0.097-0.24,0.145l-0.194,0.069l0.189,0.535
		c0.783-0.274,1.559-0.567,2.327-0.877l-0.21-0.527l-0.216,0.086c-0.131,0.053-0.222,0.067-0.273,0.049
		c-0.051-0.02-0.105-0.102-0.161-0.246l-0.325-0.836l0.333-0.133c0.209-0.084,0.359-0.104,0.453-0.062
		c0.093,0.041,0.19,0.186,0.291,0.434l0.126,0.31c0.124,0.306,0.295,0.501,0.511,0.573c0.215,0.075,0.497,0.039,0.844-0.107
		c0.327-0.135,0.524-0.321,0.603-0.538c0.077-0.218,0.039-0.496-0.114-0.838l-0.034-0.071l-0.036-0.072l-0.376,0.168l0.031,0.062
		l0.03,0.06c0.055,0.127,0.085,0.227,0.087,0.3s-0.022,0.122-0.072,0.145c-0.053,0.022-0.103,0.014-0.146-0.026
		c-0.045-0.041-0.096-0.127-0.153-0.26c-0.188-0.437-0.353-0.697-0.495-0.782c-0.141-0.086-0.342-0.091-0.605-0.016
		c0.227-0.156,0.377-0.334,0.45-0.531c0.076-0.198,0.065-0.404-0.024-0.608c-0.133-0.308-0.339-0.486-0.619-0.55
		c-0.28-0.062-0.635,0.001-1.07,0.178c-0.823,0.331-1.652,0.653-2.49,0.945l0.189,0.534l0.185-0.065
		c0.131-0.047,0.219-0.059,0.268-0.038c0.048,0.021,0.099,0.104,0.151,0.25L83.752,73.697L83.752,73.697z M84.481,71.885
		L84.481,71.885l-0.385-0.988l0.355-0.142c0.214-0.086,0.375-0.105,0.49-0.063c0.114,0.042,0.211,0.157,0.286,0.344
		c0.07,0.171,0.073,0.31,0.011,0.42c-0.062,0.109-0.208,0.211-0.436,0.302L84.481,71.885L84.481,71.885z M89.197,67.964
		L89.197,67.964l0.256,0.504l0.175-0.089c0.123-0.063,0.209-0.087,0.26-0.072c0.05,0.015,0.111,0.09,0.184,0.229l1.007,1.939
		c0.072,0.139,0.099,0.232,0.079,0.283c-0.02,0.052-0.092,0.11-0.22,0.175l-0.183,0.094l0.257,0.508
		c0.701-0.356,1.395-0.726,2.081-1.107l-0.276-0.498L92.7,69.994c-0.12,0.068-0.206,0.096-0.26,0.081
		c-0.056-0.014-0.119-0.088-0.193-0.225l-0.16-0.293l0.304-0.702l0.954,0.482c0.023,0.012,0.046,0.025,0.065,0.042
		s0.035,0.037,0.048,0.062c0.021,0.033,0.015,0.069-0.015,0.105c-0.03,0.036-0.089,0.08-0.18,0.131l-0.168,0.095l0.278,0.495
		c0.743-0.417,1.477-0.854,2.201-1.3l-0.299-0.483l-0.213,0.131c-0.081,0.049-0.159,0.073-0.239,0.074
		c-0.078,0-0.17-0.024-0.276-0.074l-1.76-0.839l0.338-0.998c0.046-0.138,0.095-0.254,0.15-0.347c0.055-0.093,0.111-0.157,0.17-0.192
		l0.169-0.104l-0.296-0.482c-0.611,0.378-1.231,0.743-1.858,1.096l0.278,0.492l0.284-0.159c0.068-0.039,0.122-0.061,0.162-0.064
		c0.042-0.005,0.069,0.008,0.088,0.038c0.013,0.023,0.019,0.051,0.02,0.083c-0.001,0.032-0.008,0.067-0.021,0.107l-0.592,1.555
		l-0.476-0.869c-0.078-0.142-0.106-0.236-0.088-0.284c0.02-0.047,0.084-0.103,0.192-0.164l0.029-0.017l-0.274-0.495
		C90.447,67.313,89.825,67.646,89.197,67.964z"/>
	<path fill-rule="evenodd" clip-rule="evenodd" fill="#545454" d="M28.626,65.161c0.244,0.17,0.306,0.51,0.138,0.758
		c-0.168,0.249-0.508,0.311-0.757,0.138c-0.251-0.173-0.312-0.512-0.139-0.756C28.041,65.054,28.381,64.992,28.626,65.161
		L28.626,65.161z M98.167,65.301L98.167,65.301c0.175,0.244,0.112,0.583-0.138,0.756c-0.25,0.174-0.589,0.113-0.757-0.136
		c-0.169-0.25-0.107-0.589,0.138-0.758C97.654,64.994,97.994,65.055,98.167,65.301z"/>
</g>
</svg>
