<?xml version="1.0" encoding="utf-8"?>
<!-- Generator: Adobe Illustrator 16.0.0, SVG Export Plug-In . SVG Version: 6.00 Build 0)  -->
<!DOCTYPE svg PUBLIC "-//W3C//DTD SVG 1.1//EN" "http://www.w3.org/Graphics/SVG/1.1/DTD/svg11.dtd">
<svg version="1.1" id="Layer_1" xmlns="http://www.w3.org/2000/svg" xmlns:xlink="http://www.w3.org/1999/xlink" x="0px" y="0px"
	 width="127.253px" height="79.042px" viewBox="0 0 127.253 79.042" enable-background="new 0 0 127.253 79.042"
	 xml:space="preserve">
<g>
	<path fill="#363837" d="M9.591,41.646c-0.326,0.029-0.681,0.059-1.036,0.059H8.141l-1.539,7.223
		c-0.296,1.391-1.451,1.895-2.546,1.895c-0.681,0-1.243-0.148-1.569-0.385L6.66,31.995c0.296-1.362,1.421-1.834,2.457-1.834
		c0.533,0,1.036,0.147,1.391,0.383l-2.071,9.77c3.048-0.237,5.476-4.025,5.476-7.134c0-2.161-1.184-3.967-4.174-3.967
		c-4.973,0-6.66,2.605-6.66,4.825c0,0.77,0.236,1.303,0.591,1.717c-0.443,0.208-0.858,0.296-1.273,0.296
		C0.888,36.05,0,34.719,0,33.238c0-3.492,4.559-5.446,10.331-5.446c5.21,0,7.223,2.369,7.223,5.151c0,2.693-1.866,5.742-4.588,7.429
		c0.532,3.908,1.45,7.638,3.314,7.638c0.848,0,2.051-0.687,2.781-1.276c-0.06-0.377-0.092-0.78-0.092-1.211
		c0-3.848,2.545-10.005,7.43-10.005c2.693,0,3.374,1.51,3.374,2.841c0,2.516-1.332,4.53-7.045,7.697
		c0.296,1.599,1.391,2.19,2.753,2.19c1.199,0,2.585-0.478,3.796-1.197l0.02-0.136c0.207-1.213,1.066-2.278,2.516-2.278
		c0.474,0,0.857,0.117,1.185,0.415c-0.385,0.442-0.622,1.155-0.622,1.863c0,1.362,0.918,1.955,1.865,1.955
		c1.125,0,2.339-0.918,2.339-2.369c0-2.25-4.885-1.984-4.885-6.423c0-2.368,1.628-4.559,5.062-4.559c2.516,0,3.729,0.947,3.729,2.87
		c0,1.658-0.977,2.487-2.071,2.428c-0.385-0.029-0.8-0.148-1.185-0.415c0.296-0.355,0.504-1.006,0.504-1.598
		c0-1.095-0.622-1.598-1.333-1.598c-0.799,0-1.716,0.799-1.716,2.398c0,3.138,4.854,2.456,4.854,6.215
		c0,2.872-1.717,5.003-6.068,5.003c-2.068,0-3.354-0.821-3.906-1.943c-1.757,1.249-3.771,1.943-5.564,1.943
		c-2.041,0-3.796-0.892-4.585-2.804c-1.542,1.595-3.327,2.804-5,2.804C11.308,50.822,10.064,46.026,9.591,41.646L9.591,41.646z
		 M124.681,37.501l-1.747,8.318c-0.326,1.509,0.059,2.162,0.65,2.162c0.534,0,1.214-0.355,1.658-1.422
		c0.563,0,0.888,0.296,0.888,0.8c0,2.072-2.427,3.463-4.085,3.463c-1.129,0-2.602-0.499-2.909-2.3c-1.331,1.285-3.042,2.3-4.754,2.3
		c-1.479,0-3.049-0.74-2.309-4.204l1.243-5.89c0.267-1.244-0.148-1.747-0.799-1.747c-0.799,0-1.983,0.74-2.634,1.539l-1.806,8.437
		c-0.297,1.362-1.421,1.865-2.487,1.865c-0.532,0-1.036-0.148-1.391-0.385l0.327-1.53c-1.286,1.098-2.844,1.916-4.083,1.916
		c-1.392,0-2.783-0.651-2.753-2.991c-1.243,1.748-2.812,2.991-4.5,2.991c-3.079,0-3.7-3.079-3.7-4.974
		c0-5.179,3.345-10.33,7.459-10.33c1.332,0,2.309,0.326,3.049,0.976c0.503-0.592,1.272-0.858,2.013-0.858
		c0.533,0,1.036,0.148,1.391,0.384l-2.071,9.798c-0.355,1.658,0.119,2.191,0.888,2.191c0.933,0,1.993-0.536,2.744-1.152l1.664-7.788
		c0.118-0.474-0.03-0.74-0.296-0.74c-0.147,0-0.326,0.119-0.592,0.356c-0.385-0.237-0.592-1.155,0-1.628
		c1.006-0.8,2.071-1.421,3.315-1.421c1.065,0,1.687,0.503,1.421,1.628l-0.296,1.332c1.243-1.776,3.138-2.96,4.855-2.96
		c1.569,0,2.693,1.244,2.013,4.351l-1.451,6.809c-0.177,0.858,0.207,1.214,0.799,1.214c0.941,0,2.012-0.546,2.765-1.169
		c0.02-0.129,0.044-0.262,0.073-0.401l1.894-8.939h-1.479c-0.148-0.947,0.325-1.716,1.243-1.716h0.592l0.533-2.428
		c0.296-1.362,1.421-1.865,2.486-1.865c0.533,0,1.036,0.147,1.392,0.384l-0.829,3.908h2.161c0.148,0.947-0.326,1.716-1.243,1.716
		H124.681L124.681,37.501z M99.408,37.975L99.408,37.975c-0.502-0.177-0.947-0.237-1.39-0.237c-3.582,0-4.855,4.678-4.855,7.904
		c0,1.479,0.681,2.13,1.599,2.13c0.948,0,2.19-0.77,2.991-1.865L99.408,37.975L99.408,37.975z M84.462,38.862l0.326-1.598
		c0.237-1.125-0.355-1.628-1.421-1.628c-1.243,0-2.309,0.621-3.315,1.421c-0.592,0.473-0.385,1.391,0,1.628
		c0.266-0.237,0.444-0.356,0.591-0.356c0.267,0,0.386,0.267,0.296,0.74l-1.664,7.788c-0.751,0.615-1.812,1.152-2.743,1.152
		c-0.77,0-1.243-0.533-0.888-2.191l2.073-9.798c-0.356-0.236-0.859-0.384-1.391-0.384c-1.066,0-2.19,0.503-2.487,1.865l-1.777,8.377
		c-0.799,0.948-1.687,1.54-2.723,1.54c-0.888,0-1.273-0.533-1.006-1.746l1.806-8.407c0.267-1.125-0.356-1.628-1.421-1.628
		c-1.244,0-2.309,0.621-3.315,1.421c-0.592,0.473-0.385,1.391,0,1.628c0.267-0.237,0.444-0.356,0.592-0.356
		c0.267,0,0.414,0.267,0.296,0.74l-1.392,6.068c-0.117,0.516-0.206,1.099-0.234,1.689c-0.754,0.628-1.834,1.183-2.782,1.183
		c-0.771,0-1.244-0.533-0.888-2.191l2.071-9.798c-0.355-0.236-0.858-0.384-1.39-0.384c-0.741,0-1.511,0.266-2.014,0.858
		c-0.739-0.65-1.716-0.976-3.049-0.976c-4.114,0-7.459,5.15-7.459,10.33c0,0.291,0.015,0.607,0.051,0.938
		c-0.756,0.646-1.863,1.225-2.832,1.225c-0.769,0-1.243-0.533-0.887-2.191l1.746-8.318h1.302c0.917,0,1.391-0.769,1.244-1.716
		h-2.162l0.83-3.908c-0.355-0.237-0.859-0.384-1.391-0.384c-1.065,0-2.19,0.503-2.486,1.865l-0.534,2.428h-0.592
		c-0.918,0-1.391,0.77-1.243,1.716h1.479l-1.895,8.939c-0.68,3.256,0.503,4.382,2.309,4.382c1.874,0,3.985-1.215,5.385-2.672
		c0.438,1.407,1.401,2.672,3.375,2.672c1.687,0,3.256-1.243,4.5-2.991c-0.029,2.34,1.362,2.991,2.753,2.991
		c1.43,0,3.284-1.089,4.656-2.441c0.266,1.351,1.074,2.441,2.918,2.441c1.687,0,3.138-1.421,4.323-3.345
		c-0.148,2.605,1.302,3.345,2.752,3.345c1.238,0,2.796-0.817,4.082-1.915l-0.326,1.529c0.355,0.237,0.858,0.385,1.391,0.385
		c1.065,0,2.19-0.503,2.486-1.865l0.355-1.805c1.51-6.838,2.901-8.171,3.877-8.171c0.622,0,0.918,0.325,0.918,0.74
		c0,0.356-0.119,0.741-0.325,0.918c0.266,0.089,0.592,0.118,0.859,0.118c1.538,0,2.368-1.451,2.368-2.782
		c0-1.213-0.74-2.338-2.161-2.338C86.919,35.636,85.646,36.465,84.462,38.862L84.462,38.862z M59.071,37.975l-1.657,7.933
		c-0.799,1.095-2.042,1.865-2.989,1.865c-0.918,0-1.599-0.651-1.599-2.13c0-3.227,1.273-7.904,4.854-7.904
		C58.124,37.738,58.568,37.798,59.071,37.975L59.071,37.975L59.071,37.975z M22.64,44.783L22.64,44.783
		c2.872-1.806,4.826-3.878,4.826-5.802c0-0.681-0.356-1.154-0.859-1.154C23.676,37.827,22.729,42.71,22.64,44.783z"/>
	<path fill="#363837" d="M30.218,58.738c-0.479,0-0.956,0-1.43,0c-0.476,0-0.95,0-1.424,0v0.226l0.295,0.241
		c0,0.756,0,1.513,0,2.268c0,0.755,0,1.511,0,2.265l-0.35,0.233v0.226c0.151,0,0.313,0,0.484,0s0.342,0,0.513,0
		c0.17,0,0.331,0,0.479,0v-0.226l-0.342-0.233c0-0.339,0-0.676,0-1.01c0-0.336,0-0.671,0-1.005h0.84l0.201,0.412h0.242
		c0-0.129,0-0.271,0-0.424c0-0.156,0-0.31,0-0.464c0-0.155,0-0.297,0-0.427h-0.242l-0.201,0.43h-0.84c0-0.344,0-0.688,0-1.029
		c0-0.343,0-0.684,0-1.024h1.167l0.234,0.843h0.373V58.738L30.218,58.738z M36.922,60.113c-0.001-0.293-0.066-0.551-0.193-0.767
		c-0.127-0.218-0.305-0.386-0.539-0.506c-0.233-0.119-0.511-0.18-0.831-0.181c-0.318,0.001-0.592,0.063-0.824,0.183
		c-0.232,0.122-0.412,0.291-0.538,0.507c-0.127,0.217-0.191,0.471-0.193,0.764v2.707c0.001,0.292,0.066,0.546,0.193,0.765
		c0.125,0.216,0.305,0.384,0.538,0.505c0.232,0.12,0.506,0.183,0.824,0.185c0.32-0.001,0.598-0.063,0.831-0.182
		c0.233-0.12,0.412-0.288,0.539-0.506c0.126-0.216,0.192-0.473,0.193-0.767V60.113L36.922,60.113z M34.614,60.113
		c-0.001-0.308,0.059-0.54,0.179-0.697c0.122-0.156,0.312-0.236,0.566-0.236c0.174,0.001,0.316,0.045,0.429,0.127
		c0.113,0.084,0.197,0.196,0.251,0.335c0.054,0.14,0.082,0.297,0.082,0.47v2.707c0,0.127-0.016,0.247-0.045,0.359
		c-0.031,0.113-0.077,0.211-0.14,0.296c-0.062,0.086-0.143,0.154-0.237,0.202c-0.096,0.049-0.21,0.074-0.339,0.074
		c-0.255,0-0.444-0.08-0.566-0.238c-0.12-0.159-0.181-0.39-0.179-0.694V60.113L34.614,60.113z M43.893,60.113
		c-0.001-0.293-0.066-0.551-0.193-0.767c-0.128-0.218-0.306-0.386-0.54-0.506c-0.233-0.119-0.511-0.18-0.83-0.181
		c-0.318,0.001-0.592,0.063-0.824,0.183c-0.233,0.122-0.413,0.291-0.539,0.507c-0.126,0.217-0.192,0.471-0.193,0.764v2.707
		c0.001,0.292,0.067,0.546,0.193,0.765c0.126,0.216,0.306,0.384,0.539,0.505c0.231,0.12,0.506,0.183,0.824,0.185
		c0.319-0.001,0.597-0.063,0.83-0.182c0.234-0.12,0.412-0.288,0.54-0.506c0.126-0.216,0.191-0.473,0.193-0.767V60.113L43.893,60.113
		z M41.583,60.113c-0.001-0.308,0.06-0.54,0.181-0.697c0.121-0.156,0.311-0.236,0.566-0.236c0.173,0.001,0.316,0.045,0.429,0.127
		c0.112,0.084,0.197,0.196,0.251,0.335c0.054,0.14,0.082,0.297,0.082,0.47v2.707c0,0.127-0.016,0.247-0.045,0.359
		c-0.032,0.113-0.079,0.211-0.141,0.296c-0.062,0.086-0.143,0.154-0.237,0.202c-0.096,0.049-0.21,0.074-0.34,0.074
		c-0.255,0-0.445-0.08-0.566-0.238c-0.121-0.159-0.182-0.39-0.181-0.694V60.113L41.583,60.113z M47.643,58.738v0.226l0.295,0.232
		v4.542l-0.342,0.233v0.226h1.681c0.228,0,0.438-0.03,0.627-0.088c0.19-0.059,0.355-0.148,0.494-0.266
		c0.14-0.119,0.247-0.268,0.324-0.447c0.076-0.18,0.116-0.39,0.117-0.63v-2.619c-0.003-0.337-0.068-0.611-0.199-0.818
		c-0.129-0.208-0.311-0.358-0.544-0.452c-0.233-0.094-0.507-0.14-0.819-0.138H47.643L47.643,58.738z M49.276,59.212
		c0.19,0.003,0.34,0.048,0.451,0.131c0.111,0.084,0.189,0.193,0.235,0.334c0.047,0.14,0.069,0.296,0.067,0.469v2.619
		c0.002,0.174-0.02,0.333-0.067,0.473c-0.045,0.141-0.124,0.253-0.235,0.336c-0.111,0.084-0.261,0.128-0.451,0.132h-0.685
		l-0.008-0.047c0.065-0.019,0.11-0.048,0.135-0.085c0.025-0.04,0.037-0.091,0.036-0.156v-4.207H49.276L49.276,59.212z
		 M58.928,61.576h0.327v-0.482c-0.215,0-0.465,0-0.745,0c-0.283,0-0.591,0-0.927,0c-0.187-0.001-0.327-0.054-0.42-0.153
		c-0.093-0.1-0.14-0.238-0.14-0.416v-0.761c0.001-0.13,0.029-0.238,0.082-0.323c0.054-0.085,0.122-0.148,0.208-0.191
		c0.085-0.042,0.178-0.062,0.278-0.062c0.131,0,0.236,0.021,0.313,0.065c0.078,0.044,0.134,0.109,0.166,0.194
		c0.034,0.086,0.051,0.191,0.049,0.316v0.365h0.785v-0.365c-0.001-0.209-0.034-0.384-0.101-0.523
		c-0.067-0.139-0.159-0.248-0.278-0.329s-0.258-0.139-0.417-0.172s-0.332-0.051-0.517-0.05c-0.167,0.001-0.328,0.023-0.483,0.067
		c-0.154,0.042-0.292,0.106-0.416,0.193c-0.123,0.086-0.222,0.197-0.293,0.332c-0.071,0.134-0.106,0.295-0.106,0.482v0.761
		c0,0.103,0.019,0.204,0.055,0.302c0.038,0.098,0.092,0.187,0.164,0.267c0.071,0.079,0.16,0.141,0.262,0.186
		c-0.206,0.067-0.362,0.182-0.469,0.34c-0.105,0.159-0.161,0.354-0.161,0.585v0.917c0.001,0.186,0.032,0.342,0.091,0.47
		c0.059,0.127,0.14,0.231,0.242,0.31c0.104,0.081,0.221,0.142,0.354,0.184c0.134,0.042,0.275,0.072,0.424,0.087
		c0.148,0.016,0.3,0.023,0.452,0.022h1.562v-0.257l-0.342-0.241c0-0.356,0-0.708,0-1.059C58.928,62.291,58.928,61.936,58.928,61.576
		L58.928,61.576L58.928,61.576z M56.961,62.206c-0.002-0.225,0.049-0.385,0.151-0.484c0.103-0.099,0.262-0.148,0.478-0.146h0.575
		c0,0.322,0,0.638,0,0.948c0,0.312,0,0.628,0,0.95c0,0.039,0.004,0.079,0.013,0.118c0.009,0.04,0.024,0.074,0.046,0.102
		c0.021,0.028,0.05,0.046,0.09,0.052v0.039h-0.638c-0.137,0-0.258-0.022-0.366-0.068c-0.107-0.045-0.191-0.117-0.254-0.215
		c-0.062-0.097-0.094-0.222-0.095-0.379V62.206L56.961,62.206L56.961,62.206z M64.374,58.738v0.226l0.295,0.232v4.542l-0.342,0.233
		v0.226h1.679c0.229,0,0.439-0.03,0.629-0.088c0.19-0.059,0.356-0.148,0.494-0.266c0.141-0.119,0.248-0.268,0.324-0.447
		c0.077-0.18,0.116-0.39,0.118-0.63v-2.619c-0.003-0.337-0.068-0.611-0.199-0.818c-0.129-0.208-0.311-0.358-0.544-0.452
		c-0.233-0.094-0.507-0.14-0.821-0.138H64.374L64.374,58.738z M66.006,59.212c0.191,0.003,0.342,0.048,0.452,0.131
		c0.111,0.084,0.189,0.193,0.236,0.334c0.046,0.14,0.069,0.296,0.068,0.469v2.619c0.001,0.174-0.021,0.333-0.068,0.473
		s-0.125,0.253-0.236,0.336c-0.11,0.084-0.261,0.128-0.452,0.132h-0.684l-0.008-0.047c0.065-0.019,0.11-0.048,0.135-0.085
		c0.026-0.04,0.038-0.091,0.036-0.156v-4.207H66.006L66.006,59.212z M72.906,59.22c0.177,0,0.318,0.031,0.423,0.093
		c0.105,0.062,0.181,0.152,0.226,0.268c0.045,0.117,0.067,0.259,0.066,0.427v0.709c0.001,0.168-0.024,0.309-0.071,0.426
		c-0.05,0.117-0.126,0.207-0.234,0.27c-0.106,0.061-0.245,0.093-0.419,0.093h-0.497c0-0.211,0-0.41,0-0.596c0-0.188,0-0.37,0-0.547
		c0-0.179,0-0.36,0-0.547c0-0.187,0-0.384,0-0.596H72.906L72.906,59.22z M73.543,63.48c0.038,0.104,0.073,0.201,0.106,0.293
		c0.032,0.092,0.07,0.172,0.115,0.242c0.045,0.07,0.104,0.125,0.179,0.167c0.074,0.04,0.172,0.06,0.293,0.062
		c0.058,0,0.121-0.003,0.189-0.01c0.067-0.007,0.134-0.017,0.199-0.032c0.066-0.016,0.125-0.035,0.179-0.062v-0.302
		c-0.062,0.013-0.118,0.006-0.167-0.019c-0.05-0.024-0.092-0.063-0.13-0.112c-0.039-0.048-0.071-0.102-0.098-0.161
		c-0.029-0.057-0.052-0.114-0.072-0.167l-0.365-1.003c-0.027-0.081-0.06-0.15-0.094-0.212c-0.036-0.062-0.08-0.117-0.133-0.165
		c-0.052-0.05-0.115-0.095-0.193-0.136c0.17-0.033,0.321-0.098,0.452-0.193c0.132-0.094,0.236-0.221,0.311-0.38
		c0.076-0.158,0.114-0.349,0.116-0.573v-0.709c-0.001-0.237-0.042-0.436-0.121-0.6c-0.077-0.164-0.188-0.293-0.327-0.392
		c-0.138-0.098-0.3-0.169-0.484-0.213c-0.183-0.044-0.381-0.067-0.592-0.065h-1.578v0.226l0.287,0.201c0,0.758,0,1.521,0,2.287
		c0,0.768,0,1.529,0,2.286l-0.342,0.233v0.226c0.152,0,0.314,0,0.484,0c0.169,0,0.34,0,0.51,0c0.171,0,0.332,0,0.484,0v-0.226
		l-0.342-0.233c0-0.126,0-0.266,0-0.42c0-0.154,0-0.312,0-0.473c0-0.164,0-0.321,0-0.473c0-0.153,0-0.291,0-0.415
		c0.151-0.001,0.273,0.013,0.365,0.043c0.092,0.031,0.167,0.085,0.226,0.161c0.06,0.078,0.114,0.186,0.164,0.324L73.543,63.48
		L73.543,63.48z M79.285,59.165l0.295-0.201v-0.226h-1.376v0.226l0.295,0.201c0,0.763,0,1.526,0,2.286c0,0.762,0,1.522,0,2.286
		l-0.35,0.234v0.226c0.152,0,0.314,0,0.485,0c0.171,0,0.342,0,0.512,0s0.331,0,0.48,0v-0.226l-0.342-0.234c0-0.763,0-1.524,0-2.286
		C79.285,60.691,79.285,59.928,79.285,59.165L79.285,59.165z M84.076,63.751c0-0.564,0-1.13,0-1.696c0-0.568,0-1.133,0-1.697
		l-0.092-0.779l0.023-0.007l1.267,4.36c0.023,0.079,0.061,0.142,0.115,0.19c0.053,0.048,0.127,0.073,0.219,0.074h0.669
		c0-0.837,0-1.673,0-2.507c0-0.835,0-1.671,0-2.509l0.296-0.201v-0.241c-0.382,0-0.762,0-1.144,0v0.241l0.296,0.201v2.523
		c0,0.135,0.004,0.277,0.007,0.431c0.005,0.151,0.01,0.304,0.015,0.456c0.005,0.153,0.008,0.295,0.008,0.43h-0.016l-0.35-1.526
		l-0.762-2.43c-0.027-0.098-0.056-0.168-0.09-0.216c-0.032-0.046-0.079-0.077-0.14-0.091c-0.062-0.014-0.147-0.021-0.261-0.02
		c-0.089,0-0.171,0-0.244,0c-0.073,0-0.145,0-0.212,0c-0.067,0-0.137,0-0.211,0c-0.076,0-0.159,0-0.25,0v0.226l0.295,0.201
		c0,0.763,0,1.528,0,2.294c0,0.766,0,1.529,0,2.292l-0.327,0.204v0.241c0.129,0,0.261,0,0.399,0c0.139,0,0.276,0,0.415,0
		s0.271,0,0.399,0v-0.241L84.076,63.751L84.076,63.751z M93.542,58.746c-0.099-0.001-0.201-0.003-0.305-0.004
		c-0.105-0.001-0.207,0.007-0.307,0.026c-0.099,0.017-0.19,0.054-0.274,0.109c-0.1,0.073-0.183,0.167-0.249,0.28
		c-0.066,0.113-0.122,0.24-0.167,0.377c-0.046,0.138-0.087,0.278-0.125,0.424c-0.037,0.145-0.077,0.285-0.122,0.419
		c-0.042,0.134-0.096,0.256-0.158,0.363c-0.062,0.107-0.141,0.193-0.235,0.255c-0.095,0.063-0.212,0.096-0.352,0.097v-1.921
		l0.295-0.202v-0.225h-1.376v0.225l0.296,0.202c0,0.763,0,1.522,0,2.283s0,1.52,0,2.283l-0.342,0.233v0.226c0.148,0,0.309,0,0.479,0
		c0.171,0,0.342,0,0.513,0c0.171,0,0.333,0,0.484,0v-0.226l-0.349-0.233c0-0.37,0-0.738,0-1.104c0-0.367,0-0.735,0-1.104h0.233
		c0.162,0,0.293,0.042,0.396,0.117c0.101,0.077,0.18,0.182,0.238,0.313s0.104,0.277,0.136,0.44l0.225,1.081
		c0.03,0.146,0.072,0.278,0.129,0.392c0.056,0.114,0.134,0.203,0.236,0.269c0.101,0.068,0.233,0.102,0.397,0.103
		c0.048,0,0.103-0.003,0.163-0.009c0.06-0.004,0.122-0.014,0.185-0.029c0.063-0.014,0.12-0.035,0.173-0.064v-0.302
		c-0.08,0.017-0.152,0.004-0.214-0.038c-0.062-0.041-0.113-0.1-0.154-0.176c-0.042-0.077-0.072-0.159-0.09-0.245l-0.242-1.135
		c-0.027-0.126-0.061-0.247-0.104-0.364c-0.041-0.117-0.092-0.223-0.151-0.318c-0.058-0.094-0.127-0.172-0.206-0.231
		c-0.079-0.06-0.168-0.095-0.269-0.105v-0.016c0.059-0.02,0.115-0.069,0.169-0.145c0.053-0.075,0.104-0.168,0.15-0.281
		c0.048-0.112,0.092-0.231,0.134-0.361c0.042-0.128,0.082-0.256,0.12-0.384c0.036-0.127,0.071-0.246,0.104-0.353
		c0.033-0.107,0.063-0.195,0.093-0.264c0.032-0.081,0.066-0.149,0.101-0.207c0.035-0.055,0.079-0.099,0.132-0.126
		c0.052-0.03,0.123-0.044,0.209-0.041V58.746L93.542,58.746z M97.977,63.092v-0.436h-0.879v0.428
		c0.002,0.208,0.04,0.388,0.113,0.538c0.073,0.151,0.175,0.276,0.303,0.373c0.128,0.098,0.276,0.169,0.442,0.216
		c0.168,0.046,0.346,0.07,0.534,0.07c0.187,0,0.367-0.021,0.54-0.064c0.171-0.043,0.327-0.114,0.464-0.207
		c0.137-0.095,0.247-0.217,0.327-0.37c0.081-0.15,0.122-0.333,0.124-0.549v-0.668c-0.001-0.204-0.04-0.375-0.11-0.512
		c-0.072-0.137-0.166-0.251-0.283-0.34c-0.118-0.089-0.247-0.167-0.387-0.227c-0.142-0.062-0.282-0.117-0.422-0.168
		c-0.141-0.05-0.27-0.104-0.387-0.164c-0.117-0.06-0.212-0.133-0.283-0.219c-0.072-0.087-0.109-0.198-0.111-0.33v-0.661
		c0-0.188,0.047-0.334,0.139-0.439c0.094-0.104,0.23-0.158,0.413-0.159c0.185,0,0.325,0.051,0.425,0.152
		c0.099,0.102,0.15,0.25,0.15,0.446V60.2h0.801c0-0.246,0-0.49,0-0.733c0-0.246,0-0.487,0-0.729h-0.528l-0.062,0.295h-0.031
		c-0.085-0.094-0.177-0.169-0.274-0.219c-0.098-0.051-0.198-0.086-0.301-0.103c-0.104-0.021-0.208-0.029-0.311-0.028
		c-0.159,0-0.311,0.02-0.458,0.06c-0.146,0.041-0.276,0.105-0.392,0.194c-0.115,0.088-0.208,0.203-0.274,0.346
		c-0.068,0.142-0.103,0.315-0.104,0.519v0.661c0.003,0.193,0.039,0.354,0.109,0.483c0.072,0.132,0.165,0.239,0.282,0.325
		c0.116,0.085,0.244,0.159,0.384,0.218c0.139,0.06,0.279,0.116,0.419,0.168c0.138,0.054,0.267,0.111,0.383,0.176
		c0.117,0.064,0.21,0.143,0.282,0.238c0.071,0.096,0.107,0.215,0.108,0.359v0.661c0,0.131-0.019,0.245-0.061,0.345
		c-0.042,0.098-0.106,0.176-0.193,0.231c-0.088,0.055-0.2,0.083-0.337,0.084c-0.176,0.001-0.313-0.049-0.407-0.154
		C98.026,63.492,97.978,63.324,97.977,63.092L97.977,63.092z"/>
	<path fill-rule="evenodd" clip-rule="evenodd" fill="#8C8C8C" d="M8.384,61.185h14.963v0.571H8.384V61.185L8.384,61.185z
		 M103.906,61.185h14.963v0.571h-14.963V61.185z"/>
	<path fill-rule="evenodd" clip-rule="evenodd" fill="#363837" d="M61.014,4.812c-8.534,1.263-15.082,8.617-15.082,17.501h35.389
		c0-8.885-6.548-16.238-15.082-17.501V4.588c0-0.136-0.1-0.247-0.234-0.264c-0.802-0.099-1.445-0.711-1.592-1.498
		c0.44-0.267,0.736-0.751,0.736-1.304C65.149,0.682,64.468,0,63.627,0s-1.522,0.682-1.522,1.523c0,0.552,0.295,1.037,0.736,1.304
		c-0.148,0.786-0.791,1.398-1.592,1.498c-0.135,0.018-0.234,0.128-0.234,0.264V4.812L61.014,4.812z M45.021,23.25h37.21
		c0.602,0,1.093,0.493,1.093,1.093c0,0.6-0.492,1.093-1.093,1.093h-37.21c-0.601,0-1.092-0.493-1.092-1.093
		C43.929,23.743,44.421,23.25,45.021,23.25z"/>
	<path fill-rule="evenodd" clip-rule="evenodd" fill="#363837" d="M59.003,71.122c-0.563,0.563-0.359,1.681,0.457,2.497
		c1.482,1.481,1.7,0.013,2.796,1.267c0.237,0.271,0.476,0.546,0.716,0.82c-0.645,0.574-1.28,1.16-1.88,1.76
		c-0.816,0.814-0.872,1.237-0.646,1.463c0.226,0.225,0.647,0.168,1.462-0.648c0.585-0.586,1.158-1.206,1.719-1.834
		c0.562,0.628,1.133,1.248,1.719,1.834c0.815,0.816,1.238,0.873,1.463,0.648c0.225-0.226,0.169-0.649-0.647-1.463
		c-0.6-0.601-1.235-1.186-1.879-1.76c0.239-0.274,0.479-0.549,0.715-0.82c1.097-1.254,1.314,0.215,2.796-1.267
		c0.815-0.816,1.02-1.934,0.457-2.497s-1.681-0.359-2.497,0.458c-1.492,1.491,0.006,1.701-1.291,2.817
		c-0.277,0.242-0.558,0.484-0.837,0.729c-0.28-0.245-0.56-0.488-0.838-0.729c-1.296-1.116,0.201-1.326-1.291-2.817
		C60.683,70.762,59.565,70.559,59.003,71.122z"/>
	<path fill-rule="evenodd" clip-rule="evenodd" fill="#8C8C8C" d="M78.539,75.104c-0.724-0.027-1.373-0.364-2.053-0.762
		c-0.345-0.197-0.7-0.401-1.093-0.561c-0.388-0.164-0.826-0.266-1.252-0.289c-0.601-0.037-1.165,0.105-1.56,0.332
		c-0.106,0.06-0.199,0.125-0.281,0.19c-0.418,0.039-0.796,0.16-1.086,0.325c-0.471,0.264-1.073,0.846-1.038,1.439
		c0.011,0.187,0.095,0.36,0.291,0.483c0.272,0.17,0.632,0.087,0.802-0.185c0.144-0.23,0.107-0.521-0.071-0.71
		c-0.096-0.1-0.107-0.188-0.091-0.268c0.097-0.486,1.294-0.452,1.627-0.433c0.725,0.027,1.374,0.363,2.054,0.763
		c0.344,0.197,0.699,0.4,1.092,0.559c0.389,0.165,0.827,0.266,1.252,0.29c0.601,0.037,1.165-0.105,1.56-0.332
		c0.106-0.06,0.199-0.125,0.28-0.19c0.418-0.039,0.797-0.16,1.086-0.325c0.47-0.264,1.073-0.846,1.038-1.439
		c-0.011-0.187-0.095-0.36-0.291-0.483c-0.273-0.17-0.632-0.088-0.803,0.185c-0.144,0.229-0.107,0.521,0.072,0.71
		c0.096,0.1,0.107,0.188,0.091,0.268C80.071,75.156,78.874,75.123,78.539,75.104L78.539,75.104z M73.605,74.147
		c0.16-0.007,0.326-0.006,0.497,0.003c0.723,0.026,1.374,0.366,2.054,0.762c0.343,0.196,0.697,0.402,1.092,0.561
		c0.136,0.057,0.277,0.107,0.421,0.148c-0.159,0.007-0.326,0.005-0.497-0.004c-0.723-0.025-1.374-0.366-2.055-0.762
		c-0.342-0.196-0.697-0.401-1.092-0.561C73.891,74.237,73.75,74.188,73.605,74.147z"/>
	<path fill-rule="evenodd" clip-rule="evenodd" fill="#8C8C8C" d="M47.148,75.104c0.724-0.027,1.374-0.364,2.054-0.762
		c0.343-0.197,0.699-0.401,1.092-0.561c0.388-0.164,0.826-0.266,1.252-0.289c0.601-0.037,1.165,0.105,1.56,0.332
		c0.106,0.06,0.199,0.125,0.281,0.19c0.418,0.039,0.796,0.16,1.085,0.325c0.47,0.264,1.074,0.846,1.038,1.439
		c-0.011,0.187-0.095,0.36-0.291,0.483c-0.272,0.17-0.631,0.087-0.802-0.185c-0.144-0.23-0.107-0.521,0.072-0.71
		c0.096-0.1,0.106-0.188,0.09-0.268c-0.096-0.486-1.294-0.452-1.628-0.433c-0.724,0.027-1.374,0.363-2.054,0.763
		c-0.344,0.197-0.699,0.4-1.092,0.559c-0.388,0.165-0.827,0.266-1.252,0.29c-0.6,0.037-1.165-0.105-1.56-0.332
		c-0.106-0.06-0.2-0.125-0.281-0.19c-0.418-0.039-0.796-0.16-1.085-0.325c-0.471-0.264-1.074-0.846-1.038-1.439
		c0.011-0.187,0.095-0.36,0.291-0.483c0.272-0.17,0.632-0.088,0.802,0.185c0.144,0.229,0.108,0.521-0.072,0.71
		c-0.096,0.1-0.106,0.188-0.09,0.268C45.617,75.156,46.814,75.123,47.148,75.104L47.148,75.104z M52.083,74.147
		c-0.16-0.007-0.326-0.006-0.497,0.003c-0.724,0.026-1.374,0.366-2.055,0.762c-0.343,0.196-0.698,0.402-1.092,0.561
		c-0.135,0.057-0.276,0.107-0.421,0.148c0.16,0.007,0.326,0.005,0.497-0.004c0.724-0.025,1.374-0.366,2.054-0.762
		c0.343-0.196,0.698-0.401,1.092-0.561C51.797,74.237,51.938,74.188,52.083,74.147z"/>
</g>
</svg>
