<?xml version="1.0" encoding="utf-8"?>
<!-- Generator: Adobe Illustrator 16.0.0, SVG Export Plug-In . SVG Version: 6.00 Build 0)  -->
<!DOCTYPE svg PUBLIC "-//W3C//DTD SVG 1.1//EN" "http://www.w3.org/Graphics/SVG/1.1/DTD/svg11.dtd">
<svg version="1.1" id="Layer_1" xmlns="http://www.w3.org/2000/svg" xmlns:xlink="http://www.w3.org/1999/xlink" x="0px" y="0px"
	 width="127.254px" height="135.144px" viewBox="0 0 127.254 135.144" enable-background="new 0 0 127.254 135.144"
	 xml:space="preserve">
<g>
	<path fill-rule="evenodd" clip-rule="evenodd" fill="#363837" d="M111.408,19.793c-2.639,1.246-5.209,2.592-7.703,4.032
		c-1.212,2.604-2.527,5.142-3.938,7.605c-4.734-4.737-10.403-8.537-16.579-11.095c-6.175-2.564-12.849-3.878-19.562-3.875
		c-6.714-0.003-13.387,1.311-19.562,3.876c-6.176,2.557-11.844,6.356-16.58,11.095c-1.41-2.465-2.725-5.002-3.938-7.606
		c-2.494-1.44-5.062-2.786-7.702-4.032c6.25-6.253,13.733-11.272,21.916-14.662C45.937,1.73,54.802-0.008,63.627,0
		c8.824-0.008,17.69,1.73,25.867,5.131C97.675,8.52,105.16,13.54,111.408,19.793L111.408,19.793z M33.495,17.864l-1.186,0.738
		l0.748,1.166c0.115,0.182,0.187,0.369,0.205,0.511c0.018,0.143,0.009,0.278-0.042,0.389c-0.078,0.104-0.157,0.204-0.292,0.295
		c-0.119,0.079-0.244,0.11-0.37,0.142c-0.12,0.003-0.25-0.043-0.374-0.115c-0.123-0.071-0.266-0.21-0.388-0.389l-2.915-4.295
		c-0.194-0.285-0.254-0.536-0.226-0.738c0.03-0.2,0.166-0.37,0.375-0.509c0.23-0.151,0.42-0.195,0.636-0.155
		c0.197,0.053,0.401,0.203,0.588,0.494l0.549,0.855l1.242-0.775l-0.481-0.796c-0.271-0.442-0.572-0.765-0.922-0.981
		c-0.337-0.197-0.723-0.292-1.122-0.271c-0.388,0.042-0.84,0.203-1.271,0.486c-0.448,0.297-0.756,0.638-0.965,0.991
		c-0.177,0.36-0.242,0.751-0.192,1.14c0.062,0.406,0.243,0.81,0.545,1.232l2.911,4.061c0.302,0.422,0.621,0.725,0.967,0.931
		c0.333,0.19,0.69,0.28,1.047,0.271c0.361-0.037,0.732-0.16,1.112-0.412c0.365-0.239,0.639-0.545,0.801-0.85
		c0.146-0.328,0.205-0.69,0.161-1.07c-0.055-0.399-0.209-0.812-0.479-1.255L33.495,17.864L33.495,17.864z M42.536,17.272
		c-1.676-2.777-3.425-5.516-5.249-8.215c-0.725,0.328-1.442,0.667-2.155,1.021c0.932,3.122,1.94,6.21,3.026,9.268l1.13-0.583
		l-0.562-1.677c0.527-0.26,1.058-0.513,1.592-0.755l0.944,1.494L42.536,17.272L42.536,17.272L42.536,17.272z M38.319,15.839
		L38.319,15.839l1.271-0.603c-0.896-1.375-1.806-2.74-2.735-4.094C37.323,12.716,37.812,14.28,38.319,15.839L38.319,15.839z
		 M42.521,6.973l3.165,9.091c1.157-0.403,2.326-0.766,3.507-1.089l-0.365-1.336c-0.753,0.204-1.502,0.429-2.244,0.665l-2.51-7.85
		L42.521,6.973L42.521,6.973L42.521,6.973z M50.472,4.77l1.965,9.424l1.363-0.267l-1.723-9.471L50.472,4.77L50.472,4.77L50.472,4.77
		z M58.442,7.922l-0.249-2.887c0.874-0.078,1.749-0.133,2.625-0.17L60.757,3.48c-1.439,0.062-2.876,0.177-4.308,0.336l1.065,9.566
		l1.384-0.137L58.56,9.279c0.635-0.054,1.273-0.099,1.912-0.132L60.4,7.786C59.747,7.822,59.094,7.865,58.442,7.922L58.442,7.922
		L58.442,7.922z M65.942,10.884L65.942,10.884c-0.012,0.324,0.06,0.586,0.176,0.723c0.116,0.157,0.296,0.248,0.519,0.24
		c0.243,0.036,0.41-0.04,0.563-0.185c0.129-0.121,0.228-0.374,0.251-0.697l0.344-5.181c0.022-0.345-0.053-0.589-0.179-0.749
		c-0.15-0.16-0.33-0.236-0.604-0.252c-0.25-0.015-0.46,0.043-0.604,0.188c-0.144,0.146-0.243,0.379-0.258,0.725L65.942,10.884
		L65.942,10.884z M64.572,5.738l-0.074,4.997c-0.008,0.52,0.088,0.954,0.243,1.325c0.154,0.348,0.39,0.634,0.682,0.841
		c0.313,0.18,0.705,0.306,1.142,0.328c0.456,0.023,0.857-0.056,1.169-0.205c0.332-0.173,0.595-0.432,0.786-0.764
		c0.194-0.354,0.335-0.772,0.383-1.289l0.458-4.978c0.048-0.516-0.024-0.958-0.176-1.34c-0.154-0.359-0.408-0.665-0.765-0.886
		c-0.337-0.198-0.797-0.338-1.334-0.367c-0.514-0.025-0.987,0.061-1.365,0.224c-0.354,0.184-0.639,0.458-0.83,0.802
		C64.7,4.791,64.579,5.22,64.572,5.738L64.572,5.738L64.572,5.738z M75.128,14.259l1.394,0.318c-0.036-0.188-0.029-0.386-0.009-0.56
		c0.026-0.193,0.07-0.383,0.126-0.614l0.348-1.451c0.075-0.317,0.127-0.617,0.13-0.904c-0.002-0.266-0.051-0.522-0.153-0.747
		c-0.102-0.223-0.258-0.412-0.471-0.55c0.354-0.099,0.66-0.272,0.885-0.554c0.242-0.274,0.403-0.658,0.52-1.144l0.17-0.715
		c0.116-0.483,0.146-0.899,0.069-1.272c-0.106-0.359-0.302-0.648-0.61-0.871c-0.303-0.246-0.743-0.429-1.293-0.538
		c-0.811-0.163-1.624-0.308-2.44-0.437l-1.514,9.505l1.37,0.237l0.714-3.851l0.503,0.096c0.229,0.047,0.409,0.125,0.521,0.214
		c0.127,0.115,0.205,0.264,0.231,0.447c0.043,0.208,0.013,0.444-0.045,0.719l-0.314,1.482c-0.041,0.189-0.077,0.359-0.078,0.47
		c-0.028,0.127-0.05,0.233-0.049,0.321c-0.018,0.084-0.012,0.153-0.007,0.219C75.137,14.127,75.142,14.194,75.128,14.259
		L75.128,14.259L75.128,14.259z M75.152,5.858L75.152,5.858l-0.537,2.893l0.6,0.115c0.172,0.034,0.347,0.046,0.488,0.007
		c0.142-0.035,0.27-0.119,0.366-0.253c0.116-0.13,0.178-0.316,0.232-0.57l0.192-0.91c0.094-0.333,0.082-0.601-0.021-0.778
		c-0.099-0.197-0.288-0.304-0.557-0.354L75.152,5.858L75.152,5.858z M83.285,9.287c-0.128,2.409-0.326,4.802-0.599,7.18l1.314,0.511
		l3.599-8.93l-1.352-0.526l-2.028,5.384c0.199-1.975,0.348-3.961,0.446-5.957c-0.64-0.225-1.286-0.431-1.933-0.637l-2.863,9.19
		l1.189,0.387L83.285,9.287L83.285,9.287L83.285,9.287z M91.617,9.83l-4.204,8.66l1.242,0.624l4.426-8.549L91.617,9.83L91.617,9.83
		L91.617,9.83z M95.664,23.442c1.506-2.871,2.942-5.787,4.307-8.742c-0.653-0.451-1.317-0.889-1.987-1.315
		c-2.188,2.411-4.308,4.873-6.361,7.384l1.082,0.666l1.144-1.35c0.489,0.312,0.976,0.633,1.455,0.96l-0.774,1.595L95.664,23.442
		L95.664,23.442L95.664,23.442z M94.705,19.093L94.705,19.093l1.173,0.774c0.714-1.478,1.408-2.962,2.086-4.46
		C96.861,16.624,95.774,17.854,94.705,19.093z"/>
	<path fill-rule="evenodd" clip-rule="evenodd" fill="#363837" d="M99.768,103.714c1.415,2.469,2.734,5.011,3.952,7.621
		c2.49,1.435,5.054,2.776,7.688,4.019c-6.248,6.253-13.733,11.272-21.914,14.66c-8.177,3.4-17.043,5.139-25.867,5.13
		c-8.825,0.009-17.691-1.729-25.867-5.13c-8.182-3.389-15.665-8.409-21.915-14.66c2.635-1.242,5.199-2.584,7.688-4.019
		c1.219-2.61,2.537-5.152,3.952-7.621c4.736,4.737,10.404,8.537,16.58,11.095c6.175,2.566,12.848,3.878,19.562,3.875
		c6.713,0.003,13.387-1.309,19.562-3.875C89.364,112.251,95.032,108.451,99.768,103.714L99.768,103.714z M31.686,114.599
		c-0.219,0.322-0.363,0.644-0.446,0.953c-0.081,0.311-0.133,0.614-0.121,0.907c-0.001,0.312,0.04,0.601,0.115,0.879
		c0.046,0.287,0.122,0.571,0.202,0.852c0.092,0.262,0.137,0.521,0.202,0.792c0.046,0.259,0.045,0.512,0.016,0.773
		c-0.017,0.242-0.096,0.5-0.242,0.739c-0.112,0.186-0.253,0.327-0.378,0.402c-0.127,0.074-0.261,0.119-0.392,0.113
		c-0.152-0.017-0.28-0.068-0.436-0.168c-0.136-0.086-0.239-0.176-0.32-0.305c-0.062-0.117-0.08-0.257-0.068-0.404
		c0.015-0.146,0.082-0.334,0.199-0.516l0.375-0.581l-1.226-0.813l-0.329,0.481c-0.292,0.429-0.462,0.837-0.516,1.245
		c-0.039,0.389,0.016,0.766,0.22,1.134c0.186,0.354,0.513,0.671,0.969,0.958c0.456,0.284,0.881,0.442,1.303,0.467
		c0.398,0.013,0.782-0.09,1.115-0.296c0.345-0.226,0.618-0.567,0.878-1.016c0.194-0.338,0.327-0.66,0.384-0.978
		c0.057-0.319,0.083-0.629,0.033-0.933c-0.028-0.292-0.074-0.6-0.141-0.865l-0.229-0.824c-0.082-0.277-0.141-0.544-0.179-0.798
		c-0.04-0.256-0.049-0.517-0.021-0.757c0.058-0.244,0.135-0.479,0.287-0.715c0.188-0.293,0.367-0.457,0.552-0.519
		c0.185-0.062,0.375-0.021,0.563,0.099c0.189,0.12,0.312,0.269,0.337,0.463c0.025,0.193-0.046,0.429-0.226,0.726l-0.203,0.332
		l1.184,0.7l0.149-0.262c0.261-0.45,0.405-0.867,0.449-1.266c0.052-0.372-0.014-0.733-0.169-1.055
		c-0.169-0.302-0.433-0.592-0.82-0.832c-0.387-0.242-0.761-0.358-1.105-0.376c-0.356-0.001-0.712,0.098-1.023,0.308
		C32.289,113.86,31.979,114.17,31.686,114.599L31.686,114.599z M39.572,116.522l-4.251,8.636l1.478,0.703l4.028-8.741
		L39.572,116.522L39.572,116.522L39.572,116.522z M44.556,121.506c-0.203,2.388-0.336,4.796-0.393,7.213l1.61,0.489l2.675-9.247
		l-1.179-0.355l-1.723,5.49c0.071-1.988,0.193-3.966,0.364-5.936c-0.551-0.188-1.097-0.391-1.643-0.594l-3.418,8.998l1.384,0.508
		L44.556,121.506L44.556,121.506L44.556,121.506z M55.182,127.553l-1.439-0.22l-0.225,1.366c-0.035,0.214-0.089,0.402-0.177,0.519
		c-0.09,0.117-0.196,0.209-0.344,0.249c-0.123,0.046-0.285,0.04-0.444,0.01c-0.156-0.025-0.311-0.078-0.41-0.161
		c-0.124-0.09-0.194-0.214-0.237-0.354c-0.043-0.139-0.028-0.334,0.012-0.546l0.977-5.1c0.065-0.341,0.17-0.562,0.339-0.686
		c0.148-0.127,0.339-0.156,0.56-0.117c0.22,0.038,0.389,0.133,0.505,0.307c0.096,0.17,0.117,0.414,0.062,0.756l-0.164,1.002
		l1.373,0.21l0.129-0.921c0.071-0.515,0.05-0.955-0.038-1.338c-0.11-0.367-0.309-0.678-0.572-0.917
		c-0.289-0.221-0.642-0.389-1.091-0.468c-0.447-0.081-0.838-0.046-1.164,0.064c-0.353,0.13-0.624,0.357-0.855,0.663
		c-0.234,0.326-0.408,0.731-0.52,1.238l-1.064,4.882c-0.11,0.509-0.112,0.948-0.01,1.348c0.108,0.375,0.299,0.707,0.627,0.969
		c0.305,0.26,0.728,0.429,1.258,0.525c0.528,0.093,0.983,0.081,1.382-0.055c0.375-0.137,0.693-0.377,0.925-0.692
		c0.211-0.341,0.36-0.756,0.432-1.271L55.182,127.553L55.182,127.553L55.182,127.553z M60.788,126.099l0.128-2.679
		c0.814,0.039,1.629,0.06,2.445,0.064l0.007-1.384c-1.26-0.006-2.521-0.055-3.775-0.146l-0.701,9.599
		c1.476,0.107,2.954,0.165,4.432,0.172l0.007-1.383c-0.914-0.006-1.828-0.028-2.741-0.072l0.134-2.81
		c0.691,0.035,1.383,0.053,2.073,0.063l0.021-1.363C62.139,126.151,61.464,126.133,60.788,126.099L60.788,126.099L60.788,126.099z
		 M69.913,122.961l0.121,1.076l1.109-0.136l0.961,7.27l1.619-0.235l-1.503-9.508l-0.925,0.14c-0.034,0.179-0.072,0.337-0.111,0.495
		c-0.062,0.14-0.124,0.279-0.228,0.423c-0.086,0.119-0.215,0.226-0.389,0.312C70.395,122.882,70.177,122.934,69.913,122.961
		L69.913,122.961L69.913,122.961z M82.684,126.328l-1.513-4.671c-0.162-0.494-0.373-0.88-0.639-1.18
		c-0.259-0.283-0.572-0.478-0.935-0.57c-0.354-0.071-0.746-0.07-1.185,0.054c-0.439,0.125-0.774,0.325-1.038,0.573
		c-0.26,0.266-0.426,0.598-0.5,0.974c-0.07,0.394-0.051,0.834,0.071,1.338l0.408,1.704c0.167,0.694,0.419,1.191,0.79,1.5
		c0.365,0.289,0.844,0.367,1.379,0.225c0.341-0.094,0.597-0.253,0.794-0.444c0.191-0.216,0.3-0.472,0.353-0.756l0.497,1.679
		c0.086,0.292,0.133,0.524,0.114,0.71c-0.016,0.185-0.089,0.342-0.203,0.442c-0.091,0.094-0.233,0.183-0.434,0.236
		c-0.243,0.067-0.465,0.039-0.63-0.05c-0.172-0.111-0.327-0.339-0.411-0.653l-0.088-0.334l-1.437,0.364l0.057,0.231
		c0.12,0.505,0.31,0.904,0.575,1.219c0.263,0.291,0.578,0.503,0.988,0.598c0.388,0.102,0.841,0.07,1.359-0.074
		c0.812-0.23,1.356-0.624,1.625-1.16C82.936,127.769,82.938,127.111,82.684,126.328L82.684,126.328L82.684,126.328z M79.768,124.77
		L79.768,124.77c0.234-0.041,0.398-0.183,0.48-0.363c0.108-0.165,0.097-0.433,0.003-0.742l-0.49-1.662
		c-0.066-0.226-0.137-0.387-0.238-0.515c-0.095-0.107-0.203-0.189-0.332-0.197c-0.117-0.032-0.265-0.032-0.401,0.002
		c-0.138,0.04-0.263,0.12-0.345,0.21c-0.105,0.074-0.156,0.2-0.182,0.342c-0.021,0.16,0.005,0.334,0.066,0.562l0.446,1.673
		c0.085,0.312,0.214,0.548,0.372,0.638C79.333,124.824,79.543,124.855,79.768,124.77L79.768,124.77z M90.93,123.072l-0.334-0.679
		c-0.201-0.407-0.462-0.737-0.731-0.99c-0.28-0.224-0.616-0.373-0.982-0.394c0.199-0.282,0.299-0.619,0.289-0.977
		c-0.009-0.358-0.105-0.745-0.315-1.171l-0.135-0.272c-0.229-0.465-0.513-0.808-0.818-1.067c-0.296-0.238-0.654-0.382-1.025-0.42
		c-0.361-0.021-0.767,0.048-1.2,0.239c-0.417,0.185-0.738,0.44-0.966,0.721c-0.22,0.305-0.354,0.663-0.375,1.043
		c-0.032,0.408,0.052,0.842,0.241,1.324l0.112,0.282c0.177,0.442,0.396,0.771,0.656,1.019c0.259,0.246,0.575,0.398,0.92,0.443
		c-0.231,0.283-0.348,0.633-0.369,0.99c0.008,0.37,0.077,0.785,0.245,1.207l0.279,0.704c0.191,0.483,0.435,0.851,0.764,1.113
		c0.302,0.255,0.687,0.401,1.104,0.437c0.421,0.036,0.887-0.067,1.378-0.286c0.516-0.228,0.905-0.505,1.16-0.841
		c0.253-0.335,0.405-0.717,0.417-1.111C91.249,123.976,91.161,123.538,90.93,123.072L90.93,123.072L90.93,123.072z M87.862,124.434
		L87.862,124.434c0.11,0.259,0.245,0.459,0.367,0.572c0.144,0.104,0.271,0.167,0.423,0.173c0.153,0.005,0.316-0.021,0.463-0.087
		c0.168-0.075,0.297-0.178,0.374-0.285c0.098-0.117,0.157-0.262,0.156-0.429c0.019-0.174-0.039-0.41-0.157-0.666l-0.371-0.806
		c-0.154-0.334-0.353-0.552-0.564-0.646c-0.19-0.102-0.425-0.092-0.684,0.024c-0.239,0.107-0.404,0.271-0.477,0.49
		c-0.052,0.211-0.022,0.504,0.122,0.843L87.862,124.434L87.862,124.434z M86.147,120.416L86.147,120.416
		c0.102,0.237,0.217,0.401,0.335,0.516c0.137,0.104,0.258,0.17,0.4,0.18c0.145,0.01,0.298-0.013,0.424-0.093
		c0.165-0.05,0.283-0.148,0.374-0.261c0.089-0.111,0.121-0.246,0.136-0.42c-0.006-0.162-0.05-0.356-0.159-0.594l-0.217-0.472
		c-0.127-0.272-0.255-0.454-0.375-0.565c-0.146-0.123-0.265-0.188-0.402-0.196c-0.139-0.008-0.277,0.03-0.426,0.096
		c-0.131,0.059-0.251,0.136-0.338,0.243c-0.085,0.108-0.118,0.239-0.125,0.432c0.003,0.163,0.051,0.379,0.169,0.656L86.147,120.416
		L86.147,120.416z M93.778,120.654l0.674,1.187c0.876-0.499,1.74-1.02,2.591-1.56l0.94,1.479l1.369-0.895l-0.977-1.455l0.619-0.422
		l-0.773-1.122l-0.605,0.414l-3.63-5.406l-1.266,0.824C93.169,115.983,93.522,118.304,93.778,120.654L93.778,120.654L93.778,120.654
		z M96.312,119.131L96.312,119.131l-1.914-3.012c0.232,1.263,0.435,2.535,0.608,3.818L96.312,119.131z"/>
	<path fill-rule="evenodd" clip-rule="evenodd" fill="#363837" d="M105.238,31.5c0.458,0.787,1.663,1.373,2.771,1.483
		c1.291,0.129,2.05-0.425,2.142-1.093c0.094-0.659-0.496-1.419-1.813-1.526C107.209,30.269,105.86,30.744,105.238,31.5L105.238,31.5
		z M105.588,25.611c0.964-0.18,2.308,0.429,3.089,1.301c1.811,2.063-0.295,3.74-1.994,1.802
		C105.939,27.884,105.416,26.58,105.588,25.611L105.588,25.611z M111.445,109.524c-0.552,0.898-1.938,1.563-3.111,1.601
		c-1.366,0.047-2.018-0.642-2.019-1.314c0.004-0.678,0.647-1.351,1.987-1.422C109.452,108.329,110.84,108.749,111.445,109.524
		L111.445,109.524z M114.198,106.166c-0.657-0.733-2.07-1.058-3.213-0.919c-1.331,0.162-1.93,0.875-1.886,1.552
		c0.045,0.67,0.745,1.316,2.104,1.175C112.368,107.855,113.711,107.1,114.198,106.166L114.198,106.166z M116.717,102.626
		c-0.424,0.966-1.712,1.812-2.866,2.01c-1.346,0.23-2.087-0.365-2.179-1.03c-0.088-0.674,0.461-1.424,1.777-1.677
		C114.58,101.713,116.011,101.938,116.717,102.626L116.717,102.626z M118.989,98.922c-0.751-0.637-2.195-0.765-3.309-0.472
		c-1.297,0.341-1.79,1.128-1.658,1.793c0.139,0.659,0.916,1.202,2.244,0.88C117.406,100.847,118.631,99.914,118.989,98.922
		L118.989,98.922z M121.004,95.071c-0.288,1.015-1.45,2.029-2.567,2.382c-1.302,0.416-2.118-0.077-2.299-0.723
		c-0.178-0.655,0.262-1.475,1.532-1.905C118.761,94.459,120.211,94.486,121.004,95.071L121.004,95.071z M122.749,91.092
		c-0.832-0.53-2.279-0.459-3.342-0.018c-1.237,0.518-1.623,1.363-1.399,2.005c0.226,0.633,1.072,1.066,2.345,0.564
		C121.443,93.215,122.529,92.125,122.749,91.092L122.749,91.092z M124.217,86.999c-0.147,1.046-1.156,2.211-2.216,2.712
		c-1.235,0.588-2.105,0.215-2.376-0.401c-0.266-0.623,0.056-1.496,1.257-2.098C121.912,86.699,123.352,86.529,124.217,86.999
		L124.217,86.999z M125.4,82.818c-0.897-0.41-2.32-0.142-3.312,0.441c-1.155,0.681-1.421,1.572-1.109,2.178
		c0.307,0.596,1.208,0.91,2.397,0.237C124.397,85.102,125.325,83.868,125.4,82.818L125.4,82.818z M126.293,78.564
		c-0.003,1.053-0.843,2.345-1.822,2.988c-1.143,0.753-2.058,0.501-2.411-0.073c-0.348-0.58-0.147-1.489,0.958-2.248
		C123.968,78.583,125.372,78.217,126.293,78.564L126.293,78.564z M126.892,74.261c-0.943-0.285-2.317,0.177-3.221,0.89
		c-1.051,0.833-1.191,1.754-0.8,2.31c0.386,0.547,1.321,0.734,2.407-0.095C126.211,76.657,126.961,75.313,126.892,74.261
		L126.892,74.261z M127.197,69.93c0.141,1.043-0.517,2.436-1.399,3.206c-1.029,0.9-1.969,0.777-2.396,0.256
		c-0.423-0.526-0.351-1.454,0.642-2.357C124.896,70.263,126.236,69.711,127.197,69.93L127.197,69.93z M127.209,65.59
		c-0.973-0.156-2.272,0.485-3.07,1.314c-0.93,0.966-0.944,1.896-0.483,2.395c0.459,0.492,1.409,0.551,2.374-0.417
		C126.858,68.053,127.42,66.621,127.209,65.59L127.209,65.59z M126.931,61.256c0.278,1.016-0.186,2.484-0.957,3.366
		c-0.896,1.03-1.851,1.035-2.339,0.577c-0.495-0.467-0.544-1.396,0.319-2.423C124.695,61.895,125.948,61.169,126.931,61.256
		L126.931,61.256z M126.355,56.949c-0.983-0.021-2.186,0.791-2.865,1.721c-0.792,1.083-0.675,2.006-0.154,2.438
		c0.523,0.426,1.469,0.355,2.297-0.733C126.343,59.441,126.704,57.945,126.355,56.949L126.355,56.949z M125.488,52.689
		c0.415,0.971,0.156,2.489-0.487,3.468c-0.749,1.144-1.693,1.277-2.24,0.889c-0.553-0.395-0.726-1.308-0.012-2.443
		C123.362,53.63,124.504,52.736,125.488,52.689L125.488,52.689z M124.331,48.502c-0.979,0.112-2.057,1.083-2.604,2.096
		c-0.635,1.182-0.395,2.08,0.182,2.438c0.577,0.348,1.503,0.15,2.175-1.042C124.659,50.974,124.812,49.44,124.331,48.502
		L124.331,48.502z M122.887,44.4c0.545,0.904,0.496,2.444-0.008,3.502c-0.585,1.235-1.501,1.496-2.096,1.188
		c-0.604-0.314-0.899-1.196-0.35-2.419C120.909,45.623,121.918,44.581,122.887,44.4L122.887,44.4z M121.164,40.411
		c-0.952,0.247-1.889,1.354-2.29,2.433c-0.466,1.258-0.105,2.115,0.513,2.39c0.618,0.266,1.511-0.056,2.012-1.329
		C121.829,42.812,121.77,41.273,121.164,40.411L121.164,40.411z M119.174,36.547c0.663,0.819,0.824,2.353,0.471,3.471
		c-0.408,1.302-1.282,1.688-1.914,1.462c-0.639-0.229-1.055-1.062-0.676-2.348C117.382,38.03,118.239,36.859,119.174,36.547
		L119.174,36.547z M116.924,32.83c-0.912,0.376-1.688,1.601-1.937,2.723c-0.291,1.312,0.181,2.113,0.834,2.298
		c0.646,0.181,1.488-0.264,1.811-1.592C117.908,35.121,117.641,33.604,116.924,32.83L116.924,32.83z M114.425,29.276
		c0.769,0.722,1.141,2.217,0.94,3.371c-0.231,1.348-1.038,1.846-1.698,1.712c-0.661-0.141-1.189-0.906-0.989-2.233
		C112.852,30.987,113.542,29.714,114.425,29.276L114.425,29.276z M111.691,25.9c0.816,0.668,1.285,2.136,1.167,3.301
		c-0.137,1.358-0.913,1.913-1.577,1.821c-0.672-0.093-1.248-0.822-1.14-2.161C110.238,27.715,110.841,26.396,111.691,25.9
		L111.691,25.9z M105.024,103.888c-0.719,0.559-1.133,1.833-1.094,2.946c0.046,1.295,0.701,1.976,1.372,1.975
		c0.668,0.004,1.338-0.685,1.268-2.005C106.511,105.674,105.86,104.4,105.024,103.888L105.024,103.888z M107.41,100.977
		c0.867,0.456,1.604,1.681,1.738,2.808c0.161,1.31-0.462,2.041-1.128,2.084c-0.672,0.046-1.367-0.586-1.503-1.876
		C106.402,102.883,106.732,101.584,107.41,100.977L107.41,100.977z M109.592,97.912c-0.637,0.65-0.876,1.97-0.687,3.067
		c0.224,1.277,0.961,1.86,1.628,1.77c0.66-0.088,1.235-0.857,0.985-2.155C111.307,99.479,110.488,98.307,109.592,97.912
		L109.592,97.912z M111.559,94.707c0.922,0.333,1.817,1.446,2.104,2.543c0.338,1.276-0.181,2.085-0.835,2.217
		c-0.656,0.138-1.436-0.396-1.744-1.653C110.82,96.731,110.968,95.398,111.559,94.707L111.559,94.707z M113.302,91.374
		c-0.541,0.732-0.6,2.069-0.262,3.132c0.395,1.235,1.206,1.711,1.854,1.531c0.643-0.176,1.105-1.021,0.682-2.271
		C115.214,92.692,114.243,91.644,113.302,91.374L113.302,91.374z M114.812,87.931c0.958,0.206,1.998,1.185,2.434,2.232
		c0.508,1.219,0.103,2.092-0.525,2.311c-0.634,0.225-1.476-0.196-1.954-1.402C114.356,90.036,114.321,88.697,114.812,87.931
		L114.812,87.931z M116.081,84.395c-0.437,0.797-0.308,2.13,0.171,3.135c0.558,1.169,1.431,1.533,2.045,1.263
		c0.614-0.261,0.956-1.16,0.365-2.341C118.156,85.438,117.052,84.531,116.081,84.395L116.081,84.395z M117.104,80.776
		c0.978,0.07,2.145,0.897,2.717,1.875c0.672,1.139,0.39,2.058-0.202,2.361c-0.6,0.311-1.489,0.009-2.129-1.118
		C116.942,82.924,116.725,81.603,117.104,80.776L117.104,80.776z M117.875,77.097c-0.322,0.851-0.012,2.155,0.601,3.084
		c0.714,1.081,1.627,1.321,2.199,0.972c0.572-0.345,0.788-1.282,0.039-2.371C120.075,77.847,118.856,77.1,117.875,77.097
		L117.875,77.097z M118.395,73.37c0.978-0.062,2.245,0.599,2.947,1.489c0.821,1.035,0.668,1.984,0.124,2.366
		c-0.552,0.389-1.474,0.214-2.263-0.816C118.528,75.523,118.131,74.243,118.395,73.37L118.395,73.37z M118.659,69.616
		c-0.204,0.889,0.28,2.14,1.014,2.977c0.854,0.975,1.793,1.088,2.311,0.663c0.521-0.419,0.605-1.377-0.283-2.354
		C120.938,70.062,119.631,69.488,118.659,69.616L118.659,69.616z M118.67,65.852c0.961-0.194,2.304,0.29,3.12,1.077
		c0.955,0.916,0.931,1.877,0.442,2.33c-0.492,0.459-1.433,0.41-2.352-0.504C119.092,67.969,118.524,66.751,118.67,65.852
		L118.67,65.852z M118.428,62.095c-0.083,0.907,0.563,2.082,1.403,2.813c0.98,0.851,1.919,0.836,2.38,0.346
		c0.457-0.484,0.415-1.444-0.598-2.294C120.748,62.229,119.372,61.836,118.428,62.095L118.428,62.095z M117.931,58.367
		c0.926-0.323,2.322-0.024,3.238,0.644c1.065,0.78,1.177,1.733,0.75,2.248c-0.422,0.521-1.364,0.6-2.396-0.182
		C118.636,60.402,117.91,59.276,117.931,58.367L117.931,58.367z M117.181,54.682c0.9-0.385,2.315-0.185,3.274,0.423
		c1.119,0.701,1.289,1.647,0.902,2.191c-0.389,0.548-1.318,0.69-2.404-0.019C118.022,56.665,117.222,55.592,117.181,54.682
		L117.181,54.682z M116.179,51.061c0.105,0.903,0.977,1.919,1.948,2.464c1.129,0.633,2.052,0.427,2.398-0.146
		c0.352-0.568,0.112-1.499-1.052-2.123C118.477,50.718,117.052,50.613,116.179,51.061L116.179,51.061z M114.931,47.514
		c0.838-0.506,2.269-0.5,3.301-0.031c1.205,0.542,1.504,1.456,1.195,2.045c-0.311,0.599-1.212,0.865-2.385,0.312
		C116.036,49.363,115.096,48.408,114.931,47.514L114.931,47.514z M113.441,44.062c0.227,0.882,1.231,1.77,2.268,2.175
		c1.206,0.475,2.091,0.142,2.355-0.473c0.271-0.611-0.094-1.501-1.333-1.96C115.67,43.407,114.243,43.501,113.441,44.062
		L113.441,44.062z M111.718,40.719c0.763-0.615,2.18-0.804,3.266-0.482c1.268,0.371,1.69,1.236,1.465,1.863
		c-0.227,0.635-1.081,1.023-2.318,0.635C113.066,42.399,112.005,41.584,111.718,40.719L111.718,40.719z M109.771,37.503
		c0.718-0.667,2.118-0.952,3.227-0.706c1.289,0.284,1.769,1.119,1.586,1.759c-0.18,0.649-1.009,1.097-2.27,0.792
		C111.23,39.086,110.115,38.346,109.771,37.503L109.771,37.503z M107.607,34.427c0.401,0.815,1.565,1.48,2.663,1.667
		c1.276,0.216,2.077-0.288,2.211-0.944c0.141-0.654-0.399-1.449-1.705-1.647C109.656,33.332,108.278,33.712,107.607,34.427z"/>
	<path fill-rule="evenodd" clip-rule="evenodd" fill="#363837" d="M22.015,31.5c-0.458,0.789-1.663,1.375-2.771,1.485
		c-1.292,0.127-2.05-0.427-2.142-1.095c-0.093-0.657,0.497-1.418,1.813-1.525C20.045,30.27,21.394,30.744,22.015,31.5L22.015,31.5z
		 M21.666,25.611c-0.965-0.179-2.309,0.429-3.089,1.301c-1.811,2.063,0.295,3.74,1.994,1.802
		C21.313,27.885,21.838,26.582,21.666,25.611L21.666,25.611z M15.809,109.524c0.552,0.898,1.938,1.563,3.11,1.604
		c1.366,0.044,2.018-0.644,2.02-1.317c-0.004-0.676-0.648-1.349-1.987-1.421C17.802,108.33,16.414,108.749,15.809,109.524
		L15.809,109.524z M13.055,106.166c0.657-0.733,2.07-1.057,3.214-0.919c1.331,0.164,1.928,0.875,1.885,1.552
		c-0.044,0.671-0.745,1.316-2.103,1.177C14.886,107.857,13.543,107.1,13.055,106.166L13.055,106.166z M10.536,102.627
		c0.425,0.965,1.712,1.812,2.866,2.009c1.346,0.232,2.088-0.365,2.179-1.03c0.089-0.672-0.46-1.424-1.777-1.677
		C12.674,101.713,11.241,101.938,10.536,102.627L10.536,102.627z M8.265,98.924c0.75-0.638,2.195-0.767,3.308-0.474
		c1.297,0.342,1.791,1.129,1.659,1.795c-0.138,0.657-0.916,1.2-2.245,0.879C9.847,100.849,8.622,99.914,8.265,98.924L8.265,98.924z
		 M6.25,95.072c0.288,1.015,1.449,2.029,2.566,2.383c1.303,0.414,2.118-0.077,2.298-0.725c0.18-0.653-0.261-1.474-1.531-1.905
		C8.492,94.459,7.043,94.486,6.25,95.072L6.25,95.072z M4.504,91.092c0.831-0.528,2.281-0.457,3.342-0.016
		c1.238,0.518,1.624,1.363,1.398,2.003c-0.224,0.633-1.072,1.067-2.342,0.564C5.811,93.215,4.725,92.126,4.504,91.092L4.504,91.092z
		 M3.037,87.001c0.147,1.044,1.156,2.209,2.215,2.712c1.235,0.587,2.106,0.214,2.377-0.403c0.265-0.623-0.056-1.496-1.257-2.096
		C5.341,86.701,3.901,86.53,3.037,87.001L3.037,87.001z M1.853,82.818c0.897-0.41,2.32-0.141,3.313,0.441
		c1.155,0.682,1.421,1.573,1.109,2.179c-0.308,0.596-1.209,0.91-2.396,0.236C2.856,85.102,1.929,83.87,1.853,82.818L1.853,82.818z
		 M0.961,78.564c0.003,1.053,0.843,2.345,1.822,2.988c1.143,0.753,2.059,0.503,2.41-0.072c0.348-0.58,0.147-1.488-0.958-2.249
		C3.286,78.583,1.882,78.219,0.961,78.564L0.961,78.564z M0.361,74.261c0.945-0.283,2.317,0.177,3.222,0.89
		c1.051,0.835,1.191,1.754,0.8,2.31c-0.385,0.547-1.322,0.735-2.407-0.093C1.043,76.658,0.292,75.313,0.361,74.261L0.361,74.261z
		 M0.056,69.93c-0.141,1.043,0.517,2.436,1.399,3.206c1.03,0.9,1.97,0.778,2.396,0.257c0.424-0.525,0.353-1.454-0.642-2.357
		C2.357,70.263,1.017,69.712,0.056,69.93L0.056,69.93z M0.044,65.59c0.973-0.154,2.273,0.487,3.072,1.314
		c0.928,0.968,0.944,1.897,0.481,2.395c-0.459,0.492-1.409,0.551-2.372-0.417C0.396,68.055-0.166,66.623,0.044,65.59L0.044,65.59z
		 M0.323,61.256c-0.279,1.018,0.186,2.486,0.956,3.368c0.896,1.03,1.851,1.034,2.34,0.575c0.494-0.465,0.542-1.395-0.319-2.422
		C2.558,61.896,1.307,61.169,0.323,61.256L0.323,61.256z M0.897,56.951c0.984-0.022,2.186,0.791,2.866,1.72
		c0.791,1.083,0.674,2.007,0.154,2.438c-0.524,0.425-1.468,0.355-2.297-0.733C0.912,59.442,0.549,57.945,0.897,56.951L0.897,56.951z
		 M1.765,52.691c-0.414,0.969-0.156,2.488,0.488,3.468c0.749,1.143,1.692,1.277,2.239,0.889c0.554-0.395,0.728-1.308,0.012-2.445
		C3.892,53.63,2.749,52.738,1.765,52.691L1.765,52.691z M2.923,48.502c0.978,0.113,2.057,1.083,2.603,2.097
		c0.635,1.183,0.396,2.081-0.181,2.437c-0.576,0.349-1.503,0.151-2.175-1.04C2.595,50.975,2.44,49.441,2.923,48.502L2.923,48.502z
		 M4.366,44.401c-0.544,0.903-0.495,2.443,0.008,3.501c0.584,1.235,1.502,1.498,2.097,1.188c0.603-0.312,0.899-1.194,0.348-2.418
		C6.344,45.623,5.335,44.582,4.366,44.401L4.366,44.401z M6.089,40.411c0.953,0.247,1.889,1.355,2.29,2.433
		c0.467,1.26,0.105,2.115-0.513,2.391c-0.619,0.266-1.511-0.057-2.012-1.33C5.424,42.814,5.484,41.275,6.089,40.411L6.089,40.411z
		 M8.08,36.548c-0.664,0.819-0.826,2.353-0.472,3.47c0.409,1.302,1.282,1.688,1.913,1.462c0.64-0.229,1.057-1.061,0.678-2.348
		C9.871,38.03,9.014,36.859,8.08,36.548L8.08,36.548z M10.33,32.832c0.911,0.376,1.687,1.599,1.937,2.722
		c0.289,1.311-0.182,2.112-0.834,2.297c-0.646,0.181-1.489-0.262-1.811-1.591C9.346,35.122,9.613,33.604,10.33,32.832L10.33,32.832z
		 M12.828,29.278c-0.768,0.722-1.14,2.216-0.94,3.369c0.232,1.349,1.038,1.846,1.697,1.713c0.662-0.142,1.191-0.907,0.991-2.234
		C14.401,30.988,13.711,29.714,12.828,29.278L12.828,29.278z M15.562,25.902c-0.816,0.668-1.285,2.136-1.166,3.3
		c0.136,1.357,0.912,1.914,1.575,1.822c0.674-0.095,1.251-0.824,1.141-2.162C17.016,27.716,16.412,26.397,15.562,25.902
		L15.562,25.902z M22.229,103.888c0.72,0.56,1.133,1.834,1.095,2.946c-0.046,1.296-0.701,1.978-1.373,1.976
		c-0.667,0.003-1.337-0.686-1.267-2.004C20.743,105.674,21.394,104.402,22.229,103.888L22.229,103.888z M19.844,100.979
		c-0.868,0.456-1.604,1.681-1.739,2.806c-0.162,1.311,0.463,2.041,1.128,2.084c0.671,0.046,1.368-0.585,1.503-1.876
		C20.851,102.884,20.521,101.586,19.844,100.979L19.844,100.979z M17.662,97.913c0.638,0.651,0.875,1.969,0.686,3.068
		c-0.223,1.277-0.961,1.858-1.628,1.769c-0.659-0.087-1.234-0.858-0.984-2.156C15.947,99.48,16.767,98.309,17.662,97.913
		L17.662,97.913z M15.695,94.707c-0.922,0.334-1.817,1.447-2.104,2.543c-0.339,1.277,0.18,2.088,0.834,2.217
		c0.658,0.138,1.438-0.395,1.745-1.653C16.433,96.731,16.285,95.4,15.695,94.707L15.695,94.707z M13.951,91.376
		c0.542,0.73,0.6,2.067,0.262,3.13c-0.395,1.236-1.206,1.713-1.854,1.531c-0.643-0.175-1.105-1.019-0.681-2.27
		C12.039,92.693,13.011,91.645,13.951,91.376L13.951,91.376z M12.443,87.931c-0.959,0.206-1.999,1.187-2.435,2.232
		c-0.509,1.22-0.104,2.092,0.524,2.312c0.636,0.224,1.477-0.197,1.954-1.401C12.897,90.037,12.933,88.698,12.443,87.931
		L12.443,87.931z M11.173,84.395c0.437,0.797,0.308,2.132-0.172,3.137c-0.557,1.169-1.431,1.531-2.044,1.263
		c-0.615-0.262-0.956-1.16-0.364-2.343C9.098,85.438,10.203,84.531,11.173,84.395L11.173,84.395z M10.149,80.776
		c-0.976,0.07-2.143,0.898-2.715,1.876c-0.672,1.139-0.391,2.058,0.2,2.362c0.6,0.309,1.489,0.009,2.129-1.12
		C10.312,82.925,10.53,81.604,10.149,80.776L10.149,80.776z M9.378,77.099c0.322,0.849,0.012,2.153-0.6,3.082
		c-0.714,1.083-1.627,1.322-2.199,0.972c-0.572-0.344-0.789-1.282-0.04-2.369C7.179,77.849,8.397,77.102,9.378,77.099L9.378,77.099z
		 M8.858,73.372c-0.977-0.064-2.245,0.598-2.947,1.487c-0.82,1.035-0.666,1.984-0.123,2.367c0.553,0.389,1.474,0.213,2.262-0.817
		C8.726,75.523,9.122,74.245,8.858,73.372L8.858,73.372z M8.595,69.618c0.203,0.889-0.28,2.139-1.014,2.977
		c-0.854,0.973-1.793,1.087-2.311,0.662c-0.521-0.418-0.604-1.377,0.283-2.353C6.315,70.063,7.623,69.488,8.595,69.618L8.595,69.618
		z M8.584,65.853c-0.961-0.195-2.305,0.289-3.121,1.076c-0.954,0.917-0.93,1.877-0.442,2.33c0.493,0.46,1.434,0.41,2.353-0.503
		C8.161,67.969,8.729,66.751,8.584,65.853L8.584,65.853z M8.826,62.095c0.083,0.907-0.563,2.083-1.403,2.814
		c-0.98,0.851-1.919,0.836-2.38,0.345C4.587,64.77,4.627,63.81,5.64,62.96C6.507,62.229,7.882,61.836,8.826,62.095L8.826,62.095z
		 M9.322,58.367C8.397,58.045,7,58.343,6.085,59.014c-1.067,0.777-1.178,1.73-0.751,2.245c0.423,0.521,1.365,0.602,2.397-0.181
		C8.617,60.404,9.344,59.278,9.322,58.367L9.322,58.367z M10.073,54.683c-0.9-0.386-2.315-0.184-3.274,0.422
		c-1.119,0.703-1.29,1.649-0.903,2.191c0.39,0.548,1.319,0.69,2.404-0.019C9.231,56.666,10.031,55.592,10.073,54.683L10.073,54.683z
		 M11.074,51.061c-0.104,0.904-0.977,1.919-1.948,2.464c-1.128,0.634-2.052,0.428-2.398-0.146c-0.352-0.566-0.112-1.499,1.051-2.123
		C8.776,50.718,10.202,50.613,11.074,51.061L11.074,51.061z M12.323,47.514c-0.839-0.504-2.269-0.5-3.301-0.031
		c-1.205,0.543-1.505,1.456-1.196,2.045c0.311,0.6,1.213,0.867,2.385,0.312C11.218,49.363,12.157,48.41,12.323,47.514L12.323,47.514
		z M13.812,44.062c-0.228,0.883-1.231,1.77-2.268,2.177c-1.206,0.473-2.092,0.142-2.356-0.474c-0.271-0.612,0.095-1.502,1.333-1.96
		C11.582,43.407,13.009,43.501,13.812,44.062L13.812,44.062z M15.536,40.721c-0.763-0.617-2.18-0.806-3.267-0.482
		c-1.268,0.371-1.688,1.235-1.465,1.861c0.228,0.635,1.081,1.023,2.318,0.636C14.188,42.401,15.248,41.584,15.536,40.721
		L15.536,40.721z M17.483,37.504c-0.719-0.667-2.119-0.953-3.226-0.706c-1.29,0.283-1.771,1.118-1.588,1.76
		c0.181,0.647,1.009,1.095,2.27,0.792C16.022,39.088,17.139,38.346,17.483,37.504L17.483,37.504z M19.646,34.427
		c-0.401,0.815-1.565,1.48-2.663,1.667c-1.276,0.216-2.076-0.288-2.21-0.944c-0.141-0.653,0.399-1.449,1.704-1.647
		C17.598,33.332,18.975,33.712,19.646,34.427z"/>
	<path fill-rule="evenodd" clip-rule="evenodd" fill="#8C8C8C" d="M21.891,89.377h83.472v0.571H21.891V89.377L21.891,89.377z
		 M21.891,45.196h83.472v0.571H21.891V45.196z"/>
	<path fill-rule="evenodd" clip-rule="evenodd" fill="#8C8C8C" d="M91.476,41.189c-3.077-1.373-5.471-3.616-8.377-4.697
		c-1.411-0.541-3.001-0.71-4.232-0.056c-0.575,0.314-0.997,0.881-1.14,1.522c-0.149,0.633-0.009,1.352,0.345,1.892
		c0.486,0.75,1.465,1.046,2.237,0.805c0.749-0.188,1.229-1.018,1.183-1.655c-0.019-0.643-0.681-1.053-1.209-1.074
		c-0.381-0.03-0.671,0.144-0.865,0.36c-0.024,0.025-0.063,0.031-0.094,0.013s-0.043-0.058-0.029-0.09
		c0.032-0.08,0.077-0.163,0.137-0.245c0.164-0.227,0.46-0.412,0.82-0.468c0.36-0.058,0.771,0.008,1.159,0.217
		c0.394,0.206,0.751,0.65,0.842,1.176c0.098,0.523-0.014,1.079-0.285,1.569c-0.26,0.487-0.756,0.946-1.347,1.138
		c-1.142,0.433-2.678,0.022-3.438-1.15c-0.524-0.802-0.711-1.789-0.499-2.724c0.203-0.929,0.825-1.767,1.666-2.222
		c0.832-0.439,1.729-0.591,2.612-0.557c0.88,0.036,1.722,0.253,2.509,0.545c3.156,1.196,5.603,3.479,8.418,4.711
		c0.965,0.4,1.999,0.636,2.841,0.5c0.844-0.111,1.455-0.738,1.469-1.379c0.016-0.31-0.122-0.63-0.313-0.854
		c-0.197-0.227-0.466-0.377-0.732-0.442c-0.371-0.099-0.714-0.04-0.986,0.074c-0.033,0.013-0.071,0.002-0.09-0.029
		c-0.02-0.03-0.014-0.07,0.013-0.094c0.244-0.216,0.626-0.401,1.122-0.378c0.352,0.013,0.752,0.139,1.097,0.425
		c0.338,0.289,0.613,0.724,0.66,1.266c0.05,0.538-0.159,1.108-0.539,1.536c-0.377,0.438-0.938,0.727-1.508,0.849
		C93.75,41.908,92.58,41.635,91.476,41.189L91.476,41.189z M35.778,41.189c3.077-1.373,5.471-3.616,8.377-4.697
		c1.41-0.541,3.001-0.71,4.231-0.056c0.576,0.314,0.997,0.881,1.14,1.522c0.15,0.633,0.01,1.352-0.345,1.892
		c-0.486,0.75-1.466,1.046-2.237,0.805c-0.748-0.188-1.229-1.018-1.183-1.655c0.019-0.643,0.681-1.053,1.211-1.074
		c0.38-0.03,0.668,0.144,0.863,0.36c0.024,0.025,0.063,0.031,0.095,0.013c0.029-0.019,0.041-0.058,0.028-0.09
		c-0.031-0.08-0.076-0.163-0.136-0.245c-0.166-0.227-0.46-0.412-0.821-0.468c-0.36-0.058-0.771,0.008-1.159,0.217
		c-0.394,0.206-0.75,0.65-0.843,1.176c-0.097,0.523,0.015,1.079,0.287,1.569c0.259,0.487,0.755,0.946,1.345,1.138
		c1.143,0.433,2.68,0.022,3.439-1.15c0.524-0.802,0.711-1.789,0.5-2.724c-0.204-0.929-0.826-1.767-1.666-2.222
		c-0.832-0.439-1.729-0.591-2.613-0.557c-0.881,0.036-1.722,0.253-2.51,0.545c-3.155,1.196-5.602,3.479-8.417,4.711
		c-0.965,0.4-1.999,0.636-2.841,0.5c-0.844-0.111-1.455-0.738-1.469-1.379c-0.017-0.31,0.122-0.63,0.314-0.854
		c0.197-0.227,0.466-0.377,0.732-0.442c0.371-0.099,0.714-0.04,0.985,0.074c0.034,0.013,0.071,0.002,0.091-0.029
		c0.02-0.03,0.014-0.07-0.014-0.094c-0.243-0.216-0.625-0.401-1.121-0.378c-0.352,0.013-0.753,0.139-1.097,0.425
		c-0.338,0.289-0.614,0.724-0.66,1.266c-0.05,0.538,0.157,1.108,0.538,1.536c0.378,0.438,0.938,0.727,1.508,0.849
		C33.504,41.908,34.674,41.635,35.778,41.189z"/>
	<path fill="#363837" d="M43.043,96.96c0.689,0,1.192,0.133,1.507,0.401c0.315,0.268,0.473,0.68,0.473,1.233
		c0,0.556-0.161,0.962-0.485,1.219c-0.323,0.258-0.817,0.386-1.481,0.386h-0.598v1.254h-1.003V96.96H43.043L43.043,96.96z
		 M43.133,99.331c0.334,0,0.562-0.067,0.682-0.203c0.12-0.135,0.181-0.332,0.181-0.59c0-0.261-0.079-0.444-0.235-0.552
		c-0.156-0.11-0.399-0.166-0.729-0.166h-0.572v1.511H43.133L43.133,99.331z M51.621,98.45c0,0.721-0.284,1.185-0.854,1.396
		l1.137,1.607h-1.233l-0.997-1.434h-0.694v1.434h-1.003V96.96h1.704c0.699,0,1.195,0.117,1.494,0.354
		C51.474,97.549,51.621,97.929,51.621,98.45L51.621,98.45z M49.713,99.152c0.343,0,0.576-0.056,0.7-0.169
		c0.124-0.111,0.187-0.287,0.187-0.53c0-0.241-0.065-0.408-0.193-0.497c-0.128-0.09-0.353-0.136-0.674-0.136h-0.753v1.332H49.713
		L49.713,99.152z M58.06,96.96v0.892h-2.237v0.928h2.012v0.854h-2.012v0.933h2.308v0.887h-3.31V96.96H58.06L58.06,96.96z
		 M65.218,98.624l-1.216,2.455h-0.597l-1.209-2.455v2.829h-1.002V96.96h1.355l1.158,2.468l1.163-2.468h1.35v4.493h-1.003V98.624
		L65.218,98.624z M69.496,96.96h1.003v4.493h-1.003V96.96L69.496,96.96z M74.963,100.291c0.168,0.21,0.393,0.313,0.676,0.313
		c0.282,0,0.506-0.104,0.672-0.313c0.164-0.207,0.247-0.49,0.247-0.851v-2.48h1.003v2.514c0,0.65-0.181,1.15-0.541,1.5
		c-0.358,0.35-0.82,0.523-1.381,0.523c-0.562,0-1.023-0.176-1.386-0.527c-0.361-0.352-0.543-0.849-0.543-1.496V96.96h1.002v2.48
		C74.712,99.801,74.797,100.084,74.963,100.291L74.963,100.291z M84.795,98.624l-1.215,2.455h-0.597l-1.209-2.455v2.829h-1.004
		V96.96h1.357l1.156,2.468l1.163-2.468h1.351v4.493h-1.003V98.624L84.795,98.624z M49.764,109.287h-1.968v-4.492h1.75
		c0.303,0,0.566,0.037,0.787,0.108c0.221,0.073,0.387,0.173,0.499,0.296c0.2,0.231,0.301,0.493,0.301,0.784
		c0,0.352-0.112,0.613-0.34,0.785c-0.078,0.06-0.131,0.097-0.161,0.112c-0.03,0.015-0.084,0.039-0.161,0.074
		c0.278,0.061,0.501,0.185,0.665,0.376c0.165,0.19,0.248,0.426,0.248,0.71c0,0.312-0.106,0.589-0.322,0.828
		C50.813,109.148,50.381,109.287,49.764,109.287L49.764,109.287z M48.8,106.614h0.475c0.28,0,0.486-0.03,0.621-0.09
		c0.135-0.061,0.202-0.19,0.202-0.389c0-0.2-0.062-0.332-0.186-0.396c-0.125-0.064-0.335-0.097-0.63-0.097H48.8V106.614
		L48.8,106.614z M48.8,108.44h0.688c0.286,0,0.503-0.036,0.646-0.107c0.143-0.07,0.215-0.21,0.215-0.418s-0.075-0.345-0.228-0.411
		c-0.153-0.066-0.396-0.099-0.73-0.099H48.8V108.44L48.8,108.44z M58.04,106.285c0,0.722-0.284,1.186-0.854,1.396l1.138,1.605
		h-1.234l-0.996-1.432h-0.693v1.432h-1.004v-4.492h1.703c0.699,0,1.197,0.117,1.495,0.354
		C57.892,105.384,58.04,105.764,58.04,106.285L58.04,106.285z M56.132,106.987c0.342,0,0.576-0.058,0.7-0.168
		c0.124-0.111,0.187-0.288,0.187-0.531c0-0.24-0.064-0.407-0.192-0.497c-0.129-0.09-0.354-0.135-0.676-0.135h-0.751v1.331H56.132
		L56.132,106.987z M64.44,109.287l-0.419-0.97h-1.883l-0.417,0.97h-1.068l1.941-4.492h0.971l1.94,4.492H64.44L64.44,109.287z
		 M63.084,106.133l-0.565,1.303h1.125L63.084,106.133L63.084,106.133z M71.341,104.795h1.003v4.492h-1.003l-2.141-2.814v2.814
		h-1.003v-4.492h0.938l2.205,2.893V104.795L71.341,104.795z M77.207,104.795c0.8,0,1.416,0.196,1.845,0.588
		c0.428,0.393,0.643,0.938,0.643,1.637c0,0.699-0.21,1.251-0.626,1.656c-0.419,0.409-1.056,0.611-1.914,0.611h-1.535v-4.492H77.207
		L77.207,104.795z M77.258,108.4c0.459,0,0.811-0.116,1.058-0.347c0.247-0.232,0.369-0.568,0.369-1.01s-0.122-0.78-0.369-1.019
		c-0.247-0.237-0.624-0.356-1.135-0.356h-0.559v2.731H77.258z"/>
	<path fill-rule="evenodd" clip-rule="evenodd" fill="#363837" d="M56.679,41.764h13.896c0.637,0,1.158-0.52,1.158-1.157
		c0-0.635-0.524-1.159-1.158-1.159H56.679c-0.636,0-1.157,0.521-1.157,1.159C55.521,41.241,56.046,41.764,56.679,41.764
		L56.679,41.764z M70.574,37.904h-6.947h-6.948c-0.316,0-0.588-0.19-0.708-0.463l-4.599-8.432c-0.069-0.125-0.096-0.24-0.096-0.369
		c0-0.301,0.145-0.543,0.403-0.675c0.204-0.112,0.438-0.121,0.639-0.045l6.266,2.088l4.343-9.411c0.13-0.28,0.409-0.449,0.7-0.449
		s0.569,0.169,0.699,0.449l4.344,9.411l6.266-2.088c0.202-0.076,0.435-0.067,0.639,0.045c0.259,0.132,0.403,0.374,0.403,0.675
		c0,0.129-0.026,0.244-0.096,0.369l-4.6,8.432C71.162,37.714,70.891,37.904,70.574,37.904z"/>
	<path fill="#363837" d="M24.563,55.957c0.917,0,1.646,0.162,2.189,0.483s0.931,0.783,1.165,1.386
		c0.235,0.604,0.349,1.341,0.342,2.204v3.671c0.007,0.864-0.12,1.594-0.367,2.203c-0.255,0.603-0.65,1.064-1.206,1.388
		c-0.55,0.321-1.267,0.481-2.164,0.481H21.95c0-1.091,0-2.116,0-3.081s0-1.909,0-2.826c0-0.926,0-1.862,0-2.827
		c0-0.964,0-1.99,0-3.082H24.563L24.563,55.957z M27.858,77.981c0.194,0.536,0.375,1.037,0.543,1.514
		c0.167,0.476,0.368,0.892,0.597,1.253c0.233,0.362,0.542,0.649,0.924,0.857c0.382,0.207,0.891,0.309,1.514,0.313
		c0.301,0,0.622-0.013,0.979-0.047c0.347-0.033,0.696-0.086,1.03-0.16c0.342-0.08,0.65-0.182,0.924-0.314V79.83
		c-0.32,0.067-0.608,0.033-0.863-0.102c-0.255-0.127-0.476-0.321-0.67-0.575c-0.201-0.247-0.368-0.529-0.509-0.83
		c-0.147-0.295-0.269-0.591-0.368-0.863l-1.89-5.186c-0.14-0.415-0.307-0.777-0.488-1.099c-0.188-0.321-0.409-0.604-0.684-0.857
		c-0.268-0.255-0.596-0.482-0.997-0.696c0.877-0.173,1.659-0.51,2.337-0.997c0.684-0.49,1.22-1.146,1.608-1.964
		c0.388-0.815,0.589-1.809,0.596-2.96V60.03c-0.007-1.227-0.215-2.258-0.624-3.102c-0.401-0.844-0.964-1.513-1.688-2.023
		c-0.717-0.509-1.554-0.877-2.506-1.104c-0.943-0.229-1.968-0.343-3.06-0.335h-8.159v1.167l1.486,1.044c0,3.918,0,7.864,0,11.822
		c0,3.965,0,7.903,0,11.81l-1.768,1.205v1.164c0.784,0,1.621,0,2.499,0c0.877,0,1.761,0,2.639,0c0.884,0,1.715,0,2.498,0v-1.164
		l-1.769-1.205c0-0.651,0-1.374,0-2.171c0-0.79,0-1.608,0-2.444c0-0.845,0-1.656,0-2.445c0-0.79,0-1.5,0-2.143
		c0.777-0.008,1.407,0.065,1.89,0.227c0.477,0.154,0.864,0.435,1.164,0.83c0.31,0.402,0.592,0.958,0.845,1.675L27.858,77.981
		L27.858,77.981z M51.892,81.678v-6.31h-1.768l-1.368,3.859c-1.145,0-2.283,0-3.415,0s-2.271,0-3.417,0v-0.201
		c0.336-0.114,0.563-0.274,0.678-0.47c0.12-0.199,0.175-0.454,0.166-0.775c0-1.487,0-2.968,0-4.441c0-1.475,0-2.955,0-4.44h3.858
		l1.046,2.129h1.205c0-0.669,0-1.4,0-2.196c0-0.805,0-1.602,0-2.397c0-0.805,0-1.535,0-2.204h-1.205l-1.046,2.217h-3.858
		c0-1.776,0-3.55,0-5.318c0-1.775,0-3.538,0-5.291h5.467l1.126,3.951h2.009v-6.323c-1.628,0-3.229,0-4.796,0
		c-1.574,0-3.142,0-4.716,0c-1.567,0-3.169,0-4.795,0v1.045l1.527,1.045c0,3.951,0,7.91,0,11.869c0,3.966,0,7.925,0,11.884
		l-1.81,1.205v1.164c2.532,0,5.058,0,7.568,0C46.868,81.678,49.379,81.678,51.892,81.678L51.892,81.678z M67.807,55.999l1.366,4.62
		h1.929l-0.161-7.153H54.584l-0.161,7.153h1.93l1.286-4.62h3.014c0,7.688,0,15.371,0,23.061l-1.768,1.252v1.366
		c0.777,0,1.614,0,2.512,0s1.802,0,2.706,0s1.748,0,2.539,0v-1.366l-1.769-1.252c0-7.689,0-15.372,0-23.061H67.807L67.807,55.999z
		 M82.194,55.957c0.917,0,1.647,0.162,2.189,0.483c0.543,0.321,0.932,0.783,1.166,1.386c0.234,0.604,0.349,1.341,0.342,2.204v3.671
		c0.007,0.864-0.12,1.594-0.368,2.203c-0.255,0.603-0.65,1.064-1.207,1.388c-0.548,0.321-1.265,0.481-2.162,0.481h-2.572
		c0-1.091,0-2.116,0-3.081s0-1.909,0-2.826c0-0.926,0-1.862,0-2.827c0-0.964,0-1.99,0-3.082H82.194L82.194,55.957z M85.49,77.981
		c0.194,0.536,0.374,1.037,0.542,1.514c0.168,0.476,0.368,0.892,0.596,1.253c0.234,0.362,0.543,0.649,0.925,0.857
		c0.382,0.207,0.892,0.309,1.514,0.313c0.302,0,0.623-0.013,0.978-0.047c0.349-0.033,0.697-0.086,1.031-0.16
		c0.343-0.08,0.65-0.182,0.925-0.314V79.83c-0.321,0.067-0.609,0.033-0.864-0.102c-0.254-0.127-0.475-0.321-0.669-0.575
		c-0.201-0.247-0.369-0.529-0.51-0.83c-0.146-0.295-0.268-0.591-0.368-0.863L87.7,72.274c-0.141-0.415-0.308-0.777-0.489-1.099
		c-0.188-0.321-0.409-0.604-0.683-0.857c-0.269-0.255-0.596-0.482-0.999-0.696c0.878-0.173,1.661-0.51,2.339-0.997
		c0.683-0.49,1.219-1.146,1.607-1.964c0.389-0.815,0.589-1.809,0.596-2.96V60.03c-0.007-1.227-0.215-2.258-0.623-3.102
		c-0.401-0.844-0.965-1.513-1.688-2.023c-0.717-0.509-1.554-0.877-2.506-1.104c-0.944-0.229-1.97-0.343-3.061-0.335h-8.158v1.167
		l1.486,1.044c0,3.918,0,7.864,0,11.822c0,3.965,0,7.903,0,11.81l-1.769,1.205v1.164c0.784,0,1.621,0,2.498,0
		c0.878,0,1.763,0,2.64,0c0.885,0,1.715,0,2.499,0v-1.164l-1.769-1.205c0-0.651,0-1.374,0-2.171c0-0.79,0-1.608,0-2.444
		c0-0.845,0-1.656,0-2.445c0-0.79,0-1.5,0-2.143c0.777-0.008,1.406,0.065,1.89,0.227c0.475,0.154,0.863,0.435,1.165,0.83
		c0.308,0.402,0.589,0.958,0.844,1.675L85.49,77.981L85.49,77.981z M111.131,60.58c-0.007-1.521-0.343-2.847-0.999-3.967
		c-0.656-1.125-1.58-1.996-2.785-2.61c-1.207-0.617-2.64-0.932-4.295-0.939c-1.64,0.008-3.061,0.328-4.26,0.944
		c-1.198,0.625-2.13,1.501-2.779,2.618c-0.656,1.126-0.991,2.439-0.997,3.954v13.984c0.006,1.508,0.341,2.828,0.997,3.953
		c0.649,1.118,1.581,1.988,2.779,2.611c1.199,0.623,2.62,0.945,4.26,0.952c1.655-0.007,3.088-0.322,4.295-0.939
		c1.205-0.614,2.129-1.485,2.785-2.61c0.656-1.12,0.992-2.445,0.999-3.967V60.58L111.131,60.58z M99.193,60.58
		c-0.006-1.595,0.309-2.795,0.932-3.604c0.63-0.812,1.607-1.22,2.927-1.22c0.898,0.006,1.636,0.227,2.218,0.656
		c0.583,0.436,1.019,1.012,1.3,1.735c0.28,0.723,0.421,1.534,0.421,2.432v13.984c0,0.657-0.08,1.28-0.233,1.856
		c-0.161,0.583-0.401,1.092-0.724,1.534c-0.321,0.449-0.736,0.797-1.226,1.045c-0.496,0.254-1.085,0.382-1.756,0.388
		c-1.319-0.006-2.297-0.416-2.927-1.232c-0.623-0.824-0.938-2.018-0.932-3.591V60.58z"/>
</g>
</svg>
