<?xml version="1.0" encoding="utf-8"?>
<!-- Generator: Adobe Illustrator 16.0.0, SVG Export Plug-In . SVG Version: 6.00 Build 0)  -->
<!DOCTYPE svg PUBLIC "-//W3C//DTD SVG 1.1//EN" "http://www.w3.org/Graphics/SVG/1.1/DTD/svg11.dtd">
<svg version="1.1" id="Layer_1" xmlns="http://www.w3.org/2000/svg" xmlns:xlink="http://www.w3.org/1999/xlink" x="0px" y="0px"
	 width="125.919px" height="129.774px" viewBox="0 0 125.919 129.774" enable-background="new 0 0 125.919 129.774"
	 xml:space="preserve">
<g>
	<path fill-rule="evenodd" clip-rule="evenodd" fill="#373737" d="M98.614,81.288l-0.053,0.065
		c-0.783,0.981-1.605,1.932-2.465,2.847c-0.259,0.273-0.609,0.341-0.788,0.168c-0.177-0.173-0.129-0.526,0.124-0.794
		c0.843-0.896,1.648-1.826,2.416-2.788L98,80.591c-0.365-0.914-0.76-1.814-1.174-2.695c-0.768-1.614,0.023-2.521,0.748-3.708
		c0.507,0.851,0.976,1.713,1.437,2.604c0.356,0.659,0.401,1.631,0.125,2.294c0.519-0.721,1.02-1.457,1.495-2.207
		c-0.457-0.872-0.943-1.73-1.442-2.561c-0.459-0.771-0.574-1.905-0.236-2.564c0.209-0.396,0.41-0.797,0.602-1.2
		c0.587,0.791,1.151,1.604,1.694,2.441c0.423,0.621,0.569,1.583,0.338,2.305c0.456-0.779,0.875-1.579,1.284-2.382
		c-0.553-0.827-1.107-1.622-1.698-2.403c-1.075-1.421-0.488-2.471-0.019-3.778c0.654,0.724,1.311,1.481,1.932,2.255
		c0.487,0.576,0.726,1.515,0.573,2.259c0.368-0.824,0.715-1.657,1.03-2.504c-0.624-0.76-1.271-1.501-1.933-2.214
		c-1.221-1.306-0.75-2.371-0.418-3.72c0.735,0.644,1.457,1.312,2.165,2.008c0.542,0.523,0.877,1.433,0.803,2.188
		c0.275-0.859,0.543-1.723,0.767-2.596c-0.696-0.692-1.425-1.363-2.149-2.003c-1.351-1.173-0.994-2.284-0.802-3.658
		c0.808,0.566,1.581,1.155,2.364,1.775c0.579,0.503,1.02,1.334,1.02,2.094c0.194-0.881,0.358-1.769,0.498-2.66
		c-0.768-0.617-1.555-1.21-2.345-1.773c-1.46-1.028-1.223-2.171-1.169-3.561c0.857,0.481,1.692,0.989,2.53,1.526
		c0.63,0.441,1.153,1.225,1.229,1.978c0.108-0.896,0.173-1.796,0.226-2.697c-0.833-0.522-1.668-1.018-2.515-1.486
		c-1.554-0.916-1.437-2.079-1.523-3.466c0.902,0.393,1.785,0.814,2.671,1.264c0.675,0.376,1.272,1.103,1.424,1.846
		c0.017-0.902-0.01-1.805-0.046-2.707c-0.886-0.436-1.76-0.847-2.653-1.227c-1.635-0.755-1.639-1.92-1.864-3.291
		c0.934,0.298,1.861,0.628,2.784,0.986c0.713,0.304,1.378,1.008,1.604,1.69c-0.076-0.899-0.191-1.796-0.32-2.688
		c-0.926-0.343-1.835-0.662-2.766-0.948c-1.702-0.584-1.821-1.742-2.188-3.081c0.953,0.203,1.918,0.434,2.869,0.695
		c0.74,0.228,1.473,0.861,1.769,1.518c-0.17-0.886-0.369-1.767-0.596-2.64c-0.95-0.249-1.896-0.471-2.846-0.662
		c-1.747-0.368-1.988-1.546-2.493-2.84c0.968,0.104,1.951,0.233,2.926,0.396c0.759,0.152,1.553,0.707,1.915,1.327
		c-0.263-0.848-0.538-1.694-0.852-2.525c-0.97-0.166-1.946-0.298-2.911-0.404c-1.776-0.185-2.139-1.332-2.773-2.567
		c0.99,0.01,1.969,0.058,2.972,0.129c0.748,0.04,1.6,0.506,2.021,1.089c-0.345-0.819-0.71-1.63-1.105-2.426
		c-0.982-0.065-1.967-0.097-2.937-0.104c-1.786-0.004-2.268-1.107-3.022-2.273c0.981-0.088,1.971-0.146,2.966-0.173
		c0.752-0.038,1.648,0.339,2.125,0.876c-0.422-0.782-0.88-1.545-1.346-2.302c-0.991,0.041-1.961,0.101-2.936,0.198
		c-1.775,0.176-2.363-0.875-3.236-1.958c0.961-0.181,1.947-0.346,2.934-0.471c0.745-0.117,1.67,0.172,2.202,0.655l-0.855-1.204
		c-2.858-1.089-2.936-1.52-3.562-4.918c3.338,0.833,3.998,1.312,4.297,4.377c0.3,0.404,0.587,0.815,0.874,1.229
		c-0.266-0.679-0.267-1.666,0.027-2.374c0.381-0.951,0.724-1.91,1.057-2.896c1.052,1.305,2.04,2.49,1.279,4.183
		c-0.409,0.913-0.854,1.819-1.307,2.695c0.476,0.771,0.941,1.551,1.372,2.349c-0.188-0.703-0.095-1.683,0.27-2.359
		c0.473-0.905,0.922-1.829,1.344-2.772c0.913,1.405,1.78,2.686,0.853,4.29c-0.509,0.873-1.029,1.721-1.579,2.551
		c0.403,0.812,0.776,1.64,1.129,2.476c-0.12-0.72,0.074-1.684,0.511-2.32c0.554-0.849,1.104-1.728,1.617-2.62
		c0.767,1.49,1.494,2.854,0.408,4.354c-0.595,0.816-1.199,1.606-1.831,2.376c0.319,0.849,0.6,1.711,0.87,2.578
		c-0.05-0.727,0.249-1.667,0.729-2.297c0.653-0.776,1.276-1.574,1.895-2.401c0.612,1.563,1.193,2.996-0.043,4.379
		c-0.673,0.734-1.368,1.446-2.073,2.133c0.23,0.892,0.434,1.79,0.607,2.694c0.028-0.729,0.423-1.634,0.962-2.208
		c0.731-0.707,1.435-1.437,2.132-2.195c0.444,1.617,0.876,3.055-0.491,4.348c-0.74,0.661-1.515,1.301-2.28,1.91
		c0.133,0.911,0.249,1.825,0.327,2.743c0.104-0.722,0.587-1.582,1.183-2.1c0.797-0.627,1.579-1.281,2.345-1.964
		c0.275,1.655,0.56,3.129-0.931,4.274c-0.81,0.582-1.64,1.139-2.464,1.667c0.037,0.92,0.063,1.84,0.048,2.761
		c0.18-0.749,0.739-1.514,1.39-1.967c0.851-0.544,1.7-1.115,2.53-1.715c0.105,1.672,0.237,3.162-1.358,4.153
		c-0.866,0.496-1.742,0.967-2.62,1.409c-0.054,0.92-0.12,1.838-0.23,2.752c0.255-0.725,0.889-1.431,1.583-1.816
		c0.898-0.455,1.805-0.939,2.689-1.451c-0.063,1.674-0.086,3.173-1.766,3.954c-0.918,0.423-1.832,0.817-2.756,1.182
		c-0.144,0.909-0.312,1.815-0.509,2.715c0.325-0.699,1.027-1.334,1.761-1.646c0.936-0.362,1.892-0.75,2.822-1.172
		c-0.231,1.661-0.413,3.151-2.16,3.756c-0.959,0.326-1.903,0.625-2.865,0.892c-0.229,0.892-0.501,1.772-0.782,2.648
		c0.392-0.66,1.174-1.261,1.918-1.458c0.977-0.262,1.954-0.553,2.93-0.874c-0.4,1.63-0.733,3.093-2.537,3.514
		c-0.979,0.229-1.96,0.427-2.94,0.595c-0.322,0.862-0.675,1.713-1.052,2.553c0.458-0.617,1.3-1.133,2.058-1.253
		c1.011-0.171,2.007-0.378,3.022-0.611c-0.564,1.581-1.061,3.045-2.901,3.276c-0.994,0.129-2,0.221-2.982,0.29
		c-0.418,0.82-0.845,1.637-1.312,2.432c0.523-0.564,1.407-0.995,2.177-1.034c1.018-0.069,2.041-0.168,3.066-0.3
		c-0.236,0.495-0.48,0.983-0.734,1.467c-0.418,0.815-1.562,1.481-2.484,1.496c-1.011,0.021-2.005,0.019-3-0.018
		c-0.483,0.767-0.995,1.516-1.523,2.253c0.552-0.479,1.475-0.815,2.246-0.773c1.013,0.031,2.05,0.042,3.079,0.014
		c-0.874,1.433-1.657,2.762-3.503,2.617c-1.005-0.08-1.996-0.186-2.981-0.322L98.614,81.288z"/>
	<path fill-rule="evenodd" clip-rule="evenodd" fill="#373737" d="M28.004,80.721l0.051,0.065c0.768,0.962,1.572,1.893,2.415,2.788
		c0.253,0.269,0.302,0.621,0.123,0.794c-0.178,0.173-0.529,0.104-0.787-0.168c-0.859-0.915-1.682-1.865-2.463-2.847l-0.156-0.198
		c-0.985,0.137-1.977,0.241-2.979,0.32c-1.847,0.142-2.629-1.188-3.501-2.621c1.029,0.03,2.066,0.019,3.078-0.011
		c0.771-0.039,1.694,0.298,2.245,0.776c-0.528-0.738-1.039-1.486-1.522-2.254c-0.994,0.035-1.988,0.036-2.997,0.015
		c-0.922-0.017-2.066-0.685-2.482-1.5c-0.254-0.484-0.497-0.973-0.732-1.466c1.026,0.132,2.048,0.232,3.065,0.303
		c0.769,0.041,1.652,0.472,2.174,1.036c-0.465-0.794-0.891-1.611-1.307-2.432c-0.984-0.071-1.988-0.165-2.981-0.294
		c-1.841-0.233-2.334-1.698-2.896-3.279c1.016,0.233,2.011,0.443,3.021,0.615c0.758,0.12,1.598,0.637,2.056,1.256
		c-0.376-0.841-0.727-1.692-1.048-2.556c-0.98-0.168-1.959-0.367-2.938-0.597c-1.802-0.424-2.133-1.886-2.532-3.516
		c0.975,0.322,1.952,0.614,2.929,0.879c0.743,0.197,1.524,0.799,1.914,1.459c-0.28-0.877-0.552-1.757-0.777-2.648
		c-0.962-0.268-1.904-0.568-2.863-0.896c-1.746-0.605-1.926-2.095-2.154-3.755c0.927,0.422,1.884,0.811,2.819,1.173
		c0.732,0.313,1.433,0.949,1.758,1.647c-0.197-0.898-0.364-1.805-0.505-2.714c-0.926-0.365-1.838-0.76-2.755-1.183
		c-1.68-0.782-1.701-2.279-1.763-3.953c0.884,0.513,1.789,0.996,2.688,1.451c0.694,0.387,1.326,1.092,1.58,1.818
		c-0.109-0.914-0.174-1.833-0.229-2.751c-0.876-0.443-1.753-0.913-2.618-1.411c-1.596-0.989-1.463-2.479-1.358-4.147
		c0.829,0.598,1.679,1.169,2.529,1.711c0.65,0.454,1.209,1.218,1.391,1.967c-0.017-0.921,0.01-1.841,0.047-2.76
		c-0.825-0.528-1.655-1.084-2.463-1.665c-1.491-1.144-1.208-2.616-0.936-4.271c0.767,0.682,1.549,1.335,2.345,1.961
		c0.596,0.517,1.08,1.376,1.185,2.097c0.077-0.918,0.193-1.83,0.324-2.741c-0.765-0.608-1.539-1.247-2.28-1.906
		c-1.368-1.291-0.938-2.729-0.497-4.346c0.699,0.757,1.402,1.485,2.135,2.19c0.539,0.574,0.936,1.479,0.963,2.208
		c0.173-0.905,0.376-1.804,0.604-2.695c-0.704-0.685-1.402-1.396-2.075-2.13c-1.237-1.38-0.657-2.812-0.049-4.376
		c0.619,0.825,1.243,1.622,1.897,2.398c0.479,0.628,0.78,1.567,0.732,2.294c0.267-0.866,0.547-1.729,0.865-2.578
		c-0.633-0.769-1.238-1.557-1.833-2.372c-1.087-1.498-0.362-2.863,0.401-4.354c0.515,0.892,1.065,1.77,1.621,2.616
		c0.437,0.637,0.633,1.6,0.514,2.319c0.351-0.836,0.724-1.663,1.123-2.476c-0.549-0.83-1.07-1.677-1.579-2.549
		c-0.93-1.604-0.064-2.884,0.847-4.291c0.423,0.943,0.873,1.868,1.345,2.771c0.366,0.676,0.462,1.654,0.272,2.358
		c0.43-0.799,0.895-1.577,1.37-2.35c-0.453-0.875-0.899-1.78-1.309-2.693c-0.763-1.69,0.226-2.878,1.277-4.184
		c0.332,0.987,0.675,1.944,1.057,2.896c0.295,0.707,0.295,1.693,0.029,2.373c0.285-0.414,0.574-0.825,0.873-1.229
		c0.296-3.065,0.958-3.545,4.293-4.378c-0.626,3.398-0.702,3.827-3.559,4.917c-0.294,0.396-0.576,0.8-0.855,1.204
		c0.533-0.483,1.457-0.771,2.202-0.656c0.984,0.125,1.972,0.289,2.933,0.47c-0.872,1.083-1.46,2.133-3.233,1.958
		c-0.974-0.096-1.942-0.155-2.935-0.195c-0.465,0.757-0.921,1.52-1.342,2.302c0.476-0.536,1.37-0.915,2.122-0.879
		c0.996,0.027,1.984,0.084,2.966,0.171c-0.755,1.166-1.234,2.269-3.02,2.275c-0.969,0.009-1.954,0.041-2.936,0.107
		c-0.393,0.797-0.759,1.607-1.102,2.426c0.421-0.582,1.272-1.05,2.02-1.092c1.002-0.07,1.98-0.12,2.97-0.131
		c-0.632,1.234-0.992,2.383-2.768,2.569c-0.966,0.107-1.94,0.241-2.91,0.407c-0.312,0.833-0.587,1.678-0.849,2.526
		c0.363-0.62,1.154-1.176,1.914-1.329c0.974-0.164,1.957-0.295,2.923-0.4c-0.502,1.295-0.742,2.473-2.486,2.843
		c-0.951,0.192-1.896,0.415-2.846,0.665c-0.225,0.873-0.423,1.754-0.591,2.64c0.294-0.656,1.025-1.29,1.765-1.519
		c0.952-0.265,1.915-0.495,2.867-0.699c-0.362,1.339-0.482,2.497-2.184,3.082c-0.931,0.288-1.838,0.608-2.763,0.952
		c-0.128,0.894-0.243,1.788-0.318,2.688c0.224-0.683,0.89-1.387,1.602-1.691c0.923-0.359,1.85-0.688,2.782-0.988
		c-0.225,1.371-0.227,2.537-1.86,3.293c-0.893,0.381-1.768,0.791-2.653,1.228c-0.035,0.901-0.062,1.804-0.046,2.706
		c0.152-0.743,0.75-1.47,1.424-1.844c0.886-0.451,1.77-0.874,2.669-1.267c-0.085,1.388,0.032,2.552-1.521,3.467
		c-0.846,0.469-1.682,0.964-2.515,1.486c0.053,0.9,0.117,1.801,0.225,2.696c0.076-0.752,0.6-1.536,1.229-1.978
		c0.838-0.536,1.674-1.044,2.53-1.525c0.054,1.392,0.289,2.533-1.172,3.562c-0.789,0.562-1.576,1.154-2.345,1.771
		c0.139,0.891,0.302,1.778,0.496,2.659c0-0.758,0.44-1.59,1.021-2.091c0.784-0.619,1.559-1.208,2.364-1.773
		c0.191,1.375,0.548,2.486-0.805,3.657c-0.725,0.639-1.453,1.309-2.149,2c0.221,0.873,0.487,1.736,0.762,2.596
		c-0.072-0.755,0.263-1.664,0.807-2.187c0.707-0.694,1.431-1.362,2.167-2.004c0.33,1.349,0.799,2.416-0.424,3.719
		c-0.663,0.713-1.309,1.45-1.935,2.211c0.314,0.845,0.66,1.679,1.026,2.503c-0.151-0.745,0.088-1.683,0.576-2.257
		c0.622-0.773,1.278-1.529,1.935-2.252c0.468,1.309,1.052,2.357-0.023,3.777c-0.592,0.779-1.148,1.574-1.702,2.398
		c0.408,0.806,0.826,1.605,1.282,2.385c-0.231-0.722-0.084-1.684,0.34-2.305c0.544-0.835,1.109-1.648,1.695-2.438
		c0.192,0.404,0.393,0.805,0.6,1.201c0.338,0.659,0.222,1.791-0.238,2.561c-0.5,0.831-0.987,1.688-1.444,2.56
		c0.474,0.752,0.975,1.486,1.492,2.209c-0.276-0.665-0.229-1.637,0.126-2.294c0.463-0.891,0.933-1.752,1.439-2.602
		c0.724,1.187,1.513,2.094,0.743,3.706c-0.413,0.88-0.81,1.78-1.175,2.692L28.004,80.721z"/>
	<path fill-rule="evenodd" clip-rule="evenodd" fill="#373737" d="M51.978,12.867c-0.391,0.108-0.818-0.143-0.945-0.586
		c-0.126-0.443,0.113-0.914,0.521-1.028c7.425-1.955,15.395-1.952,22.82,0.001c0.409,0.113,0.616,0.576,0.49,1.021
		c-0.125,0.442-0.521,0.702-0.913,0.594C66.806,10.987,59.119,10.984,51.978,12.867L51.978,12.867z M49.419,1.727L49.419,1.727
		l-0.156,0.039c-0.026,0.043-0.019,0.077-0.01,0.111l2.08,8.005c0.045,0.172,0.217,0.312,0.411,0.263
		c7.316-1.85,15.121-1.846,22.439,0.001c0.161,0.041,0.367-0.091,0.412-0.262l2.078-8.005c0.009-0.035-0.021-0.079-0.051-0.123
		l-0.116-0.029c-0.047,0.024-0.093,0.05-0.102,0.084c-0.523,0.456-1.124,0.775-1.843,0.985c-0.128,0.043-0.181,0.104-0.204,0.209
		c-0.021,0.103,0.038,0.189,0.097,0.275c0.528,0.44,0.771,0.871,0.578,1.665c-0.101,0.414-0.343,0.79-0.627,1.052
		c-1.187,1.059-3.276,0.658-3.951-0.758c-0.168-0.347-0.254-0.789-0.194-1.211c0.116-0.806,0.464-1.124,1.119-1.339
		c0.087-0.058,0.173-0.115,0.19-0.22c0.018-0.105-0.047-0.189-0.111-0.271c-0.552-0.451-1.027-0.977-1.344-1.597
		c-0.095-0.195-0.412-0.229-0.552-0.067c-0.46,0.521-1.012,0.912-1.659,1.215c-0.122,0.061-0.167,0.128-0.176,0.233
		c-0.009,0.107,0.06,0.184,0.131,0.262c0.54,0.366,0.839,0.763,0.748,1.573c-0.047,0.424-0.24,0.829-0.489,1.124
		c-1.006,1.206-3.13,1.072-4.014-0.25c-0.209-0.322-0.35-0.751-0.343-1.176c0.012-0.812,0.316-1.177,0.975-1.468
		c0.079-0.068,0.158-0.137,0.162-0.243s-0.032-0.178-0.146-0.254c-0.641-0.384-1.139-0.838-1.532-1.415
		c-0.156-0.182-0.436-0.181-0.552,0.001c-0.391,0.576-0.891,1.031-1.492,1.414c-0.114,0.074-0.15,0.147-0.147,0.253
		c0.004,0.106,0.083,0.175,0.163,0.242c0.619,0.293,0.925,0.658,0.938,1.47c0.007,0.426-0.135,0.854-0.344,1.176
		c-0.847,1.321-3.007,1.457-4.015,0.251c-0.247-0.293-0.441-0.699-0.488-1.122c-0.091-0.811,0.169-1.204,0.747-1.574
		c0.069-0.077,0.14-0.155,0.131-0.261c-0.01-0.106-0.054-0.174-0.176-0.234c-0.648-0.303-1.2-0.693-1.662-1.214
		c-0.14-0.161-0.416-0.133-0.55,0.067c-0.277,0.616-0.754,1.142-1.306,1.592c-0.064,0.083-0.129,0.166-0.111,0.271
		c0.017,0.106,0.104,0.162,0.189,0.22c0.655,0.217,1.003,0.534,1.118,1.34c0.062,0.422-0.025,0.864-0.193,1.211
		c-0.709,1.422-2.798,1.825-3.95,0.758c-0.284-0.262-0.526-0.638-0.627-1.052c-0.193-0.793,0.05-1.223,0.539-1.656
		c0.061-0.085,0.12-0.172,0.098-0.275c-0.022-0.104-0.077-0.164-0.206-0.208c-0.68-0.219-1.28-0.537-1.804-0.993
		C49.474,1.785,49.427,1.76,49.419,1.727z"/>
	<path fill-rule="evenodd" clip-rule="evenodd" fill="#545454" d="M93.575,15.683L93.575,15.683
		c0.021-0.071,0.018-0.119-0.057-0.186c-0.049-0.045-0.095-0.043-0.163-0.017l-1.79,1.046c-0.043,0.048-0.134,0.056-0.182,0.015
		c-0.504-0.435-1.015-0.861-1.539-1.271c-0.075-0.059-0.12-0.053-0.187-0.021c-0.064,0.032-0.08,0.103-0.051,0.168
		c0.175,0.646,0.326,1.295,0.463,1.938c0.006,0.089-0.037,0.139-0.08,0.189l-1.717,1.127c-0.064,0.031-0.084,0.101-0.062,0.163
		c0.003,0.088,0.048,0.124,0.134,0.112c0.641-0.001,1.275,0.028,1.927,0.06c0.043-0.003,0.109,0.058,0.109,0.102
		c0.105,0.641,0.192,1.275,0.261,1.91c-0.003,0.085,0.038,0.126,0.126,0.12c0.064,0.016,0.131-0.01,0.156-0.077l0.942-1.821
		c0.044-0.047,0.091-0.096,0.18-0.101c0.658,0.066,1.312,0.158,1.979,0.26c0.067,0.022,0.136-0.002,0.161-0.068
		c0.025-0.068,0.026-0.114-0.04-0.181c-0.463-0.479-0.939-0.943-1.421-1.401c-0.048-0.044-0.048-0.135-0.004-0.183L93.575,15.683z"
		/>
	<path fill-rule="evenodd" clip-rule="evenodd" fill="#545454" d="M32.321,15.694L32.321,15.694
		c-0.021-0.071,0.007-0.141,0.057-0.186c0.048-0.044,0.118-0.065,0.188-0.037l1.766,1.068c0.066,0.027,0.133,0.057,0.204-0.005
		c0.505-0.435,1.017-0.86,1.541-1.269c0.052-0.04,0.122-0.055,0.161-0.002c0.065,0.031,0.081,0.104,0.075,0.148
		c-0.182,0.652-0.343,1.309-0.489,1.958c0.019,0.071,0.038,0.14,0.103,0.17l1.696,1.147c0.063,0.032,0.083,0.102,0.081,0.146
		c-0.004,0.086-0.048,0.123-0.133,0.11c-0.642-0.001-1.277,0.027-1.929,0.059c-0.066,0.016-0.11,0.057-0.133,0.121
		c-0.105,0.64-0.193,1.275-0.263,1.909c0.003,0.088-0.038,0.127-0.125,0.12c-0.065,0.017-0.111-0.029-0.157-0.076l-0.939-1.824
		c-0.023-0.068-0.091-0.094-0.179-0.1c-0.66,0.065-1.313,0.157-1.98,0.257c-0.067,0.022-0.115-0.023-0.161-0.068
		c-0.026-0.068-0.005-0.137,0.039-0.182c0.465-0.477,0.941-0.941,1.424-1.399c0.047-0.042,0.049-0.135,0.027-0.202L32.321,15.694z"
		/>
	<path fill-rule="evenodd" clip-rule="evenodd" fill="#545454" d="M41.609,8.331L41.609,8.331c-0.015-0.104,0.02-0.194,0.111-0.242
		c0.093-0.046,0.183-0.02,0.259,0.054c0.651,0.646,1.288,1.296,1.91,1.954c0.072,0.075,0.144,0.076,0.232,0.034
		c0.82-0.373,1.647-0.735,2.488-1.06c0.091-0.035,0.176,0.001,0.24,0.081c0.055,0.049,0.06,0.154,0.024,0.237
		c-0.49,0.761-0.947,1.533-1.372,2.312c-0.044,0.056-0.031,0.158,0.037,0.236c0.598,0.678,1.18,1.356,1.751,2.056
		c0.065,0.08,0.065,0.15,0.037,0.234c-0.055,0.093-0.134,0.125-0.212,0.09c-0.805-0.231-1.627-0.439-2.469-0.624
		c-0.109-0.018-0.162,0.011-0.214,0.109c-0.361,0.78-0.69,1.562-0.989,2.346c-0.02,0.086-0.094,0.128-0.202,0.115
		c-0.065,0-0.141-0.07-0.164-0.171c-0.21-0.872-0.409-1.758-0.587-2.638c-0.02-0.103-0.094-0.173-0.165-0.173
		c-0.876-0.126-1.767-0.227-2.672-0.298c-0.091-0.021-0.17-0.089-0.177-0.161c-0.023-0.1-0.002-0.189,0.081-0.24
		c0.768-0.474,1.552-0.921,2.349-1.346c0.085-0.046,0.127-0.105,0.109-0.208C41.865,10.134,41.73,9.237,41.609,8.331z"/>
	<path fill-rule="evenodd" clip-rule="evenodd" fill="#545454" d="M84.318,8.331c0.013-0.103-0.052-0.21-0.144-0.257
		c-0.062-0.031-0.184-0.02-0.259,0.054c-0.641,0.65-1.267,1.307-1.879,1.97c-0.071,0.075-0.174,0.062-0.232,0.033
		c-0.831-0.377-1.667-0.743-2.519-1.071c-0.092-0.036-0.177,0.002-0.242,0.081c-0.054,0.05-0.06,0.153,0.008,0.249
		c0.48,0.758,0.928,1.526,1.344,2.3c0.043,0.056,0.031,0.157-0.037,0.234c-0.598,0.679-1.18,1.358-1.75,2.06
		c-0.039,0.09-0.064,0.149-0.012,0.244c0.028,0.082,0.109,0.113,0.188,0.078c0.812-0.228,1.645-0.433,2.494-0.611
		c0.083-0.031,0.164,0.01,0.188,0.095c0.36,0.78,0.689,1.562,0.99,2.346c0.043,0.1,0.117,0.142,0.201,0.115
		c0.065-0.001,0.139-0.071,0.163-0.17c0.211-0.874,0.408-1.759,0.587-2.64c0.047-0.086,0.094-0.173,0.191-0.157
		c0.868-0.132,1.749-0.237,2.645-0.313c0.117-0.006,0.169-0.088,0.204-0.145c0.023-0.1-0.025-0.207-0.108-0.258
		c-0.767-0.474-1.552-0.919-2.348-1.344c-0.085-0.047-0.129-0.106-0.111-0.21C84.041,10.125,84.186,9.232,84.318,8.331z"/>
	<path fill="#545454" d="M35.684,114.537h1.601v-0.843h-2.528v5.899h2.528v-0.843h-1.601v-1.728h1.272v-0.844h-1.272V114.537
		L35.684,114.537z M40.086,115.11c0.002,0.238,0.035,0.452,0.101,0.641c0.064,0.187,0.15,0.355,0.259,0.504
		c0.107,0.149,0.226,0.287,0.354,0.411c0.128,0.126,0.258,0.246,0.386,0.361c0.129,0.115,0.247,0.232,0.354,0.354
		c0.108,0.119,0.193,0.25,0.26,0.389c0.064,0.139,0.099,0.294,0.1,0.467c0,0.14-0.02,0.25-0.059,0.335s-0.094,0.146-0.166,0.183
		c-0.071,0.038-0.157,0.057-0.255,0.056c-0.099,0.001-0.185-0.018-0.256-0.056c-0.071-0.037-0.127-0.098-0.166-0.183
		s-0.059-0.195-0.059-0.335v-0.422h-0.877v0.362c0,0.315,0.052,0.583,0.156,0.803c0.104,0.222,0.258,0.39,0.464,0.507
		c0.204,0.114,0.459,0.172,0.762,0.174c0.304-0.002,0.558-0.06,0.763-0.174c0.206-0.117,0.36-0.285,0.464-0.507
		c0.104-0.22,0.156-0.487,0.156-0.803c-0.002-0.24-0.035-0.453-0.1-0.64c-0.066-0.188-0.152-0.356-0.261-0.505
		c-0.106-0.149-0.224-0.286-0.354-0.412c-0.128-0.124-0.257-0.246-0.385-0.36c-0.129-0.115-0.247-0.233-0.354-0.354
		c-0.108-0.119-0.193-0.25-0.26-0.389c-0.064-0.14-0.098-0.295-0.1-0.467c0.002-0.208,0.041-0.358,0.121-0.45
		c0.08-0.089,0.193-0.134,0.343-0.131c0.149-0.003,0.263,0.042,0.343,0.131c0.08,0.092,0.119,0.242,0.121,0.45v0.245h0.876v-0.186
		c0-0.316-0.052-0.585-0.152-0.805c-0.103-0.221-0.256-0.388-0.459-0.504c-0.202-0.116-0.454-0.174-0.754-0.176
		c-0.301,0.002-0.552,0.06-0.754,0.176c-0.203,0.116-0.355,0.283-0.458,0.504C40.138,114.525,40.086,114.794,40.086,115.11
		L40.086,115.11z M45.433,114.537h0.969v5.057h0.928v-5.057h0.969v-0.843h-2.865V114.537L45.433,114.537z M52.785,113.694h-1.357
		l-0.944,5.899h0.853l0.159-1.07h1.139l0.16,1.07h0.936L52.785,113.694L52.785,113.694z M52.06,114.739l0.447,2.983h-0.893
		L52.06,114.739L52.06,114.739z M57.904,113.694h-1.399v5.899h1.458c0.466-0.001,0.815-0.121,1.053-0.358
		c0.236-0.237,0.355-0.584,0.355-1.041v-0.48c0.003-0.312-0.052-0.576-0.159-0.794c-0.108-0.214-0.286-0.371-0.533-0.47
		c0.206-0.097,0.357-0.243,0.455-0.439c0.096-0.196,0.146-0.445,0.145-0.749v-0.211c0.001-0.303-0.047-0.556-0.143-0.757
		c-0.097-0.2-0.245-0.351-0.448-0.451C58.484,113.743,58.223,113.694,57.904,113.694L57.904,113.694z M57.845,116.939
		c0.141-0.002,0.255,0.02,0.344,0.062c0.088,0.046,0.153,0.119,0.193,0.224c0.042,0.105,0.062,0.249,0.062,0.43v0.515
		c0,0.145-0.019,0.26-0.054,0.346c-0.037,0.085-0.093,0.146-0.164,0.182c-0.07,0.036-0.158,0.056-0.263,0.054h-0.53v-1.812H57.845
		L57.845,116.939z M57.879,114.537c0.163-0.001,0.284,0.048,0.36,0.145c0.074,0.099,0.113,0.253,0.111,0.462v0.329
		c0,0.155-0.022,0.279-0.067,0.37c-0.044,0.092-0.108,0.158-0.19,0.197c-0.083,0.037-0.183,0.058-0.298,0.056h-0.362v-1.559H57.879
		L57.879,114.537z M62.273,119.594h2.452v-0.843H63.2v-5.057h-0.927V119.594L62.273,119.594z M67.477,119.594h0.927v-5.899h-0.927
		V119.594L67.477,119.594z M71.307,115.11c0.001,0.238,0.034,0.452,0.101,0.641c0.064,0.187,0.15,0.355,0.259,0.504
		c0.106,0.149,0.225,0.287,0.354,0.411c0.128,0.126,0.257,0.246,0.385,0.361c0.13,0.115,0.247,0.232,0.354,0.354
		c0.108,0.119,0.194,0.25,0.261,0.389c0.064,0.139,0.099,0.294,0.1,0.467c0,0.14-0.021,0.25-0.06,0.335s-0.094,0.146-0.165,0.183
		c-0.072,0.038-0.158,0.057-0.256,0.056c-0.099,0.001-0.184-0.018-0.256-0.056c-0.071-0.037-0.126-0.098-0.165-0.183
		c-0.04-0.085-0.06-0.195-0.06-0.335v-0.422h-0.876v0.362c0,0.315,0.052,0.583,0.155,0.803c0.104,0.222,0.259,0.39,0.464,0.507
		c0.205,0.114,0.459,0.172,0.763,0.174c0.304-0.002,0.557-0.06,0.763-0.174c0.205-0.117,0.359-0.285,0.463-0.507
		c0.104-0.22,0.156-0.487,0.156-0.803c-0.001-0.24-0.035-0.453-0.1-0.64c-0.065-0.188-0.151-0.356-0.261-0.505
		c-0.105-0.149-0.224-0.286-0.354-0.412c-0.128-0.124-0.257-0.246-0.385-0.36c-0.129-0.115-0.247-0.233-0.354-0.354
		c-0.107-0.119-0.194-0.25-0.26-0.389c-0.064-0.14-0.099-0.295-0.1-0.467c0.001-0.208,0.04-0.358,0.121-0.45
		c0.079-0.089,0.193-0.134,0.342-0.131c0.149-0.003,0.263,0.042,0.343,0.131c0.081,0.092,0.12,0.242,0.121,0.45v0.245h0.876v-0.186
		c0-0.316-0.051-0.585-0.152-0.805c-0.103-0.221-0.256-0.388-0.458-0.504c-0.203-0.116-0.454-0.174-0.755-0.176
		c-0.301,0.002-0.552,0.06-0.754,0.176s-0.354,0.283-0.457,0.504C71.357,114.525,71.307,114.794,71.307,115.11L71.307,115.11z
		 M77.85,117.065h1.054v2.528h0.944v-5.899h-0.944v2.528H77.85v-2.528h-0.927v5.899h0.927V117.065L77.85,117.065z M83.794,114.537
		h1.602v-0.843h-2.528v5.899h2.528v-0.843h-1.602v-1.728h1.272v-0.844h-1.272V114.537L83.794,114.537z M88.315,119.594h1.466
		c0.464-0.001,0.81-0.126,1.04-0.375c0.229-0.249,0.343-0.609,0.343-1.083v-2.984c0-0.473-0.114-0.834-0.343-1.083
		c-0.23-0.248-0.576-0.373-1.04-0.374h-1.466V119.594L88.315,119.594z M89.764,114.537c0.099-0.001,0.184,0.017,0.255,0.055
		c0.07,0.038,0.123,0.099,0.162,0.183c0.036,0.084,0.056,0.195,0.056,0.336v3.067c0,0.141-0.02,0.252-0.056,0.336
		c-0.039,0.084-0.092,0.145-0.162,0.183c-0.071,0.037-0.156,0.057-0.255,0.055h-0.521v-4.214H89.764L89.764,114.537z
		 M53.633,125.207h0.717v4.5h0.928v-5.899h-0.624c-0.034,0.1-0.075,0.193-0.119,0.282c-0.046,0.09-0.103,0.169-0.176,0.237
		c-0.071,0.069-0.168,0.123-0.284,0.162s-0.263,0.059-0.441,0.061V125.207L53.633,125.207z M61.466,125.224
		c0-0.317-0.055-0.584-0.162-0.806c-0.108-0.22-0.267-0.388-0.476-0.503c-0.209-0.116-0.466-0.174-0.77-0.176
		c-0.303,0.002-0.56,0.06-0.771,0.176c-0.208,0.115-0.365,0.283-0.474,0.503c-0.108,0.222-0.163,0.488-0.163,0.806v1.078
		c0,0.436,0.086,0.77,0.259,1c0.171,0.23,0.429,0.348,0.77,0.349c0.206-0.001,0.382-0.046,0.524-0.135
		c0.145-0.09,0.255-0.219,0.335-0.388v1.079c0,0.187-0.02,0.333-0.06,0.438c-0.04,0.106-0.1,0.182-0.175,0.225
		c-0.076,0.042-0.17,0.062-0.279,0.062c-0.149,0.003-0.267-0.041-0.352-0.132c-0.084-0.092-0.128-0.24-0.129-0.45v-0.21h-0.877
		v0.151c0,0.316,0.053,0.583,0.155,0.804c0.104,0.221,0.26,0.389,0.465,0.506c0.205,0.115,0.459,0.172,0.763,0.174
		c0.479-0.002,0.836-0.134,1.068-0.395c0.231-0.26,0.349-0.641,0.347-1.14V125.224L61.466,125.224z M60.059,126.809
		c-0.149,0.001-0.266-0.042-0.351-0.134c-0.085-0.09-0.128-0.24-0.13-0.448v-1.062c0-0.141,0.02-0.252,0.059-0.336
		c0.04-0.083,0.095-0.145,0.167-0.182c0.071-0.038,0.157-0.057,0.255-0.055c0.099-0.002,0.185,0.017,0.256,0.055
		c0.071,0.037,0.127,0.099,0.166,0.182c0.039,0.084,0.059,0.195,0.059,0.336v1.062c-0.001,0.208-0.045,0.358-0.129,0.448
		C60.324,126.767,60.208,126.81,60.059,126.809L60.059,126.809z M67.15,125.224c0-0.317-0.055-0.584-0.163-0.806
		c-0.107-0.22-0.266-0.388-0.476-0.503c-0.209-0.116-0.466-0.174-0.769-0.176c-0.304,0.002-0.561,0.06-0.771,0.176
		c-0.209,0.115-0.366,0.283-0.474,0.503c-0.109,0.222-0.164,0.488-0.164,0.806v1.078c0,0.436,0.086,0.77,0.259,1
		c0.171,0.23,0.429,0.348,0.77,0.349c0.207-0.001,0.382-0.046,0.525-0.135c0.144-0.09,0.254-0.219,0.334-0.388v1.079
		c0,0.187-0.02,0.333-0.06,0.438c-0.04,0.106-0.099,0.182-0.175,0.225c-0.075,0.042-0.17,0.062-0.278,0.062
		c-0.149,0.003-0.267-0.041-0.352-0.132c-0.085-0.092-0.129-0.24-0.131-0.45v-0.21h-0.875v0.151c0,0.316,0.051,0.583,0.155,0.804
		s0.258,0.389,0.464,0.506c0.205,0.115,0.46,0.172,0.763,0.174c0.479-0.002,0.836-0.134,1.068-0.395
		c0.232-0.26,0.35-0.641,0.348-1.14V125.224L67.15,125.224z M65.743,126.809c-0.149,0.001-0.267-0.042-0.352-0.134
		c-0.084-0.09-0.128-0.24-0.13-0.448v-1.062c0-0.141,0.021-0.252,0.06-0.336c0.039-0.083,0.094-0.145,0.166-0.182
		c0.071-0.038,0.157-0.057,0.256-0.055c0.098-0.002,0.184,0.017,0.255,0.055c0.071,0.037,0.127,0.099,0.166,0.182
		c0.039,0.084,0.059,0.195,0.059,0.336v1.062c-0.001,0.208-0.045,0.358-0.129,0.448C66.008,126.767,65.892,126.81,65.743,126.809
		L65.743,126.809z M70.685,125.207h0.717v4.5h0.928v-5.899h-0.624c-0.034,0.1-0.075,0.193-0.12,0.282
		c-0.044,0.09-0.103,0.169-0.175,0.237c-0.072,0.069-0.167,0.123-0.284,0.162s-0.263,0.059-0.441,0.061V125.207z"/>
	<g>
		<rect x="8.494" y="87.226" fill-rule="evenodd" clip-rule="evenodd" fill="#373737" width="108.931" height="20.987"/>
		<polygon fill-rule="evenodd" clip-rule="evenodd" fill="#373737" points="7.372,93.716 7.372,108.86 17.494,114.704 0,114.704 
			5.217,104.211 0,93.716 		"/>
		<polygon fill-rule="evenodd" clip-rule="evenodd" fill="#373737" points="125.919,93.716 120.703,104.211 125.919,114.704 
			108.426,114.704 118.547,108.86 118.547,93.716 		"/>
		<path fill="#FFFFFF" d="M14.712,91.917v0.441l0.579,0.455v8.883l-0.67,0.457v0.439h3.285c0.446,0,0.857-0.058,1.229-0.172
			c0.37-0.114,0.695-0.289,0.966-0.519c0.274-0.234,0.484-0.525,0.634-0.875c0.149-0.353,0.226-0.763,0.229-1.235v-5.12
			c-0.006-0.661-0.132-1.196-0.388-1.602c-0.254-0.405-0.609-0.699-1.065-0.883c-0.456-0.185-0.991-0.273-1.604-0.271H14.712
			L14.712,91.917z M17.906,92.845c0.373,0.008,0.667,0.094,0.883,0.256c0.218,0.164,0.37,0.38,0.461,0.654
			c0.091,0.273,0.134,0.578,0.132,0.917v5.12c0.002,0.343-0.041,0.652-0.132,0.929c-0.091,0.273-0.243,0.494-0.461,0.656
			c-0.216,0.165-0.51,0.25-0.883,0.259h-1.338l-0.016-0.091c0.127-0.039,0.216-0.094,0.264-0.168
			c0.051-0.076,0.073-0.178,0.071-0.304v-8.229H17.906L17.906,92.845z M29.431,102.593v-2.387h-0.67l-0.517,1.46
			c-0.433,0-0.864,0-1.293,0c-0.428,0-0.858,0-1.292,0v-0.076c0.126-0.044,0.212-0.104,0.256-0.177
			c0.045-0.076,0.066-0.173,0.063-0.295c0-0.562,0-1.123,0-1.68c0-0.559,0-1.118,0-1.682h1.46l0.395,0.807h0.457
			c0-0.253,0-0.529,0-0.832c0-0.304,0-0.605,0-0.907c0-0.304,0-0.58,0-0.834h-0.457l-0.395,0.839h-1.46c0-0.671,0-1.343,0-2.013
			c0-0.672,0-1.339,0-2.003h2.068l0.426,1.496h0.761v-2.393c-0.616,0-1.222,0-1.815,0c-0.596,0-1.188,0-1.784,0
			c-0.594,0-1.199,0-1.815,0v0.396l0.578,0.396c0,1.495,0,2.993,0,4.491c0,1.501,0,2.999,0,4.497l-0.685,0.457v0.439
			c0.958,0,1.914,0,2.865,0C27.53,102.593,28.48,102.593,29.431,102.593L29.431,102.593z M33.594,100.434v-0.851h-1.719v0.836
			c0.002,0.406,0.076,0.758,0.221,1.053c0.145,0.296,0.342,0.539,0.594,0.729c0.25,0.189,0.539,0.331,0.866,0.423
			s0.674,0.137,1.042,0.137c0.364,0,0.718-0.04,1.055-0.126c0.337-0.084,0.641-0.221,0.909-0.403c0.27-0.186,0.481-0.426,0.64-0.723
			c0.156-0.294,0.238-0.653,0.24-1.075v-1.308c-0.002-0.397-0.076-0.732-0.216-1.001c-0.139-0.269-0.324-0.491-0.552-0.667
			c-0.23-0.175-0.484-0.324-0.758-0.443c-0.276-0.119-0.55-0.229-0.826-0.327c-0.274-0.099-0.527-0.205-0.759-0.321
			c-0.228-0.117-0.413-0.259-0.553-0.429c-0.139-0.17-0.213-0.386-0.215-0.645v-1.292c0-0.368,0.091-0.655,0.271-0.859
			c0.183-0.205,0.45-0.31,0.809-0.312c0.359,0,0.636,0.101,0.831,0.298c0.192,0.201,0.292,0.49,0.294,0.873v0.775h1.566
			c0-0.479,0-0.959,0-1.435c0-0.479,0-0.953,0-1.425h-1.033l-0.123,0.578h-0.061c-0.168-0.186-0.347-0.33-0.537-0.429
			c-0.189-0.099-0.385-0.167-0.588-0.202c-0.203-0.038-0.406-0.057-0.608-0.054c-0.312,0-0.608,0.037-0.896,0.116
			c-0.286,0.082-0.542,0.205-0.768,0.381c-0.226,0.172-0.405,0.397-0.537,0.677c-0.133,0.278-0.201,0.618-0.203,1.017v1.292
			c0.006,0.378,0.076,0.692,0.213,0.946c0.14,0.256,0.322,0.466,0.551,0.634c0.228,0.165,0.479,0.31,0.752,0.425
			c0.271,0.117,0.545,0.226,0.819,0.33c0.271,0.104,0.522,0.218,0.75,0.345c0.229,0.126,0.411,0.281,0.55,0.466
			c0.14,0.188,0.211,0.421,0.213,0.703v1.292c0,0.257-0.037,0.479-0.118,0.675c-0.082,0.192-0.208,0.345-0.378,0.451
			c-0.173,0.108-0.391,0.165-0.66,0.168c-0.344,0.002-0.61-0.101-0.795-0.304C33.689,101.218,33.596,100.888,33.594,100.434
			L33.594,100.434L33.594,100.434z M42.213,92.753l0.578-0.395v-0.441h-2.692v0.441l0.578,0.395c0,1.494,0,2.984,0,4.472
			c0,1.488,0,2.979,0,4.47l-0.685,0.459v0.439c0.297,0,0.614,0,0.948,0c0.335,0,0.67,0,1.004,0c0.332,0,0.646,0,0.938,0v-0.439
			l-0.669-0.459c0-1.491,0-2.981,0-4.47C42.213,95.737,42.213,94.247,42.213,92.753L42.213,92.753z M47.228,94.67
			c0.003-0.444,0.066-0.801,0.19-1.067c0.124-0.269,0.289-0.463,0.497-0.583c0.207-0.119,0.441-0.178,0.697-0.175
			c0.253-0.003,0.486,0.038,0.707,0.119c0.218,0.081,0.393,0.213,0.529,0.396c0.135,0.18,0.206,0.418,0.208,0.717v0.807h1.582
			v-2.966h-1.05l-0.122,0.562h-0.045c-0.155-0.167-0.33-0.296-0.53-0.388c-0.2-0.094-0.41-0.16-0.633-0.197
			c-0.221-0.038-0.441-0.056-0.662-0.054c-0.289,0-0.573,0.036-0.856,0.104c-0.284,0.07-0.554,0.177-0.804,0.321
			c-0.254,0.144-0.477,0.33-0.674,0.553c-0.195,0.223-0.349,0.489-0.46,0.796c-0.114,0.307-0.17,0.659-0.173,1.055
			c0,0.867,0,1.736,0,2.607c0,0.872,0,1.742,0,2.609c0.003,0.474,0.079,0.89,0.229,1.245c0.15,0.354,0.363,0.648,0.637,0.882
			c0.273,0.235,0.596,0.41,0.971,0.526c0.375,0.117,0.786,0.176,1.237,0.176c0.235,0,0.469-0.03,0.7-0.095
			c0.23-0.062,0.442-0.162,0.638-0.294s0.358-0.302,0.487-0.509l0.167,0.774h0.988c0-1.551,0-3.102,0-4.652h-2.494v0.455
			l0.897,0.518v1.156c0.003,0.316-0.043,0.598-0.134,0.844c-0.089,0.246-0.238,0.441-0.447,0.583
			c-0.207,0.14-0.486,0.214-0.833,0.216c-0.459,0.002-0.814-0.145-1.065-0.438c-0.251-0.297-0.377-0.758-0.38-1.387
			c0-0.867,0-1.737,0-2.609C47.228,96.406,47.228,95.537,47.228,94.67L47.228,94.67L47.228,94.67z M56.137,101.725
			c0-1.103,0-2.211,0-3.319c0-1.109,0-2.215,0-3.319l-0.184-1.523l0.046-0.016l2.479,8.529c0.046,0.155,0.119,0.279,0.226,0.373
			c0.104,0.094,0.248,0.142,0.429,0.144h1.308c0-1.637,0-3.271,0-4.904s0-3.267,0-4.904l0.577-0.396v-0.472
			c-0.745,0-1.489,0-2.235,0v0.472l0.578,0.396v4.935c0,0.265,0.008,0.542,0.015,0.842c0.011,0.297,0.021,0.596,0.03,0.892
			c0.011,0.3,0.016,0.579,0.016,0.842h-0.03l-0.685-2.986l-1.49-4.752c-0.053-0.19-0.109-0.329-0.175-0.424
			c-0.063-0.091-0.155-0.149-0.273-0.177c-0.122-0.028-0.289-0.041-0.51-0.038c-0.177,0-0.337,0-0.479,0c-0.142,0-0.281,0-0.413,0
			s-0.269,0-0.412,0c-0.147,0-0.31,0-0.49,0v0.441l0.578,0.395c0,1.494,0,2.989,0,4.487s0,2.991,0,4.484l-0.639,0.397v0.471
			c0.251,0,0.509,0,0.78,0s0.54,0,0.812,0c0.271,0,0.529,0,0.78,0v-0.471L56.137,101.725L56.137,101.725z M66.757,100.434v-0.851
			h-1.719v0.836c0.003,0.406,0.076,0.758,0.221,1.053c0.145,0.296,0.343,0.539,0.593,0.729c0.251,0.189,0.54,0.331,0.867,0.423
			s0.674,0.137,1.042,0.137c0.365,0,0.717-0.04,1.054-0.126c0.338-0.084,0.642-0.221,0.911-0.403
			c0.269-0.186,0.481-0.426,0.638-0.723c0.158-0.294,0.239-0.653,0.241-1.075v-1.308c-0.002-0.397-0.076-0.732-0.216-1.001
			c-0.139-0.269-0.323-0.491-0.552-0.667c-0.231-0.175-0.484-0.324-0.758-0.443c-0.276-0.119-0.551-0.229-0.827-0.327
			c-0.273-0.099-0.526-0.205-0.757-0.321c-0.229-0.117-0.414-0.259-0.554-0.429s-0.212-0.386-0.215-0.645v-1.292
			c0-0.368,0.091-0.655,0.271-0.859c0.183-0.205,0.45-0.31,0.809-0.312c0.359,0,0.636,0.101,0.831,0.298
			c0.192,0.201,0.291,0.49,0.294,0.873v0.775h1.566c0-0.479,0-0.959,0-1.435c0-0.479,0-0.953,0-1.425h-1.034l-0.122,0.578h-0.061
			c-0.167-0.186-0.347-0.33-0.537-0.429s-0.386-0.167-0.588-0.202c-0.202-0.038-0.405-0.057-0.608-0.054
			c-0.312,0-0.608,0.037-0.895,0.116c-0.287,0.082-0.543,0.205-0.769,0.381c-0.226,0.172-0.406,0.397-0.537,0.677
			c-0.132,0.278-0.2,0.618-0.203,1.017v1.292c0.006,0.378,0.076,0.692,0.213,0.946c0.14,0.256,0.321,0.466,0.55,0.634
			c0.229,0.165,0.479,0.31,0.753,0.425c0.272,0.117,0.545,0.226,0.819,0.33c0.271,0.104,0.522,0.218,0.75,0.345
			c0.229,0.126,0.41,0.281,0.55,0.466c0.14,0.188,0.211,0.421,0.214,0.703v1.292c0,0.257-0.039,0.479-0.12,0.675
			c-0.081,0.192-0.207,0.345-0.378,0.451c-0.172,0.108-0.39,0.165-0.658,0.168c-0.345,0.002-0.611-0.101-0.796-0.304
			C66.853,101.218,66.76,100.888,66.757,100.434L66.757,100.434L66.757,100.434z M77.916,92.875l0.517,1.749h0.73l-0.062-2.707
			h-6.189l-0.061,2.707h0.729l0.487-1.749h1.14c0,2.91,0,5.817,0,8.728l-0.668,0.474v0.517c0.293,0,0.61,0,0.949,0
			c0.34,0,0.683,0,1.025,0c0.342,0,0.661,0,0.96,0v-0.517l-0.669-0.474c0-2.91,0-5.817,0-8.728H77.916L77.916,92.875z
			 M84.923,101.666c-0.309,0.002-0.575-0.059-0.799-0.178c-0.223-0.118-0.393-0.31-0.512-0.57c-0.119-0.258-0.18-0.601-0.18-1.019
			v-7.086l0.669-0.455v-0.441h-2.935v0.441l0.669,0.455v7.086c0.003,0.486,0.078,0.909,0.226,1.268
			c0.146,0.357,0.35,0.654,0.61,0.887c0.261,0.233,0.565,0.408,0.91,0.522s0.715,0.17,1.113,0.17
			c0.397-0.003,0.768-0.059,1.109-0.165c0.343-0.106,0.643-0.274,0.898-0.499c0.256-0.227,0.458-0.52,0.601-0.88
			c0.144-0.36,0.218-0.794,0.221-1.303v-7.115l0.577-0.396v-0.472h-2.235v0.472l0.578,0.396v7.085c0,0.423-0.054,0.77-0.165,1.034
			c-0.109,0.266-0.276,0.459-0.502,0.58C85.552,101.607,85.268,101.668,84.923,101.666L84.923,101.666z M90.562,91.917v0.441
			l0.577,0.455v8.883l-0.669,0.457v0.439h3.286c0.446,0,0.856-0.058,1.229-0.172c0.37-0.114,0.695-0.289,0.966-0.519
			c0.274-0.234,0.485-0.525,0.634-0.875c0.149-0.353,0.226-0.763,0.229-1.235v-5.12c-0.005-0.661-0.132-1.196-0.389-1.602
			c-0.253-0.405-0.607-0.699-1.063-0.883c-0.457-0.185-0.991-0.273-1.604-0.271H90.562L90.562,91.917z M93.756,92.845
			c0.372,0.008,0.666,0.094,0.882,0.256c0.218,0.164,0.369,0.38,0.461,0.654c0.092,0.273,0.135,0.578,0.132,0.917v5.12
			c0.003,0.343-0.04,0.652-0.132,0.929c-0.092,0.273-0.243,0.494-0.461,0.656c-0.216,0.165-0.51,0.25-0.882,0.259h-1.339
			l-0.016-0.091c0.127-0.039,0.216-0.094,0.264-0.168c0.051-0.076,0.074-0.178,0.071-0.304v-8.229H93.756L93.756,92.845z
			 M101.782,92.753l0.577-0.395v-0.441h-2.691v0.441l0.577,0.395c0,1.494,0,2.984,0,4.472c0,1.488,0,2.979,0,4.47l-0.684,0.459
			v0.439c0.296,0,0.613,0,0.947,0s0.669,0,1.004,0c0.332,0,0.646,0,0.938,0v-0.439l-0.668-0.459c0-1.491,0-2.981,0-4.47
			C101.782,95.737,101.782,94.247,101.782,92.753L101.782,92.753z M111.298,94.609c-0.002-0.576-0.129-1.078-0.377-1.501
			c-0.249-0.426-0.599-0.756-1.055-0.988c-0.456-0.233-0.999-0.354-1.625-0.355c-0.621,0.002-1.158,0.125-1.612,0.357
			c-0.453,0.236-0.807,0.567-1.052,0.991c-0.248,0.426-0.376,0.923-0.378,1.496v5.292c0.002,0.57,0.13,1.069,0.378,1.496
			c0.245,0.424,0.599,0.753,1.052,0.988c0.454,0.235,0.991,0.357,1.612,0.36c0.626-0.003,1.169-0.122,1.625-0.355
			c0.456-0.232,0.806-0.562,1.055-0.988c0.248-0.424,0.375-0.925,0.377-1.501V94.609L111.298,94.609z M106.781,94.609
			c-0.003-0.604,0.116-1.058,0.353-1.364c0.237-0.307,0.607-0.461,1.107-0.461c0.34,0.002,0.619,0.086,0.839,0.248
			c0.221,0.165,0.385,0.383,0.492,0.656c0.106,0.273,0.159,0.581,0.159,0.921v5.292c0,0.249-0.03,0.484-0.089,0.702
			c-0.061,0.222-0.151,0.414-0.273,0.581c-0.122,0.17-0.279,0.301-0.464,0.396c-0.188,0.097-0.41,0.145-0.664,0.147
			c-0.5-0.003-0.87-0.158-1.107-0.468c-0.236-0.311-0.355-0.763-0.353-1.358V94.609z"/>
	</g>
	<g>
		<path fill-rule="evenodd" clip-rule="evenodd" fill="#545454" d="M97.478,57.757l-9.244-0.853l3.723-5.982l-13.64-1.105
			l-4.034,4.525l12.107-0.177l-3.087,5.369l14.176-1.365c0.109-0.01,0.192-0.099,0.193-0.205
			C97.672,57.855,97.588,57.767,97.478,57.757L97.478,57.757z M29.847,57.757l9.244-0.853l-3.723-5.982l13.639-1.105l4.035,4.525
			l-12.107-0.177l3.086,5.369l-14.175-1.365c-0.11-0.01-0.193-0.099-0.193-0.205C29.651,57.855,29.735,57.767,29.847,57.757z"/>
		<path fill-rule="evenodd" clip-rule="evenodd" fill="#373737" d="M44.321,68.68l5.308,5.308l-1.898,1.898l-5.308-5.307
			L44.321,68.68L44.321,68.68z M58.328,28.853c0,3.011,2.29,5.45,5.114,5.45s5.113-2.439,5.113-5.45
			c0-2.382-2.103-5.503-3.031-7.325c-0.742-1.455-1.426-2.957-1.889-4.632c-0.026-0.092-0.104-0.153-0.193-0.153
			c-0.091,0-0.168,0.062-0.193,0.153c-0.464,1.675-1.148,3.177-1.89,4.632C60.431,23.349,58.328,26.471,58.328,28.853L58.328,28.853
			z M61.521,34.822c-0.637,2.18-1.169,4.55-1.59,7.046h7.021c-0.42-2.496-0.953-4.866-1.59-7.046
			c-0.597,0.214-1.241,0.331-1.92,0.331C62.763,35.153,62.118,35.036,61.521,34.822L61.521,34.822z M59.781,42.795
			c-1.87,12.052-1.122,26.811,3.464,37.463c0.034,0.081,0.109,0.129,0.197,0.129c0.087,0,0.162-0.049,0.196-0.129
			c4.586-10.652,5.334-25.411,3.464-37.463H59.781L59.781,42.795z M82.562,68.68l-5.308,5.308l1.899,1.898l5.308-5.307L82.562,68.68
			L82.562,68.68z M40.104,32.146l1.53,3.056l2.145-2.144l-3.056-1.531c-0.181-0.091-0.39-0.056-0.533,0.086
			C40.047,31.756,40.013,31.966,40.104,32.146L40.104,32.146z M41.966,35.863l2.474-2.474l5.68,2.846l-5.308,5.308L41.966,35.863
			L41.966,35.863z M82.066,68.184l-5.308,5.308l-8.409-8.41c0.396-3.332,0.572-6.723,0.555-10.059L82.066,68.184L82.066,68.184z
			 M58.532,65.083c-0.397-3.331-0.572-6.723-0.555-10.06l-13.16,13.16l5.307,5.308L58.532,65.083L58.532,65.083z M57.979,54.712
			L45.308,42.039l5.307-5.308l8.032,8.031C58.243,47.936,58.011,51.292,57.979,54.712L57.979,54.712z M68.237,44.764l8.032-8.032
			l5.308,5.308L68.902,54.713C68.873,51.293,68.641,47.936,68.237,44.764L68.237,44.764z M79.649,76.382l5.308-5.308l1.145,1.145
			c0.973,0.973,0.973,2.564,0,3.537l-1.77,1.77c-0.974,0.973-2.565,0.973-3.538,0L79.649,76.382L79.649,76.382z M86.78,32.146
			l-1.53,3.056l-2.145-2.144l3.057-1.531c0.18-0.091,0.389-0.056,0.532,0.086C86.837,31.756,86.871,31.966,86.78,32.146
			L86.78,32.146z M84.919,35.863l-2.474-2.474l-5.68,2.846l5.308,5.308L84.919,35.863L84.919,35.863z M47.233,76.382l-5.307-5.308
			l-1.145,1.145c-0.972,0.972-0.972,2.564,0,3.537l1.771,1.771c0.972,0.972,2.564,0.972,3.537-0.001L47.233,76.382z"/>
	</g>
</g>
</svg>
