<?xml version="1.0" encoding="utf-8"?>
<!-- Generator: Adobe Illustrator 16.0.0, SVG Export Plug-In . SVG Version: 6.00 Build 0)  -->
<!DOCTYPE svg PUBLIC "-//W3C//DTD SVG 1.1//EN" "http://www.w3.org/Graphics/SVG/1.1/DTD/svg11.dtd">
<svg version="1.1" id="Layer_1" xmlns="http://www.w3.org/2000/svg" xmlns:xlink="http://www.w3.org/1999/xlink" x="0px" y="0px"
	 width="125.918px" height="98.329px" viewBox="0 0 125.918 98.329" enable-background="new 0 0 125.918 98.329"
	 xml:space="preserve">
<g>
	<path fill="#373737" d="M62.964,28.887c11.947,0,21.638,9.694,21.638,21.648c0,11.952-9.69,21.647-21.638,21.647
		s-21.637-9.695-21.637-21.647C41.327,38.582,51.017,28.887,62.964,28.887z"/>
	<path fill-rule="evenodd" clip-rule="evenodd" fill="#373737" d="M98.944,40.731h26.974l-2.95,9.805l2.95,9.803H98.944
		c0.854-3.125,1.312-6.413,1.312-9.803C100.257,47.145,99.799,43.857,98.944,40.731L98.944,40.731z M26.975,40.731L26.975,40.731H0
		l2.96,9.805L0,60.338h26.975c-0.846-3.125-1.303-6.413-1.303-9.803C25.672,47.145,26.129,43.857,26.975,40.731z"/>
	<path fill-rule="evenodd" clip-rule="evenodd" fill="#FFFFFF" d="M64.985,62.193c-0.41,0.701-1.161,1.171-2.021,1.171
		c-0.87,0-1.619-0.47-2.02-1.171H49.551c-0.319,0-0.58-0.26-0.58-0.58V40.038c0-0.32,0.261-0.581,0.58-0.581h0.59v19.995
		c0,0.12,0.03,0.23,0.1,0.33c0.181,0.271,0.552,0.331,0.812,0.15c0.84-0.581,1.77-1.041,2.771-1.352c0.95-0.3,1.971-0.46,3.021-0.46
		c1.051,0,2.071,0.16,3.021,0.46c0.979,0.301,1.899,0.751,2.73,1.331h0.01l0.01,0.011l0.01,0.01h0.011v0.011h0.008l0.012,0.009
		h0.011l0.009,0.011h0.011v0.009h0.01h0.01v0.011h0.01l0.01,0.01h0.01h0.011v0.01h0.011h0.01h0.009v0.011h0.011h0.01h0.011
		l0.01,0.01h0.01h0.01h0.01l0.011,0.01h0.01h0.01h0.011h0.01h0.01h0.01h0.01h0.011v0.011c0.009,0,0.02,0,0.029,0
		c0.011,0,0.021,0,0.03,0v-0.011h0.011h0.02h0.01h0.01h0.01h0.011h0.01v-0.01h0.01h0.01h0.012h0.009v-0.01h0.01h0.01h0.01
		l0.012-0.011h0.008h0.011v-0.01h0.011h0.01h0.01v-0.01h0.01l0.01-0.011h0.011l0.01-0.009h0.01l0.01-0.011h0.012l0.009-0.009
		l0.01-0.011h0.01v-0.01c0.01,0,0.01-0.011,0.021-0.011c0.839-0.58,1.76-1.03,2.729-1.331c0.96-0.3,1.97-0.46,3.031-0.46
		c1.05,0,2.061,0.16,3.021,0.46c0.99,0.311,1.92,0.771,2.761,1.352c0.27,0.181,0.63,0.12,0.811-0.15
		c0.069-0.1,0.108-0.21,0.108-0.33V39.457h0.581c0.319,0,0.58,0.261,0.58,0.581v21.575c0,0.32-0.261,0.58-0.58,0.58H64.985
		L64.985,62.193z M65.715,57.47c1.07-0.34,2.2-0.521,3.371-0.521c1.17,0,2.3,0.181,3.371,0.521c0.749,0.23,1.479,0.551,2.159,0.931
		V39.357c-0.77-0.511-1.62-0.911-2.51-1.19c-0.96-0.301-1.971-0.461-3.021-0.461c-1.062,0-2.071,0.16-3.031,0.461
		c-0.89,0.279-1.73,0.68-2.51,1.19v19.044C64.234,58.021,64.955,57.701,65.715,57.47L65.715,57.47L65.715,57.47z M60.214,57.47
		L60.214,57.47c0.76,0.23,1.479,0.551,2.161,0.931V39.357c-0.771-0.511-1.611-0.911-2.511-1.19c-0.95-0.301-1.971-0.461-3.021-0.461
		c-1.05,0-2.07,0.16-3.021,0.461c-0.9,0.279-1.74,0.68-2.521,1.19v19.044c0.69-0.38,1.41-0.7,2.17-0.931
		c1.07-0.34,2.2-0.521,3.371-0.521C58.013,56.95,59.144,57.13,60.214,57.47z"/>
	<path fill-rule="evenodd" clip-rule="evenodd" fill="#373737" d="M30.037,7.615l-4.518-4.52c-0.479-0.479-1.263-0.479-1.74,0
		l-4.111,4.123l-4.121,4.112c-0.479,0.479-0.479,1.263,0,1.741l4.519,4.52l4.985-4.987L30.037,7.615L30.037,7.615z M95.892,7.615
		L95.892,7.615l4.518-4.52c0.479-0.479,1.263-0.479,1.74,0l4.11,4.123l4.111,4.112c0.479,0.479,0.479,1.263,0,1.741l-4.518,4.52
		l-4.977-4.987L95.892,7.615L95.892,7.615z M29.213,92.631L29.213,92.631l-9.687,4.122l-1.385-1.384l-1.373-1.374l4.12-9.702
		c0.144,0.305,0.336,0.59,0.591,0.834c0.52,0.52,1.19,0.825,1.893,0.887c-0.123,1.1,0.244,2.229,1.068,3.063
		c0.824,0.824,1.964,1.192,3.062,1.069c0.062,0.692,0.357,1.374,0.875,1.894C28.632,92.285,28.918,92.489,29.213,92.631
		L29.213,92.631z M18.651,97.121l-1.131-1.131l-1.129-1.129l-1.159,2.727c-0.081,0.205-0.041,0.429,0.111,0.582
		c0.162,0.162,0.376,0.203,0.579,0.111L18.651,97.121L18.651,97.121L18.651,97.121z M100.165,23.283L100.165,23.283l-6.329,6.332
		c-0.712-1.068-1.486-2.098-2.309-3.074l5.94-5.956L100.165,23.283L100.165,23.283z M42.044,81.433
		c-1.058-0.723-2.086-1.497-3.073-2.321L28.378,89.718c-0.05,0.612-0.03,1.04,0.621,1.701c0.662,0.652,2.229,0.845,3.072,0
		L42.044,81.433L42.044,81.433L42.044,81.433z M27.604,89.241l10.705-10.7c-0.59-0.519-1.16-1.058-1.72-1.607
		c-0.56-0.562-1.099-1.141-1.618-1.73L24.278,85.901c-0.175,0.896,0.091,1.864,0.783,2.556
		C25.753,89.149,26.71,89.404,27.604,89.241L27.604,89.241L27.604,89.241z M87.618,22.53c0.59,0.518,1.161,1.059,1.71,1.607
		c0.56,0.561,1.099,1.141,1.618,1.73l5.902-5.904l-1.67-1.669l-1.658-1.67L87.618,22.53L87.618,22.53L87.618,22.53z M104.357,19.088
		l0.204,0.204c0.243,0.243,0.641,0.243,0.885,0c0.234-0.245,0.234-0.632,0-0.877l-5.189-5.191l-5.189-5.192
		c-0.244-0.244-0.641-0.244-0.886,0c-0.233,0.245-0.233,0.642,0,0.876l0.214,0.204L91.7,11.809l-0.204-0.203
		c-0.244-0.245-0.642-0.245-0.885,0c-0.235,0.244-0.235,0.642,0,0.876l5.188,5.191l5.189,5.191c0.244,0.245,0.641,0.245,0.875,0
		c0.245-0.234,0.245-0.631,0-0.875l-0.203-0.205L104.357,19.088L104.357,19.088L104.357,19.088z M90.203,13.316L90.203,13.316
		l-6.329,6.322c1.068,0.722,2.096,1.496,3.073,2.32l5.953-5.955L90.203,13.316L90.203,13.316z M32.082,71.456L32.082,71.456
		L22.1,81.443c-0.845,0.845-0.65,2.412,0,3.064c0.662,0.661,1.09,0.681,1.7,0.631l10.602-10.607
		C33.577,73.542,32.805,72.524,32.082,71.456L32.082,71.456z M96.705,92.631L96.705,92.631l9.697,4.122l1.374-1.384l1.384-1.374
		l-4.121-9.702c-0.143,0.305-0.346,0.59-0.591,0.834c-0.529,0.52-1.2,0.825-1.892,0.887c0.121,1.1-0.244,2.239-1.079,3.063
		c-0.824,0.824-1.953,1.192-3.053,1.069c-0.061,0.692-0.366,1.374-0.885,1.894C97.295,92.285,97.011,92.489,96.705,92.631
		L96.705,92.631z M107.268,97.121l1.13-1.131l1.13-1.129l1.159,2.727c0.092,0.205,0.051,0.429-0.112,0.582
		c-0.153,0.162-0.376,0.203-0.579,0.111L107.268,97.121L107.268,97.121L107.268,97.121z M25.753,23.283L25.753,23.283l6.329,6.332
		c0.723-1.068,1.495-2.098,2.319-3.074l-5.951-5.956L25.753,23.283L25.753,23.283z M83.874,81.433
		c1.068-0.723,2.096-1.497,3.073-2.321l10.604,10.606c0.039,0.612,0.03,1.04-0.632,1.701c-0.651,0.652-2.218,0.845-3.062,0
		L83.874,81.433L83.874,81.433L83.874,81.433z M98.313,89.241l-10.695-10.7c0.59-0.519,1.161-1.058,1.71-1.607
		c0.56-0.562,1.099-1.141,1.618-1.73l10.704,10.698c0.163,0.896-0.101,1.864-0.794,2.556
		C100.165,89.149,99.209,89.404,98.313,89.241L98.313,89.241L98.313,89.241z M38.31,22.53c-0.59,0.518-1.16,1.059-1.72,1.607
		c-0.56,0.561-1.099,1.141-1.618,1.73l-5.901-5.904l1.669-1.669l1.668-1.67L38.31,22.53L38.31,22.53L38.31,22.53z M21.561,19.088
		l-0.202,0.204c-0.245,0.243-0.633,0.243-0.876,0c-0.244-0.245-0.244-0.632,0-0.877l5.189-5.191l5.189-5.192
		c0.244-0.244,0.631-0.244,0.875,0c0.244,0.245,0.244,0.642,0,0.876l-0.204,0.204l2.696,2.697l0.203-0.203
		c0.245-0.245,0.632-0.245,0.876,0c0.244,0.244,0.244,0.642,0,0.876l-5.189,5.191l-5.189,5.191c-0.244,0.245-0.631,0.245-0.875,0
		c-0.245-0.234-0.245-0.631,0-0.875l0.203-0.205L21.561,19.088L21.561,19.088L21.561,19.088z M35.724,13.316L35.724,13.316
		l6.32,6.322c-1.058,0.722-2.086,1.496-3.073,2.32l-5.942-5.955L35.724,13.316L35.724,13.316z M93.836,71.456L93.836,71.456
		l9.982,9.987c0.854,0.845,0.661,2.412,0,3.064c-0.651,0.661-1.089,0.681-1.689,0.631L91.527,74.531
		C92.35,73.542,93.124,72.524,93.836,71.456z"/>
	<path fill="#545454" d="M88.211,25.27c-6.461-6.467-15.388-10.466-25.247-10.466c-9.861,0-18.789,4.001-25.253,10.467
		c-6.463,6.466-10.46,15.399-10.46,25.265s3.997,18.798,10.46,25.264c6.464,6.468,15.392,10.468,25.253,10.468
		c9.859,0,18.786-4,25.247-10.466c6.46-6.466,10.456-15.399,10.456-25.266C98.667,40.668,94.671,31.736,88.211,25.27z M87.81,75.403
		c-6.356,6.361-15.141,10.298-24.846,10.298c-9.706,0-18.493-3.937-24.852-10.299c-6.36-6.364-10.294-15.156-10.294-24.866
		c0-9.711,3.934-18.503,10.294-24.866c6.358-6.363,15.146-10.298,24.852-10.298c9.705,0,18.489,3.935,24.846,10.296
		c6.358,6.364,10.291,15.156,10.291,24.868S94.168,69.04,87.81,75.403z M62.964,27.315c-6.406,0-12.209,2.601-16.409,6.803
		s-6.799,10.008-6.799,16.418c0,6.409,2.599,12.214,6.799,16.416s10.003,6.803,16.409,6.803s12.209-2.601,16.41-6.803
		c4.2-4.202,6.799-10.007,6.799-16.416c0-6.41-2.599-12.215-6.799-16.418C75.173,29.916,69.37,27.315,62.964,27.315z M78.973,66.553
		c-4.097,4.099-9.758,6.635-16.009,6.635c-6.252,0-11.912-2.536-16.009-6.635s-6.632-9.763-6.632-16.018s2.535-11.919,6.632-16.019
		c4.097-4.099,9.757-6.634,16.009-6.634c6.251,0,11.912,2.535,16.009,6.634c4.098,4.1,6.633,9.764,6.633,16.019
		S83.071,62.454,78.973,66.553z"/>
	<path fill-rule="evenodd" clip-rule="evenodd" fill="#545454" d="M33.781,49.355c-0.65,0-1.181,0.529-1.181,1.181
		s0.53,1.181,1.181,1.181c0.662,0,1.19-0.529,1.19-1.181S34.443,49.355,33.781,49.355L33.781,49.355z M92.138,49.355L92.138,49.355
		c-0.652,0-1.181,0.529-1.181,1.181s0.528,1.181,1.181,1.181c0.65,0,1.18-0.529,1.18-1.181S92.788,49.355,92.138,49.355z"/>
	<path fill="#373737" d="M90.299,57.631l2.9,0.749l-0.162,0.606l-3.98-1.115l0.193-0.735c0.849-0.002,1.708-0.021,2.56-0.06
		l-2.416-0.546l0.112-0.515l4.049,0.829l-0.152,0.699C92.365,57.601,91.329,57.629,90.299,57.631L90.299,57.631z M89.687,61.658
		L89.687,61.658c0.12-0.274,0.223-0.555,0.334-0.832l1.22,0.465c0.203,0.077,0.362,0.175,0.487,0.316
		c0.115,0.12,0.185,0.262,0.203,0.443c0.021,0.181-0.017,0.359-0.108,0.574c-0.09,0.215-0.189,0.367-0.333,0.48
		c-0.135,0.097-0.293,0.162-0.459,0.165c-0.188,0.011-0.37-0.033-0.567-0.124l-1.947-0.894c-0.213-0.098-0.367-0.205-0.472-0.339
		c-0.111-0.119-0.175-0.268-0.2-0.415c-0.017-0.161-0.005-0.324,0.073-0.51c0.08-0.186,0.185-0.311,0.312-0.41
		c0.13-0.1,0.272-0.145,0.437-0.149c0.17-0.019,0.354,0.017,0.573,0.099l0.375,0.144l-0.222,0.562l-0.418-0.169
		c-0.141-0.057-0.244-0.064-0.325-0.046c-0.087,0.034-0.133,0.101-0.17,0.188c-0.036,0.088-0.052,0.167-0.015,0.253
		c0.043,0.069,0.123,0.139,0.261,0.198l2.043,0.883c0.093,0.039,0.177,0.057,0.229,0.062c0.075-0.007,0.135-0.02,0.171-0.062
		c0.052-0.036,0.079-0.101,0.106-0.164c0.026-0.065,0.055-0.131,0.043-0.191c0.005-0.056-0.026-0.107-0.076-0.165
		c-0.041-0.035-0.111-0.083-0.205-0.121l-0.697-0.282l-0.111,0.267L89.687,61.658L89.687,61.658z M86.188,64.51L86.188,64.51
		l0.308-0.521l3.588,2.053l-0.354,0.603L86.188,64.51L86.188,64.51z M84.534,68.555L84.534,68.555
		c-0.18-0.15-0.301-0.292-0.366-0.45c-0.076-0.145-0.107-0.292-0.083-0.454c0.016-0.147,0.08-0.312,0.195-0.46
		c0.125-0.159,0.26-0.25,0.409-0.313c0.141-0.049,0.301-0.068,0.461-0.029c0.159,0.039,0.326,0.122,0.516,0.259l0.095,0.07
		l-0.349,0.467l-0.133-0.102c-0.12-0.091-0.22-0.126-0.303-0.13c-0.091,0.009-0.144,0.049-0.212,0.137
		c-0.059,0.076-0.095,0.148-0.071,0.227c0.023,0.079,0.081,0.167,0.199,0.262c0.092,0.073,0.193,0.134,0.301,0.157
		c0.097,0.015,0.216,0.024,0.321,0.023c0.117-0.012,0.224-0.014,0.352-0.041c0.105-0.023,0.244-0.042,0.36-0.059
		c0.117-0.018,0.248-0.023,0.38-0.031c0.12,0.006,0.255,0.021,0.394,0.059c0.128,0.053,0.271,0.114,0.406,0.212
		c0.176,0.128,0.304,0.265,0.386,0.436c0.08,0.145,0.11,0.3,0.08,0.479c-0.029,0.18-0.111,0.344-0.256,0.525
		c-0.144,0.186-0.28,0.305-0.449,0.376c-0.166,0.071-0.324,0.079-0.485,0.038c-0.185-0.039-0.347-0.131-0.514-0.271l-0.193-0.161
		l0.403-0.493l0.222,0.18c0.079,0.062,0.154,0.102,0.206,0.118c0.073,0.015,0.134,0.019,0.18-0.013
		c0.059-0.021,0.102-0.075,0.146-0.132c0.043-0.055,0.086-0.109,0.092-0.173c0.02-0.052,0.002-0.11-0.03-0.179
		c-0.029-0.044-0.085-0.108-0.164-0.169c-0.093-0.072-0.185-0.118-0.296-0.14c-0.111-0.021-0.208-0.03-0.327-0.015
		c-0.107,0.001-0.227,0.018-0.354,0.045l-0.364,0.054c-0.132,0.001-0.249,0.013-0.393,0.002c-0.119-0.012-0.251-0.036-0.385-0.083
		C84.786,68.724,84.663,68.663,84.534,68.555L84.534,68.555z M82.633,71.631l-0.776-0.832c0.261-0.24,0.513-0.489,0.765-0.74
		l-0.428-0.424c-0.39,0.387-0.783,0.769-1.195,1.133l2.753,3.083c0.475-0.418,0.929-0.858,1.377-1.304l-0.416-0.413
		c-0.277,0.276-0.558,0.552-0.845,0.818l-0.823-0.881c0.219-0.202,0.434-0.409,0.646-0.621l-0.425-0.427
		C83.058,71.23,82.848,71.433,82.633,71.631L82.633,71.631L82.633,71.631z M78.43,73.529L78.43,73.529l1.647,2.441l0.318-0.219
		c0.059-0.039,0.093-0.083,0.127-0.126c0.023-0.059,0.047-0.117,0.022-0.182c-0.011-0.075-0.036-0.141-0.094-0.222l-1.24-1.746
		c-0.059-0.081-0.119-0.141-0.185-0.177c-0.042-0.032-0.109-0.045-0.158-0.031c-0.059,0-0.107,0.014-0.15,0.062L78.43,73.529
		L78.43,73.529z M77.587,73.363L77.587,73.363c0.27-0.174,0.538-0.352,0.801-0.536c0.243-0.167,0.476-0.216,0.703-0.171
		c0.226,0.043,0.426,0.205,0.626,0.473l1.248,1.679c0.199,0.27,0.295,0.515,0.249,0.754c-0.035,0.25-0.189,0.47-0.469,0.662
		c-0.303,0.211-0.611,0.416-0.923,0.616L77.587,73.363L77.587,73.363z M74.01,75.958L74.01,75.958l1.176,2.7l0.354-0.158
		c0.064-0.028,0.122-0.072,0.163-0.109c0.034-0.052,0.051-0.098,0.056-0.173c-0.013-0.068-0.025-0.136-0.067-0.227l-0.903-1.942
		c-0.042-0.092-0.093-0.16-0.134-0.214c-0.051-0.034-0.101-0.065-0.15-0.062c-0.059-0.012-0.123,0-0.175,0.042L74.01,75.958
		L74.01,75.958z M73.21,75.641L73.21,75.641c0.297-0.125,0.594-0.248,0.886-0.382c0.27-0.119,0.521-0.133,0.722-0.041
		c0.213,0.083,0.396,0.273,0.545,0.573l0.924,1.877c0.148,0.302,0.18,0.563,0.093,0.792c-0.064,0.233-0.271,0.429-0.582,0.566
		c-0.337,0.154-0.679,0.297-1.021,0.439L73.21,75.641L73.21,75.641z M69.847,77.938L69.847,77.938l0.728,2.906l-0.61,0.146
		l-0.923-4.029l0.739-0.179c0.402,0.745,0.821,1.487,1.26,2.224l-0.676-2.383l0.521-0.154l1.208,3.953l-0.688,0.202
		C70.859,79.737,70.342,78.847,69.847,77.938L69.847,77.938z M65.642,80.356L65.642,80.356l0.633-0.063l-0.516-2.05L65.642,80.356
		L65.642,80.356z M67.341,81.476L67.341,81.476l-0.711,0.092l-0.191-0.737c-0.278,0.027-0.556,0.062-0.835,0.082l-0.062,0.761
		l-0.624,0.045c0.147-1.387,0.265-2.78,0.351-4.17c0.294-0.021,0.588-0.058,0.881-0.087C66.516,78.802,66.912,80.142,67.341,81.476
		L67.341,81.476z M61.126,78.188L61.126,78.188l-0.082,1.252l0.266,0.017c0.066,0.004,0.149,0.009,0.2-0.021
		c0.068-0.031,0.103-0.062,0.14-0.129c0.035-0.065,0.055-0.147,0.061-0.265l0.017-0.401c0.007-0.151-0.021-0.252-0.065-0.32
		c-0.044-0.069-0.121-0.124-0.233-0.114L61.126,78.188L61.126,78.188z M61.664,81.752L61.664,81.752
		c-0.017-0.018-0.015-0.051-0.033-0.067c0.001-0.033-0.016-0.068-0.014-0.102c0.001-0.033,0.004-0.084-0.012-0.135l0.009-0.2
		l0.028-0.652c0.006-0.134-0.008-0.234-0.021-0.303c-0.03-0.084-0.078-0.136-0.146-0.174c-0.049-0.036-0.133-0.058-0.234-0.063
		l-0.235-0.015l-0.11,1.671l-0.678-0.053l0.359-4.118c0.299,0.027,0.599,0.049,0.898,0.063c0.218,0.015,0.371,0.051,0.51,0.123
		c0.122,0.088,0.229,0.191,0.287,0.328c0.062,0.153,0.089,0.319,0.085,0.537l-0.007,0.318c-0.004,0.217-0.041,0.401-0.128,0.532
		c-0.069,0.132-0.173,0.229-0.326,0.308c0.116,0.037,0.198,0.107,0.264,0.193c0.048,0.085,0.097,0.188,0.128,0.306
		c0.015,0.117,0.028,0.251,0.026,0.385l-0.014,0.636c-0.002,0.101-0.005,0.184,0.012,0.268c-0.001,0.084,0.015,0.168,0.049,0.235
		L61.664,81.752L61.664,81.752z M56.823,77.565L56.823,77.565l-0.24,1.061l0.243,0.055c0.08,0.017,0.147,0.017,0.203-0.007
		c0.067-0.004,0.11-0.046,0.155-0.105c0.046-0.059,0.079-0.139,0.098-0.236l0.048-0.229c0.03-0.148,0.019-0.252-0.015-0.327
		c-0.034-0.075-0.101-0.139-0.213-0.147L56.823,77.565L56.823,77.565z M56.454,79.198L56.454,79.198l-0.281,1.24l0.378,0.084
		c0.068,0.016,0.142,0.012,0.196,0.007c0.059-0.022,0.099-0.05,0.147-0.108c0.03-0.062,0.061-0.124,0.08-0.223l0.072-0.36
		c0.026-0.131,0.029-0.233,0.01-0.306c-0.004-0.068-0.043-0.128-0.103-0.174c-0.06-0.045-0.121-0.076-0.221-0.099L56.454,79.198
		L56.454,79.198z M57.244,77.042L57.244,77.042c0.213,0.048,0.374,0.11,0.483,0.2c0.121,0.11,0.195,0.228,0.233,0.369
		c0.035,0.158,0.037,0.329-0.002,0.543l-0.026,0.148c-0.038,0.215-0.101,0.373-0.189,0.493c-0.089,0.122-0.224,0.214-0.368,0.253
		c0.151,0.1,0.264,0.223,0.303,0.382c0.057,0.163,0.059,0.35,0.017,0.581l-0.058,0.329c-0.056,0.313-0.184,0.528-0.39,0.662
		c-0.204,0.131-0.485,0.161-0.818,0.092c-0.355-0.078-0.711-0.156-1.064-0.247l1.003-4.01
		C56.658,76.912,56.951,76.976,57.244,77.042L57.244,77.042z M51.039,78.131L51.039,78.131c0.532-0.84,1.053-1.687,1.557-2.539
		l0.779,0.309l-1.463,3.866l-0.617-0.241l1.106-2.747c-0.504,0.862-1.022,1.716-1.554,2.562l-0.592-0.256
		c0.237-0.958,0.489-1.908,0.758-2.854l-1.23,2.641l-0.551-0.263l1.82-3.712l0.76,0.356C51.541,76.205,51.28,77.168,51.039,78.131
		L51.039,78.131z M47.893,73.072L47.893,73.072l-1.78,2.655c-0.056,0.083-0.079,0.149-0.088,0.224
		c-0.012,0.051,0.004,0.122,0.039,0.165c0.025,0.057,0.061,0.1,0.119,0.139c0.06,0.038,0.128,0.062,0.189,0.062
		c0.053,0.016,0.11-0.008,0.166-0.031c0.065-0.036,0.102-0.093,0.155-0.179l1.719-2.693l0.489,0.304l-1.637,2.688
		c-0.121,0.199-0.246,0.339-0.385,0.43c-0.154,0.082-0.307,0.125-0.487,0.11c-0.167-0.003-0.351-0.083-0.546-0.211
		c-0.18-0.116-0.325-0.254-0.411-0.415c-0.071-0.15-0.106-0.317-0.079-0.48c0.028-0.163,0.092-0.344,0.227-0.536l1.81-2.573
		L47.893,73.072L47.893,73.072z M44.994,70.83l-2.743,3.093l0.526,0.457l2.674-3.152L44.994,70.83L44.994,70.83L44.994,70.83z
		 M40.144,70.087L40.144,70.087c0.847-0.521,1.682-1.054,2.512-1.601c0.186,0.21,0.373,0.417,0.565,0.62L40.21,71.94l-0.448-0.487
		l2.2-1.984c-0.83,0.553-1.672,1.094-2.522,1.623l-0.431-0.503c0.639-0.752,1.287-1.493,1.945-2.222l-2.263,1.834l-0.379-0.478
		l3.261-2.539l0.525,0.653C41.435,68.578,40.785,69.326,40.144,70.087L40.144,70.087z M38.126,65.208l0.979-0.58
		c0.18,0.307,0.367,0.608,0.56,0.906l0.507-0.326c-0.295-0.456-0.577-0.923-0.842-1.397l-3.604,2.027
		c0.307,0.547,0.631,1.084,0.971,1.609l0.492-0.316c-0.213-0.329-0.42-0.664-0.618-1.003l1.036-0.613
		c0.152,0.265,0.317,0.519,0.476,0.778l0.509-0.323C38.437,65.715,38.274,65.465,38.126,65.208L38.126,65.208L38.126,65.208z
		 M37.198,60.739L37.198,60.739l-1.167,0.462l0.092,0.232c0.03,0.077,0.058,0.139,0.113,0.188c0.051,0.032,0.101,0.065,0.176,0.07
		c0.068-0.012,0.151-0.028,0.259-0.074l0.37-0.156c0.14-0.059,0.226-0.112,0.269-0.183c0.043-0.068,0.053-0.177,0-0.259
		L37.198,60.739L37.198,60.739z M34.201,62.737L34.201,62.737c0.016-0.007,0.038-0.037,0.055-0.043
		c0.023-0.03,0.054-0.043,0.086-0.056c0.023-0.029,0.069-0.049,0.116-0.068l0.185-0.078l0.602-0.255
		c0.124-0.052,0.209-0.106,0.257-0.163c0.064-0.065,0.098-0.115,0.103-0.19c0.005-0.077-0.015-0.16-0.052-0.255l-0.081-0.205
		l-1.556,0.616l-0.25-0.651l3.877-1.437c0.103,0.287,0.219,0.57,0.332,0.854c0.078,0.186,0.113,0.355,0.105,0.512
		c-0.027,0.147-0.079,0.273-0.176,0.387c-0.112,0.117-0.252,0.216-0.451,0.305l-0.289,0.13c-0.199,0.089-0.38,0.135-0.529,0.128
		c-0.149-0.005-0.291-0.07-0.419-0.161c0.007,0.106-0.019,0.209-0.067,0.305s-0.121,0.183-0.221,0.246
		c-0.092,0.079-0.207,0.149-0.33,0.204l-0.58,0.262l-0.244,0.108c-0.069,0.052-0.138,0.103-0.185,0.161L34.201,62.737L34.201,62.737
		z M35.952,56.725L35.952,56.725l-1.354,0.31l0.072,0.308c0.017,0.064,0.044,0.11,0.072,0.155c0.028,0.043,0.085,0.063,0.142,0.084
		c0.068,0,0.138-0.001,0.234-0.025l0.601-0.151c0.098-0.024,0.176-0.06,0.22-0.088c0.042-0.042,0.083-0.086,0.089-0.136
		c0.021-0.054,0.025-0.104-0.006-0.162L35.952,56.725L35.952,56.725z M36.606,56.878L36.606,56.878
		c0.068,0.286,0.029,0.536-0.094,0.716c-0.121,0.194-0.343,0.338-0.665,0.428l-0.517,0.142c-0.323,0.089-0.586,0.075-0.808-0.04
		c-0.203-0.103-0.348-0.331-0.423-0.645l-0.073-0.314l-1.518,0.347l-0.145-0.666l4.049-0.832
		C36.476,56.302,36.535,56.592,36.606,56.878z"/>
	<path fill="#373737" d="M91.616,43.5l0.2,0.873l-0.573,0.122l-0.196-0.856l-1.187,0.29c0.086,0.344,0.16,0.69,0.232,1.037
		l-0.574,0.117c-0.111-0.538-0.233-1.073-0.378-1.604l3.993-1.069c0.168,0.61,0.308,1.229,0.437,1.849l-0.574,0.117
		c-0.081-0.385-0.163-0.77-0.258-1.15L91.616,43.5L91.616,43.5z M91.716,38.295L91.716,38.295l0.266,0.647l-3.295,1.315
		c0.126,0.313,0.243,0.632,0.36,0.949l-0.552,0.197c-0.184-0.501-0.372-1-0.584-1.489L91.716,38.295L91.716,38.295z M87.513,36.084
		L87.513,36.084c0.66-0.698,1.298-1.414,1.924-2.151l0.374,0.611c-0.451,0.478-0.906,0.944-1.368,1.403
		c0.628-0.166,1.264-0.323,1.902-0.471l0.314,0.585c-0.953,0.167-1.894,0.358-2.829,0.575l-1.198,0.671l-0.302-0.526L87.513,36.084
		L87.513,36.084z M86.816,30.35l-0.446,0.379l0.459,0.556l-2.763,2.229l0.377,0.477l2.81-2.166l0.423,0.561l0.473-0.347
		C87.726,31.459,87.278,30.899,86.816,30.35L86.816,30.35L86.816,30.35z M83.05,27.901L83.05,27.901
		c0.144-0.163,0.291-0.277,0.458-0.33c0.164-0.078,0.322-0.093,0.487-0.035c0.162,0.034,0.339,0.134,0.496,0.28
		c0.172,0.158,0.262,0.323,0.319,0.495c0.054,0.147,0.062,0.318-0.009,0.485c-0.057,0.158-0.164,0.312-0.319,0.465l-0.095,0.094
		l-0.441-0.437l0.117-0.122c0.104-0.106,0.149-0.203,0.158-0.289c-0.003-0.097-0.031-0.17-0.132-0.241
		c-0.066-0.085-0.153-0.121-0.237-0.108c-0.084,0.014-0.178,0.062-0.28,0.173c-0.079,0.086-0.146,0.184-0.166,0.28
		c-0.031,0.109-0.051,0.229-0.058,0.337c0.004,0.118-0.004,0.225,0.012,0.355c0.013,0.108,0.027,0.238,0.017,0.368
		c0.001,0.119-0.01,0.249-0.022,0.378c-0.021,0.117-0.059,0.246-0.119,0.377c-0.073,0.116-0.157,0.246-0.276,0.364
		c-0.155,0.152-0.309,0.259-0.471,0.308c-0.162,0.073-0.325,0.079-0.473,0.052c-0.147-0.049-0.29-0.125-0.438-0.262
		c-0.147-0.137-0.226-0.281-0.284-0.425c-0.048-0.155-0.039-0.306,0.025-0.474c0.041-0.163,0.14-0.323,0.284-0.486l0.167-0.188
		l0.445,0.403l-0.194,0.209c-0.066,0.074-0.112,0.146-0.134,0.194c-0.023,0.07-0.022,0.117-0.011,0.175
		c0.012,0.057,0.059,0.1,0.104,0.143c0.046,0.044,0.092,0.088,0.149,0.097c0.059,0.009,0.104,0.006,0.174-0.02
		c0.046-0.024,0.115-0.074,0.186-0.146c0.081-0.084,0.139-0.167,0.175-0.274c0.035-0.107,0.058-0.225,0.066-0.33
		c0.011-0.104,0.008-0.222-0.02-0.339c-0.003-0.117-0.019-0.248-0.012-0.379c-0.005-0.118-0.012-0.235,0.004-0.379
		c0.018-0.12,0.045-0.253,0.097-0.386C82.863,28.162,82.938,28.026,83.05,27.901L83.05,27.901z M79.62,27.216L79.62,27.216
		l-0.321,0.449c-0.126,0.177-0.26,0.309-0.397,0.393c-0.162,0.092-0.305,0.131-0.469,0.121c-0.142-0.015-0.311-0.07-0.477-0.183
		c-0.17-0.11-0.272-0.237-0.353-0.371c-0.06-0.138-0.091-0.294-0.056-0.47c0.012-0.169,0.082-0.342,0.197-0.528l1.138-1.834
		c0.114-0.186,0.24-0.323,0.396-0.404c0.148-0.104,0.317-0.139,0.473-0.117c0.18,0.018,0.358,0.074,0.554,0.201
		c0.193,0.13,0.327,0.285,0.398,0.434c0.095,0.146,0.113,0.304,0.088,0.493c-0.03,0.164-0.108,0.333-0.236,0.51l-0.233,0.326
		l-0.519-0.363l0.246-0.358c0.085-0.124,0.113-0.227,0.106-0.312c-0.02-0.095-0.073-0.173-0.171-0.218
		c-0.079-0.071-0.171-0.092-0.252-0.065c-0.096,0.019-0.18,0.083-0.261,0.21l-1.216,1.865c-0.055,0.084-0.087,0.163-0.088,0.223
		c-0.023,0.064-0.002,0.118,0.021,0.173c0.021,0.054,0.062,0.079,0.114,0.114s0.104,0.071,0.162,0.07
		c0.059,0,0.104-0.011,0.168-0.048c0.055-0.023,0.102-0.093,0.157-0.175l0.331-0.483L79.62,27.216L79.62,27.216z M76.466,22.344
		L76.466,22.344l0.627,0.31l-1.872,3.687l-0.544-0.269L76.466,22.344L76.466,22.344z M72.13,20.649L72.13,20.649
		c0.686,0.212,1.364,0.446,2.034,0.701l-0.21,0.546l-0.677-0.25l-1.193,3.342l-0.572-0.197l1.117-3.367l-0.67-0.215L72.13,20.649
		L72.13,20.649z M67.968,20.835L67.968,20.835l-0.494,2.954l-0.537-0.084l0.6-4.09l0.85,0.137c0.094,0.853,0.167,1.706,0.221,2.562
		l0.483-2.43l0.614,0.129l-0.889,4.038l-0.608-0.128C68.156,22.892,68.075,21.869,67.968,20.835L67.968,20.835z M63.68,21.031
		L63.68,21.031c0.298,0.013,0.598,0.016,0.896,0.036l-0.031,0.585c-0.292-0.02-0.585-0.023-0.878-0.036l-0.029,1.222
		c0.354,0.014,0.709,0.024,1.063,0.048l-0.036,0.584c-0.548-0.037-1.099-0.047-1.648-0.053l0.007-4.135
		c0.633,0.005,1.266,0.02,1.896,0.062l-0.036,0.585c-0.391-0.026-0.783-0.039-1.176-0.053L63.68,21.031L63.68,21.031z M59.37,23.654
		L59.37,23.654L58.77,23.74l-0.633-4.086l0.691-0.1l0.233,1.759l0.738-0.088l-0.189-1.764l0.696-0.066l0.347,4.119l-0.604,0.059
		l-0.188-1.766l-0.724,0.087L59.37,23.654L59.37,23.654z M53.604,20.708L53.604,20.708c0.685-0.212,1.374-0.407,2.072-0.572
		l0.136,0.57l-0.699,0.176l0.906,3.432l-0.584,0.161l-0.983-3.41l-0.674,0.202L53.604,20.708L53.604,20.708z M49.99,22.094
		L49.99,22.094l1.329,2.908c0.034,0.075,0.084,0.146,0.141,0.192c0.035,0.04,0.1,0.065,0.15,0.062
		c0.057,0.01,0.106,0.006,0.164-0.021c0.059-0.025,0.108-0.068,0.14-0.116c0.037-0.034,0.047-0.094,0.056-0.151
		c0.003-0.074-0.03-0.151-0.062-0.228l-1.261-2.938l0.611-0.256l1.18,2.918c0.081,0.202,0.127,0.399,0.125,0.562
		c-0.017,0.167-0.058,0.314-0.154,0.445c-0.082,0.127-0.228,0.221-0.41,0.305c-0.169,0.077-0.339,0.116-0.502,0.099
		c-0.147-0.021-0.297-0.081-0.418-0.188c-0.122-0.109-0.253-0.269-0.348-0.465l-1.373-2.832L49.99,22.094L49.99,22.094z
		 M47.364,26.771L47.364,26.771l0.521-0.334l-1.393-1.596L47.364,26.771L47.364,26.771z M49.257,27.131L49.257,27.131l-0.521,0.312
		l-0.49-0.582l-0.646,0.414l0.338,0.68l-0.462,0.315c-0.617-1.247-1.21-2.516-1.772-3.794c0.279-0.184,0.56-0.366,0.845-0.54
		C47.476,24.981,48.38,26.048,49.257,27.131L49.257,27.131z M41.708,28.994L41.708,28.994c-0.153-0.155-0.256-0.311-0.299-0.48
		c-0.067-0.168-0.061-0.341,0.01-0.501c0.046-0.157,0.155-0.329,0.325-0.489c0.172-0.158,0.34-0.238,0.516-0.285
		c0.162-0.058,0.321-0.039,0.498,0.03c0.153,0.066,0.312,0.173,0.454,0.337l1.411,1.635c0.143,0.166,0.226,0.336,0.276,0.49
		c0.05,0.178,0.056,0.327,0.008,0.484c-0.06,0.145-0.142,0.283-0.29,0.42c-0.147,0.139-0.306,0.219-0.444,0.256
		c-0.158,0.037-0.317,0.029-0.479-0.046c-0.162-0.052-0.314-0.159-0.468-0.315L41.708,28.994L41.708,28.994z M43.701,30.117
		L43.701,30.117c0.104,0.109,0.195,0.161,0.276,0.178c0.092,0.004,0.173-0.025,0.242-0.091c0.068-0.065,0.105-0.142,0.108-0.234
		c-0.011-0.081-0.053-0.177-0.155-0.288l-1.49-1.653c-0.102-0.111-0.194-0.163-0.278-0.178c-0.096-0.002-0.187,0.03-0.252,0.115
		c-0.088,0.061-0.13,0.146-0.135,0.241c0.008,0.086,0.051,0.183,0.154,0.292L43.701,30.117L43.701,30.117z M38.82,31.63L38.82,31.63
		l1.002,0.784l0.154-0.198c0.053-0.067,0.083-0.129,0.103-0.179c0.017-0.072-0.002-0.131-0.02-0.189
		c-0.03-0.069-0.084-0.135-0.175-0.208l-0.311-0.255c-0.116-0.096-0.205-0.146-0.313-0.145c-0.086-0.001-0.167,0.045-0.245,0.141
		L38.82,31.63L38.82,31.63z M42.022,33.31l0.4-0.477c-0.083-0.031-0.144-0.063-0.218-0.105l-0.214-0.162l-0.483-0.414
		c-0.114-0.098-0.203-0.174-0.313-0.226c-0.109-0.051-0.208-0.092-0.315-0.095c-0.106-0.003-0.213,0.016-0.315,0.062
		c0.033-0.146,0.034-0.298-0.023-0.438c-0.059-0.137-0.177-0.283-0.341-0.425l-0.241-0.207c-0.166-0.142-0.316-0.223-0.476-0.268
		c-0.147-0.032-0.309-0.027-0.462,0.052c-0.142,0.069-0.292,0.2-0.451,0.395c-0.214,0.272-0.43,0.543-0.635,0.822l3.311,2.477
		l0.368-0.481l-1.33-1.043l0.132-0.17c0.061-0.078,0.127-0.129,0.208-0.149c0.058-0.018,0.127-0.024,0.213,0.004
		c0.072,0.017,0.16,0.067,0.264,0.152l0.506,0.415l0.154,0.126c0.039,0.031,0.078,0.064,0.113,0.073
		c0.026,0.022,0.052,0.043,0.075,0.042C41.974,33.29,41.997,33.289,42.022,33.31L42.022,33.31L42.022,33.31z M35.432,35.745
		L35.432,35.745c0.342-0.629,0.699-1.251,1.082-1.856l0.495,0.312l-0.376,0.614l3.046,1.82l-0.306,0.524l-3.085-1.752l-0.34,0.615
		L35.432,35.745L35.432,35.745z M35.519,39.682L35.519,39.682l0.342-0.828l0.537,0.231l-0.334,0.812l1.137,0.449
		c0.128-0.33,0.268-0.656,0.409-0.981l0.537,0.236c-0.222,0.503-0.43,1.012-0.618,1.526l-3.877-1.433
		c0.217-0.595,0.457-1.182,0.711-1.762l0.536,0.237c-0.157,0.359-0.312,0.721-0.453,1.087L35.519,39.682L35.519,39.682z
		 M33.064,43.722L33.064,43.722l1.239,0.281l0.062-0.263c0.016-0.064,0.02-0.15,0.016-0.205c-0.016-0.072-0.058-0.117-0.098-0.162
		c-0.058-0.05-0.135-0.086-0.248-0.115l-0.389-0.098c-0.147-0.036-0.253-0.026-0.347,0.004c-0.076,0.034-0.13,0.112-0.16,0.232
		L33.064,43.722L33.064,43.722z M36.681,43.859L36.681,43.859l-0.089,0.008c-0.016-0.003-0.049-0.011-0.085-0.004
		c-0.033-0.009-0.081-0.021-0.134-0.019l-0.194-0.048l-0.634-0.159c-0.13-0.033-0.23-0.041-0.3-0.041
		c-0.089,0.012-0.15,0.048-0.197,0.104c-0.061,0.036-0.097,0.111-0.12,0.209l-0.052,0.225l1.648,0.374L36.4,45.084l-4.051-0.827
		c0.071-0.338,0.144-0.677,0.226-1.014c0.061-0.244,0.133-0.41,0.239-0.549c0.102-0.121,0.247-0.212,0.395-0.245
		c0.164-0.028,0.334-0.017,0.544,0.039l0.306,0.085c0.211,0.057,0.379,0.14,0.486,0.257c0.112,0.1,0.183,0.224,0.209,0.384
		c0.079-0.1,0.165-0.163,0.264-0.205c0.093-0.026,0.203-0.048,0.325-0.05c0.117,0.016,0.233,0.03,0.38,0.07l0.612,0.169
		c0.098,0.027,0.178,0.05,0.263,0.056c0.081,0.022,0.149,0.025,0.238,0.018L36.681,43.859z"/>
	<g>
		<g>
			<g>
				<path fill="#545454" d="M43.268,91.415l-1.023-0.51l0.552-1.07l-0.553-0.288l-1.356,2.545l0.588,0.309l0.521-1.011l1.035,0.518
					l-0.494,1.022l0.601,0.283l1.217-2.614l-0.562-0.268L43.268,91.415L43.268,91.415z M49.132,95.517L49.132,95.517
					c-0.128-1.044-0.229-2.089-0.303-3.128l-0.57-0.196c-0.697,0.772-1.419,1.532-2.163,2.276l0.658,0.248l0.473-0.493
					c0.385,0.141,0.772,0.272,1.162,0.401l0.066,0.679L49.132,95.517L49.132,95.517z M48.333,94.012L48.333,94.012l-0.685-0.237
					l0.62-0.671L48.333,94.012L48.333,94.012z M54.461,95.772L54.461,95.772c-0.355-0.695-0.689-1.396-1.004-2.097l-0.565-0.129
					l-0.655,2.81l0.646,0.146l0.386-1.766c0.316,0.686,0.65,1.367,1.004,2.048l0.652,0.117l0.489-2.843l-0.612-0.11L54.461,95.772
					L54.461,95.772z M58.767,94.503L58.767,94.503l-0.271,2.872l1.012,0.083c0.566,0.043,0.996-0.07,1.281-0.317
					c0.286-0.247,0.432-0.599,0.448-1.047c0.017-0.447-0.106-0.803-0.361-1.062c-0.259-0.269-0.632-0.411-1.126-0.449L58.767,94.503
					L58.767,94.503z M59.201,96.864L59.201,96.864l0.141-1.747l0.347,0.024c0.325,0.024,0.554,0.117,0.703,0.274
					c0.145,0.164,0.216,0.383,0.201,0.666c-0.014,0.287-0.107,0.496-0.274,0.634c-0.171,0.143-0.404,0.201-0.7,0.18L59.201,96.864
					L59.201,96.864z M67.282,97.388L67.282,97.388l0.66-0.064l-0.301-2.869l-0.837,0.079c-0.193,0.549-0.397,1.095-0.608,1.637
					c-0.284-0.508-0.56-1.021-0.826-1.535l-0.845,0.037l0.101,2.884l0.662-0.027l-0.089-1.815c0.282,0.51,0.572,1.024,0.871,1.53
					l0.394-0.027c0.228-0.542,0.445-1.094,0.654-1.637L67.282,97.388L67.282,97.388z M74.269,96.215L74.269,96.215
					c-0.646-0.83-1.267-1.674-1.862-2.527l-0.591,0.125c-0.202,1.021-0.432,2.044-0.688,3.065l0.695-0.128l0.151-0.665l1.203-0.253
					l0.407,0.547L74.269,96.215L74.269,96.215z M72.815,95.334L72.815,95.334l-0.71,0.149l0.183-0.896L72.815,95.334L72.815,95.334z
					 M76.479,92.592L76.479,92.592l0.883,2.745l0.969-0.323c0.532-0.184,0.884-0.454,1.047-0.797c0.166-0.34,0.166-0.72,0.004-1.138
					s-0.416-0.698-0.756-0.835c-0.339-0.142-0.74-0.13-1.212,0.033L76.479,92.592L76.479,92.592z M77.811,94.59L77.811,94.59
					l-0.561-1.661l0.334-0.116c0.303-0.103,0.553-0.113,0.749-0.023c0.202,0.093,0.35,0.268,0.447,0.532
					c0.101,0.271,0.102,0.498-0.002,0.69c-0.097,0.194-0.286,0.345-0.573,0.442L77.811,94.59L77.811,94.59z M81.837,90.469
					L81.837,90.469l1.236,2.607c0.66-0.314,1.312-0.643,1.958-0.985l-0.268-0.503c-0.445,0.235-0.893,0.466-1.344,0.688
					l-0.266-0.537l1.157-0.591l-0.255-0.482l-1.143,0.583l-0.263-0.533c0.421-0.207,0.838-0.421,1.251-0.64l-0.27-0.508
					C83.041,89.881,82.442,90.181,81.837,90.469z"/>
			</g>
		</g>
	</g>
	<g>
		<g>
			<g>
				<path fill-rule="evenodd" clip-rule="evenodd" fill="#373737" d="M53.4,10.97c-0.343,0.082-0.683-0.146-0.782-0.528
					c-0.1-0.384,0.09-0.779,0.445-0.865c6.461-1.558,13.321-1.56,19.781-0.004c0.355,0.086,0.571,0.487,0.472,0.872
					c-0.101,0.383-0.466,0.604-0.808,0.521C66.274,9.463,59.636,9.466,53.4,10.97L53.4,10.97z M51.396,1.354L51.396,1.354
					l-0.098,0.022c-0.025,0.038-0.053,0.075-0.045,0.105l1.644,6.912c0.036,0.147,0.212,0.263,0.352,0.23
					c6.352-1.468,13.06-1.47,19.411-0.004c0.168,0.037,0.315-0.083,0.351-0.23l1.644-6.912c0.007-0.031,0.014-0.06-0.045-0.106
					l-0.1-0.021c-0.006,0.03-0.046,0.051-0.086,0.074c-0.439,0.397-0.946,0.69-1.524,0.882c-0.108,0.04-0.153,0.095-0.171,0.185
					c-0.019,0.09,0.035,0.161,0.085,0.233c0.425,0.371,0.642,0.729,0.488,1.415c-0.079,0.356-0.281,0.688-0.521,0.917
					c-0.97,0.933-2.805,0.607-3.397-0.6c-0.147-0.296-0.226-0.677-0.178-1.039c0.092-0.693,0.387-0.969,0.943-1.162
					c0.073-0.051,0.146-0.1,0.159-0.191c0.015-0.091-0.042-0.16-0.098-0.229c-0.477-0.381-0.886-0.831-1.161-1.356
					c-0.083-0.162-0.319-0.19-0.437-0.051c-0.388,0.449-0.857,0.796-1.407,1.058c-0.104,0.052-0.142,0.109-0.149,0.2
					c-0.007,0.092,0.052,0.158,0.112,0.223c0.465,0.314,0.722,0.651,0.649,1.349c-0.036,0.362-0.199,0.716-0.411,0.97
					c-0.854,1.039-2.715,0.935-3.442-0.198c-0.18-0.278-0.302-0.647-0.296-1.012c0.009-0.704,0.271-1.002,0.801-1.265
					c0.066-0.059,0.134-0.116,0.137-0.208s-0.029-0.154-0.124-0.218c-0.517-0.319-0.942-0.723-1.276-1.211
					c-0.134-0.153-0.37-0.153-0.471,0c-0.333,0.488-0.792,0.892-1.309,1.211c-0.097,0.064-0.128,0.127-0.124,0.219
					c0.003,0.092,0.07,0.149,0.137,0.208c0.53,0.263,0.791,0.561,0.802,1.264c0.005,0.364-0.115,0.734-0.295,1.012
					c-0.728,1.133-2.561,1.236-3.413,0.197c-0.211-0.254-0.405-0.604-0.442-0.966c-0.071-0.697,0.185-1.034,0.682-1.352
					c0.061-0.065,0.12-0.132,0.112-0.223c-0.008-0.092-0.046-0.149-0.149-0.202c-0.549-0.262-1.052-0.604-1.441-1.053
					c-0.116-0.14-0.352-0.112-0.468,0.056c-0.242,0.521-0.653,0.971-1.129,1.352c-0.056,0.069-0.111,0.139-0.097,0.229
					c0.014,0.092,0.086,0.141,0.159,0.192c0.557,0.192,0.852,0.468,0.942,1.161c0.048,0.362-0.027,0.742-0.175,1.038
					c-0.594,1.208-2.429,1.535-3.398,0.602c-0.241-0.23-0.442-0.561-0.521-0.916c-0.154-0.688,0.063-1.044,0.488-1.416
					c0.051-0.073,0.103-0.143,0.084-0.234c-0.019-0.089-0.062-0.143-0.171-0.183c-0.577-0.192-1.085-0.485-1.523-0.883
					C51.443,1.405,51.438,1.376,51.396,1.354z"/>
				<path fill-rule="evenodd" clip-rule="evenodd" fill="#545454" d="M82.044,7.703c-0.004-0.068-0.037-0.15-0.123-0.188
					c-0.057-0.025-0.141,0.005-0.193,0.049c-0.483,0.532-0.958,1.067-1.425,1.61c-0.036,0.085-0.103,0.089-0.185,0.056
					C79.466,8.956,78.805,8.7,78.14,8.46c-0.055-0.02-0.133,0.017-0.181,0.064s-0.052,0.143-0.006,0.192
					c0.387,0.59,0.753,1.19,1.103,1.789c0.041,0.049,0.045,0.116-0.016,0.19c-0.451,0.554-0.893,1.111-1.325,1.673
					c-0.021,0.057-0.055,0.142-0.016,0.19c0.029,0.077,0.104,0.106,0.177,0.07c0.635-0.201,1.278-0.38,1.934-0.55
					c0.076-0.033,0.153,0.003,0.179,0.08c0.317,0.597,0.615,1.198,0.896,1.8c0.022,0.078,0.069,0.102,0.146,0.072
					c0.062-0.003,0.126-0.072,0.13-0.14c0.125-0.699,0.238-1.398,0.345-2.104c0.04-0.083,0.066-0.137,0.131-0.142
					c0.688-0.143,1.384-0.266,2.092-0.375c0.066,0,0.136-0.065,0.139-0.135c0.003-0.067-0.022-0.149-0.075-0.177
					c-0.624-0.331-1.259-0.646-1.898-0.946c-0.081-0.037-0.123-0.091-0.111-0.187C81.879,9.121,81.966,8.414,82.044,7.703
					L82.044,7.703z M44.18,7.568L44.18,7.568c-0.055-0.043-0.137-0.074-0.193-0.049c-0.086,0.039-0.117,0.12-0.093,0.176
					c0.067,0.716,0.144,1.426,0.231,2.139c0.012,0.096-0.03,0.148-0.083,0.174c-0.641,0.3-1.275,0.612-1.899,0.944
					c-0.08,0.042-0.103,0.124-0.102,0.19c0.028,0.056,0.071,0.135,0.138,0.136c0.708,0.109,1.403,0.231,2.092,0.375
					c0.066,0.003,0.117,0.045,0.132,0.14c0.105,0.708,0.22,1.405,0.346,2.106c0.002,0.067,0.067,0.135,0.129,0.139
					c0.076,0.029,0.126,0.006,0.147-0.072c0.287-0.604,0.594-1.211,0.92-1.811c0.026-0.078,0.077-0.103,0.153-0.069
					c0.656,0.17,1.3,0.35,1.935,0.55c0.072,0.037,0.147,0.006,0.176-0.07c0.04-0.05,0.031-0.144-0.015-0.191
					c-0.433-0.561-0.874-1.118-1.325-1.672c-0.062-0.074-0.058-0.142-0.017-0.19c0.351-0.599,0.716-1.199,1.104-1.789
					c0.044-0.05,0.041-0.146-0.007-0.193c-0.02-0.057-0.125-0.084-0.181-0.064c-0.665,0.241-1.325,0.495-1.978,0.77
					c-0.056,0.022-0.122,0.018-0.187-0.055C45.138,8.636,44.663,8.101,44.18,7.568z"/>
			</g>
		</g>
	</g>
	<path fill="#FFFFFF" d="M111.042,52.867c0,0.487-0.081,0.896-0.244,1.231c-0.172,0.336-0.406,0.591-0.722,0.763
		c-0.326,0.184-0.713,0.267-1.181,0.267c-0.457,0-0.855-0.083-1.17-0.267c-0.315-0.172-0.56-0.427-0.723-0.763
		c-0.162-0.336-0.244-0.744-0.244-1.231v-4.673c0-0.479,0.082-0.887,0.244-1.222c0.163-0.336,0.407-0.591,0.723-0.773
		c0.314-0.174,0.713-0.255,1.17-0.266c0.468,0.011,0.854,0.092,1.181,0.266c0.315,0.183,0.55,0.438,0.722,0.773
		c0.163,0.335,0.244,0.743,0.244,1.222V52.867L111.042,52.867z M115.581,48.245L115.581,48.245c0,0.377-0.051,0.702-0.152,0.997
		c-0.103,0.296-0.234,0.56-0.398,0.805c-0.173,0.244-0.354,0.468-0.549,0.692c-0.203,0.224-0.396,0.438-0.59,0.662
		c-0.204,0.214-0.387,0.447-0.549,0.691c-0.164,0.256-0.307,0.521-0.397,0.825c-0.112,0.295-0.163,0.631-0.163,1.008v1.1h4.081
		v-1.283h-2.666c-0.042-0.224-0.011-0.438,0.07-0.652c0.083-0.202,0.205-0.406,0.366-0.62c0.164-0.203,0.346-0.418,0.55-0.642
		c0.204-0.225,0.417-0.458,0.621-0.702c0.214-0.255,0.406-0.52,0.59-0.815c0.173-0.295,0.326-0.609,0.428-0.955
		c0.111-0.356,0.173-0.733,0.173-1.161c0-0.479-0.081-0.887-0.233-1.222c-0.163-0.336-0.397-0.591-0.713-0.773
		c-0.306-0.174-0.702-0.255-1.16-0.266c-0.458,0.011-0.845,0.092-1.16,0.266c-0.315,0.183-0.55,0.438-0.701,0.773
		c-0.163,0.335-0.245,0.743-0.245,1.222v0.875h1.333v-0.956c0.01-0.326,0.071-0.551,0.203-0.693c0.133-0.132,0.306-0.203,0.53-0.193
		c0.152-0.01,0.284,0.021,0.396,0.081c0.103,0.062,0.185,0.163,0.245,0.316C115.551,47.777,115.581,47.98,115.581,48.245
		L115.581,48.245z M109.628,48.113L109.628,48.113c0-0.326-0.062-0.551-0.192-0.693c-0.133-0.132-0.306-0.203-0.54-0.193
		c-0.223-0.01-0.397,0.062-0.529,0.193c-0.132,0.143-0.192,0.367-0.203,0.693v4.846c0.011,0.325,0.071,0.549,0.203,0.692
		c0.132,0.132,0.307,0.203,0.529,0.193c0.234,0.01,0.407-0.062,0.54-0.193c0.131-0.144,0.192-0.367,0.192-0.692V48.113z"/>
	<path fill="#FFFFFF" d="M14.886,52.867c0,0.487,0.081,0.896,0.244,1.231c0.164,0.336,0.407,0.591,0.723,0.763
		c0.315,0.184,0.712,0.267,1.17,0.267c0.468,0,0.855-0.083,1.17-0.267c0.325-0.172,0.56-0.427,0.723-0.763
		c0.173-0.336,0.254-0.744,0.254-1.231v-4.673c0-0.479-0.081-0.887-0.254-1.222c-0.163-0.336-0.397-0.591-0.723-0.773
		c-0.314-0.174-0.702-0.255-1.17-0.266c-0.458,0.011-0.854,0.092-1.17,0.266c-0.315,0.183-0.559,0.438-0.723,0.773
		c-0.163,0.335-0.244,0.743-0.244,1.222V52.867L14.886,52.867z M11.731,48.245L11.731,48.245c-0.011,0.377-0.061,0.702-0.163,0.997
		c-0.101,0.296-0.233,0.56-0.396,0.805c-0.163,0.244-0.346,0.468-0.55,0.692c-0.193,0.224-0.396,0.438-0.59,0.662
		c-0.204,0.214-0.387,0.447-0.55,0.691c-0.162,0.256-0.295,0.521-0.396,0.825c-0.102,0.295-0.152,0.631-0.152,1.008v1.1h4.079
		v-1.283h-2.676c-0.03-0.224-0.01-0.438,0.071-0.652c0.082-0.202,0.204-0.406,0.366-0.62c0.164-0.203,0.347-0.418,0.551-0.642
		c0.212-0.225,0.416-0.458,0.631-0.702c0.202-0.255,0.406-0.52,0.579-0.815c0.183-0.295,0.326-0.609,0.438-0.955
		c0.101-0.356,0.162-0.733,0.162-1.161c0-0.479-0.081-0.887-0.234-1.222c-0.162-0.336-0.396-0.591-0.701-0.773
		c-0.316-0.174-0.702-0.255-1.17-0.266c-0.459,0.011-0.846,0.092-1.161,0.266c-0.305,0.183-0.549,0.438-0.702,0.773
		c-0.162,0.335-0.233,0.743-0.233,1.222v0.875h1.332v-0.956c0-0.326,0.062-0.551,0.193-0.693c0.134-0.132,0.307-0.203,0.539-0.193
		c0.144-0.01,0.275,0.021,0.388,0.081c0.112,0.062,0.193,0.163,0.254,0.316C11.701,47.777,11.731,47.98,11.731,48.245L11.731,48.245
		z M16.29,48.113L16.29,48.113c0-0.326,0.072-0.551,0.203-0.693c0.123-0.132,0.306-0.203,0.529-0.193
		c0.225-0.01,0.406,0.062,0.54,0.193c0.122,0.143,0.192,0.367,0.192,0.693v4.846c0,0.325-0.07,0.549-0.192,0.692
		c-0.134,0.132-0.315,0.203-0.54,0.193c-0.224,0.01-0.406-0.062-0.529-0.193c-0.131-0.144-0.203-0.367-0.203-0.692V48.113z"/>
</g>
</svg>
