<?xml version="1.0" encoding="utf-8"?>
<!-- Generator: Adobe Illustrator 16.0.0, SVG Export Plug-In . SVG Version: 6.00 Build 0)  -->
<!DOCTYPE svg PUBLIC "-//W3C//DTD SVG 1.1//EN" "http://www.w3.org/Graphics/SVG/1.1/DTD/svg11.dtd">
<svg version="1.1" id="Layer_1" xmlns="http://www.w3.org/2000/svg" xmlns:xlink="http://www.w3.org/1999/xlink" x="0px" y="0px"
	 width="127.254px" height="116.825px" viewBox="0 0 127.254 116.825" enable-background="new 0 0 127.254 116.825"
	 xml:space="preserve">
<g>
	<g>
		<path fill="#363837" d="M0.08,53.608c0.004,0.749,0.109,1.417,0.316,2.008c0.202,0.584,0.47,1.111,0.81,1.577
			c0.333,0.466,0.704,0.897,1.108,1.289c0.4,0.392,0.805,0.77,1.205,1.13c0.405,0.36,0.774,0.73,1.108,1.109
			c0.338,0.373,0.606,0.782,0.813,1.218c0.203,0.435,0.309,0.919,0.313,1.46c0,0.44-0.062,0.787-0.186,1.052
			c-0.123,0.263-0.294,0.453-0.519,0.571c-0.224,0.118-0.492,0.176-0.8,0.171c-0.308,0.005-0.576-0.053-0.8-0.171
			c-0.225-0.118-0.397-0.309-0.52-0.571c-0.122-0.265-0.184-0.611-0.184-1.052V62.08H0v1.134c0,0.991,0.163,1.826,0.489,2.518
			c0.325,0.688,0.809,1.216,1.451,1.582c0.642,0.361,1.438,0.54,2.388,0.546c0.95-0.006,1.746-0.185,2.388-0.546
			c0.642-0.366,1.126-0.894,1.452-1.582c0.326-0.691,0.488-1.526,0.488-2.518c-0.004-0.751-0.11-1.42-0.312-2.005
			c-0.207-0.585-0.476-1.112-0.814-1.579c-0.334-0.465-0.704-0.896-1.108-1.288c-0.4-0.391-0.804-0.77-1.205-1.131
			c-0.405-0.36-0.774-0.729-1.108-1.108c-0.338-0.373-0.606-0.782-0.813-1.218c-0.202-0.436-0.308-0.924-0.312-1.46
			c0.004-0.655,0.127-1.122,0.378-1.407c0.25-0.282,0.607-0.422,1.073-0.414c0.466-0.008,0.822,0.132,1.073,0.414
			c0.25,0.285,0.374,0.752,0.377,1.407v0.766h2.745v-0.582c0-0.988-0.163-1.829-0.479-2.519c-0.322-0.69-0.801-1.215-1.435-1.579
			c-0.633-0.361-1.419-0.542-2.361-0.546c-0.941,0.004-1.728,0.185-2.362,0.546c-0.633,0.364-1.113,0.889-1.434,1.579
			C0.242,51.779,0.08,52.62,0.08,53.608L0.08,53.608z M19.087,59.731h3.299v7.916h2.955v-18.47h-2.955v7.915h-3.299v-7.915h-2.902
			v18.47h2.902V59.731L19.087,59.731z M35.985,53.424c0.004-0.655,0.14-1.122,0.404-1.407c0.269-0.282,0.633-0.422,1.1-0.414
			c0.467-0.008,0.832,0.132,1.1,0.414c0.264,0.285,0.4,0.752,0.404,1.407v9.975c-0.004,0.656-0.141,1.122-0.404,1.407
			c-0.269,0.281-0.633,0.423-1.1,0.414c-0.466,0.009-0.831-0.133-1.1-0.414c-0.264-0.285-0.399-0.751-0.404-1.407V53.424
			L35.985,53.424z M33.083,63.213c0,0.991,0.171,1.826,0.511,2.518c0.338,0.688,0.83,1.216,1.486,1.582
			c0.655,0.361,1.46,0.54,2.41,0.546c0.95-0.006,1.755-0.185,2.41-0.546c0.656-0.366,1.148-0.894,1.487-1.582
			c0.339-0.691,0.51-1.526,0.51-2.518v-9.605c0-0.988-0.171-1.829-0.51-2.519c-0.338-0.69-0.831-1.215-1.487-1.579
			c-0.655-0.361-1.46-0.542-2.41-0.546c-0.95,0.004-1.754,0.185-2.41,0.546c-0.656,0.364-1.148,0.889-1.486,1.579
			c-0.339,0.689-0.511,1.53-0.511,2.519V63.213L33.083,63.213z M53.911,49.177h-4.274v18.47h2.902v-6.938h1.372
			c1.451-0.006,2.533-0.397,3.254-1.176c0.717-0.779,1.074-1.908,1.074-3.39V53.74c0-1.481-0.356-2.611-1.074-3.39
			C56.444,49.572,55.362,49.181,53.911,49.177L53.911,49.177z M53.911,51.815c0.309-0.006,0.567,0.048,0.778,0.158
			c0.216,0.105,0.374,0.289,0.485,0.545c0.109,0.255,0.162,0.603,0.162,1.038v2.771c0,0.436-0.053,0.783-0.162,1.039
			c-0.111,0.255-0.269,0.434-0.485,0.545c-0.211,0.109-0.47,0.163-0.778,0.158h-1.372v-6.254H53.911L53.911,51.815z M71.653,67.647
			h2.982v-18.47h-2.587v11.056l-2.982-11.056h-3.641v18.47h2.611V54.269L71.653,67.647L71.653,67.647z M89.025,49.177h-4.248
			l-2.956,18.47h2.666l0.501-3.352h3.562l0.501,3.352h2.93L89.025,49.177L89.025,49.177z M86.756,52.448l1.399,9.341h-2.798
			L86.756,52.448L86.756,52.448z M103.204,49.177h-4.036v18.47h2.532V54.586l2.165,13.061h2.743l2.005-13.246v13.246h2.745v-18.47
			h-4.037l-1.979,13.113L103.204,49.177L103.204,49.177z M122.239,51.815h5.015v-2.638h-7.916v18.47h7.916v-2.639h-5.015v-5.409
			h3.985v-2.64h-3.985V51.815z"/>
		<path fill="#363837" d="M63.627,111.406l25.992-15.008l0,0l25.992-15.008v-6.206H11.642v6.206l25.993,15.008h-0.001
			L63.627,111.406L63.627,111.406z M2.688,41.639h7.897V35.13v-0.302l0.264-0.153l26.257-15.16h0.002L63.365,4.356l0.262-0.151
			l0.262,0.151l26.257,15.159h0.002l26.256,15.16l0.264,0.153v0.302v6.509h7.898v1.057h-7.898H10.585H2.688V41.639L2.688,41.639z
			 M11.642,41.639h103.97v-6.206L89.619,20.426v-0.001L63.627,5.418L37.633,20.425l0.001,0.001L11.642,35.434V41.639L11.642,41.639z
			 M90.146,97.308l-26.257,15.16l-0.262,0.15l-0.262-0.15l-26.256-15.16h-0.002l-26.257-15.16l-0.264-0.151v-0.303v-7.038v-0.527
			h0.528H116.14h0.527v0.527v7.038v0.303l-0.264,0.151l-26.256,15.16H90.146z"/>
		<line fill="none" x1="2.688" y1="74.656" x2="124.565" y2="74.656"/>
		<path fill="#363837" d="M46.167,90.181v-0.876h-0.246l-0.189,0.536c-0.159,0-0.316,0-0.474,0s-0.315,0-0.474,0v-0.028
			c0.046-0.016,0.078-0.038,0.093-0.064c0.017-0.029,0.024-0.064,0.024-0.107c0-0.207,0-0.413,0-0.616c0-0.205,0-0.41,0-0.616h0.535
			l0.144,0.295h0.168c0-0.092,0-0.194,0-0.304c0-0.112,0-0.224,0-0.333c0-0.11,0-0.214,0-0.305h-0.168l-0.144,0.306h-0.535
			c0-0.245,0-0.492,0-0.737c0-0.246,0-0.49,0-0.734h0.757l0.157,0.55h0.278v-0.878c-0.227,0-0.449,0-0.666,0
			c-0.218,0-0.436,0-0.654,0c-0.218,0-0.44,0-0.666,0v0.145l0.211,0.145c0,0.549,0,1.098,0,1.646c0,0.552,0,1.099,0,1.649
			l-0.25,0.167v0.161c0.352,0,0.702,0,1.05,0C45.47,90.181,45.818,90.181,46.167,90.181L46.167,90.181z M48.44,89.389v-0.312h-0.63
			v0.306c0.001,0.149,0.028,0.277,0.08,0.387c0.053,0.108,0.126,0.198,0.218,0.267c0.092,0.07,0.197,0.123,0.317,0.156
			c0.12,0.032,0.248,0.05,0.382,0.05c0.134,0,0.262-0.015,0.387-0.047c0.124-0.03,0.235-0.082,0.333-0.147
			c0.099-0.067,0.177-0.156,0.235-0.265c0.057-0.108,0.086-0.239,0.088-0.395V88.91c-0.001-0.146-0.028-0.269-0.08-0.366
			c-0.05-0.099-0.118-0.18-0.202-0.244s-0.178-0.12-0.278-0.163c-0.101-0.043-0.202-0.083-0.302-0.121
			c-0.101-0.034-0.193-0.074-0.278-0.116c-0.083-0.043-0.152-0.096-0.202-0.157c-0.052-0.062-0.079-0.141-0.08-0.235v-0.475
			c0-0.134,0.034-0.238,0.1-0.315c0.067-0.074,0.165-0.112,0.296-0.113c0.132,0,0.233,0.036,0.306,0.109
			c0.07,0.072,0.106,0.18,0.106,0.319v0.284h0.574c0-0.176,0-0.352,0-0.526s0-0.35,0-0.521h-0.379l-0.044,0.212h-0.022
			c-0.061-0.067-0.127-0.121-0.197-0.156c-0.069-0.036-0.141-0.062-0.216-0.075c-0.074-0.014-0.148-0.02-0.223-0.02
			c-0.114,0-0.222,0.014-0.327,0.043s-0.199,0.077-0.282,0.14s-0.148,0.146-0.198,0.247c-0.047,0.104-0.073,0.228-0.074,0.373v0.475
			c0.002,0.139,0.028,0.254,0.078,0.346c0.051,0.093,0.118,0.171,0.201,0.232c0.084,0.06,0.176,0.113,0.276,0.156
			c0.099,0.043,0.2,0.082,0.3,0.12c0.1,0.039,0.191,0.08,0.274,0.127c0.083,0.047,0.151,0.104,0.202,0.17
			c0.051,0.07,0.078,0.154,0.079,0.258v0.474c0,0.094-0.014,0.178-0.044,0.247c-0.029,0.072-0.076,0.128-0.138,0.166
			c-0.063,0.04-0.143,0.061-0.242,0.061c-0.126,0.001-0.224-0.034-0.292-0.111C48.475,89.677,48.44,89.555,48.44,89.389
			L48.44,89.389L48.44,89.389z M53.277,86.619l0.188,0.642h0.268l-0.023-0.992h-2.269L51.42,87.26h0.267l0.179-0.642h0.418
			c0,1.066,0,2.132,0,3.198l-0.245,0.175v0.189c0.108,0,0.224,0,0.348,0c0.125,0,0.25,0,0.376,0c0.125,0,0.242,0,0.352,0v-0.189
			l-0.245-0.175c0-1.066,0-2.132,0-3.198H53.277L53.277,86.619z M56.102,86.932h0.005l0.435,1.877h-0.875L56.102,86.932
			L56.102,86.932z M55.594,89.128h1.025l0.184,0.785l-0.201,0.123v0.145h0.992v-0.173l-0.201-0.123l-0.897-3.634h-0.573
			c-0.072,0.289-0.145,0.585-0.218,0.894c-0.073,0.307-0.147,0.617-0.222,0.93c-0.073,0.313-0.148,0.625-0.221,0.932
			c-0.073,0.309-0.145,0.606-0.214,0.896l-0.201,0.105v0.173h0.764v-0.173l-0.201-0.1L55.594,89.128L55.594,89.128z M61.284,88.732
			c-0.001-0.12-0.018-0.224-0.054-0.312c-0.037-0.087-0.085-0.158-0.15-0.217s-0.139-0.102-0.225-0.136
			c0.066-0.028,0.123-0.07,0.169-0.121c0.047-0.052,0.082-0.112,0.106-0.181c0.024-0.067,0.037-0.138,0.037-0.211v-0.562
			c-0.001-0.144-0.022-0.26-0.065-0.354c-0.042-0.093-0.104-0.165-0.182-0.219c-0.077-0.052-0.171-0.09-0.278-0.11
			c-0.107-0.021-0.227-0.032-0.356-0.03h-1.231v0.156l0.211,0.145c0,0.547,0,1.092,0,1.637c0,0.544,0,1.088,0,1.636l-0.251,0.167
			v0.161h1.276c0.218,0.002,0.401-0.027,0.547-0.081c0.146-0.055,0.258-0.141,0.333-0.256c0.075-0.119,0.112-0.269,0.112-0.455
			V88.732L61.284,88.732z M59.712,89.847v-0.028c0.046-0.017,0.078-0.038,0.094-0.067c0.017-0.029,0.024-0.067,0.023-0.116
			c0-0.146,0-0.297,0-0.454c0-0.159,0-0.316,0-0.475c0-0.157,0-0.309,0-0.454h0.401c0.114,0,0.207,0.017,0.277,0.053
			c0.07,0.035,0.12,0.087,0.151,0.158c0.03,0.071,0.046,0.16,0.045,0.269v0.657c0.001,0.146-0.032,0.259-0.101,0.338
			c-0.068,0.078-0.175,0.12-0.322,0.12H59.712L59.712,89.847z M60.242,87.975c-0.051,0-0.098,0-0.141,0c-0.044,0-0.087,0-0.13,0
			s-0.09,0-0.141,0c0-0.161,0-0.316,0-0.465s0-0.297,0-0.444c0-0.148,0-0.303,0-0.463h0.412c0.076,0.001,0.14,0.019,0.191,0.054
			s0.09,0.082,0.115,0.141c0.026,0.058,0.04,0.123,0.04,0.195v0.562c0.001,0.13-0.025,0.232-0.081,0.306
			C60.452,87.935,60.364,87.972,60.242,87.975L60.242,87.975L60.242,87.975z M65,90.181v-0.876h-0.244l-0.19,0.536
			c-0.104,0-0.206,0-0.302,0c-0.095,0-0.192,0-0.288,0s-0.197,0-0.302,0v-0.028c0.046-0.016,0.078-0.038,0.093-0.066
			c0.017-0.027,0.024-0.062,0.024-0.105c0-1.023,0-2.045,0-3.066l0.212-0.145v-0.162H63v0.162l0.21,0.145c0,0.547,0,1.093,0,1.639
			s0,1.092,0,1.64l-0.25,0.167v0.161c0.232,0,0.459,0,0.684,0c0.222,0,0.446,0,0.669,0C64.539,90.181,64.768,90.181,65,90.181
			L65,90.181z M67.329,86.575l0.212-0.145v-0.162h-0.986v0.162l0.212,0.145c0,0.547,0,1.093,0,1.639s0,1.092,0,1.638l-0.251,0.169
			v0.161c0.109,0,0.225,0,0.348,0c0.122,0,0.245,0,0.368,0c0.121,0,0.237,0,0.343,0V90.02l-0.245-0.169c0-0.546,0-1.092,0-1.638
			S67.329,87.122,67.329,86.575L67.329,86.575z M69.865,89.389v-0.312h-0.631v0.306c0.002,0.149,0.027,0.277,0.08,0.387
			c0.054,0.108,0.126,0.198,0.219,0.267c0.092,0.07,0.198,0.123,0.318,0.156c0.118,0.032,0.246,0.05,0.381,0.05
			c0.134,0,0.263-0.015,0.387-0.047c0.123-0.03,0.234-0.082,0.334-0.147c0.098-0.067,0.176-0.156,0.233-0.265
			s0.088-0.239,0.089-0.395V88.91c-0.001-0.146-0.028-0.269-0.08-0.366c-0.05-0.099-0.117-0.18-0.202-0.244
			c-0.084-0.064-0.177-0.12-0.277-0.163c-0.102-0.043-0.201-0.083-0.304-0.121c-0.1-0.034-0.192-0.074-0.277-0.116
			c-0.083-0.043-0.15-0.096-0.202-0.157c-0.051-0.062-0.078-0.141-0.078-0.235v-0.475c0-0.134,0.032-0.238,0.098-0.315
			c0.067-0.074,0.166-0.112,0.297-0.113c0.133,0,0.233,0.036,0.306,0.109c0.07,0.072,0.106,0.18,0.106,0.319v0.284h0.575
			c0-0.176,0-0.352,0-0.526s0-0.35,0-0.521h-0.38l-0.044,0.212h-0.023c-0.061-0.067-0.127-0.121-0.196-0.156
			c-0.07-0.036-0.141-0.062-0.215-0.075s-0.149-0.02-0.224-0.02c-0.113,0-0.223,0.014-0.328,0.043
			c-0.104,0.029-0.198,0.077-0.28,0.14c-0.083,0.062-0.149,0.146-0.197,0.247c-0.049,0.104-0.073,0.228-0.075,0.373v0.475
			c0.003,0.139,0.028,0.254,0.078,0.346c0.052,0.093,0.119,0.171,0.202,0.232c0.083,0.06,0.176,0.113,0.274,0.156
			c0.101,0.043,0.201,0.082,0.302,0.12c0.099,0.039,0.191,0.08,0.273,0.127c0.085,0.047,0.151,0.104,0.202,0.17
			c0.052,0.07,0.078,0.154,0.079,0.258v0.474c0,0.094-0.015,0.178-0.044,0.247c-0.03,0.072-0.076,0.128-0.139,0.166
			c-0.062,0.04-0.143,0.061-0.241,0.061c-0.127,0.001-0.224-0.034-0.292-0.111C69.9,89.677,69.866,89.555,69.865,89.389
			L69.865,89.389L69.865,89.389z M73.208,86.576v3.31l-0.251,0.135v0.161h1.064V90.02l-0.251-0.135v-1.537h0.903v1.537L74.43,90.02
			v0.161h1.058V90.02l-0.251-0.135v-3.31l0.213-0.146v-0.162h-0.987v0.162l0.212,0.146v1.455h-0.903v-1.455l0.213-0.146v-0.162
			h-0.987v0.162L73.208,86.576L73.208,86.576z M79.227,90.181v-0.876H78.98l-0.188,0.536c-0.159,0-0.317,0-0.475,0
			c-0.155,0-0.314,0-0.473,0v-0.028c0.046-0.016,0.078-0.038,0.093-0.064c0.018-0.029,0.024-0.064,0.024-0.107
			c0-0.207,0-0.413,0-0.616c0-0.205,0-0.41,0-0.616h0.535l0.145,0.295h0.167c0-0.092,0-0.194,0-0.304c0-0.112,0-0.224,0-0.333
			c0-0.11,0-0.214,0-0.305h-0.167l-0.145,0.306h-0.535c0-0.245,0-0.492,0-0.737c0-0.246,0-0.49,0-0.734h0.757l0.157,0.55h0.278
			v-0.878c-0.226,0-0.448,0-0.665,0c-0.219,0-0.436,0-0.654,0c-0.218,0-0.439,0-0.665,0v0.145l0.212,0.145c0,0.549,0,1.098,0,1.646
			c0,0.552,0,1.099,0,1.649l-0.251,0.167v0.161c0.351,0,0.701,0,1.05,0C78.53,90.181,78.878,90.181,79.227,90.181L79.227,90.181z
			 M80.892,86.268v0.162l0.212,0.166v3.257l-0.246,0.167v0.161h1.205c0.164,0,0.314-0.021,0.45-0.062
			c0.136-0.043,0.256-0.107,0.355-0.19c0.1-0.086,0.176-0.192,0.23-0.321c0.056-0.129,0.084-0.28,0.085-0.451v-1.878
			c-0.002-0.243-0.049-0.438-0.144-0.586c-0.092-0.148-0.222-0.257-0.39-0.324c-0.167-0.067-0.362-0.1-0.588-0.1H80.892
			L80.892,86.268z M82.062,86.609c0.137,0.003,0.245,0.033,0.322,0.093c0.08,0.061,0.136,0.139,0.17,0.24
			c0.033,0.101,0.05,0.212,0.049,0.336v1.878c0.001,0.124-0.016,0.238-0.049,0.338c-0.034,0.102-0.09,0.182-0.17,0.242
			c-0.077,0.06-0.186,0.093-0.322,0.094h-0.49l-0.007-0.032c0.047-0.015,0.081-0.035,0.098-0.062
			c0.019-0.027,0.026-0.066,0.025-0.113v-3.014H82.062L82.062,86.609z M58.241,96.513l-0.25,0.173v0.184c0.108,0,0.225,0,0.346,0
			c0.122,0,0.244,0,0.366,0s0.238,0,0.346,0v-0.184l-0.245-0.173c0-1.181,0-2.362,0-3.546c-0.111,0-0.215,0-0.309,0
			c-0.095,0-0.189,0-0.282,0c-0.094,0-0.195,0-0.307,0v0.234l0.335,0.107c0,0.534,0,1.067,0,1.602
			C58.241,95.444,58.241,95.978,58.241,96.513L58.241,96.513z M62.176,95.231c0,0.086,0,0.164,0,0.233s0,0.137,0,0.201
			c0,0.062,0,0.13,0,0.2c0,0.068,0,0.146,0,0.229c-0.001,0.156-0.039,0.276-0.113,0.36c-0.075,0.083-0.179,0.123-0.311,0.125
			c-0.087,0.001-0.164-0.015-0.227-0.045c-0.064-0.031-0.115-0.08-0.15-0.148c-0.036-0.068-0.055-0.16-0.057-0.276v-0.199h-0.563
			v0.205c0.001,0.161,0.026,0.293,0.075,0.399c0.05,0.105,0.119,0.188,0.209,0.248c0.09,0.062,0.196,0.105,0.318,0.133
			c0.122,0.025,0.255,0.039,0.401,0.04c0.142,0,0.272-0.018,0.392-0.051c0.119-0.035,0.225-0.088,0.312-0.156
			c0.089-0.068,0.158-0.158,0.208-0.263c0.049-0.106,0.075-0.23,0.076-0.372c0-0.753,0-1.505,0-2.258
			c-0.001-0.153-0.026-0.286-0.076-0.398c-0.05-0.114-0.12-0.208-0.209-0.284c-0.091-0.073-0.198-0.129-0.322-0.164
			c-0.123-0.037-0.259-0.055-0.408-0.055c-0.148,0-0.285,0.018-0.412,0.058c-0.125,0.037-0.234,0.094-0.328,0.17
			c-0.093,0.078-0.167,0.173-0.218,0.288c-0.052,0.116-0.078,0.25-0.079,0.403v0.796c0.002,0.153,0.029,0.283,0.083,0.393
			c0.054,0.109,0.125,0.199,0.216,0.266c0.09,0.069,0.189,0.117,0.298,0.146c0.109,0.028,0.219,0.04,0.33,0.031
			c0.111-0.007,0.215-0.033,0.312-0.077C62.029,95.368,62.11,95.308,62.176,95.231L62.176,95.231L62.176,95.231z M62.17,94.641
			c0,0.12-0.022,0.22-0.065,0.3c-0.044,0.079-0.099,0.138-0.167,0.176c-0.068,0.039-0.141,0.057-0.216,0.057
			c-0.077-0.001-0.149-0.022-0.217-0.062c-0.067-0.039-0.122-0.098-0.165-0.175c-0.044-0.076-0.066-0.173-0.066-0.286v-0.796
			c0-0.104,0.016-0.197,0.048-0.28c0.031-0.082,0.082-0.148,0.148-0.197c0.069-0.048,0.154-0.073,0.26-0.074
			c0.091,0,0.167,0.019,0.233,0.056c0.066,0.04,0.116,0.101,0.152,0.179c0.037,0.079,0.055,0.179,0.055,0.3V94.641L62.17,94.641z
			 M66.021,95.231c0,0.086,0,0.164,0,0.233s0,0.137,0,0.201c0,0.062,0,0.13,0,0.2c0,0.068,0,0.146,0,0.229
			c-0.002,0.156-0.038,0.276-0.113,0.36c-0.074,0.083-0.178,0.123-0.31,0.125c-0.088,0.001-0.164-0.015-0.229-0.045
			c-0.063-0.031-0.114-0.08-0.149-0.148c-0.036-0.068-0.056-0.16-0.058-0.276v-0.199H64.6v0.205c0,0.161,0.025,0.293,0.074,0.399
			c0.05,0.105,0.119,0.188,0.209,0.248c0.091,0.062,0.197,0.105,0.318,0.133c0.121,0.025,0.255,0.039,0.401,0.04
			c0.142,0,0.272-0.018,0.392-0.051c0.12-0.035,0.224-0.088,0.312-0.156s0.158-0.158,0.207-0.263c0.05-0.106,0.074-0.23,0.075-0.372
			c0-0.753,0-1.505,0-2.258c-0.001-0.153-0.025-0.286-0.075-0.398c-0.051-0.114-0.12-0.208-0.209-0.284
			c-0.092-0.073-0.2-0.129-0.322-0.164c-0.123-0.037-0.259-0.055-0.408-0.055c-0.148,0-0.285,0.018-0.411,0.058
			c-0.125,0.037-0.235,0.094-0.327,0.17c-0.095,0.078-0.168,0.173-0.219,0.288c-0.052,0.116-0.079,0.25-0.08,0.403v0.796
			c0.002,0.153,0.029,0.283,0.084,0.393c0.053,0.109,0.125,0.199,0.215,0.266c0.091,0.069,0.189,0.117,0.298,0.146
			c0.109,0.028,0.22,0.04,0.331,0.031c0.11-0.007,0.215-0.033,0.311-0.077C65.874,95.368,65.955,95.308,66.021,95.231L66.021,95.231
			L66.021,95.231z M66.015,94.641c-0.001,0.12-0.023,0.22-0.065,0.3c-0.044,0.079-0.099,0.138-0.167,0.176
			c-0.067,0.039-0.14,0.057-0.216,0.057c-0.076-0.001-0.147-0.022-0.216-0.062s-0.123-0.098-0.167-0.175
			c-0.043-0.076-0.065-0.173-0.066-0.286v-0.796c0-0.104,0.016-0.197,0.049-0.28c0.031-0.082,0.081-0.148,0.147-0.197
			c0.069-0.048,0.155-0.073,0.261-0.074c0.091,0,0.167,0.019,0.234,0.056c0.065,0.04,0.115,0.101,0.151,0.179
			c0.037,0.079,0.055,0.179,0.055,0.3V94.641L66.015,94.641z M68.61,96.513l-0.251,0.173v0.184c0.109,0,0.226,0,0.348,0
			s0.244,0,0.366,0s0.237,0,0.346,0v-0.184l-0.245-0.173c0-1.181,0-2.362,0-3.546c-0.111,0-0.215,0-0.31,0c-0.094,0-0.188,0-0.282,0
			c-0.095,0-0.194,0-0.306,0v0.234l0.334,0.107c0,0.534,0,1.067,0,1.602C68.61,95.444,68.61,95.978,68.61,96.513z"/>
		<rect x="39.164" y="80.726" fill="#363837" width="48.926" height="0.53"/>
		<path fill-rule="evenodd" clip-rule="evenodd" fill="#363837" d="M55.301,22.453h1.876c0.01-0.012,0.021-0.022,0.032-0.034
			l5.829-5.829c0.163-0.163,0.375-0.244,0.589-0.244s0.426,0.081,0.588,0.244l5.83,5.829c0.011,0.011,0.021,0.022,0.031,0.034h1.877
			c0.306,0,0.556,0.25,0.556,0.556v1.664c0,0.306-0.25,0.556-0.556,0.556h-0.655l-1.585,6.871C69.615,32.613,69.165,33,68.623,33
			h-4.996h-4.996c-0.542,0-0.993-0.388-1.091-0.901l-1.584-6.871h-0.655c-0.306,0-0.556-0.25-0.556-0.556v-1.664
			C54.745,22.703,54.995,22.453,55.301,22.453L55.301,22.453z M59.53,22.453h8.193l-4.097-4.096L59.53,22.453z"/>
		<path fill="#363837" d="M120.312,77.048v6.444v0.606l-0.528,0.304L91.97,100.463h-0.005L64.15,116.522l-0.523,0.303l-0.524-0.303
			l-27.815-16.059h-0.004L7.469,84.403l-0.528-0.304v-0.606v-6.444h2.112v5.838l27.287,15.755l0,0.001l27.288,15.755l27.289-15.755
			l-0.002-0.001l27.287-15.755v-5.838H120.312L120.312,77.048z M6.941,39.776v-6.444v-0.606l0.528-0.305l27.814-16.059h0.004
			L63.103,0.302L63.627,0l0.523,0.302l27.815,16.059h0.005l27.814,16.059l0.528,0.305v0.606v6.444h-2.111v-5.838L90.914,18.184
			l0.002-0.001L63.627,2.427L36.339,18.182l0,0.001L9.053,33.938v5.838H6.941z"/>
	</g>
	<path fill-rule="evenodd" clip-rule="evenodd" fill="#363837" d="M36.464,29.688c0.385-0.099,0.669-0.449,0.669-0.865
		c0-0.492-0.398-0.891-0.891-0.891c-0.301,0-0.528,0.114-0.69,0.291c-0.45,0.489-0.408,1.408-0.158,1.98
		c0.592,1.351,2.352,2.135,3.745,2.211c0.761,0.037,1.53-0.049,2.26-0.281c0.735-0.23,1.399-0.59,2.011-1
		c0.611-0.41,1.17-0.868,1.71-1.332l0.401-0.349c0.122-0.107,0.245-0.206,0.371-0.296c0.253-0.181,0.518-0.318,0.8-0.41
		c0.799-0.25,1.64-0.214,2.173,0.068c0.332,0.159,1.069,0.724,0.326,0.913c-0.385,0.099-0.67,0.448-0.67,0.865
		c0,0.493,0.399,0.892,0.892,0.892c0.3,0,0.527-0.115,0.689-0.292c0.45-0.489,0.408-1.408,0.158-1.981
		c-0.591-1.351-2.352-2.135-3.745-2.211c-0.762-0.036-1.53,0.05-2.26,0.281c-0.734,0.23-1.399,0.591-2.011,1
		c-0.611,0.41-1.169,0.868-1.709,1.332l-0.402,0.35c-0.122,0.106-0.244,0.206-0.371,0.295c-0.253,0.18-0.518,0.318-0.799,0.41
		c-0.8,0.25-1.64,0.213-2.174-0.068C36.459,30.441,35.722,29.877,36.464,29.688L36.464,29.688z M90.79,29.688
		c-0.386-0.099-0.671-0.449-0.671-0.865c0-0.492,0.399-0.891,0.893-0.891c0.301,0,0.526,0.114,0.689,0.291
		c0.45,0.489,0.408,1.408,0.158,1.98c-0.592,1.351-2.352,2.135-3.745,2.211c-0.762,0.037-1.53-0.049-2.26-0.281
		c-0.734-0.23-1.399-0.59-2.01-1c-0.612-0.41-1.171-0.868-1.711-1.332l-0.401-0.349c-0.122-0.107-0.244-0.206-0.371-0.296
		c-0.252-0.181-0.518-0.318-0.799-0.41c-0.799-0.25-1.641-0.214-2.173,0.068c-0.332,0.159-1.068,0.724-0.326,0.913
		c0.385,0.099,0.671,0.448,0.671,0.865c0,0.493-0.4,0.892-0.893,0.892c-0.302,0-0.528-0.115-0.69-0.292
		c-0.45-0.489-0.408-1.408-0.159-1.981c0.593-1.351,2.353-2.135,3.747-2.211c0.76-0.036,1.528,0.05,2.259,0.281
		c0.734,0.23,1.398,0.591,2.011,1c0.61,0.41,1.169,0.868,1.709,1.332l0.402,0.35c0.122,0.106,0.245,0.206,0.371,0.295
		c0.252,0.18,0.517,0.318,0.799,0.41c0.8,0.25,1.639,0.213,2.174-0.068C90.795,30.441,91.532,29.877,90.79,29.688L90.79,29.688z
		 M81.432,28.017c0.538,0.282,0.998,0.694,1.362,1.019c0.526,0.453,1.057,0.885,1.613,1.259c0.555,0.372,1.141,0.685,1.75,0.875
		c0.407,0.13,0.835,0.206,1.264,0.232c-0.538-0.282-0.998-0.694-1.362-1.019c-0.525-0.453-1.056-0.886-1.613-1.259
		c-0.555-0.371-1.142-0.684-1.749-0.875C82.288,28.118,81.861,28.043,81.432,28.017L81.432,28.017z M45.821,28.017
		c-0.538,0.282-0.998,0.694-1.362,1.019c-0.525,0.453-1.056,0.885-1.613,1.259c-0.555,0.372-1.141,0.685-1.75,0.875
		c-0.408,0.13-0.835,0.206-1.264,0.232c0.538-0.282,0.998-0.694,1.362-1.019c0.525-0.453,1.056-0.886,1.613-1.259
		c0.555-0.371,1.141-0.684,1.749-0.875C44.966,28.118,45.393,28.043,45.821,28.017z"/>
</g>
</svg>
